<svg width="36" height="36" viewBox="0 0 36 36" fill="none" xmlns="http://www.w3.org/2000/svg">
<path fill-rule="evenodd" clip-rule="evenodd" d="M2.96117 2H24.7485V7.53305H32.4336L34 11.7103L28.7008 14.9711V16.7253C29.8795 17.3896 30.6769 18.6534 30.6769 20.1048C30.6769 22.2459 28.9413 23.9819 26.8002 23.9819C24.6591 23.9819 22.9234 22.2459 22.9234 20.1048C22.9234 19.1387 23.2773 18.2554 23.8612 17.5771L23.2945 16.8677H20.0057V19.3145C20.0057 21.8922 17.9161 23.9819 15.3385 23.9819C13.004 23.9819 11.0698 22.2677 10.7257 20.0294H8.66618L7.48048 22.4008H0.71495C0.406119 22.4008 0.132201 22.2027 0.0357822 21.9093C-0.0606365 21.6159 0.0422444 21.2938 0.290871 21.1106L7.9894 15.4379H9.88082V14.4964H6.08523L2.96117 2ZM4.79243 3.42981L7.20159 13.0666H11.3106V16.8677H8.45928L2.89034 20.971H6.59681L7.7825 18.5996H12.1011V19.3145C12.1011 21.1025 13.5505 22.5521 15.3385 22.5521C17.1265 22.5521 18.5759 21.1025 18.5759 19.3145V15.4379H23.9822L25.8281 17.7479L25.2712 18.1942C24.7103 18.6438 24.3532 19.3324 24.3532 20.1048C24.3532 21.4562 25.4488 22.5521 26.8002 22.5521C28.1516 22.5521 29.2471 21.4562 29.2471 20.1048C29.2471 19.079 28.6157 18.1994 27.7176 17.8358L27.271 17.6548V14.1724L32.2478 11.1099L31.4428 8.96286H23.3187V3.42981H4.79243Z" fill="#333333"/>
<path d="M12.8683 13.3798H14.2833V13.7815H12.8683V13.3798ZM24.798 13.7815H26.2131V13.3798H24.798V13.7815ZM15.0166 13.7815H16.0054L18.695 9.96865H17.7083L15.0166 13.7815ZM16.8458 13.7815H17.8339L20.5242 9.96865H19.5368L16.8458 13.7815ZM18.6743 13.7815H19.6631L22.3534 9.96865H21.3645L18.6743 13.7815ZM20.5035 13.7815H21.4909L24.1825 9.96865H23.1944L20.5035 13.7815ZM22.3319 13.7815H23.3201L26.011 9.96865H25.0236L22.3319 13.7815Z" fill="#333333"/>
<path d="M25.2893 25.6641H23.6984V27.141H25.2893V25.6641Z" fill="#333333"/>
<path d="M11.162 34.5607H9.83286L12.0388 27.0904H13.368L11.162 34.5607Z" fill="#333333"/>
<path d="M6.30117 28.1159C6.62327 27.9303 6.99185 27.841 7.36316 27.8587C8.54466 27.8587 9.4663 28.5467 9.47378 29.8815V34.0691H7.88287V30.3993C7.88287 29.9544 7.85857 29.2066 6.84906 29.2066C6.14427 29.2066 5.59839 29.6833 5.59839 30.6031V34.0635H4V28.0176H5.52174V28.9056H5.54604C5.717 28.5755 5.97908 28.3014 6.30117 28.1159Z" fill="#333333"/>
<path d="M20.2791 27.8588C19.3313 27.8588 18.8869 28.5042 18.6778 28.8077L18.6657 28.8253C18.2563 28.1785 17.8581 27.8588 16.9832 27.8588C16.6257 27.8424 16.2714 27.9334 15.9659 28.1199C15.6604 28.3065 15.4177 28.5801 15.2689 28.9057H15.2465V28.0177H13.7229V34.0635H15.3194V30.3825C15.3194 29.7226 15.5587 29.201 16.3083 29.201C17.2618 29.201 17.2618 29.917 17.2618 30.4274V34.0635H18.8527V30.4386C18.8527 29.7226 19.1368 29.201 19.9332 29.201C20.3987 29.201 20.7969 29.4964 20.7969 30.3938V34.0635H22.3878V29.8815C22.3822 28.5467 21.4606 27.8588 20.2791 27.8588Z" fill="#333333"/>
<path d="M23.6984 28.0176H25.2893V34.0634H23.6984V28.0176Z" fill="#333333"/>
<path d="M28.9293 28.1161C29.2513 27.9306 29.6198 27.8412 29.9911 27.8587C31.1744 27.8587 32.0942 28.5466 32.0942 29.8814V34.069H30.5033V30.3993C30.5033 29.9543 30.4809 29.2065 29.4695 29.2065C28.7647 29.2065 28.2188 29.6833 28.2188 30.603V34.0634H26.6279V28.0176H28.1515V28.9056H28.174C28.3451 28.5756 28.6072 28.3017 28.9293 28.1161Z" fill="#333333"/>
</svg>
