<svg width="36" height="36" viewBox="0 0 36 36" fill="none" xmlns="http://www.w3.org/2000/svg">
<path d="M20.8117 13.7766V11.8082L17.2388 15.3813L20.8117 18.9539V16.9988H24.594V13.7766H20.8117ZM23.6748 16.0781H19.8908V16.7471L18.5332 15.3877L19.8908 14.0348V14.7024H23.6748V16.0781Z" fill="#333333"/>
<path d="M4.78398 13.7761H1V16.9983H4.78398V18.9682L8.35685 15.3957L4.78398 11.8226V13.7761ZM5.7097 14.0343L7.06576 15.3922L5.7097 16.7466V16.0776H1.92083V14.6969H5.7097V14.0343Z" fill="#333333"/>
<path d="M9.55575 15.2539C9.25082 15.8355 9.10116 16.4862 9.1212 17.1425C9.14124 17.7989 9.33032 18.439 9.67017 19.0009C10.01 19.5628 10.4891 20.0273 11.0611 20.3499C11.6331 20.6724 12.2787 20.842 12.9354 20.842C13.5921 20.842 14.2376 20.6724 14.8097 20.3499C15.3817 20.0273 15.8608 19.5628 16.2007 19.0009C16.5405 18.439 16.7296 17.7989 16.7496 17.1425C16.7697 16.4862 16.6199 15.8355 16.315 15.2539L12.9363 9.29967L9.55575 15.2539ZM15.6552 17.0286C15.6544 17.4399 15.5604 17.8458 15.3801 18.2155C15.1997 18.5852 14.9379 18.9091 14.6143 19.163C14.2906 19.4168 13.9136 19.5938 13.5116 19.6809C13.1096 19.7679 12.6931 19.7623 12.2934 19.665C11.8937 19.5677 11.5213 19.3809 11.2043 19.1189C10.8872 18.8568 10.6338 18.5267 10.463 18.1525C10.2922 17.7783 10.2086 17.3699 10.2183 16.9587C10.2281 16.5475 10.3311 16.1439 10.5194 15.7782L12.9363 11.5213L15.3514 15.7782C15.5508 16.1648 15.655 16.5936 15.6552 17.0286Z" fill="#333333"/>
<path fill-rule="evenodd" clip-rule="evenodd" d="M8.90928 23.0012L4.84958 27.0609H14.194V29.0907H2.01493V30.1056H14.194V33.1504H20.2836V30.1056H32.4627V29.0907H20.2836V27.0609H28.1929H28.9104V26.3433V18.434H35V12.3444H28.9104V3L24.8507 7.0597V23.0012H8.90928ZM9.32965 24.0161L7.2998 26.0459H9.86282L11.216 24.0161H9.32965ZM12.4358 24.0161L11.0826 26.0459H13.3209L13.9975 24.0161H12.4358ZM14.3907 26.0459L15.0673 24.0161H16.7314V26.0459H17.7463V24.0161H19.4105L20.087 26.0459H17.7463H16.7314H14.3907ZM20.4803 24.0161L21.1569 26.0459H23.3951L22.0419 24.0161H20.4803ZM23.2617 24.0161L24.6149 26.0459H27.1779L25.1481 24.0161H23.2617ZM27.8955 25.3284V22.7653L25.8657 21.4119V23.2985L27.8955 25.3284ZM25.8657 20.1923L27.8955 21.5452V19.3072L25.8657 18.6307V20.1923ZM25.8657 17.5608L27.8955 18.2373V15.8967H25.8657V17.5608ZM25.8657 14.8818H27.8955V12.5412L25.8657 13.2176V14.8818ZM25.8657 12.1477L27.8955 11.4713V9.23277L25.8657 10.5862V12.1477ZM25.8657 9.36608L27.8955 8.01318V5.45009L25.8657 7.47994V9.36608ZM15.209 27.0609V32.1355H19.2687V27.0609H15.209ZM28.9104 17.4191H33.9851V13.3594H28.9104V17.4191Z" fill="#333333"/>
</svg>
