<svg width="36" height="36" viewBox="0 0 36 36" fill="none" xmlns="http://www.w3.org/2000/svg">
<path d="M8.16542 22.6193L7.68228 21.7857L1 25.6389L7.68228 29.4938L8.16542 28.6602L3.76444 26.122H35V25.1575H3.76444L8.16542 22.6193Z" fill="#333333"/>
<path fill-rule="evenodd" clip-rule="evenodd" d="M11.4752 7H27.9642V11.1454H33.7805L34.9659 14.2748L30.9554 16.7179V18.0321C31.8475 18.5297 32.451 19.4766 32.451 20.5639C32.451 22.168 31.1374 23.4683 29.517 23.4683C27.8966 23.4683 26.583 22.168 26.583 20.5639C26.583 19.8402 26.8508 19.1781 27.2927 18.6699L26.8638 18.1386H24.3748V19.9718C24.3748 21.9029 22.7934 23.4683 20.8426 23.4683C19.0758 23.4683 17.6119 22.1842 17.3515 20.5073L15.7929 20.5074L14.8955 22.284H9.77525C9.54152 22.284 9.33422 22.1354 9.26125 21.9156C9.18827 21.6958 9.26614 21.4545 9.4543 21.3172L15.2807 17.0674H16.7121V16.362H13.8396L11.4752 7ZM12.8612 8.07119L14.6844 15.2908H17.7942V18.1386H15.6363L11.4216 21.2128H14.2267L15.1241 19.4362L18.3925 19.4361V19.9717C18.3925 21.3112 19.4894 22.3971 20.8426 22.3971C22.1958 22.3971 23.2927 21.3113 23.2927 19.9718V17.0674H27.3843L28.7813 18.7981L28.3598 19.1326C27.9353 19.4694 27.6651 19.9852 27.6651 20.5639C27.6651 21.5764 28.4942 22.3971 29.517 22.3971C30.5398 22.3971 31.3689 21.5764 31.3689 20.5639C31.3689 19.7954 30.891 19.1361 30.2113 18.8638L29.8733 18.7283V16.1193L33.6398 13.8248L33.0306 12.2166H26.8821V8.07119H12.8612Z" fill="#333333"/>
</svg>
