<svg width="36" height="36" viewBox="0 0 36 36" fill="none" xmlns="http://www.w3.org/2000/svg">
<path d="M24.6297 11.9852V2L1 17.7688H18.8395C20.374 17.7688 21.8457 17.1597 22.9314 16.0752C24.0171 14.9908 24.628 13.5197 24.6297 11.9852ZM22.7616 5.47013L22.77 11.9852C22.77 13.0294 22.3551 14.0309 21.6168 14.7692C20.8784 15.5076 19.877 15.9224 18.8328 15.9224L7.11501 15.909L22.7616 5.47013Z" fill="#333333"/>
<path d="M35 11.9669L27.8421 9.79075L29.5261 17.0759L30.4301 16.8616L29.3135 12.0439C30.0326 12.493 30.6486 13.089 31.1212 13.7928C31.5937 14.4967 31.9122 15.2925 32.0555 16.1281C32.1989 16.9636 32.1641 17.8201 31.9532 18.6412C31.7424 19.4624 31.3603 20.2297 30.8321 20.8928C30.3039 21.5559 29.6415 22.0999 28.8883 22.489C28.1351 22.8781 27.3081 23.1036 26.4616 23.1507C25.6152 23.1977 24.7683 23.0653 23.9766 22.7621C23.1849 22.4589 22.4662 21.9918 21.8677 21.3913L21.2132 22.0459C22.185 23.0175 23.4231 23.6792 24.7709 23.9473C26.1187 24.2153 27.5157 24.0777 28.7853 23.5518C30.055 23.026 31.1401 22.1355 31.9037 20.9929C32.6672 19.8503 33.0748 18.507 33.0749 17.1328C33.0749 14.7892 31.8312 12.6616 30.0618 11.4028L34.7288 12.8524L35 11.9669Z" fill="#333333"/>
<path d="M26.1312 19.153C26.5285 19.153 26.9168 19.0352 27.2472 18.8145C27.5775 18.5938 27.835 18.28 27.987 17.913C28.1391 17.5459 28.1788 17.142 28.1013 16.7524C28.0238 16.3627 27.8325 16.0048 27.5516 15.7239C27.2707 15.4429 26.9127 15.2516 26.5231 15.1741C26.1334 15.0966 25.7295 15.1364 25.3625 15.2884C24.9954 15.4404 24.6817 15.6979 24.4609 16.0283C24.2402 16.3586 24.1224 16.747 24.1224 17.1443C24.1224 17.677 24.334 18.188 24.7108 18.5647C25.0875 18.9414 25.5984 19.153 26.1312 19.153Z" fill="#333333"/>
<path d="M8.23827 27.4711C7.90597 27.4551 7.57605 27.5348 7.28766 27.7006C6.99926 27.8665 6.76449 28.1116 6.61118 28.4068H6.58941V27.6117H5.2268V33.0253H6.65135V29.9218C6.65135 29.0982 7.14015 28.6713 7.77123 28.6713C8.67518 28.6713 8.69694 29.3409 8.69694 29.7393V33.027H10.1215V29.2857C10.1215 28.0905 9.29622 27.4711 8.23827 27.4711Z" fill="#333333"/>
<path d="M10.4495 33.4706H11.6397L13.615 26.7831H12.4248L10.4495 33.4706Z" fill="#333333"/>
<path d="M19.8036 27.471C18.9382 27.471 18.5415 28.0703 18.359 28.3348C17.9924 27.7556 17.6359 27.471 16.8524 27.471C16.5325 27.4562 16.2153 27.5374 15.9418 27.7042C15.6683 27.8709 15.4509 28.1156 15.3174 28.4068H15.2973V27.6116H13.933V33.0252H15.3576V29.7275C15.3576 29.1366 15.5719 28.6696 16.2431 28.6696C17.0968 28.6696 17.0968 29.3107 17.0968 29.7677V33.0252H18.5214V29.7878C18.5214 29.1467 18.7758 28.6796 19.4889 28.6796C19.9058 28.6796 20.2623 28.9441 20.2623 29.7476V33.0353H21.6869V29.2856C21.6869 28.0904 20.8616 27.471 19.8036 27.471Z" fill="#333333"/>
<path d="M24.2901 27.6134H22.8655V33.027H24.2901V27.6134Z" fill="#333333"/>
<path d="M24.2901 25.5041H22.8655V26.8265H24.2901V25.5041Z" fill="#333333"/>
<path d="M28.4998 27.471C28.1676 27.4553 27.8377 27.535 27.5494 27.7009C27.261 27.8667 27.0262 28.1117 26.8727 28.4068H26.8527V27.6117H25.4884V33.0253H26.9129V29.9217C26.9129 29.0981 27.4017 28.6713 28.0328 28.6713C28.9384 28.6713 28.9585 29.3409 28.9585 29.7393V33.0269H30.3831V29.2856C30.3831 28.0904 29.5595 27.471 28.4998 27.471Z" fill="#333333"/>
</svg>
