<svg width="36" height="36" viewBox="0 0 36 36" fill="none" xmlns="http://www.w3.org/2000/svg">
<path d="M23.1018 24.3891L22.1546 22.744L21.3167 23.2287L18.8183 18.8906C19.05 18.619 19.2299 18.3072 19.349 17.9707H27.2453V15.0696H24.3442V16.0389H19.349C19.232 15.6978 19.052 15.3817 18.8183 15.1071L22.7673 8.25866L20.2569 6.80467L18.8064 9.32185L19.6443 9.80652L17.1459 14.1446C16.9708 14.112 16.7932 14.0954 16.6151 14.0951C16.4376 14.0954 16.2605 14.112 16.0861 14.1446L12.1371 7.28933L9.62673 8.74333L11.0756 11.2588L11.9135 10.7741L14.4119 15.1071C14.1795 15.3782 13.9995 15.6901 13.8812 16.0269H5.98491V18.9281H8.88608V17.9605H13.8812C14.0003 18.297 14.1802 18.6088 14.4119 18.8803L10.4629 25.7459L12.9716 27.1982L14.4222 24.681L13.586 24.1963L16.0844 19.8582C16.2587 19.8917 16.4359 19.9083 16.6134 19.9077C16.7915 19.9082 16.9692 19.8917 17.1442 19.8582L20.6989 26.0292L10.8367 32.7496H29.1977C29.9605 32.7496 30.7158 32.5992 31.4205 32.307C32.1251 32.0147 32.7652 31.5864 33.3042 31.0465C33.8431 30.5066 34.2703 29.8658 34.5613 29.1606C34.8522 28.4555 35.0013 27.6999 35 26.937V16.2829L23.1018 24.3891ZM16.6168 17.9827C16.425 17.9834 16.2372 17.9271 16.0774 17.821C15.9175 17.7149 15.7927 17.5637 15.7189 17.3867C15.645 17.2096 15.6253 17.0146 15.6623 16.8263C15.6993 16.6381 15.7914 16.465 15.9268 16.3291C16.0622 16.1932 16.2349 16.1006 16.4231 16.0629C16.6112 16.0252 16.8063 16.0442 16.9836 16.1175C17.1609 16.1907 17.3125 16.315 17.4191 16.4745C17.5258 16.6339 17.5827 16.8215 17.5827 17.0133C17.5832 17.2691 17.4824 17.5146 17.3024 17.6963C17.1223 17.8779 16.8777 17.9809 16.622 17.9827H16.6168ZM33.0579 26.937C33.0575 27.9617 32.6509 28.9443 31.9274 29.6698C31.2038 30.3953 30.2223 30.8044 29.1977 30.8075H17.1169L33.063 19.9367L33.0579 26.937Z" fill="#333333"/>
<path d="M7.9099 10.1795L8.74953 9.69658L4.87391 3L1 9.69658L1.83792 10.1795L4.38924 5.76976L4.38925 16.772H5.35858L5.35858 5.76976L7.9099 10.1795Z" fill="#333333"/>
<path d="M7.9099 25.2962L5.35858 29.7043L5.35858 18.7038H4.38925L4.38925 29.7043L1.83793 25.2962L1 25.7792L4.87391 32.4741L8.74953 25.7792L7.9099 25.2962Z" fill="#333333"/>
</svg>
