<svg width="36" height="36" viewBox="0 0 36 36" fill="none" xmlns="http://www.w3.org/2000/svg">
<path d="M26.473 17.6262C26.473 13.0439 22.8235 9.32932 18.3217 9.32932V5.5C21.0388 6.35096 26.473 10.9887 26.473 17.6262Z" fill="#333333"/>
<path fill-rule="evenodd" clip-rule="evenodd" d="M26.8534 17.6262H26.473C26.473 13.0439 22.8235 9.32932 18.3217 9.32932C13.4001 9.32932 9.59764 12.4799 7.66899 15.2144L10.0385 17.6262L10.1695 17.6262C10.1695 17.7019 10.1705 17.7774 10.1725 17.8527C10.2941 24.369 15.6356 28.9111 18.3217 29.7523V25.9231L18.3758 25.9229C23.3601 25.8995 27.1899 22.6472 29.0773 19.8898L26.8534 17.6262ZM18.3208 10.6058C14.5116 10.6058 11.4236 13.749 11.4236 17.6262C11.4236 21.5035 14.5116 24.6466 18.3208 24.6466C22.1301 24.6466 25.2181 21.5035 25.2181 17.6262C25.2181 13.749 22.1301 10.6058 18.3208 10.6058Z" fill="#333333"/>
<path d="M31.7446 16.0205V14.0607L28.2497 17.6181L31.7446 21.1754V19.2286H35.4445V16.0205H31.7446ZM34.5453 18.3118H30.8439V18.978L29.5158 17.6246L30.8439 16.2776V16.9422H34.5453V18.3118Z" fill="#333333"/>
<path d="M5.14591 16.0203H1.44446V19.2284H5.14591V21.1897L8.64084 17.6324L5.14591 14.0751V16.0203ZM6.05142 16.2774L7.3779 17.6292L6.05142 18.9777V18.3115H2.3452V16.9371H6.05142V16.2774Z" fill="#333333"/>
<path d="M14.7775 17.4915C14.4792 18.0705 14.3328 18.7182 14.3524 19.3717C14.372 20.0252 14.557 20.6625 14.8894 21.222C15.2218 21.7815 15.6905 22.2441 16.25 22.5653C16.8096 22.8864 17.4411 23.0551 18.0834 23.0551C18.7258 23.0551 19.3573 22.8864 19.9168 22.5653C20.4764 22.2441 20.945 21.7815 21.2774 21.222C21.6099 20.6625 21.7948 20.0252 21.8144 19.3717C21.834 18.7182 21.6876 18.0705 21.3893 17.4915L18.0844 11.5631L14.7775 17.4915ZM20.7439 19.2582C20.7431 19.6678 20.6511 20.0718 20.4747 20.4399C20.2984 20.808 20.0422 21.1306 19.7257 21.3833C19.4091 21.636 19.0403 21.8124 18.647 21.899C18.2538 21.9857 17.8463 21.9803 17.4554 21.8835C17.0645 21.7866 16.7002 21.6008 16.3901 21.3398C16.0799 21.0789 15.832 20.7498 15.665 20.3772C15.4979 20.0047 15.4161 19.5984 15.4256 19.189C15.4352 18.7795 15.5359 18.3777 15.7202 18.0136L18.0844 13.7749L20.4467 18.0136C20.6418 18.3984 20.7437 18.8252 20.7439 19.2582Z" fill="#333333"/>
</svg>
