<svg width="36" height="36" viewBox="0 0 36 36" fill="none" xmlns="http://www.w3.org/2000/svg">
<path fill-rule="evenodd" clip-rule="evenodd" d="M32.0194 12.2978H26.2796C25.1796 12.2978 24.2693 11.4939 24.0981 10.4421C25.5547 9.54331 26.5278 7.93322 26.5278 6.09956C26.5277 3.28766 24.2403 1 21.4285 1C18.6166 1 16.3289 3.28766 16.3289 6.09956C16.3289 7.93322 17.3021 9.54331 18.7588 10.4421C18.5877 11.4939 17.6775 12.2978 16.5774 12.2978H10.8375L9.96282 19.2143H17.7857L17.7857 35H34.8904L32.0194 12.2978ZM23.8186 6.09944C23.8186 4.78147 22.7465 3.70912 21.4285 3.70912C20.1104 3.70912 19.0381 4.78147 19.0382 6.09944C19.0382 7.41742 20.1105 8.48965 21.4285 8.48965C22.7464 8.48965 23.8186 7.41742 23.8186 6.09944Z" fill="#333333"/>
<path d="M2 24.7989V21.6429H5.15904L2 24.7989ZM2 30.6551V27.6325L7.99435 21.6429H11.0197L2 30.6551ZM2 35V33.4928L13.8547 21.6429H15.3675V23.15L3.51282 35H2ZM6.34783 35L15.3675 25.9877V29.0092L9.37317 35H6.34783ZM12.2085 35L15.3675 31.8427V35H12.2085Z" fill="#333333"/>
</svg>
