<svg width="36" height="36" viewBox="0 0 36 36" fill="none" xmlns="http://www.w3.org/2000/svg">
<path fill-rule="evenodd" clip-rule="evenodd" d="M3 13.0928C3.55228 13.0928 4 12.6454 4 12.0934C4 11.5414 3.55228 11.094 3 11.094C2.44772 11.094 2 11.5414 2 12.0934C2 12.6454 2.44772 13.0928 3 13.0928ZM3 14.0923C3.35185 14.0923 3.68248 14.0015 3.9697 13.842C4.58417 13.5009 5 12.8457 5 12.0934C5 10.9895 4.10457 10.0946 3 10.0946C1.89543 10.0946 1 10.9895 1 12.0934C1 12.8207 1.38865 13.4573 1.9697 13.807C2.27062 13.9881 2.62314 14.0923 3 14.0923Z" fill="#333333"/>
<path fill-rule="evenodd" clip-rule="evenodd" d="M33 13.0928C33.5523 13.0928 34 12.6454 34 12.0934C34 11.5414 33.5523 11.094 33 11.094C32.4477 11.094 32 11.5414 32 12.0934C32 12.6454 32.4477 13.0928 33 13.0928ZM33 14.0923C33.3769 14.0923 33.7294 13.9881 34.0303 13.807C34.6114 13.4573 35 12.8207 35 12.0934C35 10.9895 34.1046 10.0946 33 10.0946C31.8954 10.0946 31 10.9895 31 12.0934C31 12.8457 31.4158 13.5009 32.0303 13.842C32.3175 14.0015 32.6482 14.0923 33 14.0923Z" fill="#333333"/>
<path d="M3.9697 13.842C3.68248 14.0015 3.35185 14.0923 3 14.0923C2.62314 14.0923 2.27062 13.9881 1.9697 13.807V25.7899L10.3963 32.05H25.6037L34.0303 25.7899V13.807C33.7294 13.9881 33.3769 14.0923 33 14.0923C32.6482 14.0923 32.3175 14.0015 32.0303 13.842V24.7851L24.9418 30.0511H11.0582L3.9697 24.7851V13.842Z" fill="#333333"/>
<path d="M18.8161 13.6313L18.771 13.0933C18.7032 11.9957 19.0645 11.0273 20.0581 9.90818C21.1419 8.68149 22 7.62697 22 6.16356C22 4.52798 20.8258 3 18.229 3C17.0323 3 15.7677 3.34433 15 3.86083L15.5419 5.21664C16.1065 4.80775 17.0097 4.5495 17.8226 4.5495C19.2452 4.57102 19.9677 5.30273 19.9677 6.40029C19.9677 7.36872 19.4032 8.20803 18.3871 9.34864C17.2581 10.6399 16.8516 11.9311 16.9871 13.0717L17.0323 13.6313H18.8161ZM17.8677 18C18.7032 18 19.2226 17.4189 19.2226 16.6657C19.2226 15.8694 18.7032 15.3099 17.8903 15.3099C17.1226 15.3099 16.5581 15.8694 16.5581 16.6657C16.5581 17.4189 17.1 18 17.8677 18Z" fill="#333333"/>
</svg>
