<svg width="37" height="36" viewBox="0 0 37 36" fill="none" xmlns="http://www.w3.org/2000/svg">
<path d="M2.99995 14.9244L0.557251 19.5772L1.44265 20.042L2.49995 18.0281V26.0001H3.49995V18.0281L4.55725 20.042L5.44265 19.5772L2.99995 14.9244Z" fill="#333333"/>
<path d="M26.1653 32.0001L21.004 29.5485L20.5749 30.4517L22.782 31.5001H11V32.5001H22.782L20.5749 33.5485L21.004 34.4517L26.1653 32.0001Z" fill="#333333"/>
<path fill-rule="evenodd" clip-rule="evenodd" d="M6.05522 12.4807C6.70347 12.8269 7.42907 13 8.23201 13C9.03496 13 9.75687 12.8269 10.3978 12.4807C11.0386 12.1344 11.5432 11.6593 11.9116 11.0552C12.2799 10.4438 12.4641 9.75875 12.4641 9C12.4641 8.24125 12.2799 7.55985 11.9116 6.9558C11.5432 6.34438 11.0386 5.86556 10.3978 5.51934C9.75687 5.17311 9.03496 5 8.23201 5C7.42907 5 6.70347 5.17311 6.05522 5.51934C5.41433 5.86556 4.90973 6.34438 4.5414 6.9558C4.18045 7.55985 3.99997 8.24125 3.99997 9C3.99997 9.75875 4.18045 10.4438 4.5414 11.0552C4.90973 11.6593 5.41433 12.1344 6.05522 12.4807ZM9.46958 11.1657C9.10126 11.372 8.68873 11.4751 8.23201 11.4751C7.77529 11.4751 7.36277 11.372 6.99444 11.1657C6.62612 10.9521 6.33514 10.6575 6.12151 10.2818C5.91525 9.90608 5.81212 9.47882 5.81212 9C5.81212 8.52118 5.91525 8.09392 6.12151 7.71823C6.33514 7.34254 6.62612 7.05157 6.99444 6.8453C7.36277 6.63168 7.77529 6.52486 8.23201 6.52486C8.68873 6.52486 9.10126 6.63168 9.46958 6.8453C9.83791 7.05157 10.1252 7.34254 10.3315 7.71823C10.5451 8.09392 10.6519 8.52118 10.6519 9C10.6519 9.47882 10.5451 9.90608 10.3315 10.2818C10.1252 10.6575 9.83791 10.9521 9.46958 11.1657Z" fill="#333333"/>
<path d="M19.4337 12.8674H20.9033V5.1326H19.1353V9.82873L15.29 5.1326H13.8094V12.8674H15.5773V8.17127L19.4337 12.8674Z" fill="#333333"/>
<path fill-rule="evenodd" clip-rule="evenodd" d="M27.8396 28.5503H1.99997L36 5.44922V20.3899C36 22.5542 35.1402 24.6298 33.6098 26.1602C32.0795 27.6906 30.0039 28.5503 27.8396 28.5503ZM31.6844 24.2341C32.7043 23.2147 33.2776 21.8319 33.2782 20.3899V10.5759L10.8372 25.8262H27.8396C29.2816 25.8262 30.6646 25.2535 31.6844 24.2341Z" fill="#333333"/>
</svg>
