<svg width="36" height="36" viewBox="0 0 36 36" fill="none" xmlns="http://www.w3.org/2000/svg">
<path fill-rule="evenodd" clip-rule="evenodd" d="M9.1724 4L28.9605 9.30221L27.614 14.3275L34.5939 16.1978L35 20.373L29.3935 22.0449L28.9666 23.6382C29.8755 24.5284 30.2922 25.8703 29.9389 27.1885C29.5763 28.5419 28.4979 29.5124 27.2201 29.8019L31.6492 31.0673L1 30.1916V22.3104L12.9965 25.738C12.1417 24.8233 11.6946 23.5607 11.8368 22.2646L9.96624 21.7634L8.31224 23.6287L2.16751 21.9822C1.88702 21.907 1.68645 21.6604 1.67028 21.3705C1.65411 21.0806 1.82593 20.8131 2.09633 20.7072L10.469 17.4286L12.1868 17.8889L12.416 17.0337L8.96866 16.11L9.1724 4ZM17.3358 26.9778L23.858 28.8413C22.9563 27.9503 22.5454 26.6136 22.8969 25.3016C23.132 24.4242 23.6684 23.708 24.3638 23.234L24.0217 22.4518L21.0347 21.6515L20.4392 23.8737C20.0188 25.4428 18.7993 26.5843 17.3358 26.9778ZM10.1427 7.59656L10.0207 14.8507C10.0942 14.8611 12.0849 15.3834 14.0855 15.9108L15.8999 9.13921L10.1427 7.59656Z" fill="#333333"/>
</svg>
