<svg width="36" height="36" viewBox="0 0 36 36" fill="none" xmlns="http://www.w3.org/2000/svg">
<path d="M13.5405 4H0.53479V6.16739H0.547002L0.546291 30.9189H10.6267V28.7501H2.71437V6.16739H12.4536L20.9908 18.3592L22.7673 17.1152L13.5846 4.00138L13.5405 4.03226V4Z" fill="#333333"/>
<path fill-rule="evenodd" clip-rule="evenodd" d="M16.2439 24.5654L11.915 20.2335L14.0663 18.0807L18.3953 22.4111H19.5183L23.8487 18.0807L26 20.2307L21.7468 24.4824L21.6697 24.5625V25.6855L26 30.0144L23.8501 32.1672L19.5198 27.8369H18.3967L14.0678 32.1672L11.915 30.0174L16.2439 25.6884V24.5654ZM20.0282 24.9157C19.9861 24.7041 19.8821 24.5096 19.7295 24.3571C19.5247 24.153 19.2474 24.0383 18.9582 24.0383C18.6691 24.0383 18.3918 24.153 18.187 24.3571C18.0344 24.5096 17.9304 24.7041 17.8883 24.9157C17.8461 25.1273 17.8677 25.3467 17.9503 25.5461C18.0328 25.7455 18.1726 25.9159 18.3521 26.0358C18.5315 26.1557 18.7425 26.2197 18.9582 26.2197C19.174 26.2197 19.385 26.1557 19.5644 26.0358C19.7438 25.9159 19.8837 25.7455 19.9662 25.5461C20.0488 25.3467 20.0703 25.1273 20.0282 24.9157ZM23.8705 31.2161L21.2371 28.5812L22.5538 28.5754L24.5333 30.5548L23.8705 31.2161ZM12.8734 30.0436L15.5084 27.4086L15.5142 28.7254L13.5347 30.7063L12.8734 30.0436ZM14.0401 19.0464L16.6736 21.6814L15.3583 21.6858L13.3774 19.7077L14.0401 19.0464ZM25.0387 20.2117L22.4023 22.8466L22.3965 21.5313L24.3774 19.5519L25.0387 20.2117Z" fill="#333333"/>
<path d="M25 28.5H25.6481V27.5H25V28.5Z" fill="#333333"/>
<path d="M26.6852 28.5H27.9815V27.5H26.6852V28.5Z" fill="#333333"/>
<path d="M29.0185 28.5H30.3148V27.5H29.0185V28.5Z" fill="#333333"/>
<path d="M31.3519 28.5H32V27.5H31.3519V28.5Z" fill="#333333"/>
<path d="M27 30.5H27.6481V29.5H27V30.5Z" fill="#333333"/>
<path d="M28.6852 30.5H29.9815V29.5H28.6852V30.5Z" fill="#333333"/>
<path d="M31.0185 30.5H32.3148V29.5H31.0185V30.5Z" fill="#333333"/>
<path d="M33.3519 30.5H34V29.5H33.3519V30.5Z" fill="#333333"/>
<path d="M28 32.5H28.6481V31.5H28V32.5Z" fill="#333333"/>
<path d="M29.6852 32.5H30.9815V31.5H29.6852V32.5Z" fill="#333333"/>
<path d="M32.0185 32.5H33.3148V31.5H32.0185V32.5Z" fill="#333333"/>
<path d="M34.3519 32.5H35V31.5H34.3519V32.5Z" fill="#333333"/>
</svg>
