<svg width="36" height="36" viewBox="0 0 36 36" fill="none" xmlns="http://www.w3.org/2000/svg">
<path fill-rule="evenodd" clip-rule="evenodd" d="M24.7364 26.0979C24.899 26.2604 25.0097 26.4674 25.0546 26.6928C25.0994 26.9181 25.0765 27.1517 24.9885 27.3641C24.9006 27.5764 24.7517 27.7578 24.5606 27.8855C24.3696 28.0132 24.1449 28.0813 23.9151 28.0813C23.6853 28.0813 23.4606 28.0132 23.2695 27.8855C23.0785 27.7578 22.9295 27.5764 22.8416 27.3641C22.7537 27.1517 22.7307 26.9181 22.7756 26.6928C22.8205 26.4674 22.9312 26.2604 23.0937 26.0979C23.3118 25.8806 23.6072 25.7585 23.9151 25.7585C24.223 25.7585 24.5184 25.8806 24.7364 26.0979ZM26.3419 30.596L29.1465 33.4018L29.8523 32.6976L27.7442 30.5898L26.3419 30.596ZM20.2411 29.3473L17.435 32.1532L18.1392 32.8589L20.2473 30.7495L20.2411 29.3473ZM21.482 23.2487L18.6775 20.4429L17.9717 21.1471L20.0813 23.2534L21.482 23.2487ZM27.5829 24.4895L30.3905 21.6837L29.6863 20.9811L27.5767 23.0889L27.5829 24.4895ZM16.4143 21.707L21.0244 26.3197V27.5156L16.4143 32.1253L18.707 34.4146L23.3171 29.8033H24.5131L29.1248 34.4146L31.4143 32.1221L26.8026 27.5125V26.3167L26.8848 26.2313L31.4143 21.7039L29.1232 19.4146L24.5115 24.0258H23.3156L18.7054 19.4146L16.4143 21.707Z" fill="#333333"/>
<path d="M5 35V1H24V21.7088L23.9137 21.7951L18.7052 16.5854L15.9648 19.3274C15.9481 19.3102 15.9314 19.293 15.9147 19.2759V19.265C15.6403 18.9015 15.4913 18.4546 15.4913 17.9946C15.4913 17.5345 15.6403 17.0876 15.9147 16.7241C16.7981 15.8221 17.5997 14.8392 18.3095 13.7877C19.0205 12.7376 19.6377 11.6235 20.1534 10.4592C21.2022 8.12371 21.8316 5.6127 22.0113 3.04719H7.01691C7.10245 4.32384 7.30108 5.58982 7.61034 6.8294C7.91495 8.07567 8.32995 9.29066 8.85016 10.4592C9.36587 11.627 9.98298 12.7446 10.694 13.7985C11.404 14.85 12.2056 15.8328 13.0889 16.735C13.3633 17.0985 13.5122 17.5454 13.5122 18.0054C13.5122 18.4655 13.3633 18.9124 13.0889 19.2759C9.51781 22.9244 7.35545 27.7799 7.00279 32.9419H14.4034L16.4638 35H5Z" fill="#333333"/>
</svg>
