<svg width="36" height="36" viewBox="0 0 36 36" fill="none" xmlns="http://www.w3.org/2000/svg">
<path d="M18.3103 2V2.03673L18.3603 2.00168L28.7926 16.8999L26.7743 18.3132L17.0754 4.46232H6.011V30.1181H9.77481V32.582H3.54789L3.54871 4.46232H3.53479V2H18.3103Z" fill="#333333"/>
<path fill-rule="evenodd" clip-rule="evenodd" d="M21.3815 25.3638L16.4636 20.4425L18.9077 17.9968L23.8257 22.9164H25.1015L30.0211 17.9968L32.4652 20.4393L27.6333 25.2695L27.5456 25.3605V26.6364L32.4652 31.5543L30.0228 34.0001L25.1032 29.0805H23.8273L18.9093 34.0001L16.4636 31.5577L21.3815 26.6397V25.3638ZM25.6808 25.7618C25.6329 25.5214 25.5148 25.3005 25.3414 25.1272C25.1088 24.8953 24.7937 24.7651 24.4652 24.7651C24.1368 24.7651 23.8217 24.8953 23.589 25.1272C23.4156 25.3005 23.2975 25.5214 23.2497 25.7618C23.2018 26.0023 23.2263 26.2515 23.3201 26.478C23.4139 26.7045 23.5727 26.8981 23.7766 27.0343C23.9804 27.1705 24.2201 27.2432 24.4652 27.2432C24.7104 27.2432 24.95 27.1705 25.1539 27.0343C25.3577 26.8981 25.5166 26.7045 25.6104 26.478C25.7042 26.2515 25.7287 26.0023 25.6808 25.7618ZM30.046 32.9195L27.0541 29.9261L28.55 29.9195L30.7989 32.1683L30.046 32.9195ZM17.5524 31.5875L20.5459 28.5939L20.5525 30.0899L18.3037 32.3404L17.5524 31.5875ZM18.8779 19.0939L21.8697 22.0874L20.3754 22.0924L18.1249 19.8452L18.8779 19.0939ZM31.3731 20.4177L28.3779 23.4112L28.3713 21.9169L30.6218 19.6681L31.3731 20.4177Z" fill="#333333"/>
<path d="M10.1169 5.41115L7.29337 8.23468L8.00048 8.94179L10.824 6.11826L10.1169 5.41115Z" fill="#333333"/>
<path d="M13.8696 5.42355L7.28139 12.4824L8.01245 13.1647L14.6007 6.10587L13.8696 5.42355Z" fill="#333333"/>
<path d="M16.6887 6.36955L7.27695 16.7225L8.01689 17.3952L17.4287 7.04222L16.6887 6.36955Z" fill="#333333"/>
<path d="M18.1025 8.7203L7.27896 20.485L8.01489 21.1621L18.8384 9.39735L18.1025 8.7203Z" fill="#333333"/>
<path d="M19.5158 11.0715L7.28053 24.248L8.01332 24.9285L20.2486 11.752L19.5158 11.0715Z" fill="#333333"/>
</svg>
