<svg width="36" height="36" viewBox="0 0 36 36" fill="none" xmlns="http://www.w3.org/2000/svg">
<path fill-rule="evenodd" clip-rule="evenodd" d="M29.2558 21.6533C29.1394 21.6017 29.0346 21.5271 28.9476 21.4341L27.5955 20.087L17.3374 19.2483L17.0018 18.9128L9.10063 26.8089L7.08759 24.7959L14.9888 16.8997L14.6533 16.5642L13.8145 6.31109L12.4725 4.96906C12.3795 4.88206 12.3049 4.77724 12.2533 4.66083C12.2016 4.54443 12.1739 4.41882 12.1718 4.29149C12.1696 4.16415 12.1932 4.03769 12.2409 3.91963C12.2887 3.80157 12.3597 3.69432 12.4497 3.60427C12.5398 3.51422 12.647 3.4432 12.7651 3.39545C12.8832 3.3477 13.0096 3.32418 13.1369 3.3263C13.2643 3.32843 13.3899 3.35614 13.5063 3.40781C13.6227 3.45947 13.7275 3.53402 13.8145 3.62702L30.2896 20.0921C30.3826 20.1791 30.4572 20.2839 30.5089 20.4003C30.5605 20.5167 30.5882 20.6423 30.5904 20.7696C30.5925 20.897 30.569 21.0234 30.5212 21.1415C30.4735 21.2596 30.4024 21.3668 30.3124 21.4569C30.2223 21.5469 30.1151 21.6179 29.997 21.6657C29.879 21.7134 29.7525 21.737 29.6252 21.7348C29.4978 21.7327 29.3722 21.705 29.2558 21.6533ZM16.1798 13.3819L20.5415 17.7435L26.2719 18.7601L15.1733 7.66822L16.1798 13.3819Z" fill="#333333"/>
<path d="M4.75246 26.5H2.85181V33.1481H4.75246V30.7744H8.55376V28.8737H4.75246V26.5Z" fill="#333333"/>
<path d="M17.1092 28.874H10.4544V30.7747H17.1092V28.874Z" fill="#333333"/>
<path d="M31.365 26.5V28.8737H27.5637V30.7744H31.365V33.1481H33.2656V26.5H31.365Z" fill="#333333"/>
<path d="M19.0082 28.874H25.663V30.7747H19.0082V28.874Z" fill="#333333"/>
</svg>
