<svg width="36" height="36" viewBox="0 0 36 36" fill="none" xmlns="http://www.w3.org/2000/svg">
<path d="M29.2497 14.8805V12.6254H24.2504V14.8805H11.7496V12.6254H6.75029V14.8805H2V33.6697H34V14.8805H29.2497ZM32.001 31.6654H4.00077V16.8848H32.001V31.6654Z" fill="#333333"/>
<path d="M12.0003 21.6439H5.99976V23.1467H12.0003V21.6439Z" fill="#333333"/>
<path d="M23.9997 23.1485H26.2512V25.4018H27.7505V23.1485H30.0002V21.6439H27.7505V19.3889H26.2512V21.6439H23.9997V23.1485Z" fill="#333333"/>
<path d="M13.1093 6.78735C13.1093 6.16398 13.3353 5.6713 14.0435 5.6713C14.9441 5.6713 14.9441 6.34764 14.9441 6.82973V10.2644H16.4469V6.84033C16.4469 6.16398 16.7153 5.6713 17.4676 5.6713C17.9073 5.6713 18.2834 5.95031 18.2834 6.79795V10.2644H19.7862V6.31409C19.7862 5.05853 18.9156 4.40338 17.7996 4.40338C16.8866 4.40338 16.4681 5.03734 16.2756 5.31635C15.8888 4.70535 15.5127 4.40338 14.6863 4.40338C14.3485 4.38793 14.0138 4.47384 13.7253 4.65006C13.4367 4.82628 13.2074 5.08476 13.0669 5.39228H13.0457V4.55348H11.6065V10.2644H13.1093V6.78735Z" fill="#333333"/>
<path d="M22.5322 4.55345H21.0294V10.2644H22.5322V4.55345Z" fill="#333333"/>
<path d="M22.5322 2.3302H21.0294V3.72527H22.5322V2.3302Z" fill="#333333"/>
<path d="M25.2994 6.99042C25.2994 6.1216 25.815 5.67129 26.4808 5.67129C27.4361 5.67129 27.4573 6.37765 27.4573 6.79794V10.2644H28.9601V6.31408C28.9601 5.05852 28.0913 4.40337 26.9734 4.40337C26.6227 4.3869 26.2747 4.47129 25.9704 4.64656C25.6662 4.82183 25.4186 5.08062 25.257 5.39228H25.2358V4.55347H23.7966V10.2644H25.2994V6.99042Z" fill="#333333"/>
<path d="M8.18067 11.3769L9.24374 10.3139L6.06335 7.13345L9.24374 3.95305L8.18067 2.88998L3.93719 7.13345L8.18067 11.3769Z" fill="#333333"/>
</svg>
