<svg width="36" height="36" viewBox="0 0 36 36" fill="none" xmlns="http://www.w3.org/2000/svg">
<path d="M29.2497 14.6006V12.3455H24.2504V14.6006H11.7496V12.3455H6.75029V14.6006H2V33.3898H34V14.6006H29.2497ZM32.001 31.3767H4.00077V16.6049H32.001V31.3767Z" fill="#333333"/>
<path d="M12.0003 21.3641H5.99976V22.8669H12.0003V21.3641Z" fill="#333333"/>
<path d="M23.9997 22.8686H26.2512V25.1219H27.7505V22.8686H30.0002V21.3641H27.7505V19.109H26.2512V21.3641H23.9997V22.8686Z" fill="#333333"/>
<path d="M5.00027 11.0953L9.24374 6.85358L5.00027 2.61011L3.93719 3.67318L7.11759 6.85358L3.93719 10.034L5.00027 11.0953Z" fill="#333333"/>
<path d="M13.0563 7.27208C13.0393 6.89167 13.0785 6.51082 13.1729 6.1419C13.2384 5.93008 13.3734 5.74655 13.5561 5.62095C13.7349 5.50229 13.9455 5.44071 14.16 5.44436C14.3153 5.43606 14.4693 5.4755 14.6015 5.55738C14.718 5.64535 14.8019 5.76962 14.8399 5.91056C14.9095 6.24964 14.9356 6.59619 14.9176 6.94185V9.94389H16.3674V7.3021C16.3497 6.92129 16.3877 6.53993 16.4804 6.17015C16.5457 5.95112 16.6817 5.75987 16.8672 5.62625C17.0351 5.50978 17.2349 5.4481 17.4393 5.44966C17.5616 5.43878 17.6846 5.46089 17.7955 5.51369C17.9064 5.56649 18.0011 5.64804 18.0697 5.74987C18.1686 5.9088 18.2198 6.25845 18.2198 6.80941V9.9333H19.659V6.43151C19.6795 6.04713 19.6292 5.66226 19.5107 5.29603C19.3862 4.99473 19.1667 4.74235 18.8856 4.5773C18.5738 4.40479 18.221 4.31996 17.8649 4.33184C17.5573 4.33179 17.2544 4.40632 16.9819 4.54905C16.6804 4.71135 16.4154 4.93372 16.2032 5.20243C16.0541 4.9304 15.8321 4.70534 15.5621 4.55258C15.2818 4.40218 14.9672 4.32733 14.6492 4.33537C13.9864 4.33302 13.4195 4.62204 12.9486 5.20243V4.45546H11.6065V9.92977H13.0563V7.27208Z" fill="#333333"/>
<path d="M22.7211 6.71411C22.3248 6.77913 21.9381 6.89302 21.5698 7.05316C21.3123 7.17333 21.0961 7.36684 20.9482 7.60942C20.7954 7.85846 20.7158 8.14548 20.7186 8.43763C20.7125 8.65457 20.7529 8.8703 20.837 9.07039C20.921 9.27047 21.0468 9.4503 21.206 9.59783C21.5735 9.91898 22.0519 10.0838 22.5393 10.057C22.8489 10.0602 23.156 10.0001 23.4416 9.88038C23.7378 9.75046 24.0073 9.56663 24.2363 9.33824C24.2469 9.3665 24.2645 9.42301 24.2875 9.51483C24.3422 9.70555 24.3899 9.84682 24.427 9.94395H25.8609C25.7438 9.71099 25.6566 9.46416 25.6013 9.20933C25.5452 8.85908 25.5216 8.50439 25.5307 8.14979L25.5466 6.45805C25.5466 5.82939 25.4818 5.39733 25.3523 5.16187C25.1962 4.90265 24.9628 4.69885 24.6848 4.57912C24.3681 4.4249 23.8866 4.34838 23.2403 4.34956C22.534 4.34956 21.9936 4.4767 21.6316 4.73099C21.2467 5.02089 20.9765 5.43742 20.8687 5.90709L22.1843 6.14372C22.2439 5.9346 22.3674 5.74936 22.5375 5.61395C22.7187 5.50315 22.9294 5.45017 23.1414 5.46208C23.5229 5.46208 23.7825 5.52035 23.9202 5.63867C23.9959 5.71683 24.0536 5.81058 24.0893 5.91338C24.125 6.01617 24.1378 6.12552 24.1268 6.23378V6.37858C23.6694 6.5328 23.1989 6.6451 22.7211 6.71411ZM24.1339 7.59706C24.144 7.83394 24.125 8.07117 24.0774 8.30342C24.0161 8.49823 23.8919 8.66718 23.7242 8.78375C23.5088 8.94787 23.2462 9.03827 22.9754 9.04157C22.8692 9.04509 22.7633 9.0272 22.6641 8.98898C22.5649 8.95076 22.4744 8.89297 22.398 8.81907C22.3256 8.75126 22.2682 8.66914 22.2293 8.57794C22.1904 8.48674 22.1708 8.38844 22.1719 8.28929C22.1719 8.18726 22.1979 8.08689 22.2473 7.99762C22.2967 7.90835 22.368 7.83311 22.4545 7.77895C22.703 7.6546 22.9693 7.56942 23.2439 7.52642C23.6465 7.44048 23.9408 7.36631 24.1268 7.30392L24.1339 7.59706Z" fill="#333333"/>
<path d="M27.9836 9.93336L29.1067 8.23632L30.221 9.93336H32.001L29.9737 7.04963L31.8315 4.45551H30.1291L29.1067 5.96183L28.1372 4.45551H26.3695L28.2608 7.11144L26.2865 9.93336H27.9836Z" fill="#333333"/>
</svg>
