<svg width="36" height="36" viewBox="0 0 36 36" fill="none" xmlns="http://www.w3.org/2000/svg">
<path d="M31.8375 12.2422L33.7226 11.3093C32.7516 9.14984 31.3509 7.21075 29.606 5.61026C27.8611 4.00976 25.8085 2.78138 23.5734 2V4.19475C25.1151 4.79456 26.4766 5.7807 27.5273 7.05847C28.578 8.33623 29.2825 9.86269 29.5731 11.4912L31.2085 25.3333C31.2645 25.6943 31.2477 26.063 31.1592 26.4175C31.0707 26.772 30.9123 27.1053 30.6932 27.3977C30.4741 27.6902 30.1987 27.9359 29.8833 28.1204C29.5679 28.3049 29.2189 28.4246 28.8566 28.4723C28.4943 28.52 28.1261 28.4948 27.7737 28.3983C27.4213 28.3017 27.0917 28.1357 26.8044 27.91C26.517 27.6843 26.2777 27.4034 26.1004 27.0839C25.9231 26.7644 25.8114 26.4126 25.772 26.0494V18.0968C25.7715 16.9334 25.3094 15.8178 24.4871 14.9949C23.6649 14.1719 22.5497 13.7088 21.3864 13.7073V4.9302C21.3856 4.56989 21.3138 4.21327 21.1752 3.8807C21.0365 3.54813 20.8337 3.24615 20.5783 2.992C20.3229 2.73785 20.0199 2.53652 19.6867 2.39952C19.3534 2.26252 18.9965 2.19252 18.6361 2.19354H7.11467C6.38833 2.19354 5.69165 2.48168 5.1775 2.99474C4.66336 3.5078 4.37374 4.20386 4.3722 4.9302V31.8053H3V34H22.7508V31.8053H21.3864V15.902C21.9671 15.9041 22.5234 16.1362 22.9333 16.5476C23.3432 16.959 23.5734 17.516 23.5734 18.0968V26.1423C23.6121 26.8081 23.7853 27.4591 24.0826 28.0562C24.3798 28.6532 24.795 29.1838 25.3029 29.616C25.8109 30.0482 26.4012 30.3729 27.0381 30.5707C27.675 30.7685 28.3455 30.8352 29.0089 30.7668C29.6723 30.6983 30.315 30.4962 30.8981 30.1725C31.4813 29.8489 31.9928 29.4105 32.4018 28.8837C32.8109 28.3569 33.109 27.7527 33.2781 27.1076C33.4472 26.4625 33.4839 25.7897 33.3859 25.13L31.8375 12.2422ZM6.56695 4.38055H19.1839V13.7073H6.56695V4.38055ZM6.56695 31.813V25.0391C7.41853 25.0391 8.11528 24.5843 8.62042 24.1236C9.19406 24.6908 9.96227 25.0182 10.7687 25.0391C11.5589 25.0227 12.314 24.7097 12.8841 24.1623C13.4606 24.718 14.2279 25.0317 15.0285 25.0391C15.8353 25.0186 16.604 24.692 17.1788 24.1256C17.7234 24.6486 18.4314 24.9684 19.1839 25.0313V31.8053L6.56695 31.813ZM19.1839 23.3785C18.6729 23.272 18.1465 22.6701 17.9568 22.3663L17.1169 21.025L16.3427 22.403C16.1995 22.6605 15.6479 23.3978 15.0285 23.3978C14.2195 23.3978 13.7338 22.4437 13.728 22.4301L12.9344 20.8412L12.0771 22.405C12.0771 22.405 11.5197 23.394 10.7648 23.394C10.1494 23.394 9.60361 22.6547 9.44877 22.3953L8.68816 21.0405L7.84432 22.3489C7.56756 22.7824 6.97532 23.3708 6.56308 23.3862V15.902H19.1839V23.3785Z" fill="#333333"/>
</svg>
