<svg width="36" height="36" viewBox="0 0 36 36" fill="none" xmlns="http://www.w3.org/2000/svg">
<path fill-rule="evenodd" clip-rule="evenodd" d="M3.96117 7H25.7485V12.5332H33.4336L35 16.7103L29.7008 19.9713V21.7255C30.8795 22.3898 31.6769 23.6536 31.6769 25.105C31.6769 27.246 29.9413 28.9817 27.8002 28.9817C25.6591 28.9817 23.9234 27.246 23.9234 25.105C23.9234 24.1389 24.2773 23.2552 24.8612 22.5768L24.2945 21.8677H21.0057V24.3146C21.0057 26.8923 18.9161 28.9817 16.3385 28.9817C14.004 28.9817 12.0698 27.2677 11.7257 25.0294L9.66618 25.0295L8.48048 27.4009H1.71495C1.40612 27.4009 1.1322 27.2026 1.03578 26.9092C0.939363 26.6158 1.04224 26.2936 1.29087 26.1104L8.9894 20.4379H10.8808V19.4963H7.08523L3.96117 7ZM5.79243 8.42981L8.20159 18.0665H12.3106V21.8677H9.45927L3.89034 25.9711H7.59681L8.7825 23.5997L13.1011 23.5996V24.3145C13.1011 26.1025 14.5505 27.5519 16.3385 27.5519C18.1265 27.5519 19.5759 26.1025 19.5759 24.3146V20.4379H24.9822L26.8281 22.7479L26.2712 23.1944C25.7103 23.644 25.3532 24.3325 25.3532 25.105C25.3532 26.4564 26.4488 27.5519 27.8002 27.5519C29.1516 27.5519 30.2471 26.4564 30.2471 25.105C30.2471 24.0792 29.6157 23.1992 28.7176 22.8356L28.271 22.6548V19.1723L33.2478 16.1097L32.4428 13.963H24.3187V8.42981H5.79243Z" fill="#333333"/>
<path fill-rule="evenodd" clip-rule="evenodd" d="M17.0835 13.3951C16.9068 13.5072 16.6991 13.5672 16.4866 13.5672C16.2015 13.5672 15.9283 13.4597 15.7267 13.2684C15.5252 13.0772 15.4119 12.8179 15.4119 12.5475C15.4119 12.3458 15.4749 12.1487 15.593 11.981C15.7111 11.8133 15.8789 11.6824 16.0752 11.6052C16.2716 11.528 16.4878 11.508 16.6963 11.5474C16.9047 11.5867 17.0961 11.6839 17.2464 11.8265C17.3967 11.9691 17.4991 12.1508 17.5406 12.3487C17.582 12.5465 17.5608 12.7512 17.4794 12.9376C17.3981 13.1239 17.2603 13.2831 17.0835 13.3951ZM17.7977 19.1533H15.1785C15.1463 19.1526 15.1157 19.1397 15.0934 19.1177C15.0712 19.0956 15.0592 19.0661 15.0598 19.0356V17.9998C15.0598 17.9691 15.0727 17.9397 15.0955 17.918C15.1183 17.8964 15.1492 17.8841 15.1815 17.8841H15.4935V15.5677H15.1815C15.1655 15.5678 15.1498 15.5649 15.135 15.5592C15.1202 15.5534 15.1068 15.5452 15.0955 15.5345C15.0842 15.5239 15.0751 15.511 15.069 15.4971C15.0629 15.4831 15.0598 15.4683 15.0598 15.4531V14.4174C15.0598 14.3867 15.0727 14.3573 15.0955 14.3356C15.1183 14.314 15.1492 14.3017 15.1815 14.3017H17.3647C17.3807 14.3017 17.3964 14.3048 17.4112 14.3106C17.4259 14.3165 17.4392 14.3249 17.4505 14.3356C17.4617 14.3464 17.4708 14.3591 17.4768 14.3731C17.4828 14.3871 17.4858 14.4022 17.4857 14.4174V17.8866H17.7977C17.83 17.8866 17.861 17.8985 17.8838 17.9202C17.9066 17.9418 17.9194 17.9713 17.9194 18.0019V19.0377C17.9194 19.0683 17.9066 19.0978 17.8838 19.1194C17.861 19.1411 17.83 19.1533 17.7977 19.1533Z" fill="#333333"/>
</svg>
