<svg width="36" height="36" viewBox="0 0 36 36" fill="none" xmlns="http://www.w3.org/2000/svg">
<path fill-rule="evenodd" clip-rule="evenodd" d="M3.96117 7H25.7485V12.5331H33.4336L35 16.7103L29.7008 19.9711V21.7253C30.8795 22.3896 31.6769 23.6534 31.6769 25.1048C31.6769 27.2459 29.9413 28.9819 27.8002 28.9819C25.6591 28.9819 23.9234 27.2459 23.9234 25.1048C23.9234 24.1387 24.2773 23.2554 24.8612 22.5771L24.2945 21.8677H21.0057V24.3145C21.0057 26.8922 18.9161 28.9819 16.3385 28.9819C14.004 28.9819 12.0698 27.2677 11.7257 25.0294H9.66618L8.48048 27.4008H1.71495C1.40612 27.4008 1.1322 27.2027 1.03578 26.9093C0.939363 26.6159 1.04224 26.2938 1.29087 26.1106L8.9894 20.4379H10.8808V19.4964H7.08523L3.96117 7ZM5.79243 8.42981L8.20159 18.0666H12.3106V21.8677H9.45927L3.89034 25.971H7.59681L8.7825 23.5996H13.1011V24.3145C13.1011 26.1025 14.5505 27.5521 16.3385 27.5521C18.1265 27.5521 19.5759 26.1025 19.5759 24.3145V20.4379H24.9822L26.8281 22.7479L26.2712 23.1942C25.7103 23.6438 25.3532 24.3324 25.3532 25.1048C25.3532 26.4562 26.4488 27.5521 27.8002 27.5521C29.1516 27.5521 30.2471 26.4562 30.2471 25.1048C30.2471 24.079 29.6157 23.1994 28.7176 22.8358L28.271 22.6548V19.1724L33.2478 16.1099L32.4428 13.9629H24.3187V8.42981H5.79243Z" fill="#333333"/>
<path fill-rule="evenodd" clip-rule="evenodd" d="M15.4188 10.2329C15.6582 9.99373 15.9828 9.85961 16.3211 9.85961C16.6587 9.86063 16.9822 9.99566 17.2205 10.2347C17.4589 10.4738 17.5927 10.7973 17.5927 11.1349C17.5929 11.2073 17.5873 11.2798 17.576 11.3513L17.1217 19.3428C17.1075 19.5473 17.0163 19.7386 16.8664 19.8785C16.7165 20.0184 16.5191 20.0963 16.3141 20.0963C16.109 20.0963 15.9116 20.0184 15.7617 19.8785C15.6118 19.7386 15.5206 19.5473 15.5064 19.3428L15.0444 11.207V11.1349C15.0447 10.7965 15.1794 10.472 15.4188 10.2329ZM16.9077 22.3672C17.2239 22.6833 17.2239 23.196 16.9077 23.5121C16.5916 23.8283 16.079 23.8283 15.7629 23.5121C15.4467 23.196 15.4467 22.6833 15.7629 22.3672C16.079 22.051 16.5916 22.051 16.9077 22.3672Z" fill="#333333"/>
</svg>
