<svg width="36" height="36" viewBox="0 0 36 36" fill="none" xmlns="http://www.w3.org/2000/svg">
<path d="M25.2894 25.6641H23.6985V27.1409H25.2894V25.6641Z" fill="#333333"/>
<path d="M11.162 34.5607H9.83276L12.0387 27.0903H13.3679L11.162 34.5607Z" fill="#333333"/>
<path d="M6.30118 28.1159C6.62327 27.9303 6.99185 27.8411 7.36316 27.8588C8.54466 27.8588 9.4663 28.5467 9.47378 29.8815V34.0691H7.88287V30.3994C7.88287 29.9544 7.85857 29.2066 6.84906 29.2066C6.14427 29.2066 5.59839 29.6834 5.59839 30.6031V34.0635H4V28.0177H5.52174V28.9057H5.54604C5.717 28.5756 5.97908 28.3015 6.30118 28.1159Z" fill="#333333"/>
<path d="M20.2792 27.8587C19.3314 27.8587 18.887 28.5041 18.678 28.8076L18.6659 28.8252C18.2565 28.1784 17.8583 27.8587 16.9834 27.8587C16.6258 27.8423 16.2715 27.9333 15.966 28.1198C15.6606 28.3064 15.4178 28.58 15.2691 28.9056H15.2466V28.0176H13.723V34.0634H15.3195V30.3825C15.3195 29.7225 15.5588 29.201 16.3085 29.201C17.2619 29.201 17.2619 29.917 17.2619 30.4273V34.0634H18.8528V30.4385C18.8528 29.7225 19.137 29.201 19.9334 29.201C20.3989 29.201 20.7971 29.4963 20.7971 30.3937V34.0634H22.388V29.8814C22.3824 28.5466 21.4607 27.8587 20.2792 27.8587Z" fill="#333333"/>
<path d="M23.6985 28.0176H25.2894V34.0634H23.6985V28.0176Z" fill="#333333"/>
<path d="M28.9293 28.1162C29.2513 27.9306 29.6198 27.8413 29.9911 27.8587C31.1745 27.8587 32.0942 28.5467 32.0942 29.8815V34.0691H30.5033V30.3993C30.5033 29.9544 30.4809 29.2066 29.4695 29.2066C28.7647 29.2066 28.2188 29.6833 28.2188 30.6031V34.0634H26.6279V28.0176H28.1515V28.9056H28.174C28.3451 28.5757 28.6072 28.3017 28.9293 28.1162Z" fill="#333333"/>
<path d="M29.3536 13.6465L27.7071 12L29.3536 10.3536L28.6465 9.64648L27 11.2929L25.3536 9.64648L24.6465 10.3536L26.2929 12L24.6465 13.6465L25.3536 14.3536L27 12.7071L28.6465 14.3536L29.3536 13.6465Z" fill="#333333"/>
<path fill-rule="evenodd" clip-rule="evenodd" d="M3.10654 2L6.38398 15.1099H10.3659V16.0977H8.38162L0.305151 22.0488C0.0443183 22.241 -0.0636134 22.5789 0.0375389 22.8867C0.138691 23.1945 0.426057 23.4023 0.75005 23.4023H7.84772L9.09163 20.9146H11.2523C11.6132 23.2627 13.6424 25.061 16.0915 25.061C18.7957 25.061 20.9879 22.8687 20.9879 20.1646V17.5977H24.4381L25.0326 18.3418C24.4201 19.0534 24.0488 19.9801 24.0488 20.9937C24.0488 23.2398 25.8697 25.061 28.1159 25.061C30.3621 25.061 32.183 23.2398 32.183 20.9937C32.183 19.471 31.3464 18.1451 30.1098 17.4482V15.6079L35.6692 12.187L34.0259 7.80469H25.9635V2H3.10654ZM7.55514 13.6099L5.02771 3.5H24.4635V9.30469H32.9864L33.8309 11.5571L28.6098 14.77V18.4233L29.0784 18.6133C30.0206 18.9947 30.683 19.9175 30.683 20.9937C30.683 22.4114 29.5337 23.561 28.1159 23.561C26.6981 23.561 25.5488 22.4114 25.5488 20.9937C25.5488 20.1833 25.9234 19.4609 26.5118 18.9893L27.0961 18.521L25.1596 16.0977H19.4879V20.1646C19.4879 22.0403 17.9673 23.561 16.0915 23.561C14.2158 23.561 12.6952 22.0403 12.6952 20.1646V19.4146H8.16457L6.92067 21.9023H3.03224L8.87457 17.5977H11.8659V13.6099H7.55514Z" fill="#333333"/>
</svg>
