<svg width="36" height="36" viewBox="0 0 36 36" fill="none" xmlns="http://www.w3.org/2000/svg">
<path d="M6.48387 30.218L35 11.1876V23.2389C35 25.092 34.2639 26.8691 32.9535 28.1795C31.6432 29.4898 29.866 30.2259 28.013 30.2259L6.48387 30.218ZM32.7538 15.3762L13.8752 27.9738L28.011 27.9896C29.2711 27.9896 30.4797 27.4891 31.3709 26.5983C32.2622 25.7074 32.7631 24.499 32.7637 23.2389L32.7538 15.3762Z" fill="#333333"/>
<path d="M8.67742 26.9355L1 30.2258H8.67742V26.9355Z" fill="#333333"/>
<path d="M2.07986 5H1V17.2003H2.07986V5Z" fill="#333333"/>
<path d="M8.80805 15.3744L4.69431 11.0987L8.87852 6.90118L8.11291 6.13747L3.15927 11.0911L8.02911 16.1266L8.80805 15.3744Z" fill="#333333"/>
<path d="M22.1345 5H21.0547V17.2003H22.1345V5Z" fill="#333333"/>
<path d="M14.326 15.3744L15.105 16.1266L19.9748 11.0911L15.0212 6.13747L14.2555 6.90118L18.4398 11.0987L14.326 15.3744Z" fill="#333333"/>
</svg>
