<svg width="36" height="36" viewBox="0 0 36 36" fill="none" xmlns="http://www.w3.org/2000/svg">
<path d="M19.1716 6.14755L22.0312 13.7732L23.8162 13.1038L20.9566 5.47817L19.1716 6.14755Z" fill="#333333"/>
<path fill-rule="evenodd" clip-rule="evenodd" d="M3.96117 2L7.08523 14.4964H10.8808V15.4379H8.9894L1.29087 21.1106C1.04224 21.2938 0.939363 21.6159 1.03578 21.9093C1.1322 22.2027 1.40612 22.4008 1.71495 22.4008H8.48048L9.66618 20.0294H11.7257C12.0698 22.2677 14.004 23.9819 16.3385 23.9819C18.9161 23.9819 21.0057 21.8922 21.0057 19.3145V16.8677H24.2945L24.8612 17.5771C24.2773 18.2554 23.9234 19.1387 23.9234 20.1048C23.9234 22.2459 25.6591 23.9819 27.8002 23.9819C29.9413 23.9819 31.6769 22.2459 31.6769 20.1048C31.6769 18.6534 30.8795 17.3896 29.7008 16.7253V14.9711L35 11.7103L33.4336 7.53305H25.7485V2H3.96117ZM8.20159 13.0666L5.79243 3.42981H24.3187V8.96286H32.4428L33.2478 11.1099L28.271 14.1724V17.6548L28.7176 17.8358C29.6157 18.1994 30.2471 19.079 30.2471 20.1048C30.2471 21.4562 29.1516 22.5521 27.8002 22.5521C26.4488 22.5521 25.3532 21.4562 25.3532 20.1048C25.3532 19.3324 25.7103 18.6438 26.2712 18.1942L26.8281 17.7479L24.9822 15.4379H19.5759V19.3145C19.5759 21.1025 18.1265 22.5521 16.3385 22.5521C14.5505 22.5521 13.1011 21.1025 13.1011 19.3145V18.5996H8.7825L7.59681 20.971H3.89034L9.45928 16.8677H12.3106V13.0666H8.20159Z" fill="#333333"/>
<path d="M25.106 24.5567H23.5895V25.9644H25.106V24.5567Z" fill="#333333"/>
<path d="M11.6396 33.037H10.3726L12.4754 25.9162H13.7423L11.6396 33.037Z" fill="#333333"/>
<path d="M7.0063 26.8938C7.31333 26.7169 7.66466 26.6318 8.01859 26.6487C9.1448 26.6487 10.0233 27.3044 10.0304 28.5768V32.5684H8.51398V29.0704C8.51398 28.6463 8.49082 27.9335 7.52855 27.9335C6.85674 27.9335 6.33641 28.3879 6.33641 29.2646V32.563H4.81282V26.8001H6.26334V27.6466H6.28651C6.44946 27.3319 6.69928 27.0707 7.0063 26.8938Z" fill="#333333"/>
<path d="M20.3302 26.6486C19.4268 26.6486 19.0032 27.2638 18.8039 27.5531L18.7924 27.5699C18.4021 26.9533 18.0226 26.6486 17.1886 26.6486C16.8478 26.633 16.5101 26.7197 16.2189 26.8975C15.9277 27.0753 15.6963 27.3362 15.5545 27.6465H15.5331V26.8001H14.0808V32.563H15.6026V29.0543C15.6026 28.4252 15.8307 27.9281 16.5453 27.9281C17.4541 27.9281 17.4541 28.6106 17.4541 29.097V32.563H18.9706V29.1077C18.9706 28.4252 19.2414 27.9281 20.0006 27.9281C20.4443 27.9281 20.8238 28.2096 20.8238 29.065V32.563H22.3403V28.5767C22.335 27.3044 21.4564 26.6486 20.3302 26.6486Z" fill="#333333"/>
<path d="M23.5895 26.8001H25.106V32.563H23.5895V26.8001Z" fill="#333333"/>
<path d="M28.5755 26.894C28.8825 26.7172 29.2337 26.632 29.5876 26.6486C30.7156 26.6486 31.5923 27.3044 31.5923 28.5767V32.5683H30.0759V29.0703C30.0759 28.6462 30.0545 27.9334 29.0904 27.9334C28.4186 27.9334 27.8983 28.3878 27.8983 29.2646V32.563H26.3818V26.8001H27.8342V27.6465H27.8555C28.0187 27.332 28.2685 27.0709 28.5755 26.894Z" fill="#333333"/>
</svg>
