<svg width="36" height="36" viewBox="0 0 36 36" fill="none" xmlns="http://www.w3.org/2000/svg">
<path fill-rule="evenodd" clip-rule="evenodd" d="M3.96117 7H25.7485V12.5331H33.4336L35 16.7103L29.7008 19.9711V21.7253C30.8795 22.3896 31.6769 23.6534 31.6769 25.1048C31.6769 27.2459 29.9413 28.9819 27.8002 28.9819C25.6591 28.9819 23.9234 27.2459 23.9234 25.1048C23.9234 24.1387 24.2773 23.2554 24.8612 22.5771L24.2945 21.8677H21.0057V24.3145C21.0057 26.8922 18.9161 28.9819 16.3385 28.9819C14.004 28.9819 12.0698 27.2677 11.7257 25.0294H9.66618L8.48048 27.4008H1.71495C1.40612 27.4008 1.1322 27.2027 1.03578 26.9093C0.939363 26.6159 1.04224 26.2938 1.29087 26.1106L8.9894 20.4379H10.8808V19.4964H7.08523L3.96117 7ZM5.79243 8.42981L8.20159 18.0666H12.3106V21.8677H9.45928L3.89034 25.971H7.59681L8.7825 23.5996H13.1011V24.3145C13.1011 26.1025 14.5505 27.5521 16.3385 27.5521C18.1265 27.5521 19.5759 26.1025 19.5759 24.3145V20.4379H24.9822L26.8281 22.7479L26.2712 23.1942C25.7103 23.6438 25.3532 24.3324 25.3532 25.1048C25.3532 26.4562 26.4488 27.5521 27.8002 27.5521C29.1516 27.5521 30.2471 26.4562 30.2471 25.1048C30.2471 24.079 29.6157 23.1994 28.7176 22.8358L28.271 22.6548V19.1724L33.2478 16.1099L32.4428 13.9629H24.3187V8.42981H5.79243Z" fill="#333333"/>
<path d="M13.8683 18.3798H15.2833V18.7815H13.8683V18.3798ZM25.798 18.7815H27.2131V18.3798H25.798V18.7815ZM16.0166 18.7815H17.0054L19.695 14.9687H18.7083L16.0166 18.7815ZM17.8458 18.7815H18.8339L21.5242 14.9687H20.5368L17.8458 18.7815ZM19.6743 18.7815H20.6631L23.3534 14.9687H22.3645L19.6743 18.7815ZM21.5035 18.7815H22.4909L25.1825 14.9687H24.1944L21.5035 18.7815ZM23.3319 18.7815H24.3201L27.011 14.9687H26.0236L23.3319 18.7815Z" fill="#333333"/>
</svg>
