<svg width="36" height="36" viewBox="0 0 36 36" fill="none" xmlns="http://www.w3.org/2000/svg">
<path fill-rule="evenodd" clip-rule="evenodd" d="M3.96117 7H25.7485V12.5331H33.4336L35 16.7103L29.7008 19.9711V21.7253C30.8795 22.3896 31.6769 23.6534 31.6769 25.1048C31.6769 27.2459 29.9413 28.9819 27.8002 28.9819C25.6591 28.9819 23.9234 27.2459 23.9234 25.1048C23.9234 24.1387 24.2773 23.2554 24.8612 22.5771L24.2945 21.8677H21.0057V24.3145C21.0057 26.8922 18.9161 28.9819 16.3385 28.9819C14.004 28.9819 12.0698 27.2677 11.7257 25.0294H9.66618L8.48048 27.4008H1.71495C1.40612 27.4008 1.1322 27.2027 1.03578 26.9093C0.939363 26.6159 1.04224 26.2938 1.29087 26.1106L8.9894 20.4379H10.8808V19.4964H7.08523L3.96117 7ZM5.79243 8.42981L8.20159 18.0666H12.3106V21.8677H9.45928L3.89034 25.971H7.59681L8.7825 23.5996H13.1011V24.3145C13.1011 26.1025 14.5505 27.5521 16.3385 27.5521C18.1265 27.5521 19.5759 26.1025 19.5759 24.3145V20.4379H24.9822L26.8281 22.7479L26.2712 23.1942C25.7103 23.6438 25.3532 24.3324 25.3532 25.1048C25.3532 26.4562 26.4488 27.5521 27.8002 27.5521C29.1516 27.5521 30.2471 26.4562 30.2471 25.1048C30.2471 24.079 29.6157 23.1994 28.7176 22.8358L28.271 22.6548V19.1724L33.2478 16.1099L32.4428 13.9629H24.3187V8.42981H5.79243Z" fill="#333333"/>
<path fill-rule="evenodd" clip-rule="evenodd" d="M10.1556 12.439C10.3168 12.487 10.4777 12.5348 10.631 12.5987C11.2408 12.8607 11.5134 13.4115 11.4908 14.062C11.4868 14.3567 11.3854 14.6422 11.2024 14.8732C11.0193 15.1042 10.7649 15.268 10.4789 15.3391C9.99401 15.4536 9.39621 15.4174 8.98965 15.1087C8.58308 14.8001 8.43551 14.2805 8.38733 13.7972L8.93092 13.7325L9.13119 13.7083C9.1611 13.8689 9.20804 14.0258 9.27123 14.1765C9.33339 14.2985 9.42764 14.4015 9.54386 14.4739C9.66007 14.5463 9.79384 14.5859 9.93077 14.5879C10.2801 14.6 10.6656 14.4205 10.7153 14.0471C10.765 13.6737 10.4924 13.5231 10.1913 13.4192C10.0903 13.3845 9.98703 13.3536 9.88342 13.3224C9.6146 13.2416 9.34362 13.16 9.10559 13.011C8.41142 12.5789 8.31656 11.4723 8.91887 10.9227C9.45042 10.4333 10.5105 10.465 11.0104 10.986C11.2532 11.2671 11.3835 11.6278 11.3763 11.9992C11.3571 12.016 11.2744 12.0119 11.2281 12.0094C11.2164 12.0088 11.2071 12.0085 11.2017 12.0085L10.6069 12.0369C10.571 11.8807 10.5175 11.729 10.4473 11.585C10.25 11.3094 9.7576 11.2989 9.48204 11.4495C9.15528 11.6362 9.21401 12.04 9.51517 12.2026C9.71721 12.3084 9.93673 12.3739 10.1556 12.439ZM12.9907 11.4556H11.8538V10.6653H14.888V11.4556H13.7586V15.3182H12.9907V11.4556ZM16.9931 10.5894C16.6533 10.5797 16.3184 10.6714 16.0309 10.8528C15.7455 11.0534 15.5226 11.3307 15.388 11.6525C15.2094 12.0855 15.1252 12.5518 15.141 13.0199C15.141 13.7828 15.3232 14.3826 15.6876 14.8193C15.8472 15.0087 16.0482 15.1591 16.2751 15.2586C16.502 15.3581 16.7487 15.4041 16.9961 15.3931C17.2433 15.4039 17.4896 15.3569 17.7157 15.2563C17.9417 15.1557 18.1413 15.0041 18.2987 14.8132C18.66 14.3765 18.8407 13.769 18.8407 12.991C18.8407 12.213 18.6701 11.621 18.3288 11.2145C18.1695 11.0142 17.9661 10.8533 17.7343 10.7449C17.5026 10.6364 17.2489 10.5833 16.9931 10.5894ZM17.7551 14.1914C17.6711 14.3135 17.5587 14.4133 17.4275 14.4823C17.2963 14.5513 17.1504 14.5874 17.0022 14.5875C16.8539 14.5862 16.708 14.5494 16.577 14.48C16.446 14.4105 16.3336 14.3101 16.2493 14.1881C16.0485 13.9211 15.9481 13.5197 15.9481 12.9836C15.9481 12.4475 16.0485 12.0461 16.2493 11.7791C16.3362 11.6564 16.4516 11.5566 16.5857 11.4886C16.7198 11.4207 16.8684 11.3866 17.0187 11.389C17.1677 11.3863 17.3152 11.42 17.4482 11.4872C17.5813 11.5544 17.6959 11.6529 17.7822 11.7744C17.9779 12.0319 18.0743 12.4297 18.0743 12.9673C18.0743 13.5049 17.9553 13.9264 17.7551 14.1914ZM22.208 11.2955C22.2952 11.463 22.3463 11.6469 22.3582 11.8354C22.422 12.249 22.3423 12.6723 22.1324 13.0343C22.0433 13.1735 21.9236 13.2901 21.7824 13.3759C21.6412 13.4618 21.4823 13.5145 21.3177 13.5295C21.2861 13.5341 20.214 13.5851 20.214 13.57V15.3228H19.446V10.6834C19.446 10.6585 19.5996 10.6658 19.6689 10.669C19.6833 10.6697 19.6941 10.6699 19.699 10.6699C19.8441 10.6699 19.9892 10.6685 20.1343 10.6671C20.4242 10.6645 20.714 10.6619 21.003 10.6699C21.0109 10.6702 21.0188 10.6706 21.0267 10.6709C21.3144 10.6795 21.6105 10.6882 21.8523 10.8626C21.9997 10.9806 22.1209 11.128 22.208 11.2955ZM20.6858 12.7769C20.9135 12.778 21.1908 12.7793 21.3689 12.6261C21.4868 12.5096 21.5618 12.3565 21.5818 12.1919C21.6017 12.0273 21.5655 11.8608 21.4789 11.7195C21.3117 11.456 21.0271 11.456 20.7501 11.456H20.211V12.7765H20.6311C20.649 12.7765 20.6672 12.7768 20.6858 12.7769Z" fill="#333333"/>
</svg>
