<svg width="36" height="36" viewBox="0 0 36 36" fill="none" xmlns="http://www.w3.org/2000/svg">
<path fill-rule="evenodd" clip-rule="evenodd" d="M25.8068 25.1272C25.9802 25.3005 26.0983 25.5214 26.1461 25.7618C26.194 26.0023 26.1695 26.2515 26.0757 26.478C25.9819 26.7045 25.823 26.8981 25.6192 27.0343C25.4154 27.1705 25.1757 27.2432 24.9306 27.2432C24.6854 27.2432 24.4457 27.1705 24.2419 27.0343C24.0381 26.8981 23.8792 26.7045 23.7854 26.478C23.6916 26.2515 23.6671 26.0023 23.715 25.7618C23.7629 25.5214 23.881 25.3005 24.0543 25.1272C24.287 24.8953 24.6021 24.7651 24.9306 24.7651C25.2591 24.7651 25.5741 24.8953 25.8068 25.1272ZM27.5195 29.9261L30.5113 32.9195L31.2642 32.1683L29.0154 29.9195L27.5195 29.9261ZM21.0112 28.5939L18.0177 31.5875L18.769 32.3404L21.0179 30.0899L21.0112 28.5939ZM22.335 22.0874L19.3432 19.0939L18.5903 19.8452L20.8408 22.0924L22.335 22.0874ZM28.8433 23.4112L31.8384 20.4177L31.0871 19.6681L28.8366 21.9169L28.8433 23.4112ZM16.9289 20.4425L21.8469 25.3638V26.6397L16.9289 31.5577L19.3746 34.0001L24.2926 29.0805H25.5685L30.4881 34.0001L32.9306 31.5543L28.0109 26.6364V25.3605L28.0986 25.2695L32.9306 20.4393L30.4865 17.9968L25.5668 22.9164H24.291L19.373 17.9968L16.9289 20.4425Z" fill="#333333"/>
<path d="M10.2404 30.1181H4.01345V32.582H10.2404V30.1181Z" fill="#333333"/>
<path d="M6.47649 2H4.0142V32.5802H6.47649V2Z" fill="#333333"/>
<path d="M18.7756 2H4.00012V4.46232H18.7756V2Z" fill="#333333"/>
<path d="M18.8259 2.00168L16.8076 3.41498L27.2398 18.3132L29.2582 16.8999L18.8259 2.00168Z" fill="#333333"/>
<path d="M12.2624 24.1227H10.985V33.9951H12.2624V24.1227Z" fill="#333333"/>
<path d="M14.4219 23.335H13.1444V33.2074H14.4219V23.335Z" fill="#333333"/>
<path d="M16.5798 22.5689H15.3023V32.4413H16.5798V22.5689Z" fill="#333333"/>
</svg>
