<svg width="36" height="36" viewBox="0 0 36 36" fill="none" xmlns="http://www.w3.org/2000/svg">
<path fill-rule="evenodd" clip-rule="evenodd" d="M29.4373 10.1448C30.9598 12.384 31.8495 15.0881 31.8495 18C31.8495 20.8777 30.9822 23.5483 29.4949 25.7702L27.9983 28.006H35V25.1327H33.1439C34.1569 22.9656 34.7228 20.5477 34.7228 18C34.7228 8.68777 27.1737 1.13867 17.8614 1.13867C8.5491 1.13867 1 8.68777 1 18C1 27.3123 8.5491 34.8614 17.8614 34.8614H35V31.9882H17.8614C13.2051 31.9882 9.08017 29.7131 6.5376 26.2139L13.5767 19.1748L24.5579 30.156L26.5896 28.1243L19.0361 20.5708L29.4373 10.1448ZM27.5794 7.93878L20.4306 15.1098L11.0822 5.76148C13.0904 4.64674 15.4018 4.01191 17.8614 4.01191C21.6368 4.01191 25.0629 5.50761 27.5794 7.93878ZM8.6928 7.43543L14.9728 13.7154L5.05415 23.634C4.29482 21.9104 3.87324 20.0044 3.87324 18C3.87324 13.782 5.74018 10.0001 8.6928 7.43543ZM17.0044 15.7471L18.4005 17.1431L17.0044 18.5392L15.6084 17.1431L17.0044 15.7471Z" fill="#333333"/>
</svg>
