<svg width="36" height="36" viewBox="0 0 36 36" fill="none" xmlns="http://www.w3.org/2000/svg">
<path fill-rule="evenodd" clip-rule="evenodd" d="M6.56273 10.1448C5.04024 12.384 4.15048 15.0881 4.15048 18C4.15048 20.8777 5.01785 23.5483 6.50515 25.7702L8.00171 28.006H1V25.1327H2.85614C1.84312 22.9656 1.27724 20.5477 1.27724 18C1.27724 8.68777 8.82634 1.13867 18.1386 1.13867C27.4509 1.13867 35 8.68777 35 18C35 27.3123 27.4509 34.8614 18.1386 34.8614H1V31.9882H18.1386C22.7949 31.9882 26.9198 29.7131 29.4624 26.2139L22.4233 19.1748L11.4421 30.156L9.4104 28.1243L16.9639 20.5708L6.56273 10.1448ZM8.42064 7.93878L15.5694 15.1098L24.9178 5.76148C22.9096 4.64674 20.5982 4.01191 18.1386 4.01191C14.3632 4.01191 10.9371 5.50761 8.42064 7.93878ZM27.3072 7.43543L21.0272 13.7154L30.9458 23.634C31.7052 21.9104 32.1268 20.0044 32.1268 18C32.1268 13.782 30.2598 10.0001 27.3072 7.43543ZM18.9956 15.7471L17.5995 17.1431L18.9956 18.5392L20.3916 17.1431L18.9956 15.7471Z" fill="#333333"/>
</svg>
