<svg width="36" height="36" viewBox="0 0 36 36" fill="none" xmlns="http://www.w3.org/2000/svg">
<path d="M3 4V6H33V4H3Z" fill="#333333"/>
<path fill-rule="evenodd" clip-rule="evenodd" d="M4.38992 15.5528C4.38992 14.2815 4.78246 13.1009 5.45414 12.1233L10.0429 16.6751L6.71047 19.9729L7.6068 20.8599L12.4514 16.0657L15.5569 19.1388C14.4352 20.6665 12.6154 21.6598 10.5612 21.6598H3V22.9142H10.5612C14.6695 22.9142 18 19.6184 18 15.5528C18 19.6184 21.3305 22.9142 25.4388 22.9142H33V21.6598H25.4388C23.3846 21.6598 21.5648 20.6665 20.4431 19.1388L23.5486 16.0657L28.3932 20.8599L29.2895 19.9729L25.9571 16.6751L30.5459 12.1233C31.2175 13.1009 31.6101 14.2815 31.6101 15.5528C31.6101 16.8091 31.2274 17.9751 30.5713 18.9451L29.911 19.9212H33V18.6668H32.1811C32.628 17.7207 32.8777 16.6651 32.8777 15.5528C32.8777 11.4872 29.5472 8.19141 25.4388 8.19141C21.3305 8.19141 18 11.4872 18 15.5528C18 11.4872 14.6695 8.19141 10.5612 8.19141C6.4528 8.19141 3.12231 11.4872 3.12231 15.5528C3.12231 16.6651 3.37196 17.7207 3.81889 18.6668H3V19.9212H6.08899L5.42874 18.9451C4.77258 17.9751 4.38992 16.8091 4.38992 15.5528ZM9.42768 14.291L6.27381 11.1602C7.38404 10.0988 8.89554 9.44581 10.5612 9.44581C11.6463 9.44581 12.666 9.72297 13.552 10.2096L9.42768 14.291ZM11.8355 13.6822L14.6061 10.9405C15.9087 12.0601 16.7324 13.7113 16.7324 15.5528C16.7324 16.4279 16.5464 17.26 16.2114 18.0125L11.8355 13.6822ZM10.3233 15.1787L10.9392 14.5692L11.5551 15.1787L10.9392 15.7881L10.3233 15.1787ZM26.5723 14.291L29.7262 11.1602C28.616 10.0988 27.1045 9.44581 25.4388 9.44581C24.3537 9.44581 23.334 9.72297 22.448 10.2096L26.5723 14.291ZM24.1645 13.6822L21.3939 10.9405C20.0913 12.0601 19.2676 13.7113 19.2676 15.5528C19.2676 16.4279 19.4536 17.26 19.7886 18.0125L24.1645 13.6822ZM25.6767 15.1787L25.0608 14.5692L24.4449 15.1787L25.0608 15.7881L25.6767 15.1787Z" fill="#333333"/>
<path d="M25.2894 23.6641H23.6985V25.1409H25.2894V23.6641Z" fill="#333333"/>
<path d="M11.1619 32.5607H9.83276L12.0387 25.0903H13.3679L11.1619 32.5607Z" fill="#333333"/>
<path d="M6.30118 26.1159C6.62327 25.9303 6.99185 25.8411 7.36316 25.8588C8.54466 25.8588 9.4663 26.5467 9.47378 27.8815V32.0691H7.88287V28.3994C7.88287 27.9544 7.85857 27.2066 6.84906 27.2066C6.14427 27.2066 5.59839 27.6834 5.59839 28.6031V32.0635H4V26.0177H5.52174V26.9057H5.54604C5.717 26.5756 5.97908 26.3015 6.30118 26.1159Z" fill="#333333"/>
<path d="M20.2792 25.8587C19.3314 25.8587 18.887 26.5041 18.678 26.8076L18.6659 26.8252C18.2565 26.1784 17.8583 25.8587 16.9834 25.8587C16.6258 25.8423 16.2715 25.9333 15.966 26.1198C15.6606 26.3064 15.4178 26.58 15.2691 26.9056H15.2466V26.0176H13.723V32.0634H15.3195V28.3825C15.3195 27.7225 15.5588 27.201 16.3085 27.201C17.2619 27.201 17.2619 27.917 17.2619 28.4273V32.0634H18.8528V28.4385C18.8528 27.7225 19.137 27.201 19.9334 27.201C20.3989 27.201 20.7971 27.4963 20.7971 28.3937V32.0634H22.388V27.8814C22.3824 26.5466 21.4607 25.8587 20.2792 25.8587Z" fill="#333333"/>
<path d="M23.6985 26.0176H25.2894V32.0634H23.6985V26.0176Z" fill="#333333"/>
<path d="M28.9293 26.1162C29.2513 25.9306 29.6198 25.8413 29.9911 25.8587C31.1745 25.8587 32.0942 26.5467 32.0942 27.8815V32.0691H30.5033V28.3993C30.5033 27.9544 30.4809 27.2066 29.4695 27.2066C28.7647 27.2066 28.2188 27.6833 28.2188 28.6031V32.0634H26.6279V26.0176H28.1515V26.9056H28.174C28.3451 26.5757 28.6072 26.3017 28.9293 26.1162Z" fill="#333333"/>
</svg>
