<svg width="36" height="36" viewBox="0 0 36 36" fill="none" xmlns="http://www.w3.org/2000/svg">
<path fill-rule="evenodd" clip-rule="evenodd" d="M11.9098 17.6588L13.9196 19.6477L7.69254 23.7991H1.53556V25.1759H5.62723L1 28.2608L1.60886 29.174L7.60601 25.1759H9.83493C13.9283 25.1759 17.3182 22.1952 17.9089 18.3074L18 17.5868L18.0912 18.3074C18.682 22.1952 22.0718 25.1759 26.1652 25.1759H28.394L34.3911 29.174L35 28.2608L30.3728 25.1759H34.4645V23.7991H28.3075L22.0805 19.6477L24.0903 17.6588L29.408 22.9211L30.3918 21.9475L26.734 18.3278L31.7708 13.3316C32.5081 14.4046 32.9389 15.7004 32.9389 17.0959C32.9389 18.4748 32.5189 19.7546 31.7987 20.8194L31.074 21.8908H34.4645V20.5139H33.5657C34.0563 19.4754 34.3303 18.3167 34.3303 17.0959C34.3303 14.1 32.6828 11.485 30.2354 10.0897L35 6.91329L34.3911 6L29.0751 9.544C28.1712 9.2027 27.1903 9.01577 26.1652 9.01577C21.713 9.01577 18.0931 12.542 18.0018 16.9262L18 16.9274L17.9983 16.9263C17.9071 12.5421 14.2871 9.01577 9.83493 9.01577C8.80982 9.01577 7.82884 9.20271 6.92489 9.54402L1.60886 6L1 6.91329L5.76465 10.0897C3.31732 11.4851 1.66981 14.1001 1.66981 17.0959C1.66981 18.3167 1.94384 19.4754 2.43439 20.5139H1.53556V21.8908H4.92614L4.20142 20.8194C3.4812 19.7546 3.06118 18.4748 3.06118 17.0959C3.06118 15.7004 3.49205 14.4046 4.22931 13.3316L9.26606 18.3278L5.60829 21.9475L6.59214 22.9211L11.9098 17.6588ZM16.6051 17.3167C16.5988 17.5086 16.5844 17.6985 16.5621 17.886L15.0953 18.8639L11.2337 15.0426L12.0228 14.2618L16.6051 17.3167ZM19.438 17.8861C19.4157 17.6985 19.4013 17.5086 19.395 17.3166L23.9773 14.2618L24.7664 15.0426L20.9048 18.864L19.438 17.8861ZM19.8263 19.4642C19.8691 19.5761 19.9147 19.6867 19.9633 19.7957L20.1083 19.6522L19.8263 19.4642ZM21.284 20.4359L20.6816 21.032C21.9129 22.7088 23.9104 23.7991 26.1652 23.7991H26.3287L21.284 20.4359ZM23.1808 13.4736L19.4932 15.932C19.7668 14.3852 20.5763 13.0209 21.7253 12.0332L23.1808 13.4736ZM25.1529 13.478L27.4093 15.7109L30.8711 12.2744C30.3055 11.7337 29.645 11.2895 28.9168 10.9688L25.1529 13.478ZM27.5819 10.5395L24.3565 12.6898L22.8824 11.231C23.8548 10.6969 24.9741 10.3926 26.1652 10.3926C26.6511 10.3926 27.125 10.4433 27.5819 10.5395ZM14.7161 20.4359L9.67133 23.7991H9.83493C12.0897 23.7991 14.0872 22.7088 15.3185 21.032L14.7161 20.4359ZM16.0368 19.7957C16.0854 19.6866 16.1311 19.5761 16.1738 19.4641L15.8918 19.6521L16.0368 19.7957ZM5.129 12.2744C5.69459 11.7337 6.35506 11.2896 7.08328 10.9688L10.8471 13.478L8.59079 15.7109L5.129 12.2744ZM8.41811 10.5395L11.6436 12.6898L13.1177 11.231C12.1453 10.6969 11.026 10.3926 9.83493 10.3926C9.34901 10.3926 8.87504 10.4433 8.41811 10.5395ZM16.507 15.9321L12.8193 13.4736L14.2748 12.0332C15.4238 13.0209 16.2333 14.3853 16.507 15.9321ZM10.2499 16.0162L9.57387 16.6852L10.2499 17.3542L10.9259 16.6852L10.2499 16.0162ZM26.4262 16.6852L25.7502 16.0162L25.0742 16.6852L25.7502 17.3542L26.4262 16.6852Z" fill="#333333"/>
</svg>
