<svg width="36" height="36" viewBox="0 0 36 36" fill="none" xmlns="http://www.w3.org/2000/svg">
<path d="M28.1653 19.2512V15.549H24.4631V16.786H18.0758C17.9238 16.3566 17.6942 15.9587 17.3985 15.6122L22.4444 6.85545L19.2343 5L17.3833 8.21219L18.4525 8.83067L15.2599 14.3643C14.8123 14.2801 14.353 14.2801 13.9054 14.3643L8.8617 5.61848L5.65386 7.47393L7.50495 10.6839L8.57423 10.0676L11.7668 15.6035C11.4718 15.9501 11.2429 16.348 11.0917 16.7773H1V20.4795H4.70218V19.2512H11.0895C11.2414 19.6801 11.471 20.0772 11.7668 20.4229L6.72314 29.1731L9.9288 31.0285L11.7799 27.8163L10.7106 27.1979L13.9054 21.6598C14.353 21.744 14.8123 21.744 15.2599 21.6598L20.3058 30.41L23.5136 28.5568L21.6604 25.3446L20.5998 25.9609L17.3985 20.4229C17.6943 20.0772 17.9239 19.6801 18.0758 19.2512H28.1653ZM14.5761 19.2512C14.3318 19.2521 14.0926 19.1805 13.8889 19.0456C13.6851 18.9107 13.5259 18.7184 13.4313 18.4931C13.3367 18.2678 13.311 18.0195 13.3573 17.7796C13.4037 17.5397 13.5201 17.3189 13.6918 17.145C13.8635 16.9711 14.0829 16.8521 14.3222 16.8027C14.5616 16.7534 14.8102 16.7761 15.0366 16.868C15.2631 16.9598 15.4573 17.1166 15.5947 17.3187C15.7321 17.5208 15.8066 17.759 15.8087 18.0034C15.8087 18.3307 15.679 18.6447 15.448 18.8765C15.2169 19.1084 14.9034 19.2392 14.5761 19.2403V19.2512Z" fill="#333333"/>
<path d="M34.3461 12.1897L35 11.8136L31.9815 6.59796L28.9643 11.8136L29.6169 12.1897L31.604 8.75518V17.3243H32.359V8.75518L34.3461 12.1897Z" fill="#333333"/>
<path d="M34.3461 23.9635L32.359 27.3967V18.829H31.604V27.3967L29.6169 23.9635L28.9643 24.3397L31.9815 29.554L35 24.3397L34.3461 23.9635Z" fill="#333333"/>
</svg>
