<svg width="36" height="36" viewBox="0 0 36 36" fill="none" xmlns="http://www.w3.org/2000/svg">
<path fill-rule="evenodd" clip-rule="evenodd" d="M3 10.0945C1.89543 10.0945 1 10.9896 1 12.0935C1 12.8208 1.38867 13.4572 1.96973 13.8069V25.7898L10.3964 32.05H25.6036L34.0303 25.7898V13.8069C34.6113 13.4572 35 12.8208 35 12.0935C35 10.9896 34.1046 10.0945 33 10.0945C32.6364 10.0945 32.2954 10.1915 32.0016 10.361L17.6417 4L3.99773 10.3606C3.70407 10.1913 3.36335 10.0945 3 10.0945ZM4 12.0935C4 12.6455 3.55228 13.0928 3 13.0928C2.44772 13.0928 2 12.6455 2 12.0935C2 11.5415 2.44772 11.094 3 11.094C3.55228 11.094 4 11.5415 4 12.0935ZM34 12.0935C34 12.6455 33.5523 13.0928 33 13.0928C32.4477 13.0928 32 12.6455 32 12.0935C32 11.5415 32.4477 11.094 33 11.094C33.5523 11.094 34 11.5415 34 12.0935ZM24.9418 30.051L32.0303 24.7852V13.842C31.5275 13.5629 31.1577 13.0736 31.0399 12.4927L17.6665 6.5686L4.96023 12.4921C4.84256 13.0732 4.4727 13.5628 3.96973 13.842V24.7852L11.0582 30.051H24.9418Z" fill="#333333"/>
<path d="M18.0618 23.7255V11H16.9363V23.7255L13.9727 18.5109L13 19.0825L17.5 27L22 19.0825L21.0254 18.5109L18.0618 23.7255Z" fill="#333333"/>
</svg>
