<svg width="36" height="36" viewBox="0 0 36 36" fill="none" xmlns="http://www.w3.org/2000/svg">
<path d="M32.0069 9.54903V22.9829L26.4161 28.5736H9.58393L3.99315 22.9829V9.54903H2V23.81L2.58798 24.388L8.75677 30.5668H27.2432L27.8212 29.9788L33.412 24.388L34 23.81V9.54903H32.0069Z" fill="#333333"/>
<path d="M7.83061 19.1683C8.75088 19.1683 9.49691 18.4223 9.49691 17.502C9.49691 16.5817 8.75088 15.8357 7.83061 15.8357C6.91033 15.8357 6.16431 16.5817 6.16431 17.502C6.16431 18.4223 6.91033 19.1683 7.83061 19.1683Z" fill="#333333"/>
<path d="M12.8296 19.1684C13.7498 19.1684 14.4959 18.4223 14.4959 17.5021C14.4959 16.5818 13.7498 15.8358 12.8296 15.8358C11.9093 15.8358 11.1633 16.5818 11.1633 17.5021C11.1633 18.4223 11.9093 19.1684 12.8296 19.1684Z" fill="#333333"/>
<path d="M14.4959 25.8337C14.4959 26.754 13.7498 27.5 12.8296 27.5C11.9093 27.5 11.1633 26.754 11.1633 25.8337C11.1633 24.9134 11.9093 24.1674 12.8296 24.1674C13.7498 24.1674 14.4959 24.9134 14.4959 25.8337Z" fill="#333333"/>
<path d="M10.3302 23.334C11.2505 23.334 11.9965 22.5879 11.9965 21.6677C11.9965 20.7474 11.2505 20.0014 10.3302 20.0014C9.40993 20.0014 8.6639 20.7474 8.6639 21.6677C8.6639 22.5879 9.40993 23.334 10.3302 23.334Z" fill="#333333"/>
<path d="M16.9954 21.6677C16.9954 22.5879 16.2494 23.334 15.3291 23.334C14.4089 23.334 13.6628 22.5879 13.6628 21.6677C13.6628 20.7474 14.4089 20.0014 15.3291 20.0014C16.2494 20.0014 16.9954 20.7474 16.9954 21.6677Z" fill="#333333"/>
<path d="M20.3278 23.334C21.2481 23.334 21.9941 22.5879 21.9941 21.6677C21.9941 20.7474 21.2481 20.0014 20.3278 20.0014C19.4076 20.0014 18.6615 20.7474 18.6615 21.6677C18.6615 22.5879 19.4076 23.334 20.3278 23.334Z" fill="#333333"/>
<path d="M19.4946 25.8337C19.4946 26.754 18.7485 27.5 17.8283 27.5C16.908 27.5 16.162 26.754 16.162 25.8337C16.162 24.9134 16.908 24.1674 17.8283 24.1674C18.7485 24.1674 19.4946 24.9134 19.4946 25.8337Z" fill="#333333"/>
<path d="M25.3268 23.334C26.2471 23.334 26.9931 22.5879 26.9931 21.6677C26.9931 20.7474 26.2471 20.0014 25.3268 20.0014C24.4065 20.0014 23.6605 20.7474 23.6605 21.6677C23.6605 22.5879 24.4065 23.334 25.3268 23.334Z" fill="#333333"/>
<path d="M19.4946 17.5021C19.4946 18.4223 18.7485 19.1684 17.8283 19.1684C16.908 19.1684 16.162 18.4223 16.162 17.5021C16.162 16.5818 16.908 15.8358 17.8283 15.8358C18.7485 15.8358 19.4946 16.5818 19.4946 17.5021Z" fill="#333333"/>
<path d="M22.8272 19.1684C23.7475 19.1684 24.4935 18.4223 24.4935 17.5021C24.4935 16.5818 23.7475 15.8358 22.8272 15.8358C21.9069 15.8358 21.1609 16.5818 21.1609 17.5021C21.1609 18.4223 21.9069 19.1684 22.8272 19.1684Z" fill="#333333"/>
<path d="M24.4935 25.8337C24.4935 26.754 23.7475 27.5 22.8272 27.5C21.9069 27.5 21.1609 26.754 21.1609 25.8337C21.1609 24.9134 21.9069 24.1674 22.8272 24.1674C23.7475 24.1674 24.4935 24.9134 24.4935 25.8337Z" fill="#333333"/>
<path d="M27.8261 19.1684C28.7464 19.1684 29.4924 18.4223 29.4924 17.5021C29.4924 16.5818 28.7464 15.8358 27.8261 15.8358C26.9059 15.8358 26.1598 16.5818 26.1598 17.5021C26.1598 18.4223 26.9059 19.1684 27.8261 19.1684Z" fill="#333333"/>
<path d="M14.4959 8.97577C14.4959 9.89604 13.7498 10.6421 12.8296 10.6421C11.9093 10.6421 11.1633 9.89604 11.1633 8.97577C11.1633 8.0555 11.9093 7.30947 12.8296 7.30947C13.7498 7.30947 14.4959 8.0555 14.4959 8.97577Z" fill="#333333"/>
<path d="M10.3302 14.8077C11.2505 14.8077 11.9965 14.0616 11.9965 13.1414C11.9965 12.2211 11.2505 11.4751 10.3302 11.4751C9.40993 11.4751 8.6639 12.2211 8.6639 13.1414C8.6639 14.0616 9.40993 14.8077 10.3302 14.8077Z" fill="#333333"/>
<path d="M16.9954 13.1414C16.9954 14.0616 16.2494 14.8077 15.3291 14.8077C14.4089 14.8077 13.6628 14.0616 13.6628 13.1414C13.6628 12.2211 14.4089 11.4751 15.3291 11.4751C16.2494 11.4751 16.9954 12.2211 16.9954 13.1414Z" fill="#333333"/>
<path d="M20.3278 14.8077C21.2481 14.8077 21.9941 14.0616 21.9941 13.1414C21.9941 12.2211 21.2481 11.4751 20.3278 11.4751C19.4076 11.4751 18.6615 12.2211 18.6615 13.1414C18.6615 14.0616 19.4076 14.8077 20.3278 14.8077Z" fill="#333333"/>
<path d="M26.9931 13.1414C26.9931 14.0616 26.2471 14.8077 25.3268 14.8077C24.4065 14.8077 23.6605 14.0616 23.6605 13.1414C23.6605 12.2211 24.4065 11.4751 25.3268 11.4751C26.2471 11.4751 26.9931 12.2211 26.9931 13.1414Z" fill="#333333"/>
<path d="M17.8283 10.6421C18.7485 10.6421 19.4946 9.89604 19.4946 8.97577C19.4946 8.0555 18.7485 7.30947 17.8283 7.30947C16.908 7.30947 16.162 8.0555 16.162 8.97577C16.162 9.89604 16.908 10.6421 17.8283 10.6421Z" fill="#333333"/>
<path d="M24.4935 8.97577C24.4935 9.89604 23.7475 10.6421 22.8272 10.6421C21.9069 10.6421 21.1609 9.89604 21.1609 8.97577C21.1609 8.0555 21.9069 7.30947 22.8272 7.30947C23.7475 7.30947 24.4935 8.0555 24.4935 8.97577Z" fill="#333333"/>
</svg>
