<svg width="36" height="36" viewBox="0 0 36 36" fill="none" xmlns="http://www.w3.org/2000/svg">
<path d="M14 15.4228L14.9559 15.9768L17.8684 10.9224V23.2571H18.9745V10.9224L21.887 15.9768L22.8448 15.4228L18.4224 7.74845L14 15.4228Z" fill="#333333"/>
<path fill-rule="evenodd" clip-rule="evenodd" d="M1 5.69651L2.46725 5L6.1148 12.6839C6.87042 12.8231 7.44287 13.4852 7.44287 14.2811C7.44287 14.8924 7.10518 15.4248 6.60618 15.7019V24.5938L12.3627 28.8727H23.6373L29.3939 24.5938V15.702C28.8948 15.4248 28.5571 14.8924 28.5571 14.2811C28.5571 13.4852 29.1296 12.823 29.8852 12.6839L33.5327 5L35 5.6965L31.4223 13.2333L31.4346 13.248C31.6663 13.5287 31.8055 13.8887 31.8055 14.2811C31.8055 14.8721 31.4899 15.3893 31.018 15.6735V25.4102L24.1749 30.4969H11.8252L4.98201 25.4102V15.6735C4.51014 15.3893 4.19452 14.8721 4.19452 14.2811C4.19452 13.8818 4.33864 13.5161 4.57771 13.2333L1 5.69651ZM6.63078 14.2811C6.63078 14.7296 6.2672 15.0932 5.8187 15.0932C5.37019 15.0932 5.00661 14.7296 5.00661 14.2811C5.00661 13.8326 5.37019 13.469 5.8187 13.469C6.2672 13.469 6.63078 13.8326 6.63078 14.2811ZM30.9934 14.2811C30.9934 14.7296 30.6298 15.0932 30.1813 15.0932C29.7328 15.0932 29.3692 14.7296 29.3692 14.2811C29.3692 13.8326 29.7328 13.469 30.1813 13.469C30.6298 13.469 30.9934 13.8326 30.9934 14.2811Z" fill="#333333"/>
</svg>
