<svg width="36" height="36" viewBox="0 0 36 36" fill="none" xmlns="http://www.w3.org/2000/svg">
<path fill-rule="evenodd" clip-rule="evenodd" d="M1 5.94806L2.46725 5.25156L6.1148 12.9354C6.87042 13.0746 7.44287 13.7368 7.44287 14.5327C7.44287 15.1439 7.10518 15.6763 6.60618 15.9535V24.8453L12.3627 29.1243H23.6373L29.3939 24.8453V15.9535C28.8948 15.6764 28.5571 15.1439 28.5571 14.5327C28.5571 13.7368 29.1296 13.0746 29.8852 12.9354L33.5327 5.25156L35 5.94806L31.4223 13.4848C31.6614 13.7677 31.8055 14.1333 31.8055 14.5327C31.8055 15.1236 31.4899 15.6409 31.018 15.925V25.6618L24.1749 30.7484H11.8252L4.98201 25.6618V15.925C4.51014 15.6409 4.19452 15.1236 4.19452 14.5327C4.19452 14.1333 4.33864 13.7676 4.57771 13.4848L1 5.94806ZM6.63078 14.5327C6.63078 14.9812 6.2672 15.3448 5.8187 15.3448C5.37019 15.3448 5.00661 14.9812 5.00661 14.5327C5.00661 14.0842 5.37019 13.7206 5.8187 13.7206C6.2672 13.7206 6.63078 14.0842 6.63078 14.5327ZM30.9934 14.5327C30.9934 14.9812 30.6298 15.3448 30.1813 15.3448C29.7328 15.3448 29.3692 14.9812 29.3692 14.5327C29.3692 14.0842 29.7328 13.7206 30.1813 13.7206C30.6298 13.7206 30.9934 14.0842 30.9934 14.5327Z" fill="#333333"/>
</svg>
