<svg width="36" height="36" viewBox="0 0 36 36" fill="none" xmlns="http://www.w3.org/2000/svg">
<path d="M9.75758 8.76649L2.9697 14.5329V19.8188M16.5455 6.84436C14.1212 4.92218 11.697 3.1923 5.87879 5.88329L2 7.80538M2 7.80538L4.90909 3.00005M2 7.80538H7.81818M26.2424 8.76649L33.0303 14.5329V19.8188M19.4545 6.84436C21.8788 4.92218 24.303 3.1923 30.1212 5.88329L34 7.80538M34 7.80538L31.0909 3.00005M34 7.80538H28.1818M2.9697 19.8188V28.2014L10.7273 33.9678H25.2727L33.0303 28.2014V19.8188M2.9697 19.8188C14.1924 16.1138 20.7903 16.1659 33.0303 19.8188" stroke="#333333" stroke-width="2"/>
</svg>
