<svg width="36" height="36" viewBox="0 0 36 36" fill="none" xmlns="http://www.w3.org/2000/svg">
<path d="M9.49688 15.6914C9.49688 16.6116 8.75085 17.3577 7.83058 17.3577C6.91031 17.3577 6.16428 16.6116 6.16428 15.6914C6.16428 14.7711 6.91031 14.0251 7.83058 14.0251C8.75085 14.0251 9.49688 14.7711 9.49688 15.6914Z" fill="#333333"/>
<path d="M14.4958 15.6914C14.4958 16.6117 13.7498 17.3577 12.8295 17.3577C11.9093 17.3577 11.1632 16.6117 11.1632 15.6914C11.1632 14.7712 11.9093 14.0251 12.8295 14.0251C13.7498 14.0251 14.4958 14.7712 14.4958 15.6914Z" fill="#333333"/>
<path d="M12.8295 25.6894C13.7498 25.6894 14.4958 24.9433 14.4958 24.0231C14.4958 23.1028 13.7498 22.3568 12.8295 22.3568C11.9093 22.3568 11.1632 23.1028 11.1632 24.0231C11.1632 24.9433 11.9093 25.6894 12.8295 25.6894Z" fill="#333333"/>
<path d="M11.9965 19.857C11.9965 20.7773 11.2504 21.5233 10.3302 21.5233C9.4099 21.5233 8.66387 20.7773 8.66387 19.857C8.66387 18.9368 9.4099 18.1907 10.3302 18.1907C11.2504 18.1907 11.9965 18.9368 11.9965 19.857Z" fill="#333333"/>
<path d="M15.3291 21.5233C16.2494 21.5233 16.9954 20.7773 16.9954 19.857C16.9954 18.9368 16.2494 18.1907 15.3291 18.1907C14.4088 18.1907 13.6628 18.9368 13.6628 19.857C13.6628 20.7773 14.4088 21.5233 15.3291 21.5233Z" fill="#333333"/>
<path d="M21.9941 19.857C21.9941 20.7773 21.2481 21.5233 20.3278 21.5233C19.4075 21.5233 18.6615 20.7773 18.6615 19.857C18.6615 18.9368 19.4075 18.1907 20.3278 18.1907C21.2481 18.1907 21.9941 18.9368 21.9941 19.857Z" fill="#333333"/>
<path d="M17.8282 25.6894C18.7485 25.6894 19.4945 24.9433 19.4945 24.0231C19.4945 23.1028 18.7485 22.3568 17.8282 22.3568C16.908 22.3568 16.1619 23.1028 16.1619 24.0231C16.1619 24.9433 16.908 25.6894 17.8282 25.6894Z" fill="#333333"/>
<path d="M26.9931 19.857C26.9931 20.7773 26.247 21.5233 25.3268 21.5233C24.4065 21.5233 23.6605 20.7773 23.6605 19.857C23.6605 18.9368 24.4065 18.1907 25.3268 18.1907C26.247 18.1907 26.9931 18.9368 26.9931 19.857Z" fill="#333333"/>
<path d="M17.8282 17.3577C18.7485 17.3577 19.4945 16.6117 19.4945 15.6914C19.4945 14.7712 18.7485 14.0251 17.8282 14.0251C16.908 14.0251 16.1619 14.7712 16.1619 15.6914C16.1619 16.6117 16.908 17.3577 17.8282 17.3577Z" fill="#333333"/>
<path d="M24.4935 15.6914C24.4935 16.6117 23.7474 17.3577 22.8272 17.3577C21.9069 17.3577 21.1609 16.6117 21.1609 15.6914C21.1609 14.7712 21.9069 14.0251 22.8272 14.0251C23.7474 14.0251 24.4935 14.7712 24.4935 15.6914Z" fill="#333333"/>
<path d="M22.8272 25.6894C23.7474 25.6894 24.4935 24.9433 24.4935 24.0231C24.4935 23.1028 23.7474 22.3568 22.8272 22.3568C21.9069 22.3568 21.1609 23.1028 21.1609 24.0231C21.1609 24.9433 21.9069 25.6894 22.8272 25.6894Z" fill="#333333"/>
<path d="M29.4924 15.6914C29.4924 16.6117 28.7464 17.3577 27.8261 17.3577C26.9058 17.3577 26.1598 16.6117 26.1598 15.6914C26.1598 14.7712 26.9058 14.0251 27.8261 14.0251C28.7464 14.0251 29.4924 14.7712 29.4924 15.6914Z" fill="#333333"/>
<path fill-rule="evenodd" clip-rule="evenodd" d="M2 8.00009V22.1925L10.4387 28.4652H25.6687L34.1073 22.1925V8.00009H32.1073V11.9595C26.543 10.3642 22.0673 9.53695 17.673 9.5307C13.3091 9.5245 9.08134 10.3279 4 11.9215V8.00009H2ZM17.6702 11.5307C21.9457 11.5368 26.3692 12.3659 32.1073 14.0416V21.1872L25.0068 26.4652H11.1006L4 21.1872V14.02C9.23714 12.3357 13.4103 11.5246 17.6702 11.5307Z" fill="#333333"/>
</svg>
