<svg width="36" height="36" viewBox="0 0 36 36" fill="none" xmlns="http://www.w3.org/2000/svg">
<path fill-rule="evenodd" clip-rule="evenodd" d="M10.6708 9.25583C11.1409 9.51024 11.6636 9.63744 12.2388 9.63744C12.814 9.63744 13.3311 9.51024 13.7901 9.25583C14.2547 9.00142 14.6197 8.65022 14.8852 8.20224C15.1507 7.74873 15.2834 7.24267 15.2834 6.68408C15.2834 6.12548 15.1507 5.62219 14.8852 5.17421C14.6197 4.7207 14.2547 4.36674 13.7901 4.11233C13.3311 3.85792 12.814 3.73071 12.2388 3.73071C11.6636 3.73071 11.1409 3.86068 10.6708 4.12062C10.2063 4.37503 9.84124 4.72623 9.57577 5.17421C9.31583 5.62219 9.18586 6.12548 9.18586 6.68408C9.18586 7.24267 9.31583 7.74596 9.57577 8.19394C9.84124 8.64192 10.2063 8.99589 10.6708 9.25583ZM13.4832 8.78296C13.1126 8.98759 12.6978 9.08991 12.2388 9.08991C11.7797 9.08991 11.3622 8.98759 10.9861 8.78296C10.6155 8.57279 10.3224 8.2852 10.1067 7.92018C9.89655 7.54962 9.79146 7.13759 9.79146 6.68408C9.79146 6.23056 9.89655 5.8213 10.1067 5.45627C10.3224 5.08572 10.6155 4.79813 10.9861 4.59349C11.3622 4.38333 11.7797 4.27825 12.2388 4.27825C12.6978 4.27825 13.1126 4.38333 13.4832 4.59349C13.8537 4.79813 14.1441 5.08572 14.3542 5.45627C14.5644 5.8213 14.6695 6.23056 14.6695 6.68408C14.6695 7.13759 14.5644 7.54962 14.3542 7.92018C14.1441 8.2852 13.8537 8.57279 13.4832 8.78296Z" fill="#333333"/>
<path d="M21.5126 9.58767V3.78049H20.907V8.4926L17.1655 3.78049H16.6594V9.58767H17.2733V4.87556L21.0065 9.58767H21.5126Z" fill="#333333"/>
<path fill-rule="evenodd" clip-rule="evenodd" d="M35.0738 4.66437L4.85927 24.088H24.0738C30.1489 24.088 35.0738 19.1631 35.0738 13.088V4.66437ZM24.0738 22.088H11.6689L33.0738 8.3277V13.088C33.0738 18.0585 29.0443 22.088 24.0738 22.088Z" fill="#333333"/>
<path d="M4.57699 5.2665L8.22771 12.2203L6.45691 13.1499L5.57699 11.4739V21.2444H3.57699V11.4739L2.69707 13.1499L0.92627 12.2203L4.57699 5.2665Z" fill="#333333"/>
<path d="M26.0855 28.6186L19.1318 24.9679L18.2021 26.7387L19.8782 27.6186H6.42054V29.6186H19.8782L18.2021 30.4985L19.1318 32.2693L26.0855 28.6186Z" fill="#333333"/>
<path fill-rule="evenodd" clip-rule="evenodd" d="M10.6708 9.25583C11.1409 9.51024 11.6636 9.63744 12.2388 9.63744C12.814 9.63744 13.3311 9.51024 13.7901 9.25583C14.2547 9.00142 14.6197 8.65022 14.8852 8.20224C15.1507 7.74873 15.2834 7.24267 15.2834 6.68408C15.2834 6.12548 15.1507 5.62219 14.8852 5.17421C14.6197 4.7207 14.2547 4.36674 13.7901 4.11233C13.3311 3.85792 12.814 3.73071 12.2388 3.73071C11.6636 3.73071 11.1409 3.86068 10.6708 4.12062C10.2063 4.37503 9.84124 4.72623 9.57577 5.17421C9.31583 5.62219 9.18586 6.12548 9.18586 6.68408C9.18586 7.24267 9.31583 7.74596 9.57577 8.19394C9.84124 8.64192 10.2063 8.99589 10.6708 9.25583ZM13.4832 8.78296C13.1126 8.98759 12.6978 9.08991 12.2388 9.08991C11.7797 9.08991 11.3622 8.98759 10.9861 8.78296C10.6155 8.57279 10.3224 8.2852 10.1067 7.92018C9.89655 7.54962 9.79146 7.13759 9.79146 6.68408C9.79146 6.23056 9.89655 5.8213 10.1067 5.45627C10.3224 5.08572 10.6155 4.79813 10.9861 4.59349C11.3622 4.38333 11.7797 4.27825 12.2388 4.27825C12.6978 4.27825 13.1126 4.38333 13.4832 4.59349C13.8537 4.79813 14.1441 5.08572 14.3542 5.45627C14.5644 5.8213 14.6695 6.23056 14.6695 6.68408C14.6695 7.13759 14.5644 7.54962 14.3542 7.92018C14.1441 8.2852 13.8537 8.57279 13.4832 8.78296Z" stroke="#333333"/>
<path d="M21.5126 9.58767V3.78049H20.907V8.4926L17.1655 3.78049H16.6594V9.58767H17.2733V4.87556L21.0065 9.58767H21.5126Z" stroke="#333333"/>
<path fill-rule="evenodd" clip-rule="evenodd" d="M35.0738 4.66437L4.85927 24.088H24.0738C30.1489 24.088 35.0738 19.1631 35.0738 13.088V4.66437ZM24.0738 22.088H11.6689L33.0738 8.3277V13.088C33.0738 18.0585 29.0443 22.088 24.0738 22.088Z" stroke="#333333"/>
<path d="M4.57699 5.2665L8.22771 12.2203L6.45691 13.1499L5.57699 11.4739V21.2444H3.57699V11.4739L2.69707 13.1499L0.92627 12.2203L4.57699 5.2665Z" stroke="#333333"/>
<path d="M26.0855 28.6186L19.1318 24.9679L18.2021 26.7387L19.8782 27.6186H6.42054V29.6186H19.8782L18.2021 30.4985L19.1318 32.2693L26.0855 28.6186Z" stroke="#333333"/>
</svg>
