<svg width="36" height="36" viewBox="0 0 36 36" fill="none" xmlns="http://www.w3.org/2000/svg">
<path d="M26.6944 9.04581H26.6819V1H9.31379V9.03744H9.30123C7.33873 10.5188 5.78704 12.4768 4.79325 14.7258C3.79946 16.9749 3.3965 19.4405 3.62255 21.8889C3.84861 24.3373 4.69619 26.6874 6.08497 28.7165C7.47374 30.7456 9.35769 32.3864 11.5583 33.4834C13.7588 34.5804 16.2031 35.0972 18.6593 34.9849C21.1156 34.8726 23.5025 34.1349 25.5938 32.8417C27.6851 31.5485 29.4114 29.7427 30.6093 27.5953C31.8071 25.448 32.4367 23.0303 32.4384 20.5715C32.4463 18.3355 31.931 16.1286 30.9336 14.1273C29.9362 12.126 28.4845 10.3858 26.6944 9.04581ZM17.9999 32.6371C15.4721 32.6363 13.0084 31.8416 10.9564 30.3654C8.90442 28.8892 7.36783 26.8058 6.56347 24.4094C5.75911 22.013 5.7276 19.4244 6.47337 17.0091C7.21915 14.5938 8.70456 12.4737 10.72 10.9479L11.6867 10.2365V3.37294H24.311V9.04581L24.334 10.2365L25.2652 10.9396C27.2844 12.4629 28.7738 14.5822 29.5229 16.9981C30.272 19.4139 30.2429 22.0041 29.4398 24.4025C28.6367 26.801 27.1002 28.8864 25.0473 30.364C22.9945 31.8417 20.5292 32.6368 17.9999 32.6371Z" fill="#333333"/>
<path d="M16.3427 19.7303C16.8533 19.0704 17.1085 18.029 17.1085 16.6061C17.1085 15.1832 16.8533 14.1418 16.3427 13.482C16.1024 13.1627 15.7886 12.9062 15.4279 12.7343C15.0672 12.5623 14.6704 12.48 14.2711 12.4943C13.8779 12.4831 13.4878 12.5671 13.134 12.739C12.7803 12.911 12.4733 13.1659 12.2392 13.482C11.7314 14.1418 11.4768 15.1832 11.4754 16.6061C11.474 18.029 11.7307 19.0753 12.2455 19.7449C12.4864 20.0622 12.7999 20.317 13.1596 20.4881C13.5193 20.6592 13.9148 20.7416 14.3129 20.7284C14.7066 20.7379 15.0968 20.6521 15.4502 20.4783C15.8036 20.3045 16.1098 20.0479 16.3427 19.7303ZM13.6056 18.5396C13.4396 18.2285 13.3566 17.5757 13.3566 16.581C13.3566 15.5864 13.4396 14.9335 13.6056 14.6224C13.6594 14.4888 13.7506 14.3735 13.8683 14.2903C13.9859 14.2072 14.125 14.1597 14.269 14.1537C14.4107 14.1612 14.5472 14.2094 14.6623 14.2926C14.7773 14.3757 14.866 14.4902 14.9177 14.6224C15.0851 14.9342 15.1667 15.5871 15.1667 16.581C15.1667 17.575 15.0851 18.2278 14.9177 18.5396C14.8644 18.6732 14.7737 18.7886 14.6564 18.8718C14.539 18.955 14.4001 19.0024 14.2564 19.0084C13.9928 19.0084 13.7772 18.8514 13.6056 18.5396Z" fill="#333333"/>
<path d="M22.8922 20.718C22.4972 20.7067 22.1051 20.7903 21.749 20.9618C21.393 21.1333 21.0832 21.3877 20.8457 21.7036C20.3338 22.3635 20.0771 23.4035 20.0757 24.8236C20.0743 26.2437 20.331 27.29 20.8457 27.9624C21.0862 28.2804 21.3995 28.536 21.7592 28.7079C22.119 28.8798 22.5147 28.9628 22.9132 28.9501C23.3064 28.9608 23.6964 28.8762 24.0499 28.7035C24.4033 28.5307 24.7097 28.275 24.9429 27.9582C25.4535 27.2956 25.7088 26.2535 25.7088 24.832C25.7088 23.4104 25.4535 22.3704 24.9429 21.712C24.7065 21.3934 24.3965 21.1366 24.0395 20.9636C23.6824 20.7905 23.2888 20.7063 22.8922 20.718ZM23.52 26.7634C23.4669 26.8969 23.3762 27.0121 23.2587 27.095C23.1413 27.1778 23.0024 27.2247 22.8588 27.23C22.716 27.2246 22.5779 27.1775 22.4615 27.0946C22.3451 27.0117 22.2555 26.8966 22.2038 26.7634C22.0406 26.4516 21.959 25.7966 21.959 24.8048C21.959 23.8129 22.0406 23.1579 22.2038 22.8461C22.2514 22.7095 22.3403 22.591 22.4582 22.5072C22.5761 22.4234 22.7172 22.3783 22.8619 22.3783C23.0066 22.3783 23.1477 22.4234 23.2656 22.5072C23.3835 22.591 23.4725 22.7095 23.52 22.8461C23.6874 23.1572 23.7711 23.8101 23.7711 24.8048C23.7732 25.7966 23.6895 26.4516 23.5221 26.7634H23.52Z" fill="#333333"/>
<path d="M21.0947 12.4942L14.3044 28.9165H16.1187L22.8545 12.4942H21.0947Z" fill="#333333"/>
</svg>
