<svg width="36" height="36" viewBox="0 0 36 36" fill="none" xmlns="http://www.w3.org/2000/svg">
<path d="M26.9461 11.6418C27.7854 12.5061 27.6622 13.0008 27.6622 13.3473C27.6622 13.6938 27.5621 14.6947 26.7228 15.174C25.8835 15.6533 25.9817 15.6938 24.6978 15.6687L24.2531 17.2491C24.8538 17.3713 25.4727 17.3731 26.074 17.2545C26.6754 17.1359 27.2472 16.8991 27.7565 16.558C29.4119 15.4031 29.3869 13.2472 29.3869 13.2472C29.3869 13.2472 29.2137 10.9007 27.5351 9.9132C27.0452 9.6227 26.5028 9.43169 25.939 9.35109C25.3752 9.2705 24.801 9.3019 24.2493 9.44351L24.6766 11.0008C24.6766 11.0008 26.1049 10.7775 26.9461 11.6418Z" fill="#333333"/>
<path d="M26.7228 24.4118C25.8836 24.8815 25.9817 24.9296 24.6978 24.9046L24.2531 26.4869C24.8545 26.6095 25.4742 26.6114 26.0763 26.4924C26.6784 26.3735 27.2508 26.136 27.7604 25.7939C29.4158 24.6389 29.3908 22.4849 29.3908 22.4849C29.3908 22.4849 29.2175 20.1385 27.539 19.151C27.0491 18.8605 26.5067 18.6695 25.9428 18.5889C25.379 18.5083 24.8048 18.5397 24.2531 18.6813L24.6766 20.2366C24.6766 20.2366 26.1088 20.0153 26.95 20.8796C27.7912 21.7438 27.666 22.2386 27.666 22.5831C27.666 22.9277 27.564 23.9421 26.7228 24.4118Z" fill="#333333"/>
<path d="M29.9586 21.201L30.8229 22.9777C31.4907 22.6317 32.0994 22.1822 32.6266 21.6457C33.614 20.6832 33.7122 19.8671 33.9605 18.8796C34.2493 17.7246 33.6891 15.8401 33.2194 15.0759C32.5207 13.9364 30.8729 12.9258 30.8729 12.9258L30.0337 14.6582L30.9461 15.3743C31.3075 15.7007 31.594 16.1015 31.786 16.549C31.9781 16.9965 32.0711 17.4803 32.0587 17.9672C32.0279 19.0085 31.8816 19.1895 31.4408 19.9672C31.0289 20.7063 29.9586 21.201 29.9586 21.201Z" fill="#333333"/>
<path d="M24.5399 13.9556V12.4157L17.6756 13.6091L17.5544 15.2088L24.5342 13.9653L24.5399 13.9556Z" fill="#333333"/>
<path d="M9.52358 15.0374L7.50626 15.3896L7.50048 17.0008L10.1588 16.5273L9.52358 15.0374Z" fill="#333333"/>
<path d="M24.4841 21.9671L7.51011 18.9181L7.49856 20.5273L24.4841 23.5225V21.9671Z" fill="#333333"/>
<path d="M12.1011 16.5003C12.573 16.7349 13.0936 16.855 13.6207 16.851C14.1477 16.847 14.6664 16.7189 15.1348 16.4772C16.2146 15.971 16.6959 14.2712 16.5361 13.3973C16.3763 12.5234 15.6622 11.765 14.9731 11.0066C14.5123 10.4543 14.1544 9.82383 13.9163 9.14516L13.7334 8.29627C13.7334 8.29627 12.5784 8.90839 11.6872 10.4791C11.1482 11.4416 10.5611 12.6851 10.6073 13.7188C10.6535 14.7525 11.1136 16.0403 12.1011 16.5003Z" fill="#333333"/>
<path d="M16.6015 9.98831C17.0732 10.2227 17.5933 10.3429 18.1199 10.3392C18.6466 10.3356 19.165 10.2081 19.6333 9.96714C20.7132 9.46088 21.1963 7.76117 21.0366 6.88725C20.8768 6.01334 20.1626 5.25106 19.4793 4.49842C19.0186 3.94614 18.6606 3.31569 18.4225 2.63701L18.2319 1.78619C18.2319 1.78619 17.077 2.39832 16.1877 3.96906C15.6468 4.93153 15.0616 6.17503 15.1078 7.20872C15.154 8.2424 15.6121 9.53018 16.6015 9.98831Z" fill="#333333"/>
<path d="M34.1222 32.1577C33.7403 32.3392 33.3227 32.4333 32.8999 32.433C32.3611 32.4374 31.8326 32.2848 31.3791 31.9939C30.9255 31.703 30.5664 31.2864 30.3455 30.7949C30.0935 30.2141 29.9437 29.5941 29.9028 28.9624H28.5265C28.4872 29.5942 28.338 30.2143 28.0857 30.7949C27.8606 31.2836 27.5003 31.6976 27.0472 31.9878C26.5941 32.2779 26.0674 32.4322 25.5294 32.4322C24.9913 32.4322 24.4646 32.2779 24.0115 31.9878C23.5585 31.6976 23.1981 31.2836 22.9731 30.7949C22.7222 30.2139 22.5737 29.5939 22.5342 28.9624H21.1328C21.0933 29.5939 20.9448 30.2139 20.6939 30.7949C20.4678 31.2837 20.1064 31.6976 19.6526 31.9877C19.1988 32.2778 18.6714 32.4319 18.1328 32.4319C17.5942 32.4319 17.0668 32.2778 16.613 31.9877C16.1592 31.6976 15.7979 31.2837 15.5717 30.7949C15.3193 30.2143 15.1702 29.5942 15.1309 28.9624H13.7353C13.6958 29.5939 13.5473 30.2139 13.2964 30.7949C13.0721 31.2838 12.7122 31.6981 12.2594 31.9885C11.8066 32.279 11.28 32.4333 10.7421 32.4333C10.2041 32.4333 9.6775 32.279 9.22471 31.9885C8.77192 31.6981 8.412 31.2838 8.18768 30.7949C7.93531 30.2143 7.78614 29.5942 7.74687 28.9624H6.34552C6.30602 29.5939 6.15753 30.2139 5.90664 30.7949C5.68542 31.2861 5.32621 31.7024 4.87271 31.9933C4.41922 32.2841 3.89098 32.4369 3.35226 32.433C2.82821 32.4321 2.31485 32.2847 1.87007 32.0076L1 33.5687C1.71255 33.9892 2.52492 34.2105 3.35226 34.2097C4.07011 34.2126 4.77855 34.0465 5.42028 33.7248C6.06201 33.4031 6.619 32.9348 7.0462 32.3579C7.47536 32.9331 8.03286 33.4001 8.67432 33.7218C9.31578 34.0435 10.0235 34.211 10.7411 34.211C11.4587 34.211 12.1664 34.0435 12.8079 33.7218C13.4493 33.4001 14.0068 32.9331 14.436 32.3579C14.8661 32.9339 15.4247 33.4016 16.0673 33.7237C16.7099 34.0458 17.4188 34.2136 18.1376 34.2136C18.8565 34.2136 19.5654 34.0458 20.208 33.7237C20.8506 33.4016 21.4092 32.9339 21.8393 32.3579C22.2685 32.9311 22.8252 33.3967 23.4653 33.7178C24.1053 34.039 24.8113 34.2069 25.5274 34.2084C26.2436 34.2099 26.9502 34.0449 27.5916 33.7264C28.233 33.408 28.7916 32.9447 29.2233 32.3733V32.3849C29.6491 32.9588 30.2048 33.4237 30.8448 33.7415C31.4849 34.0594 32.1911 34.2211 32.9057 34.2136C33.6333 34.2146 34.3509 34.0438 35 33.715L34.1222 32.1577Z" fill="#333333"/>
</svg>
