<svg width="36" height="36" viewBox="0 0 36 36" fill="none" xmlns="http://www.w3.org/2000/svg">
<path d="M31.8037 22.9459V19.1567H28.0145V20.4228H21.4771C21.3215 19.9833 21.0865 19.5761 20.7839 19.2214L25.9483 10.2589L22.6628 8.3598L20.7683 11.6475L21.8627 12.2805L18.595 17.9442C18.1369 17.858 17.6668 17.858 17.2087 17.9442L12.0464 8.99282L8.76323 10.8919L10.6578 14.1773L11.7522 13.5465L15.0198 19.2125C14.7179 19.5672 14.4837 19.9745 14.3289 20.4139H4V24.2031H7.78918V22.9459H14.3266C14.4821 23.3849 14.7171 23.7914 15.0198 24.1451L9.85763 33.1009L13.1386 35L15.0332 31.7123L13.9388 31.0793L17.2087 25.4111C17.6668 25.4973 18.1369 25.4973 18.595 25.4111L23.7595 34.367L27.0427 32.4702L25.1459 29.1825L24.0604 29.8133L20.7839 24.1451C21.0866 23.7914 21.3216 23.3849 21.4771 22.9459H31.8037ZM17.8952 22.9459C17.6451 22.9468 17.4003 22.8736 17.1918 22.7355C16.9832 22.5974 16.8203 22.4006 16.7234 22.17C16.6266 21.9394 16.6003 21.6853 16.6477 21.4397C16.6952 21.1942 16.8143 20.9681 16.99 20.7902C17.1658 20.6123 17.3903 20.4904 17.6353 20.4399C17.8803 20.3895 18.1347 20.4127 18.3665 20.5067C18.5983 20.6006 18.797 20.7612 18.9377 20.968C19.0783 21.1748 19.1545 21.4187 19.1567 21.6688C19.1567 22.0038 19.024 22.3251 18.7875 22.5624C18.551 22.7997 18.2302 22.9336 17.8952 22.9348V22.9459Z" fill="#333333"/>
<path d="M24.224 6.50823L24.609 7.17754L29.9471 4.08809L24.609 1L24.224 1.66795L27.7392 3.70174H18.9688V4.47444H27.7392L24.224 6.50823Z" fill="#333333"/>
<path d="M12.1751 6.50823L8.66118 4.47444H17.4303V3.70174H8.66118L12.1751 1.66795L11.7901 1L6.45327 4.08809L11.7901 7.17754L12.1751 6.50823Z" fill="#333333"/>
</svg>
