<svg width="36" height="36" viewBox="0 0 36 36" fill="none" xmlns="http://www.w3.org/2000/svg">
<path d="M6.26706 1V35H29.733V1H6.26706ZM27.387 32.652H8.61303V3.34597H27.387V32.652Z" fill="#333333"/>
<path d="M18.7582 27.625L17.2314 28.0822C16.2357 28.3813 15.1879 28.4655 14.1572 28.3293C13.1265 28.193 12.1365 27.8395 11.2527 27.292L10.6941 28.1836C11.7042 28.8113 12.8363 29.2168 14.0152 29.373C15.1941 29.5292 16.3927 29.4327 17.5314 29.0897L17.5769 29.0669C18.0796 28.9097 18.5864 28.7628 19.0892 28.6056L19.0602 28.6263C20.0228 28.3343 21.0362 28.2484 22.0343 28.3742C23.0323 28.5 23.9927 28.8348 24.8527 29.3566L25.403 28.467C24.4185 27.8682 23.3187 27.4837 22.1755 27.3386C21.0323 27.1935 19.8714 27.2911 18.7685 27.625H18.7582Z" fill="#333333"/>
<path d="M18.841 24.0044C18.3652 24.2113 17.8832 24.4471 17.4053 24.6623C16.4619 25.099 15.4362 25.3295 14.3967 25.3384C13.3572 25.3473 12.3277 25.1345 11.3769 24.714L10.9487 25.6677C12.0336 26.1475 13.2081 26.3912 14.3944 26.3826C15.5806 26.374 16.7515 26.1134 17.8294 25.618L19.2589 24.9581H19.2734C20.1839 24.5364 21.173 24.3111 22.1763 24.2969C23.1797 24.2826 24.1748 24.4797 25.0969 24.8754L25.5107 23.9155C24.4521 23.4611 23.3098 23.2344 22.1579 23.2501C21.006 23.2658 19.8703 23.5235 18.8245 24.0065L18.841 24.0044Z" fill="#333333"/>
<path d="M10.6487 14.1469L11.0852 15.2372C14.3158 13.9503 17.7168 13.1412 21.1808 12.8353V14.9972L25.5065 10.6735L21.1808 6.34772V8.51164C17.7168 8.20392 14.3161 7.39415 11.0852 6.10775L10.6487 7.20626C14.3859 8.691 18.3401 9.55674 22.3558 9.76945V9.17778L23.8515 10.6735L22.3558 12.1713V11.5775C18.3399 11.7932 14.3858 12.661 10.6487 14.1469Z" fill="#333333"/>
<path d="M17.9162 21.2737C18.3485 20.9758 18.7809 20.6717 19.2112 20.3738H19.2277C20.052 19.8007 20.9877 19.4075 21.9739 19.2196C22.9601 19.0318 23.9748 19.0536 24.952 19.2836L25.1982 18.2657C24.0776 17.9999 22.9135 17.9731 21.7818 18.1869C20.6502 18.4008 19.5762 18.8506 18.6299 19.507H18.6175L17.3162 20.4255C16.4616 21.0161 15.4915 21.4188 14.4698 21.6071C13.4482 21.7953 12.3982 21.7649 11.3892 21.5178L11.1327 22.5315C12.2867 22.8177 13.4885 22.855 14.658 22.6409C15.8276 22.4269 16.9382 21.9665 17.9162 21.2903V21.2737Z" fill="#333333"/>
</svg>
