<svg width="36" height="36" viewBox="0 0 36 36" fill="none" xmlns="http://www.w3.org/2000/svg">
<path d="M6.27124 1V35H29.7287V1H6.27124ZM27.3832 32.6462H8.61678V3.34347H27.3832V32.6462Z" fill="#333333"/>
<path d="M18.0009 17.1335C18.144 17.1341 18.2869 17.1265 18.4291 17.1107C19.0914 17.0415 19.7267 16.8111 20.2794 16.4396C20.832 16.0682 21.2853 15.567 21.5996 14.9799C21.9139 14.3928 22.0795 13.7377 22.0821 13.0718C22.0847 12.4059 21.9241 11.7495 21.6144 11.16L18.0009 4.81006L14.3854 11.1641C14.0596 11.7858 13.8997 12.4811 13.9214 13.1827C13.9431 13.8843 14.1456 14.5683 14.5092 15.1687C14.8729 15.7691 15.3854 16.2654 15.9971 16.6096C16.6088 16.9538 17.299 17.1343 18.0009 17.1335ZM15.4155 11.7246L18.0009 7.17421L20.5843 11.7246C20.8017 12.1446 20.9133 12.6113 20.9094 13.0841C20.9056 13.557 20.7864 14.0217 20.5622 14.4381C20.338 14.8544 20.0156 15.2098 19.623 15.4733C19.2304 15.7369 18.7794 15.9006 18.3091 15.9503C18.2081 15.9604 18.1066 15.9652 18.0051 15.9648C17.505 15.9684 17.0125 15.8424 16.5756 15.5992C16.1387 15.3559 15.7722 15.0037 15.5119 14.5767C15.2516 14.1497 15.1062 13.6626 15.09 13.1628C15.0739 12.663 15.1874 12.1675 15.4196 11.7246H15.4155Z" fill="#333333"/>
<path d="M17.8294 25.624L17.9038 25.5909C18.3609 25.3841 18.8222 25.1772 19.2814 24.9538C20.1921 24.5335 21.1809 24.3089 22.1838 24.2947C23.1868 24.2804 24.1816 24.4768 25.1039 24.8711L25.5175 23.9134C24.4595 23.4595 23.3178 23.2329 22.1666 23.2482C21.0154 23.2635 19.8802 23.5205 18.8346 24.0024L17.3867 24.6725C16.4436 25.1083 15.4184 25.3381 14.3795 25.3466C13.3406 25.3552 12.3118 25.1423 11.3616 24.7222L10.9334 25.6778C12.0202 26.1599 13.1973 26.4044 14.3862 26.3952C15.575 26.3859 16.7482 26.123 17.8273 25.624H17.8294Z" fill="#333333"/>
<path d="M17.5315 29.0887L17.579 29.0701L19.0952 28.6109L19.0641 28.6274C20.0244 28.3371 21.035 28.252 22.0303 28.3778C23.0256 28.5036 23.9833 28.8374 24.8411 29.3576L25.3913 28.4661C24.4071 27.8688 23.3083 27.4852 22.1662 27.3401C21.0242 27.1951 19.8644 27.2919 18.7621 27.6243H18.7808L17.2584 28.0814L17.2336 28.0958C16.239 28.3964 15.1917 28.4814 14.1616 28.3451C13.1316 28.2089 12.1424 27.8545 11.2601 27.3057L10.7037 28.1931C11.7122 28.8194 12.8423 29.2242 14.0191 29.3803C15.1959 29.5365 16.3925 29.4406 17.5294 29.099L17.5315 29.0887Z" fill="#333333"/>
<path d="M17.9141 21.2827L19.2296 20.3685C20.0538 19.7974 20.9887 19.4054 21.9738 19.218C22.9589 19.0306 23.9723 19.0519 24.9487 19.2805L25.1948 18.2629C24.0747 17.9971 22.9113 17.9703 21.7801 18.1842C20.649 18.398 19.5756 18.8477 18.6298 19.5039C18.1913 19.8121 17.7487 20.1244 17.3102 20.4202C16.4568 21.0129 15.4869 21.4171 14.4651 21.6058C13.4433 21.7944 12.3931 21.7633 11.3843 21.5144L11.1298 22.5299C12.283 22.816 13.4838 22.8532 14.6525 22.6392C15.8212 22.4253 16.9309 21.9649 17.9079 21.2889L17.9141 21.2827Z" fill="#333333"/>
</svg>
