<svg width="36" height="36" viewBox="0 0 36 36" fill="none" xmlns="http://www.w3.org/2000/svg">
<path d="M3.34511 17.9498C3.34552 16.9659 3.44473 15.9846 3.64125 15.0205L1.36818 14.4362C0.877273 16.7529 0.877273 19.1468 1.36818 21.4635L3.64125 20.8772C3.44473 19.9138 3.34552 18.9331 3.34511 17.9498Z" fill="#333333"/>
<path d="M7.63709 7.59528L5.98031 5.9385C4.30423 7.61295 2.99696 9.61952 2.14251 11.8293L4.40157 12.4816C5.14004 10.6516 6.24055 8.98955 7.63709 7.59528Z" fill="#333333"/>
<path d="M33.8573 11.8293C33.0005 9.61929 31.6913 7.6128 30.0135 5.9385L28.3548 7.59528C29.7527 8.98918 30.8546 10.6512 31.5943 12.4816L33.8573 11.8293Z" fill="#333333"/>
<path d="M18.008 5.11395C15.4598 5.11593 12.9694 5.87337 10.8516 7.29051C8.73384 8.70765 7.08376 10.7209 6.10997 13.0757C5.13619 15.4305 4.88243 18.0211 5.38077 20.5201C5.87911 23.0191 7.10718 25.3142 8.90973 27.1154C10.7123 28.9165 13.0084 30.1428 15.5077 30.6392C18.0071 31.1356 20.5976 30.8798 22.9516 29.9042C25.3056 28.9286 27.3176 27.277 28.7331 25.1581C30.1486 23.0392 30.9041 20.5482 30.9041 18C30.9009 14.5817 29.5409 11.3044 27.1228 8.88817C24.7047 6.47197 21.4264 5.11448 18.008 5.11395ZM18.008 29.7255C15.6917 29.7235 13.4281 29.035 11.503 27.7469C9.57791 26.4589 8.07786 24.629 7.19238 22.4887C6.3069 20.3484 6.07574 17.9936 6.5281 15.722C6.98047 13.4503 8.09606 11.3637 9.7339 9.72591C11.3717 8.08806 13.4583 6.97248 15.73 6.52011C18.0016 6.06775 20.3564 6.29891 22.4967 7.18439C24.637 8.06987 26.4669 9.56992 27.7549 11.495C29.043 13.4201 29.7315 15.6838 29.7335 18C29.7338 19.5399 29.4307 21.0648 28.8415 22.4875C28.2523 23.9102 27.3886 25.2029 26.2998 26.2918C25.2109 27.3807 23.9182 28.2443 22.4955 28.8335C21.0728 29.4227 19.5479 29.7258 18.008 29.7255Z" fill="#333333"/>
<path d="M2.14251 24.069C2.99696 26.2788 4.30423 28.2853 5.98031 29.9598L7.63709 28.303C6.24013 26.9091 5.13955 25.247 4.40157 23.4167L2.14251 24.069Z" fill="#333333"/>
<path d="M34.6318 14.4362L32.3587 15.0205C32.7536 16.9528 32.7536 18.9449 32.3587 20.8772L34.6318 21.4635C35.1227 19.1468 35.1227 16.7529 34.6318 14.4362Z" fill="#333333"/>
<path d="M28.3628 28.303L30.0216 29.9598C31.6965 28.2847 33.003 26.2783 33.8574 24.069L31.5944 23.4167C30.8576 25.2467 29.7584 26.9087 28.3628 28.303Z" fill="#333333"/>
</svg>
