<svg width="36" height="36" viewBox="0 0 36 36" fill="none" xmlns="http://www.w3.org/2000/svg">
<path d="M26.0008 30.4533C26.2007 29.0981 26.661 27.8859 26.8976 26.527C27.6476 26.6719 28.2142 26.8938 28.9478 27.09L28.1409 30.4533H26.0008Z" fill="#333333"/>
<path d="M20.6954 30.4535L23.1198 24.6054L25.1223 25.383C24.5924 26.9711 23.725 28.8416 23.1198 30.4645L20.6954 30.4535Z" fill="#333333"/>
<path d="M15.304 30.4574C16.8591 27.868 18.3225 25.4143 19.7859 22.8249C20.5194 23.1715 21.0494 23.4998 21.7078 23.8647C20.3525 26.0525 19.1275 28.3063 17.8127 30.4665L15.304 30.4574Z" fill="#333333"/>
<path d="M11.5776 30.4479H8.85254C11.5061 27.2735 13.958 23.7911 16.4832 20.5818C17.0883 20.9284 17.6348 21.4566 18.2583 21.8765L11.5776 30.4479Z" fill="#333333"/>
<path d="M4.05702 30.459H1L13.8717 18.0787C13.8717 18.0787 15.2856 19.5641 15.2691 19.5641L4.05702 30.459Z" fill="#333333"/>
<path d="M24.4732 22.5881C20.8844 20.8185 17.5908 18.3391 14.6255 15.493L14.4806 15.2381C16.4483 12.2856 17.4184 9.01771 20.3837 7.06833C23.2739 5.20882 27.3908 4.91724 30.4295 6.86844C31.9994 7.83911 33.2576 9.24003 34.0547 10.9047C34.8517 12.5695 35.1542 14.428 34.9261 16.2596C34.5043 19.1405 30.6441 25.0125 30.6441 25.0125C28.4435 24.4843 26.4886 23.5454 24.4585 22.5881H24.4732ZM29.6556 22.3332C30.3415 21.0936 31.2584 19.7604 31.9131 18.5537C33.1216 16.4393 33.1968 13.3199 31.8397 11.2183C30.2846 8.77197 27.3542 7.13252 24.2623 7.77069C20.4754 8.30068 18.8635 11.9885 17.1782 14.8273C19.8336 17.3947 23.1455 19.533 26.5308 21.1009C27.5559 21.4878 28.5627 22.0582 29.6611 22.3332H29.6556Z" fill="#333333"/>
</svg>
