<svg width="36" height="36" viewBox="0 0 36 36" fill="none" xmlns="http://www.w3.org/2000/svg">
<path d="M17.0574 9.36837V9.84015H18.9412V9.36837C18.9413 8.65541 19.1207 7.95392 19.4628 7.3284L17.9976 6.10243L16.5308 7.3284C16.8746 7.95349 17.0556 8.65499 17.0574 9.36837Z" fill="#333333"/>
<path d="M16.9477 4.83653C16.0226 3.99696 14.8637 3.45921 13.6253 3.29492V5.20531C14.3004 5.33815 14.9331 5.63287 15.4692 6.06416L16.9477 4.83653Z" fill="#333333"/>
<path d="M27.4381 9.36818V10.7819H29.3252V9.36818C29.3245 8.21496 28.9986 7.08532 28.385 6.10889L26.9148 7.33652C27.2568 7.95918 27.4367 8.65781 27.4381 9.36818Z" fill="#333333"/>
<path d="M22.3714 5.20531V3.29492C21.1371 3.46148 19.9826 3.99909 19.0607 4.83653L20.5275 6.06416C21.0632 5.63225 21.6961 5.33745 22.3714 5.20531Z" fill="#333333"/>
<path d="M27.3268 4.84151C26.4077 4.00294 25.2554 3.46357 24.0227 3.29492V5.20531C24.6959 5.33977 25.3263 5.63563 25.86 6.06748L27.3268 4.84151Z" fill="#333333"/>
<path d="M11.9789 5.20698V3.29492C10.7461 3.46316 9.59366 4.00259 8.67476 4.84151L10.1366 6.06914C10.6718 5.63679 11.3041 5.34092 11.9789 5.20698Z" fill="#333333"/>
<path d="M18.0008 11.254C11.9775 11.2536 6.07923 12.9734 1 16.211L10.1765 31.0556C12.4964 29.5182 15.2178 28.6983 18.0008 28.6983C20.7839 28.6983 23.5053 29.5182 25.8251 31.0556L35 16.211C29.9214 12.9734 24.0237 11.2536 18.0008 11.254ZM26.2288 22.7894H24.958C24.9434 23.2805 24.7381 23.7465 24.3856 24.0887C24.0332 24.4308 23.5613 24.6222 23.07 24.6222C22.5788 24.6222 22.1069 24.4308 21.7544 24.0887C21.4019 23.7465 21.1966 23.2805 21.182 22.7894H19.9112C19.8967 23.2805 19.6914 23.7465 19.3389 24.0887C18.9864 24.4308 18.5145 24.6222 18.0233 24.6222C17.532 24.6222 17.0601 24.4308 16.7076 24.0887C16.3552 23.7465 16.1499 23.2805 16.1353 22.7894H14.8645C14.8645 23.2899 14.6656 23.7699 14.3117 24.1238C13.9578 24.4777 13.4778 24.6766 12.9773 24.6766C12.4768 24.6766 11.9968 24.4777 11.6429 24.1238C11.289 23.7699 11.0902 23.2899 11.0902 22.7894H9.81771C9.81803 23.2064 9.68034 23.6118 9.42612 23.9424C9.1719 24.2729 8.81543 24.51 8.41232 24.6168L3.61475 16.8506C8.0188 14.416 12.9687 13.139 18.0008 13.139C23.033 13.139 27.9829 14.416 32.3869 16.8506L27.596 24.6018C27.2023 24.489 26.856 24.2511 26.6094 23.9242C26.3628 23.5973 26.2292 23.199 26.2288 22.7894Z" fill="#333333"/>
<path d="M18.9443 14.7906H17.0572V17.1478H18.9443V14.7906Z" fill="#333333"/>
<path d="M8.56349 9.36818C8.56385 8.65809 8.74265 7.95948 9.08345 7.33652L7.6166 6.10889C7.00224 7.08498 6.6763 8.21484 6.67635 9.36818V10.7819H8.56349V9.36818Z" fill="#333333"/>
<path d="M18.9443 30.3495H17.0572V32.7051H18.9443V30.3495Z" fill="#333333"/>
<path d="M18.9443 18.7976H17.0572V21.1548H18.9443V18.7976Z" fill="#333333"/>
</svg>
