<svg width="36" height="36" viewBox="0 0 36 36" fill="none" xmlns="http://www.w3.org/2000/svg">
<path d="M6.26709 1V35H29.733V1H6.26709ZM8.61306 3.34597H27.387V11.3645C26.7526 11.3225 26.1563 11.0468 25.7134 10.5908C25.2558 10.1189 24.9999 9.4875 24.9997 8.83024H23.8039C23.8039 9.50839 23.5345 10.1588 23.055 10.6383C22.5755 11.1178 21.9251 11.3872 21.247 11.3872C20.5688 11.3872 19.9184 11.1178 19.4389 10.6383C18.9594 10.1588 18.69 9.50839 18.69 8.83024H17.486C17.486 9.50839 17.2166 10.1588 16.737 10.6383C16.2575 11.1178 15.6071 11.3872 14.929 11.3872C14.2508 11.3872 13.6004 11.1178 13.1209 10.6383C12.6414 10.1588 12.372 9.50839 12.372 8.83024H11.168C11.1658 9.50584 10.8954 10.1529 10.4164 10.6293C9.93728 11.1057 9.28866 11.3723 8.61306 11.3707V3.34597ZM27.387 25.9947C26.7526 25.9527 26.1563 25.6771 25.7134 25.221C25.2558 24.7491 24.9999 24.1177 24.9997 23.4605H23.8039C23.8039 24.1386 23.5345 24.789 23.055 25.2685C22.5755 25.7481 21.9251 26.0175 21.247 26.0175C20.5688 26.0175 19.9184 25.7481 19.4389 25.2685C18.9594 24.789 18.69 24.1386 18.69 23.4605H17.486C17.486 24.1386 17.2166 24.789 16.737 25.2685C16.2575 25.7481 15.6071 26.0175 14.929 26.0175C14.2508 26.0175 13.6004 25.7481 13.1209 25.2685C12.6414 24.789 12.372 24.1386 12.372 23.4605H11.168C11.1669 23.7949 11.0999 24.1259 10.971 24.4344C10.842 24.743 10.6535 25.0231 10.4162 25.2588C10.179 25.4945 9.89764 25.6812 9.58825 25.8082C9.27886 25.9351 8.94749 25.9999 8.61306 25.9988V12.5643C9.23873 12.5634 9.85436 12.407 10.4046 12.1092C10.9566 11.8125 11.4248 11.3813 11.7658 10.8556C12.2844 11.6502 13.0833 12.2205 14.0033 12.4528C14.9234 12.6851 15.8972 12.5624 16.7309 12.1092C17.2829 11.8125 17.7511 11.3813 18.0921 10.8556C18.4351 11.3806 18.9036 11.8118 19.4551 12.1103C20.0067 12.4088 20.6239 12.5651 21.2511 12.5651C21.8782 12.5651 22.4955 12.4088 23.047 12.1103C23.5986 11.8118 24.0671 11.3806 24.4101 10.8556C24.7363 11.3554 25.1768 11.7706 25.6951 12.0666C26.2135 12.3626 26.7948 12.5311 27.3912 12.5581L27.387 25.9947ZM27.387 32.654H8.61306V27.1946C9.24013 27.1944 9.85726 27.0379 10.4087 26.7395C10.9607 26.4428 11.429 26.0116 11.77 25.4858C12.1133 26.0104 12.5819 26.4412 13.1334 26.7394C13.6849 27.0375 14.302 27.1937 14.929 27.1937C15.5559 27.1937 16.173 27.0375 16.7245 26.7394C17.276 26.4412 17.7446 26.0104 18.088 25.4858C18.4316 26.0099 18.9003 26.4403 19.4518 26.7382C20.0033 27.036 20.6202 27.1919 21.247 27.1919C21.8737 27.1919 22.4906 27.036 23.0421 26.7382C23.5936 26.4403 24.0623 26.0099 24.4059 25.4858C24.7323 25.9854 25.1728 26.4002 25.6912 26.6959C26.2096 26.9916 26.7908 27.1597 27.387 27.1863V32.654Z" fill="#333333"/>
</svg>
