<svg width="36" height="36" viewBox="0 0 36 36" fill="none" xmlns="http://www.w3.org/2000/svg">
<path d="M5.60886 13.2139C5.62298 12.9658 5.58631 12.7175 5.5011 12.484C5.41589 12.2506 5.28393 12.0371 5.1133 11.8565C4.94266 11.6759 4.73696 11.532 4.50877 11.4336C4.28059 11.3353 4.03473 11.2846 3.78626 11.2846C3.53779 11.2846 3.29193 11.3353 3.06375 11.4336C2.83556 11.532 2.62986 11.6759 2.45923 11.8565C2.2886 12.0371 2.15663 12.2506 2.07142 12.484C1.98621 12.7175 1.94954 12.9658 1.96366 13.2139C1.96083 13.6402 2.10963 14.0538 2.38348 14.3806C2.65734 14.7074 3.03843 14.9263 3.45872 14.9981C3.53108 15.0145 3.59652 15.053 3.6459 15.1084C3.69528 15.1638 3.72612 15.2332 3.73413 15.307C3.84233 15.7555 4.44625 16.0151 4.21806 16.3456C3.28364 17.6912 1.63711 18.2931 1.07056 19.7607C0.734169 20.6144 1.67448 21.1751 2.33153 21.6629C3.57085 22.5855 5.19772 22.7823 6.1518 23.8268C6.99376 24.7534 7.44031 26.0537 8.11899 27.2242C8.56948 28.0111 9.34455 28.7979 10.0862 28.8569C16.5956 29.3704 23.0834 29.0281 29.5928 29.0281C31.4144 27.6511 35.1265 27.2202 34.9967 24.598C34.979 24.2498 34.1331 24.4426 33.8734 24.6668C32.7856 25.6012 31.2748 26.0439 30.2892 25.0052C30.1233 24.8357 30.0303 24.608 30.0303 24.3708C30.0303 24.1336 30.1233 23.9058 30.2892 23.7364C33.7652 20.2092 33.6551 14.884 31.2433 10.9142C30.6531 9.95817 29.9449 9.02572 28.9082 8.42966C28.0289 7.92213 27.2105 7.35361 26.2447 7.16673C22.4224 6.4428 18.7143 6.93854 15.6061 9.32277C11.3826 12.5667 10.0291 18.48 12.0514 22.9377C13.0999 25.255 16.4343 24.9855 18.6553 24.2655C19.4421 24.0137 21.2539 23.9764 20.7267 22.9121C20.3824 22.2197 19.3595 21.6747 18.8067 20.9587C17.5733 19.3633 17.654 17.2604 18.7674 15.5529C20.2231 13.326 22.9536 12.4998 25.3161 13.7824C27.7181 15.0827 29.3115 18.4761 27.0866 20.5633C26.9627 20.6774 26.4591 20.6557 26.5358 20.4079C27.126 18.5233 27.0079 16.0328 25.084 14.9214C24.4591 14.5512 23.7467 14.3548 23.0203 14.3524C22.294 14.3499 21.5803 14.5416 20.9529 14.9076C19.6684 15.604 18.9582 16.9338 19.2238 18.3699C19.3516 19.0525 19.267 19.798 19.7923 20.3902C20.5083 21.1888 21.5883 21.5961 21.9719 22.619C22.1117 22.9625 22.1214 23.3451 21.9994 23.6952C21.8774 24.0454 21.6319 24.339 21.309 24.5213C18.8933 25.8865 15.9799 26.2426 13.4068 25.3672C12.8166 25.1704 12.1144 25.0426 11.6048 24.5803C10.9852 24.0236 10.4777 23.2229 10.4245 22.5836C10.2259 19.8826 8.56358 17.1364 9.63569 14.7306C10.2259 13.4126 10.8514 11.8762 9.51373 10.9634C8.98259 10.6014 7.99703 10.6054 7.45802 10.9634C6.19508 11.7995 6.64163 13.4342 7.45802 14.7129C7.59375 14.9234 7.2613 15.8578 6.5236 15.4584C6.07508 15.2145 5.48689 14.7325 5.53017 14.4138C5.5924 14.011 5.62201 13.6038 5.6187 13.1962L5.60886 13.2139Z" fill="#333333"/>
</svg>
