<svg width="36" height="36" viewBox="0 0 36 36" fill="none" xmlns="http://www.w3.org/2000/svg">
<path d="M24.6846 32.221C21.3003 32.2197 17.9771 31.3198 15.0544 29.6134C12.1318 27.9071 9.71459 25.4553 8.04988 22.5087L14.6961 25.618L15.2704 24.3829L5.41878 19.7767L6.3655 30.6327L7.7279 30.5222L7.12719 23.6236C9.5591 27.6951 13.33 30.7951 17.7949 32.3936C22.2599 33.9921 27.1414 33.9897 31.6048 32.3868L31.1458 31.1036C29.0728 31.8462 26.8867 32.2242 24.6846 32.221Z" fill="#333333"/>
<path d="M1 2.40918V17.3932H9.84L12.56 11.9436H35V2.40918H1ZM32.28 9.21879H10.8804L8.16042 14.6636H3.72V5.13399H32.28V9.21879Z" fill="#333333"/>
</svg>
