<svg width="36" height="36" viewBox="0 0 36 36" fill="none" xmlns="http://www.w3.org/2000/svg">
<path d="M12.9411 21.6574L12.1227 22.5352L16.8699 26.958C12.9227 26.4387 9.2859 24.5415 6.60169 21.6012C3.91748 18.6609 2.35851 14.8668 2.20005 10.8887L1 10.9354C1.16579 15.1193 2.77821 19.1161 5.56217 22.2438C8.34613 25.3715 12.1291 27.4363 16.2657 28.0859L10.4244 29.869L10.7743 31.0182L19.9739 28.2195L12.9411 21.6574ZM30.1892 22.8044V2.98877H21.7782V33.0112H35V25.2067L30.1892 22.8044ZM32.5914 30.609H24.1805V5.39099H27.7849V24.2886L32.5914 26.6908V30.609Z" fill="#333333"/>
</svg>
