<svg width="36" height="36" viewBox="0 0 36 36" fill="none" xmlns="http://www.w3.org/2000/svg">
<path d="M33.5706 27.548C32.0035 26.0585 30.321 25.4977 28.4084 25.4977H5.55181V23.883C5.60188 23.2997 6.29534 22.5136 7.23163 22.3008L14.4116 20.9965C16.3567 20.6085 16.6471 19.4118 16.6471 18.7334V14.5526C16.6471 13.6013 15.9712 12.5498 14.9223 11.8764C13.981 11.2706 12.9846 11.1304 12.181 11.4934L4.52789 15.0107C3.55906 15.4238 2.87812 14.8305 2.58771 14.1946C2.36741 13.7089 2.22221 12.7726 3.07839 12.3571L3.20857 12.297C5.29145 11.3632 10.381 9.0575 12.6767 7.83331C13.5203 7.38269 14.5743 7.34013 14.9748 7.74068C15.6933 8.45917 21.8318 14.5651 21.8318 14.5651L22.8332 13.5587C22.8332 13.5587 19.3108 10.0539 17.2905 8.0436C17.6761 7.6831 18.1768 7.45529 18.6825 7.43025C19.2708 7.40271 19.829 7.63053 20.2972 8.09868C21.6816 9.48309 25.0863 12.9854 25.1213 13.0205L26.1403 12.0316C26.1127 12.0016 23.777 9.60325 22.1823 7.98352C22.5027 7.66057 22.9208 7.46029 23.3714 7.42274C23.7845 7.38769 24.4079 7.47782 25.0312 8.09868C26.4156 9.48309 29.0468 12.1793 29.0718 12.2069L30.0882 11.2155C30.0657 11.193 28.3133 9.39547 26.9113 7.97851C27.1892 7.73818 27.6323 7.49284 28.1656 7.45028C28.819 7.39771 29.4298 7.65807 29.9931 8.23386L33.5706 11.7763L35 11.2055L31.002 7.23498C29.923 6.13596 28.8014 5.97825 28.0529 6.03833C27.1291 6.11343 26.3881 6.53151 25.9024 6.97713C25.1389 6.27616 24.2076 5.93318 23.2538 6.01079C22.4652 6.07838 21.7367 6.42887 21.1784 6.98714C20.4474 6.31371 19.5386 5.96823 18.6099 6.0158C17.7437 6.06086 16.92 6.43137 16.2866 7.04472C16.149 6.90703 16.0438 6.80188 15.9812 6.7393C15.0074 5.76545 13.2474 5.92317 12.0107 6.58158C9.75261 7.78574 4.69813 10.0739 2.62777 11.0027C2.52763 11.0478 2.47255 11.0728 2.47005 11.0753C0.930424 11.8238 0.715127 13.5061 1.29593 14.7829C1.89175 16.0922 3.38381 17.0385 5.10119 16.3075L12.7693 12.7826C13.1098 12.6274 13.6405 12.7376 14.1537 13.068C14.7645 13.4636 15.2277 14.102 15.2277 14.5526V18.7309C15.2277 18.9437 15.2277 19.3843 14.1462 19.5996L6.93622 20.9114C5.44416 21.2418 4.21496 22.5186 4.13235 23.8129L4.12984 26.9172H28.4034C29.968 26.9172 31.758 27.6932 33.0623 28.9325L35 30.427V11.2055L33.5706 11.7763V27.548Z" fill="#333333"/>
</svg>
