<svg width="36" height="36" viewBox="0 0 36 36" fill="none" xmlns="http://www.w3.org/2000/svg">
<path d="M24.0205 25.0002C23.8227 24.6169 23.6343 24.3137 23.2363 24.1438C23.067 24.0644 22.8828 24.0219 22.6959 24.0191C22.509 24.0163 22.3236 24.0531 22.152 24.1273C22.0424 23.9166 21.8721 23.7437 21.663 23.6309C21.4768 23.5223 21.268 23.4582 21.0529 23.4436C20.8378 23.429 20.6223 23.4643 20.4231 23.5467C20.2842 23.3268 20.0817 23.1543 19.8425 23.0522C19.4157 22.8507 18.956 23.0192 18.6062 23.2005C18.4964 23.0302 18.3504 22.8862 18.1784 22.7788C18.0065 22.6715 17.813 22.6035 17.6117 22.5797C17.4032 22.5498 17.1909 22.5615 16.9869 22.614C16.7829 22.6665 16.5913 22.7588 16.4231 22.8855C16.2948 22.7376 16.1357 22.6194 15.9569 22.5394C15.7782 22.4594 15.5841 22.4194 15.3883 22.4222C15.0146 22.4097 14.6477 22.5247 14.348 22.7482C14.0903 22.5697 13.7822 22.4785 13.4689 22.4881C13.2603 22.4859 13.0537 22.5296 12.8638 22.616C12.674 22.7024 12.5054 22.8294 12.37 22.9881C11.9866 22.779 11.5437 22.706 11.1136 22.7811C10.6669 22.8433 10.2547 23.0558 9.94505 23.3837C9.65018 23.2152 9.28571 23.1493 8.64103 23.3251C8.43987 23.3684 8.25066 23.4553 8.08674 23.5796C7.92281 23.704 7.78817 23.8628 7.69231 24.0449C7.36208 23.938 7.00829 23.9272 6.67216 24.0137C6.43121 24.0756 6.20564 24.1866 6.0096 24.3398C5.81357 24.493 5.6513 24.685 5.53297 24.9038C5.21795 24.8287 4.72344 24.8288 4.15934 25.3562C3.90833 25.6083 3.72338 25.9185 3.62088 26.2592C3.43492 26.2771 3.251 26.312 3.07143 26.3635V22.2683H1V34.7225H12V32.6364H3.07692V27.4679C3.33275 27.3414 3.61388 27.2744 3.89927 27.272C3.97679 27.2723 4.05394 27.2612 4.1282 27.239H4.15568C4.41874 27.1374 4.50029 26.901 4.57123 26.6954L4.57326 26.6896C4.62632 26.48 4.72726 26.2857 4.86813 26.1218C5.14884 25.8593 5.25902 25.9016 5.41533 25.9616L5.41758 25.9624C5.57395 26.0394 5.75291 26.0569 5.92125 26.0119L5.97436 25.9918C6.13316 25.9086 6.2586 25.7735 6.32967 25.609C6.33559 25.5991 6.34172 25.5888 6.34807 25.5782C6.45968 25.3909 6.63825 25.0914 6.87912 25.0394C7.24542 24.9625 7.34799 25.0284 7.45421 25.0998C7.58495 25.2001 7.74374 25.2571 7.90842 25.2628H7.96886C8.4011 25.2115 8.51831 24.8196 8.56044 24.6712C8.61355 24.4881 8.63736 24.413 8.90842 24.3397C9.34615 24.2189 9.38461 24.25 9.59341 24.424C9.61318 24.4417 9.63414 24.4588 9.6556 24.4763C9.67192 24.4896 9.68852 24.5032 9.70513 24.5174L9.83517 24.62H10.0018C10.1033 24.6234 10.2037 24.5987 10.2919 24.5486C10.3802 24.4985 10.4528 24.425 10.5018 24.3361C10.581 24.1977 10.6896 24.0783 10.82 23.9865C10.9504 23.8948 11.0994 23.8328 11.2564 23.8049C11.7523 23.7336 11.9465 23.9346 12.051 24.0428C12.1073 24.1103 12.1786 24.1642 12.259 24.1998C12.3394 24.2353 12.4268 24.2519 12.5147 24.2482C12.6166 24.2378 12.714 24.2004 12.7967 24.1399C12.8794 24.0793 12.9446 23.9979 12.9853 23.9038C13.1154 23.6621 13.2381 23.5229 13.4725 23.5229C13.7363 23.5229 13.7747 23.6053 13.8132 23.6932C13.8488 23.7947 13.9134 23.8835 13.9991 23.9487C14.0847 24.0138 14.1875 24.0523 14.2949 24.0595C14.4067 24.062 14.517 24.0337 14.6139 23.9779C14.7107 23.922 14.7904 23.8407 14.8443 23.7427C14.8976 23.6467 14.9784 23.5689 15.0764 23.5192C15.1743 23.4696 15.2849 23.4505 15.3938 23.4643C15.5769 23.4643 15.6758 23.5742 15.7912 23.7921C15.8352 23.8833 15.8975 23.9644 15.9744 24.0302C16.2179 24.2317 16.5037 24.1914 16.8205 23.9093C17.022 23.7262 17.2216 23.5705 17.4542 23.609C17.7171 23.651 17.758 23.7676 17.8199 23.9443L17.8205 23.946C17.8592 24.0956 17.9453 24.2286 18.0659 24.3251C18.359 24.5467 18.6667 24.369 18.8718 24.25C19.0408 24.1392 19.2262 24.0557 19.4212 24.0027C19.4583 24.0219 19.4938 24.044 19.5275 24.0687C19.5285 24.0882 19.5285 24.1078 19.5275 24.1273C19.5176 24.2575 19.5473 24.3877 19.6126 24.5008C19.678 24.6138 19.776 24.7045 19.8938 24.761C20.0051 24.801 20.1249 24.8113 20.2414 24.7911C20.358 24.7709 20.4673 24.7207 20.5586 24.6456C20.8168 24.4826 20.956 24.4313 21.1447 24.5394C21.2234 24.5833 21.2308 24.6053 21.2582 24.7335C21.2689 24.8278 21.2987 24.9185 21.3455 25.0002L22 25.5001C22 25.5001 22.2852 25.2357 22.7607 25.0665C23.2363 24.8973 24.0205 25.0002 24.0205 25.0002Z" fill="#333333"/>
<path d="M16.3736 13.1823L15.3974 12.6072C14.6172 13.219 11.6025 15.7977 10.4926 19.9424L11.5036 20.1054C12.3737 17.3505 14.0748 14.9323 16.3736 13.1823Z" fill="#333333"/>
<path d="M14.097 19.9132L15.1446 20.0066C15.3076 17.3912 17.2179 14.8454 17.8919 14.0213L17.0091 13.5231C16.5476 14.0835 14.1868 17.067 14.097 19.9132Z" fill="#333333"/>
<path d="M18.5824 14.4113C18.2637 15.0138 16.586 18.3636 17.5549 20.0889L18.4835 19.7867C17.978 18.2831 18.9487 15.9589 19.4414 14.9168L18.5824 14.4113Z" fill="#333333"/>
<path d="M34.9909 11.4772L35.0001 9.12924L21.1832 1.27759L15.3352 11.0944L21.1466 14.3893L24.9286 11.6952L34.9909 17.3856L34.9872 15.0541L24.8242 9.19517L21.0513 11.9479L18.2565 10.3435L21.9762 4.08894L34.9909 11.4772Z" fill="#333333"/>
<path d="M16.9111 34.0001H15.5V28.5607L13.8154 29.0831V27.9357L16.7598 26.881H16.9111V34.0001Z" fill="#333333"/>
<path d="M26.5889 34.0001H21.7158V33.0333L24.0156 30.5821C24.3314 30.2371 24.5641 29.936 24.7139 29.6788C24.8669 29.4217 24.9434 29.1775 24.9434 28.9464C24.9434 28.6306 24.8636 28.3833 24.7041 28.2042C24.5446 28.0219 24.3167 27.9308 24.0205 27.9308C23.7015 27.9308 23.4492 28.0415 23.2637 28.2628C23.0814 28.4809 22.9902 28.769 22.9902 29.1271H21.5742C21.5742 28.6941 21.6768 28.2986 21.8818 27.9405C22.0902 27.5825 22.3831 27.3025 22.7607 27.1007C23.1383 26.8956 23.5664 26.7931 24.0449 26.7931C24.7773 26.7931 25.3454 26.9689 25.749 27.3204C26.1559 27.672 26.3594 28.1684 26.3594 28.8097C26.3594 29.1612 26.2682 29.5193 26.0859 29.8839C25.9036 30.2485 25.5911 30.6733 25.1484 31.1583L23.5322 32.8624H26.5889V34.0001Z" fill="#333333"/>
<path d="M31.3838 29.8204H32.1357C32.4938 29.8204 32.7591 29.7309 32.9316 29.5519C33.1042 29.3728 33.1904 29.1352 33.1904 28.839C33.1904 28.5525 33.1042 28.3295 32.9316 28.17C32.7624 28.0105 32.528 27.9308 32.2285 27.9308C31.9583 27.9308 31.7321 28.0056 31.5498 28.1554C31.3675 28.3019 31.2764 28.4939 31.2764 28.7316H29.8652C29.8652 28.3605 29.9645 28.0284 30.1631 27.7355C30.3649 27.4392 30.6449 27.2081 31.0029 27.0421C31.3643 26.8761 31.7614 26.7931 32.1943 26.7931C32.9463 26.7931 33.5355 26.9737 33.9619 27.3351C34.3883 27.6931 34.6016 28.1879 34.6016 28.8195C34.6016 29.145 34.5023 29.4445 34.3037 29.7179C34.1051 29.9913 33.8447 30.2013 33.5225 30.3478C33.9229 30.491 34.2207 30.7058 34.416 30.9923C34.6146 31.2788 34.7139 31.6173 34.7139 32.0079C34.7139 32.6394 34.4827 33.1456 34.0205 33.5265C33.5615 33.9073 32.9528 34.0978 32.1943 34.0978C31.4847 34.0978 30.9036 33.9106 30.4512 33.5362C30.002 33.1619 29.7773 32.6671 29.7773 32.0519H31.1885C31.1885 32.3188 31.2878 32.5369 31.4863 32.7062C31.6882 32.8754 31.9355 32.9601 32.2285 32.9601C32.5638 32.9601 32.8258 32.8722 33.0146 32.6964C33.2067 32.5174 33.3027 32.2814 33.3027 31.9884C33.3027 31.2788 32.9121 30.9239 32.1309 30.9239H31.3838V29.8204Z" fill="#333333"/>
</svg>
