<svg width="36" height="36" viewBox="0 0 36 36" fill="none" xmlns="http://www.w3.org/2000/svg">
<path d="M27.8205 27.2464C27.681 27.2336 27.5406 27.2336 27.4011 27.2464C27.3994 27.0785 27.3608 26.9131 27.288 26.7618C27.2152 26.6105 27.11 26.4771 26.9799 26.371C26.8235 26.251 26.6429 26.1664 26.4507 26.1231C26.2584 26.0798 26.059 26.0788 25.8663 26.1201C25.836 25.9185 25.7575 25.7273 25.6377 25.5625C25.5178 25.3977 25.36 25.2641 25.1777 25.1732C24.8693 25.0257 24.5205 24.9857 24.1868 25.0596C23.9928 24.6483 23.6546 24.3224 23.2363 24.1439C23.067 24.0645 22.8828 24.022 22.6959 24.0192C22.509 24.0164 22.3236 24.0532 22.152 24.1274C22.0424 23.9167 21.8721 23.7438 21.663 23.6311C21.4768 23.5224 21.268 23.4583 21.0529 23.4437C20.8378 23.4291 20.6223 23.4644 20.4231 23.5468C20.2842 23.3269 20.0817 23.1544 19.8425 23.0523C19.4157 22.8508 18.956 23.0193 18.6062 23.2007C18.4964 23.0303 18.3504 22.8863 18.1784 22.7789C18.0065 22.6716 17.813 22.6036 17.6117 22.5798C17.4032 22.5499 17.1909 22.5616 16.9869 22.6141C16.7829 22.6666 16.5913 22.7589 16.4231 22.8856C16.2948 22.7377 16.1357 22.6196 15.9569 22.5395C15.7782 22.4595 15.5841 22.4195 15.3883 22.4223C15.0146 22.4098 14.6477 22.5248 14.348 22.7483C14.0903 22.5698 13.7822 22.4786 13.4689 22.4882C13.2603 22.486 13.0537 22.5297 12.8638 22.6161C12.674 22.7025 12.5054 22.8295 12.37 22.9882C11.9866 22.7791 11.5437 22.7061 11.1136 22.7812C10.6669 22.8434 10.2547 23.0559 9.94505 23.3838C9.65018 23.2153 9.28571 23.1494 8.64103 23.3252C8.43987 23.3685 8.25066 23.4554 8.08674 23.5797C7.92281 23.7041 7.78817 23.8629 7.69231 24.045C7.36208 23.9381 7.00829 23.9273 6.67216 24.0138C6.43121 24.0757 6.20564 24.1867 6.0096 24.3399C5.81357 24.4931 5.6513 24.6851 5.53297 24.9039C5.21795 24.8289 4.72344 24.8289 4.15934 25.3563C3.90833 25.6084 3.72338 25.9186 3.62088 26.2593C3.43492 26.2772 3.251 26.3121 3.07143 26.3637V22.2684H1V34.7226H29.8974V22.2684H27.8205V27.2464ZM27.8205 32.6365H3.07692V27.4681C3.33275 27.3415 3.61388 27.2745 3.89927 27.2721C3.97679 27.2724 4.05394 27.2613 4.1282 27.2391H4.15568C4.42125 27.1365 4.50183 26.8966 4.57326 26.6897C4.62632 26.4802 4.72726 26.2858 4.86813 26.1219C5.15018 25.8582 5.26007 25.9021 5.41758 25.9626C5.57395 26.0395 5.75291 26.057 5.92125 26.012L5.97436 25.9919C6.13316 25.9088 6.2586 25.7736 6.32967 25.6091C6.43956 25.4259 6.62454 25.0944 6.87912 25.0395C7.24542 24.9626 7.34799 25.0285 7.45421 25.0999C7.58495 25.2002 7.74374 25.2572 7.90842 25.2629H7.96886C8.4011 25.2116 8.51831 24.8197 8.56044 24.6713C8.61355 24.4882 8.63736 24.4131 8.90842 24.3398C9.34615 24.219 9.38461 24.2501 9.59341 24.4241C9.6282 24.4552 9.66667 24.4845 9.70513 24.5175L9.83517 24.6201H10.0018C10.1033 24.6235 10.2037 24.5989 10.2919 24.5487C10.3802 24.4986 10.4528 24.4251 10.5018 24.3362C10.581 24.1978 10.6896 24.0784 10.82 23.9866C10.9504 23.8949 11.0994 23.8329 11.2564 23.805C11.7527 23.7336 11.9469 23.9351 12.0513 24.0431C12.1075 24.1107 12.1786 24.1643 12.259 24.1999C12.3394 24.2355 12.4268 24.252 12.5147 24.2483C12.6166 24.2379 12.714 24.2005 12.7967 24.14C12.8794 24.0794 12.9446 23.998 12.9853 23.9039C13.1154 23.6622 13.2381 23.523 13.4725 23.523C13.7363 23.523 13.7747 23.6054 13.8132 23.6933C13.8488 23.7948 13.9134 23.8836 13.9991 23.9488C14.0847 24.0139 14.1875 24.0524 14.2949 24.0596C14.4067 24.0621 14.517 24.0338 14.6139 23.978C14.7107 23.9221 14.7904 23.8408 14.8443 23.7428C14.8976 23.6468 14.9784 23.569 15.0764 23.5194C15.1743 23.4697 15.2849 23.4506 15.3938 23.4644C15.5769 23.4644 15.6758 23.5743 15.7912 23.7922C15.8352 23.8834 15.8975 23.9645 15.9744 24.0303C16.2179 24.2318 16.5037 24.1915 16.8205 23.9094C17.022 23.7263 17.2216 23.5706 17.4542 23.6091C17.7179 23.6512 17.7582 23.7684 17.8205 23.9461C17.8592 24.0957 17.9453 24.2287 18.0659 24.3252C18.359 24.5468 18.6667 24.3692 18.8718 24.2501C19.0408 24.1393 19.2262 24.0558 19.4212 24.0028C19.4583 24.022 19.4938 24.0441 19.5275 24.0688C19.5285 24.0883 19.5285 24.1079 19.5275 24.1274C19.5176 24.2576 19.5473 24.3878 19.6126 24.5009C19.678 24.6139 19.776 24.7046 19.8938 24.7611C20.0051 24.8011 20.1249 24.8114 20.2414 24.7912C20.358 24.771 20.4673 24.7208 20.5586 24.6457C20.8168 24.4827 20.956 24.4314 21.1447 24.5395C21.2234 24.5834 21.2308 24.6054 21.2582 24.7336C21.2729 24.8633 21.3238 24.9862 21.4051 25.0882C21.4864 25.1902 21.5948 25.2673 21.7179 25.3105C21.8222 25.3347 21.9303 25.3367 22.0353 25.3166C22.1404 25.2964 22.24 25.2544 22.3278 25.1933C22.5494 25.0743 22.6667 25.0303 22.7839 25.0853C23.2418 25.3032 23.2766 25.5981 23.293 25.7391C23.2983 25.8296 23.3253 25.9176 23.3719 25.9954C23.4184 26.0732 23.4831 26.1386 23.5604 26.186L23.7839 26.316L24.0824 26.1915C24.3022 26.0981 24.5165 26.0212 24.7216 26.1201C24.8242 26.1695 24.8535 26.3325 24.8663 26.5816C24.8565 26.7016 24.8806 26.8219 24.936 26.9288C24.9914 27.0357 25.0758 27.1248 25.1795 27.186L25.2619 27.219C25.4437 27.2611 25.6335 27.2535 25.8114 27.197C25.9945 27.1567 26.2143 27.1072 26.3168 27.197C26.3791 27.2446 26.3462 27.5065 26.3333 27.6036C26.3021 27.7215 26.3025 27.8457 26.3347 27.9634C26.3669 28.0811 26.4296 28.1882 26.5165 28.2739C26.604 28.3408 26.7072 28.3841 26.8163 28.3995C26.9254 28.4149 27.0366 28.4019 27.1392 28.3618C27.3571 28.2908 27.5889 28.2732 27.815 28.3105L27.8205 32.6365Z" fill="#333333"/>
<path d="M16.3736 13.1823L15.3974 12.6072C14.6172 13.219 11.6025 15.7977 10.4926 19.9424L11.5036 20.1054C12.3737 17.3505 14.0748 14.9323 16.3736 13.1823Z" fill="#333333"/>
<path d="M14.097 19.9132L15.1446 20.0066C15.3076 17.3912 17.2179 14.8454 17.8919 14.0213L17.0091 13.5231C16.5476 14.0835 14.1868 17.067 14.097 19.9132Z" fill="#333333"/>
<path d="M18.5824 14.4113C18.2637 15.0138 16.586 18.3636 17.5549 20.0889L18.4835 19.7867C17.978 18.2831 18.9487 15.9589 19.4414 14.9168L18.5824 14.4113Z" fill="#333333"/>
<path d="M34.9909 11.4772L35.0001 9.12924L21.1832 1.27759L15.3352 11.0944L21.1466 14.3893L24.9286 11.6952L34.9909 17.3856L34.9872 15.0541L24.8242 9.19517L21.0513 11.9479L18.2565 10.3435L21.9762 4.08894L34.9909 11.4772Z" fill="#333333"/>
</svg>
