<svg width="36" height="36" viewBox="0 0 36 36" fill="none" xmlns="http://www.w3.org/2000/svg">
<path d="M35.0001 11.487V9.12252L21.185 1.27271L15.3352 11.0877L21.1484 14.3826L24.9305 11.6885L34.9909 17.3789L34.9946 15.0401L24.8242 9.18846L21.0513 11.9412L18.2565 10.3368L21.9762 4.08406L35.0001 11.487Z" fill="#333333"/>
<path d="M27.8205 24.8608C27.681 24.848 27.5406 24.848 27.4011 24.8608C27.3994 24.6929 27.3608 24.5274 27.288 24.3762C27.2152 24.2249 27.11 24.0914 26.9799 23.9853C26.8235 23.8654 26.6429 23.7808 26.4507 23.7375C26.2584 23.6941 26.059 23.6931 25.8663 23.7344C25.836 23.5329 25.7575 23.3416 25.6377 23.1768C25.5178 23.012 25.36 22.8785 25.1777 22.7875C24.8693 22.64 24.5205 22.6 24.1868 22.674C23.9928 22.2626 23.6546 21.9368 23.2363 21.7582C23.067 21.6789 22.8828 21.6364 22.6959 21.6336C22.509 21.6307 22.3236 21.6676 22.152 21.7417C22.0424 21.531 21.8721 21.3581 21.663 21.2454C21.4768 21.1368 21.268 21.0727 21.0529 21.0581C20.8378 21.0435 20.6223 21.0787 20.4231 21.1612C20.2842 20.9412 20.0817 20.7688 19.8425 20.6667C19.4158 20.4652 18.956 20.6337 18.6062 20.815C18.4964 20.6446 18.3504 20.5006 18.1784 20.3933C18.0065 20.286 17.813 20.218 17.6117 20.1941C17.4032 20.1643 17.1909 20.176 16.9869 20.2285C16.7829 20.2809 16.5913 20.3732 16.4231 20.5C16.2948 20.352 16.1357 20.2339 15.9569 20.1539C15.7782 20.0738 15.5841 20.0338 15.3883 20.0366C15.0146 20.0241 14.6477 20.1391 14.348 20.3626C14.0903 20.1841 13.7822 20.093 13.4689 20.1025C13.2603 20.1004 13.0537 20.144 12.8638 20.2304C12.674 20.3168 12.5054 20.4438 12.37 20.6026C11.9866 20.3934 11.5437 20.3205 11.1136 20.3956C10.6669 20.4578 10.2547 20.6703 9.94506 20.9982C9.65018 20.8297 9.28572 20.7637 8.64103 20.9395C8.43987 20.9828 8.25066 21.0697 8.08674 21.1941C7.92281 21.3184 7.78817 21.4773 7.69231 21.6593C7.36208 21.5525 7.00829 21.5417 6.67216 21.6282C6.43121 21.6901 6.20564 21.8011 6.0096 21.9543C5.81357 22.1074 5.6513 22.2995 5.53297 22.5183C5.21795 22.4432 4.72344 22.4432 4.15934 22.9707C3.90833 23.2228 3.72338 23.5329 3.62088 23.8736C3.43492 23.8915 3.251 23.9265 3.07143 23.978V22.2729H1V34.7271H29.8974V22.2637H27.8205V24.8608ZM27.8205 32.6319H3.07692V25.0824C3.33275 24.9559 3.61388 24.8889 3.89927 24.8864C3.97679 24.8868 4.05394 24.8757 4.12821 24.8535H4.15568C4.42125 24.7509 4.50183 24.511 4.57326 24.304C4.62632 24.0945 4.72726 23.9002 4.86813 23.7362C5.15018 23.4725 5.26007 23.5165 5.41758 23.5769C5.57395 23.6538 5.75291 23.6714 5.92125 23.6264L5.97436 23.6062C6.13316 23.5231 6.2586 23.388 6.32967 23.2234C6.43956 23.0311 6.62454 22.7088 6.87912 22.6538C7.24542 22.5769 7.34799 22.6428 7.45421 22.7143C7.58495 22.8146 7.74374 22.8716 7.90843 22.8773H7.96886C8.4011 22.826 8.51831 22.4341 8.56044 22.2857C8.61355 22.1026 8.63736 22.0275 8.90843 21.9542C9.34615 21.8333 9.38461 21.8645 9.59341 22.0384C9.62821 22.0696 9.66667 22.0989 9.70513 22.1319L9.83517 22.2344H10.0018C10.103 22.2367 10.203 22.2115 10.291 22.1615C10.379 22.1115 10.4519 22.0386 10.5018 21.9505C10.581 21.8121 10.6896 21.6928 10.82 21.601C10.9504 21.5092 11.0994 21.4472 11.2564 21.4194C11.7527 21.3498 11.9469 21.5494 12.0513 21.6575C12.1073 21.7253 12.1783 21.7792 12.2587 21.8148C12.3392 21.8504 12.4268 21.8668 12.5147 21.8626C12.6166 21.8522 12.714 21.8148 12.7967 21.7543C12.8794 21.6938 12.9446 21.6123 12.9853 21.5183C13.1154 21.2765 13.2381 21.1373 13.4725 21.1373C13.7363 21.1373 13.7747 21.2198 13.8132 21.3077C13.8488 21.4092 13.9134 21.498 13.9991 21.5631C14.0847 21.6282 14.1875 21.6668 14.2949 21.674C14.4067 21.6764 14.517 21.6482 14.6139 21.5923C14.7107 21.5365 14.7904 21.4551 14.8443 21.3571C14.8976 21.2611 14.9784 21.1833 15.0764 21.1337C15.1743 21.0841 15.2849 21.0649 15.3938 21.0787C15.5769 21.0787 15.6758 21.1886 15.7912 21.4066C15.8352 21.4977 15.8975 21.5788 15.9744 21.6447C16.2179 21.8461 16.5037 21.8058 16.8205 21.5238C17.022 21.3406 17.2216 21.185 17.4542 21.2234C17.7179 21.2656 17.7582 21.3828 17.8205 21.5604C17.8592 21.71 17.9453 21.843 18.0659 21.9395C18.359 22.1612 18.6667 21.9817 18.8718 21.8645C19.0408 21.7536 19.2262 21.6702 19.4212 21.6172C19.4583 21.6364 19.4938 21.6584 19.5275 21.6831C19.5285 21.7027 19.5285 21.7222 19.5275 21.7417C19.5176 21.872 19.5473 22.0022 19.6126 22.1152C19.678 22.2283 19.776 22.319 19.8938 22.3754C20.0051 22.4154 20.1249 22.4258 20.2414 22.4056C20.358 22.3853 20.4673 22.3352 20.5586 22.2601C20.8169 22.0971 20.956 22.0458 21.1447 22.1538C21.2234 22.1978 21.2308 22.2198 21.2582 22.348C21.2729 22.4776 21.3238 22.6005 21.4051 22.7026C21.4864 22.8046 21.5948 22.8817 21.7179 22.9249C21.8222 22.949 21.9303 22.9511 22.0353 22.9309C22.1404 22.9107 22.24 22.8687 22.3278 22.8077C22.5494 22.6886 22.6667 22.6447 22.7839 22.6996C23.2418 22.9176 23.2766 23.2124 23.293 23.3535C23.2983 23.444 23.3253 23.5319 23.3719 23.6097C23.4184 23.6875 23.4831 23.7529 23.5604 23.8004L23.7839 23.9304L24.0824 23.8058C24.3022 23.7124 24.5165 23.6355 24.7216 23.7344C24.8242 23.7839 24.8535 23.9469 24.8663 24.196C24.8565 24.3159 24.8806 24.4363 24.936 24.5432C24.9914 24.65 25.0758 24.7392 25.1795 24.8004L25.2619 24.8333C25.4437 24.8754 25.6335 24.8678 25.8114 24.8113C25.9945 24.771 26.2143 24.7216 26.3168 24.8113C26.3791 24.859 26.3462 25.1209 26.3333 25.2179C26.3021 25.3359 26.3025 25.46 26.3347 25.5777C26.3669 25.6955 26.4296 25.8026 26.5165 25.8883C26.604 25.9552 26.7072 25.9984 26.8163 26.0138C26.9254 26.0292 27.0366 26.0163 27.1392 25.9762C27.3571 25.9051 27.5889 25.8875 27.815 25.9249L27.8205 32.6319Z" fill="#333333"/>
</svg>
