<svg width="36" height="36" viewBox="0 0 36 36" fill="none" xmlns="http://www.w3.org/2000/svg">
<path d="M35 19.148V16.8441L31.6853 16.0626C31.5761 15.2964 31.403 14.5407 31.1676 13.8034L33.8064 11.6599L32.8057 9.58536L29.4808 10.3181C29.0501 9.67559 28.5667 9.06997 28.0356 8.50751L29.5011 5.43432L27.6986 3.99718L25.0192 6.10011C24.3528 5.7077 23.6549 5.3716 22.9325 5.09533L22.9061 1.69127L20.6591 1.17163L19.159 4.22859C18.7734 4.19611 18.3877 4.17987 18 4.17987C17.6123 4.17987 17.2266 4.19611 16.841 4.22859L15.3409 1.17163L13.0939 1.68518L13.0695 5.08924C12.3464 5.3651 11.6477 5.70121 10.9808 6.09402L8.30746 3.99109L6.5009 5.43432L7.95427 8.51157C7.42303 9.07462 6.93961 9.68094 6.50902 10.3242L3.18412 9.58536L2.1834 11.6599L4.82221 13.8034C4.5882 14.5408 4.41641 15.2965 4.30866 16.0626L1 16.8441V19.148L4.31475 19.9315C4.42439 20.6968 4.59683 21.4517 4.83033 22.1887L2.19152 24.3302L3.19224 26.4067L6.51916 25.674C6.94927 26.317 7.43273 26.9227 7.96442 27.4846L6.49887 30.5639L8.30746 31.999L10.9869 29.896C11.653 30.2932 12.3517 30.6327 13.0756 30.911L13.0999 34.3171L15.347 34.8286L16.847 31.7838C17.2327 31.8143 17.6204 31.8305 18.0061 31.8305C18.3918 31.8305 18.7795 31.8143 19.1651 31.7838L20.6652 34.8286L22.9122 34.3171L22.9366 30.911C23.6601 30.6319 24.3588 30.2924 25.0253 29.896L27.7027 32.001L29.5052 30.5639L28.0498 27.4846C28.582 26.9226 29.0661 26.3169 29.4971 25.674L32.8199 26.4088L33.8227 24.3322L31.1839 22.1887C31.419 21.452 31.5921 20.697 31.7015 19.9315L35 19.148ZM17.9797 29.5246C15.7029 29.5238 13.4775 28.8478 11.5848 27.5822C9.69223 26.3166 8.21744 24.5181 7.34698 22.4143C6.47652 20.3104 6.24949 17.9957 6.69461 15.7628C7.13972 13.53 8.23699 11.4792 9.84765 9.87001C11.4583 8.26078 13.51 7.16532 15.7432 6.72217C17.9765 6.27902 20.291 6.50809 22.3941 7.3804C24.4972 8.25272 26.2943 9.7291 27.5583 11.6228C28.8222 13.5166 29.4963 15.7426 29.495 18.0194C29.4918 21.0715 28.2772 23.9976 26.1181 26.1548C23.959 28.3121 21.0318 29.524 17.9797 29.5246Z" fill="#333333"/>
</svg>
