<svg width="36" height="36" viewBox="0 0 36 36" fill="none" xmlns="http://www.w3.org/2000/svg">
<path d="M25.4578 13.9631L24.6312 14.7897C24.2794 15.1398 23.3736 15.9681 22.6464 16.628L22.6009 16.6701L21.4881 17.6954L21.1514 18.0321L21.4881 18.3688C21.6161 18.4984 22.005 18.8351 22.643 19.389C23.3955 20.0422 24.3265 20.857 24.6868 21.2088L25.5083 22.0287V19.9378H28.2238L28.212 16.0085H25.4511C25.4511 15.889 25.4578 13.9631 25.4578 13.9631ZM27.2508 16.9765C27.2508 17.0977 27.2508 18.8553 27.2508 18.9765H24.5454V19.7829L23.2928 18.6769L22.5403 18.022L24.4848 16.2425C24.4848 16.4445 24.4848 16.9748 24.4848 16.9748L27.2508 16.9765Z" fill="#333333"/>
<path d="M34.9966 19.3939V16.6128L31.8704 15.6195C31.727 14.771 31.5055 13.9375 31.2087 13.1296L33.4175 10.7088L32.0269 8.29966L28.8283 9.00337C28.2786 8.34236 27.6701 7.73267 27.0101 7.18182L27.7138 3.98316L25.2997 2.58417L22.8788 4.79293C22.0722 4.4956 21.2398 4.27355 20.3922 4.12963L19.399 1H16.6178L15.6229 4.12626C14.7749 4.26961 13.9419 4.4911 13.1347 4.78788L10.7121 2.57744L8.3047 3.96801L9.00672 7.16667C8.34546 7.71847 7.73576 8.3293 7.18517 8.99158L3.98652 8.28788L2.58922 10.697L4.79629 13.1212C4.49476 13.929 4.26931 14.7631 4.12289 15.6128L1.00336 16.5993V19.3788L4.12794 20.3721C4.27072 21.2222 4.49164 22.0574 4.78787 22.867L2.58248 25.2845L3.97305 27.6936L7.17171 26.9916C7.72304 27.6537 8.33328 28.2646 8.99494 28.8165L8.29124 32.0152L10.7003 33.4057L13.1246 31.2037C13.9337 31.5044 14.7689 31.7299 15.6195 31.8771L16.6111 35H19.3922L20.3838 31.8788C21.2337 31.7357 22.0684 31.5136 22.8771 31.2155L25.2963 33.4226L27.7037 32.032L27.0017 28.8333C27.6637 28.283 28.274 27.6733 28.8249 27.0118L32.0236 27.7138L33.4141 25.3047L31.2054 22.8855C31.5029 22.0773 31.725 21.2432 31.8687 20.3939L34.9966 19.3939ZM18.0067 29.7963C15.6725 29.799 13.39 29.1092 11.4479 27.8142C9.50588 26.5192 7.99161 24.6772 7.09673 22.5214C6.20185 20.3655 5.96659 17.9927 6.4207 15.7031C6.87482 13.4134 7.9979 11.31 9.64785 9.65887C11.2978 8.00775 13.4004 6.88316 15.6897 6.42741C17.979 5.97166 20.352 6.20523 22.5085 7.09857C24.665 7.99191 26.5081 9.50486 27.8044 11.446C29.1008 13.3871 29.7922 15.6692 29.7912 18.0034C29.7903 21.1293 28.5487 24.1271 26.3392 26.3383C24.1296 28.5494 21.1327 29.7932 18.0067 29.7963Z" fill="#333333"/>
<path d="M13.3939 16.6668L13.3434 16.6213C12.6195 15.9597 11.7172 15.1415 11.3653 14.7863L10.5387 13.9631C10.5387 13.9631 10.5387 15.8923 10.5387 16.0186H7.78789L7.7761 19.9479H10.4882V22.0439L11.3098 21.224C11.6633 20.8721 12.5993 20.059 13.367 19.3923C13.9899 18.8519 14.3771 18.5136 14.5067 18.3822L14.8552 18.0338L14.5185 17.6971L13.3939 16.6668ZM12.729 18.66L11.4512 19.7796V18.9748H8.74748C8.74748 18.8519 8.74748 17.0944 8.74748 16.9732H11.5135C11.5135 16.9732 11.5135 16.4445 11.5135 16.2408L13.4613 18.027L12.729 18.66Z" fill="#333333"/>
<path d="M18.0068 16.2241C17.6561 16.2221 17.3126 16.3242 17.0199 16.5175C16.7272 16.7108 16.4984 16.9865 16.3625 17.3099C16.2266 17.6332 16.1896 17.9896 16.2564 18.334C16.3231 18.6783 16.4904 18.9952 16.7373 19.2444C16.9841 19.4936 17.2993 19.6639 17.643 19.7339C17.9867 19.8039 18.3435 19.7703 18.6681 19.6375C18.9927 19.5047 19.2706 19.2785 19.4667 18.9877C19.6627 18.6968 19.7681 18.3543 19.7694 18.0036C19.7705 17.771 19.7258 17.5405 19.6378 17.3252C19.5499 17.1099 19.4203 16.914 19.2567 16.7488C19.093 16.5836 18.8984 16.4522 18.6839 16.3622C18.4695 16.2721 18.2394 16.2252 18.0068 16.2241Z" fill="#333333"/>
</svg>
