<svg width="36" height="36" viewBox="0 0 36 36" fill="none" xmlns="http://www.w3.org/2000/svg">
<path d="M19 14.0002C19 14.5525 18.5522 15.0002 18 15.0002C17.4477 15.0002 17 14.5525 17 14.0002C17 13.4479 17.4477 13.0002 18 13.0002C18.5522 13.0002 19 13.4479 19 14.0002Z" fill="#333333"/>
<path fill-rule="evenodd" clip-rule="evenodd" d="M17.9999 6.2507V2.73193C20.5261 3.50921 25.5632 7.72466 25.6234 13.7655C25.6239 13.8018 25.6241 13.8382 25.6241 13.8747L29.1428 13.8748C28.3608 16.4161 24.0992 21.4988 18 21.4988L17.9999 25.0172C15.4586 24.2353 10.3761 19.9738 10.3759 13.8748H6.85729C7.63655 11.3422 11.8717 6.28563 17.9374 6.25098L17.9999 6.2507ZM11.5491 13.8747C11.5491 10.3119 14.4373 7.42365 18.0001 7.42365C21.563 7.42365 24.4512 10.3119 24.4512 13.8747C24.4512 17.4375 21.563 20.3258 18.0001 20.3258C14.4373 20.3258 11.5491 17.4375 11.5491 13.8747Z" fill="#333333"/>
<path fill-rule="evenodd" clip-rule="evenodd" d="M31 14C31 21.1797 25.1797 27 18 27C10.8203 27 5 21.1797 5 14C5 6.8203 10.8203 1 18 1C25.1797 1 31 6.8203 31 14ZM30 14C30 20.6274 24.6274 26 18 26C11.3726 26 6 20.6274 6 14C6 7.37258 11.3726 2 18 2C24.6274 2 30 7.37258 30 14Z" fill="#333333"/>
<path d="M22.6275 27.7154H23.9302V28.9248H22.6275V27.7154Z" fill="#333333"/>
<path d="M11.2736 35.0004H12.362L14.1684 28.8834H13.08L11.2736 35.0004Z" fill="#333333"/>
<path d="M9.25143 29.5138C8.94756 29.4992 8.64586 29.5721 8.38213 29.7238C8.11841 29.8754 7.90371 30.0995 7.76351 30.3695H7.74361V29.644H6.49756V34.593H7.80025V31.7549C7.80025 31.0018 8.24724 30.6114 8.82435 30.6114C9.65097 30.6114 9.67087 31.2237 9.67087 31.588V34.593H10.9736V31.1686C10.9736 30.0864 10.2189 29.5138 9.25143 29.5138Z" fill="#333333"/>
<path d="M18.516 30.2909C18.6869 30.0427 19.0508 29.5145 19.8278 29.5145C20.8029 29.5145 21.5499 30.087 21.5545 31.1692V34.5936H20.2518V31.5887C20.2518 30.8539 19.9258 30.612 19.5446 30.612C18.8925 30.612 18.6598 31.0391 18.6598 31.6254V34.5936H17.3525V31.6162C17.3525 31.1983 17.3525 30.612 16.5718 30.612C15.958 30.612 15.762 31.0391 15.762 31.5795V34.5936H14.4594V29.6446H15.7069V30.3702H15.7253C15.8474 30.1039 16.0462 29.8801 16.2963 29.7277C16.5464 29.5752 16.8364 29.501 17.129 29.5145C17.8454 29.5145 18.1715 29.7747 18.5067 30.3044L18.516 30.2909Z" fill="#333333"/>
<path d="M23.9302 29.6439H22.6275V34.5945H23.9302V29.6439Z" fill="#333333"/>
<path d="M27.7801 29.5138C27.4763 29.4994 27.1747 29.5723 26.911 29.724C26.6473 29.8756 26.4326 30.0996 26.2922 30.3695H26.2738V29.6439H25.0262V34.5929H26.3289V31.7549C26.3289 31.0017 26.7759 30.6114 27.353 30.6114C28.1812 30.6114 28.1996 31.2237 28.1996 31.588V34.5929H29.5023V31.1686C29.5023 30.0863 28.7491 29.5138 27.7801 29.5138Z" fill="#333333"/>
</svg>
