<svg width="36" height="36" viewBox="0 0 36 36" fill="none" xmlns="http://www.w3.org/2000/svg">
<path d="M18 15C18.5523 15 19 14.5523 19 14C19 13.4477 18.5523 13 18 13C17.4477 13 17 13.4477 17 14C17 14.5523 17.4477 15 18 15Z" fill="#333333"/>
<path fill-rule="evenodd" clip-rule="evenodd" d="M18.0001 1C20.9243 1.89974 26.7627 6.7898 26.8022 13.7935L26.8025 13.8648L30.865 13.8649C29.9622 16.799 25.0419 22.6671 18.0001 22.6671C13.1388 22.6671 9.19793 18.7262 9.19793 13.8648L5.13525 13.8649C6.03575 10.9382 10.9333 5.09247 17.9463 5.0627L18.0001 5.06254V1ZM18.0002 6.41674C13.8867 6.41674 10.5521 9.75136 10.5521 13.8648C10.5521 17.9783 13.8867 21.3129 18.0002 21.3129C22.1137 21.3129 25.4483 17.9783 25.4483 13.8648C25.4483 9.75136 22.1137 6.41674 18.0002 6.41674Z" fill="#333333"/>
<path d="M9.19793 13.8648C9.19793 18.7262 13.1388 22.6671 18.0001 22.6671V26.7297C15.066 25.8269 9.19793 20.9066 9.19793 13.8648Z" fill="#333333"/>
<path d="M23.9303 27.7153H22.6276V28.9246H23.9303V27.7153Z" fill="#333333"/>
<path d="M12.3621 35.0002H11.2737L13.08 28.8832H14.1684L12.3621 35.0002Z" fill="#333333"/>
<path d="M8.38218 29.7236C8.64591 29.5719 8.9476 29.4991 9.25148 29.5137C10.2189 29.5137 10.9736 30.0862 10.9736 31.1684V34.5928H9.67091V31.5879C9.67091 31.2235 9.65101 30.6112 8.82439 30.6112C8.24729 30.6112 7.8003 31.0016 7.8003 31.7547V34.5928H6.4976V29.6438H7.74366V30.3694H7.76356C7.90376 30.0994 8.11845 29.8752 8.38218 29.7236Z" fill="#333333"/>
<path d="M19.8278 29.5143C19.0508 29.5143 18.687 30.0426 18.5161 30.2907L18.5068 30.3042C18.1715 29.7745 17.8455 29.5143 17.1291 29.5143C16.8365 29.5008 16.5465 29.575 16.2964 29.7275C16.0462 29.88 15.8474 30.1037 15.7254 30.37H15.707V29.6444H14.4594V34.5934H15.7621V31.5793C15.7621 31.0389 15.958 30.6119 16.5719 30.6119C17.3526 30.6119 17.3526 31.1981 17.3526 31.6161V34.5934H18.6599V31.6252C18.6599 31.0389 18.8925 30.6119 19.5447 30.6119C19.9258 30.6119 20.2519 30.8537 20.2519 31.5885V34.5934H21.5546V31.1691C21.55 30.0868 20.803 29.5143 19.8278 29.5143Z" fill="#333333"/>
<path d="M22.6276 29.6437H23.9303V34.5943H22.6276V29.6437Z" fill="#333333"/>
<path d="M26.911 29.7238C27.1747 29.5721 27.4763 29.4992 27.7802 29.5136C28.7492 29.5136 29.5023 30.0861 29.5023 31.1684V34.5928H28.1996V31.5878C28.1996 31.2235 28.1812 30.6112 27.3531 30.6112C26.776 30.6112 26.329 31.0015 26.329 31.7547V34.5928H25.0263V29.6437H26.2739V30.3693H26.2923C26.4326 30.0994 26.6473 29.8754 26.911 29.7238Z" fill="#333333"/>
</svg>
