<svg width="36" height="36" viewBox="0 0 36 36" fill="none" xmlns="http://www.w3.org/2000/svg">
<path fill-rule="evenodd" clip-rule="evenodd" d="M33.7965 28.1558V4.24054C33.7826 3.80205 33.5986 3.38618 33.2836 3.08092C32.9684 2.77567 32.5469 2.60498 32.1082 2.60498C31.6695 2.60498 31.248 2.77567 30.9329 3.08092C30.6178 3.38618 30.4339 3.80205 30.4199 4.24054V28.1558C29.9231 28.513 29.5525 29.0186 29.3613 29.5999C29.17 30.1811 29.1681 30.8081 29.3558 31.3905C29.5435 31.9729 29.911 32.4808 30.4056 32.841C30.9002 33.2013 31.4963 33.3954 32.1082 33.3954C32.7201 33.3954 33.3163 33.2013 33.8109 32.841C34.3055 32.4808 34.673 31.9729 34.8607 31.3905C35.0484 30.8081 35.0464 30.1811 34.8552 29.5999C34.664 29.0186 34.2933 28.513 33.7965 28.1558ZM32.832 17.9749H31.3861V4.24054C31.3861 4.0488 31.4623 3.86491 31.5979 3.72933C31.7335 3.59376 31.9174 3.51759 32.1091 3.51759C32.3008 3.51759 32.4847 3.59376 32.6203 3.72933C32.7559 3.86491 32.832 4.0488 32.832 4.24054V17.9749Z" fill="#333333"/>
<path fill-rule="evenodd" clip-rule="evenodd" d="M14.9944 12L11.5363 17.9944C11.1851 18.6029 11.0001 19.2933 11 19.9961C10.9999 20.6989 11.1846 21.3893 11.5357 21.998C11.8867 22.6067 12.3917 23.1121 12.9998 23.4636C13.6079 23.815 14.2978 24 15 24C15.7022 24 16.3921 23.815 17.0002 23.4636C17.6083 23.1121 18.1133 22.6067 18.4643 21.998C18.8154 21.3893 19.0001 20.6989 19 19.9961C18.9999 19.2933 18.8149 18.6029 18.4637 17.9944L14.9944 12ZM14.9944 23.2032C14.4325 23.2032 13.8804 23.0551 13.3938 22.774C12.9071 22.4929 12.5029 22.0885 12.2218 21.6016C11.9407 21.1146 11.7925 20.5622 11.7922 19.9998C11.7919 19.4374 11.9395 18.8849 12.2201 18.3976L14.9944 13.5878L17.7687 18.392C18.0502 18.8791 18.1985 19.4319 18.1986 19.9946C18.1987 20.5573 18.0507 21.1101 17.7694 21.5973C17.4881 22.0846 17.0835 22.489 16.5963 22.77C16.1092 23.0509 15.5566 23.1984 14.9944 23.1976V23.2032Z" fill="#333333"/>
<path fill-rule="evenodd" clip-rule="evenodd" d="M4.73682 18L4.73691 18.0448C4.76175 26.2314 11.5852 31.9493 15 33V28.2633C15.0354 28.2633 15.0708 28.2631 15.1061 28.2628C23.2599 28.2042 28.9519 21.4063 30 18L25.2632 18C25.2632 9.78947 18.4211 4.05263 15 3V7.73684C6.78947 7.73684 1.05263 14.5789 0 18H4.73682ZM6.31576 18.0002C6.31576 13.204 10.2038 9.31594 15 9.31594C19.7961 9.31594 23.6842 13.204 23.6842 18.0002C23.6842 22.7963 19.7961 26.6844 15 26.6844C10.2038 26.6844 6.31576 22.7963 6.31576 18.0002Z" fill="#333333"/>
</svg>
