<svg width="36" height="36" viewBox="0 0 36 36" fill="none" xmlns="http://www.w3.org/2000/svg">
<path d="M15.226 10.7197L11.0363 17.9764C10.6107 18.7131 10.3866 19.5489 10.3865 20.3997C10.3863 21.2505 10.6102 22.0863 11.0355 22.8232C11.4608 23.56 12.0726 24.1719 12.8094 24.5974C13.5462 25.0228 14.382 25.2468 15.2328 25.2468C16.0836 25.2468 16.9194 25.0228 17.6562 24.5974C18.393 24.1719 19.0048 23.56 19.4301 22.8232C19.8554 22.0863 20.0793 21.2505 20.0791 20.3997C20.079 19.5489 19.8549 18.7131 19.4293 17.9764L15.226 10.7197ZM15.226 24.2822C14.5452 24.2822 13.8764 24.103 13.2867 23.7626C12.6971 23.4223 12.2074 22.9328 11.8668 22.3433C11.5262 21.7538 11.3467 21.085 11.3463 20.4042C11.3459 19.7234 11.5247 19.0545 11.8647 18.4646L15.226 12.6419L18.5873 18.4578C18.9283 19.0475 19.108 19.7167 19.1081 20.3979C19.1083 21.0791 18.9289 21.7483 18.5881 22.3382C18.2473 22.928 17.7571 23.4176 17.1669 23.7577C16.5766 24.0978 15.9072 24.2764 15.226 24.2754V24.2822Z" fill="#333333"/>
<path d="M33.7965 28.1555V4.24029C33.7826 3.8018 33.5986 3.38593 33.2835 3.08068C32.9684 2.77542 32.5469 2.60474 32.1082 2.60474C31.6695 2.60474 31.248 2.77542 30.9329 3.08068C30.6178 3.38593 30.4339 3.8018 30.4199 4.24029V28.1555C29.9231 28.5128 29.5525 29.0184 29.3613 29.5996C29.17 30.1809 29.1681 30.8078 29.3558 31.3902C29.5435 31.9726 29.911 32.4805 30.4056 32.8408C30.9002 33.2011 31.4963 33.3952 32.1082 33.3952C32.7201 33.3952 33.3163 33.2011 33.8109 32.8408C34.3055 32.4805 34.673 31.9726 34.8607 31.3902C35.0484 30.8078 35.0464 30.1809 34.8552 29.5996C34.664 29.0184 34.2933 28.5128 33.7965 28.1555ZM32.832 17.9747H31.3861V4.24029C31.3861 4.04856 31.4623 3.86467 31.5979 3.72909C31.7335 3.59351 31.9174 3.51734 32.1091 3.51734C32.3008 3.51734 32.4847 3.59351 32.6203 3.72909C32.7559 3.86467 32.832 4.04856 32.832 4.24029V17.9747Z" fill="#333333"/>
<path d="M26.6861 19.5943L29.4605 18.9394V17.0138L26.6861 16.3571C26.5939 15.7146 26.4488 15.0808 26.2523 14.4622L28.4637 12.6709L27.625 10.9342L24.8421 11.5465C24.482 11.012 24.0786 10.508 23.636 10.0394L24.854 7.46569L23.3452 6.26304L21.1032 8.02024C20.5458 7.68813 19.9614 7.40361 19.3562 7.16971L19.3358 4.32213L17.4544 3.90196L16.199 6.46717C15.8758 6.43995 15.5526 6.42634 15.2277 6.42634C14.9028 6.42634 14.5813 6.43995 14.2581 6.46717L13.0027 3.91557L11.123 4.33063L11.1009 7.17821C10.4962 7.40916 9.91182 7.69024 9.35392 8.01854L7.11192 6.25964L5.60308 7.46059L6.82104 10.0394C6.37655 10.5096 5.972 11.016 5.61158 11.5533L2.82864 10.941L1.99172 12.676L4.2065 14.4622C4.01083 15.0792 3.86632 15.7113 3.77443 16.352L1 17.0138V18.9394L3.77443 19.5943C3.90712 20.2271 4.05114 20.857 4.2065 21.4842L1.99512 23.2754L2.82864 25.0088L5.61158 24.3947C5.97199 24.9326 6.37654 25.4395 6.82104 25.9103L5.60308 28.4857L7.11192 29.6867L9.35392 27.9278C9.91196 28.2563 10.4963 28.5379 11.1009 28.7698L11.1213 31.6174L13.0027 32.0461L14.2598 29.4945C14.5813 29.5217 14.9045 29.5353 15.2277 29.5353C15.5509 29.5353 15.8758 29.5217 16.199 29.4945L17.4527 32.0461L19.3341 31.6174L19.3562 28.7698C19.9612 28.5396 20.5456 28.2584 21.1032 27.9295L23.3452 29.6901L24.8523 28.4891L23.636 25.912C24.0815 25.442 24.4861 24.935 24.8455 24.3964L27.6284 25.0088L28.4654 23.272L26.254 21.4808C26.4493 20.8648 26.5938 20.2338 26.6861 19.5943ZM15.2532 27.6233C13.3485 27.6219 11.487 27.0559 9.90396 25.9967C8.32094 24.9375 7.08751 23.4327 6.35963 21.6725C5.63174 19.9124 5.44208 17.976 5.81461 16.1081C6.18715 14.2402 7.10516 12.5247 8.45258 11.1784C9.8 9.83219 11.5163 8.9157 13.3846 8.54481C15.2528 8.17393 17.1891 8.3653 18.9485 9.09474C20.708 9.82418 22.2117 11.0589 23.2695 12.6429C24.3274 14.2268 24.8918 16.0889 24.8914 17.9936C24.8896 20.549 23.8729 22.9992 22.0648 24.805C20.2566 26.6109 17.8053 27.6246 15.2498 27.6233H15.2532Z" fill="#333333"/>
</svg>
