<svg width="36" height="36" viewBox="0 0 36 36" fill="none" xmlns="http://www.w3.org/2000/svg">
<path d="M4.72835 16.411H1V19.5857H4.72835V21.5266L8.24868 18.0063L4.72835 14.486V16.411ZM5.64044 16.6654L6.97656 18.0031L5.64044 19.3376V18.6784H1.90729V17.3182H5.64044V16.6654Z" fill="#333333"/>
<path d="M29.1978 13.6124L28.4105 11.9786L26.1063 12.5803C25.8027 12.126 25.4618 11.6978 25.087 11.3002L26.1879 9.18638L24.7701 8.05508L22.9524 9.59762C22.4826 9.32122 21.9907 9.08412 21.4818 8.88875L21.5554 6.50773L19.7857 6.10449L18.8256 8.2823C18.5536 8.2599 18.2815 8.24709 18.0079 8.24709C17.7343 8.24709 17.4623 8.2599 17.1902 8.2823L16.2189 6.10449L14.4588 6.50773L14.5308 8.89035C14.0211 9.08495 13.5286 9.32207 13.0586 9.59922L11.2409 8.05508L9.82314 9.18638L10.9208 11.3018C10.5456 11.699 10.2046 12.1272 9.90155 12.5819L7.59413 11.977L6.80686 13.6124L8.71424 15.0397C8.10128 16.9657 8.10128 19.0344 8.71424 20.9603L6.80686 22.3876L7.59253 24.0262L9.89835 23.4261C10.2022 23.8802 10.5432 24.3084 10.9176 24.7062L9.81834 26.8104L11.2409 27.9417L13.057 26.3992C13.5267 26.677 14.0192 26.9141 14.5292 27.1081L14.454 29.4907L16.2141 29.8939L17.1822 27.7161C17.4543 27.7385 17.7263 27.7513 17.9983 27.7513C18.2703 27.7513 18.544 27.7385 18.816 27.7161L19.7761 29.8955L21.5362 29.4907L21.4818 27.1081C21.9917 26.9138 22.4842 26.6767 22.954 26.3992L24.7701 27.9433L26.1879 26.812L25.0886 24.6966C25.4634 24.2991 25.8043 23.8709 26.1079 23.4165L28.4105 24.0262L29.1978 22.3908L27.2904 20.9587C27.9033 19.0328 27.9033 16.9641 27.2904 15.0381L29.1978 13.6124ZM17.9839 25.9C16.414 25.9006 14.8792 25.4356 13.5736 24.5639C12.268 23.6922 11.2502 22.4529 10.649 21.0027C10.0478 19.5525 9.89019 17.9566 10.1961 16.4168C10.502 14.877 11.2576 13.4625 12.3674 12.3522C13.4773 11.2419 14.8915 10.4857 16.4312 10.1792C17.9708 9.8727 19.5668 10.0297 21.0172 10.6303C22.4677 11.2309 23.7074 12.2482 24.5797 13.5535C25.4519 14.8587 25.9175 16.3933 25.9175 17.9632C25.917 20.0675 25.0811 22.0855 23.5935 23.5737C22.1059 25.062 20.0882 25.8987 17.9839 25.9Z" fill="#333333"/>
<path d="M18 11.1643L14.0556 18.0001C13.6557 18.6927 13.4452 19.4783 13.4452 20.278C13.4451 21.0777 13.6556 21.8633 14.0555 22.5559C14.4553 23.2484 15.0304 23.8235 15.7229 24.2234C16.4155 24.6233 17.2011 24.8338 18.0008 24.8338C18.8005 24.8338 19.5861 24.6233 20.2787 24.2234C20.9712 23.8235 21.5463 23.2484 21.9462 22.5559C22.346 21.8633 22.5565 21.0777 22.5564 20.278C22.5564 19.4783 22.3459 18.6927 21.946 18.0001L18 11.1643ZM18 23.9303C17.3594 23.9294 16.7303 23.7602 16.1757 23.4394C15.6212 23.1186 15.1607 22.6577 14.8406 22.1028C14.5204 21.5479 14.3518 20.9186 14.3517 20.278C14.3515 19.6374 14.5198 19.008 14.8397 18.453L18 12.9853L21.1619 18.453C21.4823 19.0079 21.651 19.6374 21.6511 20.2782C21.6512 20.919 21.4827 21.5486 21.1624 22.1036C20.8422 22.6587 20.3815 23.1197 19.8267 23.4403C19.2718 23.7609 18.6424 23.9299 18.0016 23.9303H18Z" fill="#333333"/>
<path d="M31.2733 16.4111V14.4717L27.753 17.992L31.2733 21.5123V19.5858H35V16.4111H31.2733ZM34.0944 18.6785H30.366V19.3377L29.0283 17.9984L30.366 16.6655V17.3231H34.0944V18.6785Z" fill="#333333"/>
</svg>
