<svg width="36" height="36" viewBox="0 0 36 36" fill="none" xmlns="http://www.w3.org/2000/svg">
<path d="M28.5632 1H27.6444V20.2943H28.5632V1Z" fill="#333333"/>
<path d="M34.7736 10.4716L31.0177 6.56788L34.8379 2.73547L34.1389 2.0382L29.6162 6.56093L34.0624 11.1584L34.7736 10.4716Z" fill="#333333"/>
<path fill-rule="evenodd" clip-rule="evenodd" d="M25.8808 4.14777L25.8808 20.0715H21.8999V4.14777L25.8808 4.14777Z" fill="#333333"/>
<path fill-rule="evenodd" clip-rule="evenodd" d="M19.9094 4.14777L19.9094 20.0715H15.9285L15.9285 4.14777L19.9094 4.14777Z" fill="#333333"/>
<path fill-rule="evenodd" clip-rule="evenodd" d="M13.938 4.14777L13.938 20.0715H9.9571L9.9571 4.14777L13.938 4.14777Z" fill="#333333"/>
<path d="M8.34972 1H7.43095V20.2943H8.34972V1Z" fill="#333333"/>
<path d="M1.06434 10.4716L1.77552 11.1584L6.22175 6.56093L1.69901 2.0382L1 2.73547L4.82024 6.56789L1.06434 10.4716Z" fill="#333333"/>
<path fill-rule="evenodd" clip-rule="evenodd" d="M28.5628 25.2097L7.43095 25.2097V22.729L28.5628 22.729V25.2097Z" fill="#333333"/>
<path d="M14.9416 35H15.7586L15.3596 28.597H14.3051L13.1651 31.694C12.8801 32.5015 12.6521 33.2045 12.4811 33.8505H12.4621C12.2911 33.1855 12.0821 32.4825 11.8161 31.694L10.7236 28.597H9.66913L9.22263 35H10.0111L10.1821 32.2545C10.2391 31.2855 10.2866 30.2215 10.3056 29.4235H10.3246C10.5051 30.1835 10.7521 31.0005 11.0561 31.9125L12.1011 34.962H12.7281L13.8586 31.8555C14.1816 30.972 14.4381 30.1645 14.6661 29.4235H14.6851C14.6851 30.212 14.7421 31.295 14.7896 32.188L14.9416 35Z" fill="#333333"/>
<path d="M20.2421 32.986L20.9261 35H21.8096L19.6246 28.597H18.6366L16.4516 35H17.3066L17.9716 32.986H20.2421ZM18.1426 32.34L18.7696 30.4875C18.9026 30.098 18.9976 29.699 19.0926 29.3285H19.1116C19.2066 29.699 19.3016 30.079 19.4441 30.497L20.0806 32.34H18.1426Z" fill="#333333"/>
<path d="M27.0881 35L25.0931 31.713L27.0406 28.597H26.0811L25.2166 30.098C24.9791 30.5065 24.8176 30.801 24.6371 31.181H24.6086C24.4376 30.839 24.2571 30.516 24.0196 30.098L23.1741 28.597H22.2146L24.0956 31.7605L22.1386 35H23.0886L23.8581 33.594C24.1811 33.0335 24.3711 32.6915 24.5516 32.321H24.5706C24.7701 32.6915 24.9696 33.043 25.3021 33.5845L26.1286 35H27.0881Z" fill="#333333"/>
</svg>
