<svg width="36" height="36" viewBox="0 0 36 36" fill="none" xmlns="http://www.w3.org/2000/svg">
<path d="M17.0421 30.6905H10.3427V32.6063H17.0421V30.6905Z" fill="#333333"/>
<path d="M4.60029 28.2957H2.68787V35.0002H4.60029V32.6067H8.42852V30.6909H4.60029V28.2957Z" fill="#333333"/>
<path d="M25.6555 30.6905H18.9561V32.6063H25.6555V30.6905Z" fill="#333333"/>
<path d="M27.5393 21.3683L30.3008 21.9776L31.1312 20.2525L28.9369 18.4701C29.13 17.8575 29.2706 17.2296 29.3572 16.5931L32.1102 15.9433V14.0275L29.3572 13.3776C29.2678 12.7404 29.1244 12.1119 28.9285 11.4989L31.1228 9.71985L30.2923 7.9931L27.5393 8.59569C27.1828 8.06061 26.7813 7.55691 26.3392 7.09006L27.5477 4.54466L26.0522 3.35129L23.8275 5.09155C23.2452 4.78434 22.6662 4.47207 22.0924 4.14968L22.0721 1.42536L20.2069 1L18.9612 3.54034C18.6405 3.51333 18.3198 3.49983 17.9991 3.49983C17.6784 3.49983 17.3577 3.51333 17.037 3.54034L15.7913 1L13.9245 1.42536L13.9025 4.25602C13.3026 4.4861 12.7227 4.76556 12.169 5.09155L9.946 3.34285L8.4488 4.54466L9.65736 7.10356C9.21627 7.56648 8.81482 8.06561 8.45724 8.59569L5.69579 7.9931L4.86532 9.71817L7.05963 11.4989C6.86528 12.1123 6.72189 12.7406 6.6309 13.3776L3.88295 14.0275V15.9416L6.63428 16.5931C6.72545 17.2295 6.86885 17.8573 7.06301 18.4701L4.8687 20.2509L5.69916 21.9759L8.46062 21.3683C8.81781 21.9023 9.21927 22.4054 9.66074 22.8722L8.45218 25.4311L9.946 26.6262L12.1707 24.8792C12.7248 25.2055 13.3052 25.485 13.9059 25.7147L13.9261 28.5437L15.7913 28.9707L17.0353 26.4287C17.356 26.4557 17.6767 26.4692 17.9991 26.4692C18.3215 26.4692 18.6405 26.4557 18.9612 26.4287L20.2052 28.9707L22.0721 28.5437L22.0924 25.7147C22.6928 25.4846 23.2732 25.2052 23.8275 24.8792L26.0506 26.6262L27.5477 25.4328L26.3392 22.8722C26.7817 22.4063 27.1832 21.9031 27.5393 21.3683ZM18.0109 24.5331C16.1176 24.5348 14.2664 23.9749 12.6913 22.9242C11.1163 21.8735 9.88832 20.3793 9.1627 18.6305C8.43708 16.8818 8.24645 14.9571 8.61491 13.1C8.98338 11.2429 9.89439 9.53679 11.2327 8.19755C12.571 6.8583 14.2764 5.94609 16.1333 5.57631C17.9901 5.20653 19.915 5.39581 21.6642 6.12019C23.4135 6.84458 24.9086 8.07152 25.9604 9.6458C27.0122 11.2201 27.5734 13.0709 27.5731 14.9643C27.5726 17.5008 26.5653 19.9334 24.7723 21.7276C22.9793 23.5218 20.5475 24.5309 18.0109 24.5331Z" fill="#333333"/>
<path d="M31.3979 28.2957V30.6909H27.5697V32.6067H31.3979V35.0002H33.312V28.2957H31.3979Z" fill="#333333"/>
<path d="M17.9957 7.76883L13.8282 14.9864C13.4056 15.7174 13.1829 16.5468 13.1826 17.3912C13.1822 18.2356 13.4042 19.0651 13.8262 19.7965C14.2482 20.5279 14.8553 21.1353 15.5865 21.5575C16.3176 21.9798 17.1471 22.2022 17.9915 22.2022C18.8359 22.2022 19.6654 21.9798 20.3966 21.5575C21.1277 21.1353 21.7349 20.5279 22.1568 19.7965C22.5788 19.0651 22.8008 18.2356 22.8004 17.3912C22.8001 16.5468 22.5774 15.7174 22.1548 14.9864L17.9957 7.76883ZM17.9957 21.2453C17.3195 21.2451 16.6553 21.0668 16.0698 20.7285C15.4843 20.3902 14.9982 19.9037 14.6603 19.318C14.3224 18.7322 14.1447 18.0679 14.145 17.3917C14.1453 16.7154 14.3237 16.0512 14.6621 15.4658L17.9957 9.68463L21.3311 15.4658C21.6695 16.0514 21.8479 16.7157 21.8481 17.3921C21.8483 18.0684 21.6705 18.7329 21.3324 19.3187C20.9943 19.9045 20.508 20.391 19.9223 20.7292C19.3365 21.0674 18.6721 21.2454 17.9957 21.2453Z" fill="#333333"/>
</svg>
