<svg width="36" height="36" viewBox="0 0 36 36" fill="none" xmlns="http://www.w3.org/2000/svg">
<path d="M35 19.1539V16.8438L31.6845 16.0623C31.5764 15.2961 31.4042 14.5404 31.1695 13.8031L33.8154 11.6599L32.8141 9.58385L29.4945 10.3308C29.0646 9.68744 28.5812 9.08148 28.0494 8.51937L29.4945 5.42976L27.6912 3.99283L25.0168 6.09735C24.3499 5.70332 23.6506 5.36695 22.9265 5.0919L22.9021 1.68478L20.6591 1.17188L19.1591 4.22485C18.7738 4.19229 18.387 4.17601 17.999 4.17601C17.6123 4.17601 17.2256 4.19229 16.8409 4.22485L15.3409 1.17188L13.102 1.68478L13.0755 5.0919C12.3478 5.3675 11.6445 5.70384 10.9731 6.09735L8.30069 3.99283L6.49536 5.42976L7.95061 8.5092C7.41824 9.07078 6.93479 9.67679 6.50554 10.3206L3.1839 9.58588L2.18252 11.6639L4.82843 13.8071C4.59285 14.5442 4.42058 15.3 4.3135 16.0663L1 16.8438V19.1519L4.31553 19.9355C4.42289 20.7011 4.59515 21.4562 4.83047 22.1926L2.18456 24.3358L3.1839 26.4098L6.50961 25.6791C6.94002 26.3221 7.42339 26.9281 7.95468 27.4906L6.49536 30.57L8.29865 32.009L10.9731 29.9045C11.6388 30.2981 12.3367 30.6344 13.0593 30.9099L13.0837 34.315L15.3225 34.8279L16.8226 31.7749C17.2072 31.8055 17.594 31.8217 17.9807 31.8217C18.3674 31.8217 18.7561 31.8055 19.1408 31.7749L20.6388 34.8279L22.8776 34.315L22.9061 30.9099C23.6369 30.6352 24.343 30.2988 25.0168 29.9045L27.6932 32.009L29.4965 30.5721L28.0412 27.4926C28.573 26.9305 29.0564 26.3246 29.4863 25.6812L32.8161 26.4098L33.8175 24.3318L31.1716 22.1886C31.4062 21.4513 31.5785 20.6955 31.6865 19.9294L35 19.1539ZM18.0051 29.4913C15.7276 29.4909 13.5013 28.8152 11.6078 27.5495C9.71429 26.2839 8.23859 24.4853 7.3673 22.381C6.496 20.2767 6.26824 17.9613 6.71281 15.7276C7.15738 13.4939 8.25432 11.4421 9.86492 9.83182C11.4755 8.22151 13.5274 7.12493 15.7612 6.68076C17.995 6.23658 20.3104 6.46475 22.4145 7.33642C24.5186 8.20808 26.317 9.6841 27.5823 11.5778C28.8476 13.4715 29.523 15.6979 29.523 17.9755C29.5219 21.0297 28.308 23.9585 26.1481 26.1179C23.9883 28.2774 21.0593 29.4908 18.0051 29.4913Z" fill="#333333"/>
<path d="M18.1394 9.3131L12.9188 18.3499C12.4573 19.2578 12.2407 20.2705 12.2905 21.2877C12.3403 22.305 12.6548 23.2916 13.2028 24.1501C13.7508 25.0085 14.5134 25.7091 15.4152 26.1825C16.317 26.6559 17.3267 26.8858 18.3445 26.8493C19.3623 26.8128 20.353 26.5114 21.2186 25.9747C22.0842 25.438 22.7947 24.6847 23.2799 23.7892C23.7651 22.8937 24.0082 21.8871 23.9851 20.8689C23.962 19.8507 23.6736 18.8561 23.1483 17.9836L18.1394 9.3131ZM18.1394 25.8786C17.3201 25.879 16.5146 25.6678 15.801 25.2654C15.0874 24.8629 14.4899 24.2829 14.0665 23.5816C13.643 22.8802 13.408 22.0814 13.3841 21.2625C13.3603 20.4436 13.5484 19.6324 13.9303 18.9076L18.1394 11.615L22.1673 18.5799C22.6219 19.2992 22.8751 20.1274 22.9005 20.978C22.926 21.8285 22.7226 22.6703 22.3118 23.4155C21.9009 24.1607 21.2976 24.782 20.5648 25.2145C19.8319 25.6471 18.9964 25.875 18.1455 25.8745L18.1394 25.8786Z" fill="#333333"/>
</svg>
