<svg width="36" height="36" viewBox="0 0 36 36" fill="none" xmlns="http://www.w3.org/2000/svg">
<path d="M35 18.9336V17.0579L32.3014 16.4205C32.2134 15.7966 32.0727 15.1813 31.8809 14.5812L34.0331 12.8379L33.2186 11.1476L30.5135 11.7486C30.1643 11.2238 29.7711 10.7298 29.338 10.2718L30.5234 7.76696L29.0566 6.59814L26.8762 8.30667C26.3318 7.98656 25.7614 7.71298 25.171 7.48883L25.1511 4.71578L23.3267 4.29858L22.1049 6.78191C21.792 6.75542 21.4758 6.74217 21.1613 6.74217C20.8467 6.74217 20.5321 6.75542 20.2192 6.78191L18.9975 4.29858L17.1763 4.71578L17.1548 7.48883C16.567 7.71393 15.9988 7.98748 15.4562 8.30667L13.2676 6.59483L11.8008 7.76365L12.9845 10.2701C12.5514 10.7286 12.1581 11.2232 11.8091 11.7486L9.10224 11.1476L8.2844 12.8379L10.4366 14.5829C9.72912 16.8031 9.72912 19.1884 10.4366 21.4087L8.2844 23.1536L9.09727 24.8439L11.8057 24.2463C12.1558 24.7704 12.549 25.2643 12.9812 25.723L11.7975 28.2279L13.2643 29.3984L15.4446 27.6849C15.9873 28.0078 16.556 28.2846 17.1449 28.5126L17.1681 31.284C17.7751 31.433 18.3821 31.5721 18.9892 31.7012L20.211 29.2179C20.5255 29.2444 20.8401 29.2576 21.1546 29.2576C21.4692 29.2576 21.7854 29.2444 22.0983 29.2179L23.3201 31.7012C23.931 31.5638 24.5386 31.4247 25.1412 31.284L25.1627 28.5126C25.7516 28.2846 26.3203 28.0078 26.863 27.6849L29.0417 29.3984L30.5085 28.2295L29.3248 25.723C29.7574 25.2653 30.1506 24.7719 30.5002 24.2479L33.2087 24.8456L34.0232 23.1553L31.871 21.4103C32.063 20.8102 32.2037 20.1949 32.2915 19.571L35 18.9336ZM21.1762 27.3985C19.3225 27.3985 17.5105 26.8488 15.9693 25.819C14.4281 24.7892 13.2268 23.3254 12.5175 21.6129C11.8082 19.9004 11.6226 18.016 11.9842 16.198C12.3458 14.38 13.2384 12.7101 14.5491 11.3993C15.8598 10.0886 17.5298 9.19604 19.3478 8.83441C21.1658 8.47279 23.0502 8.65839 24.7627 9.36774C26.4752 10.0771 27.9389 11.2783 28.9687 12.8196C29.9986 14.3608 30.5482 16.1728 30.5482 18.0264C30.5473 20.5117 29.5596 22.8951 27.8022 24.6525C26.0448 26.4099 23.6615 27.3976 21.1762 27.3985Z" fill="#333333"/>
<path d="M21.1596 10.9291L17.0787 17.9966C16.6649 18.7131 16.4471 19.5259 16.4471 20.3533C16.447 21.1807 16.6648 21.9935 17.0785 22.7101C17.4921 23.4266 18.0872 24.0216 18.8037 24.4353C19.5202 24.849 20.333 25.0668 21.1604 25.0668C21.9878 25.0668 22.8006 24.849 23.5171 24.4353C24.2337 24.0216 24.8287 23.4266 25.2424 22.7101C25.656 21.9935 25.8738 21.1807 25.8738 20.3533C25.8737 19.5259 25.6559 18.7131 25.2422 17.9966L21.1596 10.9291ZM21.1596 24.1288C20.4964 24.13 19.8447 23.9564 19.27 23.6255C18.6953 23.2946 18.218 22.8181 17.8861 22.244C17.5543 21.6699 17.3796 21.0185 17.3796 20.3553C17.3797 19.6922 17.5546 19.0408 17.8866 18.4668L21.1546 12.8048L24.4243 18.4668C24.7551 19.0407 24.9291 19.6916 24.9288 20.3541C24.9285 21.0165 24.754 21.6673 24.4227 22.2409C24.0914 22.8146 23.615 23.291 23.0414 23.6224C22.4678 23.9538 21.8171 24.1284 21.1546 24.1288H21.1596Z" fill="#333333"/>
<path d="M1.93704 10.3761H1V22.8706L9.91182 17.9966L1.93704 13.6343V10.3761ZM7.9533 17.9966L1.93704 21.2879V14.7054L7.9533 17.9966Z" fill="#333333"/>
</svg>
