<svg width="36" height="36" viewBox="0 0 36 36" fill="none" xmlns="http://www.w3.org/2000/svg">
<path d="M18.0051 25.4941C17.7201 25.4941 17.4415 25.5786 17.2045 25.7369C16.9675 25.8953 16.7828 26.1203 16.6738 26.3836C16.5647 26.6469 16.5362 26.9367 16.5918 27.2162C16.6474 27.4957 16.7846 27.7525 16.9861 27.954C17.1877 28.1556 17.4444 28.2928 17.724 28.3484C18.0035 28.404 18.2932 28.3755 18.5565 28.2664C18.8198 28.1573 19.0449 27.9726 19.2032 27.7357C19.3616 27.4987 19.4461 27.2201 19.4461 26.9351C19.4456 26.5531 19.2936 26.1869 19.0234 25.9167C18.7533 25.6466 18.3871 25.4946 18.0051 25.4941Z" fill="#333333"/>
<path d="M17.999 7.62804C17.4644 7.62858 16.9519 7.84132 16.5741 8.21952C16.1963 8.59773 15.9841 9.11045 15.9841 9.64504V9.7407L16.5601 21.8142C16.5741 22.1867 16.7319 22.5394 17.0004 22.798C17.2689 23.0566 17.6272 23.2011 18 23.2011C18.3728 23.2011 18.7311 23.0566 18.9997 22.798C19.2682 22.5394 19.426 22.1867 19.44 21.8142L20.014 9.7407C20.014 9.71017 20.014 9.6776 20.014 9.64504C20.014 9.11045 19.8018 8.59773 19.4239 8.21952C19.0461 7.84132 18.5336 7.62858 17.999 7.62804Z" fill="#333333"/>
<path d="M35 19.1519V16.8438L31.6845 16.0602C31.5762 15.2948 31.4039 14.5398 31.1695 13.8031L33.8154 11.6599L32.8141 9.58181L29.4945 10.3308C29.0641 9.68716 28.5807 9.08056 28.0494 8.51734L29.4945 5.42976L27.6912 3.99283L25.0168 6.09531C24.3494 5.70274 23.6502 5.36708 22.9265 5.0919L22.9021 1.68478L20.6591 1.17188L19.1591 4.22485C18.7744 4.19229 18.3877 4.17804 17.999 4.17804C17.6102 4.17804 17.2256 4.19229 16.8409 4.22485L15.3409 1.17188L13.102 1.68478L13.0755 5.0919C12.347 5.3658 11.6436 5.7022 10.9731 6.09735L8.30069 3.99283L6.49536 5.42976L7.95061 8.5092C7.41824 9.07078 6.93479 9.67679 6.50554 10.3206L3.1839 9.58588L2.18252 11.6619L4.82843 13.8071C4.59312 14.5436 4.42085 15.2987 4.3135 16.0643L1 16.8438V19.1519L4.31553 19.9355C4.42289 20.7011 4.59515 21.4562 4.83047 22.1926L2.18456 24.3358L3.1839 26.4098L6.50961 25.6791C6.94002 26.3221 7.42339 26.9281 7.95468 27.4906L6.49536 30.57L8.29865 32.009L10.9731 29.9045C11.6388 30.2981 12.3367 30.6344 13.0593 30.9099L13.0837 34.315L15.3225 34.8279L16.8226 31.7749C17.2072 31.8075 17.594 31.8238 17.9807 31.8238C18.3674 31.8238 18.7561 31.8075 19.1408 31.7749L20.6388 34.8279L22.8776 34.315L22.9061 30.9079C23.6368 30.6338 24.3429 30.2982 25.0168 29.9045L27.6932 32.009L29.4965 30.57L28.0412 27.4926C28.573 26.9305 29.0564 26.3246 29.4863 25.6812L32.812 26.4139L33.8134 24.3379L31.1675 22.1947C31.4021 21.4574 31.5744 20.7016 31.6824 19.9355L35 19.1519ZM18.0051 29.4913C15.7276 29.4909 13.5013 28.8152 11.6078 27.5495C9.71429 26.2839 8.23859 24.4853 7.3673 22.381C6.496 20.2767 6.26824 17.9613 6.71281 15.7276C7.15738 13.4939 8.25432 11.4421 9.86492 9.83182C11.4755 8.22151 13.5274 7.12493 15.7612 6.68076C17.995 6.23658 20.3104 6.46475 22.4145 7.33642C24.5186 8.20808 26.317 9.6841 27.5823 11.5778C28.8476 13.4715 29.523 15.6979 29.523 17.9755C29.5219 21.0297 28.308 23.9585 26.1481 26.1179C23.9883 28.2774 21.0593 29.4908 18.0051 29.4913Z" fill="#333333"/>
</svg>
