<svg width="36" height="36" viewBox="0 0 36 36" fill="none" xmlns="http://www.w3.org/2000/svg">
<path d="M11.5712 22.7152H5.42917L10.369 16.9565L6.55438 12.031H10.8546C12.9276 12.031 13.2824 13.434 13.492 14.2295H13.8826L13.5941 10.5923H2.74874L7.64734 16.9046L1 24.6825H13.9507L14.7247 20.3823H14.3054C13.6783 22.4213 12.9025 22.7152 11.5712 22.7152Z" fill="#333333"/>
<path d="M17.2635 9.13181V13.1041L21.234 9.13181H17.2635Z" fill="#333333"/>
<path d="M35 26.8681V22.9083L31.0474 26.8681H35Z" fill="#333333"/>
<path d="M27.1003 26.8681L35.0001 18.9594V15.0337L23.1746 26.8681H27.1003Z" fill="#333333"/>
<path d="M33.0326 9.13181L17.2635 24.9027V26.8682H19.2165L34.9999 11.0866V9.13181H33.0326Z" fill="#333333"/>
<path d="M25.1579 9.13181L17.2635 17.0298V20.977L29.1051 9.13181H25.1579Z" fill="#333333"/>
</svg>
