<svg width="36" height="36" viewBox="0 0 36 36" fill="none" xmlns="http://www.w3.org/2000/svg">
<path fill-rule="evenodd" clip-rule="evenodd" d="M18 1C21.8772 2.19298 29.6316 8.69474 29.6316 18H35C33.807 21.8772 27.3053 29.6316 18 29.6316V35C14.1294 33.8091 6.39492 27.3275 6.3685 18.0477L6.36842 18H1C2.18849 14.1374 8.64579 6.42683 17.8949 6.36875C17.9299 6.36844 17.9649 6.36828 18 6.36828V1ZM18 8.15776C12.5643 8.15776 8.15787 12.5642 8.15787 17.9999C8.15787 23.4355 12.5643 27.842 18 27.842C23.4356 27.842 27.8421 23.4355 27.8421 17.9999C27.8421 12.5642 23.4356 8.15776 18 8.15776ZM19.4412 17.9977C19.4412 18.7809 18.8054 19.4158 18.0211 19.4158C17.2367 19.4158 16.6009 18.7809 16.6009 17.9977C16.6009 17.2145 17.2367 16.5795 18.0211 16.5795C18.8054 16.5795 19.4412 17.2145 19.4412 17.9977Z" fill="#333333"/>
</svg>
