<svg width="36" height="36" viewBox="0 0 36 36" fill="none" xmlns="http://www.w3.org/2000/svg">
<path d="M8.15315 15.9177C8.41376 17.0423 8.86749 18.1132 9.49416 19.0828L7.88995 21.3317C8.07656 21.4911 8.27603 21.6349 8.48632 21.7615C9.09135 22.1542 9.78037 22.3988 10.4976 22.4755C11.2148 22.5522 11.9399 22.4588 12.6143 22.2029C13.6065 22.8262 14.7003 23.2705 15.846 23.5156L16.3125 26.2176C16.5573 26.1981 16.8002 26.1591 17.0388 26.101C17.7449 25.9509 18.406 25.6373 18.969 25.1854C19.532 24.7335 19.9812 24.1559 20.2805 23.499C21.4249 23.2368 22.5139 22.7743 23.4973 22.133L25.7229 23.7189C25.8814 23.5315 26.0251 23.3321 26.1527 23.1225C26.5517 22.511 26.8012 21.8141 26.8808 21.0882C26.9604 20.3624 26.8679 19.628 26.6108 18.9445C27.2144 17.9641 27.647 16.8882 27.8901 15.7628L30.6088 15.2963C30.5884 15.0522 30.5494 14.8099 30.4922 14.5717C30.3419 13.8513 30.0216 13.1773 29.558 12.6059C29.0943 12.0344 28.5008 11.5821 27.8268 11.2866C27.5662 10.1786 27.1201 9.12253 26.5075 8.16316L28.1084 5.88927C27.4548 5.33759 26.6677 4.96734 25.826 4.8156C24.9843 4.66387 24.1175 4.73597 23.3124 5.02469C22.3419 4.43409 21.2794 4.01011 20.1689 3.77031L19.6858 1C18.8327 1.07249 18.0138 1.3688 17.3118 1.85902C16.6099 2.34923 16.0497 3.01599 15.6878 3.79196C14.5788 4.05495 13.523 4.50568 12.566 5.12464L10.2754 3.49878C10.1172 3.68479 9.97408 3.8831 9.84732 4.09182C9.44279 4.71021 9.19275 5.41674 9.11825 6.15192C9.04374 6.88711 9.14696 7.62944 9.4192 8.31641C8.81476 9.28199 8.37877 10.3432 8.12983 11.4549L5.39117 11.923C5.41088 12.1666 5.44931 12.4083 5.50612 12.646C5.65809 13.3614 5.97712 14.0308 6.43716 14.5994C6.8972 15.168 7.4852 15.6197 8.15315 15.9177ZM11.4682 8.07486C12.1853 7.21588 13.0652 6.50719 14.0572 5.98959C15.0493 5.472 16.1339 5.15571 17.2486 5.05895C18.3634 4.96218 19.4863 5.08684 20.5527 5.42575C21.6191 5.76466 22.6079 6.31113 23.4623 7.03371C25.1959 8.49699 26.2785 10.588 26.4727 12.8482C26.6669 15.1085 25.957 17.3535 24.4985 19.0911C23.7805 19.9489 22.9002 20.6564 21.9081 21.1731C20.916 21.6897 19.8317 22.0054 18.7173 22.102C17.6029 22.1986 16.4804 22.0742 15.4143 21.7359C14.3481 21.3976 13.3592 20.852 12.5044 20.1306C10.7747 18.6651 9.69506 16.575 9.50093 14.3164C9.30681 12.0577 10.014 9.81398 11.4682 8.07486Z" fill="#333333"/>
<path d="M17.5053 14.9696C17.7744 15.0673 18.0664 15.0831 18.3444 15.0149C18.6224 14.9466 18.874 14.7975 19.0673 14.5863C19.2606 14.3752 19.3869 14.1114 19.4303 13.8285C19.4737 13.5455 19.4323 13.256 19.3112 12.9966C19.1901 12.7372 18.9948 12.5196 18.75 12.3711C18.5053 12.2227 18.222 12.1502 17.936 12.1627C17.65 12.1753 17.3741 12.2723 17.1433 12.4416C16.9124 12.6109 16.737 12.8449 16.6391 13.1139C16.5082 13.4749 16.5259 13.873 16.6883 14.221C16.8507 14.5689 17.1446 14.8382 17.5053 14.9696Z" fill="#333333"/>
<path d="M8.47958 29.0296C8.14889 29.0137 7.82057 29.093 7.53357 29.258C7.24658 29.4231 7.01294 29.667 6.86037 29.9608H6.83872V29.1712H5.48271V34.5569H6.90035V31.4684C6.90035 30.6488 7.38678 30.224 8.01481 30.224C8.91436 30.224 8.93602 30.8903 8.93602 31.2868V34.5569H10.3537V30.8304C10.3537 29.6526 9.5324 29.0296 8.47958 29.0296Z" fill="#333333"/>
<path d="M10.6802 35H11.8646L13.8303 28.3432H12.6459L10.6802 35Z" fill="#333333"/>
<path d="M19.989 29.0298C19.1278 29.0298 18.733 29.6261 18.5514 29.8893C18.1866 29.3129 17.8317 29.0298 17.0521 29.0298C16.7337 29.015 16.4181 29.0958 16.1459 29.2618C15.8737 29.4277 15.6574 29.6712 15.5245 29.961H15.5046V29.1714H14.1469V34.557H15.5645V31.277C15.5645 30.6889 15.7778 30.2242 16.4458 30.2242C17.2953 30.2242 17.2953 30.8622 17.2953 31.317V34.557H18.718V31.327C18.718 30.6889 18.9712 30.2242 19.6808 30.2242C20.0956 30.2242 20.4505 30.4874 20.4505 31.287V34.557H21.8681V30.8305C21.8631 29.6528 21.0502 29.0298 19.989 29.0298Z" fill="#333333"/>
<path d="M24.4535 29.171H23.0359V34.5584H24.4535V29.171Z" fill="#333333"/>
<path d="M24.4535 27.0723H23.0359V28.3883H24.4535V27.0723Z" fill="#333333"/>
<path d="M28.6431 29.0295C28.3124 29.0138 27.9842 29.0932 27.6973 29.2582C27.4103 29.4233 27.1766 29.6671 27.0239 29.9607H27.0039V29.1711H25.6462V34.5568H27.0639V31.4683C27.0639 30.6487 27.5503 30.224 28.1783 30.224C29.0795 30.224 29.0995 30.8903 29.0995 31.2868V34.5568H30.5172V30.8303C30.5172 29.6526 29.6976 29.0295 28.6431 29.0295Z" fill="#333333"/>
</svg>
