<svg width="36" height="36" viewBox="0 0 36 36" fill="none" xmlns="http://www.w3.org/2000/svg">
<path d="M30.041 11.8222C29.7062 11.1072 29.1042 10.5523 28.3644 10.2768C27.6246 10.0012 26.8062 10.0271 26.0853 10.3489L27.1112 12.5467C26.9293 12.7513 26.7074 12.9165 26.4591 13.0321C26.2109 13.1477 25.9416 13.2112 25.6679 13.2187L24.642 11.0209C24.1737 11.244 23.7713 11.5849 23.4743 12.0102C23.1773 12.4356 22.9959 12.9307 22.9478 13.4472C22.8997 13.9637 22.9865 14.4839 23.1998 14.9567C23.4131 15.4296 23.7456 15.839 24.1646 16.1447C24.5064 16.3994 24.7851 16.7292 24.979 17.1088C25.1708 17.4898 25.2708 17.9103 25.271 18.3369V25.928C25.2841 26.281 25.4335 26.6151 25.6878 26.8602C25.9422 27.1053 26.2816 27.2422 26.6348 27.2422C26.988 27.2422 27.3274 27.1053 27.5818 26.8602C27.8361 26.6151 27.9855 26.281 27.9986 25.928V17.5806C27.9991 17.168 28.0932 16.7609 28.2738 16.3899C28.4544 16.019 28.7168 15.6938 29.0413 15.439C29.2973 15.2366 29.5365 15.0137 29.7564 14.7725C29.9165 14.6 30.0434 14.3995 30.1308 14.181C30.2781 13.803 30.3471 13.399 30.3336 12.9935C30.3201 12.588 30.2244 12.1895 30.0522 11.8222H30.041ZM26.9334 17.5806V25.9299C26.9367 25.9713 26.9313 26.013 26.9177 26.0523C26.9041 26.0916 26.8825 26.1276 26.8543 26.1582C26.826 26.1887 26.7918 26.2131 26.7537 26.2297C26.7156 26.2464 26.6745 26.255 26.6329 26.255C26.5913 26.255 26.5502 26.2464 26.5121 26.2297C26.474 26.2131 26.4398 26.1887 26.4116 26.1582C26.3833 26.1276 26.3617 26.0916 26.3481 26.0523C26.3345 26.013 26.3292 25.9713 26.3325 25.9299V18.3388C26.3334 17.7543 26.1989 17.1776 25.9393 16.6539C26.333 16.6312 26.7229 16.5647 27.1019 16.4555C26.9902 16.8201 26.9334 17.1993 26.9334 17.5806ZM29.1293 13.7972C28.7363 14.3553 28.2148 14.8107 27.6087 15.1248C27.0026 15.4389 26.3299 15.6025 25.6473 15.6018H25.4451C25.1562 15.5245 24.8891 15.3815 24.6646 15.1839C24.4401 14.9864 24.2643 14.7396 24.1508 14.4629C24.0374 14.1862 23.9894 13.887 24.0106 13.5887C24.0319 13.2904 24.1217 13.0011 24.2732 12.7432L24.9621 14.2128C25.6183 14.3568 26.3036 14.2811 26.9125 13.9972C27.5214 13.7134 28.0201 13.2373 28.3318 12.6421L27.6466 11.1763C27.9574 11.2298 28.2504 11.3583 28.5003 11.5507C28.7481 11.7416 28.947 11.9887 29.0806 12.2715C29.2024 12.5284 29.2664 12.8089 29.2678 13.0933C29.2652 13.3344 29.2183 13.5731 29.1293 13.7972ZM30.041 11.8222C29.7062 11.1072 29.1042 10.5523 28.3644 10.2768C27.6246 10.0012 26.8062 10.0271 26.0853 10.3489L27.1112 12.5467C26.9293 12.7513 26.7074 12.9165 26.4591 13.0321C26.2109 13.1477 25.9416 13.2112 25.6679 13.2187L24.642 11.0209C24.1737 11.244 23.7713 11.5849 23.4743 12.0102C23.1773 12.4356 22.9959 12.9307 22.9478 13.4472C22.8997 13.9637 22.9865 14.4839 23.1998 14.9567C23.4131 15.4296 23.7456 15.839 24.1646 16.1447C24.5064 16.3994 24.7851 16.7292 24.979 17.1088C25.1708 17.4898 25.2708 17.9103 25.271 18.3369V25.928C25.2841 26.281 25.4335 26.6151 25.6878 26.8602C25.9422 27.1053 26.2816 27.2422 26.6348 27.2422C26.988 27.2422 27.3274 27.1053 27.5818 26.8602C27.8361 26.6151 27.9855 26.281 27.9986 25.928V17.5806C27.9991 17.168 28.0932 16.7609 28.2738 16.3899C28.4544 16.019 28.7168 15.6938 29.0413 15.439C29.2973 15.2366 29.5365 15.0137 29.7564 14.7725C29.9165 14.6 30.0434 14.3995 30.1308 14.181C30.2781 13.803 30.3471 13.399 30.3336 12.9935C30.3201 12.588 30.2244 12.1895 30.0522 11.8222H30.041ZM26.9334 17.5806V25.9299C26.9367 25.9713 26.9313 26.013 26.9177 26.0523C26.9041 26.0916 26.8825 26.1276 26.8543 26.1582C26.826 26.1887 26.7918 26.2131 26.7537 26.2297C26.7156 26.2464 26.6745 26.255 26.6329 26.255C26.5913 26.255 26.5502 26.2464 26.5121 26.2297C26.474 26.2131 26.4398 26.1887 26.4116 26.1582C26.3833 26.1276 26.3617 26.0916 26.3481 26.0523C26.3345 26.013 26.3292 25.9713 26.3325 25.9299V18.3388C26.3334 17.7543 26.1989 17.1776 25.9393 16.6539C26.333 16.6312 26.7229 16.5647 27.1019 16.4555C26.9902 16.8201 26.9334 17.1993 26.9334 17.5806ZM29.1293 13.7972C28.7363 14.3553 28.2148 14.8107 27.6087 15.1248C27.0026 15.4389 26.3299 15.6025 25.6473 15.6018H25.4451C25.1562 15.5245 24.8891 15.3815 24.6646 15.1839C24.4401 14.9864 24.2643 14.7396 24.1508 14.4629C24.0374 14.1862 23.9894 13.887 24.0106 13.5887C24.0319 13.2904 24.1217 13.0011 24.2732 12.7432L24.9621 14.2128C25.6183 14.3568 26.3036 14.2811 26.9125 13.9972C27.5214 13.7134 28.0201 13.2373 28.3318 12.6421L27.6466 11.1763C27.9574 11.2298 28.2504 11.3583 28.5003 11.5507C28.7481 11.7416 28.947 11.9887 29.0806 12.2715C29.2024 12.5284 29.2664 12.8089 29.2678 13.0933C29.2652 13.3344 29.2183 13.5731 29.1293 13.7972ZM30.041 11.8222C29.7062 11.1072 29.1042 10.5523 28.3644 10.2768C27.6246 10.0012 26.8062 10.0271 26.0853 10.3489L27.1112 12.5467C26.9293 12.7513 26.7074 12.9165 26.4591 13.0321C26.2109 13.1477 25.9416 13.2112 25.6679 13.2187L24.642 11.0209C24.1737 11.244 23.7713 11.5849 23.4743 12.0102C23.1773 12.4356 22.9959 12.9307 22.9478 13.4472C22.8997 13.9637 22.9865 14.4839 23.1998 14.9567C23.4131 15.4296 23.7456 15.839 24.1646 16.1447C24.5064 16.3994 24.7851 16.7292 24.979 17.1088C25.1708 17.4898 25.2708 17.9103 25.271 18.3369V25.928C25.2841 26.281 25.4335 26.6151 25.6878 26.8602C25.9422 27.1053 26.2816 27.2422 26.6348 27.2422C26.988 27.2422 27.3274 27.1053 27.5818 26.8602C27.8361 26.6151 27.9855 26.281 27.9986 25.928V17.5806C27.9991 17.168 28.0932 16.7609 28.2738 16.3899C28.4544 16.019 28.7168 15.6938 29.0413 15.439C29.2973 15.2366 29.5365 15.0137 29.7564 14.7725C29.9165 14.6 30.0434 14.3995 30.1308 14.181C30.2781 13.803 30.3471 13.399 30.3336 12.9935C30.3201 12.588 30.2244 12.1895 30.0522 11.8222H30.041ZM26.9334 17.5806V25.9299C26.9367 25.9713 26.9313 26.013 26.9177 26.0523C26.9041 26.0916 26.8825 26.1276 26.8543 26.1582C26.826 26.1887 26.7918 26.2131 26.7537 26.2297C26.7156 26.2464 26.6745 26.255 26.6329 26.255C26.5913 26.255 26.5502 26.2464 26.5121 26.2297C26.474 26.2131 26.4398 26.1887 26.4116 26.1582C26.3833 26.1276 26.3617 26.0916 26.3481 26.0523C26.3345 26.013 26.3292 25.9713 26.3325 25.9299V18.3388C26.3334 17.7543 26.1989 17.1776 25.9393 16.6539C26.333 16.6312 26.7229 16.5647 27.1019 16.4555C26.9902 16.8201 26.9334 17.1993 26.9334 17.5806ZM29.1293 13.7972C28.7363 14.3553 28.2148 14.8107 27.6087 15.1248C27.0026 15.4389 26.3299 15.6025 25.6473 15.6018H25.4451C25.1562 15.5245 24.8891 15.3815 24.6646 15.1839C24.4401 14.9864 24.2643 14.7396 24.1508 14.4629C24.0374 14.1862 23.9894 13.887 24.0106 13.5887C24.0319 13.2904 24.1217 13.0011 24.2732 12.7432L24.9621 14.2128C25.6183 14.3568 26.3036 14.2811 26.9125 13.9972C27.5214 13.7134 28.0201 13.2373 28.3318 12.6421L27.6466 11.1763C27.9574 11.2298 28.2504 11.3583 28.5003 11.5507C28.7481 11.7416 28.947 11.9887 29.0806 12.2715C29.2024 12.5284 29.2664 12.8089 29.2678 13.0933C29.2652 13.3344 29.2183 13.5731 29.1293 13.7972ZM30.041 11.8222C29.7062 11.1072 29.1042 10.5523 28.3644 10.2768C27.6246 10.0012 26.8062 10.0271 26.0853 10.3489L27.1112 12.5467C26.9293 12.7513 26.7074 12.9165 26.4591 13.0321C26.2109 13.1477 25.9416 13.2112 25.6679 13.2187L24.642 11.0209C24.1737 11.244 23.7713 11.5849 23.4743 12.0102C23.1773 12.4356 22.9959 12.9307 22.9478 13.4472C22.8997 13.9637 22.9865 14.4839 23.1998 14.9567C23.4131 15.4296 23.7456 15.839 24.1646 16.1447C24.5064 16.3994 24.7851 16.7292 24.979 17.1088C25.1708 17.4898 25.2708 17.9103 25.271 18.3369V25.928C25.2841 26.281 25.4335 26.6151 25.6878 26.8602C25.9422 27.1053 26.2816 27.2422 26.6348 27.2422C26.988 27.2422 27.3274 27.1053 27.5818 26.8602C27.8361 26.6151 27.9855 26.281 27.9986 25.928V17.5806C27.9991 17.168 28.0932 16.7609 28.2738 16.3899C28.4544 16.019 28.7168 15.6938 29.0413 15.439C29.2973 15.2366 29.5365 15.0137 29.7564 14.7725C29.9165 14.6 30.0434 14.3995 30.1308 14.181C30.2781 13.803 30.3471 13.399 30.3336 12.9935C30.3201 12.588 30.2244 12.1895 30.0522 11.8222H30.041ZM26.9334 17.5806V25.9299C26.9367 25.9713 26.9313 26.013 26.9177 26.0523C26.9041 26.0916 26.8825 26.1276 26.8543 26.1582C26.826 26.1887 26.7918 26.2131 26.7537 26.2297C26.7156 26.2464 26.6745 26.255 26.6329 26.255C26.5913 26.255 26.5502 26.2464 26.5121 26.2297C26.474 26.2131 26.4398 26.1887 26.4116 26.1582C26.3833 26.1276 26.3617 26.0916 26.3481 26.0523C26.3345 26.013 26.3292 25.9713 26.3325 25.9299V18.3388C26.3334 17.7543 26.1989 17.1776 25.9393 16.6539C26.333 16.6312 26.7229 16.5647 27.1019 16.4555C26.9902 16.8201 26.9334 17.1993 26.9334 17.5806ZM29.1293 13.7972C28.7363 14.3553 28.2148 14.8107 27.6087 15.1248C27.0026 15.4389 26.3299 15.6025 25.6473 15.6018H25.4451C25.1562 15.5245 24.8891 15.3815 24.6646 15.1839C24.4401 14.9864 24.2643 14.7396 24.1508 14.4629C24.0374 14.1862 23.9894 13.887 24.0106 13.5887C24.0319 13.2904 24.1217 13.0011 24.2732 12.7432L24.9621 14.2128C25.6183 14.3568 26.3036 14.2811 26.9125 13.9972C27.5214 13.7134 28.0201 13.2373 28.3318 12.6421L27.6466 11.1763C27.9574 11.2298 28.2504 11.3583 28.5003 11.5507C28.7481 11.7416 28.947 11.9887 29.0806 12.2715C29.2024 12.5284 29.2664 12.8089 29.2678 13.0933C29.2652 13.3344 29.2183 13.5731 29.1293 13.7972ZM30.6737 8.25407C28.3812 8.2533 26.1438 7.55105 24.262 6.24163C23.2907 5.7592 22.2229 5.50271 21.1385 5.49136C20.0541 5.48001 18.9811 5.7141 18 6.17611C17.0189 5.7141 15.9459 5.48001 14.8615 5.49136C13.7771 5.50271 12.7093 5.7592 11.738 6.24163C9.85623 7.55105 7.61882 8.2533 5.32629 8.25407C3.84091 8.25373 2.37039 7.95848 1 7.38544V29.7301C2.65215 30.348 4.41791 30.603 6.17738 30.478C7.93684 30.353 9.6488 29.8509 11.197 29.0056C12.1581 28.2712 13.3151 27.8378 14.5221 27.7602C15.7292 27.6826 16.9322 27.9642 17.9794 28.5695C18.8433 28.0702 19.8161 27.7896 20.8132 27.7521C21.8103 27.7145 22.8014 27.9212 23.7004 28.3542C25.3346 29.4752 27.2157 30.1843 29.1833 30.421C31.1509 30.6577 33.1466 30.4149 35 29.7133V7.38544C33.6296 7.95848 32.1591 8.25373 30.6737 8.25407ZM17.474 27.1392C16.6638 26.8394 15.8068 26.686 14.943 26.6862C13.8266 26.6866 12.7251 26.9428 11.723 27.435C10.333 28.403 8.7419 29.0437 7.06899 29.3092C5.39608 29.5748 3.68476 29.4582 2.06332 28.9682V8.87372C3.12631 9.16632 4.22376 9.31492 5.32629 9.31552C6.35133 9.31799 7.37266 9.19221 8.36648 8.94111C9.3602 8.68777 10.3181 8.3104 11.2176 7.81789C12.0979 7.14329 13.1449 6.72044 14.2468 6.59449C15.3487 6.46854 16.4641 6.64422 17.474 7.10277V27.1392ZM33.8992 29C32.2774 29.4855 30.5669 29.598 28.8954 29.3293C27.224 29.0605 25.6349 28.4174 24.247 27.4481C23.3596 27.0087 22.392 26.7549 21.4032 26.7021C20.4144 26.6493 19.4252 26.7987 18.4961 27.1411L18.5354 7.11025C19.5431 6.65533 20.655 6.48144 21.7535 6.607C22.8519 6.73257 23.8959 7.15291 24.7749 7.8235C25.6776 8.31628 26.6386 8.69364 27.6354 8.94673C28.6324 9.20262 29.6575 9.33218 30.6868 9.33237C31.7823 9.33261 32.8728 9.18591 33.9292 8.89618L33.8992 29ZM28.9308 10.5586C28.4485 10.2501 27.8878 10.0864 27.3153 10.0868C26.8909 10.087 26.4712 10.1763 26.0835 10.3489L27.1094 12.5467C26.9274 12.7513 26.7055 12.9165 26.4573 13.0321C26.209 13.1477 25.9397 13.2112 25.666 13.2187L24.6401 11.0209C24.1718 11.244 23.7694 11.5849 23.4725 12.0102C23.1755 12.4356 22.994 12.9307 22.9459 13.4472C22.8978 13.9637 22.9846 14.4839 23.1979 14.9567C23.4112 15.4296 23.7437 15.839 24.1628 16.1447C24.5046 16.3994 24.7832 16.7292 24.9771 17.1088C25.1689 17.4898 25.2689 17.9103 25.2691 18.3369V25.928C25.2822 26.281 25.4316 26.6151 25.686 26.8602C25.9403 27.1053 26.2797 27.2422 26.6329 27.2422C26.9861 27.2422 27.3256 27.1053 27.5799 26.8602C27.8342 26.6151 27.9836 26.281 27.9967 25.928V17.5806C27.9972 17.168 28.0913 16.7609 28.2719 16.3899C28.4525 16.019 28.715 15.6938 29.0394 15.439C29.2955 15.2366 29.5346 15.0137 29.7545 14.7725C29.9146 14.6 30.0415 14.3995 30.129 14.181C30.3823 13.5331 30.4022 12.8172 30.1853 12.1562C29.9684 11.4952 29.5282 10.9304 28.9402 10.5586H28.9308ZM26.9334 17.5806V25.9299C26.9367 25.9713 26.9313 26.013 26.9177 26.0523C26.9041 26.0916 26.8825 26.1276 26.8543 26.1582C26.826 26.1887 26.7918 26.2131 26.7537 26.2297C26.7156 26.2464 26.6745 26.255 26.6329 26.255C26.5913 26.255 26.5502 26.2464 26.5121 26.2297C26.474 26.2131 26.4398 26.1887 26.4116 26.1582C26.3833 26.1276 26.3617 26.0916 26.3481 26.0523C26.3345 26.013 26.3292 25.9713 26.3325 25.9299V18.3388C26.3334 17.7543 26.1989 17.1776 25.9393 16.6539C26.333 16.6312 26.7229 16.5647 27.1019 16.4555C26.9902 16.8201 26.9334 17.1993 26.9334 17.5806ZM29.1293 13.7972C28.7363 14.3553 28.2148 14.8107 27.6087 15.1248C27.0026 15.4389 26.3299 15.6025 25.6473 15.6018H25.4451C25.1562 15.5245 24.8891 15.3815 24.6646 15.1839C24.4401 14.9864 24.2643 14.7396 24.1508 14.4629C24.0374 14.1862 23.9894 13.887 24.0106 13.5887C24.0319 13.2904 24.1217 13.0011 24.2732 12.7432L24.9621 14.2128C25.6183 14.3568 26.3036 14.2811 26.9125 13.9972C27.5214 13.7134 28.0201 13.2373 28.3318 12.6421L27.6466 11.1763C27.9574 11.2298 28.2504 11.3583 28.5003 11.5507C28.7481 11.7416 28.947 11.9887 29.0806 12.2715C29.2024 12.5284 29.2664 12.8089 29.2678 13.0933C29.2652 13.3344 29.2183 13.5731 29.1293 13.7972ZM30.041 11.8222C29.7062 11.1072 29.1042 10.5523 28.3644 10.2768C27.6246 10.0012 26.8062 10.0271 26.0853 10.3489L27.1112 12.5467C26.9293 12.7513 26.7074 12.9165 26.4591 13.0321C26.2109 13.1477 25.9416 13.2112 25.6679 13.2187L24.642 11.0209C24.1737 11.244 23.7713 11.5849 23.4743 12.0102C23.1773 12.4356 22.9959 12.9307 22.9478 13.4472C22.8997 13.9637 22.9865 14.4839 23.1998 14.9567C23.4131 15.4296 23.7456 15.839 24.1646 16.1447C24.5064 16.3994 24.7851 16.7292 24.979 17.1088C25.1708 17.4898 25.2708 17.9103 25.271 18.3369V25.928C25.2841 26.281 25.4335 26.6151 25.6878 26.8602C25.9422 27.1053 26.2816 27.2422 26.6348 27.2422C26.988 27.2422 27.3274 27.1053 27.5818 26.8602C27.8361 26.6151 27.9855 26.281 27.9986 25.928V17.5806C27.9991 17.168 28.0932 16.7609 28.2738 16.3899C28.4544 16.019 28.7168 15.6938 29.0413 15.439C29.2973 15.2366 29.5365 15.0137 29.7564 14.7725C29.9165 14.6 30.0434 14.3995 30.1308 14.181C30.2781 13.803 30.3471 13.399 30.3336 12.9935C30.3201 12.588 30.2244 12.1895 30.0522 11.8222H30.041ZM26.9334 17.5806V25.9299C26.9367 25.9713 26.9313 26.013 26.9177 26.0523C26.9041 26.0916 26.8825 26.1276 26.8543 26.1582C26.826 26.1887 26.7918 26.2131 26.7537 26.2297C26.7156 26.2464 26.6745 26.255 26.6329 26.255C26.5913 26.255 26.5502 26.2464 26.5121 26.2297C26.474 26.2131 26.4398 26.1887 26.4116 26.1582C26.3833 26.1276 26.3617 26.0916 26.3481 26.0523C26.3345 26.013 26.3292 25.9713 26.3325 25.9299V18.3388C26.3334 17.7543 26.1989 17.1776 25.9393 16.6539C26.333 16.6312 26.7229 16.5647 27.1019 16.4555C26.9902 16.8201 26.9334 17.1993 26.9334 17.5806ZM29.1293 13.7972C28.7363 14.3553 28.2148 14.8107 27.6087 15.1248C27.0026 15.4389 26.3299 15.6025 25.6473 15.6018H25.4451C25.1562 15.5245 24.8891 15.3815 24.6646 15.1839C24.4401 14.9864 24.2643 14.7396 24.1508 14.4629C24.0374 14.1862 23.9894 13.887 24.0106 13.5887C24.0319 13.2904 24.1217 13.0011 24.2732 12.7432L24.9621 14.2128C25.6183 14.3568 26.3036 14.2811 26.9125 13.9972C27.5214 13.7134 28.0201 13.2373 28.3318 12.6421L27.6466 11.1763C27.9574 11.2298 28.2504 11.3583 28.5003 11.5507C28.7481 11.7416 28.947 11.9887 29.0806 12.2715C29.2024 12.5284 29.2664 12.8089 29.2678 13.0933C29.2652 13.3344 29.2183 13.5731 29.1293 13.7972ZM30.041 11.8222C29.7062 11.1072 29.1042 10.5523 28.3644 10.2768C27.6246 10.0012 26.8062 10.0271 26.0853 10.3489L27.1112 12.5467C26.9293 12.7513 26.7074 12.9165 26.4591 13.0321C26.2109 13.1477 25.9416 13.2112 25.6679 13.2187L24.642 11.0209C24.1737 11.244 23.7713 11.5849 23.4743 12.0102C23.1773 12.4356 22.9959 12.9307 22.9478 13.4472C22.8997 13.9637 22.9865 14.4839 23.1998 14.9567C23.4131 15.4296 23.7456 15.839 24.1646 16.1447C24.5064 16.3994 24.7851 16.7292 24.979 17.1088C25.1708 17.4898 25.2708 17.9103 25.271 18.3369V25.928C25.2841 26.281 25.4335 26.6151 25.6878 26.8602C25.9422 27.1053 26.2816 27.2422 26.6348 27.2422C26.988 27.2422 27.3274 27.1053 27.5818 26.8602C27.8361 26.6151 27.9855 26.281 27.9986 25.928V17.5806C27.9991 17.168 28.0932 16.7609 28.2738 16.3899C28.4544 16.019 28.7168 15.6938 29.0413 15.439C29.2973 15.2366 29.5365 15.0137 29.7564 14.7725C29.9165 14.6 30.0434 14.3995 30.1308 14.181C30.2781 13.803 30.3471 13.399 30.3336 12.9935C30.3201 12.588 30.2244 12.1895 30.0522 11.8222H30.041ZM26.9334 17.5806V25.9299C26.9367 25.9713 26.9313 26.013 26.9177 26.0523C26.9041 26.0916 26.8825 26.1276 26.8543 26.1582C26.826 26.1887 26.7918 26.2131 26.7537 26.2297C26.7156 26.2464 26.6745 26.255 26.6329 26.255C26.5913 26.255 26.5502 26.2464 26.5121 26.2297C26.474 26.2131 26.4398 26.1887 26.4116 26.1582C26.3833 26.1276 26.3617 26.0916 26.3481 26.0523C26.3345 26.013 26.3292 25.9713 26.3325 25.9299V18.3388C26.3334 17.7543 26.1989 17.1776 25.9393 16.6539C26.333 16.6312 26.7229 16.5647 27.1019 16.4555C26.9902 16.8201 26.9334 17.1993 26.9334 17.5806ZM29.1293 13.7972C28.7363 14.3553 28.2148 14.8107 27.6087 15.1248C27.0026 15.4389 26.3299 15.6025 25.6473 15.6018H25.4451C25.1562 15.5245 24.8891 15.3815 24.6646 15.1839C24.4401 14.9864 24.2643 14.7396 24.1508 14.4629C24.0374 14.1862 23.9894 13.887 24.0106 13.5887C24.0319 13.2904 24.1217 13.0011 24.2732 12.7432L24.9621 14.2128C25.6183 14.3568 26.3036 14.2811 26.9125 13.9972C27.5214 13.7134 28.0201 13.2373 28.3318 12.6421L27.6466 11.1763C27.9574 11.2298 28.2504 11.3583 28.5003 11.5507C28.7481 11.7416 28.947 11.9887 29.0806 12.2715C29.2024 12.5284 29.2664 12.8089 29.2678 13.0933C29.2652 13.3344 29.2183 13.5731 29.1293 13.7972ZM30.041 11.8222C29.7062 11.1072 29.1042 10.5523 28.3644 10.2768C27.6246 10.0012 26.8062 10.0271 26.0853 10.3489L27.1112 12.5467C26.9293 12.7513 26.7074 12.9165 26.4591 13.0321C26.2109 13.1477 25.9416 13.2112 25.6679 13.2187L24.642 11.0209C24.1737 11.244 23.7713 11.5849 23.4743 12.0102C23.1773 12.4356 22.9959 12.9307 22.9478 13.4472C22.8997 13.9637 22.9865 14.4839 23.1998 14.9567C23.4131 15.4296 23.7456 15.839 24.1646 16.1447C24.5064 16.3994 24.7851 16.7292 24.979 17.1088C25.1708 17.4898 25.2708 17.9103 25.271 18.3369V25.928C25.2841 26.281 25.4335 26.6151 25.6878 26.8602C25.9422 27.1053 26.2816 27.2422 26.6348 27.2422C26.988 27.2422 27.3274 27.1053 27.5818 26.8602C27.8361 26.6151 27.9855 26.281 27.9986 25.928V17.5806C27.9991 17.168 28.0932 16.7609 28.2738 16.3899C28.4544 16.019 28.7168 15.6938 29.0413 15.439C29.2973 15.2366 29.5365 15.0137 29.7564 14.7725C29.9165 14.6 30.0434 14.3995 30.1308 14.181C30.2781 13.803 30.3471 13.399 30.3336 12.9935C30.3201 12.588 30.2244 12.1895 30.0522 11.8222H30.041ZM26.9334 17.5806V25.9299C26.9367 25.9713 26.9313 26.013 26.9177 26.0523C26.9041 26.0916 26.8825 26.1276 26.8543 26.1582C26.826 26.1887 26.7918 26.2131 26.7537 26.2297C26.7156 26.2464 26.6745 26.255 26.6329 26.255C26.5913 26.255 26.5502 26.2464 26.5121 26.2297C26.474 26.2131 26.4398 26.1887 26.4116 26.1582C26.3833 26.1276 26.3617 26.0916 26.3481 26.0523C26.3345 26.013 26.3292 25.9713 26.3325 25.9299V18.3388C26.3334 17.7543 26.1989 17.1776 25.9393 16.6539C26.333 16.6312 26.7229 16.5647 27.1019 16.4555C26.9902 16.8201 26.9334 17.1993 26.9334 17.5806ZM29.1293 13.7972C28.7363 14.3553 28.2148 14.8107 27.6087 15.1248C27.0026 15.4389 26.3299 15.6025 25.6473 15.6018H25.4451C25.1562 15.5245 24.8891 15.3815 24.6646 15.1839C24.4401 14.9864 24.2643 14.7396 24.1508 14.4629C24.0374 14.1862 23.9894 13.887 24.0106 13.5887C24.0319 13.2904 24.1217 13.0011 24.2732 12.7432L24.9621 14.2128C25.6183 14.3568 26.3036 14.2811 26.9125 13.9972C27.5214 13.7134 28.0201 13.2373 28.3318 12.6421L27.6466 11.1763C27.9574 11.2298 28.2504 11.3583 28.5003 11.5507C28.7481 11.7416 28.947 11.9887 29.0806 12.2715C29.2024 12.5284 29.2664 12.8089 29.2678 13.0933C29.2652 13.3344 29.2183 13.5731 29.1293 13.7972ZM30.041 11.8222C29.7062 11.1072 29.1042 10.5523 28.3644 10.2768C27.6246 10.0012 26.8062 10.0271 26.0853 10.3489L27.1112 12.5467C26.9293 12.7513 26.7074 12.9165 26.4591 13.0321C26.2109 13.1477 25.9416 13.2112 25.6679 13.2187L24.642 11.0209C24.1737 11.244 23.7713 11.5849 23.4743 12.0102C23.1773 12.4356 22.9959 12.9307 22.9478 13.4472C22.8997 13.9637 22.9865 14.4839 23.1998 14.9567C23.4131 15.4296 23.7456 15.839 24.1646 16.1447C24.5064 16.3994 24.7851 16.7292 24.979 17.1088C25.1708 17.4898 25.2708 17.9103 25.271 18.3369V25.928C25.2841 26.281 25.4335 26.6151 25.6878 26.8602C25.9422 27.1053 26.2816 27.2422 26.6348 27.2422C26.988 27.2422 27.3274 27.1053 27.5818 26.8602C27.8361 26.6151 27.9855 26.281 27.9986 25.928V17.5806C27.9991 17.168 28.0932 16.7609 28.2738 16.3899C28.4544 16.019 28.7168 15.6938 29.0413 15.439C29.2973 15.2366 29.5365 15.0137 29.7564 14.7725C29.9165 14.6 30.0434 14.3995 30.1308 14.181C30.2781 13.803 30.3471 13.399 30.3336 12.9935C30.3201 12.588 30.2244 12.1895 30.0522 11.8222H30.041ZM26.9334 17.5806V25.9299C26.9367 25.9713 26.9313 26.013 26.9177 26.0523C26.9041 26.0916 26.8825 26.1276 26.8543 26.1582C26.826 26.1887 26.7918 26.2131 26.7537 26.2297C26.7156 26.2464 26.6745 26.255 26.6329 26.255C26.5913 26.255 26.5502 26.2464 26.5121 26.2297C26.474 26.2131 26.4398 26.1887 26.4116 26.1582C26.3833 26.1276 26.3617 26.0916 26.3481 26.0523C26.3345 26.013 26.3292 25.9713 26.3325 25.9299V18.3388C26.3334 17.7543 26.1989 17.1776 25.9393 16.6539C26.333 16.6312 26.7229 16.5647 27.1019 16.4555C26.9902 16.8201 26.9334 17.1993 26.9334 17.5806ZM29.1293 13.7972C28.7363 14.3553 28.2148 14.8107 27.6087 15.1248C27.0026 15.4389 26.3299 15.6025 25.6473 15.6018H25.4451C25.1562 15.5245 24.8891 15.3815 24.6646 15.1839C24.4401 14.9864 24.2643 14.7396 24.1508 14.4629C24.0374 14.1862 23.9894 13.887 24.0106 13.5887C24.0319 13.2904 24.1217 13.0011 24.2732 12.7432L24.9621 14.2128C25.6183 14.3568 26.3036 14.2811 26.9125 13.9972C27.5214 13.7134 28.0201 13.2373 28.3318 12.6421L27.6466 11.1763C27.9574 11.2298 28.2504 11.3583 28.5003 11.5507C28.7481 11.7416 28.947 11.9887 29.0806 12.2715C29.2024 12.5284 29.2664 12.8089 29.2678 13.0933C29.2652 13.3344 29.2183 13.5731 29.1293 13.7972Z" fill="#333333"/>
</svg>
