<svg width="36" height="36" viewBox="0 0 36 36" fill="none" xmlns="http://www.w3.org/2000/svg">
<path d="M35 8H1.5V9.5H35V8Z" fill="#333333"/>
<path d="M7.34438 10.3858L4.84438 14.8858L6.15562 15.6142L8.65562 11.1142L7.34438 10.3858Z" fill="#333333"/>
<path d="M13.3444 10.3858L10.8444 14.8858L12.1556 15.6142L14.6556 11.1142L13.3444 10.3858Z" fill="#333333"/>
<path d="M19.3444 10.3858L16.8444 14.8858L18.1556 15.6142L20.6556 11.1142L19.3444 10.3858Z" fill="#333333"/>
<path d="M25.3444 10.3858L22.8444 14.8858L24.1556 15.6142L26.6556 11.1142L25.3444 10.3858Z" fill="#333333"/>
<path d="M31.3444 10.3858L28.8444 14.8858L30.1556 15.6142L32.6556 11.1142L31.3444 10.3858Z" fill="#333333"/>
<path fill-rule="evenodd" clip-rule="evenodd" d="M26.7999 18.3652L27.4842 20.2437L35 17.5098V28.9907H1V23.4945L10.3978 20.0779L11.0822 21.9547L18.5979 19.2207L19.2823 21.0992L26.7999 18.3652ZM3.00021 26.9922H32.9998L32.991 20.3601L26.2883 22.8013L25.604 20.9263L18.0864 23.6603L17.4038 21.7836L9.88628 24.5158L9.20191 22.639L3.00021 24.895V26.9922Z" fill="#333333"/>
</svg>
