<svg width="36" height="36" viewBox="0 0 36 36" fill="none" xmlns="http://www.w3.org/2000/svg">
<path d="M4.60537 12.7751H1V13.8084H4.60537V12.7751Z" fill="#333333"/>
<path d="M35 13.8084H31.3946V12.7751H35V13.8084Z" fill="#333333"/>
<path d="M8.99294 13.8084H6.47354L13.3314 4H15.8453L8.99294 13.8084Z" fill="#333333"/>
<path d="M13.6515 13.8084H11.134L17.99 4H20.5058L13.6515 13.8084Z" fill="#333333"/>
<path d="M18.312 13.8084H15.7926L22.6468 4H25.1662L18.312 13.8084Z" fill="#333333"/>
<path d="M22.9688 13.8084H20.453L27.309 4H29.8266L22.9688 13.8084Z" fill="#333333"/>
<path d="M27.6292 13.8084H25.1116L31.9694 4H34.4852L27.6292 13.8084Z" fill="#333333"/>
<path d="M1 15.9043H35V16.9629H1V15.9043Z" fill="#333333"/>
<path d="M4.99362 25.2094C6.15601 25.2094 7.09832 24.2671 7.09832 23.1047C7.09832 21.9423 6.15601 21 4.99362 21C3.83122 21 2.88892 21.9423 2.88892 23.1047C2.88892 24.2671 3.83122 25.2094 4.99362 25.2094Z" fill="#333333"/>
<path d="M11.3076 25.2094C12.47 25.2094 13.4123 24.2671 13.4123 23.1047C13.4123 21.9423 12.47 21 11.3076 21C10.1452 21 9.20293 21.9423 9.20293 23.1047C9.20293 24.2671 10.1452 25.2094 11.3076 25.2094Z" fill="#333333"/>
<path d="M10.2552 28.3668C10.2552 29.5291 9.31285 30.4715 8.15046 30.4715C6.98807 30.4715 6.04576 29.5291 6.04576 28.3668C6.04576 27.2044 6.98807 26.2621 8.15046 26.2621C9.31285 26.2621 10.2552 27.2044 10.2552 28.3668Z" fill="#333333"/>
<path d="M14.4645 30.4715C15.6269 30.4715 16.5692 29.5291 16.5692 28.3668C16.5692 27.2044 15.6269 26.2621 14.4645 26.2621C13.3021 26.2621 12.3598 27.2044 12.3598 28.3668C12.3598 29.5291 13.3021 30.4715 14.4645 30.4715Z" fill="#333333"/>
<path d="M22.8835 28.3668C22.8835 29.5291 21.9412 30.4715 20.7788 30.4715C19.6164 30.4715 18.6741 29.5291 18.6741 28.3668C18.6741 27.2044 19.6164 26.2621 20.7788 26.2621C21.9412 26.2621 22.8835 27.2044 22.8835 28.3668Z" fill="#333333"/>
<path d="M27.0929 30.4715C28.2553 30.4715 29.1976 29.5291 29.1976 28.3668C29.1976 27.2044 28.2553 26.2621 27.0929 26.2621C25.9305 26.2621 24.9882 27.2044 24.9882 28.3668C24.9882 29.5291 25.9305 30.4715 27.0929 30.4715Z" fill="#333333"/>
<path d="M19.7264 23.1047C19.7264 24.2671 18.7841 25.2094 17.6217 25.2094C16.4593 25.2094 15.517 24.2671 15.517 23.1047C15.517 21.9423 16.4593 21 17.6217 21C18.7841 21 19.7264 21.9423 19.7264 23.1047Z" fill="#333333"/>
<path d="M23.936 25.2094C25.0984 25.2094 26.0407 24.2671 26.0407 23.1047C26.0407 21.9423 25.0984 21 23.936 21C22.7736 21 21.8313 21.9423 21.8313 23.1047C21.8313 24.2671 22.7736 25.2094 23.936 25.2094Z" fill="#333333"/>
<path d="M32.3547 23.1047C32.3547 24.2671 31.4124 25.2094 30.25 25.2094C29.0876 25.2094 28.1453 24.2671 28.1453 23.1047C28.1453 21.9423 29.0876 21 30.25 21C31.4124 21 32.3547 21.9423 32.3547 23.1047Z" fill="#333333"/>
</svg>
