<svg width="36" height="36" viewBox="0 0 36 36" fill="none" xmlns="http://www.w3.org/2000/svg">
<path d="M26.1663 1H25.1908V21.486H26.1663V1Z" fill="#333333"/>
<path d="M32.5226 11.0229L28.7223 6.95221L32.5877 2.95588L31.8804 2.22878L27.3042 6.94496L31.803 11.7391L32.5226 11.0229Z" fill="#333333"/>
<path fill-rule="evenodd" clip-rule="evenodd" d="M23.0774 4.34218V21.2494H18.8505V4.34219L23.0774 4.34218Z" fill="#333333"/>
<path fill-rule="evenodd" clip-rule="evenodd" d="M16.7371 4.34218L16.7371 21.2494H12.5103L12.5103 4.34219L16.7371 4.34218Z" fill="#333333"/>
<path d="M10.3157 1.17208H9.34022V21.658H10.3157V1.17208Z" fill="#333333"/>
<path d="M3.0651 11.0229L3.7847 11.7391L8.28352 6.94496L3.70728 2.22878L3 2.95588L6.86543 6.95221L3.0651 11.0229Z" fill="#333333"/>
<path fill-rule="evenodd" clip-rule="evenodd" d="M29.0951 26.7049L6.65809 26.7049L6.65809 24.071L29.0951 24.071V26.7049Z" fill="#333333"/>
<path d="M16.27 35H17.087L16.688 28.597H15.6335L14.4935 31.694C14.2085 32.5015 13.9805 33.2045 13.8095 33.8505H13.7905C13.6195 33.1855 13.4105 32.4825 13.1445 31.694L12.052 28.597H10.9975L10.551 35H11.3395L11.5105 32.2545C11.5675 31.2855 11.615 30.2215 11.634 29.4235H11.653C11.8335 30.1835 12.0805 31.0005 12.3845 31.9125L13.4295 34.962H14.0565L15.187 31.8555C15.51 30.972 15.7665 30.1645 15.9945 29.4235H16.0135C16.0135 30.212 16.0705 31.295 16.118 32.188L16.27 35Z" fill="#333333"/>
<path d="M18.3478 28.597V35H19.1838V28.597H18.3478Z" fill="#333333"/>
<path d="M20.6302 34.981C21.0482 35.0285 21.5327 35.057 22.1312 35.057C23.3757 35.057 24.3637 34.734 24.9717 34.1355C25.5607 33.5465 25.8932 32.6915 25.8932 31.6465C25.8932 30.611 25.5607 29.87 24.9812 29.3475C24.4207 28.8345 23.5752 28.5495 22.3877 28.5495C21.7322 28.5495 21.1337 28.6065 20.6302 28.692V34.981ZM21.4567 29.2905C21.6752 29.243 21.9982 29.205 22.4257 29.205C24.1737 29.205 25.0287 30.1645 25.0192 31.675C25.0192 33.404 24.0692 34.392 22.2927 34.392C21.9697 34.392 21.6657 34.3825 21.4567 34.354V29.2905Z" fill="#333333"/>
</svg>
