<svg width="36" height="36" viewBox="0 0 36 36" fill="none" xmlns="http://www.w3.org/2000/svg">
<path fill-rule="evenodd" clip-rule="evenodd" d="M11.0448 6.30045C11.6527 6.19908 12.236 6.48046 12.5484 6.96871L19.6504 5.7845L19.7541 5.54336C19.9547 5.07674 20.3789 4.74417 20.8799 4.66063C21.4877 4.55927 22.071 4.8406 22.3834 5.32877L29.4855 4.14454L29.5891 3.90354C29.7898 3.43692 30.2139 3.10435 30.7149 3.02081C31.5281 2.88521 32.2973 3.43452 32.4329 4.24773L32.4503 4.35215C33.081 4.75179 33.5453 5.40795 33.6778 6.20236L34.8705 13.3551C35.1175 14.8365 34.1168 16.2376 32.6354 16.4847L25.6516 17.6492L25.5478 17.8906C25.3471 18.3573 24.923 18.6898 24.422 18.7734C23.814 18.8748 23.2306 18.5933 22.9182 18.1049L15.8165 19.2891L15.7127 19.5305C15.5121 19.9971 15.0879 20.3297 14.5869 20.4132C13.979 20.5146 13.3957 20.2332 13.0833 19.7449L5.98141 20.9291L5.87768 21.1703C5.67703 21.6369 5.25287 21.9695 4.75185 22.053C3.93864 22.1886 3.16949 21.6393 3.03389 20.8261L3.01644 20.7215C2.3858 20.3218 1.92144 19.6657 1.78898 18.8713L0.596296 11.7185C0.349283 10.2371 1.34994 8.836 2.83132 8.58899L9.81524 7.42445L9.91899 7.18319C10.1196 6.71657 10.5438 6.38399 11.0448 6.30045ZM20.9248 7.4099L28.6341 6.12441L24.3772 16.0238L16.6679 17.3092L20.9248 7.4099ZM32.3373 14.6965L26.503 15.6693L30.7599 5.76994L30.8464 5.75552C31.3402 5.67318 31.8073 6.00673 31.8896 6.50053L33.0823 13.6533C33.1646 14.1471 32.8311 14.6141 32.3373 14.6965ZM18.799 7.76437L14.5421 17.6637L6.83279 18.9492L11.0897 9.04985L18.799 7.76437ZM8.96387 9.40432L4.70697 19.3037L4.62035 19.3181C4.12655 19.4005 3.65951 19.0669 3.57717 18.5731L2.38448 11.4204C2.30215 10.9266 2.6357 10.4595 3.12949 10.3772L8.96387 9.40432Z" fill="#333333"/>
<path d="M4.99357 27.8354C6.15596 27.8354 7.09827 26.8931 7.09827 25.7307C7.09827 24.5683 6.15596 23.626 4.99357 23.626C3.83117 23.626 2.88887 24.5683 2.88887 25.7307C2.88887 26.8931 3.83117 27.8354 4.99357 27.8354Z" fill="#333333"/>
<path d="M11.3076 27.8354C12.47 27.8354 13.4123 26.8931 13.4123 25.7307C13.4123 24.5683 12.47 23.626 11.3076 23.626C10.1452 23.626 9.20288 24.5683 9.20288 25.7307C9.20288 26.8931 10.1452 27.8354 11.3076 27.8354Z" fill="#333333"/>
<path d="M10.2551 30.9928C10.2551 32.1552 9.3128 33.0975 8.15041 33.0975C6.98802 33.0975 6.04571 32.1552 6.04571 30.9928C6.04571 29.8304 6.98802 28.8881 8.15041 28.8881C9.3128 28.8881 10.2551 29.8304 10.2551 30.9928Z" fill="#333333"/>
<path d="M14.4644 33.0975C15.6268 33.0975 16.5691 32.1552 16.5691 30.9928C16.5691 29.8304 15.6268 28.8881 14.4644 28.8881C13.302 28.8881 12.3597 29.8304 12.3597 30.9928C12.3597 32.1552 13.302 33.0975 14.4644 33.0975Z" fill="#333333"/>
<path d="M22.8835 30.9928C22.8835 32.1552 21.9412 33.0975 20.7788 33.0975C19.6164 33.0975 18.6741 32.1552 18.6741 30.9928C18.6741 29.8304 19.6164 28.8881 20.7788 28.8881C21.9412 28.8881 22.8835 29.8304 22.8835 30.9928Z" fill="#333333"/>
<path d="M27.0928 33.0975C28.2552 33.0975 29.1975 32.1552 29.1975 30.9928C29.1975 29.8304 28.2552 28.8881 27.0928 28.8881C25.9304 28.8881 24.9881 29.8304 24.9881 30.9928C24.9881 32.1552 25.9304 33.0975 27.0928 33.0975Z" fill="#333333"/>
<path d="M19.7263 25.7307C19.7263 26.8931 18.784 27.8354 17.6216 27.8354C16.4592 27.8354 15.5169 26.8931 15.5169 25.7307C15.5169 24.5683 16.4592 23.626 17.6216 23.626C18.784 23.626 19.7263 24.5683 19.7263 25.7307Z" fill="#333333"/>
<path d="M23.9359 27.8354C25.0983 27.8354 26.0406 26.8931 26.0406 25.7307C26.0406 24.5683 25.0983 23.626 23.9359 23.626C22.7736 23.626 21.8312 24.5683 21.8312 25.7307C21.8312 26.8931 22.7736 27.8354 23.9359 27.8354Z" fill="#333333"/>
<path d="M32.3547 25.7307C32.3547 26.8931 31.4124 27.8354 30.25 27.8354C29.0876 27.8354 28.1453 26.8931 28.1453 25.7307C28.1453 24.5683 29.0876 23.626 30.25 23.626C31.4124 23.626 32.3547 24.5683 32.3547 25.7307Z" fill="#333333"/>
</svg>
