<svg width="36" height="36" viewBox="0 0 36 36" fill="none" xmlns="http://www.w3.org/2000/svg">
<path d="M26.8154 24.7683C26.1941 25.6891 25.2324 26.3255 24.142 26.5374C23.0515 26.7493 21.9215 26.5194 21.0006 25.8983L20.5196 25.5654C20.6707 25.1271 20.7041 24.6568 20.6165 24.2015C20.5289 23.7462 20.3233 23.3219 20.0204 22.9709L20.3532 22.4899C21.1769 21.2649 21.4834 19.7641 21.206 18.3141C20.9286 16.8642 20.0898 15.5825 18.872 14.748L18.3728 14.4251L18.0666 15.888C18.9864 16.5127 19.621 17.4767 19.8313 18.5685C20.0415 19.6604 19.8103 20.7911 19.1882 21.7127L18.8554 22.197C18.4169 22.0484 17.9471 22.0172 17.4928 22.1065C17.0384 22.1959 16.6155 22.4027 16.2659 22.7063L15.7833 22.3734C14.5589 21.5467 13.0574 21.2373 11.6059 21.5129C10.1545 21.7885 8.87078 22.6266 8.03465 23.8446L7.71179 24.3439L9.17464 24.6484C9.79991 23.7292 10.764 23.0952 11.8557 22.8853C12.9474 22.6754 14.0778 22.9066 14.9994 23.5284L15.487 23.8613C15.3412 24.2957 15.3106 24.7605 15.3981 25.2102C15.4856 25.66 15.6883 26.0794 15.9863 26.4275L15.6534 26.9118C14.8274 28.1352 14.5192 29.6359 14.7961 31.0859C15.073 32.5359 15.9125 33.8174 17.1313 34.6504L17.6522 34.9999L17.9401 33.5021C17.4839 33.1946 17.0928 32.8002 16.7892 32.3416C16.4855 31.8829 16.2752 31.3688 16.1702 30.8288C16.0653 30.2888 16.0678 29.7334 16.1776 29.1944C16.2874 28.6554 16.5023 28.1432 16.8101 27.6873L17.1429 27.203C17.5784 27.3487 18.0442 27.3793 18.495 27.2918C18.9459 27.2044 19.3664 27.0018 19.7158 26.7037L20.2001 27.0366C21.4233 27.8625 22.9237 28.1707 24.3734 27.8938C25.8232 27.6169 27.1044 26.7774 27.937 25.5588L28.2882 25.0379L26.8154 24.7683Z" fill="#333333"/>
<path d="M17.3294 12.7976L17.5807 12.2601C18.0334 12.3335 18.4975 12.2888 18.9278 12.1302C19.3582 11.9715 19.7403 11.7045 20.0371 11.3548L20.5663 11.6027C21.0646 11.8359 21.5122 12.1649 21.8833 12.571C22.2545 12.9771 22.542 13.4524 22.7295 13.9697C22.9169 14.4869 23.0007 15.036 22.9759 15.5856C22.9511 16.1353 22.8183 16.6746 22.585 17.1729L23.5968 18.3079L23.8631 17.7404C24.4824 16.3998 24.5457 14.8686 24.0393 13.4815C23.5328 12.0943 22.4978 10.9641 21.1604 10.3379L20.6279 10.09C20.7035 9.63976 20.662 9.17769 20.5076 8.74812C20.3531 8.31854 20.0908 7.93589 19.7458 7.63691L19.9921 7.10935C20.4632 6.1013 21.315 5.32135 22.3606 4.94069C23.4061 4.56004 24.56 4.60978 25.5689 5.079L26.6673 4.06716L26.1331 3.80255C24.7904 3.18573 23.2582 3.12495 21.8708 3.63345C20.4834 4.14194 19.3534 5.17846 18.7273 6.51689L18.4844 7.03612C18.029 6.95401 17.56 6.99254 17.1241 7.14786C16.6882 7.30318 16.3005 7.5699 15.9997 7.92149L15.4721 7.67518C14.4645 7.20405 13.6848 6.35264 13.3039 5.30757C12.923 4.26251 12.972 3.10906 13.4401 2.10005L12.4299 1L12.1637 1.53421C11.5473 2.87701 11.4867 4.40902 11.9952 5.79627C12.5036 7.18353 13.5399 8.31354 14.878 8.93999L15.4022 9.18629C15.3209 9.64555 15.362 10.1181 15.5216 10.5564C15.6811 10.9947 15.9534 11.3831 16.3109 11.6826L16.0629 12.2118C15.5902 13.2165 14.7382 13.9926 13.6939 14.3698C12.6497 14.747 11.4984 14.6945 10.4928 14.2239L9.36111 15.2341L9.92861 15.502C11.2693 16.1202 12.8001 16.1828 14.1867 15.6761C15.5733 15.1694 16.7031 14.1346 17.3294 12.7976Z" fill="#333333"/>
</svg>
