<svg width="36" height="36" viewBox="0 0 36 36" fill="none" xmlns="http://www.w3.org/2000/svg">
<path d="M8.84452 25.436C8.52532 24.3478 10.2066 24.6634 10.3426 22.0753C10.3426 22.0753 8.32219 20.3941 3.57587 20.5754C2.16667 20.6299 0.586979 19.1463 1.09843 17.9638C1.09843 17.9638 3.56862 16.0304 7.07259 17.9402C7.57134 18.2141 7.41355 18.3029 7.36821 17.9638C7.36821 17.9638 7.08891 17.3417 6.89122 16.8955C8.15154 16.3275 9.2119 15.3935 9.93452 14.215C10.7525 12.8511 12.0946 11.529 14.3399 10.8071C15.6094 10.3991 21.745 10.5351 23.6983 10.9885C26.2374 11.5779 27.5632 13.7761 28.1943 14.9785C29.2825 17.0678 29.9663 16.9735 31.0109 17.9747C31.0109 17.9747 30.5557 19.0193 29.7414 19.0193C29.3787 19.0193 30.8078 19.4981 34.4424 17.9529C34.903 17.757 35.1551 17.7842 34.8958 18.1343C33.4195 20.1293 29.4911 20.1928 27.5142 21.7906C26.8867 22.2984 27.9314 23.5698 26.9411 25.4179H23.8525C23.6312 24.1012 25.1075 24.7142 24.6069 22.516C24.6069 22.516 19.906 23.947 12.9796 22.6067C12.9796 22.6067 12.6387 24.56 11.935 25.4233L8.84452 25.436Z" fill="#333333"/>
</svg>
