<svg width="36" height="36" viewBox="0 0 36 36" fill="none" xmlns="http://www.w3.org/2000/svg">
<path d="M20.1794 6H21.2309V13.8848H20.1794V6Z" fill="#333333"/>
<path d="M25.1215 9.43413L29.114 7.29975L28.6188 6.37256L21.8782 9.97747L28.6337 13.5138L29.1214 12.5829L25.1159 10.4856H32.9358V9.43413H25.1215Z" fill="#333333"/>
<path d="M5 25.7751H8.60537V26.8084H5V25.7751Z" fill="#333333"/>
<path d="M25.3946 26.8084H29V25.7751H25.3946V26.8084Z" fill="#333333"/>
<path d="M10.4735 26.8084H12.9929L19.8453 17H17.3314L10.4735 26.8084Z" fill="#333333"/>
<path d="M15.134 26.8084H17.6515L24.5058 17H21.99L15.134 26.8084Z" fill="#333333"/>
<path d="M19.7926 26.8084H22.312L29.1662 17H26.6468L19.7926 26.8084Z" fill="#333333"/>
<path d="M35 28.9043H1V29.9629H35V28.9043Z" fill="#333333"/>
<path d="M7.81445 12.5829L8.30215 13.5138L15.0595 9.97747L8.31884 6.37256L7.82372 7.29975L11.8143 9.43413H4V10.4856H11.8199L7.81445 12.5829Z" fill="#333333"/>
<path d="M16.1794 6H17.2309V13.8848H16.1794V6Z" fill="#333333"/>
</svg>
