<svg width="36" height="36" viewBox="0 0 36 36" fill="none" xmlns="http://www.w3.org/2000/svg">
<path d="M1 7.00012H35V8.05871H1V7.00012Z" fill="#333333"/>
<path d="M4.60537 18.8338H1V19.867H4.60537V18.8338Z" fill="#333333"/>
<path d="M35 19.867H31.3946V18.8338H35V19.867Z" fill="#333333"/>
<path d="M8.99294 19.867H6.47354L13.3314 10.0586H15.8453L8.99294 19.867Z" fill="#333333"/>
<path d="M13.6515 19.867H11.134L17.99 10.0586H20.5058L13.6515 19.867Z" fill="#333333"/>
<path d="M18.312 19.867H15.7926L22.6468 10.0586H25.1662L18.312 19.867Z" fill="#333333"/>
<path d="M22.9688 19.867H20.453L27.309 10.0586H29.8266L22.9688 19.867Z" fill="#333333"/>
<path d="M27.6292 19.867H25.1116L31.9694 10.0586H34.4852L27.6292 19.867Z" fill="#333333"/>
<path d="M21.2309 23H20.1794V30.8848H21.2309V23Z" fill="#333333"/>
<path d="M25.1215 26.4342L29.114 24.2998L28.6188 23.3726L21.8782 26.9775L28.6337 30.5138L29.1214 29.5829L25.1159 27.4856H32.9358V26.4342H25.1215Z" fill="#333333"/>
<path d="M8.30215 30.5138L7.81445 29.5829L11.8199 27.4856H4V26.4342H11.8143L7.82372 24.2998L8.31884 23.3726L15.0595 26.9775L8.30215 30.5138Z" fill="#333333"/>
<path d="M17.2309 23H16.1794V30.8848H17.2309V23Z" fill="#333333"/>
</svg>
