<svg width="36" height="36" viewBox="0 0 36 36" fill="none" xmlns="http://www.w3.org/2000/svg">
<path d="M20.1794 6H21.2309V13.8848H20.1794V6Z" fill="#333333"/>
<path d="M25.1215 9.43413L29.114 7.29975L28.6188 6.37256L21.8782 9.97747L28.6337 13.5138L29.1214 12.5829L25.1159 10.4856H32.9358V9.43413H25.1215Z" fill="#333333"/>
<path d="M1 25.7751H4.60537V26.8084H1V25.7751Z" fill="#333333"/>
<path d="M31.3946 26.8084H35V25.7751H31.3946V26.8084Z" fill="#333333"/>
<path d="M6.47354 26.8084H8.99294L15.8453 17H13.3314L6.47354 26.8084Z" fill="#333333"/>
<path d="M11.134 26.8084H13.6515L20.5058 17H17.99L11.134 26.8084Z" fill="#333333"/>
<path d="M15.7926 26.8084H18.312L25.1662 17H22.6468L15.7926 26.8084Z" fill="#333333"/>
<path d="M20.453 26.8084H22.9688L29.8266 17H27.309L20.453 26.8084Z" fill="#333333"/>
<path d="M25.1116 26.8084H27.6292L34.4852 17H31.9694L25.1116 26.8084Z" fill="#333333"/>
<path d="M35 28.9043H1V29.9629H35V28.9043Z" fill="#333333"/>
<path d="M7.81445 12.5829L8.30215 13.5138L15.0595 9.97747L8.31884 6.37256L7.82372 7.29975L11.8143 9.43413H4V10.4856H11.8199L7.81445 12.5829Z" fill="#333333"/>
<path d="M16.1794 6H17.2309V13.8848H16.1794V6Z" fill="#333333"/>
</svg>
