<svg width="36" height="36" viewBox="0 0 36 36" fill="none" xmlns="http://www.w3.org/2000/svg">
<path d="M33.7058 12.7677H33.4276C32.5675 12.7667 31.7097 12.6819 30.8661 12.5146C30.022 12.3499 29.196 12.1028 28.4002 11.777C26.4257 10.9713 24.2489 10.8031 22.1741 11.2958C21.8428 11.4009 21.5279 11.5522 21.2387 11.7451C21.0994 11.8382 20.9318 11.8795 20.7651 11.8617C20.5985 11.844 20.4434 11.7683 20.3268 11.6479C20.0857 11.395 19.809 11.1787 19.5054 11.0058C18.1219 10.3413 16.6062 9.99749 15.0714 10C14.4865 10.0002 13.9027 10.0501 13.3263 10.1492C12.5773 10.2796 11.8184 10.3452 11.0582 10.3453C10.1657 10.3453 9.27559 10.2554 8.40114 10.0771L1.28331 18.6517L1 20.9768C2.11808 21.2554 3.26584 21.3973 4.4181 21.3993C5.0686 21.3991 5.71832 21.3543 6.36269 21.2652C7.61736 21.0919 8.89424 21.1781 10.1143 21.5184C11.3343 21.8586 12.4715 22.4457 13.4554 23.2433L16.1174 23.7143C16.8962 23.385 17.7328 23.2141 18.5783 23.2114H18.6437C18.8114 23.2114 18.9924 23.198 19.1667 23.198C20.911 23.1971 22.6294 23.6199 24.174 24.4301C25.4373 25.1548 26.8684 25.5357 28.3247 25.5349C28.4924 25.5349 28.66 25.5349 28.8276 25.5198L35 14.8313L33.7058 12.7677ZM21.2354 13.1231C21.4077 12.8761 21.6196 12.6592 21.8623 12.481C22.0413 12.3717 22.2327 12.2839 22.4323 12.2195C23.123 12.0575 23.8301 11.9759 24.5395 11.9764C25.138 11.975 25.7353 12.0312 26.3231 12.1441C26.9107 12.2593 27.4857 12.4317 28.0397 12.6587C28.7228 12.9359 29.4261 13.1601 30.1436 13.3293C30.8603 13.4969 31.5889 13.609 32.3228 13.6645C32.3691 13.6703 32.4116 13.6927 32.4425 13.7276C32.4734 13.7624 32.4904 13.8074 32.4905 13.854C32.4907 13.8875 32.482 13.9205 32.4653 13.9495L27.4094 22.7404C26.7584 22.593 26.1438 22.3159 25.6023 21.9257C23.9689 20.6865 22.0005 19.9674 19.953 19.8621C19.8289 19.8537 19.7032 19.8503 19.5775 19.8503C18.5617 19.8508 17.5586 20.0763 16.6405 20.5108C16.6192 20.5241 16.5947 20.5316 16.5696 20.5324C16.5445 20.5332 16.5196 20.5273 16.4974 20.5154C16.4753 20.5035 16.4567 20.4859 16.4436 20.4645C16.4304 20.4431 16.4232 20.4186 16.4225 20.3935C16.4224 20.3652 16.4312 20.3376 16.4477 20.3147L18.917 16.6099H24.4691C24.6475 16.8215 24.867 16.9948 25.1142 17.1192C25.3615 17.2435 25.6314 17.3165 25.9077 17.3336C26.184 17.3506 26.4608 17.3115 26.7215 17.2185C26.9823 17.1256 27.2214 16.9807 27.4245 16.7926L26.0482 16.4238L25.5453 15.5505L26.4187 15.0475L27.795 15.4163C27.6894 15.0696 27.4922 14.7579 27.2241 14.514C26.956 14.2701 26.627 14.1032 26.2718 14.0309C25.9167 13.9586 25.5486 13.9836 25.2065 14.1033C24.8644 14.2229 24.561 14.4327 24.3283 14.7106H20.1809L21.2354 13.1231ZM8.77833 11.1114C9.53207 11.2342 10.2945 11.2959 11.0582 11.2958C11.8724 11.2955 12.685 11.2254 13.4872 11.0863C14.6908 10.8743 15.9245 10.9039 17.1166 11.1735C17.7877 11.324 18.4399 11.5489 19.0611 11.844C19.535 12.1228 19.9123 12.5399 20.1424 13.0393L19.0377 14.6955H11.4672C11.2876 14.4852 11.0673 14.3135 10.8195 14.1906C10.5718 14.0676 10.3017 13.9961 10.0256 13.9803C9.74952 13.9645 9.47306 14.0047 9.2129 14.0985C8.95274 14.1923 8.71425 14.3378 8.51178 14.5262L9.88472 14.89L10.3876 15.7634L9.51425 16.2663L8.13628 15.8975C8.24089 16.2457 8.43796 16.5592 8.70651 16.8044C8.97507 17.0496 9.30508 17.2174 9.66142 17.29C10.0178 17.3625 10.3871 17.3372 10.7302 17.2165C11.0733 17.0959 11.3772 16.8845 11.6097 16.6049H17.7636L15.0395 20.6986C15.0175 20.7319 14.9886 20.7603 14.9548 20.7817C14.9211 20.8031 14.8831 20.8171 14.8435 20.8228C14.804 20.8285 14.7636 20.8258 14.7252 20.8148C14.6867 20.8037 14.651 20.7847 14.6205 20.7589C13.7892 20.0525 12.8428 19.4939 11.8226 19.1077C10.0838 18.4233 8.19039 18.2302 6.34928 18.5495C5.59974 18.6801 4.84032 18.7457 4.07948 18.7456C3.9504 18.7456 3.82132 18.7456 3.69056 18.7456C3.64813 18.7481 3.60559 18.7481 3.56316 18.7456C3.24651 18.7453 2.93905 18.6391 2.68977 18.4439L8.77833 11.1114ZM27.3491 24.3413C27.3178 24.3829 27.2774 24.4167 27.2308 24.44C27.1842 24.4633 27.1329 24.4754 27.0809 24.4754C27.0619 24.477 27.0428 24.477 27.0239 24.4754C26.5187 24.393 26.0266 24.2442 25.5604 24.0328C24.9558 23.73 24.3579 23.4109 23.7667 23.0756C23.1032 22.7386 22.4066 22.4712 21.688 22.2777C19.8145 21.7151 17.7981 21.8754 16.037 22.727L13.8577 22.3431C12.7847 21.5167 11.5581 20.9121 10.2491 20.5644C8.94023 20.2168 7.57521 20.133 6.23361 20.318C5.63206 20.4018 5.02545 20.4438 4.4181 20.4438H4.31082C3.66694 20.4374 3.02435 20.3847 2.38803 20.2862C2.30504 20.2778 2.22814 20.2389 2.17235 20.1769C2.11655 20.1149 2.08587 20.0343 2.08628 19.9509C2.08516 19.9062 2.09301 19.8617 2.10936 19.82C2.12571 19.7784 2.15022 19.7404 2.18147 19.7084C2.21271 19.6764 2.25005 19.6509 2.29129 19.6335C2.33252 19.6162 2.37681 19.6072 2.42156 19.6073H2.47352C3.00398 19.6667 3.53731 19.697 4.0711 19.6978C4.21191 19.6978 4.35273 19.6978 4.49354 19.6978C5.16799 19.6771 5.84018 19.6094 6.50518 19.4949C7.81436 19.266 9.15749 19.3217 10.4433 19.6581C11.729 19.9945 12.9273 20.6038 13.9566 21.4445L15.9884 21.8033C16.8981 21.3263 17.9099 21.0772 18.9371 21.0774C19.0343 21.0774 19.1299 21.0774 19.2254 21.0774H19.3713C21.4197 21.0756 23.4263 21.6571 25.1564 22.7538C25.7198 23.1345 26.3431 23.4179 27.0004 23.592C27.0759 23.6154 27.1452 23.6554 27.2032 23.709C27.2612 23.7627 27.3065 23.8287 27.3357 23.9021C27.3782 23.9637 27.401 24.0368 27.401 24.1116C27.4083 24.1918 27.3901 24.2721 27.3491 24.3413ZM28.5024 24.1737L28.1168 23.4109L33.3002 14.4357C33.317 14.4075 33.3408 14.3843 33.3693 14.3681C33.3978 14.3519 33.43 14.3434 33.4628 14.3434C33.4955 14.3434 33.5278 14.3519 33.5563 14.3681C33.5848 14.3843 33.6086 14.4075 33.6254 14.4357L33.8249 14.7542C33.8434 14.7845 33.8532 14.8193 33.8534 14.8548C33.8536 14.8883 33.8449 14.9212 33.8282 14.9503L28.5024 24.1737Z" fill="#333333"/>
</svg>
