<svg width="36" height="36" viewBox="0 0 36 36" fill="none" xmlns="http://www.w3.org/2000/svg">
<path d="M23.1977 1H22.2006V21.9384H23.1977V1Z" fill="#333333"/>
<path d="M29.9365 11.2787L25.8605 7.04239L30.0063 2.88341L29.2477 2.12671L24.3396 7.03485L29.1647 12.0241L29.9365 11.2787Z" fill="#333333"/>
<path fill-rule="evenodd" clip-rule="evenodd" d="M15.7204 21.6967L15.7204 4.416L20.0405 4.416L20.0405 21.6967H15.7204Z" fill="#333333"/>
<path d="M13.9762 1H12.9791V21.9384H13.9762V1Z" fill="#333333"/>
<path d="M6.06982 11.2788L6.84161 12.0241L11.6667 7.03485L6.75858 2.12671L6 2.88341L10.1458 7.0424L6.06982 11.2788Z" fill="#333333"/>
<path fill-rule="evenodd" clip-rule="evenodd" d="M29.4313 27.2726L6.49875 27.2726L6.49875 24.5806H29.4313V27.2726Z" fill="#333333"/>
<path d="M15.9851 35L15.8357 32.2562C15.7662 30.916 15.7315 30.0165 15.7315 29.5577H15.7134C15.4297 30.4814 15.1671 31.2722 14.9256 31.9302L13.8208 34.9638H13.2096L12.1909 31.9846C11.8739 31.0368 11.6355 30.2278 11.4755 29.5577H11.4574C11.4393 30.3546 11.4 31.2752 11.3397 32.3196L11.1721 35H10.4024L10.8371 28.7518H11.8649L12.9334 31.7718C13.1809 32.5083 13.3907 33.21 13.5628 33.8771H13.5809C13.7227 33.3398 13.9461 32.6381 14.251 31.7718L15.3603 28.7518H16.3926L16.782 35H15.9851Z" fill="#333333"/>
<path d="M18.0135 28.7518H18.8285V35H18.0135V28.7518Z" fill="#333333"/>
<path d="M21.0018 35H20.2411V28.7518H21.1286L23.1253 31.9121C23.6112 32.6969 23.981 33.3746 24.2346 33.945L24.2617 33.9315C24.2014 33.2372 24.1712 32.3815 24.1712 31.3643V28.7518H24.9318V35H24.1168L22.1292 31.8306C21.61 30.9975 21.2236 30.3018 20.9701 29.7433L20.9429 29.7524C20.9822 30.4346 21.0018 31.2933 21.0018 32.3287V35Z" fill="#333333"/>
</svg>
