<svg width="36" height="36" viewBox="0 0 36 36" fill="none" xmlns="http://www.w3.org/2000/svg">
<path d="M8.16777 24.1149L7.69285 23.28L1 27.1555L7.69285 31.0191L8.16777 30.1858L3.74981 27.6388L14.4719 27.6405V26.6839L3.73291 26.6805L8.16777 24.1149Z" fill="#333333"/>
<path d="M16.2329 17.3879C16.0433 17.3875 15.8579 17.4434 15.7001 17.5485C15.5423 17.6536 15.4192 17.8032 15.3464 17.9782C15.2736 18.1533 15.2544 18.3461 15.2912 18.5321C15.328 18.7181 15.4191 18.889 15.553 19.0232C15.687 19.1574 15.8577 19.2488 16.0437 19.2859C16.2296 19.323 16.4224 19.3041 16.5976 19.2317C16.7728 19.1592 16.9226 19.0363 17.0279 18.8787C17.1333 18.7211 17.1896 18.5358 17.1896 18.3461C17.1896 18.0923 17.0888 17.8488 16.9095 17.6691C16.7301 17.4895 16.4868 17.3883 16.2329 17.3879Z" fill="#333333"/>
<path d="M31.76 15.7434L27.2964 22.0509L28.0823 22.6002L31.1245 18.2954C31.1245 18.4002 31.133 18.505 31.133 18.6115C31.1325 20.7525 30.2817 22.8056 28.7677 24.3193C27.2536 25.8331 25.2003 26.6835 23.0593 26.6835V27.6418C25.4322 27.6416 27.7097 26.7074 29.3992 25.0412C31.0887 23.3751 32.0546 21.1109 32.0879 18.7383L34.1262 23.163L35 22.7658L31.76 15.7434Z" fill="#333333"/>
<path d="M24.91 18.6573C24.91 18.5624 24.8819 18.4696 24.8291 18.3907C24.7764 18.3117 24.7014 18.2502 24.6137 18.2139C24.526 18.1776 24.4295 18.168 24.3364 18.1866C24.2433 18.2051 24.1578 18.2508 24.0906 18.3179C24.0235 18.3851 23.9778 18.4706 23.9593 18.5637C23.9408 18.6568 23.9503 18.7533 23.9866 18.841C24.0229 18.9287 24.0844 19.0037 24.1634 19.0564C24.2423 19.1092 24.3351 19.1373 24.43 19.1373C24.4931 19.1376 24.5557 19.1253 24.614 19.1012C24.6723 19.0772 24.7253 19.0419 24.7699 18.9972C24.8146 18.9526 24.8499 18.8996 24.8739 18.8413C24.898 18.783 24.9103 18.7204 24.91 18.6573Z" fill="#333333"/>
<path d="M24.43 21.2449C25.0015 21.245 25.5575 21.0592 26.0141 20.7156C26.4708 20.3719 26.8032 19.889 26.9612 19.3397C27.1192 18.7905 27.0942 18.2048 26.8901 17.671C26.6859 17.1372 26.3136 16.6843 25.8294 16.3808V10.8034H18.3709C18.7715 9.55778 20.7996 8.01639 22.9342 8.09921H25.9122L27.2863 5.73305H23.5461C21.6193 5.62826 16.6842 6.30431 15.2476 10.7611L15.2375 4.98095H6.99818L9.02631 15.3329L12.6077 15.3228V16.0833L12.1547 16.0951L3.07035 20.2258L3.33232 21.1959H8.88941L11.1288 19.6072H12.2679C12.6044 20.6003 13.301 21.4313 14.2201 21.9361C15.1392 22.4409 16.2142 22.5828 17.2328 22.3339C18.2514 22.0849 19.1398 21.4632 19.7225 20.5914C20.3052 19.7197 20.54 18.6611 20.3805 17.6247H21.9895C21.7935 18.1103 21.7474 18.6434 21.857 19.1555C21.9667 19.6676 22.227 20.1351 22.6047 20.4979C22.8833 20.7946 23.2392 21.0076 23.6323 21.1131C23.8898 21.198 24.1589 21.2425 24.43 21.2449ZM12.0584 18.6286H10.7908L8.55139 20.2038H5.44496L12.2054 17.1058C12.0957 17.4774 12.0388 17.8626 12.0364 18.25C12.0398 18.3785 12.0465 18.5019 12.0584 18.6286ZM16.233 20.53C15.783 20.53 15.3432 20.3966 14.9691 20.1466C14.595 19.8966 14.3034 19.5413 14.1312 19.1257C13.959 18.71 13.914 18.2526 14.0018 17.8113C14.0895 17.37 14.3062 16.9647 14.6244 16.6465C14.9425 16.3284 15.3479 16.1117 15.7891 16.0239C16.2304 15.9361 16.6878 15.9812 17.1035 16.1534C17.5192 16.3256 17.8745 16.6171 18.1245 16.9912C18.3744 17.3653 18.5078 17.8052 18.5078 18.2551C18.507 18.8582 18.267 19.4363 17.8406 19.8627C17.4141 20.2891 16.836 20.5291 16.233 20.53ZM20.1202 16.7036C19.8766 16.0917 19.4921 15.5458 18.9979 15.1104C18.5038 14.675 17.9139 14.3622 17.2762 14.1976C16.6384 14.0329 15.9709 14.021 15.3277 14.1627C14.6845 14.3045 14.0838 14.596 13.5744 15.0135V14.3509H9.81897L8.17111 5.9646H14.2555V11.7735H16.0893C16.0673 10.8862 16.9969 7.82541 21.3067 6.89585C21.9993 6.79432 22.6992 6.75191 23.399 6.76909H25.6165L25.3629 7.08514H22.216C21.0532 7.06486 17.1659 8.43723 17.1879 11.7549H24.8306V16.0089C24.6958 15.9874 24.5597 15.9761 24.4232 15.9751C23.7499 15.9752 23.1024 16.2342 22.6148 16.6985L20.1202 16.7036ZM22.7483 18.6151C22.7483 18.2835 22.8467 17.9593 23.0309 17.6836C23.2151 17.4079 23.477 17.193 23.7833 17.0661C24.0897 16.9392 24.4268 16.906 24.752 16.9707C25.0772 17.0354 25.376 17.1951 25.6105 17.4296C25.8449 17.664 26.0046 17.9628 26.0693 18.288C26.134 18.6132 26.1008 18.9503 25.9739 19.2567C25.847 19.5631 25.6321 19.8249 25.3564 20.0091C25.0807 20.1934 24.7565 20.2917 24.4249 20.2917C23.9804 20.2899 23.5548 20.1118 23.2414 19.7965C22.928 19.4813 22.7525 19.0545 22.7534 18.61L22.7483 18.6151Z" fill="#333333"/>
</svg>
