<svg width="36" height="36" viewBox="0 0 36 36" fill="none" xmlns="http://www.w3.org/2000/svg">
<path d="M7.85299 26.4151L3.62843 23.9789L13.8772 23.9822V23.0678L3.61228 23.0646L7.85299 20.6122L7.39742 19.8142L1 23.5185L7.39742 27.2116L7.85299 26.4151Z" fill="#333333"/>
<path d="M31.9128 12.6105L27.6446 18.6412L28.3958 19.1662L31.3037 15.0499C31.3037 15.1517 31.3037 15.2518 31.3037 15.3536C31.3033 17.4001 30.49 19.3626 29.0428 20.8095C27.5956 22.2564 25.6329 23.0693 23.5864 23.0693V23.9836C25.8544 23.9834 28.0312 23.0904 29.6459 21.4978C31.2606 19.9052 32.1834 17.7409 32.2149 15.4731L34.1632 19.7025L35 19.3229L31.9128 12.6105Z" fill="#333333"/>
<path d="M9.09042 26.055L6.63969 32.9289H8.15181L8.63646 31.5121H11.168L11.609 32.9289H13.1696L10.7463 26.055H9.09042ZM9.01449 30.3247L9.89494 27.6058H9.91433L10.7657 30.3247H9.01449Z" fill="#333333"/>
<path d="M17.6494 30.5832C17.6494 31.4152 17.2472 31.895 16.2617 31.895C15.5913 31.895 15.0355 31.4734 15.0355 30.5154V26.055H13.5719V30.6123C13.5897 31.3005 13.7334 31.8562 14.1066 32.2779C14.7205 32.9564 15.6575 33.1099 16.2892 33.1099C18.0226 33.1099 19.1147 32.3344 19.1147 30.5251V26.055H17.6494V30.5832Z" fill="#333333"/>
<path d="M19.9289 27.2698H22.0064V32.9289H23.441V27.2698H25.5202V26.055H19.9289V27.2698Z" fill="#333333"/>
<path d="M28.9855 25.8723C28.076 25.8723 25.6818 26.2649 25.6818 29.4911C25.6818 32.7173 28.076 33.1098 28.9855 33.1098C29.895 33.1098 32.2892 32.7253 32.2892 29.4943C32.2892 26.2633 29.895 25.8723 28.9855 25.8723ZM28.9855 31.895C28.2101 31.895 27.118 31.4103 27.118 29.4911C27.118 27.5719 28.2101 27.0888 28.9855 27.0888C29.761 27.0888 30.853 27.5735 30.853 29.4911C30.853 31.4087 29.7561 31.895 28.9855 31.895Z" fill="#333333"/>
<path d="M17.4653 14.8595C17.2841 14.8592 17.1068 14.9126 16.956 15.0131C16.8051 15.1136 16.6875 15.2565 16.6179 15.4238C16.5483 15.5912 16.53 15.7754 16.5651 15.9532C16.6003 16.131 16.6874 16.2944 16.8154 16.4226C16.9435 16.5509 17.1067 16.6383 17.2844 16.6738C17.4621 16.7093 17.6464 16.6912 17.8139 16.6219C17.9813 16.5526 18.1245 16.4352 18.2252 16.2846C18.3259 16.1339 18.3797 15.9567 18.3797 15.7755C18.3797 15.5328 18.2834 15.3001 18.112 15.1284C17.9405 14.9566 17.708 14.8599 17.4653 14.8595Z" fill="#333333"/>
<path d="M13.5606 13.6236L4.87727 17.5735L5.12768 18.4992H10.4459L12.5865 16.9822H13.6753C14.2165 18.5557 15.2779 19.6882 17.4653 19.6882C18.0419 19.6889 18.6118 19.565 19.136 19.3249C19.6603 19.0849 20.1264 18.7344 20.5026 18.2975C20.8788 17.8605 21.1561 17.3475 21.3156 16.7934C21.475 16.2393 21.5129 15.6573 21.4265 15.0872H22.971C22.7836 15.5514 22.7396 16.061 22.8444 16.5505C22.9492 17.0399 23.1981 17.4868 23.559 17.8336C23.8253 18.1172 24.1655 18.3208 24.5412 18.4216C24.7885 18.5023 25.0469 18.5432 25.307 18.5428C25.8534 18.5436 26.3852 18.3665 26.822 18.0381C27.2588 17.7098 27.5768 17.2482 27.7279 16.7231C27.879 16.1981 27.855 15.638 27.6596 15.1278C27.4641 14.6175 27.1079 14.1848 26.6446 13.895V8.56381H19.5089C19.8918 7.37318 21.8304 5.89984 23.8708 5.979H26.7173L28.0307 3.71729H24.4556C22.6188 3.61712 17.8967 4.26333 16.5235 8.52342L16.5089 3H8.63818L10.5768 12.895L14 12.8853V13.6123L13.5606 13.6236ZM13.475 16.0468H12.2634L10.1228 17.5509H7.15352L13.6156 14.5897C13.5107 14.9448 13.4563 15.313 13.454 15.6834C13.4572 15.8061 13.4637 15.9241 13.475 16.0452V16.0468ZM17.4653 17.8627C17.0352 17.8627 16.6148 17.7352 16.2572 17.4962C15.8997 17.2573 15.6209 16.9177 15.4564 16.5203C15.2918 16.123 15.2487 15.6858 15.3326 15.264C15.4165 14.8422 15.6236 14.4547 15.9277 14.1506C16.2318 13.8465 16.6193 13.6394 17.0411 13.5555C17.4629 13.4716 17.9001 13.5147 18.2975 13.6793C18.6948 13.8438 19.0344 14.1225 19.2733 14.4801C19.5123 14.8377 19.6398 15.2581 19.6398 15.6882C19.6389 16.2647 19.4096 16.8172 19.002 17.2248C18.5944 17.6325 18.0418 17.8618 17.4653 17.8627ZM26.9031 16.0323C26.9031 16.3493 26.8091 16.6591 26.633 16.9227C26.4569 17.1862 26.2066 17.3916 25.9138 17.5129C25.621 17.6342 25.2988 17.6659 24.9879 17.6041C24.677 17.5423 24.3915 17.3896 24.1673 17.1655C23.9432 16.9414 23.7906 16.6558 23.7287 16.345C23.6669 16.0341 23.6986 15.7119 23.8199 15.419C23.9412 15.1262 24.1466 14.8759 24.4102 14.6998C24.6737 14.5237 24.9836 14.4297 25.3005 14.4297C25.7246 14.4301 26.1312 14.5985 26.4316 14.8979C26.7319 15.1973 26.9014 15.6034 26.9031 16.0275V16.0323ZM11.3393 11.9564L9.75934 3.94023H15.5752V9.49273H17.328C17.307 8.64459 18.1955 5.7189 22.3151 4.83037C22.9771 4.73332 23.6462 4.69279 24.3151 4.70921H26.4346L26.1923 5.01131H23.1842C22.0727 4.99192 18.3571 6.30372 18.3781 9.47496H25.6883V13.5412C25.5594 13.5214 25.4293 13.5106 25.2989 13.5089C24.6553 13.509 24.0364 13.7565 23.5703 14.2003H21.1939C20.9605 13.6159 20.5927 13.0947 20.1203 12.6789C19.6479 12.2631 19.0842 11.9644 18.4748 11.8071C17.8655 11.6498 17.2277 11.6382 16.613 11.7733C15.9984 11.9084 15.4242 12.1864 14.937 12.5848V11.9564H11.3393Z" fill="#333333"/>
<path d="M24.8433 16.0725C24.843 16.1634 24.8697 16.2523 24.92 16.328C24.9702 16.4037 25.0419 16.4628 25.1258 16.4977C25.2097 16.5326 25.3021 16.5419 25.3912 16.5242C25.4804 16.5066 25.5623 16.4628 25.6265 16.3986C25.6908 16.3343 25.7345 16.2524 25.7522 16.1633C25.7698 16.0741 25.7606 15.9817 25.7257 15.8978C25.6908 15.8139 25.6317 15.7423 25.556 15.692C25.4803 15.6417 25.3914 15.615 25.3005 15.6153C25.1794 15.6158 25.0633 15.6641 24.9777 15.7497C24.892 15.8354 24.8437 15.9514 24.8433 16.0725Z" fill="#333333"/>
</svg>
