<svg width="36" height="36" viewBox="0 0 36 36" fill="none" xmlns="http://www.w3.org/2000/svg">
<path d="M8.32242 22.2396L7.83666 21.3883L1.00507 25.343L7.83666 29.2875L8.32242 28.4361L3.73256 25.8116L34.6789 25.8357V24.8573L3.73942 24.8727L8.32242 22.2396Z" fill="#333333"/>
<path d="M19.538 17.2156V17.988L19.0729 18.0001L9.84679 22.1951L10.1128 23.1804H15.7618L18.0361 21.5669H19.7646C20.2526 22.2291 20.9297 22.7278 21.7068 22.9975C22.4839 23.2671 23.3245 23.2949 24.1177 23.0773C24.9109 22.8597 25.6196 22.4068 26.1503 21.7783C26.681 21.1499 27.0088 20.3754 27.0905 19.5569H29.9382L30.0412 19.6736C29.8011 20.0182 29.6632 20.4236 29.6432 20.8431C29.6233 21.2626 29.7221 21.6792 29.9284 22.045C30.1347 22.4109 30.44 22.7111 30.8093 22.9111C31.1786 23.1112 31.5968 23.2029 32.0159 23.1759C32.435 23.1488 32.838 23.004 33.1785 22.7582C33.5189 22.5123 33.7831 22.1753 33.9407 21.786C34.0982 21.3967 34.1426 20.9708 34.0689 20.5574C33.9952 20.1439 33.8063 19.7596 33.5239 19.4488V12.624H25.3878C25.7963 11.3573 27.8561 9.79357 30.0223 9.87768H33.6063L35.0001 7.47461H30.6419C28.6886 7.36647 23.673 8.05306 22.214 12.5811L22.2037 6.71249H13.8359L15.8957 17.2259L19.538 17.2156ZM21.2116 7.70977V13.611H23.074C23.0534 12.7099 24.0609 9.57901 28.438 8.63323C29.1198 8.53427 29.8093 8.49807 30.4977 8.5251H33.2664L33.0519 8.84779L29.3391 8.86839C28.1599 8.84779 24.1691 10.221 24.1897 13.5887H32.5146V19.9139C32.6995 20.0269 32.8516 20.1863 32.9557 20.3763C33.0599 20.5663 33.1125 20.7803 33.1083 20.9969C33.1041 21.2135 33.0432 21.4253 32.9318 21.6111C32.8204 21.7969 32.6622 21.9503 32.4731 22.0561C32.284 22.1618 32.0705 22.2162 31.8538 22.2138C31.6372 22.2114 31.4249 22.1524 31.2381 22.0425C31.0514 21.9326 30.8967 21.7757 30.7894 21.5875C30.6821 21.3993 30.6259 21.1862 30.6265 20.9696C30.625 20.7393 30.6887 20.5133 30.8101 20.3177C30.9316 20.1221 31.106 19.9649 31.3131 19.8642L30.3965 18.6094H26.0727C26.2114 19.3422 26.0805 20.1005 25.7039 20.7443C25.3274 21.3881 24.7306 21.8739 24.0239 22.1122C23.3171 22.3504 22.548 22.3249 21.8586 22.0405C21.1691 21.756 20.6058 21.2318 20.2727 20.5645H17.6859L15.4185 22.1711H12.2584L19.2308 18.975H20.5181V16.2286H16.699L15.0254 7.70977H21.2116Z" fill="#333333"/>
<path d="M6.10824 18.92V20.2932H7.08148V18.92C8.03538 18.8086 8.92378 18.3786 9.60287 17.6995C10.282 17.0204 10.712 16.132 10.8234 15.1781H12.1966V14.2049H10.8234C10.7126 13.2507 10.2827 12.362 9.60354 11.6828C8.92433 11.0036 8.03561 10.5737 7.08148 10.4629V9.08975H6.10824V10.4629C5.15523 10.5749 4.26793 11.0053 3.59004 11.6844C2.91215 12.3635 2.48338 13.2516 2.37318 14.2049H1V15.1781H2.37318C2.48397 16.1311 2.91293 17.0188 3.59071 17.6979C4.26848 18.3769 5.15546 18.8075 6.10824 18.92ZM7.08148 11.4465C7.77532 11.5515 8.41729 11.876 8.91335 12.3724C9.40941 12.8688 9.7335 13.5109 9.83815 14.2049H7.08148V11.4465ZM7.08148 15.1781H9.83815C9.73342 15.8718 9.40927 16.5137 8.91319 17.0098C8.41711 17.5059 7.77518 17.83 7.08148 17.9348V15.1781ZM6.10824 11.4465V14.2049H3.34986C3.45512 13.5109 3.77962 12.8688 4.27593 12.3725C4.77223 11.8762 5.4143 11.5517 6.10824 11.4465ZM6.10824 15.1781V17.9348C5.41444 17.8299 4.77241 17.5057 4.27609 17.0097C3.77977 16.5137 3.45519 15.8718 3.34986 15.1781H6.10824Z" fill="#333333"/>
</svg>
