<svg width="36" height="36" viewBox="0 0 36 36" fill="none" xmlns="http://www.w3.org/2000/svg">
<path d="M32.5114 21.2655V14.7676H21.7432C22.1992 13.5835 23.0032 12.5654 24.0492 11.8473C25.0953 11.1293 26.3344 10.745 27.6032 10.7451H32.809L34.3507 8.07177H27.3109C25.259 8.07657 23.2604 8.72587 21.5975 9.92797C19.9346 11.1301 18.6913 12.8242 18.0434 14.7711H17.6388V7.02026L6.95796 7.03808L9.61524 20.4724H14.4807L14.47 21.8661H13.7732L1 27.678L1.23347 28.3641H9.13939L12.2102 26.2611H14.6464C15.1208 26.9494 15.7554 27.512 16.4956 27.9004C17.2358 28.2889 18.0593 28.4914 18.8953 28.4906C19.6366 28.4917 20.3697 28.3349 21.0457 28.0307C21.7218 27.7265 22.3253 27.2818 22.8161 26.7262L21.95 26.2237C21.485 26.7043 20.9139 27.0691 20.2824 27.289C19.6509 27.5089 18.9767 27.5777 18.3138 27.4898C17.6509 27.402 17.0178 27.1599 16.4654 26.7831C15.913 26.4063 15.4567 25.9052 15.133 25.3201H11.9143L8.87028 27.4124H3.81056L14.0102 22.8196H15.411L15.4217 19.5528L10.4012 19.5368L8.10927 7.96305H16.7067L16.6942 15.7246H18.7491C19.2233 13.8132 20.3227 12.1151 21.8728 10.9003C23.4228 9.68544 25.3344 9.02358 27.3038 9.01991H32.6772L32.2369 9.79517H27.5747C25.9678 9.79593 24.4071 10.3327 23.1397 11.3205C21.8724 12.3083 20.9708 13.6907 20.5777 15.2488C20.5276 15.4032 20.4859 15.5603 20.4529 15.7193H31.5472V21.0053C31.3616 20.9759 31.1738 20.9622 30.9858 20.9643H22.4223L26.0455 18.8595L25.1277 17.2876L17.261 21.8537L25.1277 26.4215L26.042 24.846L22.4918 22.7822H30.993C31.4815 22.782 31.9561 22.9453 32.3411 23.2461C32.7262 23.5468 32.9995 23.9678 33.1175 24.4419C33.2356 24.916 33.1916 25.4159 32.9927 25.8621C32.7937 26.3083 32.4511 26.6751 32.0195 26.9041C31.5879 27.1331 31.0921 27.211 30.6111 27.1256C30.13 27.0401 29.6914 26.7962 29.3651 26.4326C29.0387 26.069 28.8434 25.6066 28.8103 25.1192C28.7772 24.6318 28.9081 24.1472 29.1822 23.7428H27.1808C26.9414 24.4845 26.9236 25.2799 27.1294 26.0316C27.3353 26.7833 27.756 27.4586 28.3399 27.9749C28.9237 28.4911 29.6455 28.8258 30.4168 28.938C31.188 29.0502 31.9753 28.935 32.682 28.6066C33.3888 28.2781 33.9845 27.7506 34.396 27.0888C34.8075 26.4269 35.017 25.6594 34.9989 24.8802C34.9808 24.101 34.7358 23.3441 34.294 22.7021C33.8522 22.06 33.2327 21.5608 32.5114 21.2655Z" fill="#333333"/>
<path d="M31.7914 24.9708C31.7918 24.8128 31.7452 24.6583 31.6577 24.5267C31.5702 24.3952 31.4456 24.2926 31.2998 24.2319C31.1539 24.1712 30.9933 24.1551 30.8383 24.1857C30.6833 24.2163 30.5409 24.2922 30.429 24.4038C30.3172 24.5154 30.241 24.6577 30.21 24.8126C30.1791 24.9675 30.1948 25.1282 30.2551 25.2742C30.3155 25.4202 30.4179 25.545 30.5492 25.6328C30.6805 25.7206 30.835 25.7675 30.993 25.7675C31.2044 25.7675 31.4072 25.6836 31.5569 25.5342C31.7066 25.3849 31.7909 25.1823 31.7914 24.9708Z" fill="#333333"/>
</svg>
