<svg width="36" height="36" viewBox="0 0 36 36" fill="none" xmlns="http://www.w3.org/2000/svg">
<path d="M32.5114 16.331V9.83298H21.7432C22.1991 8.64922 23.0028 7.63128 24.0485 6.91325C25.0942 6.19521 26.3329 5.81076 27.6014 5.81052H32.809L34.3507 3.13719H27.3109C25.259 3.14199 23.2604 3.7913 21.5975 4.9934C19.9346 6.19549 18.6913 7.88964 18.0434 9.83655H17.6388V2.08568L6.95796 2.1035L9.61524 15.5379H14.4807L14.47 16.9316H13.7732L1 22.7434L1.23347 23.4295H9.13939L12.2102 21.3265H14.6464C15.1209 22.0146 15.7555 22.577 16.4957 22.9651C17.236 23.3532 18.0595 23.5554 18.8953 23.5543C19.6365 23.5557 20.3695 23.3992 21.0456 23.0953C21.7216 22.7914 22.3252 22.347 22.8161 21.7917L21.95 21.2891C21.484 21.7679 20.9125 22.1312 20.2812 22.35C19.6498 22.5688 18.9761 22.637 18.3137 22.5493C17.6514 22.4615 17.0187 22.2201 16.4661 21.8445C15.9135 21.4688 15.4564 20.9692 15.1312 20.3855H11.9143L8.87028 22.4778H3.81056L14.0102 17.885H15.411L15.4217 14.6182L10.4012 14.6022L8.10927 3.02848H16.7067L16.6942 10.79H18.7491C19.2233 8.87861 20.3227 7.18052 21.8728 5.96569C23.4228 4.75086 25.3344 4.089 27.3038 4.08533H32.6772L32.2369 4.8606H27.5747C25.9678 4.86136 24.4071 5.39814 23.1397 6.38596C21.8724 7.37377 20.9708 8.75615 20.5777 10.3142C20.5276 10.4686 20.4859 10.6257 20.4529 10.7847H31.5472V16.0707C31.361 16.0412 31.1726 16.0275 30.984 16.0298H22.4223L26.0455 13.925L25.1277 12.353L17.261 16.9191L25.1277 21.4851L26.042 19.9114L22.4918 17.8476H30.9912C31.4798 17.847 31.9546 18.01 32.3399 18.3105C32.7252 18.6111 32.9988 19.0319 33.1172 19.506C33.2356 19.9801 33.1919 20.4801 32.9931 20.9265C32.7943 21.3729 32.4519 21.7399 32.0203 21.9691C31.5887 22.1983 31.0929 22.2764 30.6117 22.1911C30.1306 22.1058 29.6918 21.8619 29.3654 21.4983C29.0389 21.1347 28.8435 20.6724 28.8103 20.1848C28.7771 19.6973 28.9081 19.2127 29.1822 18.8082H27.1808C26.9414 19.5499 26.9236 20.3454 27.1294 21.097C27.3353 21.8487 27.756 22.524 28.3399 23.0403C28.9237 23.5565 29.6455 23.8912 30.4168 24.0034C31.188 24.1156 31.9753 24.0004 32.682 23.672C33.3888 23.3435 33.9845 22.8161 34.396 22.1542C34.8075 21.4923 35.017 20.7248 34.9989 19.9456C34.9808 19.1665 34.7358 18.4095 34.294 17.7675C33.8522 17.1254 33.2327 16.6262 32.5114 16.331Z" fill="#333333"/>
<path d="M31.7914 20.0362C31.7921 19.8782 31.7459 19.7235 31.6587 19.5918C31.5715 19.4601 31.4471 19.3572 31.3014 19.2962C31.1557 19.2351 30.9951 19.2187 30.84 19.249C30.685 19.2792 30.5424 19.3548 30.4303 19.4661C30.3182 19.5775 30.2417 19.7196 30.2104 19.8744C30.1791 20.0293 30.1944 20.19 30.2545 20.3361C30.3145 20.4822 30.4166 20.6073 30.5477 20.6954C30.6789 20.7835 30.8332 20.8307 30.9912 20.831C31.2026 20.8315 31.4056 20.7481 31.5557 20.5991C31.7057 20.4501 31.7905 20.2476 31.7914 20.0362Z" fill="#333333"/>
<path d="M7.45159 25.9228L4.68024 33.695H6.39117L6.92584 32.091H9.79521L10.2924 33.695H12.0568L9.32471 25.9228H7.45159ZM7.36605 30.7508L8.36231 27.6765H8.38369L9.34609 30.7508H7.36605Z" fill="#333333"/>
<path d="M17.1309 31.0431C17.1309 31.9841 16.6764 32.5259 15.5607 32.5259C14.8033 32.5259 14.176 32.05 14.176 30.9664V25.9228H12.5185V31.0752C12.5399 31.854 12.6967 32.4831 13.1262 32.959C13.8177 33.7271 14.8799 33.9 15.5928 33.9C17.5533 33.9 18.7866 33.0231 18.7866 30.9771V25.9228H17.1309V31.0431Z" fill="#333333"/>
<path d="M19.7079 27.2969H22.0569V33.695H23.6805V27.2969H26.0294V25.9228H19.7079V27.2969Z" fill="#333333"/>
<path d="M29.9487 25.7162C28.9203 25.7162 26.206 26.1599 26.206 29.8153C26.206 33.4706 28.9132 33.9144 29.9487 33.9144C30.9841 33.9144 33.6913 33.4706 33.6913 29.8153C33.6913 26.1599 30.977 25.7162 29.9487 25.7162ZM29.9487 32.526C29.0718 32.526 27.8385 31.9914 27.8385 29.8081C27.8385 27.6249 29.0718 27.092 29.9487 27.092C30.8255 27.092 32.0606 27.6267 32.0606 29.8081C32.0606 31.9896 30.8255 32.526 29.9487 32.526Z" fill="#333333"/>
</svg>
