<svg width="36" height="36" viewBox="0 0 36 36" fill="none" xmlns="http://www.w3.org/2000/svg">
<path d="M8.21104 18.2233L7.73403 17.3843L1 21.2816L7.73403 25.1688L8.21104 24.3298L3.68786 21.7451L34.523 21.7671V20.8046L3.69463 20.8182L8.21104 18.2233Z" fill="#333333"/>
<path d="M19.3058 14.0452L10.2206 18.1793L10.4827 19.1502H16.0445L18.2858 17.5602H19.9875C20.4671 18.2171 21.1351 18.7126 21.9028 18.9811C22.6706 19.2495 23.5018 19.2782 24.2862 19.0633C25.0706 18.8485 25.7712 18.4002 26.295 17.778C26.8187 17.1557 27.1409 16.389 27.2189 15.5794H30.0251L30.1249 15.6961C29.8885 16.0358 29.7528 16.4354 29.7334 16.8488C29.714 17.2622 29.8116 17.6727 30.015 18.0331C30.2185 18.3935 30.5195 18.6892 30.8835 18.8861C31.2475 19.0831 31.6597 19.1733 32.0727 19.1465C32.4857 19.1196 32.8828 18.9767 33.2182 18.7343C33.5536 18.4918 33.8138 18.1596 33.9688 17.7759C34.1239 17.3922 34.1675 16.9725 34.0947 16.5651C34.0218 16.1577 33.8355 15.7791 33.5571 15.4728V8.74726H25.5273C25.9282 7.49891 27.9581 5.95791 30.0945 6.0408H33.6247L35 3.67264H30.7136C28.7903 3.56607 23.8459 4.24269 22.4081 8.70498L22.398 2.92159H14.1517L16.1816 13.2823L19.7659 13.2721V14.0333L19.3058 14.0452ZM16.9749 12.2995L15.3256 3.90438H21.4152V9.7199H23.2505C23.2285 8.83184 24.2231 5.74647 28.5366 4.81443C29.2085 4.71687 29.888 4.6812 30.5664 4.70786H33.2932L33.0817 5.02587L29.4179 5.04786C28.2541 5.02756 24.3213 6.3808 24.3432 9.6996H32.5472V15.9329C32.7294 16.0442 32.8792 16.2013 32.9818 16.3884C33.0845 16.5756 33.1363 16.7863 33.1323 16.9998C33.1282 17.2132 33.0684 17.4218 32.9587 17.6049C32.849 17.788 32.6933 17.9393 32.5071 18.0436C32.3208 18.1479 32.1105 18.2016 31.8971 18.1994C31.6837 18.1972 31.4745 18.1393 31.2904 18.0312C31.1063 17.9231 30.9537 17.7688 30.8478 17.5835C30.7418 17.3982 30.6863 17.1884 30.6865 16.9749C30.6853 16.7479 30.7482 16.525 30.8679 16.3321C30.9875 16.1391 31.1592 15.9837 31.3631 15.8839L30.4599 14.6474H26.2124C26.3499 15.3697 26.2213 16.1175 25.8504 16.7524C25.4796 17.3874 24.8914 17.8666 24.1947 18.1017C23.4979 18.3368 22.7396 18.3117 22.0599 18.0313C21.3802 17.7508 20.8249 17.2337 20.4967 16.5757H17.9475L15.7062 18.1573H12.5972L19.4699 15.006H20.7386V12.2995H16.9749Z" fill="#333333"/>
<path d="M9.09907 25.7575L6.56175 32.889H8.12981L8.62713 31.4191H11.2541L11.7108 32.889H13.3313L10.8109 25.7575H9.09907ZM9.01956 30.1877L9.933 27.3679H9.9533L10.838 30.1877H9.01956Z" fill="#333333"/>
<path d="M17.9797 30.4498C17.9797 31.3142 17.5619 31.8031 16.5385 31.8031C15.8432 31.8031 15.2681 31.3667 15.2681 30.3737V25.7575H13.7457V30.4854C13.766 31.2009 13.9149 31.7777 14.3023 32.2141C14.9383 32.9195 15.9109 33.0785 16.5672 33.0785C18.3653 33.0785 19.497 32.2733 19.497 30.3974V25.7575H17.9746L17.9797 30.4498Z" fill="#333333"/>
<path d="M20.3428 27.0125H22.4995V32.8821H23.9897V27.0125H26.1448V25.7506H20.3428V27.0125Z" fill="#333333"/>
<path d="M29.741 25.5629C28.7971 25.5629 26.3139 25.9689 26.3139 29.3164C26.3139 32.664 28.7971 33.0717 29.741 33.0717C30.6849 33.0717 33.1681 32.664 33.1681 29.3164C33.1681 25.9689 30.6849 25.5629 29.741 25.5629ZM29.741 31.8098C28.9358 31.8098 27.8042 31.3141 27.8042 29.3164C27.8042 27.3187 28.9358 26.8231 29.741 26.8231C30.5462 26.8231 31.6778 27.3204 31.6778 29.3164C31.6778 31.3124 30.5445 31.8098 29.741 31.8098Z" fill="#333333"/>
</svg>
