<svg width="36" height="36" viewBox="0 0 36 36" fill="none" xmlns="http://www.w3.org/2000/svg">
<path d="M10.9091 21.425L6.82488 19.0599H13.7013V17.0196H6.82488L10.9091 14.6544L9.89165 12.8887L1 18.0406L9.89165 23.1908L10.9091 21.425Z" fill="#333333"/>
<path d="M33.2881 22.5324V15.7277H25.2129C25.6025 14.8918 26.2156 14.1798 26.9845 13.6706C27.7535 13.1614 28.6482 12.8746 29.5699 12.8422H33.5016L35 10.2366H28.9275C27.3377 10.2999 25.809 10.8657 24.5611 11.8527C23.3133 12.8397 22.4106 14.197 21.9828 15.7295H21.8034V9.79156H13.7982L15.6394 20.2695H19.3665V21.3157H18.2898L9.72297 25.5076L9.90242 26.2057H16.0736L18.3096 24.6337H20.1399C20.5835 25.2634 21.2119 25.7396 21.9381 25.9962C22.6643 26.2529 23.4524 26.2774 24.1931 26.0662C24.9339 25.855 25.5906 25.4187 26.0723 24.8177C26.5541 24.2167 26.8369 23.4807 26.8818 22.7118H29.9127L30.1513 22.9505C29.9332 23.2851 29.8156 23.6752 29.8126 24.0746C29.8096 24.4741 29.9213 24.866 30.1344 25.2038C30.3475 25.5416 30.653 25.8112 31.0148 25.9805C31.3766 26.1499 31.7793 26.2118 32.1752 26.159C32.5712 26.1063 32.9436 25.941 33.2484 25.6828C33.5532 25.4246 33.7775 25.0844 33.8947 24.7026C34.0118 24.3207 34.017 23.9132 33.9094 23.5286C33.8019 23.1439 33.5863 22.7981 33.2881 22.5324ZM31.9009 25.1738C31.6354 25.172 31.3799 25.0721 31.1836 24.8934C30.9872 24.7146 30.8639 24.4696 30.8372 24.2055C30.8105 23.9413 30.8823 23.6766 31.0389 23.4621C31.1955 23.2477 31.4258 23.0987 31.6856 23.0438L30.3397 21.6943H25.7495C25.9707 22.353 25.9287 23.0716 25.6322 23.7C25.3357 24.3284 24.8077 24.8178 24.1587 25.0658C23.5097 25.3138 22.7899 25.3012 22.1499 25.0307C21.5099 24.7602 20.9993 24.2528 20.7249 23.6144H17.9812L15.7452 25.1864H12.6946L18.5195 22.3368H20.3804V19.2485H16.4935L15.0095 10.8144H20.7859V16.7488H22.7975C23.0314 15.2637 23.7716 13.9052 24.8928 12.9038C26.014 11.9023 27.4471 11.3194 28.949 11.2541H33.2396L32.9148 11.8211H29.552C28.1791 11.8673 26.8633 12.381 25.8222 13.2771C24.7812 14.1733 24.0775 15.3981 23.8276 16.7488H32.2706V23.0886C32.5064 23.1768 32.7038 23.3447 32.8286 23.5633C32.9534 23.7819 32.9977 24.0373 32.9537 24.2851C32.9098 24.533 32.7804 24.7576 32.5881 24.9199C32.3958 25.0823 32.1526 25.1721 31.9009 25.1738Z" fill="#333333"/>
</svg>
