<svg width="36" height="36" viewBox="0 0 36 36" fill="none" xmlns="http://www.w3.org/2000/svg">
<path d="M32.8852 14.92H21.5796C22.1187 13.6941 22.9926 12.6452 24.1011 11.8938C25.2096 11.1424 26.5075 10.7189 27.8459 10.672H33.369L35 7.84564H27.0146C24.9127 7.93855 22.888 8.66436 21.2058 9.92793C19.5236 11.1915 18.2625 12.9339 17.5877 14.9266H17.3449V6.89464H6.51482L9.0087 21.0583H14.0497V22.4748H12.5866L1 28.1376L1.25271 29.0836H9.58064L12.6066 26.9588H15.0838C15.6821 27.8154 16.5326 28.464 17.5169 28.8144C18.5012 29.1649 19.5703 29.1996 20.5753 28.9138C21.5803 28.6281 22.4711 28.036 23.1238 27.2201C23.7764 26.4042 24.1584 25.405 24.2164 24.3618H28.318L28.6422 24.6943C28.3466 25.1477 28.1872 25.6764 28.1832 26.2176C28.1793 26.7589 28.3308 27.2899 28.6197 27.7475C28.9087 28.2052 29.323 28.5702 29.8134 28.7993C30.3038 29.0283 30.8496 29.1118 31.3861 29.0397C31.9225 28.9676 32.4269 28.743 32.8395 28.3926C33.252 28.0422 33.5552 27.5807 33.7131 27.063C33.8709 26.5452 33.8769 25.9931 33.7301 25.4721C33.5833 24.9511 33.2901 24.4833 32.8852 24.1241V14.92ZM31.1029 28.1209C30.6991 28.1197 30.3063 27.9891 29.9822 27.7483C29.658 27.5075 29.4196 27.1691 29.3019 26.7829C29.1842 26.3966 29.1933 25.9828 29.3281 25.6021C29.4628 25.2214 29.716 24.894 30.0505 24.6677L28.8019 23.4175H23.3269C23.3607 23.6325 23.3779 23.8499 23.3785 24.0675C23.3806 24.9775 23.0788 25.8621 22.5209 26.5809C21.9629 27.2997 21.1809 27.8116 20.2988 28.0353C19.4168 28.2589 18.4853 28.1816 17.6523 27.8155C16.8192 27.4493 16.1323 26.8155 15.7006 26.0144H12.4054L9.3778 28.1376H3.2445L12.8992 23.4175H15.0855V20.1122H9.89154L7.73017 7.83899H16.4987V15.8726H18.3824C18.8953 13.9139 20.0208 12.1703 21.5947 10.8965C23.1685 9.62262 25.1083 8.88513 27.131 8.79166H33.4671L32.9218 9.72104H27.934C26.1737 9.77945 24.4809 10.4124 23.114 11.5231C21.7472 12.6339 20.7814 14.1615 20.3642 15.8726H32.0373V24.6012C32.3984 24.8079 32.6812 25.128 32.8417 25.5119C33.0023 25.8957 33.0315 26.3219 32.925 26.7241C32.8185 27.1263 32.5821 27.4821 32.2526 27.7362C31.9231 27.9903 31.519 28.1285 31.1029 28.1293V28.1209Z" fill="#333333"/>
</svg>
