<svg width="36" height="36" viewBox="0 0 36 36" fill="none" xmlns="http://www.w3.org/2000/svg">
<path d="M31.6323 2.97931C30.9243 2.78763 30.1699 2.8724 29.5221 3.21642C28.8743 3.56044 28.3816 4.13796 28.1439 4.83186L22.5188 21.1592L3.93404 20.1839C3.74748 20.1373 3.55586 20.1139 3.36356 20.1144C2.96073 20.1133 2.56435 20.2156 2.21225 20.4113C1.86015 20.607 1.56407 20.8896 1.35225 21.2323C1.14043 21.5749 1.01994 21.9661 1.00227 22.3685C0.984601 22.771 1.07035 23.1712 1.25133 23.5311L6.13829 33.121H27.1625L35 3.88105L31.6323 2.97931ZM25.3856 30.8023H7.55939L3.54145 22.9177C3.52057 22.8772 3.50937 22.8324 3.50873 22.7868C3.50873 22.7098 3.53932 22.636 3.59378 22.5815C3.64823 22.5271 3.72208 22.4965 3.79909 22.4965H3.8134L24.1424 23.5618L30.3339 5.58842C30.3731 5.47431 30.447 5.37532 30.5453 5.3053C30.6435 5.23527 30.7612 5.19771 30.8819 5.19787C30.9329 5.19781 30.9837 5.20399 31.0332 5.21627L32.1619 5.51889L25.3856 30.8023Z" fill="#333333"/>
</svg>
