<svg width="36" height="36" viewBox="0 0 36 36" fill="none" xmlns="http://www.w3.org/2000/svg">
<path d="M1 18.1786V6.52979H3.12512V16.0704H6.05089V10.5013H8.17227V16.0704H11.1018V10.5013H13.2194V16.0704H16.1415V10.5013H18.2666V16.0704H21.1886V10.5013H23.3137V16.0704H26.2358V6.52979H28.3609V16.0704H31.281V10.5013H33.408V16.0704H35V18.1786H22.7824V29.4702H21.7199V18.1786H17.7353V29.4702H16.6727V18.1786H1ZM11.9979 21.1063L14.6393 23.7402L11.9979 26.3686L12.7461 27.1169L16.1415 23.7402L12.7499 20.358L12.0016 21.1063H11.9979ZM27.4611 26.3686L26.7128 27.1169L23.3137 23.7402L26.7053 20.3599L27.4536 21.1082L24.8159 23.7402L27.4573 26.3704" fill="#333333"/>
</svg>
