<svg width="36" height="36" viewBox="0 0 36 36" fill="none" xmlns="http://www.w3.org/2000/svg">
<path d="M11.3609 30.9731H19.126V28.3793H11.3609V30.9731ZM32.0753 18.0056L28.2676 14.1906V16.1776H25.3118C24.0225 16.1655 22.7356 16.1045 21.4512 15.9948V13.911C23.0354 14.0328 24.6196 14.0986 26.2039 14.1084V9.17291L35 18.0056L26.1947 26.8291V21.8937H25.7524C24.3156 21.8937 22.8806 21.9601 21.4475 22.0929V20.0054C22.7332 19.892 24.0201 19.8311 25.3082 19.8226H28.2658V21.8114L32.0753 18.0056ZM1 9.4142C3.55476 10.9234 6.24206 12.1961 9.02839 13.2163V10.999C6.61266 10.0699 4.27877 8.94054 2.05108 7.6228L1 9.4142ZM19.126 20.4112C19.1257 20.1126 19.0368 19.8209 18.8707 19.5728C18.7045 19.3248 18.4686 19.1315 18.1927 19.0175C17.9167 18.9035 17.6132 18.8739 17.3204 18.9324C17.0277 18.9908 16.7588 19.1348 16.5478 19.346C16.3369 19.5572 16.1932 19.8263 16.1351 20.1191C16.077 20.412 16.107 20.7155 16.2213 20.9912C16.3357 21.267 16.5292 21.5027 16.7775 21.6686C17.0257 21.8344 17.3176 21.9229 17.6161 21.9229C18.0167 21.9224 18.4008 21.7629 18.6839 21.4795C18.967 21.196 19.126 20.8118 19.126 20.4112ZM14.3733 20.4112C14.373 20.1122 14.284 19.82 14.1175 19.5716C13.9511 19.3232 13.7148 19.1298 13.4384 19.0157C13.1621 18.9016 12.8581 18.872 12.5649 18.9307C12.2717 18.9894 12.0025 19.1337 11.7914 19.3454C11.5802 19.557 11.4366 19.8266 11.3786 20.1199C11.3206 20.4132 11.3509 20.7171 11.4657 20.9932C11.5804 21.2693 11.7745 21.5052 12.0233 21.671C12.2721 21.8368 12.5645 21.9251 12.8634 21.9247C13.062 21.9245 13.2585 21.8852 13.4418 21.809C13.6251 21.7328 13.7916 21.6212 13.9319 21.4807C14.0721 21.3401 14.1832 21.1733 14.259 20.9898C14.3347 20.8063 14.3736 20.6097 14.3733 20.4112ZM14.3733 25.1346C14.373 24.8356 14.284 24.5435 14.1175 24.2951C13.9511 24.0467 13.7148 23.8532 13.4384 23.7391C13.1621 23.625 12.8581 23.5955 12.5649 23.6541C12.2717 23.7128 12.0025 23.8571 11.7914 24.0688C11.5802 24.2805 11.4366 24.55 11.3786 24.8433C11.3206 25.1366 11.3509 25.4406 11.4657 25.7167C11.5804 25.9927 11.7745 26.2286 12.0233 26.3944C12.2721 26.5602 12.5645 26.6485 12.8634 26.6482C13.2633 26.6458 13.6459 26.4852 13.9278 26.2016C14.2097 25.9181 14.3679 25.5345 14.3678 25.1346H14.3733ZM19.1297 25.1346C19.1293 24.8354 19.0402 24.5429 18.8737 24.2942C18.7072 24.0456 18.4707 23.8519 18.1941 23.7376C17.9175 23.6233 17.6132 23.5936 17.3197 23.6522C17.0263 23.7108 16.7567 23.8551 16.5452 24.0669C16.3338 24.2786 16.1898 24.5483 16.1315 24.8418C16.0733 25.1354 16.1034 25.4396 16.218 25.7161C16.3326 25.9925 16.5266 26.2288 16.7754 26.3951C17.0243 26.5613 17.3169 26.65 17.6161 26.65C18.0177 26.6495 18.4027 26.4897 18.6865 26.2055C18.9703 25.9214 19.1297 25.5362 19.1297 25.1346ZM1 26.597C3.55436 25.084 6.24167 23.8076 9.02839 22.7839V25.0012C6.61294 25.9317 4.27912 27.0616 2.05108 28.3793L1 26.597ZM14.3678 15.5909C14.3675 15.2919 14.2785 14.9997 14.1121 14.7513C13.9457 14.5029 13.7093 14.3094 13.433 14.1953C13.1566 14.0813 12.8526 14.0517 12.5594 14.1104C12.2662 14.1691 11.9971 14.3134 11.7859 14.525C11.5747 14.7367 11.4311 15.0062 11.3731 15.2996C11.3151 15.5929 11.3454 15.8968 11.4602 16.1729C11.5749 16.449 11.769 16.6848 12.0178 16.8507C12.2666 17.0165 12.559 17.1048 12.858 17.1044C13.0565 17.1042 13.253 17.0648 13.4363 16.9886C13.6196 16.9124 13.7862 16.8009 13.9264 16.6603C14.0666 16.5198 14.1777 16.353 14.2535 16.1695C14.3292 15.986 14.3681 15.7894 14.3678 15.5909ZM19.1205 15.5909C19.1202 15.2923 19.0313 15.0006 18.8652 14.7525C18.6991 14.5045 18.4631 14.3112 18.1872 14.1972C17.9113 14.0832 17.6077 14.0536 17.315 14.112C17.0222 14.1705 16.7533 14.3144 16.5423 14.5257C16.3314 14.7369 16.1877 15.006 16.1296 15.2988C16.0715 15.5916 16.1015 15.8951 16.2159 16.1709C16.3302 16.4467 16.5237 16.6824 16.772 16.8482C17.0202 17.0141 17.3121 17.1026 17.6106 17.1026C17.8091 17.1026 18.0056 17.0635 18.1889 16.9875C18.3722 16.9115 18.5387 16.8001 18.6789 16.6597C18.8192 16.5193 18.9304 16.3526 19.0061 16.1692C19.0819 15.9858 19.1208 15.7893 19.1205 15.5909ZM19.1205 10.8674C19.1202 10.5681 19.0311 10.2757 18.8646 10.027C18.698 9.77838 18.4615 9.58467 18.1849 9.47039C17.9083 9.35611 17.6041 9.3264 17.3106 9.38501C17.0171 9.44361 16.7476 9.58791 16.5361 9.79966C16.3246 10.0114 16.1806 10.2811 16.1224 10.5746C16.0641 10.8682 16.0942 11.1724 16.2088 11.4489C16.3234 11.7253 16.5174 11.9616 16.7663 12.1278C17.0152 12.2941 17.3077 12.3828 17.607 12.3828C17.8059 12.384 18.0031 12.346 18.1873 12.2709C18.3715 12.1958 18.5391 12.0852 18.6806 11.9453C18.822 11.8054 18.9344 11.639 19.0115 11.4556C19.0886 11.2723 19.1287 11.0755 19.1297 10.8766L19.1205 10.8674ZM14.3678 10.8766C14.3671 10.5777 14.2778 10.2857 14.1112 10.0375C13.9445 9.78935 13.7081 9.59615 13.4317 9.48235C13.1553 9.36855 12.8514 9.33924 12.5583 9.39813C12.2652 9.45702 11.9962 9.60147 11.7852 9.81321C11.5743 10.025 11.4308 10.2945 11.373 10.5878C11.3151 10.881 11.3456 11.1849 11.4604 11.4608C11.5752 11.7368 11.7692 11.9726 12.018 12.1383C12.2667 12.304 12.559 12.3923 12.858 12.3919C13.0566 12.3917 13.2533 12.3523 13.4368 12.276C13.6202 12.1997 13.7868 12.088 13.927 11.9472C14.0672 11.8065 14.1784 11.6395 14.254 11.4558C14.3296 11.2721 14.3683 11.0752 14.3678 10.8766ZM11.3609 5.0271H19.126V7.6228H11.3609V5.0271Z" fill="#333333"/>
</svg>
