<svg width="36" height="36" viewBox="0 0 36 36" fill="none" xmlns="http://www.w3.org/2000/svg">
<path d="M7.47221 5.55493H17.2717V8.12159H7.47221V5.55493ZM7.47221 27.8786H17.2717V30.4452H7.47221V27.8786ZM11.4351 10.7143C11.4351 10.4395 11.3536 10.1709 11.2009 9.94246C11.0483 9.714 10.8313 9.53593 10.5775 9.43078C10.3236 9.32563 10.0443 9.29812 9.77478 9.35173C9.50529 9.40533 9.25775 9.53765 9.06346 9.73194C8.86916 9.92623 8.73685 10.1738 8.68325 10.4433C8.62964 10.7127 8.65715 10.9921 8.7623 11.2459C8.86745 11.4998 9.04552 11.7168 9.27398 11.8694C9.50244 12.0221 9.77104 12.1035 10.0458 12.1035C10.4143 12.1035 10.7676 11.9572 11.0282 11.6966C11.2887 11.4361 11.4351 11.0827 11.4351 10.7143ZM16.0839 10.7143C16.0839 10.4395 16.0024 10.1709 15.8497 9.94246C15.6971 9.714 15.4801 9.53593 15.2263 9.43078C14.9724 9.32563 14.6931 9.29812 14.4236 9.35173C14.1541 9.40533 13.9066 9.53765 13.7123 9.73194C13.518 9.92623 13.3857 10.1738 13.3321 10.4433C13.2784 10.7127 13.306 10.9921 13.4111 11.2459C13.5163 11.4998 13.6943 11.7168 13.9228 11.8694C14.1512 12.0221 14.4198 12.1035 14.6946 12.1035C15.0631 12.1035 15.4164 11.9572 15.677 11.6966C15.9375 11.4361 16.0839 11.0827 16.0839 10.7143ZM11.4351 15.5906C11.4351 15.3158 11.3536 15.0472 11.2009 14.8188C11.0483 14.5903 10.8313 14.4122 10.5775 14.3071C10.3236 14.2019 10.0443 14.1744 9.77478 14.228C9.50529 14.2816 9.25775 14.4139 9.06346 14.6082C8.86916 14.8025 8.73685 15.0501 8.68325 15.3196C8.62964 15.589 8.65715 15.8684 8.7623 16.1222C8.86745 16.3761 9.04552 16.5931 9.27398 16.7457C9.50244 16.8984 9.77104 16.9798 10.0458 16.9798C10.4143 16.9798 10.7676 16.8335 11.0282 16.5729C11.2887 16.3124 11.4351 15.959 11.4351 15.5906ZM16.0839 15.5906C16.0839 15.3158 16.0024 15.0472 15.8497 14.8188C15.6971 14.5903 15.4801 14.4122 15.2263 14.3071C14.9724 14.2019 14.6931 14.1744 14.4236 14.228C14.1541 14.2816 13.9066 14.4139 13.7123 14.6082C13.518 14.8025 13.3857 15.0501 13.3321 15.3196C13.2784 15.589 13.306 15.8684 13.4111 16.1222C13.5163 16.3761 13.6943 16.5931 13.9228 16.7457C14.1512 16.8984 14.4198 16.9798 14.6946 16.9798C15.0631 16.9798 15.4164 16.8335 15.677 16.5729C15.9375 16.3124 16.0839 15.959 16.0839 15.5906ZM11.4351 20.4217C11.4351 20.147 11.3536 19.8784 11.2009 19.6499C11.0483 19.4214 10.8313 19.2434 10.5775 19.1382C10.3236 19.0331 10.0443 19.0056 9.77478 19.0592C9.50529 19.1128 9.25775 19.2451 9.06346 19.4394C8.86916 19.6337 8.73685 19.8812 8.68325 20.1507C8.62964 20.4202 8.65715 20.6995 8.7623 20.9534C8.86745 21.2072 9.04552 21.4242 9.27398 21.5769C9.50244 21.7295 9.77104 21.811 10.0458 21.811C10.4143 21.811 10.7676 21.6646 11.0282 21.4041C11.2887 21.1436 11.4351 20.7902 11.4351 20.4217ZM16.0839 20.4217C16.0839 20.147 16.0024 19.8784 15.8497 19.6499C15.6971 19.4214 15.4801 19.2434 15.2263 19.1382C14.9724 19.0331 14.6931 19.0056 14.4236 19.0592C14.1541 19.1128 13.9066 19.2451 13.7123 19.4394C13.518 19.6337 13.3857 19.8812 13.3321 20.1507C13.2784 20.4202 13.306 20.6995 13.4111 20.9534C13.5163 21.2072 13.6943 21.4242 13.9228 21.5769C14.1512 21.7295 14.4198 21.811 14.6946 21.811C15.0631 21.811 15.4164 21.6646 15.677 21.4041C15.9375 21.1436 16.0839 20.7902 16.0839 20.4217ZM11.4351 25.2529C11.4351 24.9781 11.3536 24.7095 11.2009 24.481C11.0483 24.2526 10.8313 24.0745 10.5775 23.9694C10.3236 23.8642 10.0443 23.8367 9.77478 23.8903C9.50529 23.9439 9.25775 24.0762 9.06346 24.2705C8.86916 24.4648 8.73685 24.7124 8.68325 24.9818C8.62964 25.2513 8.65715 25.5307 8.7623 25.7845C8.86745 26.0384 9.04552 26.2554 9.27398 26.408C9.50244 26.5607 9.77104 26.6421 10.0458 26.6421C10.4143 26.6421 10.7676 26.4958 11.0282 26.2352C11.2887 25.9747 11.4351 25.6213 11.4351 25.2529ZM16.0839 25.2529C16.0839 24.9781 16.0024 24.7095 15.8497 24.481C15.6971 24.2526 15.4801 24.0745 15.2263 23.9694C14.9724 23.8642 14.6931 23.8367 14.4236 23.8903C14.1541 23.9439 13.9066 24.0762 13.7123 24.2705C13.518 24.4648 13.3857 24.7124 13.3321 24.9818C13.2784 25.2513 13.306 25.5307 13.4111 25.7845C13.5163 26.0384 13.6943 26.2554 13.9228 26.408C14.1512 26.5607 14.4198 26.6421 14.6946 26.6421C15.0631 26.6421 15.4164 26.4958 15.677 26.2352C15.9375 25.9747 16.0839 25.6213 16.0839 25.2529ZM1.42372 17.3775L1 15.3127L7.00854 14.1979V16.3408L1.42546 17.3827L1.42372 17.3775ZM1.0191 21.0347L1.36642 18.9509L6.98597 19.7948V21.8961L1.02605 21.0278L1.0191 21.0347ZM17.8448 14.276V12.1539L22.5682 11.3221L22.992 13.3869L17.8448 14.276ZM17.8309 20.9913V23.1221L22.5196 23.9626L22.9416 21.8978L17.8239 20.9913H17.8309ZM23.9853 14.4844C24.2784 14.5838 24.5857 14.6349 24.8953 14.6355C25.3478 14.6352 25.7936 14.5257 26.1948 14.3165C26.5961 14.1072 26.941 13.8043 27.2003 13.4335C27.4596 13.0626 27.6257 12.6346 27.6844 12.1859C27.7432 11.7372 27.6929 11.281 27.5378 10.8558C27.3827 10.4307 27.1274 10.0492 26.7936 9.7437C26.4597 9.43821 26.0571 9.21771 25.6199 9.1009C25.1827 8.98409 24.7237 8.9744 24.282 9.07267C23.8403 9.17094 23.4287 9.37426 23.0823 9.6654L22.6394 7.46516C23.3 7.13086 24.0277 6.95061 24.7679 6.93796C25.5081 6.92532 26.2416 7.0806 26.9132 7.39214C27.5847 7.70368 28.177 8.16339 28.6454 8.7367C29.1137 9.31001 29.4461 9.98203 29.6175 10.7022C29.7888 11.4225 29.7947 12.1722 29.6347 12.895C29.4747 13.6178 29.1529 14.2949 28.6936 14.8756C28.2343 15.4562 27.6493 15.9251 26.9827 16.2472C26.3161 16.5692 25.5852 16.736 24.8449 16.735C24.699 16.735 24.5514 16.735 24.4038 16.7142L23.9853 14.4861V14.4844ZM24.1919 20.4165C24.6574 20.2529 25.1579 20.2152 25.6427 20.3073C26.1274 20.3994 26.5792 20.618 26.9523 20.9409C27.3253 21.2639 27.6064 21.6797 27.767 22.1462C27.9277 22.6127 27.9621 23.1134 27.8669 23.5976C27.7717 24.0817 27.5503 24.5321 27.225 24.9031C26.8997 25.2741 26.4821 25.5525 26.0145 25.7101C25.547 25.8678 25.046 25.899 24.5625 25.8007C24.079 25.7025 23.63 25.4781 23.2611 25.1504L22.8096 27.3871C23.4665 27.7291 24.1924 27.9173 24.9327 27.9375C25.6729 27.9578 26.4081 27.8095 27.0827 27.5039C27.7572 27.1984 28.3535 26.7435 28.8264 26.1737C29.2994 25.6038 29.6367 24.934 29.8128 24.2147C29.9889 23.4954 29.9992 22.7455 29.8429 22.0216C29.6867 21.2978 29.368 20.6189 28.9109 20.0363C28.4538 19.4537 27.8703 18.9825 27.2044 18.6585C26.5385 18.3345 25.8077 18.1661 25.0672 18.1659C24.9152 18.1656 24.7634 18.1732 24.6122 18.1885L24.1937 20.4165H24.1919ZM31.3449 21.9569L30.9819 19.873C31.5399 19.6806 32.0242 19.3192 32.3675 18.8392C32.7108 18.3591 32.8962 17.784 32.8979 17.1938C32.8997 16.6036 32.7176 16.0274 32.3771 15.5454C32.0366 15.0633 31.5544 14.6992 30.9976 14.5035L31.4473 12.4387C32.4814 12.7423 33.3881 13.3753 34.0293 14.2416C34.6706 15.1078 35.0113 16.1598 34.9997 17.2374C34.9881 18.3151 34.6248 19.3595 33.9651 20.2117C33.3053 21.064 32.3853 21.6774 31.3449 21.9586" fill="#333333"/>
</svg>
