<svg width="36" height="36" viewBox="0 0 36 36" fill="none" xmlns="http://www.w3.org/2000/svg">
<path d="M27.6782 19.0131C27.9446 19.0149 28.204 18.9275 28.415 18.7647C29.2314 18.1407 29.9023 17.3466 30.3811 16.4374C30.8598 15.5282 31.1351 14.5257 31.1876 13.4995C31.2402 12.4733 31.0689 11.448 30.6855 10.4946C30.3021 9.54125 29.7159 8.68272 28.9676 7.97859C28.2969 7.34362 27.5063 6.84889 26.6421 6.5234C25.7778 6.19792 24.8572 6.04823 23.9343 6.0831C22.3289 6.13888 20.7912 6.74368 19.5779 7.79654C19.3351 8.00813 19.1863 8.30753 19.1642 8.62886C19.1421 8.95019 19.2485 9.26714 19.4601 9.50998C19.6717 9.75281 19.9711 9.90165 20.2925 9.92374C20.6138 9.94583 20.9307 9.83937 21.1736 9.62778C21.9648 8.93773 22.9688 8.54006 24.0179 8.50119C24.6207 8.47799 25.2221 8.57555 25.7867 8.78815C26.3513 9.00075 26.8677 9.32408 27.3055 9.73915C27.7969 10.2017 28.1818 10.7657 28.4336 11.3918C28.6853 12.018 28.7979 12.6914 28.7635 13.3654C28.729 14.0394 28.5484 14.6979 28.2342 15.2951C27.9199 15.8924 27.4795 16.4141 26.9436 16.8242C26.7414 16.9782 26.5927 17.1918 26.5183 17.4349C26.444 17.6779 26.4477 17.9381 26.5291 18.1789C26.6105 18.4197 26.7653 18.6289 26.9718 18.777C27.1784 18.9251 27.4262 19.0047 27.6803 19.0046L27.6782 19.0131Z" fill="#333333"/>
<path d="M23.6259 10.3324C23.0384 10.3627 22.473 10.5659 22.0006 10.9164C21.5282 11.2669 21.1698 11.7492 20.9706 12.3027C20.7713 12.8562 20.7399 13.4562 20.8805 14.0274C21.021 14.5986 21.3272 15.1156 21.7605 15.5134C22.1938 15.9113 22.735 16.1722 23.3162 16.2636C23.8973 16.3549 24.4924 16.2725 25.0269 16.0268C25.5614 15.7811 26.0114 15.3829 26.3203 14.8823C26.6293 14.3817 26.7835 13.801 26.7636 13.2131C26.7485 12.8174 26.6552 12.4285 26.4889 12.0691C26.3227 11.7096 26.0869 11.3866 25.7952 11.1188C25.5035 10.8509 25.1615 10.6436 24.7892 10.5086C24.4169 10.3736 24.0215 10.3137 23.6259 10.3324Z" fill="#333333"/>
<path d="M34.9924 12.7935C34.947 11.3567 34.6185 9.94306 34.0257 8.63353C33.4328 7.324 32.5873 6.14437 31.5377 5.16225C29.6568 3.39162 27.2056 2.35073 24.6254 2.22704C22.0451 2.10335 19.5056 2.90499 17.464 4.48759C17.2083 4.68469 17.0415 4.97528 17.0001 5.2954C16.9587 5.61553 17.0462 5.93898 17.2433 6.1946C17.4405 6.45021 17.731 6.61706 18.0512 6.65843C18.3713 6.6998 18.6947 6.61231 18.9504 6.4152C20.5347 5.18628 22.506 4.56382 24.5089 4.66003C26.5117 4.75624 28.4142 5.5648 29.8735 6.93994C30.7909 7.80229 31.5069 8.85623 31.9706 10.0268C32.4343 11.1973 32.6343 12.4556 32.5564 13.7123C32.4785 14.9689 32.1245 16.1929 31.5198 17.2972C30.915 18.4014 30.0743 19.3589 29.0575 20.1013C28.8092 20.2949 28.6459 20.5775 28.6019 20.8892C28.5579 21.201 28.6368 21.5177 28.8218 21.7725C29.0068 22.0272 29.2836 22.2002 29.5937 22.2548C29.9038 22.3094 30.223 22.2415 30.4839 22.0653C31.9383 21.0082 33.1103 19.6096 33.8965 17.9926C34.6828 16.3757 35.0591 14.5902 34.9924 12.7935Z" fill="#333333"/>
<path d="M26.5002 31.0374C26.4986 31.1219 26.4641 31.2025 26.4042 31.262C26.3442 31.3216 26.2635 31.3555 26.179 31.3566H3.74793C3.66363 31.3555 3.5831 31.3215 3.52349 31.2619C3.46389 31.2023 3.42991 31.1217 3.4288 31.0374V8.6064C3.42991 8.52211 3.46389 8.44158 3.52349 8.38197C3.5831 8.32236 3.66363 8.28839 3.74793 8.28728H13.0455L14.4933 5.85634H3.74793C3.01911 5.85747 2.3205 6.14764 1.80534 6.6632C1.29019 7.17875 1.00057 7.87759 1 8.6064V31.0374C1.00113 31.7659 1.29101 32.4642 1.8061 32.9793C2.32119 33.4944 3.01948 33.7842 3.74793 33.7854H26.179C26.9076 33.7848 27.6062 33.4951 28.1214 32.9799C28.6366 32.4647 28.9263 31.7661 28.9269 31.0374V24.1516L26.5002 25.2867V31.0374Z" fill="#333333"/>
<path d="M9.29517 17.4221L4.64105 29.5361H6.35448L7.68454 25.8672H12.7392L14.1528 29.5361H15.9776L11.0215 17.4221H9.29517ZM8.13646 24.5607L9.46865 21.0075C9.74212 20.2541 9.95695 19.4808 10.1112 18.6943C10.2997 19.3497 10.5852 20.1864 10.9679 21.2045L12.2337 24.5607H8.13646Z" fill="#333333"/>
<path d="M18.2051 21.9197C17.6625 22.605 17.3919 23.7273 17.3934 25.2866C17.3934 26.8729 17.6397 27.9767 18.1323 28.5978C18.3602 28.8961 18.6558 29.1359 18.9947 29.2976C19.3336 29.4592 19.706 29.5379 20.0813 29.5273C20.4393 29.5437 20.796 29.4745 21.1219 29.3255C21.4478 29.1765 21.7335 28.952 21.9554 28.6706C22.498 27.9852 22.7693 26.8601 22.7693 25.2951C22.7693 23.7302 22.5001 22.6115 21.9618 21.9389C21.7388 21.6572 21.452 21.4325 21.125 21.2835C20.798 21.1345 20.4403 21.0655 20.0813 21.0822C19.7246 21.0633 19.3685 21.1293 19.0423 21.2749C18.7161 21.4205 18.4292 21.6415 18.2051 21.9197ZM19.216 23.2305C19.2618 22.9801 19.3846 22.7502 19.5673 22.5729C19.7114 22.4526 19.8936 22.3873 20.0813 22.3887C20.2678 22.3874 20.4485 22.4527 20.5911 22.5729C20.7833 22.774 20.9122 23.0273 20.9616 23.3011C21.0848 23.9611 21.1337 24.6328 21.1072 25.3037C21.1326 25.9966 21.078 26.6902 20.9445 27.3705C20.8979 27.6202 20.7761 27.8497 20.5953 28.0281C20.4507 28.1472 20.2687 28.2116 20.0813 28.2101C19.8948 28.2124 19.7135 28.1487 19.5694 28.0302C19.3812 27.8313 19.2547 27.5821 19.2053 27.3127C19.0833 26.6533 19.0344 25.9824 19.0597 25.3123C19.0322 24.6175 19.0847 23.9218 19.216 23.239V23.2305Z" fill="#333333"/>
</svg>
