<svg width="36" height="36" viewBox="0 0 36 36" fill="none" xmlns="http://www.w3.org/2000/svg">
<path d="M27.6782 19.0131C27.9446 19.0149 28.204 18.9275 28.415 18.7647C29.2314 18.1407 29.9023 17.3466 30.3811 16.4374C30.8598 15.5282 31.1351 14.5257 31.1876 13.4995C31.2402 12.4733 31.0689 11.448 30.6855 10.4946C30.3021 9.54125 29.7159 8.68272 28.9676 7.97859C28.297 7.34362 27.5063 6.84889 26.6421 6.5234C25.7778 6.19792 24.8572 6.04823 23.9343 6.0831C22.3289 6.13888 20.7912 6.74368 19.5779 7.79654C19.3351 8.00813 19.1863 8.30753 19.1642 8.62886C19.1421 8.95019 19.2485 9.26714 19.4601 9.50998C19.6717 9.75281 19.9711 9.90165 20.2925 9.92374C20.6138 9.94583 20.9307 9.83937 21.1736 9.62778C21.9648 8.93773 22.9688 8.54006 24.0179 8.50119C24.6207 8.47799 25.2221 8.57555 25.7867 8.78815C26.3513 9.00075 26.8677 9.32408 27.3055 9.73915C27.7969 10.2017 28.1818 10.7657 28.4336 11.3918C28.6853 12.018 28.7979 12.6914 28.7635 13.3654C28.729 14.0394 28.5484 14.6979 28.2342 15.2951C27.9199 15.8924 27.4795 16.4141 26.9436 16.8242C26.7414 16.9782 26.5927 17.1918 26.5183 17.4349C26.444 17.6779 26.4477 17.9381 26.5291 18.1789C26.6105 18.4197 26.7653 18.6289 26.9718 18.777C27.1784 18.9251 27.4262 19.0047 27.6803 19.0046L27.6782 19.0131Z" fill="#333333"/>
<path d="M26.7637 13.2133C26.7531 12.6108 26.5634 12.0251 26.2187 11.5308C25.874 11.0365 25.39 10.656 24.8283 10.4378C24.2666 10.2195 23.6526 10.1735 23.0646 10.3054C22.4766 10.4374 21.9412 10.7414 21.5267 11.1788C21.1121 11.6161 20.8371 12.167 20.7367 12.7612C20.6363 13.3554 20.7151 13.966 20.963 14.5152C21.2109 15.0645 21.6167 15.5275 22.1287 15.8453C22.6407 16.1631 23.2358 16.3213 23.838 16.2997C24.6347 16.2767 25.3898 15.939 25.9381 15.3606C26.4864 14.7822 26.7833 14.0101 26.7637 13.2133Z" fill="#333333"/>
<path d="M10.0362 24.0334C10.0429 23.6557 9.9411 23.284 9.74277 22.9625C9.55964 22.6667 9.283 22.4406 8.95673 22.32C8.44611 22.1738 7.91528 22.1109 7.38465 22.1336H4.5125V28.9338H5.87682V26.0895H6.15311C6.38475 26.0798 6.61652 26.1051 6.84063 26.1645C6.99729 26.2253 7.13743 26.3222 7.24971 26.4472C7.5099 26.7655 7.75023 27.0996 7.96936 27.4474L8.95458 28.9274H10.5866L9.7599 27.6016C9.53412 27.2114 9.27469 26.8416 8.98457 26.4965C8.77012 26.272 8.52408 26.0801 8.25422 25.9267C8.75976 25.8817 9.23312 25.6594 9.5907 25.2992C9.89308 24.9483 10.0521 24.4963 10.0362 24.0334ZM8.49624 24.631C8.40385 24.7665 8.26897 24.8675 8.11286 24.918C7.70837 24.993 7.29647 25.0203 6.88561 24.9993H5.87682V23.2859H6.94772C7.50031 23.2859 7.83228 23.2859 7.94151 23.3095C8.13968 23.3338 8.32268 23.428 8.45769 23.575C8.58382 23.7317 8.64854 23.9289 8.63974 24.1298C8.64347 24.3075 8.59346 24.4822 8.49624 24.631Z" fill="#333333"/>
<path d="M15.9626 23.2774V22.1273H11.3299V28.9275H12.6963V26.0382H15.5149V24.888H12.6963V23.2774H15.9626Z" fill="#333333"/>
<path d="M18.4085 22.1273H17.0441V28.9296H18.4085V22.1273Z" fill="#333333"/>
<path d="M23.4889 22.2561C23.0681 22.1566 22.6359 22.1134 22.2038 22.1276H19.7043V28.9278H22.2745C22.682 28.9407 23.0892 28.8924 23.4824 28.7843C23.8398 28.6805 24.1678 28.4942 24.4398 28.2403C24.7734 27.904 25.0217 27.4927 25.1637 27.0409C25.3131 26.573 25.3854 26.084 25.3779 25.593C25.3927 25.0488 25.3204 24.5058 25.1637 23.9845C25.0324 23.5751 24.8131 23.1993 24.5212 22.8836C24.2408 22.5842 23.8838 22.3672 23.4889 22.2561ZM23.8251 26.7774C23.7661 27.0239 23.6435 27.2506 23.4696 27.4349C23.3122 27.5731 23.1231 27.6702 22.9191 27.7177C22.6469 27.7705 22.3695 27.792 22.0924 27.7819H21.0665V23.2841H21.679C22.0536 23.2717 22.4285 23.2932 22.7992 23.3484C23.0392 23.3933 23.2618 23.5046 23.4417 23.6697C23.6232 23.854 23.7557 24.0808 23.8273 24.3293C23.9339 24.7228 23.9808 25.13 23.9665 25.5373C23.9749 25.9557 23.9244 26.3731 23.8166 26.7774H23.8251Z" fill="#333333"/>
<path d="M34.9924 12.7935C34.947 11.3567 34.6185 9.94306 34.0257 8.63353C33.4328 7.324 32.5873 6.14437 31.5377 5.16225C29.6568 3.39162 27.2056 2.35073 24.6254 2.22704C22.0451 2.10335 19.5056 2.90499 17.464 4.48759C17.2083 4.68469 17.0415 4.97528 17.0001 5.2954C16.9587 5.61553 17.0462 5.93898 17.2433 6.1946C17.4405 6.45021 17.731 6.61706 18.0512 6.65843C18.3713 6.6998 18.6947 6.61231 18.9504 6.4152C20.5347 5.18628 22.506 4.56382 24.5089 4.66003C26.5117 4.75624 28.4142 5.5648 29.8735 6.93994C30.7909 7.80229 31.5069 8.85623 31.9706 10.0268C32.4343 11.1973 32.6343 12.4556 32.5564 13.7123C32.4785 14.9689 32.1245 16.1929 31.5198 17.2972C30.9151 18.4014 30.0743 19.3589 29.0575 20.1013C28.8092 20.2949 28.6459 20.5775 28.6019 20.8892C28.5579 21.201 28.6368 21.5177 28.8218 21.7725C29.0068 22.0272 29.2836 22.2002 29.5937 22.2548C29.9038 22.3094 30.223 22.2415 30.4839 22.0653C31.9383 21.0082 33.1103 19.6096 33.8965 17.9926C34.6828 16.3757 35.0591 14.5902 34.9924 12.7935Z" fill="#333333"/>
<path d="M26.5002 31.0374C26.4986 31.1219 26.4641 31.2025 26.4042 31.262C26.3442 31.3216 26.2635 31.3555 26.179 31.3566H3.74793C3.66363 31.3555 3.5831 31.3215 3.52349 31.2619C3.46389 31.2023 3.42991 31.1217 3.4288 31.0374V8.6064C3.42991 8.52211 3.46389 8.44158 3.52349 8.38197C3.5831 8.32236 3.66363 8.28839 3.74793 8.28728H13.0455L14.4933 5.85634H3.74793C3.01911 5.85747 2.3205 6.14764 1.80534 6.6632C1.29019 7.17875 1.00057 7.87759 1 8.6064V31.0374C1.00113 31.7659 1.29101 32.4642 1.8061 32.9793C2.32119 33.4944 3.01948 33.7842 3.74793 33.7854H26.179C26.9076 33.7848 27.6062 33.4951 28.1214 32.9799C28.6366 32.4647 28.9263 31.7661 28.9269 31.0374V24.1516L26.5002 25.2867V31.0374Z" fill="#333333"/>
</svg>
