<svg width="36" height="36" viewBox="0 0 36 36" fill="none" xmlns="http://www.w3.org/2000/svg">
<path d="M27.6782 19.0131C27.9447 19.0149 28.2041 18.9275 28.415 18.7647C29.2314 18.1407 29.9023 17.3466 30.3811 16.4374C30.8599 15.5282 31.1351 14.5257 31.1877 13.4995C31.2402 12.4733 31.0689 11.448 30.6855 10.4946C30.3022 9.54125 29.716 8.68272 28.9676 7.97859C28.297 7.34362 27.5064 6.84889 26.6421 6.5234C25.7778 6.19792 24.8573 6.04823 23.9344 6.0831C22.3289 6.13888 20.7912 6.74368 19.578 7.79654C19.3351 8.00813 19.1863 8.30753 19.1642 8.62886C19.1421 8.95019 19.2486 9.26714 19.4602 9.50998C19.6718 9.75281 19.9712 9.90165 20.2925 9.92374C20.6138 9.94583 20.9308 9.83937 21.1736 9.62778C21.9648 8.93773 22.9688 8.54006 24.0179 8.50119C24.6208 8.47799 25.2222 8.57555 25.7868 8.78815C26.3514 9.00075 26.8677 9.32408 27.3056 9.73915C27.797 10.2017 28.1819 10.7657 28.4336 11.3918C28.6854 12.018 28.7979 12.6914 28.7635 13.3654C28.7291 14.0394 28.5485 14.6979 28.2342 15.2951C27.92 15.8924 27.4796 16.4141 26.9436 16.8242C26.7414 16.9782 26.5927 17.1918 26.5183 17.4349C26.444 17.6779 26.4478 17.9381 26.5291 18.1789C26.6105 18.4197 26.7653 18.6289 26.9719 18.777C27.1784 18.9251 27.4262 19.0047 27.6804 19.0046L27.6782 19.0131Z" fill="#333333"/>
<path d="M23.6259 10.3324C23.0385 10.3627 22.473 10.5659 22.0006 10.9164C21.5282 11.2669 21.1699 11.7492 20.9706 12.3027C20.7713 12.8562 20.74 13.4562 20.8805 14.0274C21.021 14.5986 21.3272 15.1156 21.7605 15.5134C22.1939 15.9113 22.7351 16.1722 23.3162 16.2636C23.8973 16.3549 24.4925 16.2725 25.0269 16.0268C25.5614 15.7811 26.0114 15.3829 26.3204 14.8823C26.6293 14.3817 26.7836 13.801 26.7637 13.2131C26.7486 12.8174 26.6552 12.4285 26.489 12.0691C26.3227 11.7096 26.087 11.3866 25.7952 11.1188C25.5035 10.8509 25.1616 10.6436 24.7892 10.5086C24.4169 10.3736 24.0215 10.3137 23.6259 10.3324Z" fill="#333333"/>
<path d="M34.9924 12.7935C34.9471 11.3567 34.6185 9.94306 34.0257 8.63353C33.4328 7.324 32.5874 6.14437 31.5377 5.16225C29.6569 3.39162 27.2056 2.35073 24.6254 2.22704C22.0452 2.10335 19.5056 2.90499 17.464 4.48759C17.2084 4.68469 17.0415 4.97528 17.0001 5.2954C16.9588 5.61553 17.0463 5.93898 17.2434 6.1946C17.4405 6.45021 17.7311 6.61706 18.0512 6.65843C18.3713 6.6998 18.6948 6.61231 18.9504 6.4152C20.5348 5.18628 22.5061 4.56382 24.5089 4.66003C26.5117 4.75624 28.4143 5.5648 29.8735 6.93994C30.7909 7.80229 31.5069 8.85623 31.9706 10.0268C32.4343 11.1973 32.6343 12.4556 32.5564 13.7123C32.4785 14.9689 32.1246 16.1929 31.5198 17.2972C30.9151 18.4014 30.0744 19.3589 29.0575 20.1013C28.8092 20.2949 28.6459 20.5775 28.6019 20.8892C28.558 21.201 28.6368 21.5177 28.8218 21.7725C29.0069 22.0272 29.2836 22.2002 29.5937 22.2548C29.9038 22.3094 30.223 22.2415 30.484 22.0653C31.9383 21.0082 33.1103 19.6096 33.8965 17.9926C34.6828 16.3757 35.0591 14.5902 34.9924 12.7935Z" fill="#333333"/>
<path d="M26.5003 31.0374C26.4986 31.1219 26.4642 31.2025 26.4042 31.262C26.3442 31.3216 26.2635 31.3555 26.179 31.3566H3.74796C3.66366 31.3555 3.58313 31.3215 3.52352 31.2619C3.46392 31.2023 3.42994 31.1217 3.42883 31.0374V8.6064C3.42994 8.52211 3.46392 8.44158 3.52352 8.38197C3.58313 8.32236 3.66366 8.28839 3.74796 8.28728H13.0455L14.4933 5.85634H3.74796C3.01914 5.85747 2.32053 6.14764 1.80537 6.6632C1.29022 7.17875 1.0006 7.87759 1.00003 8.6064V31.0374C1.00116 31.7659 1.29104 32.4642 1.80613 32.9793C2.32122 33.4944 3.01951 33.7842 3.74796 33.7854H26.179C26.9076 33.7848 27.6062 33.4951 28.1214 32.9799C28.6367 32.4647 28.9263 31.7661 28.9269 31.0374V24.1516L26.5003 25.2867V31.0374Z" fill="#333333"/>
<path d="M9.2952 17.4221L4.64108 29.5361H6.35451L7.68457 25.8672H12.7392L14.1528 29.5361H15.9776L11.0215 17.4221H9.2952ZM8.13649 24.5607L9.46869 21.0075C9.74216 20.2541 9.95698 19.4808 10.1112 18.6943C10.2997 19.3497 10.5853 20.1864 10.9679 21.2045L12.2337 24.5607H8.13649Z" fill="#333333"/>
<path d="M17.3934 23.6908C18.1916 23.905 19.0369 24.0978 19.9293 24.2691C19.3197 24.887 18.7475 25.5407 18.2158 26.2267L19.4388 27.107C19.9444 26.4014 20.3941 25.6573 20.7838 24.8817C21.3293 25.8198 21.8019 26.5616 22.2017 27.107L23.4461 26.2267C22.9004 25.5318 22.3026 24.8795 21.6577 24.2755C22.5318 24.1706 23.393 23.9769 24.2279 23.6973L23.7502 22.2258C22.9166 22.4928 22.1034 22.8199 21.3172 23.2047C21.4599 22.1766 21.5392 21.3199 21.5549 20.6345H20.0621C20.0621 21.1028 20.1335 21.9596 20.2762 23.2047C19.5019 22.8113 18.6968 22.4818 17.8689 22.2194L17.3934 23.6908Z" fill="#333333"/>
</svg>
