<svg width="36" height="36" viewBox="0 0 36 36" fill="none" xmlns="http://www.w3.org/2000/svg">
<path d="M35 19.5482V14.9146H30.3664V16.4627H22.372C22.1817 15.9253 21.8944 15.4273 21.5243 14.9936L27.8397 4.0337L23.822 1.71143L21.5052 5.73179L22.8435 6.50588L18.8477 13.4318C18.2875 13.3264 17.7125 13.3264 17.1523 13.4318L10.8397 2.48552L6.82476 4.80779L9.14157 8.82542L10.4799 8.05406L14.4757 14.9827C14.1064 15.4165 13.82 15.9145 13.6308 16.4518H1V21.0855H5.63364V19.5482H13.628C13.8181 20.0849 14.1055 20.582 14.4757 21.0146L8.16306 31.9664L12.1752 34.2886L14.4921 30.2683L13.1538 29.4942L17.1523 22.5628C17.7125 22.6682 18.2875 22.6682 18.8477 22.5628L25.1631 33.5145L29.178 31.195L26.8584 27.1746L25.531 27.946L21.5243 21.0146C21.8946 20.582 22.1819 20.0849 22.372 19.5482H35ZM17.9918 19.5482C17.686 19.5493 17.3867 19.4597 17.1317 19.2909C16.8766 19.122 16.6774 18.8814 16.559 18.5994C16.4406 18.3174 16.4083 18.0066 16.4664 17.7063C16.5244 17.406 16.6701 17.1296 16.885 16.9121C17.0999 16.6945 17.3745 16.5454 17.6741 16.4837C17.9736 16.422 18.2847 16.4504 18.5682 16.5653C18.8516 16.6802 19.0947 16.8765 19.2666 17.1295C19.4386 17.3824 19.5319 17.6806 19.5346 17.9864C19.5346 18.3961 19.3722 18.789 19.083 19.0792C18.7939 19.3694 18.4015 19.5331 17.9918 19.5346V19.5482Z" fill="#333333"/>
</svg>
