<svg width="36" height="36" viewBox="0 0 36 36" fill="none" xmlns="http://www.w3.org/2000/svg">
<path d="M13.8787 8.19303L14.3664 9.12393L21.1237 5.58763L14.3831 1.98272L13.8879 2.90991L17.8786 5.0443H10.0642V6.09573H17.8841L13.8787 8.19303Z" fill="#333333"/>
<path d="M27.1856 5.0443L31.1781 2.90991L30.683 1.98272L23.9423 5.58763L30.6978 9.12393L31.1855 8.19303L27.1801 6.09573H35V5.0443H27.1856Z" fill="#333333"/>
<path d="M31.0854 20.8733H25.5223C25.3912 20.5023 25.1911 20.1594 24.9326 19.8627L29.2996 12.3098L26.5681 10.7336L24.9919 13.4651L25.9024 13.9899L23.1208 18.8113C22.739 18.7407 22.3474 18.7407 21.9656 18.8113L17.593 11.2528L14.8615 12.829L16.4395 15.5605L17.3482 15.0357L20.1297 19.8571C19.8794 20.153 19.6858 20.4924 19.5586 20.8585H10.8171V24.0109H13.9806V22.9613H19.5679C19.6968 23.318 19.889 23.6484 20.1353 23.9368L15.7682 31.5212L18.4997 33.0992L20.076 30.3677L19.1729 29.8522L21.9544 25.016C22.3326 25.0865 22.7205 25.0865 23.0986 25.016L27.4731 32.5781L30.2027 31.0019L28.6302 28.2778L27.7216 28.8045L24.94 23.9516C25.1896 23.664 25.385 23.3335 25.5167 22.9762H34.249V19.8237H31.0965L31.0854 20.8733ZM22.533 22.9725C22.3251 22.9725 22.1218 22.9108 21.9489 22.7953C21.776 22.6797 21.6412 22.5155 21.5616 22.3234C21.482 22.1313 21.4612 21.9199 21.5018 21.7159C21.5424 21.512 21.6425 21.3246 21.7895 21.1776C21.9366 21.0305 22.1239 20.9304 22.3279 20.8898C22.5318 20.8492 22.7433 20.8701 22.9354 20.9496C23.1275 21.0292 23.2917 21.164 23.4072 21.3369C23.5228 21.5098 23.5844 21.7131 23.5844 21.921C23.5844 22.1999 23.4737 22.4673 23.2765 22.6645C23.0793 22.8617 22.8119 22.9725 22.533 22.9725Z" fill="#333333"/>
<path d="M23.2952 1.61011H22.2438V9.49492H23.2952V1.61011Z" fill="#333333"/>
<path d="M1.37284 30.0711L2.30003 30.5681L4.43442 26.5756V34.39H5.48585V26.5701L7.58315 30.5755L8.51405 30.0878L4.97775 23.3323L1.37284 30.0711Z" fill="#333333"/>
<path d="M8.51405 13.756L7.58315 13.2683L5.48585 17.2738V9.45204H4.43442V17.2682L2.30003 13.2758L1.37284 13.7709L4.97775 20.5115L8.51405 13.756Z" fill="#333333"/>
<path d="M8.88481 21.1589H1V22.2103H8.88481V21.1589Z" fill="#333333"/>
</svg>
