<svg width="36" height="36" viewBox="0 0 36 36" fill="none" xmlns="http://www.w3.org/2000/svg">
<path d="M21.6847 8.34771L22.1507 9.15501L29.2112 5.07751L22.1507 1L21.6847 1.8073L26.5416 4.61151H15.7071V5.54679H26.535L21.6847 8.34771Z" fill="#333333"/>
<path d="M20.9544 26.3807L20.0109 24.7563L19.2036 25.2223L16.7981 21.048C17.0218 20.7866 17.1953 20.4862 17.3101 20.1619H24.9334V17.3725H22.144V18.3061H17.3101C17.1953 17.9818 17.0218 17.6815 16.7981 17.4201L20.6065 10.8239L18.1863 9.4193L16.7866 11.8412L17.5939 12.3072L15.1852 16.4815C14.8474 16.418 14.5007 16.418 14.1629 16.4815L10.3562 9.8853L7.93427 11.2833L9.33227 13.7052L10.1396 13.2392L12.5483 17.4086C12.325 17.6696 12.1515 17.9694 12.0364 18.293H4.42285V21.0824H7.21229V20.1488H12.038C12.1521 20.4734 12.3257 20.7739 12.55 21.0349L8.74156 27.6311L11.1635 29.0291L12.5598 26.6072L11.7542 26.1412L14.1629 21.9669C14.5007 22.0303 14.8474 22.0303 15.1852 21.9669L18.6309 27.9445L8.28048 35.0001H25.9869C27.4697 34.9997 28.8916 34.4103 29.94 33.3617C30.9883 32.313 31.5772 30.8909 31.5772 29.4081V19.1544L20.9544 26.3807ZM14.6601 20.1455C14.4758 20.1455 14.2956 20.0909 14.1423 19.9884C13.989 19.886 13.8696 19.7405 13.799 19.5702C13.7285 19.3999 13.71 19.2125 13.746 19.0317C13.782 18.8509 13.8707 18.6848 14.0011 18.5545C14.1314 18.4241 14.2975 18.3354 14.4783 18.2994C14.6591 18.2635 14.8465 18.2819 15.0168 18.3525C15.1871 18.423 15.3326 18.5425 15.435 18.6957C15.5374 18.849 15.5921 19.0292 15.5921 19.2135C15.5904 19.4596 15.4914 19.6949 15.3168 19.8683C15.1422 20.0417 14.9061 20.139 14.6601 20.139V20.1455ZM29.7149 29.4147C29.714 30.4031 29.321 31.3509 28.622 32.0498C27.9231 32.7488 26.9753 33.1418 25.9869 33.1427H14.3369L29.7165 22.6839L29.7149 29.4147Z" fill="#333333"/>
</svg>
