<svg width="36" height="36" viewBox="0 0 36 36" fill="none" xmlns="http://www.w3.org/2000/svg">
<path d="M14.9511 4.62087H4.06543L8.95361 1.80647L8.47631 1L1.38269 5.07842L8.47631 9.15848L8.95361 8.35037L4.08024 5.55242H14.9593L14.9511 4.62087ZM23.944 26.3856L23.0026 24.7612L22.1928 25.2269L19.7718 21.0514C19.9958 20.7899 20.1694 20.4891 20.2836 20.1643H27.9352V17.3663H25.1257V18.2979H20.2836C20.1694 17.9736 19.9958 17.6733 19.7718 17.4124L23.6017 10.8093L21.1691 9.4103L19.7652 11.833L20.575 12.2988L18.149 16.471C17.8099 16.4096 17.4626 16.4096 17.1236 16.471L13.2987 9.87607L10.8661 11.275L12.27 13.6977L13.0814 13.232L15.5024 17.4075C15.2779 17.6683 15.1038 17.9685 14.9889 18.293H7.33903V21.0909H10.1468V20.1577H14.9889C15.1038 20.4821 15.2779 20.7824 15.5024 21.0432L11.6758 27.6414L14.1084 29.0387L15.514 26.6177L14.7026 26.1503L17.1236 21.9747C17.4624 22.0384 17.8102 22.0384 18.149 21.9747L21.6168 27.9541L11.2134 35H29.0001C30.487 35.0026 31.914 34.4146 32.9674 33.3652C34.0208 32.3158 34.6143 30.891 34.6174 29.4041V19.1488L23.944 26.3856ZM17.6536 20.1972C17.469 20.1969 17.2887 20.1418 17.1354 20.039C16.9821 19.9362 16.8628 19.7903 16.7924 19.6196C16.7221 19.449 16.704 19.2613 16.7403 19.0803C16.7766 18.8994 16.8658 18.7333 16.9965 18.603C17.1273 18.4727 17.2937 18.3841 17.4748 18.3484C17.6559 18.3127 17.8435 18.3315 18.0139 18.4025C18.1843 18.4734 18.3298 18.5933 18.4321 18.7469C18.5343 18.9006 18.5887 19.0811 18.5884 19.2657C18.5854 19.5116 18.4856 19.7464 18.3106 19.9193C18.1356 20.0921 17.8995 20.189 17.6536 20.189V20.1972ZM32.7444 29.4321C32.7422 30.4183 32.3485 31.3633 31.6497 32.0593C30.9509 32.7552 30.0044 33.1452 29.0182 33.1435H17.2964L32.7444 22.6808V29.4321Z" fill="#333333"/>
</svg>
