<svg width="36" height="36" viewBox="0 0 36 36" fill="none" xmlns="http://www.w3.org/2000/svg">
<path d="M29.9528 14.3345V11.9385H24.6411V14.3345H11.3589V11.9385H6.04718V14.3345H1V34.2981H35V14.3345H29.9528ZM32.8761 32.1685H3.12582V16.4641H32.8761V32.1685Z" fill="#333333"/>
<path d="M11.6253 21.5207H5.24975V23.1174H11.6253V21.5207Z" fill="#333333"/>
<path d="M24.3747 23.1193H26.7669V25.5134H28.3599V23.1193H30.7502V21.5207H28.3599V19.1247H26.7669V21.5207H24.3747V23.1193Z" fill="#333333"/>
<path d="M12.8036 5.7356C12.8036 5.07327 13.0438 4.54979 13.7962 4.54979C14.7531 4.54979 14.7531 5.26841 14.7531 5.78063V9.42999H16.3498V5.79189C16.3498 5.07327 16.635 4.54979 17.4343 4.54979C17.9015 4.54979 18.3011 4.84624 18.3011 5.74686V9.42999H19.8978V5.23276C19.8978 3.89872 18.9728 3.20263 17.787 3.20263C16.817 3.20263 16.3723 3.87621 16.1678 4.17266C15.7569 3.52347 15.3572 3.20263 14.4791 3.20263C14.1203 3.18622 13.7647 3.2775 13.4581 3.46473C13.1515 3.65196 12.9079 3.9266 12.7586 4.25334H12.7361V3.36211H11.2069V9.42999H12.8036V5.7356Z" fill="#333333"/>
<path d="M22.8155 3.36208H21.2188V9.42996H22.8155V3.36208Z" fill="#333333"/>
<path d="M22.8155 0.999878H21.2188V2.48214H22.8155V0.999878Z" fill="#333333"/>
<path d="M25.7556 5.95137C25.7556 5.02824 26.3034 4.54979 27.0108 4.54979C28.0259 4.54979 28.0484 5.3003 28.0484 5.74685V9.42998H29.6451V5.23275C29.6451 3.89872 28.722 3.20262 27.5343 3.20262C27.1617 3.18512 26.7918 3.27479 26.4686 3.46101C26.1454 3.64723 25.8823 3.9222 25.7105 4.25334H25.688V3.3621H24.1589V9.42998H25.7556V5.95137Z" fill="#333333"/>
<path d="M7.56696 10.612L8.69648 9.48251L5.31731 6.10333L8.69648 2.72416L7.56696 1.59464L3.05827 6.10333L7.56696 10.612Z" fill="#333333"/>
</svg>
