<svg width="36" height="36" viewBox="0 0 36 36" fill="none" xmlns="http://www.w3.org/2000/svg">
<path d="M20.9429 25.8062L20.013 24.1748L19.1247 24.6877L16.4057 19.944C16.649 19.6623 16.8399 19.3394 16.9695 18.9905H25.5054V15.909H22.4238V16.9367H16.9858C16.8564 16.5742 16.6603 16.2391 16.4075 15.9488L20.671 8.56945L18.0027 7.02867L16.4601 9.70055L17.3501 10.2117L14.6311 14.9247C14.4414 14.8915 14.2491 14.8758 14.0565 14.8776C13.8697 14.8796 13.6835 14.8984 13.5 14.9337L9.22936 7.53985L6.55929 9.08062L8.10006 11.7507L8.99009 11.2359L11.7091 15.9488C11.4655 16.2388 11.2763 16.5704 11.1508 16.9277L2.6131 16.9331V20.0147H5.69464V18.9905H11.1562C11.2832 19.3385 11.4717 19.6608 11.7127 19.9422L7.44387 27.356L10.1121 28.8986L11.6529 26.2285L10.7701 25.7173L13.5036 20.9899C13.6875 21.0267 13.8744 21.0461 14.0619 21.0479C14.2491 21.0482 14.436 21.0318 14.6202 20.999L18.3888 27.5246L7.1756 35H26.9627C28.6662 35 30.2999 34.3235 31.5046 33.1191C32.7093 31.9147 33.3864 30.2812 33.3869 28.5777V17.5077L20.9429 25.8062ZM14.0547 18.9923C13.8514 18.9923 13.6527 18.932 13.4837 18.8191C13.3147 18.7062 13.1829 18.5457 13.1051 18.3579C13.0274 18.17 13.007 17.9634 13.0467 17.764C13.0863 17.5647 13.1842 17.3815 13.3279 17.2378C13.4717 17.094 13.6548 16.9962 13.8542 16.9565C14.0536 16.9168 14.2602 16.9372 14.448 17.015C14.6358 17.0928 14.7963 17.2245 14.9093 17.3935C15.0222 17.5625 15.0825 17.7613 15.0825 17.9645C15.0825 18.2368 14.9744 18.498 14.7821 18.6907C14.5897 18.8833 14.3288 18.9918 14.0565 18.9923H14.0547ZM13.9677 32.9372L31.3204 21.3579L31.3295 28.5832C31.329 29.7412 30.8688 30.8516 30.05 31.6704C29.2311 32.4892 28.1207 32.9494 26.9627 32.9499L13.9677 32.9372Z" fill="#333333"/>
<path d="M21.4233 4.18817C24.8148 6.13935 27.3736 9.26574 28.6159 12.976L24.184 9.67332L23.5676 10.4981L30.2383 15.4304L31.1845 7.18452L30.1603 7.07576L29.5477 12.4993C28.3289 9.00163 26.0098 5.99293 22.9378 3.92376C19.8657 1.85459 16.206 0.836316 12.5067 1.02143L12.5828 2.04921C15.6744 1.89293 18.7451 2.63588 21.4233 4.18817Z" fill="#333333"/>
</svg>
