<svg width="36" height="36" viewBox="0 0 36 36" fill="none" xmlns="http://www.w3.org/2000/svg">
<path d="M23.2336 25.3828L22.356 23.8402L21.5162 24.327L18.9452 19.8415C19.1747 19.5751 19.3547 19.2698 19.4766 18.94H27.5476V16.0262H24.6339V17.0083H19.492C19.3708 16.6654 19.1859 16.3484 18.9469 16.0742L22.9851 9.08978L20.4604 7.63291L18.9966 10.1524L19.8382 10.6375L17.2673 15.0938C16.9138 15.0314 16.5519 15.0343 16.1995 15.1024L12.1579 8.1111L9.63495 9.56798L11.0918 12.0909L11.9334 11.6059L14.5043 16.0622C14.273 16.3357 14.094 16.6494 13.9764 16.9877H5.8985V19.9015H8.81225V18.9365H13.9747C14.0941 19.2655 14.2717 19.5704 14.4992 19.8364L10.4628 26.8465L12.9978 28.3085L14.4546 25.7838L13.6131 25.2988L16.1977 20.8288C16.547 20.8962 16.906 20.8962 17.2553 20.8288L20.8186 26.999L10.2177 34.0743H28.9274C30.5379 34.0743 32.0825 33.4345 33.2214 32.2957C34.3602 31.1569 35 29.6123 35 28.0017V17.5345L23.2336 25.3828ZM16.7205 18.94C16.5283 18.94 16.3404 18.883 16.1806 18.7762C16.0208 18.6694 15.8962 18.5176 15.8227 18.34C15.7491 18.1625 15.7299 17.9671 15.7674 17.7785C15.8048 17.59 15.8974 17.4169 16.0333 17.281C16.1692 17.145 16.3424 17.0525 16.5309 17.015C16.7194 16.9775 16.9148 16.9967 17.0924 17.0703C17.27 17.1438 17.4218 17.2684 17.5285 17.4282C17.6353 17.588 17.6923 17.7759 17.6923 17.9681C17.6923 18.2253 17.5904 18.472 17.4089 18.6541C17.2274 18.8363 16.9811 18.9391 16.7239 18.94H16.7205ZM28.924 32.1375L16.6382 32.1238L33.0512 21.175V28.0086C33.0512 29.1027 32.6169 30.1522 31.8437 30.9264C31.0705 31.7005 30.0216 32.1362 28.9274 32.1375H28.924Z" fill="#333333"/>
<path d="M7.61592 10.1266L3.42869 13.2495C4.48684 10.11 6.54123 7.40189 9.27951 5.53698C12.0178 3.67207 15.2901 2.75234 18.599 2.91765L18.6539 1.94583C15.1563 1.77118 11.6963 2.73419 8.79185 4.69066C5.88743 6.64713 3.6949 9.49178 2.54257 12.7987L1.96839 7.67049L1 7.77333L1.89469 15.5702L8.19867 10.9065L7.61592 10.1266Z" fill="#333333"/>
</svg>
