<svg width="36" height="36" viewBox="0 0 36 36" fill="none" xmlns="http://www.w3.org/2000/svg">
<path d="M23.3822 19.7456L20.4968 14.7114C20.7534 14.4113 20.9534 14.0672 21.0874 13.6958H30.1457V10.4256H26.8755V11.5163H21.1047C20.9691 11.1312 20.7615 10.7754 20.493 10.4679L25.0231 2.63688L22.1896 0.999878L20.5545 3.83337L21.499 4.37776L18.6136 9.37917C18.2169 9.30914 17.8107 9.3124 17.4152 9.38879L12.8793 1.54234L10.0458 3.17742L11.6828 6.01091L12.6254 5.4646L15.5108 10.466C15.2511 10.7729 15.0503 11.125 14.9183 11.5048L5.85805 11.5105V14.7807H9.12821V13.6958H14.9241C15.0586 14.0654 15.2579 14.408 15.5127 14.7076L10.9845 22.5733L13.818 24.2103L15.4531 21.3768L14.5143 20.8324L17.4094 15.8118C17.6052 15.8508 17.8042 15.8714 18.0038 15.8733C18.2024 15.8736 18.4007 15.8563 18.5963 15.8214L23.1283 23.664L25.9599 22.0289L24.3248 19.1993L23.3822 19.7456ZM18.0038 13.6958C17.7881 13.6958 17.5772 13.6318 17.3978 13.512C17.2185 13.3921 17.0787 13.2218 16.9961 13.0225C16.9136 12.8232 16.892 12.6039 16.9341 12.3923C16.9761 12.1807 17.08 11.9864 17.2326 11.8338C17.3851 11.6813 17.5794 11.5774 17.791 11.5353C18.0026 11.4933 18.2219 11.5149 18.4212 11.5974C18.6205 11.68 18.7908 11.8198 18.9107 11.9991C19.0305 12.1785 19.0945 12.3894 19.0945 12.6051C19.0945 12.8944 18.9796 13.1718 18.775 13.3763C18.5705 13.5809 18.2931 13.6958 18.0038 13.6958Z" fill="#333333"/>
<path d="M7.01226 28.1056C6.6304 28.0873 6.25128 28.1788 5.91988 28.3694C5.58847 28.56 5.31868 28.8416 5.1425 29.1809H5.11557V28.2691H3.54974V34.4882H5.18675V30.9218C5.18675 29.9754 5.74844 29.4849 6.47365 29.4849C7.5124 29.4849 7.53741 30.2543 7.53741 30.7121V34.4882H9.17441V30.1851C9.17441 28.8174 8.22607 28.1056 7.01226 28.1056Z" fill="#333333"/>
<path d="M9.55144 35.0001H10.9191L13.189 27.3152H11.8213L9.55144 35.0001Z" fill="#333333"/>
<path d="M20.3006 28.1057C19.3061 28.1057 18.8502 28.7944 18.6405 29.0983C18.2192 28.4328 17.8095 28.1057 16.9092 28.1057C16.5415 28.0888 16.1771 28.1821 15.8628 28.3737C15.5485 28.5653 15.2987 28.8464 15.1453 29.181H15.1203V28.2692H13.5525V34.4883H15.1895V30.7007C15.1895 30.0217 15.4358 29.485 16.2071 29.485C17.1882 29.485 17.1882 30.2217 17.1882 30.7469V34.4883H18.8252V30.7584C18.8252 30.0217 19.1176 29.485 19.937 29.485C20.416 29.485 20.8257 29.7889 20.8257 30.7122V34.4883H22.4627V30.1852C22.4647 28.8175 21.5163 28.1057 20.3006 28.1057Z" fill="#333333"/>
<path d="M25.456 28.2693H23.819V34.4903H25.456V28.2693Z" fill="#333333"/>
<path d="M25.456 25.8455H23.819V27.3652H25.456V25.8455Z" fill="#333333"/>
<path d="M30.2881 28.1056C29.9063 28.0874 29.5273 28.1791 29.1959 28.3697C28.8645 28.5602 28.5947 28.8417 28.4184 29.1809H28.3953V28.2691H26.8256V34.4881H28.4626V30.9217C28.4626 29.9753 29.0243 29.4848 29.7495 29.4848C30.7902 29.4848 30.8133 30.2542 30.8133 30.7121V34.4881H32.4503V30.185C32.458 28.8173 31.5115 28.1056 30.2881 28.1056Z" fill="#333333"/>
</svg>
