<svg width="36" height="36" viewBox="0 0 36 36" fill="none" xmlns="http://www.w3.org/2000/svg">
<path d="M1 9.05874L1.95588 9.61275L4.86838 4.55831V16.893H5.97447V4.55831L8.88697 9.61275L9.8448 9.05874L5.4224 1.3844L1 9.05874Z" fill="#333333"/>
<path d="M5.97447 31.4418V19.107H4.86838V31.4418L1.95588 26.3873L1 26.9413L5.4224 34.6157L9.8448 26.9413L8.88697 26.3873L5.97447 31.4418Z" fill="#333333"/>
<path d="M35 19.1073V15.791H31.6837V16.8932H25.9699C25.8337 16.5079 25.6281 16.1509 25.3632 15.8398L29.8714 8.00156L27.0038 6.3395L25.3437 9.21689L26.3015 9.77286L23.4436 14.7337C23.0427 14.6582 22.6312 14.6582 22.2302 14.7337L17.7123 6.89352L14.8505 8.55558L16.5086 11.433L17.4665 10.879L20.3126 15.8398C20.0483 16.151 19.8433 16.508 19.7079 16.8932H10.6739V20.2095H13.9902V19.1073H19.7098C19.8445 19.4918 20.0488 19.8483 20.3126 20.1588L15.7985 27.9989L18.6701 29.6707L20.3302 26.7914L19.3724 26.2374L22.2302 21.2766C22.6312 21.352 23.0427 21.352 23.4436 21.2766L27.9616 29.1167L30.8331 27.4547L29.175 24.5773L28.2172 25.1313L25.3573 20.1588C25.6246 19.8491 25.8323 19.4926 25.9699 19.1073H35ZM22.8311 19.08C22.6121 19.0804 22.3979 19.0159 22.2156 18.8946C22.0332 18.7733 21.8909 18.6008 21.8066 18.3987C21.7222 18.1966 21.6997 17.974 21.7417 17.7591C21.7838 17.5442 21.8886 17.3466 22.0429 17.1912C22.1972 17.0358 22.3941 16.9296 22.6087 16.8861C22.8233 16.8425 23.046 16.8635 23.2487 16.9464C23.4513 17.0293 23.6249 17.1704 23.7475 17.3519C23.87 17.5334 23.936 17.7471 23.9372 17.9661C23.9382 18.112 23.9103 18.2567 23.8552 18.3918C23.8001 18.5269 23.7188 18.6497 23.616 18.7533C23.5132 18.8568 23.3909 18.939 23.2562 18.9951C23.1215 19.0511 22.977 19.08 22.8311 19.08Z" fill="#333333"/>
</svg>
