<svg width="36" height="36" viewBox="0 0 36 36" fill="none" xmlns="http://www.w3.org/2000/svg">
<path d="M23.5895 7.73566L24.0603 8.55414L30.5881 4.77618L24.0603 0.999878L23.5895 1.81669L27.8881 4.30372H17.1631V5.24863H27.8881L23.5895 7.73566Z" fill="#333333"/>
<path d="M8.85366 7.73566L4.55666 5.24863H15.28V4.30372H4.55666L8.85366 1.81669L8.38287 0.999878L1.85669 4.77618L8.38287 8.55414L8.85366 7.73566Z" fill="#333333"/>
<path d="M22.5449 26.8502L21.6216 25.2465L20.8048 25.719L18.3693 21.4902C18.5952 21.2255 18.7706 20.9215 18.8867 20.5935H26.584V17.7654H23.7559V18.7103H18.8867C18.7726 18.3778 18.5971 18.0697 18.3693 17.802L22.2188 11.1261L19.7717 9.70878L18.3577 12.1625L19.1745 12.635L16.739 16.8638C16.5684 16.832 16.3952 16.8158 16.2216 16.8155C16.0486 16.8158 15.876 16.832 15.7059 16.8638L11.8564 10.1812L9.40933 11.5986L10.8217 14.0507L11.6385 13.5782L14.074 17.802C13.8474 18.0663 13.672 18.3703 13.5566 18.6987H5.85928V21.5268H8.68735V20.5835H13.5566C13.6727 20.9116 13.8481 21.2155 14.074 21.4802L10.2245 28.1727L12.6699 29.5884L14.084 27.1347L13.2688 26.6622L15.7043 22.4334C15.8742 22.4661 16.0469 22.4823 16.22 22.4817C16.3936 22.4822 16.5668 22.466 16.7374 22.4334L20.2026 28.4489L10.5888 35H28.4871C29.2307 35 29.9671 34.8534 30.6539 34.5685C31.3408 34.2836 31.9648 33.8661 32.4902 33.3398C33.0155 32.8136 33.4319 32.1888 33.7156 31.5015C33.9992 30.8141 34.1446 30.0775 34.1433 29.3339V18.9482L22.5449 26.8502ZM16.2233 20.6052C16.0363 20.6058 15.8533 20.551 15.6974 20.4475C15.5416 20.3441 15.42 20.1968 15.348 20.0242C15.2759 19.8516 15.2567 19.6615 15.2928 19.4779C15.3289 19.2944 15.4186 19.1258 15.5507 18.9933C15.6827 18.8608 15.851 18.7705 16.0344 18.7337C16.2178 18.697 16.408 18.7155 16.5808 18.7869C16.7537 18.8584 16.9014 18.9795 17.0054 19.1349C17.1094 19.2904 17.1649 19.4732 17.1649 19.6602C17.1653 19.9095 17.0671 20.1489 16.8916 20.326C16.7161 20.503 16.4776 20.6034 16.2283 20.6052H16.2233ZM32.2501 29.3339C32.2497 30.3327 31.8534 31.2906 31.1481 31.9978C30.4428 32.705 29.4859 33.1038 28.4871 33.1069H16.7107L32.2551 22.5099L32.2501 29.3339Z" fill="#333333"/>
</svg>
