<svg width="36" height="36" viewBox="0 0 36 36" fill="none" xmlns="http://www.w3.org/2000/svg">
<path d="M31.2512 14.8921L30.1569 14.8882V28.9418H4.76611L4.76417 30.038H31.2512V14.8921Z" fill="#333333"/>
<path d="M33.9193 17.3167V31.3702H8.53051L8.52858 32.4665H35.0001V17.3205L33.9193 17.3167Z" fill="#333333"/>
<path d="M28.1192 11.8334H24.0166V9.67581H19.6124V11.8334H16.985V12.9045H27.0481V26.5385H2.07108V12.9045H12.1613V11.8334H9.50677V9.67581H5.10258V11.8334H1V27.6096H28.1192V11.8334Z" fill="#333333"/>
<path d="M21.2635 15.4799V17.5699H19.1755V18.6661H21.2635V20.7541H22.3597V18.6661H24.4497V17.5699H22.3597V15.4799H21.2635Z" fill="#333333"/>
<path d="M9.93207 17.5699H4.65788V18.6661H9.93207V17.5699Z" fill="#333333"/>
<path d="M14.5644 22.7145C14.855 22.714 15.1336 22.5983 15.339 22.3929C15.5445 22.1874 15.6602 21.9089 15.6607 21.6183V4.6299C15.6607 4.33917 15.5452 4.06034 15.3396 3.85476C15.134 3.64918 14.8552 3.53369 14.5644 3.53369C14.2737 3.53369 13.9949 3.64918 13.7893 3.85476C13.5837 4.06034 13.4682 4.33917 13.4682 4.6299V21.6183C13.4682 21.909 13.5837 22.1879 13.7893 22.3934C13.9949 22.599 14.2737 22.7145 14.5644 22.7145Z" fill="#333333"/>
<path d="M14.5644 25.6457C14.7813 25.6457 14.9932 25.5814 15.1735 25.4609C15.3537 25.3405 15.4942 25.1693 15.5772 24.969C15.6602 24.7687 15.6819 24.5483 15.6396 24.3356C15.5973 24.123 15.4929 23.9276 15.3396 23.7743C15.1863 23.621 14.991 23.5166 14.7783 23.4743C14.5657 23.432 14.3453 23.4537 14.1449 23.5367C13.9446 23.6197 13.7734 23.7602 13.653 23.9405C13.5325 24.1207 13.4682 24.3327 13.4682 24.5495C13.4682 24.8402 13.5837 25.119 13.7893 25.3246C13.9949 25.5302 14.2737 25.6457 14.5644 25.6457Z" fill="#333333"/>
</svg>
