<svg width="36" height="36" viewBox="0 0 36 36" fill="none" xmlns="http://www.w3.org/2000/svg">
<path d="M2.03218 10.5486L7.91267 12.4585L8.39059 10.9884L2.5101 9.08032L2.03218 10.5486Z" fill="#333333"/>
<path d="M8.39059 25.0118L7.91267 23.5435V23.5417L2.03218 25.4498L2.5101 26.9199L8.39059 25.0118Z" fill="#333333"/>
<path d="M33.4935 26.9199L27.613 25.01L28.0928 23.5417L33.9715 25.4498L33.4935 26.9199Z" fill="#333333"/>
<path d="M33.9715 10.5486L28.0928 12.4585L27.613 10.9884L33.4953 9.08032L33.9715 10.5486Z" fill="#333333"/>
<path d="M7.17851 17.2269H1V18.7715H7.17851V17.2269Z" fill="#333333"/>
<path d="M35 18.7715H28.8215V17.2269H35V18.7715Z" fill="#333333"/>
<path fill-rule="evenodd" clip-rule="evenodd" d="M14.1577 13.5338C13.0179 12.3372 11.4637 11.6216 9.81347 11.5336C8.30116 15.7143 8.32176 20.2961 9.87162 24.463C11.5159 24.3595 13.0591 23.6336 14.1872 22.4329C15.3154 21.2321 15.9438 19.6468 15.9447 17.9992V17.9701C15.9369 16.3175 15.2976 14.7305 14.1577 13.5338ZM10.8748 13.2745C10.8748 13.2745 10.8748 13.2745 10.8748 13.2745L10.8784 13.2744C10.8784 13.2744 10.8784 13.2744 10.8784 13.2744C10.8783 13.2748 10.8782 13.2751 10.8781 13.2755C10.877 13.2751 10.8759 13.2748 10.8748 13.2745ZM10.9202 22.7112C10.0261 19.6315 10.0116 16.363 10.8781 13.2755C11.2345 13.382 11.5755 13.5278 11.8955 13.7089C12.4849 14.0424 13.0029 14.4957 13.4138 15.0439C13.4882 15.1431 13.5586 15.2449 13.625 15.3489C14.1249 16.1322 14.395 17.0431 14.4001 17.9774V17.9992C14.3998 19.0534 14.0618 20.0798 13.4355 20.9278C12.8092 21.7758 11.9277 22.4008 10.9202 22.7112C10.9202 22.7112 10.9202 22.7112 10.9202 22.7112Z" fill="#333333"/>
<path fill-rule="evenodd" clip-rule="evenodd" d="M21.8538 13.534C22.9934 12.3373 24.5473 11.6217 26.1974 11.5336C27.7097 15.7143 27.6891 20.2961 26.1393 24.463C24.4951 24.3595 22.9522 23.6335 21.8243 22.4327C20.6965 21.2319 20.0684 19.6466 20.068 17.9992V17.9701C20.0754 16.3177 20.7143 14.7306 21.8538 13.534ZM25.1344 13.2745C24.1204 13.5767 23.2306 14.1971 22.5964 15.044C21.9622 15.8909 21.6173 16.9194 21.6126 17.9774V17.9992C21.6126 18.3819 21.6572 18.761 21.7439 19.1292C21.896 19.7753 22.1779 20.3879 22.5769 20.9281C23.2032 21.7761 24.0849 22.4011 25.0926 22.7112C25.0926 22.7112 25.0926 22.7112 25.0926 22.7112C25.9021 19.9147 25.9887 16.9634 25.351 14.1325C25.2972 13.8939 25.2383 13.6561 25.1742 13.4193C25.1612 13.371 25.1479 13.3227 25.1344 13.2745Z" fill="#333333"/>
</svg>
