<svg width="36" height="36" viewBox="0 0 36 36" fill="none" xmlns="http://www.w3.org/2000/svg">
<path fill-rule="evenodd" clip-rule="evenodd" d="M19.0907 19.4777H16.0889V24.3778H14.5345V11.6206H19.305C21.2705 11.6206 23.2728 12.8776 23.2792 15.4876C23.2856 18.0976 21.1729 19.4745 19.281 19.4745L19.0907 19.4777ZM19.2507 17.9152C20.2966 17.9152 21.5424 16.7558 21.4992 15.462C21.4448 13.8292 20.3509 13.1831 19.3034 13.1831L19.1963 13.1751H16.0889V17.9232H19.0907L19.2507 17.9152Z" fill="#333333"/>
<path fill-rule="evenodd" clip-rule="evenodd" d="M11.7441 27.3626C13.5959 28.5999 15.7729 29.2604 18 29.2604C20.9852 29.2565 23.8471 28.069 25.958 25.9581C28.0689 23.8472 29.2565 20.9853 29.2603 18.0001C29.2603 15.773 28.5999 13.5959 27.3626 11.7442C26.1253 9.89242 24.3667 8.44916 22.3091 7.59689C20.2516 6.74462 17.9875 6.52163 15.8032 6.95611C13.6189 7.3906 11.6125 8.46304 10.0378 10.0378C8.46298 11.6126 7.39054 13.619 6.95606 15.8033C6.52158 17.9876 6.74457 20.2516 7.59684 22.3092C8.4491 24.3667 9.89236 26.1254 11.7441 27.3626ZM12.2461 9.3883C13.9496 8.25141 15.952 7.64526 18 7.64652C20.7439 7.65118 23.374 8.74369 25.3136 10.6845C27.2533 12.6254 28.3442 15.2561 28.3471 18.0001C28.3471 20.0481 27.7397 22.0501 26.6018 23.7528C25.4639 25.4556 23.8465 26.7826 21.9542 27.5661C20.062 28.3495 17.9799 28.5542 15.9714 28.1542C13.9628 27.7542 12.118 26.7674 10.6703 25.3188C9.22258 23.8702 8.237 22.0248 7.83823 20.016C7.43946 18.0072 7.64541 15.9252 8.43003 14.0335C9.21464 12.1417 10.5427 10.5252 12.2461 9.3883Z" fill="#333333"/>
<path d="M4.86965 23.438C5.58386 25.1622 6.63068 26.7289 7.95036 28.0485L9.22976 26.7595C6.90538 24.4349 5.59958 21.2821 5.59958 17.9948C5.59958 14.7075 6.90538 11.5548 9.22976 9.23014L7.95036 7.95074C6.63068 9.27035 5.58386 10.837 4.86965 12.5612C4.15544 14.2854 3.78784 16.1333 3.78784 17.9996C3.78784 19.8659 4.15544 21.7139 4.86965 23.438Z" fill="#333333"/>
<path d="M31.1302 23.4384C30.4157 25.1627 29.3683 26.7292 28.0481 28.0485L26.7687 26.7595C29.0931 24.4349 30.3988 21.2821 30.3988 17.9948C30.3988 14.7075 29.0931 11.5548 26.7687 9.23014L28.0481 7.95074C29.3683 9.27003 30.4157 10.8366 31.1302 12.5608C31.8448 14.285 32.2126 16.1332 32.2126 17.9996C32.2126 19.866 31.8448 21.7142 31.1302 23.4384Z" fill="#333333"/>
</svg>
