<svg width="36" height="36" viewBox="0 0 36 36" fill="none" xmlns="http://www.w3.org/2000/svg">
<path d="M26.6782 15.3829C27.0738 15.3844 27.4608 15.2685 27.7905 15.05C28.1202 14.8315 28.3777 14.5202 28.5304 14.1553C28.6831 13.7905 28.7242 13.3886 28.6485 13.0004C28.5728 12.6122 28.3837 12.2551 28.1051 11.9744C27.8265 11.6937 27.4709 11.5019 27.0832 11.4233C26.6956 11.3446 26.2934 11.3827 25.9274 11.5327C25.5614 11.6827 25.2481 11.9378 25.0272 12.2659C24.8062 12.5939 24.6875 12.9801 24.686 13.3756C24.6845 13.6384 24.7349 13.8988 24.8343 14.1421C24.9337 14.3853 25.0802 14.6065 25.2653 14.793C25.4504 14.9795 25.6705 15.1276 25.9129 15.2288C26.1554 15.33 26.4155 15.3824 26.6782 15.3829Z" fill="#333333"/>
<path d="M30.6797 8.21316C28.3836 8.21331 26.1431 7.50729 24.262 6.19087C23.291 5.70626 22.2227 5.44854 21.1376 5.43716C20.0525 5.42579 18.979 5.66106 17.9981 6.12521C17.5183 5.89963 17.015 5.72787 16.4974 5.61307C14.8928 5.25413 13.2137 5.45814 11.7418 6.19087C10.8068 6.84267 9.77835 7.3487 8.69146 7.69164C7.60357 8.03326 6.47 8.20721 5.32973 8.20753C3.84342 8.20922 2.37162 7.91524 1 7.34271V29.7811C2.65247 30.4007 4.41922 30.6562 6.17952 30.5303C7.93982 30.4043 9.65219 29.8999 11.1996 29.0514C12.1597 28.3145 13.3171 27.8795 14.5249 27.8017C15.7327 27.7238 16.9364 28.0067 17.9831 28.6143C18.8457 28.114 19.8178 27.8328 20.8143 27.7952C21.8108 27.7576 22.8013 27.9648 23.6992 28.3985C25.3314 29.5245 27.2126 30.237 29.1812 30.4749C31.1497 30.7128 33.1466 30.4689 35 29.7643V7.34271C33.6317 7.9161 32.1632 8.21197 30.6797 8.21316ZM17.4729 27.1792C16.5444 26.8332 15.5549 26.6811 14.5654 26.7321C13.5759 26.783 12.6073 27.0361 11.7193 27.4756C10.331 28.4464 8.74054 29.0895 7.06765 29.3563C5.39477 29.6231 3.68314 29.5066 2.0618 29.0157V8.83598C3.12555 9.1301 4.22419 9.27902 5.32785 9.27871C6.3532 9.2813 7.37482 9.15525 8.36879 8.90351C9.36278 8.64956 10.3208 8.27139 11.2203 7.77793C12.0992 7.10194 13.1458 6.67835 14.2475 6.55275C15.3492 6.42714 16.4643 6.60426 17.4729 7.06507V27.1792ZM33.9457 29.0157C32.3244 29.5066 30.6127 29.6231 28.9398 29.3563C27.267 29.0895 25.6765 28.4464 24.2882 27.4756C23.4007 27.0355 22.4324 26.7821 21.4431 26.7311C20.4538 26.6801 19.4646 26.8326 18.5365 27.1792V7.05756C19.5447 6.59672 20.6596 6.41957 21.761 6.54518C22.8624 6.67079 23.9087 7.09441 24.7872 7.77043C25.6868 8.26356 26.6448 8.64172 27.6387 8.89601C28.6327 9.14752 29.6543 9.27356 30.6797 9.2712C31.7833 9.27166 32.882 9.12273 33.9457 8.82848V29.0157Z" fill="#333333"/>
<path d="M28.6311 16.6719H22.9188V17.7374H24.6466V23.6017H22.9188V24.6672H30.3589V23.6017H28.6311V16.6719Z" fill="#333333"/>
</svg>
