<svg width="36" height="36" viewBox="0 0 36 36" fill="none" xmlns="http://www.w3.org/2000/svg">
<path d="M18.0017 24.8599C17.5291 24.8599 17.0671 25 16.6741 25.2626C16.2812 25.5252 15.9749 25.8984 15.794 26.335C15.6132 26.7716 15.5659 27.2521 15.6581 27.7156C15.7503 28.1791 15.9778 28.6049 16.312 28.9391C16.6462 29.2732 17.072 29.5008 17.5355 29.593C17.999 29.6852 18.4795 29.6379 18.9161 29.457C19.3527 29.2762 19.7259 28.9699 19.9885 28.577C20.251 28.184 20.3912 27.722 20.3912 27.2494C20.3912 26.9356 20.3294 26.6249 20.2093 26.335C20.0892 26.0451 19.9132 25.7817 19.6913 25.5598C19.4694 25.3379 19.206 25.1619 18.9161 25.0418C18.6262 24.9217 18.3155 24.8599 18.0017 24.8599Z" fill="#333333"/>
<path d="M18.0017 6.36346C17.2864 6.36346 16.6005 6.64758 16.0948 7.15331C15.589 7.65905 15.3049 8.34498 15.3049 9.0602L16.9673 23.2488C16.9671 23.3225 16.9814 23.3954 17.0095 23.4636C17.0375 23.5317 17.0787 23.5936 17.1307 23.6458C17.1827 23.6979 17.2445 23.7393 17.3125 23.7676C17.3806 23.7958 17.4535 23.8103 17.5272 23.8103H18.7083C18.782 23.8103 18.855 23.7958 18.9232 23.7676C18.9913 23.7394 19.0532 23.698 19.1053 23.6459C19.1575 23.5937 19.1988 23.5318 19.2271 23.4637C19.2553 23.3956 19.2698 23.3225 19.2698 23.2488L20.6984 9.0602C20.6984 8.34498 20.4143 7.65905 19.9085 7.15331C19.4028 6.64758 18.7169 6.36346 18.0017 6.36346Z" fill="#333333"/>
<path d="M34.1121 15.86L20.142 1.88473C19.5738 1.31816 18.8041 1 18.0017 1C17.1993 1 16.4296 1.31816 15.8614 1.88473L1.8878 15.86C1.60644 16.1409 1.38323 16.4745 1.23093 16.8418C1.07863 17.209 1.00024 17.6027 1.00024 18.0003C1.00024 18.3979 1.07863 18.7916 1.23093 19.1588C1.38323 19.5261 1.60644 19.8597 1.8878 20.1406L15.8614 34.1125C16.143 34.3933 16.4762 34.617 16.8428 34.7713C17.3963 34.9994 18.005 35.0585 18.5921 34.9413C19.1792 34.824 19.7185 34.5357 20.142 34.1125L34.1121 20.1406C34.3935 19.8597 34.6167 19.5261 34.769 19.1588C34.9213 18.7916 34.9997 18.3979 34.9997 18.0003C34.9997 17.6027 34.9213 17.209 34.769 16.8418C34.6167 16.4745 34.3935 16.1409 34.1121 15.86ZM33.4294 19.4443L19.4559 33.4298C19.2656 33.6207 19.0395 33.7722 18.7905 33.8756C18.5416 33.979 18.2747 34.0322 18.0051 34.0322C17.7355 34.0322 17.4686 33.979 17.2197 33.8756C16.9707 33.7722 16.7446 33.6207 16.5543 33.4298L2.57394 19.4528C2.38299 19.2625 2.23149 19.0364 2.12812 18.7875C2.02474 18.5385 1.97153 18.2716 1.97153 18.002C1.97153 17.7325 2.02474 17.4655 2.12812 17.2166C2.23149 16.9676 2.38299 16.7415 2.57394 16.5512L16.5475 2.57087C16.9336 2.18855 17.4549 1.97408 17.9983 1.97408C18.5416 1.97408 19.063 2.18855 19.449 2.57087L33.4294 16.5461C33.6204 16.7364 33.7719 16.9625 33.8752 17.2115C33.9786 17.4604 34.0318 17.7273 34.0318 17.9969C34.0318 18.2665 33.9786 18.5334 33.8752 18.7823C33.7719 19.0313 33.6204 19.2574 33.4294 19.4477V19.4443Z" fill="#333333"/>
</svg>
