<svg width="36" height="36" viewBox="0 0 36 36" fill="none" xmlns="http://www.w3.org/2000/svg">
<path d="M29.9528 14.7399V12.3439H24.6411V14.7399H11.3589V12.3439H6.04718V14.7399H1V34.7035H35V14.7399H29.9528ZM32.8761 32.5645H3.12582V16.8695H32.8761V32.5645Z" fill="#333333"/>
<path d="M11.6253 21.9261H5.24975V23.5228H11.6253V21.9261Z" fill="#333333"/>
<path d="M24.3747 23.5247H26.7669V25.9188H28.3599V23.5247H30.7502V21.9261H28.3599V19.5301H26.7669V21.9261H24.3747V23.5247Z" fill="#333333"/>
<path d="M4.18779 11.0155L8.69648 6.50869L4.18779 2L3.05827 3.12952L6.43744 6.50869L3.05827 9.88787L4.18779 11.0155Z" fill="#333333"/>
<path d="M12.7473 6.95334C12.7292 6.54916 12.771 6.14451 12.8712 5.75253C12.9408 5.52748 13.0842 5.33247 13.2783 5.19903C13.4683 5.07295 13.6921 5.00752 13.92 5.0114C14.085 5.00258 14.2487 5.04448 14.3891 5.13148C14.5129 5.22495 14.602 5.35698 14.6424 5.50673C14.7163 5.867 14.744 6.23521 14.7249 6.60248V9.79215H16.2654V6.98524C16.2465 6.58063 16.287 6.17544 16.3854 5.78255C16.4548 5.54982 16.5993 5.34662 16.7963 5.20465C16.9748 5.0809 17.1871 5.01537 17.4043 5.01703C17.5342 5.00547 17.6649 5.02896 17.7827 5.08506C17.9005 5.14115 18.0011 5.22781 18.0741 5.33599C18.1792 5.50486 18.2336 5.87636 18.2336 6.46176V9.78089H19.7627V6.06024C19.7844 5.65183 19.731 5.24291 19.6051 4.85379C19.4729 4.53366 19.2396 4.26551 18.9409 4.09015C18.6096 3.90685 18.2349 3.81672 17.8564 3.82934C17.5297 3.82929 17.2078 3.90848 16.9183 4.06013C16.598 4.23257 16.3164 4.46884 16.0909 4.75435C15.9325 4.46531 15.6966 4.22618 15.4098 4.06388C15.1119 3.90408 14.7776 3.82455 14.4397 3.8331C13.7355 3.83059 13.1332 4.13768 12.6329 4.75435V3.96068H11.2069V9.77714H12.7473V6.95334Z" fill="#333333"/>
<path d="M23.0162 6.3605C22.5951 6.42959 22.1842 6.55059 21.7929 6.72074C21.5193 6.84842 21.2896 7.05403 21.1324 7.31177C20.9701 7.57637 20.8856 7.88133 20.8885 8.19174C20.8821 8.42224 20.925 8.65146 21.0143 8.86405C21.1036 9.07664 21.2373 9.2677 21.4064 9.42446C21.7968 9.76568 22.3052 9.94075 22.823 9.91229C23.152 9.91567 23.4782 9.85182 23.7817 9.72466C24.0964 9.58663 24.3827 9.3913 24.6261 9.14864C24.6373 9.17866 24.6561 9.23871 24.6805 9.33627C24.7386 9.53891 24.7893 9.68901 24.8287 9.79221H26.3522C26.2278 9.54468 26.1351 9.28243 26.0764 9.01168C26.0168 8.63953 25.9917 8.26268 26.0014 7.88591L26.0183 6.08844C26.0183 5.42048 25.9495 4.96142 25.8119 4.71125C25.646 4.43582 25.3979 4.21929 25.1026 4.09208C24.7662 3.92822 24.2546 3.84691 23.5678 3.84816C22.8173 3.84816 22.2432 3.98326 21.8586 4.25344C21.4496 4.56146 21.1625 5.00402 21.048 5.50304L22.4458 5.75446C22.5091 5.53227 22.6403 5.33545 22.8211 5.19158C23.0136 5.07385 23.2374 5.01757 23.4628 5.03022C23.868 5.03022 24.1439 5.09214 24.2902 5.21785C24.3706 5.30089 24.432 5.40051 24.4699 5.50972C24.5078 5.61894 24.5214 5.73513 24.5097 5.85015V6.00401C24.0237 6.16786 23.5238 6.28718 23.0162 6.3605ZM24.5172 7.29864C24.528 7.55032 24.5079 7.80238 24.4572 8.04915C24.3921 8.25613 24.2601 8.43564 24.0819 8.55949C23.8531 8.73387 23.5741 8.82992 23.2864 8.83343C23.1735 8.83717 23.061 8.81817 22.9556 8.77755C22.8502 8.73694 22.7541 8.67554 22.6729 8.59702C22.596 8.52497 22.5349 8.43772 22.4936 8.34082C22.4523 8.24392 22.4315 8.13948 22.4327 8.03414C22.4327 7.92572 22.4602 7.81909 22.5128 7.72424C22.5653 7.62939 22.641 7.54944 22.7329 7.49189C22.997 7.35977 23.2799 7.26927 23.5716 7.22359C23.9994 7.13227 24.3121 7.05347 24.5097 6.98717L24.5172 7.29864Z" fill="#333333"/>
<path d="M28.6075 9.78095L29.8008 7.97785L30.9848 9.78095H32.8761L30.7221 6.71699L32.6959 3.96075H30.8872L29.8008 5.56121L28.7708 3.96075H26.8926L28.9021 6.78266L26.8044 9.78095H28.6075Z" fill="#333333"/>
</svg>
