<svg width="36" height="36" viewBox="0 0 36 36" fill="none" xmlns="http://www.w3.org/2000/svg">
<path d="M27.7816 18.1738L18.0008 1L8.21829 18.1738C7.24339 19.8859 6.73494 21.8239 6.74377 23.7941C6.75259 25.7643 7.27837 27.6976 8.26855 29.4009C9.25874 31.1042 10.6786 32.5178 12.3864 33.5003C14.0941 34.4829 16.0298 35 17.9999 35C19.9701 35 21.9058 34.4829 23.6135 33.5003C25.3213 32.5178 26.7412 31.1042 27.7313 29.4009C28.7215 27.6976 29.2473 25.7643 29.2561 23.7941C29.265 21.8239 28.7565 19.8859 27.7816 18.1738ZM18.0008 33.0239C16.3744 33.0258 14.776 32.6005 13.3655 31.7906C11.9551 30.9807 10.782 29.8146 9.96385 28.409C9.14565 27.0033 8.71096 25.4074 8.70329 23.781C8.69562 22.1546 9.11522 20.5547 9.92012 19.1414L18.0008 4.95655L26.0815 19.1414C26.8863 20.5548 27.3058 22.1548 27.2981 23.7813C27.2904 25.4077 26.8557 27.0037 26.0375 28.4094C25.2194 29.8151 24.0465 30.9814 22.6361 31.7915C21.2257 32.6016 19.6273 33.0272 18.0008 33.0256V33.0239Z" fill="#333333"/>
</svg>
