<svg width="36" height="36" viewBox="0 0 36 36" fill="none" xmlns="http://www.w3.org/2000/svg">
<path d="M31.9868 28.1205C31.8662 27.923 31.7002 27.2465 31.6128 26.7221L30.9992 21.8801V21.8486C30.4608 19.064 29.7546 18.4452 29.1341 18.2075C28.7422 18.0679 28.3221 18.0265 27.9105 18.0869C27.893 17.933 27.8773 17.7984 27.8633 17.6936C27.7908 17.1179 27.5693 16.5711 27.2208 16.1072C26.8722 15.6434 26.4086 15.2785 25.8758 15.0488C25.5876 14.924 25.2755 14.8642 24.9616 14.8735C24.6477 14.8829 24.3398 14.9612 24.0596 15.103L21.4236 12.7501L21.4008 12.7327C20.3118 11.8691 19.1791 12.1016 18.625 12.7799C18.5828 12.8319 18.5443 12.8868 18.5096 12.9442L13.7515 8.53567C13.6393 8.43059 13.5074 8.34871 13.3635 8.29473C13.2195 8.24074 13.0663 8.21571 12.9127 8.22107C12.7591 8.22643 12.608 8.26207 12.4682 8.32596C12.3283 8.38985 12.2025 8.48071 12.0979 8.59335L6.79611 14.3199C6.58641 14.5482 6.47597 14.8505 6.48908 15.1603C6.5022 15.47 6.63778 15.7619 6.86603 15.9718L13.1589 21.7262C13.1428 21.7435 13.1277 21.7616 13.1135 21.7804C12.9544 22.0112 12.5104 22.8292 13.54 23.7539C15.0485 25.1017 16.3368 26.4197 16.3508 26.4302L18.4624 28.6187L18.4816 28.6379C19.1983 29.3004 20.9289 30.4454 21.0093 30.4943L21.067 30.5275L25.3898 32.6094L25.409 32.6199C25.6345 32.7161 26.1083 32.98 26.4299 33.1531C26.5662 33.2282 26.6868 33.2946 26.797 33.3453L28.4419 34.8679C28.4895 34.9121 28.5454 34.9464 28.6063 34.9691C28.6672 34.9917 28.732 35.002 28.7969 34.9996C28.8618 34.9972 28.9256 34.982 28.9847 34.9549C29.0437 34.9278 29.0969 34.8893 29.1411 34.8416L33.2279 30.4279C33.3067 30.3422 33.3529 30.2315 33.3583 30.1151C33.3637 29.9988 33.3281 29.8843 33.2577 29.7916L31.9868 28.1205ZM7.53901 15.2446C7.52104 15.2294 7.50632 15.2107 7.49575 15.1896C7.48518 15.1686 7.47897 15.1456 7.4775 15.1221C7.47603 15.0986 7.47933 15.075 7.4872 15.0528C7.49507 15.0306 7.50734 15.0102 7.52328 14.9929L12.825 9.26634C12.8572 9.23447 12.9004 9.2163 12.9456 9.21565C12.9698 9.21457 12.9939 9.21851 13.0165 9.22724C13.0391 9.23596 13.0596 9.24928 13.0767 9.26634L18.5673 14.3443C18.627 14.4231 18.695 14.4952 18.7701 14.5594L18.784 14.5436L21.1211 16.7094C21.1107 16.7304 21.1019 16.7374 21.0967 16.7199C21.1701 16.9139 21.3484 17.6254 21.5512 18.5274L18.0848 22.3258C17.6208 21.9203 17.1172 21.5625 16.5815 21.2578C16.1716 21.0485 15.7213 20.9305 15.2614 20.9118C14.8016 20.8931 14.3431 20.9741 13.9175 21.1494L7.53901 15.2446ZM21.8081 19.7038C22.1577 21.3941 22.5073 23.261 22.4514 23.7802C22.0333 24.1848 21.574 24.5445 21.0809 24.8535C20.9866 24.922 20.8699 24.9526 20.7541 24.9391C20.6055 24.773 19.7822 23.8623 18.8033 22.9551L21.8081 19.7038ZM28.753 33.8051L27.4193 32.571C27.3656 32.5204 27.301 32.4827 27.2305 32.4608C27.1606 32.4241 27.0277 32.3525 26.9088 32.286C26.54 32.0833 26.082 31.8298 25.8093 31.7127L21.5267 29.6483C21.3047 29.5014 19.7787 28.4876 19.1651 27.9195L17.0535 25.7397C17.0413 25.7275 15.7285 24.3867 14.192 23.0145C13.7392 22.609 13.8756 22.4115 13.921 22.3468C14.1972 21.95 15.2635 21.679 16.1183 22.1318C17.6321 22.9341 20.0094 25.5999 20.0321 25.6278L20.0583 25.654C20.5128 26.0928 21.1439 25.9722 21.5844 25.7152C22.1768 25.3435 22.7271 24.9086 23.2258 24.4182C23.446 24.2032 23.675 23.9829 22.9461 20.3401C22.6105 18.6585 22.1752 16.8195 22.0389 16.4158C22.0065 16.3129 21.9606 16.2147 21.9025 16.1238L21.9217 16.1011L19.3259 13.6976C19.3079 13.6482 19.305 13.5947 19.3174 13.5436C19.3299 13.4926 19.3572 13.4464 19.3958 13.4109C19.5951 13.1679 20.1265 12.9931 20.7785 13.5035L23.4408 15.8756C24.341 16.7776 24.3934 18.4277 24.4546 20.3383L25.4458 20.3068C25.3916 18.6497 25.3409 17.0695 24.6871 15.9036C24.9598 15.8335 25.2481 15.8557 25.5069 15.9665C25.8758 16.1317 26.1958 16.3891 26.4362 16.714C26.6765 17.0388 26.8291 17.4202 26.8791 17.8212C26.9823 18.5868 27.206 21.02 27.2095 21.0445L28.1954 20.9536C28.1954 20.8907 28.1045 19.9572 28.0206 19.0692C28.2753 19.0277 28.5362 19.0487 28.781 19.1304C29.2722 19.3175 29.6899 20.2894 30.0238 22.0164L30.6374 26.8532C30.6374 26.8532 30.6374 26.8654 30.6374 26.8724C30.6898 27.1836 30.8821 28.2376 31.1618 28.6764L31.181 28.7043L32.2158 30.0661L28.753 33.8051Z" fill="#333333"/>
<path d="M28.1412 11.7906L30.7632 12.3901L30.9834 11.4235L25.7201 10.2208L27.3248 15.4282L28.2723 15.1363L27.4647 12.516L34.1788 18.7425L34.8536 18.017L28.1412 11.7906Z" fill="#333333"/>
<path d="M18.7019 5.9155L17.8943 3.29521L24.6085 9.52167L25.2832 8.79624L18.5708 2.56978L21.1928 3.16936L21.4131 2.2027L16.1498 1.00006L17.7545 6.20742L18.7019 5.9155Z" fill="#333333"/>
<path d="M9.5737 3.77235L9.3989 2.79695C7.34272 3.15866 5.44773 4.14452 3.97131 5.62063C2.49489 7.09673 1.50863 8.99152 1.14648 11.0476L2.12363 11.2224C2.44945 9.36558 3.33943 7.65422 4.67247 6.32118C6.00551 4.98815 7.71687 4.09817 9.5737 3.77235Z" fill="#333333"/>
<path d="M10.4198 8.65634L10.245 7.67919C9.19558 7.86631 8.22879 8.37065 7.4749 9.12422C6.72102 9.87779 6.21628 10.8444 6.02873 11.8937L7.00587 12.0685C7.1572 11.2187 7.56572 10.4358 8.17624 9.82556C8.78676 9.21535 9.56986 8.80723 10.4198 8.65634Z" fill="#333333"/>
<path d="M10.0107 6.21268L9.8359 5.23553C8.27896 5.50987 6.84437 6.25732 5.72743 7.37615C4.61048 8.49497 3.86544 9.93081 3.59372 11.4882L4.57086 11.663C4.80563 10.3048 5.45421 9.05223 6.42792 8.07665C7.40164 7.10106 8.65293 6.45006 10.0107 6.21268Z" fill="#333333"/>
</svg>
