<svg width="36" height="36" viewBox="0 0 36 36" fill="none" xmlns="http://www.w3.org/2000/svg">
<path d="M16.8778 26.1348V2.1586C16.8715 2.00879 16.8956 1.85925 16.9486 1.71897C17.0015 1.5787 17.0823 1.45059 17.1861 1.34236C17.2899 1.23413 17.4145 1.148 17.5524 1.08917C17.6903 1.03033 17.8387 1 17.9887 1C18.1386 1 18.287 1.03033 18.4249 1.08917C18.5628 1.148 18.6874 1.23413 18.7912 1.34236C18.895 1.45059 18.9758 1.5787 19.0288 1.71897C19.0818 1.85925 19.1058 2.00879 19.0995 2.1586V26.1348C19.1058 26.2847 19.0818 26.4342 19.0288 26.5745C18.9758 26.7148 18.895 26.8429 18.7912 26.9511C18.6874 27.0593 18.5628 27.1454 18.4249 27.2043C18.287 27.2631 18.1386 27.2934 17.9887 27.2934C17.8387 27.2934 17.6903 27.2631 17.5524 27.2043C17.4145 27.1454 17.2899 27.0593 17.1861 26.9511C17.0823 26.8429 17.0015 26.7148 16.9486 26.5745C16.8956 26.4342 16.8715 26.2847 16.8778 26.1348ZM19.1231 33.8862C19.1227 33.6663 19.0572 33.4515 18.9347 33.2688C18.8122 33.0862 18.6383 32.944 18.435 32.8602C18.2316 32.7764 18.0081 32.7548 17.7925 32.7981C17.5769 32.8414 17.3789 32.9476 17.2237 33.1034C17.0685 33.2591 16.963 33.4574 16.9204 33.6732C16.8779 33.8889 16.9003 34.1125 16.9849 34.3155C17.0694 34.5185 17.2122 34.6919 17.3952 34.8137C17.5783 34.9356 17.7934 35.0004 18.0133 35C18.308 34.999 18.5903 34.8812 18.7983 34.6724C19.0063 34.4636 19.1231 34.1809 19.1231 33.8862Z" fill="#333333"/>
</svg>
