<svg width="36" height="36" viewBox="0 0 36 36" fill="none" xmlns="http://www.w3.org/2000/svg">
<path d="M19.9769 33.0131C19.9769 32.62 19.8603 32.2358 19.6419 31.909C19.4235 31.5822 19.113 31.3275 18.7499 31.1772C18.3867 31.0269 17.9871 30.9877 17.6016 31.0645C17.2161 31.1413 16.8621 31.3307 16.5843 31.6088C16.3065 31.8869 16.1174 32.2411 16.041 32.6267C15.9645 33.0122 16.0042 33.4118 16.1549 33.7748C16.3056 34.1379 16.5605 34.448 16.8876 34.6661C17.2146 34.8842 17.5989 35.0004 17.992 35C18.2528 35 18.5111 34.9486 18.752 34.8487C18.993 34.7488 19.2119 34.6024 19.3962 34.4179C19.5806 34.2334 19.7267 34.0143 19.8264 33.7733C19.926 33.5322 19.9772 33.2739 19.9769 33.0131ZM16.0171 24.144L14.8794 4.29885C14.8794 4.24077 14.8794 4.18068 14.8794 4.12059C14.8794 3.29296 15.2082 2.49922 15.7934 1.914C16.3786 1.32878 17.1724 1 18 1C18.8276 1 19.6213 1.32878 20.2066 1.914C20.7918 2.49922 21.1206 3.29296 21.1206 4.12059C21.1206 4.18068 21.1206 4.24077 21.1206 4.29885L19.9889 24.2582C19.9564 24.7717 19.7257 25.2526 19.3454 25.5993C18.9652 25.9461 18.4652 26.1316 17.9508 26.1168C17.4365 26.102 16.948 25.888 16.5883 25.5199C16.2287 25.1519 16.026 24.6586 16.0231 24.144" fill="#333333"/>
</svg>
