<svg width="36" height="36" viewBox="0 0 36 36" fill="none" xmlns="http://www.w3.org/2000/svg">
<path d="M6.27124 1V35H29.7287V1H6.27124ZM27.3832 32.6462H8.61678V3.34347H27.3832V25.9053C26.725 25.8823 26.1015 25.605 25.6436 25.1317C25.1857 24.6584 24.9292 24.026 24.928 23.3674H23.7346C23.7157 24.0288 23.4397 24.6568 22.9652 25.1179C22.4908 25.579 21.8552 25.837 21.1936 25.837C20.5319 25.837 19.8964 25.579 19.4219 25.1179C18.9474 24.6568 18.6714 24.0288 18.6526 23.3674H17.457C17.4382 24.0288 17.1622 24.6568 16.6877 25.1179C16.2132 25.579 15.5777 25.837 14.916 25.837C14.2544 25.837 13.6188 25.579 13.1444 25.1179C12.6699 24.6568 12.3939 24.0288 12.375 23.3674H11.1795C11.1796 24.0357 10.9162 24.6771 10.4466 25.1526C9.97692 25.628 9.33881 25.8992 8.67056 25.9074V27.1009C9.2885 27.0953 9.8954 26.9364 10.4369 26.6386C10.9783 26.3408 11.4375 25.9133 11.7731 25.3945C12.1127 25.9178 12.5777 26.3479 13.1259 26.6456C13.6741 26.9434 14.2881 27.0994 14.9119 27.0994C15.5357 27.0994 16.1497 26.9434 16.6978 26.6456C17.246 26.3479 17.7111 25.9178 18.0507 25.3945C18.3902 25.9178 18.8553 26.3479 19.4035 26.6456C19.9516 26.9434 20.5656 27.0994 21.1894 27.0994C21.8133 27.0994 22.4272 26.9434 22.9754 26.6456C23.5236 26.3479 23.9886 25.9178 24.3282 25.3945C24.6584 25.9065 25.1093 26.3297 25.6412 26.6268C26.1731 26.924 26.7699 27.086 27.379 27.0988L27.3832 32.6462Z" fill="#333333"/>
<path d="M18.0009 17.1335C18.144 17.1341 18.2869 17.1265 18.4291 17.1107C19.0914 17.0415 19.7267 16.8111 20.2794 16.4396C20.832 16.0682 21.2853 15.567 21.5996 14.9799C21.9139 14.3928 22.0795 13.7377 22.0821 13.0718C22.0847 12.4059 21.9241 11.7495 21.6144 11.16L18.0009 4.81006L14.3854 11.1641C14.0596 11.7858 13.8997 12.4811 13.9214 13.1827C13.9431 13.8843 14.1456 14.5683 14.5092 15.1687C14.8729 15.7691 15.3854 16.2654 15.9971 16.6096C16.6088 16.9538 17.299 17.1343 18.0009 17.1335ZM15.4155 11.7246L18.0009 7.17421L20.5843 11.7246C20.8017 12.1446 20.9133 12.6113 20.9094 13.0841C20.9056 13.557 20.7864 14.0217 20.5622 14.4381C20.338 14.8544 20.0156 15.2098 19.623 15.4733C19.2304 15.7369 18.7794 15.9006 18.3091 15.9503C18.2081 15.9604 18.1066 15.9652 18.0051 15.9648C17.505 15.9684 17.0125 15.8424 16.5756 15.5992C16.1387 15.3559 15.7722 15.0037 15.5119 14.5767C15.2516 14.1497 15.1062 13.6626 15.09 13.1628C15.0739 12.663 15.1874 12.1675 15.4196 11.7246H15.4155Z" fill="#333333"/>
</svg>
