<svg width="36" height="36" viewBox="0 0 36 36" fill="none" xmlns="http://www.w3.org/2000/svg">
<path d="M20.4476 25.3304C19.8353 25.3165 19.2528 25.0631 18.8251 24.6247C18.3974 24.1863 18.1585 23.5977 18.1597 22.9853H17.0596C17.0596 23.6057 16.8131 24.2008 16.3743 24.6395C15.9356 25.0782 15.3406 25.3247 14.7201 25.3247C14.0997 25.3247 13.5046 25.0782 13.0659 24.6395C12.6272 24.2008 12.3807 23.6057 12.3807 22.9853H11.2786C11.2786 23.6057 11.0322 24.2008 10.5934 24.6395C10.1547 25.0782 9.55967 25.3247 8.93921 25.3247C8.31875 25.3247 7.72371 25.0782 7.28498 24.6395C6.84625 24.2008 6.59978 23.6057 6.59978 22.9853H5.49965C5.50016 23.6064 5.25402 24.2023 4.81535 24.6421C4.37667 25.0818 3.78135 25.3294 3.16021 25.3304V4.49094H20.4476V8.27941H22.6098V2.32501H1V33.7196H22.6059V15.8621H20.4476V25.3304ZM20.4476 31.5537H3.16021V26.4344C3.73556 26.4349 4.3018 26.2908 4.80688 26.0152C5.31196 25.7397 5.73966 25.3416 6.05067 24.8576C6.36118 25.3421 6.78856 25.7408 7.29349 26.0169C7.79841 26.293 8.36467 26.4378 8.94017 26.4378C9.51566 26.4378 10.0819 26.293 10.5868 26.0169C11.0918 25.7408 11.5191 25.3421 11.8297 24.8576C12.1402 25.3421 12.5676 25.7408 13.0725 26.0169C13.5774 26.293 14.1437 26.4378 14.7192 26.4378C15.2947 26.4378 15.8609 26.293 16.3658 26.0169C16.8708 25.7408 17.2981 25.3421 17.6087 24.8576C17.9155 25.3338 18.3352 25.7268 18.8305 26.0019C19.3257 26.2769 19.8812 26.4255 20.4476 26.4344V31.5537Z" fill="#333333"/>
<path d="M34.0534 27.6833V4.2317C34.0615 3.97839 34.0185 3.72605 33.9272 3.48967C33.8358 3.25328 33.6978 3.03767 33.5215 2.85565C33.3452 2.67362 33.134 2.52889 32.9007 2.43005C32.6673 2.33121 32.4165 2.28027 32.163 2.28027C31.9096 2.28027 31.6587 2.33121 31.4254 2.43005C31.192 2.52889 30.9809 2.67362 30.8046 2.85565C30.6282 3.03767 30.4903 3.25328 30.3989 3.48967C30.3075 3.72605 30.2646 3.97839 30.2726 4.2317V27.6833C29.8441 28.0662 29.542 28.5702 29.4062 29.1287C29.2705 29.6871 29.3075 30.2736 29.5125 30.8105C29.7174 31.3474 30.0806 31.8094 30.5539 32.1353C31.0272 32.4613 31.5883 32.6358 32.163 32.6358C32.7377 32.6358 33.2988 32.4613 33.7722 32.1353C34.2455 31.8094 34.6086 31.3474 34.8136 30.8105C35.0185 30.2736 35.0556 29.6871 34.9198 29.1287C34.7841 28.5702 34.482 28.0662 34.0534 27.6833ZM32.9743 19.1206H31.3537V4.2317C31.3537 4.01679 31.439 3.81068 31.591 3.65871C31.743 3.50675 31.9491 3.42138 32.164 3.42138C32.3789 3.42138 32.585 3.50675 32.737 3.65871C32.8889 3.81068 32.9743 4.01679 32.9743 4.2317V19.1206Z" fill="#333333"/>
<path d="M8.47201 11.7115C8.17155 12.2845 8.02407 12.9254 8.04381 13.5721C8.06356 14.2188 8.24986 14.8495 8.58471 15.4032C8.91956 15.9568 9.39161 16.4147 9.95522 16.7325C10.5188 17.0503 11.1549 17.2173 11.8019 17.2173C12.449 17.2173 13.085 17.0503 13.6487 16.7325C14.2123 16.4147 14.6843 15.9568 15.0192 15.4032C15.354 14.8495 15.5403 14.2188 15.5601 13.5721C15.5798 12.9254 15.4323 12.2845 15.1319 11.7115L11.8029 5.84477L8.47201 11.7115ZM14.4817 13.4599C14.481 13.8651 14.3883 14.265 14.2106 14.6292C14.033 14.9935 13.775 15.3127 13.4561 15.5628C13.1372 15.8129 12.7657 15.9874 12.3696 16.0732C11.9735 16.1589 11.5631 16.1536 11.1694 16.0578C10.7756 15.9619 10.4087 15.778 10.0963 15.5198C9.7839 15.2616 9.53417 14.9359 9.3659 14.5672C9.19762 14.1985 9.1152 13.7965 9.12484 13.3913C9.13447 12.9861 9.2359 12.5884 9.42151 12.2282L11.8029 8.03358L14.1824 12.2282C14.3789 12.609 14.4815 13.0313 14.4817 13.4599Z" fill="#333333"/>
<path d="M23.9635 9.90383H17.7441V14.2338H23.9635V16.6609L28.5394 12.0679L23.9635 7.47287V9.90383ZM25.0426 10.0945L27.0179 12.0679L25.0426 14.0488V13.1508H18.8251V10.9849H25.0426V10.0945Z" fill="#333333"/>
</svg>
