<svg width="36" height="36" viewBox="0 0 36 36" fill="none" xmlns="http://www.w3.org/2000/svg">
<path d="M26.547 30.9208L26.5172 30.9468L26.4168 31.0379L26.3834 31.0695L26.3666 31.0825L26.3536 31.0918L26.2384 31.1848L26.19 31.222L26.164 31.2406L26.1417 31.2554L25.9967 31.3503L25.9613 31.3744L25.9409 31.3875L25.9223 31.3968L25.755 31.4934L25.7233 31.512L25.7122 31.5176L25.6955 31.5269L25.4909 31.631L25.4556 31.6496L25.4333 31.6608L25.4147 31.6663L25.1767 31.7705L24.8755 31.8895L24.8662 31.8932L24.8179 31.9118L24.5074 32.0159L24.1411 32.1256L24.13 32.1293L24.1058 32.1349L23.7172 32.2353L23.284 32.3357L22.8081 32.4324L22.3023 32.5179L21.7576 32.596L21.2054 32.661L20.6179 32.7168L20.0805 32.7577L19.467 32.7912L18.8534 32.8098L18.2027 32.8154H18.1897L17.5724 32.8116L16.9347 32.7912L16.3193 32.7577L15.7838 32.7168L15.2093 32.6629L14.6422 32.596L14.1235 32.5216L13.6178 32.4361L13.14 32.3413L12.7254 32.2483L12.6919 32.2409L12.6733 32.2353L12.6659 32.2334L12.2829 32.1312L11.9092 32.0177L11.5801 31.908L11.5503 31.8969L11.5224 31.8876L11.2473 31.7779L11 31.6719L10.9535 31.6533L10.9256 31.6385L10.907 31.6292L10.7025 31.525L10.6765 31.5102L10.6542 31.4972L10.4738 31.393L10.4366 31.3726L10.4236 31.3633L10.3976 31.3466L10.2489 31.2462L10.2172 31.2238L10.2024 31.2127L10.1894 31.2034L10.0648 31.1067L10.0109 31.0639L9.99228 31.0454L9.96067 31.0175L9.85841 30.9208L9.80636 30.8687L9.79148 30.8501L9.73013 30.7832L9.23743 33.0645L9.24486 33.1444L9.26717 33.2225L9.30436 33.3025L9.36014 33.3861L9.43265 33.4698L9.52747 33.5591L9.65018 33.6502L9.80078 33.7468L9.98112 33.8435L10.2005 33.9439L10.4571 34.048L10.7564 34.1503L11.1004 34.2563L11.4908 34.3585L11.9315 34.4589L12.4167 34.5537L12.9503 34.6467L13.5304 34.7267L14.1495 34.8029L14.8114 34.8661L15.5031 34.92L15.7708 34.9349L16.4959 34.9702L17.2433 34.9925L17.9982 35L18.7568 34.9925L19.5023 34.9702L20.2293 34.9349L20.5007 34.92L21.1924 34.8661L21.8524 34.8029L22.4734 34.7267L23.0498 34.643L23.5834 34.5537L24.0742 34.4589L24.5093 34.3585L24.8997 34.2563L25.2455 34.1503L25.543 34.048L25.8014 33.9439L26.0208 33.8435L26.2012 33.7468L26.3536 33.6502L26.4726 33.5591L26.5693 33.4698L26.6437 33.3861L26.6976 33.3025L26.7329 33.2225L26.7571 33.1444L26.7627 33.0645L26.547 30.9208Z" fill="#333333"/>
<path d="M10.5464 29.3571L10.5817 29.4408L10.591 29.4594L10.6263 29.5282L10.6933 29.6193L10.7732 29.7067V29.7085L10.8643 29.7959H10.8662L10.8699 29.7996L10.9963 29.8963L11.1116 29.9744L11.1302 29.9874L11.1376 29.993L11.3012 30.0859L11.3087 30.0897L11.3105 30.0915L11.4239 30.1492L11.5076 30.1919L11.5095 30.1938L11.7493 30.296L11.8162 30.3239L11.9966 30.3946L11.9984 30.3964H12.0003L12.0059 30.3983L12.3164 30.5006L12.6492 30.601L13.0024 30.6958H13.0043L13.4152 30.7887L13.854 30.8743L14.3262 30.9561L14.8115 31.0267L15.3488 31.0899L15.8954 31.1401L16.4049 31.1792L16.9924 31.2108L17.6003 31.2294L18.199 31.235L18.8089 31.2294L19.4113 31.2108L19.9951 31.1792L20.5063 31.1401L21.0697 31.0881L21.1106 31.0825L21.5866 31.0249L22.1016 30.9524L22.5738 30.8705L23.0033 30.785L23.4068 30.6921L23.7563 30.601L23.7656 30.5991L24.1114 30.495L24.3884 30.402L24.3977 30.3983L24.4015 30.3964L24.6655 30.2905L24.896 30.1919L24.9667 30.1547L25.0875 30.0952V30.0934L25.0931 30.0915L25.266 29.9911L25.2697 29.9893L25.4129 29.8926L25.53 29.7996L25.5319 29.7978L25.6341 29.7067L25.7104 29.6193V29.6174L25.7754 29.53V29.5282L25.8219 29.4426L25.8554 29.3553L25.874 29.2753V29.2735L25.8796 29.1879L25.8331 28.6227L25.7903 28.1207L25.7066 27.1019L25.6843 27.1186L25.6397 27.1539L25.6174 27.1688L25.5988 27.1818L25.4594 27.2766L25.4296 27.2971L25.4129 27.3082L25.3943 27.3175L25.214 27.4272L25.1898 27.4421L25.1656 27.4551L24.9797 27.5537L24.9388 27.576L24.9165 27.5871L24.8979 27.5946L24.6692 27.6987L24.4145 27.8084L24.3736 27.8251L24.3438 27.8363L24.3364 27.8381L24.0705 27.9348L24.0482 27.9441L24.0259 27.9515L23.7303 28.0464L23.7117 28.0538L23.6987 28.0575L23.6745 28.0649L23.351 28.1561L22.9513 28.2565L22.5199 28.3531L22.1053 28.4312L22.0755 28.4387L22.0477 28.4424H22.0439L21.6089 28.5074L21.1459 28.5744L20.6346 28.6302L20.1178 28.6729L20.0638 28.6766L19.5302 28.7101L18.9818 28.725L18.45 28.7324H18.4184L17.8978 28.725L17.3717 28.7101L16.8269 28.6785L16.7655 28.6729L16.2784 28.6339L15.7616 28.5781L15.2763 28.5074L14.8487 28.4442L14.8133 28.4387L14.7873 28.4331H14.7854L14.3634 28.3513L13.9785 28.2676L13.9488 28.262L13.9228 28.2565L13.919 28.2546L13.5509 28.1598L13.2051 28.0631L13.1809 28.0557L13.166 28.0519L13.1586 28.0482L12.8686 27.9534L12.8463 27.9478L12.8332 27.9422L12.8147 27.9348L12.5302 27.8325L12.506 27.8214L12.493 27.8177L12.4818 27.8121L12.2234 27.7024L11.9873 27.5964L11.952 27.5815L11.9352 27.5704L11.9092 27.5592L11.7121 27.4514L11.6805 27.4347L11.6545 27.4198L11.4872 27.3175L11.4555 27.2989L11.437 27.2859L11.4202 27.2729L11.2715 27.1707L11.238 27.1483L11.2231 27.1353L11.2064 27.1223L11.0837 27.0238L11.0391 26.9903L11.0186 26.9699L11.0037 26.9568L10.9312 26.8899L10.5222 29.1898L10.5278 29.2735L10.5464 29.3571Z" fill="#333333"/>
<path d="M11.4909 25.0829L11.4983 25.1238L11.5076 25.1684V25.1703L11.5262 25.2316L11.5374 25.2595L11.5801 25.3506L11.5839 25.3562L11.6378 25.4417L11.6508 25.4603L11.7084 25.5384H11.7103L11.794 25.6277L11.7958 25.6295L11.9018 25.7281V25.7299L12.0282 25.8285L12.0301 25.8303L12.1677 25.927L12.1714 25.9289L12.3406 26.0311L12.5302 26.1334L12.7533 26.2338L12.9969 26.336L13.0025 26.3397L13.2609 26.4327L13.2646 26.4346H13.2665L13.5658 26.5331L13.893 26.6242L14.1571 26.693L14.2389 26.7135L14.6274 26.7971L15.0402 26.8771L15.466 26.9403L15.9233 27.0072L16.3844 27.0574L16.8697 27.0965L16.918 27.1002L17.4312 27.1299L17.9257 27.1448L18.4296 27.1522H18.4389L18.952 27.1448L19.4689 27.1299L19.9821 27.0983H19.9969L20.01 27.0965L20.1085 27.089L20.5045 27.0556L20.9805 27.0035L21.4174 26.9421L21.8395 26.8789L21.8432 26.8771L22.2745 26.7953L22.6426 26.7135L22.9922 26.6242L23.167 26.5759L23.312 26.535L23.3176 26.5331L23.6095 26.4383L23.6113 26.4364L23.8883 26.336H23.8902L24.1505 26.2245L24.3494 26.1334H24.3532L24.4145 26.0999L24.5447 26.0311L24.6097 25.9902L24.7083 25.9307L24.7064 25.9326L24.712 25.9289L24.8589 25.8285L24.9834 25.7281H24.9853L24.989 25.7243L25.0857 25.6332L25.0894 25.6295L25.1768 25.5328L25.1787 25.531L25.2493 25.4399L25.3032 25.3543L25.3051 25.3506L25.346 25.2614V25.2595L25.3776 25.1647L25.3943 25.0848V25.081L25.3999 24.9918L25.3683 24.8672L24.857 22.8964L24.7659 22.9857L24.7343 23.0191L24.712 23.0396L24.699 23.0507L24.5725 23.1604L24.5521 23.179L24.5261 23.2013L24.5205 23.2032L24.3792 23.3148L24.3494 23.3352L24.3364 23.3445L24.3067 23.365L24.1579 23.4635L24.1338 23.4802L24.117 23.4895L24.1096 23.4932L23.9404 23.5955L23.9107 23.6141L23.9014 23.6178L23.8902 23.6234L23.6987 23.7275L23.6764 23.7387L23.6671 23.7442L23.6466 23.7535L23.4403 23.8521L23.4198 23.8614L23.4142 23.8632L23.3975 23.8707L23.1725 23.9692L23.1577 23.9748L23.1446 23.9804L22.8695 24.0863L22.8434 24.0956L22.8342 24.0994L22.8193 24.1031L22.5422 24.1942L22.2373 24.289L21.9082 24.3782L21.8711 24.3875L21.8506 24.3913H21.8488L21.5345 24.4638L21.1553 24.54L20.7964 24.5995L20.7704 24.6051L20.7462 24.6088H20.7425L20.3669 24.659L20.0955 24.6906L19.6827 24.7278L19.2644 24.7575L18.8461 24.7743L18.4092 24.7798H18.3831L17.9778 24.7743L17.5539 24.7575L17.1244 24.7278L16.7191 24.6925H16.7135L16.4365 24.659L16.0702 24.6106L16.0312 24.6051L16.0051 24.5995H16.0033L15.6556 24.54L15.3042 24.4731L14.951 24.3913L14.9324 24.3875L14.9138 24.382L14.8989 24.3782L14.5903 24.2946L14.263 24.1942L13.9841 24.1031L13.9581 24.0956L13.947 24.0901L13.9284 24.0826L13.6718 23.9859L13.6439 23.9748L13.6309 23.9692L13.4096 23.8725L13.3762 23.8577L13.3539 23.8484V23.8465L13.1679 23.7573L13.1345 23.7424L13.114 23.7312L12.9262 23.6308L12.8891 23.6141L12.876 23.6048L12.8537 23.5899L12.6883 23.4895L12.6641 23.4746L12.6436 23.4616L12.4875 23.3575L12.4521 23.3333L12.4354 23.3203L12.4168 23.3055L12.2811 23.2013L12.2569 23.1827L12.2476 23.1753L12.2327 23.1623L12.1212 23.0656L12.0766 23.0266L12.0524 23.0043L12.045 22.9968L11.952 22.902L11.9092 22.8611L11.8906 22.8388L11.8739 22.8183L11.8274 22.7644L11.5987 24.25L11.4853 24.9918L11.4872 25.0364L11.4909 25.0829Z" fill="#333333"/>
<path d="M12.5468 21.1171L12.571 21.2064L12.5729 21.2101V21.2119L12.6082 21.3068H12.61L12.6398 21.37L12.6565 21.4016V21.4034L12.716 21.502L12.7885 21.5987L12.8722 21.6972L12.9782 21.8032L13.047 21.8608L13.0879 21.8961L13.0916 21.898V21.8999L13.2236 22.0003L13.2255 22.004L13.3742 22.1007L13.4021 22.1174L13.5397 22.2029L13.7275 22.3015L13.8409 22.3554L13.9301 22.3981L14.1272 22.4837L14.1532 22.4948L14.1551 22.4967L14.3986 22.5896L14.6608 22.6752L14.949 22.7644L15.2409 22.8425L15.3227 22.8611L15.5662 22.9169L15.8916 22.9801L16.2467 23.0414H16.2523L16.6 23.0898L16.8547 23.1177L17.2284 23.1511L17.6281 23.179L18.0093 23.1939L18.1655 23.1958L18.3997 23.1976L18.8032 23.192L19.1992 23.1772L19.5748 23.1511L19.9652 23.1158L20.2032 23.0898L20.5509 23.0414H20.5565L20.9153 22.9801L21.2555 22.9131L21.566 22.8425L21.6125 22.8295L21.8765 22.757L22.1424 22.677L22.1852 22.6621L22.4064 22.5896L22.6462 22.4967L22.65 22.4948L22.7634 22.4465L22.8731 22.4L22.8749 22.3981L22.9512 22.3628L23.0794 22.3015L23.165 22.255L23.2672 22.1992L23.2691 22.1973L23.3937 22.123L23.4308 22.1007L23.5721 22.0077L23.5796 22.0021L23.5814 22.0003L23.7079 21.9036L23.7135 21.8999L23.8213 21.8032L23.9254 21.6991L23.931 21.6953L23.9514 21.6693L24.0128 21.5987L24.0834 21.5038L24.0853 21.502L24.1448 21.4053L24.1485 21.3997L24.1597 21.3756L24.1913 21.3086L24.1931 21.3068L24.2303 21.2101L24.2564 21.1171L24.2694 21.0242L24.2712 21.0223L24.2768 20.9293V20.9238L24.2396 20.2879L24.156 18.8135L24.0184 18.9139L23.9756 18.9437L23.9552 18.9567L23.9328 18.9697L23.7116 19.1054L23.68 19.1259L23.6502 19.1407L23.3825 19.2876L23.3583 19.2988L23.349 19.3044L23.3323 19.3137L23.0385 19.4531L23.0107 19.468L22.9828 19.4791L22.8508 19.5349L22.5068 19.6743L22.4733 19.6874L22.4603 19.6911L22.4473 19.6967L22.0866 19.8194H22.081L22.055 19.8287L21.6813 19.9421L21.6553 19.9495L21.646 19.9514L21.6218 19.9588L21.2351 20.0536L20.8242 20.141L20.7926 20.1466L20.7833 20.1484L20.7666 20.1503L20.378 20.2154L20.3501 20.2191L20.3371 20.2228H20.3352L19.9652 20.2693L19.928 20.2749L19.9039 20.2767L19.8834 20.2786L19.4911 20.3065L19.4781 20.3083H19.4539L19.0802 20.3232L19.0467 20.3251H19.004L18.5596 20.3214L18.0688 20.3046H18.0595L18.0428 20.3028L18.0279 20.3009L17.5835 20.2674L17.1057 20.2135L17.0852 20.2117L17.0704 20.2079H17.0667L16.639 20.1447L16.6242 20.141L16.6056 20.1392L16.1761 20.0573L16.1556 20.0536L16.1389 20.0499L16.124 20.0462L15.7168 19.9514L15.2929 19.838L15.2725 19.8305L15.2613 19.8287L15.239 19.8212L14.8876 19.7078L14.8449 19.6948L14.8188 19.6836L14.8133 19.6818L14.4786 19.5591L14.4488 19.5479L14.4433 19.5461L14.4191 19.5349L14.09 19.3955L14.0844 19.3936L13.9747 19.3434L13.6642 19.1854L13.6401 19.1723L13.6178 19.1612L13.3723 19.0236L13.3277 18.9994L13.3073 18.9846L13.285 18.9715L13.0767 18.834L13.0395 18.8079L13.0228 18.7949L13.0098 18.7856L12.848 18.6629L12.809 18.6332L12.5264 20.9256L12.532 21.0223L12.5468 21.1171Z" fill="#333333"/>
<path d="M13.4041 17.1159L13.4059 17.1178H13.4078L13.4338 17.1494L13.4375 17.1513L13.4413 17.155L13.5026 17.2238L13.5045 17.2256L13.6346 17.3409L13.6383 17.3446L13.8112 17.4748L13.8131 17.4766L14.012 17.6086L14.2166 17.722L14.2482 17.7406L14.2593 17.7462L14.4843 17.8615L14.5401 17.8875L14.5921 17.9135L14.6237 17.9266L14.9287 18.0567L14.9324 18.0586H14.9342L15.2856 18.1887L15.637 18.3003L15.6389 18.3021H15.6426L16.0423 18.41L16.4272 18.5011H16.4291L16.8288 18.5773H16.8381L17.1858 18.6312L17.262 18.6424L17.7064 18.6907L18.1303 18.7242H18.1433L18.1712 18.726L18.5839 18.7409L19.0227 18.7428L19.3983 18.7298L19.415 18.7279H19.4169L19.7813 18.7H19.785L20.1792 18.6498L20.512 18.594L20.5473 18.5885L20.5491 18.5866L20.9396 18.5048L21.3021 18.4155H21.3059L21.6591 18.3077L21.6684 18.3058H21.6703L21.8116 18.2556L22.0179 18.185L22.347 18.053L22.466 18.0028L22.73 17.8764L22.7598 17.8615L23.0201 17.7202L23.2469 17.5826V17.5807L23.4366 17.445L23.5964 17.313L23.721 17.1922L23.8121 17.0806V17.0787L23.8772 16.9802V16.9783L23.9237 16.8854L23.946 16.8036V16.7999L23.9534 16.7273V16.7218L23.9441 16.6511L23.9181 16.5823L23.8753 16.5191L23.8028 16.4429L23.7006 16.3611L23.5667 16.2774L23.3938 16.1882L23.1763 16.0971L22.9141 16.0041L22.598 15.9093L22.228 15.8163L21.8041 15.7271L21.3263 15.6434L20.8001 15.5672L20.2294 15.504L20.0434 15.4872L20.0583 15.0856L20.8094 5.4343L20.7946 5.20747L20.763 4.97692L20.7146 4.74266L20.6477 4.50839L20.5659 4.27227L20.4636 4.03429L20.3465 3.80002L20.2108 3.56576L20.0564 3.33707L19.8854 3.11396L19.6976 2.89457L19.495 2.6789L19.2756 2.47438L19.1027 2.32564L18.8591 2.14158L18.6044 1.96309L18.3404 1.80133L18.0652 1.65445L17.7807 1.51687L17.4888 1.39788L17.1951 1.2919L16.892 1.20266L16.5871 1.13015L16.2785 1.07251L15.9661 1.03161L15.65 1.00744L15.3377 1L15.1648 1.00558L15.0997 1.00744V1.01116L14.9881 1.02231L14.8487 1.05392L14.713 1.1004L14.5865 1.16175L14.5587 1.17849L14.4471 1.25286L14.343 1.34396L14.2537 1.44064L14.1812 1.54848L14.1236 1.66003L14.079 1.78088L14.0511 1.90173L14.0418 2.0263L15.3619 13.8511H15.3581L15.3488 13.9664L15.3265 14.0761L15.2856 14.182L15.2298 14.2862L15.1592 14.381L15.0737 14.4684L14.9751 14.5465L14.9008 14.5929L14.7855 14.6469L14.6646 14.6859L14.5382 14.7101L14.4062 14.7194H14.3579L14.2184 14.7268L14.0846 14.751L13.9544 14.7919L13.8298 14.8458L13.7183 14.9146L13.6848 14.9369L13.5863 15.0224L13.5008 15.1172L13.4301 15.2195L13.3743 15.3273L13.3334 15.4408L13.3092 15.5579L13.3018 15.6769L13.3502 17.0713L13.4041 17.1159Z" fill="#333333"/>
</svg>
