<svg width="36" height="36" viewBox="0 0 36 36" fill="none" xmlns="http://www.w3.org/2000/svg">
<path d="M32.4574 6.77059V4.67822H1V6.77059H5.98182C5.98182 9.6206 7.11398 12.3539 9.12924 14.3691C11.1445 16.3844 13.8778 17.5166 16.7278 17.5166C19.5778 17.5166 22.3111 16.3844 24.3263 14.3691C26.3416 12.3539 27.4738 9.6206 27.4738 6.77059H32.4574ZM8.15352 6.77059H25.3131C25.2778 9.02297 24.3576 11.171 22.7515 12.7505C21.1454 14.33 18.9823 15.2142 16.7296 15.212C14.4775 15.2156 12.315 14.3296 10.7127 12.7469C9.10552 11.1698 8.18581 9.02208 8.15352 6.77059Z" fill="#333333"/>
<path d="M16.095 20.7493L22.3389 31.3218L24.0456 30.3199L17.8036 19.7474L16.095 20.7493Z" fill="#333333"/>
<path d="M28.7561 13.3078L27.0494 14.3116L33.2932 24.8822L35 23.8803L28.7561 13.3078Z" fill="#333333"/>
<path d="M23.7724 17.0921L29.6399 27.0299L31.3466 26.028L25.4791 16.0883L23.7724 17.0921Z" fill="#333333"/>
<path d="M20.121 19.2381L25.9884 29.1759L27.6952 28.174L21.8277 18.2343L20.121 19.2381Z" fill="#333333"/>
</svg>
