<svg width="36" height="36" viewBox="0 0 36 36" fill="none" xmlns="http://www.w3.org/2000/svg">
<path d="M18 19.799C20.7276 19.799 23.3436 18.716 25.2729 16.788C27.2023 14.86 28.2872 12.2448 28.2891 9.51718H34.72V7.46082H1.27819V9.51718H7.7091C7.71103 12.2451 8.79616 14.8605 10.7259 16.7886C12.6557 18.7167 15.2721 19.7995 18 19.799ZM26.2309 9.51718C26.1988 11.6792 25.3174 13.7418 23.7771 15.2593C22.2368 16.7769 20.1614 17.6276 17.9991 17.6276C15.8368 17.6276 13.7614 16.7769 12.2211 15.2593C10.6808 13.7418 9.79941 11.6792 9.76728 9.51718H26.2309Z" fill="#333333"/>
<path d="M10.4179 20.5774L7.59313 25.4779L9.37471 26.5048L12.1995 21.6043L10.4179 20.5774Z" fill="#333333"/>
<path d="M1 18.1372L2.02727 19.919L6.92909 17.0917L5.9 15.3099L1 18.1372Z" fill="#333333"/>
<path d="M30.1 15.3099L29.0691 17.0917L33.9709 19.919L35 18.1372L30.1 15.3099Z" fill="#333333"/>
<path d="M23.7964 21.6063L26.6273 26.5045L28.4091 25.4772L25.58 20.579L23.7964 21.6063Z" fill="#333333"/>
<path d="M19.0291 22.8827H16.9709V28.5391H19.0291V22.8827Z" fill="#333333"/>
</svg>
