<svg width="36" height="36" viewBox="0 0 36 36" fill="none" xmlns="http://www.w3.org/2000/svg">
<path d="M19.1933 17.8752V5.71357C19.1937 5.3874 19.0649 5.07433 18.8351 4.8429C18.6053 4.61146 18.2931 4.48052 17.9669 4.47872H9.30428C8.97811 4.48052 8.66594 4.61146 8.43609 4.8429C8.20625 5.07433 8.07746 5.3874 8.07792 5.71357V17.5185C7.77163 17.526 7.47163 17.607 7.20316 17.7546C6.95744 17.8896 6.75294 18.0886 6.61146 18.3306C6.46997 18.5726 6.3968 18.8485 6.39974 19.1288V26.4546C6.39974 27.6776 7.41888 28.8326 7.47153 28.8819L9.52509 31.1223C9.70812 31.3559 9.8042 31.646 9.79686 31.9427V35.0001H17.4404V34.5177C17.4404 34.4786 17.4404 30.611 17.4404 30.2017C17.4596 29.9361 17.5168 29.6747 17.6102 29.4254L20.0069 22.8911L20.0171 22.8639C20.3143 21.8736 20.1564 21.2146 20.1343 21.1314L19.1933 17.8752ZM9.0342 5.71357C9.03329 5.64268 9.06047 5.57431 9.1098 5.52339C9.15913 5.47247 9.2266 5.44314 9.29748 5.4418H17.9601C18.031 5.44314 18.0985 5.47247 18.1478 5.52339C18.1971 5.57431 18.2243 5.64268 18.2234 5.71357V19.4107C18.2248 19.4808 18.1987 19.5486 18.1508 19.5997C18.1029 19.6508 18.0369 19.6811 17.9669 19.6842H17.7648V16.1172C17.7553 15.744 17.6704 15.3765 17.5151 15.0369C17.3557 14.6792 17.0921 14.3777 16.7588 14.172C16.4255 13.9663 16.038 13.8658 15.6467 13.8836C15.3813 13.8732 15.1166 13.9185 14.8697 14.0165C14.6228 14.1145 14.3991 14.263 14.2131 14.4526C13.5727 15.1151 13.5897 16.0884 13.5931 16.1801C13.5931 16.2123 13.5931 18.0587 13.5931 19.6825H9.29748C9.2266 19.6812 9.15913 19.6518 9.1098 19.6009C9.06047 19.55 9.03329 19.4816 9.0342 19.4107V5.71357ZM13.6016 20.6456V21.4167C13.6025 21.5223 13.5817 21.6268 13.5404 21.724C13.4991 21.8211 13.4382 21.9086 13.3615 21.9811C13.2848 22.0537 13.194 22.1096 13.0948 22.1455C12.9955 22.1813 12.8899 22.1963 12.7846 22.1896C12.2054 22.1896 12.1392 21.607 12.1324 21.4303V20.6456H13.6016ZM11.1659 20.6456V21.4949C11.1768 21.6219 11.1522 21.7495 11.095 21.8635C11.0377 21.9774 10.9499 22.0732 10.8415 22.1403C10.7303 22.2022 10.6052 22.2347 10.478 22.2347C10.3508 22.2347 10.2256 22.2022 10.1145 22.1403C10.0184 22.0824 9.94038 21.9987 9.88935 21.8987C9.83831 21.7988 9.81628 21.6865 9.82573 21.5747V20.6388L11.1659 20.6456ZM7.36283 19.1322C7.35838 19.022 7.38522 18.9128 7.44022 18.8172C7.49523 18.7216 7.57616 18.6435 7.67366 18.592C7.79616 18.5258 7.93202 18.4881 8.07112 18.4816V19.4107C8.0712 19.6604 8.14685 19.9042 8.28813 20.1101C8.42942 20.3159 8.6297 20.4742 8.86265 20.564V21.3352C8.85416 21.5305 8.77433 22.1505 8.11698 22.1505C7.52419 22.1505 7.3883 21.5883 7.36283 21.4286V19.1322ZM19.1032 22.5717L16.7134 29.0823C16.5788 29.4372 16.4997 29.8108 16.479 30.1898C16.479 30.5125 16.479 32.9686 16.479 34.0302H10.7599V31.9461C10.7683 31.4347 10.601 30.9358 10.286 30.5329L8.18323 28.2347C7.95562 27.9816 7.36283 27.1663 7.36283 26.4546V22.9471C7.59781 23.061 7.85588 23.1191 8.11698 23.117C8.32687 23.123 8.53587 23.0875 8.73203 23.0126C8.92818 22.9377 9.10763 22.8248 9.26011 22.6804C9.36769 22.8015 9.49382 22.9047 9.6338 22.9862C9.89344 23.1321 10.1866 23.2079 10.4844 23.2061C10.7822 23.2043 11.0745 23.125 11.3324 22.976C11.4579 22.9026 11.5722 22.8116 11.6721 22.7059C11.8159 22.8539 11.9889 22.9703 12.1802 23.0478C12.3714 23.1253 12.5767 23.1621 12.7829 23.156C12.9147 23.1557 13.0461 23.1427 13.1753 23.117C13.0718 23.2093 12.9578 23.2891 12.8356 23.3548C11.8164 23.9408 11.5498 25.4644 11.4258 28.07L12.3889 28.1158C12.3973 27.9171 12.4092 27.7235 12.4194 27.5366C12.5298 25.7531 12.7439 24.5166 13.3146 24.1922C13.7037 23.9928 14.0278 23.6864 14.2487 23.309C14.4695 22.9317 14.578 22.4991 14.5613 22.0622C14.5698 21.4235 14.5613 16.4009 14.5613 16.1716C14.5613 16.1716 14.5613 15.4922 14.9112 15.1287C15.0086 15.0351 15.1245 14.9628 15.2515 14.9166C15.3784 14.8704 15.5136 14.8512 15.6484 14.8603C16.7338 14.8603 16.8 15.9202 16.8017 16.1308V22.2609H17.7648V20.6541H17.9669C18.1391 20.6538 18.3093 20.617 18.4662 20.5462C18.6231 20.4753 18.7633 20.372 18.8773 20.243L19.217 21.3895C19.2708 21.7871 19.2319 22.1917 19.1032 22.5717Z" fill="#333333"/>
<path d="M25.7378 5.78309L21.8294 12.5416L22.6634 13.024L25.2554 8.54155V23.4634H26.2185V8.54495L28.7646 12.9612L29.6003 12.4805L25.7378 5.78309Z" fill="#333333"/>
<path d="M16.6216 6.56959H13.8784V9.31276H16.6216V6.56959Z" fill="#333333"/>
<path d="M19.7691 1H7.67705C7.35773 1 7.09785 1.33971 7.09785 1.74397V2.66289C7.09785 3.07394 7.35773 3.40685 7.67705 3.40685H19.7691C20.0884 3.40685 20.3466 3.06714 20.3466 2.66289V1.74397C20.3466 1.33971 20.0884 1 19.7691 1Z" fill="#333333"/>
</svg>
