<svg width="36" height="36" viewBox="0 0 36 36" fill="none" xmlns="http://www.w3.org/2000/svg">
<path fill-rule="evenodd" clip-rule="evenodd" d="M23.3133 12.2978H29.0531L31.9241 35H5.00012L7.87123 12.2978H13.6111C14.7112 12.2978 15.6214 11.4939 15.7925 10.4421C14.3358 9.54331 13.3626 7.93322 13.3626 6.09956C13.3626 3.28766 15.6503 1 18.4622 1C21.274 1 23.5614 3.28766 23.5615 6.09956C23.5615 7.93322 22.5884 9.54331 21.1318 10.4421C21.303 11.4939 22.2133 12.2978 23.3133 12.2978ZM20.8523 6.09944C20.8523 4.78147 19.7802 3.70912 18.4622 3.70912C17.1441 3.70912 16.0718 4.78147 16.0719 6.09944C16.0719 7.41742 17.1442 8.48965 18.4622 8.48965C19.7801 8.48965 20.8523 7.41742 20.8523 6.09944Z" fill="#333333"/>
</svg>
