<svg width="36" height="36" viewBox="0 0 36 36" fill="none" xmlns="http://www.w3.org/2000/svg">
<path d="M7.0238 3.74259V35H28.9761V3.74259H26.7809V32.8067H9.21904V3.74259H7.0238ZM11.1396 9.22584V7.03254H16.9033V1H19.0986V7.03254H24.8603V9.22584H11.1396ZM16.6267 24.0973L16.0794 12.6048C16.0794 12.5757 16.0794 12.5448 16.0794 12.5139C16.0794 12.0035 16.2821 11.514 16.643 11.1531C17.0039 10.7922 17.4934 10.5894 18.0038 10.5894C18.5142 10.5894 19.0037 10.7922 19.3646 11.1531C19.7255 11.514 19.9283 12.0035 19.9283 12.5139C19.9286 12.6058 19.9221 12.6975 19.909 12.7885L19.3693 24.0954C19.3507 24.4353 19.2066 24.7563 18.965 24.9961C18.7234 25.2359 18.4014 25.3776 18.0614 25.3937C17.7213 25.4099 17.3874 25.2993 17.1241 25.0834C16.8609 24.8675 16.6871 24.5616 16.6364 24.225L16.6267 24.0973ZM19.3442 28.9056C19.345 28.6337 19.265 28.3678 19.1145 28.1414C18.964 27.915 18.7497 27.7384 18.4987 27.6339C18.2477 27.5295 17.9714 27.5018 17.7047 27.5545C17.438 27.6072 17.193 27.7379 17.0006 27.93C16.8083 28.1221 16.6772 28.3669 16.6242 28.6336C16.5711 28.9002 16.5983 29.1765 16.7024 29.4277C16.8066 29.6788 16.9829 29.8933 17.209 30.0442C17.4352 30.195 17.701 30.2753 17.9729 30.2749C18.1529 30.2752 18.3312 30.24 18.4975 30.1713C18.6639 30.1025 18.8151 30.0017 18.9424 29.8745C19.0698 29.7474 19.1708 29.5963 19.2398 29.43C19.3087 29.2638 19.3442 29.0856 19.3442 28.9056Z" fill="#333333"/>
</svg>
