<svg width="36" height="36" viewBox="0 0 36 36" fill="none" xmlns="http://www.w3.org/2000/svg">
<path d="M13.2011 20.5128C12.7204 21.3532 12.469 22.3051 12.4719 23.2733C12.4748 24.2414 12.7321 25.1918 13.2178 26.0292C13.7036 26.8667 14.4009 27.5618 15.2398 28.0451C16.0787 28.5283 17.0299 28.7826 17.998 28.7826C18.9662 28.7826 19.9173 28.5283 20.7563 28.0451C21.5952 27.5618 22.2924 26.8667 22.7782 26.0292C23.264 25.1918 23.5212 24.2414 23.5241 23.2733C23.5271 22.3051 23.2756 21.3532 22.7949 20.5128L17.999 12.2061L13.2011 20.5128ZM22.4191 23.2544C22.4193 23.932 22.2637 24.6005 21.9644 25.2083C21.6651 25.8161 21.23 26.347 20.6929 26.7599C20.1557 27.1729 19.5308 27.4568 18.8665 27.5897C18.2021 27.7227 17.5161 27.7012 16.8614 27.5268C16.2067 27.3524 15.6008 27.0299 15.0906 26.5841C14.5804 26.1383 14.1795 25.5812 13.9189 24.9558C13.6583 24.3304 13.545 23.6534 13.5876 22.9773C13.6303 22.3011 13.8278 21.6438 14.165 21.0561L17.999 14.4142L21.8369 21.0561C22.2209 21.7249 22.4217 22.4832 22.4191 23.2544Z" fill="#333333"/>
<path d="M24.9 7.13172H19.0954V1H16.8931V7.13172H11.1002V9.334H24.9V7.13172Z" fill="#333333"/>
<path d="M26.8354 3.81558V32.7977H9.16267V3.81558H6.96039V34.9999H29.0396V3.81558H26.8354Z" fill="#333333"/>
</svg>
