<svg width="36" height="36" viewBox="0 0 36 36" fill="none" xmlns="http://www.w3.org/2000/svg">
<path d="M31.8223 29.2224V2.86049C31.8223 2.36706 31.6263 1.89383 31.2774 1.54492C30.9285 1.19602 30.4553 1 29.9618 1C29.4684 1 28.9952 1.19602 28.6463 1.54492C28.2974 1.89383 28.1014 2.36706 28.1014 2.86049V29.2224C27.5534 29.6162 27.1445 30.1736 26.9335 30.8145C26.7224 31.4554 26.7202 32.1467 26.927 32.7889C27.1338 33.4312 27.539 33.9913 28.0844 34.3886C28.6298 34.7859 29.2871 35 29.9618 35C30.6366 35 31.2939 34.7859 31.8393 34.3886C32.3846 33.9913 32.7899 33.4312 32.9967 32.7889C33.2035 32.1467 33.2013 31.4554 32.9902 30.8145C32.7792 30.1736 32.3703 29.6162 31.8223 29.2224ZM30.7589 17.9995H29.1648V2.86049C29.1648 2.64909 29.2487 2.44635 29.3982 2.29687C29.5477 2.14738 29.7504 2.06341 29.9618 2.06341C30.1732 2.06341 30.376 2.14738 30.5255 2.29687C30.675 2.44635 30.7589 2.64909 30.7589 2.86049V17.9995Z" fill="#333333"/>
<path d="M20.1269 7.90746H14.5454V2.06342H12.4186V7.90746H6.8371V10.0324H20.1269V7.90746Z" fill="#333333"/>
<path d="M8.85125 20.6177C8.38169 21.4299 8.13427 22.3515 8.13387 23.2897C8.13347 24.2279 8.38011 25.1496 8.84898 25.9623C9.31785 26.7749 9.99242 27.4497 10.8049 27.919C11.6173 28.3882 12.539 28.6352 13.4772 28.6352C14.4154 28.6352 15.337 28.3882 16.1495 27.919C16.9619 27.4497 17.6365 26.7749 18.1053 25.9623C18.5742 25.1496 18.8208 24.2279 18.8204 23.2897C18.82 22.3515 18.5726 21.4299 18.1031 20.6177L13.4818 12.6112L8.85125 20.6177ZM17.7598 23.2865C17.7597 23.9425 17.6087 24.5898 17.3184 25.1781C17.0282 25.7665 16.6065 26.2802 16.086 26.6796C15.5655 27.0789 14.9601 27.3532 14.3166 27.4813C13.6732 27.6093 13.0089 27.5876 12.3752 27.4179C11.7415 27.2482 11.1553 26.935 10.6619 26.5025C10.1686 26.0701 9.78129 25.53 9.53003 24.9239C9.27877 24.3179 9.17025 23.6622 9.21288 23.0075C9.25551 22.3529 9.44814 21.7168 9.77587 21.1484L13.4818 14.7361L17.1859 21.1484C17.5614 21.7985 17.7593 22.5358 17.7598 23.2865Z" fill="#333333"/>
<path d="M21.9873 32.8723H4.97467V4.71921H2.84973V34.9972H24.1141V4.71921H21.9873V32.8723Z" fill="#333333"/>
</svg>
