<svg width="36" height="36" viewBox="0 0 36 36" fill="none" xmlns="http://www.w3.org/2000/svg">
<path d="M23.903 8.60111H18.9441V3.43127H17.0559V8.60111H12.0986V10.481H23.903V8.60111Z" fill="#333333"/>
<path d="M13.8906 19.8476C13.4744 20.5689 13.2553 21.387 13.2554 22.2198C13.2555 23.0526 13.4748 23.8707 13.8913 24.5919C14.3078 25.3131 14.9067 25.9119 15.6279 26.3283C16.3492 26.7446 17.1673 26.9638 18.0001 26.9638C18.8329 26.9638 19.651 26.7446 20.3723 26.3283C21.0935 25.9119 21.6924 25.3131 22.1089 24.5919C22.5254 23.8707 22.7447 23.0526 22.7448 22.2198C22.7449 21.387 22.5258 20.5689 22.1096 19.8476L18.0009 12.7646L13.8906 19.8476ZM21.8007 22.2091C21.8027 22.7929 21.6701 23.3694 21.4134 23.8937C21.1567 24.418 20.7826 24.8762 20.3203 25.2327C19.8579 25.5891 19.3196 25.8343 18.7472 25.9491C18.1748 26.064 17.5836 26.0455 17.0195 25.895C16.4555 25.7445 15.9336 25.4662 15.4944 25.0815C15.0553 24.6968 14.7106 24.2161 14.4872 23.6767C14.2638 23.1373 14.1677 22.5538 14.2062 21.9712C14.2447 21.3887 14.4169 20.8228 14.7094 20.3176L18.0009 14.6445L21.2908 20.3176C21.6245 20.8921 21.8004 21.5447 21.8007 22.2091Z" fill="#333333"/>
<path d="M4.88277 19.175H1V22.4649H4.88277V24.476L8.55629 20.8224L4.88277 17.1688V19.175ZM5.82772 19.4341L7.22107 20.8208L5.82772 22.2075V21.5332H1.94495V20.1233H5.82772V19.4341Z" fill="#333333"/>
<path d="M31.1173 19.1749V17.1654L27.4438 20.819L31.1173 24.4726V22.4647H35V19.1749H31.1173ZM34.0485 21.5331H30.1723V22.2156L28.779 20.8289L30.1723 19.4422V20.1231H34.0485V21.5331Z" fill="#333333"/>
<path d="M25.5554 5.78132V30.6905H10.4445V5.78132H8.55625V32.5688H27.4437V5.78132H25.5554Z" fill="#333333"/>
</svg>
