<svg width="36" height="36" viewBox="0 0 36 36" fill="none" xmlns="http://www.w3.org/2000/svg">
<path d="M30.0392 7.03067H24.2924V1H22.1045V7.03067H16.3577V9.22627H30.0392V7.03067Z" fill="#333333"/>
<path d="M31.9527 3.74018V32.8063H14.442V3.74018H12.2541V21.2896V35H34.1425V3.74018H31.9527Z" fill="#333333"/>
<path d="M2.95034 12.3797H1.85736V26.9881L12.2541 21.2896L2.95034 16.1916V12.3797ZM9.96777 21.2895L2.95034 25.1381V17.441L9.96777 21.2895Z" fill="#333333"/>
<path d="M18.4373 20.1541C17.9539 20.9901 17.6992 21.9387 17.6987 22.9044C17.6982 23.8701 17.952 24.8189 18.4346 25.6553C18.9172 26.4918 19.6115 27.1865 20.4477 27.6695C21.284 28.1524 22.2326 28.4067 23.1983 28.4067C24.164 28.4067 25.1127 28.1524 25.9489 27.6695C26.7852 27.1865 27.4795 26.4918 27.9621 25.6553C28.4446 24.8189 28.6984 23.8701 28.698 22.9044C28.6975 21.9387 28.4427 20.9901 27.9593 20.1541L23.1974 11.8892L18.4373 20.1541ZM27.6021 22.9097C27.6012 23.5854 27.4449 24.2517 27.1453 24.8572C26.8456 25.4628 26.4107 25.9913 25.8742 26.4018C25.3377 26.8124 24.7139 27.0941 24.0511 27.225C23.3883 27.356 22.7042 27.3327 22.0519 27.157C21.3995 26.9813 20.7963 26.6579 20.2889 26.2118C19.7815 25.7656 19.3836 25.2088 19.1258 24.5843C18.8681 23.9598 18.7574 23.2844 18.8024 22.6103C18.8475 21.9362 19.047 21.2814 19.3855 20.6968L23.1974 14.0771L27.0131 20.6968C27.4003 21.3699 27.6034 22.1332 27.6021 22.9097Z" fill="#333333"/>
</svg>
