<svg width="36" height="36" viewBox="0 0 36 36" fill="none" xmlns="http://www.w3.org/2000/svg">
<path d="M18.0216 10.001L14.0745 16.8334C13.6743 17.5263 13.4636 18.3123 13.4635 19.1124C13.4635 19.9126 13.674 20.6987 14.0741 21.3917C14.4741 22.0846 15.0495 22.6601 15.7425 23.0602C16.4354 23.4603 17.2215 23.6709 18.0216 23.6709C18.8218 23.6709 19.6078 23.4603 20.3008 23.0602C20.9937 22.6601 21.5691 22.0846 21.9692 21.3917C22.3692 20.6987 22.5798 19.9126 22.5797 19.1124C22.5796 18.3123 22.3689 17.5263 21.9687 16.8334L18.0216 10.001ZM18.0216 22.7604C17.3809 22.761 16.7514 22.5928 16.1963 22.2727C15.6413 21.9527 15.1803 21.4921 14.8598 20.9373C14.5393 20.3825 14.3706 19.7531 14.3705 19.1124C14.3705 18.4717 14.5393 17.8423 14.8598 17.2876L18.0216 11.8147L21.1835 17.2876C21.504 17.8423 21.6727 18.4717 21.6727 19.1124C21.6727 19.7531 21.5039 20.3825 21.1834 20.9373C20.8629 21.4921 20.4019 21.9527 19.8469 22.2727C19.2919 22.5928 18.6623 22.761 18.0216 22.7604Z" fill="#333333"/>
<path d="M30.7027 28.6522V30.92H27.0722V32.7321H30.7027V34.9999H32.5163V28.6522H30.7027Z" fill="#333333"/>
<path d="M23.6927 5.98669H18.9284V1H17.1147V5.98669H12.3519V7.79872H23.6927V5.98669Z" fill="#333333"/>
<path d="M17.0923 30.9202H10.7414V32.7322H17.0923V30.9202Z" fill="#333333"/>
<path d="M25.2584 30.9202H18.9075V32.7322H25.2584V30.9202Z" fill="#333333"/>
<path d="M5.29893 28.6522H3.4837V34.9999H5.29893V32.7321H8.9278V30.92H5.29893V28.6522Z" fill="#333333"/>
<path d="M27.0945 3.26634H25.2793V27.293H10.7638V3.26634H8.94862V29.1066H27.0945V3.26634Z" fill="#333333"/>
</svg>
