<svg width="36" height="36" viewBox="0 0 36 36" fill="none" xmlns="http://www.w3.org/2000/svg">
<path d="M33.2972 11.2806L30.9631 15.6588C31.1399 12.0993 31.1204 6.40202 28.1445 3.23684C26.7493 1.75328 24.8591 1 22.5232 1C19.7134 1 17.4801 1.83815 15.8816 3.49147C13.2169 6.24818 13.3212 10.2497 13.3265 10.4195L14.4635 10.3806C14.4635 10.3435 14.3768 6.67963 16.7074 4.27481C18.0813 2.8602 20.0388 2.13876 22.5232 2.13876C24.5319 2.13876 26.1446 2.77002 27.3152 4.01664C30.1444 7.02268 29.987 12.8897 29.7907 16.2176L27.3152 11.4433L26.3055 11.9738L30.1956 19.5119L34.2874 11.8376L33.2972 11.2806Z" fill="#333333"/>
<path d="M18.3767 30.2858H17.3759V34.9523H18.3767V30.2858Z" fill="#333333"/>
<path d="M9.40633 30.2858H8.4055V34.9523H9.40633V30.2858Z" fill="#333333"/>
<path d="M23.0643 11.9949H3.71962L2.37928 10.6617H1.71265V19.1953H8.43201V20.1996H5.73189V27.5237H8.4214V28.666H10.3859V34.9999H16.3892V28.666H18.3979V27.5343H21.0644V20.1943H18.4014V19.1953H25.0536L25.066 10.6457L24.387 10.6617L23.0643 11.9949ZM18.4916 21.1014H20.1555V26.438H18.4916V21.1014ZM8.49921 26.438H6.81406V21.1014H8.49921V26.438ZM24.1518 18.1025H15.4874V19.1015H17.489V27.5732H15.4785V33.9054H11.4787V27.5732H9.50181V19.1015H11.4646V18.106H2.80012V12.902H24.1518V18.1025Z" fill="#333333"/>
</svg>
