<svg width="36" height="36" viewBox="0 0 36 36" fill="none" xmlns="http://www.w3.org/2000/svg">
<path d="M1 8H1.98458V19.1238H1V8Z" fill="#333333"/>
<path fill-rule="evenodd" clip-rule="evenodd" d="M35 11.9917L9 29.343L28.6295 29.3502C30.319 29.3502 31.9394 28.679 33.1341 27.4843C34.3288 26.2896 35 24.6692 35 22.9797V11.9917ZM15.7391 27.2968L32.952 15.8108L32.961 22.9797C32.9605 24.1286 32.5038 25.2304 31.6912 26.0426C30.8785 26.8549 29.7766 27.3112 28.6277 27.3112L15.7391 27.2968Z" fill="#333333"/>
<path d="M8.11959 17.4585L4.36883 13.5601L8.18384 9.73294L7.48578 9.03662L2.96924 13.5532L7.40938 18.1444L8.11959 17.4585Z" fill="#333333"/>
<path d="M19.2844 8H20.269V19.1238H19.2844V8Z" fill="#333333"/>
<path d="M13.1497 17.4585L13.8599 18.1444L18.3001 13.5532L13.7835 9.03662L13.0854 9.73294L16.9005 13.5601L13.1497 17.4585Z" fill="#333333"/>
<path d="M8 28H1V29H8V28Z" fill="#333333"/>
</svg>
