<svg width="36" height="36" viewBox="0 0 36 36" fill="none" xmlns="http://www.w3.org/2000/svg">
<path d="M9.59911 35H27.0771V31.9578H7.65747V33.1C7.65747 34.1494 8.52677 35 9.59911 35Z" fill="#333333"/>
<path d="M32.347 12.503L30.9838 12.2312C28.9492 11.8256 27.7321 9.77339 28.3819 7.84354C29.0872 6.11573 30.4461 4.68127 32.347 4.64311C33.1242 4.62746 33.7109 5.32822 33.5424 6.07076L32.347 12.503Z" fill="#333333"/>
<path d="M23.9182 30.8996L28.7881 31.9578L32.347 12.2188C32.5439 11.3517 31.8586 10.5332 30.951 10.5514L29.6227 10.5782C28.2078 10.6066 26.9474 11.4605 26.4224 12.7466L25.9296 13.9538C24.8473 16.605 24.1696 19.3975 23.9182 22.2417V30.8996Z" fill="#333333"/>
<path d="M9.31135 26.2382L26.8493 28.4907C27.8359 28.6174 26.1337 29.097 26.1337 30.1607C26.1337 31.3212 27.6997 32.6785 26.6155 32.6785H6.11285C5.18263 32.6785 4.42857 31.8712 4.42857 30.8754C4.42851 28.0754 6.71429 25.9046 9.31135 26.2382Z" fill="#333333"/>
<path d="M27.4114 35H23.6816L25.1372 28.8756C25.395 27.745 26.5406 27.0329 27.6961 27.2851C28.8511 27.5373 29.4486 28.59 29.1915 29.7203L28.1869 34.4021C28.1006 34.7528 27.78 35 27.4114 35Z" fill="#333333"/>
<path d="M20.2143 19.2143H2L11.1071 1L20.2143 19.2143ZM11.7143 15.5714H10.5V16.7857H11.7143V15.5714ZM11.7143 14.3571V8.28571H10.5V14.3571H11.7143Z" fill="#333333"/>
</svg>
