<svg width="36" height="36" viewBox="0 0 36 36" fill="none" xmlns="http://www.w3.org/2000/svg">
<path d="M21.2514 23.2931L20.224 21.4907L19.2427 22.0595L16.2386 16.8184C16.505 16.5073 16.7139 16.1513 16.8555 15.767H26.2862V12.3623H22.8816V13.4979H16.8735C16.7306 13.0974 16.5139 12.7271 16.2346 12.4064L20.951 4.25138L18.003 2.54907L16.2987 5.49906L17.282 6.06583L14.278 11.2729C14.0685 11.2353 13.8559 11.2178 13.6431 11.2208C13.4367 11.2231 13.231 11.2439 13.0283 11.2829L8.30989 3.11183L5.3599 4.81414L7.0622 7.75612L8.04553 7.18935L11.0496 12.3964C10.7793 12.7159 10.5702 13.0825 10.4328 13.4779L1 13.4919V16.8965H4.40461V15.767H10.4388C10.5786 16.1522 10.7869 16.5091 11.0536 16.8204L6.33722 25.0115L9.28521 26.7158L10.9875 23.7658L10.0122 23.197L13.0263 17.9699C13.434 18.046 13.8522 18.046 14.2599 17.9699L18.4236 25.1797L6.04082 33.4509H27.9024C29.7845 33.4509 31.5894 32.7034 32.9205 31.3728C34.2514 30.0421 34.9995 28.2373 35 26.3553V14.1247L21.2514 23.2931ZM13.6431 15.767C13.4185 15.767 13.199 15.7004 13.0122 15.5756C12.8255 15.4508 12.68 15.2735 12.594 15.066C12.5081 14.8585 12.4856 14.6302 12.5294 14.4099C12.5732 14.1896 12.6814 13.9873 12.8402 13.8285C12.999 13.6697 13.2013 13.5615 13.4216 13.5177C13.6418 13.4739 13.8702 13.4964 14.0777 13.5823C14.2851 13.6683 14.4625 13.8138 14.5873 14.0005C14.712 14.1873 14.7786 14.4068 14.7786 14.6314C14.7786 14.9326 14.659 15.2214 14.4461 15.4344C14.2331 15.6473 13.9443 15.767 13.6431 15.767ZM27.9024 31.1878L13.547 31.1718L32.7189 18.3705L32.7289 26.3553C32.7297 26.9896 32.6055 27.6179 32.3633 28.2042C32.1211 28.7904 31.7657 29.3232 31.3174 29.772C30.8691 30.2209 30.3368 30.5769 29.7508 30.8198C29.1648 31.0628 28.5367 31.1878 27.9024 31.1878Z" fill="#333333"/>
</svg>
