<svg width="36" height="36" viewBox="0 0 36 36" fill="none" xmlns="http://www.w3.org/2000/svg">
<path d="M5.08122 18.1006L25.2905 21.6697C27.0291 21.9761 28.8182 21.5799 30.2649 20.568C31.7115 19.5562 32.6973 18.0115 33.0058 16.2733L35 4.95728L5.08122 18.1006ZM30.9003 15.9282C30.797 16.5138 30.5794 17.0734 30.2598 17.5748C29.9403 18.0763 29.525 18.5099 29.0378 18.8508C28.5507 19.1917 28.0011 19.4333 27.4205 19.5618C26.8399 19.6903 26.2397 19.7031 25.6541 19.5995L12.3903 17.2454L32.1933 8.54686L30.9003 15.9282Z" fill="#333333"/>
<path d="M11.4942 28.7895C7.82671 27.1793 4.70275 23.9663 3.56558 20.7384L8.04932 23.6769L8.62626 22.7957L1.99247 18.4548L1 26.1905L2.04256 26.3241L2.67885 21.3691C3.99225 24.764 7.26277 28.0808 11.0713 29.7523C12.1947 30.2484 13.3737 30.6078 14.5829 30.8227C17.449 31.3291 21.0034 31.0749 24.9028 28.847L24.3741 27.9343C19.0537 30.9785 14.4327 30.0788 11.4942 28.7895Z" fill="#333333"/>
</svg>
