<svg width="36" height="36" viewBox="0 0 36 36" fill="none" xmlns="http://www.w3.org/2000/svg">
<path d="M29.9225 6.8092L1 34.464L25.7469 30.1089C26.8017 29.923 27.8095 29.531 28.7128 28.9555C29.6161 28.38 30.3972 27.6322 31.0115 26.7549C31.6259 25.8775 32.0613 24.8877 32.2931 23.842C32.5249 22.7963 32.5485 21.7152 32.3624 20.6605L29.9225 6.8092ZM25.3084 27.5736L9.04904 30.4225L28.1936 12.1162L29.7975 21.1512C30.0532 22.5981 29.724 24.0873 28.8823 25.2915C28.0405 26.4958 26.7551 27.3166 25.3084 27.5736Z" fill="#333333"/>
<path d="M18.2204 2.5359C13.3951 4.16934 9.05365 7.86785 7.08853 11.8685L6.8409 5.75506L5.55505 5.80732L5.94126 15.3489L14.5037 10.7599L13.8972 9.62397L8.10403 12.7318C9.83516 8.91516 13.9903 5.32796 18.6339 3.75587C22.3551 2.49501 28.0915 1.89298 34.2663 6.17535L35.0001 5.11668C28.3845 0.529888 22.2256 1.17963 18.2204 2.5359Z" fill="#333333"/>
</svg>
