<svg width="36" height="36" viewBox="0 0 36 36" fill="none" xmlns="http://www.w3.org/2000/svg">
<path d="M24.1696 24.1842C25.9108 24.1837 27.5805 23.4919 28.8116 22.2607C30.0428 21.0295 30.7347 19.3598 30.7352 17.6187V6.2945L3.94263 24.1769L24.1696 24.1842ZM28.6338 17.648C28.6333 18.8321 28.1626 19.9676 27.3251 20.8047C26.4876 21.6419 25.3519 22.1122 24.1678 22.1122L10.8867 22.0975L28.6265 10.2613L28.6338 17.648Z" fill="#333333"/>
<path d="M22.0573 1.27625C18.0082 1.89257 14.0433 4.21886 11.9273 7.11574L12.5857 2.23456L11.5579 2.09557L10.5301 9.71636L17.9607 7.27485L17.6425 6.29094L12.6168 7.93689C14.517 5.15705 18.3118 2.89478 22.2146 2.29857C25.3419 1.8249 29.9725 2.14312 34.2685 6.39701L35 5.66547C30.3968 1.10251 25.4205 0.758688 22.0573 1.27625Z" fill="#333333"/>
<path d="M11.9932 33.4639C8.1526 32.5294 4.57356 29.9452 2.91846 27.0045L7.78135 29.0747L8.18918 28.1219L1 25.0513L1.36577 32.7324L2.40089 32.6849L2.16497 27.7616C4.02125 30.8341 7.76306 33.495 11.7481 34.4661C12.9237 34.7547 14.1295 34.9021 15.3399 34.9051C18.2094 34.9051 21.6165 34.051 25.0218 31.22L24.358 30.4226C19.7072 34.2887 15.0675 34.2083 11.9932 33.4639Z" fill="#333333"/>
</svg>
