<svg width="36" height="36" viewBox="0 0 36 36" fill="none" xmlns="http://www.w3.org/2000/svg">
<path d="M34.0403 29.5711C32.8854 30.2728 31.5733 30.6745 30.2235 30.7395C28.8737 30.8045 27.5291 30.5308 26.3122 29.9433C24.2397 28.9366 21.885 28.6702 19.64 29.1883C18.8971 29.3591 18.1757 29.6123 17.489 29.9433C16.2719 30.5338 14.926 30.8092 13.5748 30.7442C12.2236 30.6792 10.9103 30.2758 9.75557 29.5711L8.79401 31.35C10.2311 32.2061 11.8583 32.6918 13.5294 32.7636C15.2006 32.8354 16.8635 32.491 18.3686 31.7613C19.4691 31.226 20.6768 30.9478 21.9006 30.9478C23.1243 30.9478 24.3321 31.226 25.4325 31.7613C26.9368 32.489 28.5978 32.8327 30.2674 32.7619C31.9369 32.691 33.5628 32.2078 35 31.3553L34.0403 29.5711Z" fill="#333333"/>
<path d="M34.5585 21.1042V10L9.31225 27.1638H28.4989C29.2948 27.1645 30.0831 27.0083 30.8186 26.704C31.5541 26.3997 32.2224 25.9534 32.7852 25.3906C33.3481 24.8277 33.7944 24.1595 34.0987 23.424C34.4029 22.6885 34.5592 21.9002 34.5585 21.1042ZM32.5392 13.8142V21.1042C32.5369 22.1742 32.1101 23.1996 31.3527 23.9554C30.5952 24.7112 29.5689 25.1356 28.4989 25.1356H15.8758L32.5392 13.8142Z" fill="#333333"/>
<path fill-rule="evenodd" clip-rule="evenodd" d="M3.12218 16.8728C3.45646 16.6498 3.84938 16.5309 4.25123 16.5312C4.78973 16.5316 5.30604 16.7458 5.68666 17.1268C6.06729 17.5077 6.2811 18.0242 6.2811 18.5627C6.2811 18.9645 6.16192 19.3573 5.93863 19.6914C5.71534 20.0255 5.39797 20.2859 5.02668 20.4396C4.65538 20.5933 4.24684 20.6335 3.85273 20.555C3.45862 20.4765 3.09665 20.2828 2.81261 19.9986C2.52857 19.7143 2.33522 19.3522 2.25701 18.958C2.17881 18.5638 2.21927 18.1553 2.37327 17.7841C2.52727 17.413 2.7879 17.0958 3.12218 16.8728ZM6.28589 25.6688H8.52002L4.26081 21.4048L0 25.6688H2.23413V29.1205H6.28589V25.6688ZM6.28589 11.4517H8.52002V11.4549L4.26081 15.7157L0 11.4549H2.23413V8L6.28589 8V11.4517Z" fill="#333333"/>
</svg>
