<svg width="36" height="36" viewBox="0 0 36 36" fill="none" xmlns="http://www.w3.org/2000/svg">
<path d="M33.7548 28.6189C32.2564 29.5294 30.5541 30.0505 28.8029 30.1348C27.0517 30.2192 25.3072 29.864 23.7283 29.1018C21.0395 27.7958 17.9844 27.4501 15.0718 28.1222C14.1079 28.3439 13.1719 28.6724 12.281 29.1018C10.7019 29.868 8.95572 30.2253 7.20263 30.1409C5.44954 30.0565 3.74572 29.5332 2.24754 28.6189L1 30.9269C2.86446 32.0375 4.97558 32.6677 7.14379 32.7609C9.31199 32.854 11.4694 32.4072 13.4222 31.4606C14.85 30.766 16.4169 30.405 18.0046 30.405C19.5923 30.405 21.1593 30.766 22.587 31.4606C24.5386 32.4046 26.6937 32.8506 28.8598 32.7587C31.0258 32.6668 33.1354 32.0398 35 30.9338L33.7548 28.6189Z" fill="#333333"/>
<path d="M34.4271 17.6338V3.22705L1.67236 25.4956H26.5653C27.598 25.4965 28.6208 25.2938 29.575 24.899C30.5293 24.5042 31.3963 23.9252 32.1265 23.195C32.8567 22.4647 33.4358 21.5977 33.8306 20.6434C34.2253 19.6892 34.4281 18.6665 34.4271 17.6338ZM31.8073 8.17561V17.6338C31.8043 19.022 31.2506 20.3524 30.2679 21.333C29.2852 22.3135 27.9536 22.8642 26.5653 22.8642H10.188L31.8073 8.17561Z" fill="#333333"/>
</svg>
