<svg width="36" height="36" viewBox="0 0 36 36" fill="none" xmlns="http://www.w3.org/2000/svg">
<path d="M29.7446 14.5171V4.4778L5.99097 20.3311H23.9241C25.4667 20.3311 26.9461 19.7188 28.0375 18.6286C29.1289 17.5385 29.7429 16.0597 29.7446 14.5171ZM27.8751 7.96881V14.5171C27.8751 15.037 27.7727 15.5517 27.5737 16.032C27.3747 16.5123 27.083 16.9486 26.7154 17.3161C26.3477 17.6837 25.9112 17.9751 25.4309 18.1739C24.9505 18.3727 24.4357 18.4749 23.9159 18.4747L12.1401 18.4616L27.8751 7.96881Z" fill="#333333"/>
<path d="M29.3619 23.5298C28.5405 23.9258 27.6386 24.2905 25.9925 24.2905C22.1203 24.2905 22.5425 22.5786 18.1365 22.4324C14.8738 22.324 13.3312 24.4761 10.2098 24.2905C8.41913 24.1853 8.17271 24.0621 6.86502 23.4806C6.86502 23.4806 6.70073 23.998 6.2506 25.2088C8.01828 26.0434 8.35342 26.0943 10.292 26.1945C13.6598 26.3785 15.0397 24.141 18.3008 24.3151C22.1811 24.5238 21.8739 26.1945 26.0746 26.1945C28.0099 26.1945 29.0317 25.6277 30.0092 25.1628C29.4539 23.7927 29.3619 23.5298 29.3619 23.5298Z" fill="#333333"/>
<path d="M17.6436 26.1779L13.7698 30.7778H16.0698V34.9999H19.9272V30.7778H22.2271L18.0001 25.7557L17.6436 26.1779ZM18.9957 29.8414V34.0635H16.998V29.8414H15.7741L18.0001 27.2014L20.2262 29.8414H18.9957Z" fill="#333333"/>
<path d="M22.2304 5.22043H19.9304V1H16.073V5.22043H13.7731L18.0001 10.2376L22.2304 5.22043ZM16.9979 6.15191V1.92984H18.9956V6.15191H20.2261L18.0001 8.79194L15.774 6.15191H16.9979Z" fill="#333333"/>
</svg>
