<svg width="36" height="36" viewBox="0 0 36 36" fill="none" xmlns="http://www.w3.org/2000/svg">
<path d="M25.1521 19.0771C24.4013 18.8331 23.5924 18.8331 22.8416 19.0771H21.8487V15.2141L21.1259 9.2532H14.7509L14.0154 15.2141V19.0819H13.0992C12.7242 18.9581 12.3318 18.895 11.9368 18.8949C11.5398 18.8951 11.1453 18.9582 10.768 19.0819H1V23.1912H10.3394V26.3891C10.8396 26.6247 11.3856 26.7468 11.9384 26.7468C12.4912 26.7468 13.0372 26.6247 13.5373 26.3891V23.1912H16.3499C16.4422 23.5512 16.6514 23.8704 16.9447 24.0986C17.2381 24.3268 17.5989 24.4511 17.9705 24.452C18.3422 24.4529 18.7036 24.3304 18.998 24.1036C19.2925 23.8769 19.5033 23.5588 19.5973 23.1992H22.4019V26.3843C22.9018 26.6206 23.4479 26.7432 24.0008 26.7432C24.5538 26.7432 25.0999 26.6206 25.5998 26.3843V23.2072H35V19.0819L25.1521 19.0771ZM10.3394 21.8321H2.35751V20.473H10.3394V21.8321ZM12.8466 25.927C12.5526 26.019 12.2464 26.0659 11.9384 26.0661C11.6284 26.0657 11.3202 26.0193 11.0238 25.9286V19.7183C11.3195 19.6245 11.6281 19.5776 11.9384 19.5792C12.2469 19.5781 12.5538 19.6245 12.8482 19.7167L12.8466 25.927ZM16.2923 21.8369H13.5309V20.473H16.2923V21.8369ZM18.9658 22.7867C18.9555 23.0438 18.8461 23.2869 18.6605 23.4651C18.475 23.6434 18.2277 23.7429 17.9704 23.7429C17.7131 23.7429 17.4658 23.6434 17.2803 23.4651C17.0948 23.2869 16.9854 23.0438 16.9751 22.7867V19.2898H18.9658V22.7867ZM14.6998 18.6038V15.2365L15.3489 9.93915H20.5247L21.1643 15.2365V18.6038H14.6998ZM19.6485 21.8401V20.4698H22.3971V21.8401H19.6485ZM23.9929 26.0629C23.6844 26.0633 23.3776 26.0169 23.0831 25.9254V19.7151C23.3776 19.6231 23.6843 19.5762 23.9929 19.576C24.2975 19.5758 24.6005 19.6216 24.8915 19.7119L24.9058 19.7391V25.9254C24.6101 26.0167 24.3024 26.0631 23.9929 26.0629ZM33.6185 21.8337H25.5838V20.4666H33.6217L33.6185 21.8337Z" fill="#333333"/>
<path d="M31.3016 15.7929L27.7839 13.305L27.2835 13.9973L32.7199 17.8348L32.7327 11.0329L31.882 10.9561L31.9908 15.3005C30.5677 12.4511 28.7737 10.889 26.743 9.81927L26.0107 10.4013C28.2109 11.6517 29.9409 13.0907 31.3016 15.7929Z" fill="#333333"/>
<path d="M3.28484 17V17.8411L8.72126 14.0036L8.22079 13.3112L4.61037 15.8696C5.91511 13.0906 7.602 11.5876 9.78136 10.27L9.03465 9.70721C7.07594 10.8089 5.35068 12.3822 4.02035 15.1692L4.12589 10.9624L3.27525 11.0391L3.28484 16.9552L3.26565 17.008L3.28484 17Z" fill="#333333"/>
</svg>
