<svg width="36" height="36" viewBox="0 0 36 36" fill="none" xmlns="http://www.w3.org/2000/svg">
<path d="M3.98459 1H2.9115V13.1238H3.98459V1Z" fill="#333333"/>
<path d="M10.6711 11.3088L6.58312 7.05997L10.7411 2.88875L9.98028 2.12983L5.05771 7.0524L9.89701 12.0564L10.6711 11.3088Z" fill="#333333"/>
<path d="M33.0885 1H32.0154V13.1238H33.0885V1Z" fill="#333333"/>
<path d="M25.3291 11.3088L26.1031 12.0564L30.9424 7.0524L26.0199 2.12983L25.259 2.88875L29.417 7.05997L25.3291 11.3088Z" fill="#333333"/>
<path d="M28.2549 23.3323V27.3672H7.74512V23.3323L5.12202 14.7343H2.9115V32.1933H9.94239V35H26.0519V32.199H33.0847V14.7343H30.878L28.2549 23.3323ZM31.4723 30.5865H24.4451V33.4007H11.5492V30.5865H4.52208V17.0868L6.12887 23.5367V28.974H29.8655V23.5367L31.4723 17.0868V30.5865Z" fill="#333333"/>
</svg>
