<svg width="36" height="36" viewBox="0 0 36 36" fill="none" xmlns="http://www.w3.org/2000/svg">
<path d="M27.1245 9.04432H27.112V1H9.74714V9.03595C7.32989 10.8578 5.54647 13.3934 4.64905 16.2842C3.75163 19.1751 3.78561 22.2749 4.74619 25.1453C5.70677 28.0158 7.54535 30.5117 10.002 32.2801C12.4586 34.0485 15.4089 35 18.4358 35C21.4628 35 24.4131 34.0485 26.8697 32.2801C29.3263 30.5117 31.1649 28.0158 32.1255 25.1453C33.0861 22.2749 33.12 19.1751 32.2226 16.2842C31.3252 13.3934 29.5418 10.8578 27.1245 9.03595V9.04432ZM18.4317 32.6291C15.9025 32.63 13.4371 31.8358 11.384 30.3589C9.33092 28.882 7.79405 26.797 6.99073 24.3989C6.18741 22.0007 6.15829 19.4107 6.90748 16.9951C7.65667 14.5794 9.14626 12.4604 11.1656 10.9377L12.1196 10.2348V3.3725H24.7395V9.06942L24.7646 10.2348L25.6935 10.9377C27.7126 12.4602 29.202 14.5788 29.9513 16.9941C30.7006 19.4093 30.6718 21.9989 29.869 24.3969C29.0663 26.7948 27.5301 28.8798 25.4777 30.3571C23.4252 31.8343 20.9604 32.6291 18.4317 32.6291Z" fill="#333333"/>
<path d="M11.837 20.4194C11.3349 20.2102 10.7742 20.1244 10.2868 19.8692C9.86832 19.6432 9.78673 19.0825 10.2407 18.8231C10.6236 18.6139 11.3077 18.6285 11.5818 19.0114C11.6793 19.2115 11.7537 19.4221 11.8036 19.639L12.6299 19.5993C12.6676 19.5993 12.8392 19.616 12.8726 19.5867C12.8826 19.0707 12.7016 18.5693 12.3642 18.1787C11.6697 17.4548 10.1968 17.4109 9.45826 18.0908C8.62141 18.8545 8.75321 20.3922 9.71769 20.9926C10.1759 21.2793 10.7219 21.386 11.2261 21.5596C11.6446 21.704 12.0232 21.9132 11.9542 22.432C11.8851 22.9509 11.3496 23.1999 10.8642 23.1831C10.6739 23.1803 10.4881 23.1256 10.3266 23.0249C10.1651 22.9243 10.0342 22.7815 9.94782 22.612C9.86003 22.4026 9.79481 22.1845 9.75325 21.9613L9.475 21.9948L8.71974 22.0847C8.78669 22.7563 8.99172 23.4781 9.55659 23.907C10.1215 24.3359 10.9521 24.3861 11.6257 24.2271C12.0231 24.1282 12.3766 23.9005 12.6309 23.5796C12.8853 23.2586 13.0262 22.8625 13.0316 22.453C13.063 21.5492 12.6843 20.7834 11.837 20.4194Z" fill="#333333"/>
<path d="M13.5356 18.8314H15.1152V24.1978H16.1822V18.8314H17.7513V17.7331H13.5356V18.8314Z" fill="#333333"/>
<path d="M20.6767 17.6286C20.2045 17.6151 19.7391 17.7426 19.3398 17.9948C18.9432 18.2735 18.6335 18.6586 18.4464 19.1057C18.1983 19.7073 18.0813 20.355 18.1033 21.0054C18.1033 22.0654 18.3565 22.8988 18.8628 23.5055C19.0845 23.7687 19.3638 23.9775 19.679 24.1157C19.9942 24.2539 20.337 24.3179 20.6808 24.3026C21.0243 24.3177 21.3665 24.2527 21.6805 24.1129C21.9946 23.9732 22.2719 23.7624 22.4906 23.4971C22.9927 22.8904 23.2437 22.0466 23.2437 20.9656C23.2437 19.8847 23.0066 19.0618 22.5324 18.4969C22.3111 18.2187 22.0284 17.9955 21.7065 17.8449C21.3845 17.6942 21.032 17.6202 20.6767 17.6286ZM21.7353 22.6331C21.6186 22.8027 21.4624 22.9415 21.2802 23.0373C21.0979 23.1332 20.8951 23.1833 20.6892 23.1833C20.4832 23.1816 20.2806 23.1303 20.0985 23.0338C19.9164 22.9373 19.7602 22.7984 19.6431 22.6289C19.3642 22.2579 19.2247 21.7 19.2247 20.9552C19.2247 20.2104 19.3642 19.6525 19.6431 19.2814C19.7639 19.111 19.9243 18.9726 20.1106 18.8782C20.2969 18.7838 20.5034 18.7362 20.7122 18.7396C20.9193 18.7358 21.1241 18.7826 21.309 18.8759C21.4938 18.9692 21.6531 19.1063 21.7729 19.2752C22.0449 19.6329 22.1788 20.1853 22.1788 20.9322C22.1788 21.6791 22.0135 22.2649 21.7353 22.6331Z" fill="#333333"/>
<path d="M28.1308 19.3587C28.1142 19.0969 28.0432 18.8415 27.9221 18.6087C27.801 18.376 27.6327 18.1711 27.4278 18.0072C27.0826 17.7582 26.6579 17.752 26.2479 17.7394C25.6453 17.7227 25.0407 17.7394 24.4361 17.7394C24.3963 17.7394 24.0846 17.7164 24.0846 17.7582V24.2042C24.1955 24.2042 25.1516 24.2042 25.1516 24.2042V21.7689C25.1516 21.7898 26.6412 21.7187 26.6851 21.7124C26.9138 21.6915 27.1346 21.6187 27.3308 21.4994C27.5269 21.3801 27.6932 21.2175 27.817 21.0241C28.1087 20.5211 28.2194 19.9334 28.1308 19.3587ZM26.7563 20.4571C26.4885 20.6873 26.0596 20.6663 25.7311 20.6663C25.6725 20.6663 25.1474 20.6663 25.1474 20.6663V18.8315C25.3985 18.8315 25.6474 18.8315 25.8964 18.8315C26.2813 18.8315 26.6768 18.8315 26.909 19.1977C27.0293 19.394 27.0797 19.6253 27.052 19.854C27.0243 20.0826 26.92 20.2952 26.7563 20.4571Z" fill="#333333"/>
</svg>
