<svg width="36" height="36" viewBox="0 0 36 36" fill="none" xmlns="http://www.w3.org/2000/svg">
<path d="M5.27683 30.4708V19.8961H4.32755V30.4708L1.8235 26.1386L1 26.6133L4.80219 33.1929L8.60438 26.6133L7.78088 26.1386L5.27683 30.4708Z" fill="#333333"/>
<path d="M1 11.0421L1.8235 11.5167L4.32755 7.18452V17.9974H5.27683V7.18452L7.78088 11.5167L8.60438 11.0421L4.80219 4.46244L1 11.0421Z" fill="#333333"/>
<path d="M11.2309 18.9534H29.2976C30.81 18.9534 32.2605 18.3526 33.3299 17.2832C34.3993 16.2138 35.0001 14.7634 35.0001 13.251V2.80713L11.2309 18.9534ZM33.0931 13.251C33.0929 13.7501 32.9944 14.2442 32.8032 14.7053C32.612 15.1663 32.3319 15.5851 31.9788 15.9379C31.6257 16.2906 31.2066 16.5704 30.7454 16.7612C30.2843 16.952 29.79 17.05 29.2909 17.0498H17.4147L33.0998 6.39632L33.0931 13.251Z" fill="#333333"/>
</svg>
