<svg width="36" height="36" viewBox="0 0 36 36" fill="none" xmlns="http://www.w3.org/2000/svg">
<path d="M6.73258 11.5819V22.7394H7.6928V11.5751L10.5752 16.5791L11.4052 16.1007L7.21438 8.82461L3.02355 16.1007L3.8536 16.5791L6.73258 11.5819Z" fill="#333333"/>
<path d="M35 33.0027H1V33.9629H35V33.0027Z" fill="#333333"/>
<path d="M28.5354 18.3592C30.0615 18.357 31.5242 17.7488 32.602 16.6685C33.6798 15.5881 34.2846 14.1239 34.2832 12.5979V2.03711L10.3385 18.3592H28.5354ZM32.3661 12.5979C32.367 13.6151 31.9641 14.591 31.2457 15.3112C30.5274 16.0314 29.5526 16.437 28.5354 16.4388H16.5613L32.3661 5.66499V12.5979Z" fill="#333333"/>
</svg>
