<svg width="36" height="36" viewBox="0 0 36 36" fill="none" xmlns="http://www.w3.org/2000/svg">
<path d="M35 26.8509H1V27.8087H35V26.8509Z" fill="#333333"/>
<path d="M16.2102 14.808L15.3807 14.3283L12.5022 19.3116V8.19116H11.541V19.3167L8.65913 14.3283L7.8297 14.808L12.0191 22.0584L16.2102 14.808Z" fill="#333333"/>
<path d="M28.5351 25.6869C30.0584 25.6869 31.5193 25.0818 32.5964 24.0047C33.6735 22.9276 34.2786 21.4667 34.2786 19.9434V9.41922L10.3332 25.6869H28.5351ZM32.3664 19.9434C32.3664 20.4464 32.2673 20.9446 32.0747 21.4093C31.8822 21.874 31.5999 22.2963 31.2441 22.6519C30.8883 23.0075 30.466 23.2896 30.0011 23.4819C29.5363 23.6743 29.0382 23.7732 28.5351 23.773H16.5582L32.363 13.0359L32.3664 19.9434Z" fill="#333333"/>
</svg>
