<svg width="36" height="36" viewBox="0 0 36 36" fill="none" xmlns="http://www.w3.org/2000/svg">
<path fill-rule="evenodd" clip-rule="evenodd" d="M7.23204 13C6.4291 13 5.7035 12.8269 5.05525 12.4807C4.41436 12.1344 3.90976 11.6593 3.54144 11.0552C3.18048 10.4438 3 9.75875 3 9C3 8.24125 3.18048 7.55985 3.54144 6.9558C3.90976 6.34438 4.41436 5.86556 5.05525 5.51934C5.7035 5.17311 6.4291 5 7.23204 5C8.03499 5 8.75691 5.17311 9.39779 5.51934C10.0387 5.86556 10.5433 6.34438 10.9116 6.9558C11.2799 7.55985 11.4641 8.24125 11.4641 9C11.4641 9.75875 11.2799 10.4438 10.9116 11.0552C10.5433 11.6593 10.0387 12.1344 9.39779 12.4807C8.75691 12.8269 8.03499 13 7.23204 13ZM7.23204 11.4751C7.68877 11.4751 8.10129 11.372 8.46961 11.1657C8.83794 10.9521 9.12523 10.6575 9.33149 10.2818C9.54512 9.90608 9.65193 9.47882 9.65193 9C9.65193 8.52118 9.54512 8.09392 9.33149 7.71823C9.12523 7.34254 8.83794 7.05157 8.46961 6.8453C8.10129 6.63168 7.68877 6.52486 7.23204 6.52486C6.77532 6.52486 6.3628 6.63168 5.99448 6.8453C5.62615 7.05157 5.33518 7.34254 5.12155 7.71823C4.91529 8.09392 4.81215 8.52118 4.81215 9C4.81215 9.47882 4.91529 9.90608 5.12155 10.2818C5.33518 10.6575 5.62615 10.9521 5.99448 11.1657C6.3628 11.372 6.77532 11.4751 7.23204 11.4751Z" fill="#333333"/>
<path d="M14.5994 6.56906V8.61326H18.1796V10.0497H14.5994V12.8674H12.8094V5.1326H18.6547V6.56906H14.5994Z" fill="#333333"/>
<path d="M21.6566 8.61326V6.56906H25.7118V5.1326H19.8665V12.8674H21.6566V10.0497H25.2367V8.61326H21.6566Z" fill="#333333"/>
<path fill-rule="evenodd" clip-rule="evenodd" d="M26.8396 29.5503H1L35 6.44922V21.3899C35 23.5542 34.1402 25.6298 32.6099 27.1602C31.0795 28.6906 29.0039 29.5503 26.8396 29.5503ZM30.6845 25.2341C31.7044 24.2147 32.2776 22.8319 32.2783 21.3899V11.5759L9.83722 26.8262H26.8396C28.2816 26.8262 29.6646 26.2535 30.6845 25.2341Z" fill="#333333"/>
</svg>
