<svg width="36" height="36" viewBox="0 0 36 36" fill="none" xmlns="http://www.w3.org/2000/svg">
<path fill-rule="evenodd" clip-rule="evenodd" d="M5.05525 13.4807C5.7035 13.8269 6.4291 14 7.23204 14C8.03499 14 8.75691 13.8269 9.39779 13.4807C10.0387 13.1344 10.5433 12.6593 10.9116 12.0552C11.2799 11.4438 11.4641 10.7587 11.4641 10C11.4641 9.24125 11.2799 8.55985 10.9116 7.9558C10.5433 7.34438 10.0387 6.86556 9.39779 6.51934C8.75691 6.17311 8.03499 6 7.23204 6C6.4291 6 5.7035 6.17311 5.05525 6.51934C4.41436 6.86556 3.90976 7.34438 3.54144 7.9558C3.18048 8.55985 3 9.24125 3 10C3 10.7587 3.18048 11.4438 3.54144 12.0552C3.90976 12.6593 4.41436 13.1344 5.05525 13.4807ZM8.46961 12.1657C8.10129 12.372 7.68877 12.4751 7.23204 12.4751C6.77532 12.4751 6.3628 12.372 5.99448 12.1657C5.62615 11.9521 5.33518 11.6575 5.12155 11.2818C4.91529 10.9061 4.81216 10.4788 4.81216 10C4.81216 9.52118 4.91529 9.09392 5.12155 8.71823C5.33518 8.34254 5.62615 8.05157 5.99448 7.8453C6.3628 7.63168 6.77532 7.52486 7.23204 7.52486C7.68877 7.52486 8.10129 7.63168 8.46961 7.8453C8.83794 8.05157 9.12523 8.34254 9.33149 8.71823C9.54512 9.09392 9.65193 9.52118 9.65193 10C9.65193 10.4788 9.54512 10.9061 9.33149 11.2818C9.12523 11.6575 8.83794 11.9521 8.46961 12.1657Z" fill="#333333"/>
<path d="M18.4337 13.8674H19.9033V6.1326H18.1354V10.8287L14.2901 6.1326H12.8094V13.8674H14.5773V9.17127L18.4337 13.8674Z" fill="#333333"/>
<path fill-rule="evenodd" clip-rule="evenodd" d="M26.8396 29.5503H1L35 6.44922V21.3899C35 23.5542 34.1402 25.6298 32.6099 27.1602C31.0795 28.6906 29.0039 29.5503 26.8396 29.5503ZM30.6845 25.2341C31.7044 24.2147 32.2776 22.8319 32.2783 21.3899V11.5759L9.83722 26.8262H26.8396C28.2816 26.8262 29.6646 26.2535 30.6845 25.2341Z" fill="#333333"/>
</svg>
