<svg width="36" height="36" viewBox="0 0 36 36" fill="none" xmlns="http://www.w3.org/2000/svg">
<path d="M6.43864 14.6099H8.47874L11.5389 19.3597H13.1566L10.0676 14.5595C11.0139 14.4331 11.8759 13.9495 12.4768 13.2077C13.0777 12.4659 13.372 11.5223 13.2992 10.5705C13.2264 9.61862 12.7922 8.73071 12.0855 8.08892C11.3788 7.44712 10.4532 7.10012 9.49879 7.11911H5.08018V19.3597H6.43864V14.6099ZM6.43864 8.49437H9.49879C10.1296 8.49437 10.7346 8.74497 11.1806 9.19102C11.6267 9.63708 11.8773 10.2421 11.8773 10.8729C11.8773 11.5037 11.6267 12.1087 11.1806 12.5547C10.7346 13.0008 10.1296 13.2514 9.49879 13.2514H6.43864V8.49437Z" fill="#333333"/>
<path d="M1 29.5506H26.8396C29.0039 29.5506 31.0795 28.6908 32.6099 27.1604C34.1402 25.6301 35 23.5544 35 21.3902V6.44946L1 29.5506ZM32.2783 21.3902C32.2776 22.8322 31.7044 24.2149 30.6845 25.2343C29.6646 26.2538 28.2816 26.8264 26.8396 26.8264H9.83722L32.2783 11.5761V21.3902Z" fill="#333333"/>
</svg>
