<svg width="36" height="36" viewBox="0 0 36 36" fill="none" xmlns="http://www.w3.org/2000/svg">
<path d="M24.6298 16.9449V6.95972L1 22.7302H18.8395C20.3743 22.7302 21.8463 22.1208 22.9321 21.036C24.0178 19.9512 24.6284 18.4798 24.6298 16.9449ZM18.8395 20.8838L7.12171 20.8704L22.7616 10.4315L22.77 16.9449C22.7704 17.9883 22.3567 18.9891 21.6198 19.7277C20.8828 20.4662 19.8828 20.882 18.8395 20.8838Z" fill="#333333"/>
<path d="M35 16.9266L27.8421 14.7505L29.5261 22.0373L30.4301 21.8213L29.3135 17.0036C30.0303 17.4537 30.6439 18.0499 31.1144 18.7534C31.5848 19.4569 31.9014 20.2518 32.0436 21.0861C32.1857 21.9204 32.1501 22.7753 31.9391 23.5949C31.7281 24.4145 31.3465 25.1803 30.8192 25.8422C30.2919 26.5042 29.6308 27.0474 28.8792 27.4363C28.1275 27.8252 27.3022 28.051 26.4573 28.0991C25.6124 28.1471 24.7668 28.0162 23.9759 27.715C23.185 27.4138 22.4666 26.949 21.8677 26.3511L21.2132 27.0056C22.185 27.9772 23.4231 28.6389 24.7709 28.907C26.1187 29.1751 27.5157 29.0374 28.7854 28.5116C30.055 27.9857 31.1402 27.0952 31.9037 25.9526C32.6672 24.81 33.0748 23.4667 33.075 22.0925C33.075 19.7489 31.8312 17.623 30.0618 16.3642L34.7288 17.8122L35 16.9266Z" fill="#333333"/>
<path d="M26.1313 24.1146C26.5286 24.1146 26.917 23.9968 27.2473 23.7761C27.5776 23.5554 27.8351 23.2416 27.9871 22.8746C28.1392 22.5075 28.179 22.1036 28.1014 21.714C28.0239 21.3243 27.8326 20.9664 27.5517 20.6854C27.2708 20.4045 26.9128 20.2132 26.5232 20.1357C26.1335 20.0582 25.7296 20.098 25.3626 20.25C24.9955 20.402 24.6818 20.6595 24.4611 20.9898C24.2403 21.3202 24.1225 21.7086 24.1225 22.1059C24.1225 22.6386 24.3342 23.1495 24.7109 23.5263C25.0876 23.903 25.5985 24.1146 26.1313 24.1146Z" fill="#333333"/>
</svg>
