<svg width="36" height="36" viewBox="0 0 36 36" fill="none" xmlns="http://www.w3.org/2000/svg">
<path d="M24.6298 12.2499V2.26465L1 18.0334H18.8395C20.374 18.0334 21.8458 17.4243 22.9315 16.3399C24.0172 15.2554 24.628 13.7844 24.6298 12.2499ZM22.7616 5.73479L22.77 12.2499C22.77 13.2941 22.3552 14.2955 21.6168 15.0339C20.8784 15.7722 19.877 16.1871 18.8328 16.1871L7.11501 16.1737L22.7616 5.73479Z" fill="#333333"/>
<path d="M34.9999 12.2316L27.842 10.0554L29.526 17.3405L30.43 17.1262L29.3134 12.3086C30.0325 12.7576 30.6485 13.3536 31.1211 14.0575C31.5936 14.7614 31.9121 15.5572 32.0554 16.3927C32.1988 17.2283 32.164 18.0847 31.9531 18.9059C31.7423 19.727 31.3602 20.4943 30.832 21.1574C30.3038 21.8206 29.6414 22.3645 28.8882 22.7536C28.135 23.1428 27.308 23.3683 26.4615 23.4153C25.615 23.4624 24.7682 23.33 23.9765 23.0268C23.1848 22.7236 22.4661 22.2565 21.8676 21.656L21.2131 22.3105C22.1849 23.2822 23.4229 23.9439 24.7708 24.2119C26.1186 24.48 27.5156 24.3424 28.7852 23.8165C30.0549 23.2906 31.14 22.4001 31.9036 21.2575C32.6671 20.115 33.0747 18.7716 33.0748 17.3974C33.0748 15.0539 31.8311 12.9263 30.0617 11.6674L34.7287 13.1171L34.9999 12.2316Z" fill="#333333"/>
<path d="M26.1313 19.4177C26.5286 19.4177 26.917 19.2999 27.2473 19.0792C27.5776 18.8584 27.8351 18.5447 27.9871 18.1777C28.1392 17.8106 28.179 17.4067 28.1014 17.017C28.0239 16.6274 27.8326 16.2695 27.5517 15.9885C27.2708 15.7076 26.9128 15.5163 26.5232 15.4388C26.1335 15.3613 25.7296 15.401 25.3626 15.5531C24.9955 15.7051 24.6818 15.9626 24.4611 16.2929C24.2403 16.6233 24.1225 17.0116 24.1225 17.4089C24.1225 17.9417 24.3342 18.4526 24.7109 18.8293C25.0876 19.2061 25.5985 19.4177 26.1313 19.4177Z" fill="#333333"/>
<path d="M8.23818 27.7358C7.90588 27.7198 7.57596 27.7994 7.28757 27.9653C6.99917 28.1312 6.7644 28.3763 6.61108 28.6715H6.58932V27.8764H5.22671V33.29H6.65126V30.1865C6.65126 29.3629 7.14006 28.936 7.77115 28.936C8.67509 28.936 8.69685 29.6056 8.69685 30.004V33.2917H10.1214V29.5503C10.1214 28.3551 9.29613 27.7358 8.23818 27.7358Z" fill="#333333"/>
<path d="M10.4495 33.7353H11.6397L13.615 27.0478H12.4248L10.4495 33.7353Z" fill="#333333"/>
<path d="M19.8037 27.7357C18.9382 27.7357 18.5415 28.335 18.3591 28.5995C17.9925 28.0203 17.6359 27.7357 16.8525 27.7357C16.5325 27.7209 16.2154 27.8021 15.9419 27.9688C15.6684 28.1356 15.4509 28.3802 15.3175 28.6714H15.2974V27.8763H13.9331V33.2899H15.3576V29.9922C15.3576 29.4013 15.5719 28.9343 16.2432 28.9343C17.0969 28.9343 17.0969 29.5754 17.0969 30.0324V33.2899H18.5214V30.0525C18.5214 29.4113 18.7759 28.9443 19.489 28.9443C19.9058 28.9443 20.2624 29.2088 20.2624 30.0123V33.3H21.6869V29.5503C21.6869 28.3551 20.8616 27.7357 19.8037 27.7357Z" fill="#333333"/>
<path d="M24.29 27.8781H22.8654V33.2917H24.29V27.8781Z" fill="#333333"/>
<path d="M24.29 25.7688H22.8654V27.0912H24.29V25.7688Z" fill="#333333"/>
<path d="M28.4999 27.7357C28.1677 27.7199 27.8378 27.7997 27.5495 27.9655C27.2611 28.1314 27.0263 28.3763 26.8728 28.6715H26.8527V27.8763H25.4885V33.2899H26.913V30.1864C26.913 29.3628 27.4018 28.9359 28.0329 28.9359C28.9385 28.9359 28.9586 29.6055 28.9586 30.0039V33.2916H30.3831V29.5503C30.3831 28.3551 29.5596 27.7357 28.4999 27.7357Z" fill="#333333"/>
</svg>
