<svg width="36" height="36" viewBox="0 0 36 36" fill="none" xmlns="http://www.w3.org/2000/svg">
<path d="M9.99323 18.5094V26.1456L11.9561 24.1689V19.785C11.9569 18.5771 11.5775 17.3995 10.8717 16.4192C10.1658 15.4389 9.16934 14.7057 8.02345 14.3234C8.63949 14.8333 9.13543 15.4729 9.47592 16.1964C9.8164 16.92 9.99304 17.7098 9.99323 18.5094Z" fill="#333333"/>
<path d="M25.7169 34.0178H23.7523V27.8637H21.7947V34.0178H19.8197V27.8637H17.8534V34.0178H15.894V27.8637H13.9225V34.0178H11.9562V27.8637H9.99334V34.0178H8.02356V19.7868C8.0249 18.5787 7.64593 17.4009 6.94038 16.4203C6.23484 15.4397 5.23851 14.7061 4.09267 14.3234C4.70919 14.8465 5.2038 15.498 5.5418 16.2325C5.88276 16.9654 6.06041 17.7636 6.06245 18.5719V34.0178H1.14233V35.0001H27.6849V27.8637H25.7169V34.0178Z" fill="#333333"/>
<path d="M13.9225 18.5094V22.2008L15.894 20.2311V19.6931C15.8754 18.5002 15.4864 17.3427 14.7809 16.3807C14.0754 15.4186 13.0883 14.6997 11.9562 14.3234C12.5716 14.8337 13.0669 15.4733 13.4067 16.1969C13.7466 16.9204 13.9227 17.71 13.9225 18.5094Z" fill="#333333"/>
<path d="M12.9507 26.1403H27.685V21.2149H17.8656L12.9507 26.1403Z" fill="#333333"/>
<path d="M30.9546 7.53248V5.58526L27.2771 9.27144L30.9546 12.9576V11.0087H34.8577V7.53769L30.9546 7.53248ZM33.8772 10.0246H29.9741V10.58L28.6672 9.27144L29.9741 7.96115V8.51824H33.8772V10.0246Z" fill="#333333"/>
<path d="M25.5017 3.95381H31.6453V1H30.663V2.96978H24.5194V15.5243H30.663V17.4941H31.6453V14.5403H25.5017V3.95381Z" fill="#333333"/>
</svg>
