<svg width="36" height="36" viewBox="0 0 36 36" fill="none" xmlns="http://www.w3.org/2000/svg">
<path d="M18.5153 15.4247H10.7495H3.06006V16.4552H18.5153V15.4247Z" fill="#333333"/>
<path d="M14.8369 10.0344L10.755 13.96L6.75127 9.96715L6.02067 10.6959L10.7495 15.4247L15.5548 10.7759L14.8369 10.0344Z" fill="#333333"/>
<path d="M6.02067 25.3024L6.75127 26.033L10.755 22.0401L14.8369 25.9657L15.5548 25.2242L10.7496 20.5753L6.02067 25.3024Z" fill="#333333"/>
<path d="M17.4847 8.69489L18.3589 9.19649L18.4843 10.0725L17.7337 10.6977L18.7333 10.9485L19.0532 11.7608L18.4898 12.575L19.5529 12.5133L20.0527 13.2002L19.742 14.2016L20.6797 13.889L21.4303 14.3906L21.3667 15.4538L22.1827 14.8286L22.9951 15.203L23.1769 16.2044L23.8656 15.3902L24.7416 15.5156L25.1796 16.4479L25.6794 15.5083L26.4936 15.3829L27.1824 16.1971L27.4314 15.1957L28.1838 14.8214L29.0598 15.4465L28.9962 14.3834L29.685 13.8818L30.6845 14.2016L30.3083 13.2002L30.8717 12.5133L31.8731 12.575L31.3116 11.7608L31.6859 10.9485L32.6837 10.6977L31.8695 10.0725L31.9949 9.19649L32.9345 8.69489L31.9949 8.2569L31.8695 7.38091L32.6837 6.69393L31.6823 6.51219L31.3079 5.69981L31.8695 4.88561L30.8681 4.94922L30.3047 4.26042L30.6845 3.25176L29.6832 3.56436L28.9944 3.06457L29.058 1.99957L28.1838 2.63566L27.4314 2.25037L27.1824 1.24898L26.4936 1.99957L25.6794 1.93778L25.1796 1L24.7416 1.93778L23.8656 1.99957L23.1769 1.24898L22.9951 2.25037L22.1773 2.63566L21.3613 1.99957L21.4249 3.06457L20.6743 3.56436L19.7365 3.25176L20.0473 4.25315L19.5475 4.94195L18.4843 4.87834L19.0532 5.69254L18.7387 6.50492L17.7392 6.68666L18.4898 7.37364L18.3644 8.24963L17.4847 8.69489ZM25.1796 3.18089C26.6556 3.18473 28.07 3.77289 29.1136 4.81675C30.1571 5.86062 30.7448 7.27523 30.7482 8.75123C30.7218 10.2109 30.1234 11.6019 29.0818 12.6249C28.0402 13.6478 26.6386 14.221 25.1787 14.221C23.7188 14.221 22.3172 13.6478 21.2756 12.6249C20.234 11.6019 19.6357 10.2109 19.6093 8.75123C19.6126 7.27491 20.2006 5.86003 21.2445 4.81611C22.2884 3.7722 23.7033 3.18425 25.1796 3.18089Z" fill="#333333"/>
<path d="M32.9399 27.2415L32.0003 26.8071L31.8749 25.9311L32.6891 25.2441L31.6878 25.0624L31.3134 24.2482L31.8749 23.3722L30.8736 23.4976L30.3102 22.747L30.6864 21.8092L29.685 22.1218L28.9962 21.6221L29.0598 20.5571L28.1838 21.1204L27.4314 20.8079L27.1824 19.8065L26.4936 20.5571L25.6794 20.4317L25.1796 19.5375L24.7416 20.4135L23.8656 20.5389L23.1769 19.7883L22.9951 20.7897L22.1827 21.1023L21.3667 20.5389L21.4303 21.6039L20.6797 22.1037L19.742 21.7911L20.0527 22.7289L19.5529 23.4794L18.4843 23.354L19.0477 24.23L18.7333 25.0442L17.7337 25.226L18.4843 25.9129L18.3589 26.8071L17.4847 27.2451L18.3589 27.7467L18.4843 28.5591L17.7337 29.2479L18.7333 29.4296L19.0532 30.2438L18.4898 31.1216L19.5529 31.058L20.0527 31.7468L19.742 32.7482L20.6797 32.372L21.4303 32.9354L21.3667 33.9368L22.1827 33.3734L22.9951 33.7496L23.1769 34.751L23.8656 33.9368L24.7416 34.0622L25.1796 35L25.6794 34.0622L26.4936 33.9368L27.1824 34.751L27.4314 33.7496L28.1838 33.3734L29.0598 33.9368L28.9962 32.9354L29.685 32.372L30.6864 32.7482L30.3102 31.7468L30.8736 31.058L31.8749 31.1216L31.3134 30.2438L31.6878 29.4314L32.6891 29.2497L31.8749 28.5609L32.0003 27.7485L32.9399 27.2415ZM25.1796 32.8045C24.0843 32.7984 23.0155 32.4676 22.1082 31.854C21.2009 31.2403 20.496 30.3714 20.0826 29.3571C19.6692 28.3428 19.5658 27.2287 19.7857 26.1557C20.0055 25.0827 20.5385 24.0989 21.3175 23.3289C22.0964 22.5588 23.0862 22.0371 24.1617 21.8296C25.2372 21.6221 26.35 21.7383 27.3595 22.1633C28.369 22.5883 29.2297 23.3032 29.8329 24.2175C30.4361 25.1317 30.7546 26.2043 30.7482 27.2996C30.7451 28.027 30.5985 28.7467 30.3167 29.4173C30.035 30.088 29.6237 30.6964 29.1064 31.2078C28.5891 31.7192 27.976 32.1235 27.3021 32.3975C26.6283 32.6715 25.907 32.8098 25.1796 32.8045Z" fill="#333333"/>
<path d="M18.5153 19.5449H3.06006V20.5753L10.7496 20.5753L18.5153 20.5753V19.5449Z" fill="#333333"/>
</svg>
