<svg width="36" height="36" viewBox="0 0 36 36" fill="none" xmlns="http://www.w3.org/2000/svg">
<path d="M6.03704 16.7407H3.57251C4.1749 9.74748 9.74748 4.1749 16.7407 3.57251V6.03704H19.2593V3.57251C26.2525 4.1749 31.8251 9.74748 32.4275 16.7407H29.963V19.2593H32.4275C32.2938 20.8113 31.9153 22.2934 31.3308 23.6667H34.0327C34.6591 21.8943 35 19.9869 35 18C35 8.61116 27.3888 1 18 1C8.61116 1 1 8.61116 1 18C1 27.3888 8.61116 35 18 35C20.4666 35 22.8105 34.4747 24.9259 33.5298V30.721C23.2165 31.6537 21.2982 32.2519 19.2593 32.4275V29.963H16.7407V32.4275C9.74748 31.8251 4.1749 26.2525 3.57251 19.2593H6.03704V16.7407Z" fill="#333333"/>
<path d="M27.4442 33.4808V31.959C27.9755 32.3463 28.5953 32.54 29.3036 32.54C29.75 32.54 30.0968 32.4441 30.344 32.2523C30.5948 32.0604 30.7203 31.793 30.7203 31.4499C30.7203 31.0957 30.5653 30.8227 30.2554 30.6308C29.9492 30.439 29.5268 30.3431 28.9882 30.3431H28.2522V29.0039H28.9328C29.9658 29.0039 30.4823 28.6608 30.4823 27.9746C30.4823 27.329 30.0857 27.0062 29.2925 27.0062C28.7613 27.0062 28.2448 27.1777 27.743 27.5208V26.0931C28.3001 25.8127 28.9494 25.6725 29.691 25.6725C30.5026 25.6725 31.1334 25.8551 31.5835 26.2204C32.0373 26.5856 32.2642 27.0597 32.2642 27.6426C32.2642 28.6792 31.7385 29.3285 30.6871 29.5905V29.6182C31.2478 29.6882 31.6905 29.893 32.0152 30.2324C32.3398 30.5681 32.5022 30.9813 32.5022 31.472C32.5022 32.2135 32.231 32.8001 31.6887 33.2318C31.1464 33.6634 30.3974 33.8792 29.4419 33.8792C28.6229 33.8792 27.957 33.7464 27.4442 33.4808Z" fill="#333333"/>
<path d="M28.7038 18.0003C28.7038 23.9118 23.9116 28.704 18.0001 28.704C14.1696 28.704 10.8091 26.6919 8.91778 23.6669L18.6297 18.0003L22.4075 8.24321C26.1205 9.92305 28.7038 13.66 28.7038 18.0003Z" fill="#333333"/>
</svg>
