<svg width="36" height="36" viewBox="0 0 36 36" fill="none" xmlns="http://www.w3.org/2000/svg">
<path fill-rule="evenodd" clip-rule="evenodd" d="M5.24963 30.625H4.00012V32.6309H21.9951V30.625H20.7456V16.0798C21.2764 16.0822 21.7847 16.2944 22.1596 16.6702C22.5344 17.0461 22.7453 17.5549 22.7463 18.0857V25.4379C22.8262 26.6036 23.3566 27.6925 24.2251 28.4742C25.0936 29.2559 26.2321 29.6692 27.3998 29.6265C28.5675 29.5837 29.6728 29.0885 30.4818 28.2454C31.2909 27.4023 31.7403 26.2776 31.7349 25.1091C31.7352 24.9106 31.7222 24.7122 31.696 24.5153L30.2822 12.7325L32 11.8806C31.1169 9.90754 29.8409 8.13517 28.2498 6.67176C26.6588 5.20834 24.7861 4.08459 22.7463 3.36914V5.37507C24.1531 5.92518 25.395 6.82773 26.3525 7.99606C27.3101 9.16438 27.9512 10.5593 28.2144 12.0468L29.706 24.7027C29.7273 24.8371 29.7379 24.973 29.7378 25.1091C29.7376 25.7503 29.4909 26.3669 29.0488 26.8313C28.6067 27.2957 28.0031 27.5724 27.3627 27.6042C26.7223 27.6359 26.0942 27.4204 25.6083 27.002C25.1224 26.5837 24.8159 25.9946 24.7522 25.3566V18.0857C24.7531 17.0231 24.3323 16.0036 23.582 15.251C22.8318 14.4985 21.8136 14.0745 20.7509 14.0721V6.04842C20.7514 5.71955 20.6871 5.39381 20.5617 5.08979C20.4362 4.78578 20.2522 4.50944 20.0199 4.27657C19.7877 4.04369 19.5119 3.85884 19.2082 3.73255C18.9046 3.60627 18.579 3.54104 18.2502 3.54057H7.75041C7.42147 3.5408 7.09581 3.60588 6.79204 3.73208C6.48828 3.85828 6.21237 4.04313 5.98011 4.27605C5.74784 4.50897 5.56377 4.7854 5.43843 5.08952C5.31309 5.39364 5.24893 5.71949 5.24963 6.04842V30.625ZM7.25032 14.0721L18.7521 14.0722V5.54656H7.25032V14.0721ZM7.25025 16.0798H18.7521V30.625H7.25025V16.0798Z" fill="#333333"/>
</svg>
