<svg width="36" height="36" viewBox="0 0 36 36" fill="none" xmlns="http://www.w3.org/2000/svg">
<path d="M26.24 14.2511C26.2328 14.1902 26.2292 14.129 26.229 14.0677C26.2269 13.7075 26.3494 13.3578 26.5757 13.0776C26.802 12.7975 27.1182 12.6043 27.4707 12.5306C27.0607 10.4503 26.0578 8.53303 24.5829 7.0097C23.1081 5.48637 21.2242 4.42201 19.1583 3.94488V5.50576C20.4509 6.21565 21.5654 7.20992 22.4175 8.41351C23.2697 9.6171 23.8373 10.9986 24.0775 12.4536C24.0784 12.4676 24.0784 12.4817 24.0775 12.4958C24.077 12.5343 24.0689 12.5723 24.0537 12.6077C24.0353 12.648 24.0152 12.6865 23.9968 12.7269C23.9799 12.7618 23.9711 12.8 23.9711 12.8388C23.9711 12.8388 23.9711 12.8589 23.9711 12.8681L25.5137 25.6761C25.4933 26.2335 25.2563 26.761 24.8531 27.1465C24.4499 27.5319 23.9122 27.7449 23.3544 27.7401C22.7967 27.7353 22.2627 27.5132 21.8662 27.1209C21.4696 26.7286 21.2417 26.1971 21.2309 25.6394V17.4829C21.2319 16.5166 20.8498 15.5893 20.1684 14.9041C19.487 14.2189 18.5619 13.8318 17.5956 13.8274C17.513 13.8274 17.4305 13.8274 17.3498 13.8366V6.54756C17.3503 5.85873 17.0775 5.19783 16.5913 4.70989C16.105 4.22195 15.4451 3.94682 14.7563 3.94488H4.89211C4.20295 3.94634 3.54255 4.22125 3.05594 4.70924C2.56932 5.19724 2.29627 5.85841 2.29676 6.54756V29.9736H1V32.0572H18.6465V29.9736H17.3498V15.9183C17.4293 15.9058 17.5096 15.8996 17.5901 15.9C18.0078 15.9024 18.4075 16.0704 18.7015 16.3672C18.9955 16.6639 19.1597 17.0652 19.1583 17.4829V25.843C19.2502 26.9132 19.7469 27.908 20.547 28.6246C21.3471 29.3412 22.3905 29.7256 23.4643 29.6994C24.5381 29.6732 25.5615 29.2384 26.3257 28.4836C27.0899 27.7288 27.5375 26.711 27.5771 25.6376C27.5771 25.5679 27.5771 25.5 27.5771 25.4322L26.24 14.2511ZM15.2735 29.9736H4.37304V15.9183H15.2735V29.9736ZM15.2735 13.8329H4.37304V6.02666H15.2735V13.8329Z" fill="#333333"/>
<path d="M33.6977 28.9996V3.16348C33.6977 2.6819 33.5064 2.22003 33.1659 1.8795C32.8253 1.53897 32.3635 1.34766 31.8819 1.34766C31.4003 1.34766 30.9384 1.53897 30.5979 1.8795C30.2574 2.22003 30.0661 2.6819 30.0661 3.16348V28.9996C29.5293 29.3841 29.1285 29.9291 28.9213 30.556C28.7141 31.1829 28.7113 31.8594 28.9132 32.488C29.1151 33.1166 29.5114 33.6649 30.0449 34.0539C30.5784 34.4429 31.2216 34.6525 31.8819 34.6525C32.5422 34.6525 33.1854 34.4429 33.7189 34.0539C34.2524 33.6649 34.6487 33.1166 34.8506 32.488C35.0525 31.8594 35.0497 31.1829 34.8425 30.556C34.6353 29.9291 34.2345 29.3841 33.6977 28.9996ZM32.6614 17.9946H31.1024V3.16348C31.1024 2.95674 31.1845 2.75847 31.3307 2.61228C31.4769 2.46609 31.6752 2.38396 31.8819 2.38396C32.0886 2.38396 32.2869 2.46609 32.4331 2.61228C32.5793 2.75847 32.6614 2.95674 32.6614 3.16348V17.9946Z" fill="#333333"/>
</svg>
