<svg width="36" height="36" viewBox="0 0 36 36" fill="none" xmlns="http://www.w3.org/2000/svg">
<path d="M11.0203 22.1672C11.0355 22.5728 11.2074 22.9567 11.4998 23.2383C11.7921 23.5199 12.1822 23.6772 12.5881 23.6772C12.994 23.6772 13.3841 23.5199 13.6765 23.2383C13.9688 22.9567 14.1407 22.5728 14.1559 22.1672L14.7853 8.97762C14.7853 8.94216 14.7853 8.90892 14.7853 8.87346C14.7853 8.58478 14.7284 8.29893 14.6179 8.03222C14.5075 7.76552 14.3455 7.52318 14.1414 7.31906C13.9373 7.11493 13.6949 6.953 13.4282 6.84253C13.1615 6.73206 12.8757 6.6752 12.587 6.6752C12.2983 6.6752 12.0125 6.73206 11.7458 6.84253C11.4791 6.953 11.2367 7.11493 11.0326 7.31906C10.8285 7.52318 10.6665 7.76552 10.5561 8.03222C10.4456 8.29893 10.3887 8.58478 10.3887 8.87346C10.3887 8.90892 10.3887 8.94216 10.3887 8.97762L11.0203 22.1672Z" fill="#333333"/>
<path d="M34.0822 26.9825L32.4534 13.465C32.4448 13.3914 32.4403 13.3174 32.4401 13.2434C32.4401 12.8093 32.5894 12.3885 32.863 12.0515C33.1366 11.7146 33.5178 11.4821 33.9426 11.393C33.4486 8.87586 32.2369 6.55535 30.4538 4.71127C28.6707 2.8672 26.3922 1.57831 23.893 1V2.89024C25.456 3.7478 26.8032 4.94991 27.8325 6.40544C28.8619 7.86096 29.5464 9.53172 29.8341 11.2911C29.8362 11.308 29.8362 11.3251 29.8341 11.342C29.8347 11.3887 29.8248 11.4349 29.8053 11.4772L29.7366 11.6213C29.7164 11.6635 29.7058 11.7096 29.7056 11.7564C29.7056 11.7697 29.7056 11.783 29.7056 11.7941L31.5604 27.2241C31.5705 27.5699 31.5111 27.9143 31.3858 28.2367C31.2604 28.5592 31.0717 28.8532 30.8306 29.1014C30.5896 29.3496 30.3012 29.5469 29.9825 29.6817C29.6639 29.8164 29.3214 29.8858 28.9754 29.8858C28.6295 29.8858 28.287 29.8164 27.9683 29.6817C27.6497 29.5469 27.3613 29.3496 27.1202 29.1014C26.8792 28.8532 26.6904 28.5592 26.5651 28.2367C26.4397 27.9143 26.3803 27.5699 26.3905 27.2241V17.3718C26.387 16.2044 25.9231 15.0855 25.0995 14.2581C24.2759 13.4308 23.1591 12.9618 21.9917 12.9531C21.892 12.9531 21.7923 12.9531 21.6948 12.9642V4.14893C21.6954 3.73599 21.6146 3.32697 21.4571 2.94524C21.2996 2.56351 21.0685 2.21654 20.7769 1.92413C20.4853 1.63173 20.139 1.39962 19.7577 1.24106C19.3764 1.08249 18.9677 1.00058 18.5547 1H6.62159C5.78779 1.00176 4.98879 1.33437 4.40004 1.92478C3.81129 2.51519 3.48093 3.31513 3.48152 4.14893V32.4804H1.9126V35H23.2659V32.4804H21.6948V15.4815C21.7873 15.4683 21.8806 15.4616 21.974 15.4616C22.4812 15.4622 22.9677 15.6633 23.3272 16.0212C23.6867 16.379 23.8901 16.8645 23.893 17.3718V27.2307C23.893 27.9 24.0249 28.5628 24.281 29.1812C24.5372 29.7996 24.9126 30.3614 25.3859 30.8347C25.8591 31.308 26.421 31.6834 27.0394 31.9395C27.6577 32.1957 28.3205 32.3275 28.9898 32.3275C29.6592 32.3275 30.3219 32.1957 30.9403 31.9395C31.5587 31.6834 32.1205 31.308 32.5938 30.8347C33.0671 30.3614 33.4425 29.7996 33.6987 29.1812C33.9548 28.5628 34.0866 27.9 34.0866 27.2307C34.0888 27.1487 34.0866 27.0645 34.0822 26.9825ZM19.1818 32.4804H5.99446V3.51959H19.1818V32.4804Z" fill="#333333"/>
<path d="M12.6291 26.2113C12.3171 26.21 12.0118 26.3014 11.7518 26.4738C11.4917 26.6462 11.2888 26.8919 11.1686 27.1798C11.0483 27.4678 11.0163 27.7849 11.0765 28.091C11.1368 28.3971 11.2865 28.6785 11.5068 28.8994C11.7271 29.1203 12.0081 29.2709 12.314 29.332C12.62 29.3931 12.9372 29.3619 13.2254 29.2425C13.5137 29.1231 13.76 28.9209 13.9331 28.6613C14.1063 28.4018 14.1985 28.0967 14.1981 27.7847C14.1984 27.5784 14.158 27.374 14.0793 27.1833C14.0006 26.9925 13.8851 26.8192 13.7395 26.6731C13.5938 26.527 13.4207 26.411 13.2302 26.3318C13.0397 26.2526 12.8355 26.2116 12.6291 26.2113Z" fill="#333333"/>
</svg>
