<svg width="36" height="36" viewBox="0 0 36 36" fill="none" xmlns="http://www.w3.org/2000/svg">
<path d="M2.01291 9.78985H1V23.1146L10.3569 18.0019L2.01291 13.442V9.78985ZM8.25442 18.0019L2.01291 21.4098V14.594L8.25442 18.0019Z" fill="#333333"/>
<path d="M34.9966 25.2117L33.6859 14.3622C33.6789 14.303 33.6754 14.2434 33.6752 14.1838C33.6745 13.8348 33.7942 13.4963 34.0141 13.2253C34.2341 12.9544 34.5408 12.7676 34.8825 12.6966C34.4821 10.6745 33.5055 8.81144 32.0702 7.3319C30.635 5.85236 28.8024 4.81953 26.7935 4.35791V5.87371C28.0519 6.56023 29.1374 7.52436 29.9676 8.69295C30.7979 9.86153 31.3511 11.2039 31.5852 12.6181C31.5862 12.6318 31.5862 12.6455 31.5852 12.6591C31.585 12.6962 31.5765 12.7328 31.5602 12.7661L31.5067 12.882C31.4891 12.9156 31.4799 12.9529 31.48 12.9908C31.4791 13.0009 31.4791 13.011 31.48 13.0211L32.9815 25.4542C32.9615 25.9972 32.7305 26.5109 32.3377 26.8862C31.9448 27.2615 31.421 27.4687 30.8777 27.4638C30.3345 27.4589 29.8145 27.2423 29.4284 26.8601C29.0424 26.4778 28.8206 25.96 28.8104 25.4168V17.4972C28.8085 16.5569 28.4339 15.6557 27.7687 14.9912C27.1035 14.3266 26.2019 13.9529 25.2617 13.952C25.1814 13.952 25.1029 13.952 25.0227 13.952V6.88483C25.0222 6.21449 24.7556 5.57176 24.2814 5.09792C23.8072 4.62408 23.1643 4.35791 22.494 4.35791H12.8856C12.2153 4.35791 11.5724 4.62408 11.0982 5.09792C10.624 5.57176 10.3574 6.21449 10.3569 6.88483V29.6253H9.09257V31.6422H26.287V29.6253H25.0227V15.9796C25.0966 15.9698 25.171 15.9645 25.2456 15.9636C25.6535 15.964 26.0448 16.1253 26.3346 16.4124C26.6244 16.6995 26.7893 17.0893 26.7935 17.4972V25.6112C26.82 26.699 27.2775 27.7317 28.0654 28.4821C28.8534 29.2326 29.9071 29.6393 30.9949 29.6129C32.0827 29.5864 33.1155 29.1288 33.8659 28.3409C34.6164 27.553 35.0231 26.4992 34.9966 25.4114C35.002 25.3437 35.0002 25.2777 34.9966 25.2117ZM23.0004 29.6253H12.3792V15.9796H23.0004V29.6253ZM23.0004 13.9591H12.3792V6.37838H23.0004V13.9591Z" fill="#333333"/>
</svg>
