<svg width="36" height="36" viewBox="0 0 36 36" fill="none" xmlns="http://www.w3.org/2000/svg">
<path d="M26.094 30.4336H19.0121V32.4632H26.094V30.4336Z" fill="#333333"/>
<path d="M32.1629 27.8966V30.4335H28.1163V32.4631H32.1629V35H34.187V27.8966H32.1629Z" fill="#333333"/>
<path d="M3.83704 27.8966H1.81287V35H3.83704V32.4631H7.88359V30.4335H3.83704V27.8966Z" fill="#333333"/>
<path d="M16.9879 30.4336H9.90601V32.4632H16.9879V30.4336Z" fill="#333333"/>
<path d="M23.8179 26.3691H22.553V12.6734C22.6304 12.6611 22.7087 12.6552 22.787 12.6555C22.989 12.6557 23.189 12.6958 23.3755 12.7733C23.5621 12.8508 23.7315 12.9643 23.8742 13.1073C24.0169 13.2503 24.13 13.42 24.2071 13.6067C24.2842 13.7934 24.3237 13.9935 24.3235 14.1955V22.344C24.35 23.4338 24.8084 24.4684 25.5977 25.2203C26.3871 25.9721 27.4428 26.3796 28.5326 26.3531C29.6224 26.3265 30.657 25.8682 31.4089 25.0788C32.1607 24.2894 32.5682 23.2337 32.5416 22.1439C32.5416 22.076 32.5416 22.0081 32.5416 21.942L31.2303 11.044C31.2233 10.9847 31.2197 10.9251 31.2196 10.8654C31.2198 10.5158 31.34 10.1769 31.5602 9.90531C31.7803 9.63376 32.0871 9.44606 32.4291 9.3736C32.0311 7.34412 31.0538 5.47334 29.6154 3.98736C28.1769 2.50138 26.3389 1.46379 24.3235 1V2.52393C25.584 3.21472 26.6707 4.18341 27.5012 5.35657C28.3317 6.52973 28.8842 7.87657 29.1168 9.29499C29.1177 9.30927 29.1177 9.32359 29.1168 9.33787C29.1177 9.34917 29.1177 9.36052 29.1168 9.37181C29.1119 9.41918 29.0953 9.46459 29.0686 9.50402C29.0332 9.55077 29.0143 9.60796 29.015 9.6666C29.0141 9.67789 29.0141 9.68924 29.015 9.70054L30.4442 21.6455C30.4842 21.8086 30.5046 21.976 30.505 22.1439C30.5131 22.4227 30.4653 22.7003 30.3642 22.9603C30.2631 23.2203 30.1109 23.4574 29.9166 23.6575C29.7223 23.8576 29.4898 24.0166 29.2329 24.1253C28.976 24.2339 28.6999 24.2899 28.4209 24.2899C28.142 24.2899 27.8659 24.2339 27.609 24.1253C27.3521 24.0166 27.1196 23.8576 26.9253 23.6575C26.7309 23.4574 26.5787 23.2203 26.4777 22.9603C26.3766 22.7003 26.3288 22.4227 26.3369 22.1439V14.1955C26.3365 13.2523 25.9619 12.3477 25.2954 11.6802C24.6289 11.0127 23.7249 10.6368 22.7817 10.6349C22.7013 10.6349 22.6209 10.6349 22.5423 10.6349V3.5387C22.5432 2.8685 22.2788 2.22519 21.8067 1.74945C21.3346 1.27371 20.6934 1.00425 20.0232 1H10.4133C9.7419 1.00237 9.09883 1.27099 8.62523 1.74694C8.15163 2.22288 7.88618 2.86727 7.88713 3.5387V26.3691H6.61867V28.4005H23.8179V26.3691ZM20.5288 26.3691H9.90594V12.6734H20.5288V26.3691ZM20.5288 10.6385H9.90594V3.03132H20.5288V10.6385Z" fill="#333333"/>
</svg>
