<svg width="36" height="36" viewBox="0 0 36 36" fill="none" xmlns="http://www.w3.org/2000/svg">
<path d="M12.7829 26.2261L11.4097 26.3847C10.4841 26.4962 9.56233 26.6492 8.65 26.8456C7.73767 27.0421 6.831 27.2706 5.93944 27.5445C5.28588 27.7279 4.64895 27.9661 4.03544 28.2566C3.42334 28.5482 2.83751 28.892 2.28444 29.2842C1.92831 29.5044 1.62737 29.8033 1.40471 30.1579C1.18206 30.5125 1.04361 30.9134 1 31.3298C1.04292 31.747 1.18105 32.1487 1.40374 32.504C1.62643 32.8593 1.92774 33.1588 2.28444 33.3793C3.08634 33.9613 3.96811 34.4245 4.90244 34.7544L6.02633 34.1651C5.05603 33.8991 4.1273 33.4999 3.26667 32.9788C2.94614 32.8261 2.6684 32.5964 2.45822 32.3102C2.28327 32.1124 2.16648 31.8701 2.1208 31.61C2.07513 31.35 2.10235 31.0824 2.19944 30.8368C2.2997 30.5887 2.44508 30.3614 2.62822 30.1663C2.80909 29.9692 3.02575 29.8083 3.26667 29.6922C3.79609 29.3713 4.35073 29.0939 4.92511 28.8629C5.49769 28.6271 6.08829 28.4376 6.69122 28.2963C7.53241 28.0772 8.38052 27.8883 9.23555 27.7296C10.0037 27.5898 10.7763 27.4765 11.5532 27.3896L12.7772 27.2649L12.7829 26.2261Z" fill="#333333"/>
<path d="M28.5664 23.7498L31.7511 28.2926L29.7885 27.5446L27.0798 26.8457L24.3164 26.3848L21.3471 26.0939V27.1536L23.9065 27.3746L26.4867 27.7391L29.0311 28.302L31.7718 29.3012L25.7312 29.8282L25.8256 30.8955L34.3577 30.1493L29.4447 23.134L28.5664 23.7498Z" fill="#333333"/>
<path d="M20.2761 18.3249C20.3321 15.3879 21.0727 12.5046 22.4389 9.90421C22.6168 9.56467 22.8826 9.27913 23.2086 9.07744C23.5345 8.87575 23.9087 8.76531 24.2919 8.75766V9.80977L32.9808 6.3021L35 1.24554H24.2919V2.33543C22.7379 2.34277 21.2151 2.77253 19.8866 3.57872C18.558 4.3849 17.4737 5.53717 16.7496 6.91221C14.9066 10.4183 13.9116 14.3078 13.8445 18.2682V30.1455H11.7119V32.2857H22.4181V30.1455H20.2761V18.3249ZM26.4339 3.38754H31.838L31.3299 4.65877L26.4339 6.63643V3.38754ZM18.136 30.1455H15.994V18.2852C16.054 14.6695 16.9596 11.1181 18.6385 7.91521C19.1799 6.88274 19.9921 6.01711 20.9881 5.41115C21.984 4.80519 23.1261 4.48176 24.2919 4.47554V6.61754C23.5179 6.62476 22.7604 6.84163 22.0998 7.24508C21.4393 7.64853 20.9004 8.22347 20.5406 8.90877C19.0183 11.8112 18.1949 15.0291 18.136 18.306V30.1455Z" fill="#333333"/>
</svg>
