<svg width="36" height="36" viewBox="0 0 36 36" fill="none" xmlns="http://www.w3.org/2000/svg">
<path d="M9.50844 27.7306C10.3653 27.5759 11.2254 27.4538 12.0885 27.3645C12.9517 27.2751 13.8048 27.2015 14.6479 27.1436V26.0848C13.6551 26.1502 12.6655 26.2477 11.679 26.3773C10.7529 26.483 9.8356 26.6359 8.92712 26.836C8.01864 27.0361 7.11268 27.2695 6.20923 27.5362L4.2482 28.2912L7.43039 23.7482L6.55274 23.1348L1.64545 30.1465L10.1766 30.9015L10.2691 29.8351L4.22933 29.3066L6.96986 28.3082C7.80599 28.0723 8.65533 27.8854 9.50844 27.7306Z" fill="#333333"/>
<path d="M22.1392 18.2633C22.1077 16.2892 21.8454 14.3255 21.3578 12.4123C20.8695 10.5018 20.16 8.65477 19.2439 6.9086C18.5208 5.53054 17.4359 4.37557 16.1057 3.56782C14.7756 2.76007 13.2504 2.33008 11.6942 2.32405V1.24445H1.00006L3.0196 6.29707L11.7017 9.80579V8.75449C12.085 8.76208 12.4591 8.87217 12.7854 9.07331C13.1117 9.27445 13.3781 9.55931 13.5571 9.89827C14.924 12.4982 15.6653 15.3812 15.7219 18.3181V30.139H13.5778V32.2812H24.2814V30.139H22.1392V18.2633ZM9.56329 6.63115L4.66921 4.65502L4.1596 3.38478H9.56329V6.63115ZM20.0007 30.139H17.8585V18.2992C17.8301 16.6668 17.6109 15.0433 17.2055 13.4617C16.8002 11.8802 16.2124 10.3512 15.4539 8.90549C15.0945 8.2201 14.5559 7.64503 13.8954 7.24153C13.235 6.83803 12.4775 6.62121 11.7036 6.61416V4.47382C12.8682 4.48038 14.009 4.80372 15.0038 5.40919C15.9987 6.01466 16.81 6.87943 17.3508 7.91082C19.0273 11.1129 19.9321 14.6626 19.9932 18.2765L20.0007 30.139Z" fill="#333333"/>
<path d="M34.596 30.1465C34.3733 29.7913 34.0717 29.4923 33.7146 29.2726C32.6063 28.4866 31.3699 27.8991 30.0606 27.5361C29.1672 27.2618 28.2637 27.0278 27.3502 26.834C26.4367 26.6403 25.5176 26.488 24.5927 26.3773C24.136 26.3106 23.6786 26.2577 23.2206 26.2187V27.2795C23.5427 27.2958 23.8635 27.3241 24.1831 27.3644C25.0457 27.455 25.9082 27.5758 26.7614 27.7306C27.6145 27.8853 28.46 28.0722 29.3056 28.2968C29.9078 28.4388 30.4979 28.6281 31.0703 28.863C31.6433 29.0968 32.1973 29.3744 32.7275 29.6935C33.0488 29.8444 33.3271 30.0734 33.5371 30.3596C33.7472 30.6458 33.8821 30.98 33.9298 31.3318C33.8805 31.683 33.7449 32.0165 33.5351 32.3024C33.3252 32.5883 33.0478 32.8177 32.7275 32.97C32.2996 33.2327 31.8537 33.4648 31.3931 33.6646C30.9331 33.8649 30.4594 34.032 29.9756 34.1648L31.0987 34.7555C31.5654 34.5912 32.0196 34.3931 32.4576 34.1629C32.8951 33.9317 33.3158 33.6699 33.7165 33.3796C34.0732 33.1596 34.3745 32.8605 34.5971 32.5054C34.8196 32.1503 34.9575 31.7487 35 31.3318C34.9595 30.9106 34.8212 30.5047 34.596 30.1465Z" fill="#333333"/>
</svg>
