<svg width="36" height="36" viewBox="0 0 36 36" fill="none" xmlns="http://www.w3.org/2000/svg">
<path d="M21.411 9.01003L20.939 9.82938C20.076 9.37654 19.1321 9.09837 18.1614 9.01078C17.1907 8.92319 16.2123 9.02791 15.2821 9.31894C14.3519 9.60997 13.4883 10.0816 12.7406 10.7068C11.9929 11.3321 11.3759 12.0986 10.9249 12.9626C9.33024 16.0067 8.47046 19.3818 8.41435 22.8178V33.1417H6.55933V35H15.8377V33.1351H13.9811V22.867C14.0296 20.3168 14.6709 17.8129 15.8541 15.5534C16.0631 15.1519 16.4119 14.8409 16.8346 14.679C17.2573 14.5172 17.7246 14.5158 18.1483 14.6751L17.7026 15.4502L25.7323 16.5825L29.4407 13.6591L21.411 9.01003ZM19.0807 13.0544C18.2144 12.6457 17.2236 12.588 16.3158 12.8935C15.4079 13.1989 14.6535 13.8438 14.2105 14.6931C12.8931 17.2132 12.1811 20.0057 12.1309 22.8489V33.1351H10.271V22.8473C10.3227 19.7052 11.1083 16.6188 12.5652 13.8344C13.2409 12.5351 14.402 11.5549 15.7962 11.1066C17.1904 10.6583 18.7052 10.7782 20.0115 11.4402L19.0807 13.0544ZM25.2128 14.6308L20.6817 13.9933L22.091 11.55L26.1452 13.895L25.2128 14.6308ZM21.4044 7.06323L28.1231 10.2063L27.4824 2.80258L26.5598 2.88288L26.9842 7.74658C25.8567 5.85142 24.2949 4.25139 22.4276 3.07839C20.5602 1.90539 18.4408 1.19302 16.2441 1L16.1638 1.92587C18.2274 2.1086 20.2174 2.78243 21.9675 3.8911C23.7176 4.99976 25.177 6.51108 26.2239 8.29882L21.7994 6.22749L21.4044 7.06323Z" fill="#333333"/>
</svg>
