<svg width="36" height="36" viewBox="0 0 36 36" fill="none" xmlns="http://www.w3.org/2000/svg">
<path d="M26.8344 9.40993V0.999878H9.63779V9.40993C7.26091 11.2119 5.50979 13.7146 4.63149 16.5651C3.75318 19.4155 3.79204 22.4698 4.74256 25.297C5.69308 28.1242 7.5073 30.5816 9.92924 32.3225C12.3512 34.0634 15.2586 34.9999 18.2413 34.9999C21.224 34.9999 24.1314 34.0634 26.5534 32.3225C28.9753 30.5816 30.7896 28.1242 31.7401 25.297C32.6906 22.4698 32.7295 19.4155 31.8512 16.5651C30.9728 13.7146 29.2217 11.2119 26.8448 9.40993H26.8344ZM18.2319 32.626C15.6502 32.6253 13.1392 31.7826 11.0797 30.2258C9.02029 28.6689 7.5248 26.4829 6.82015 23.9992C6.1155 21.5156 6.24014 18.8698 7.17515 16.4634C8.11017 14.057 9.80454 12.0212 12.0012 10.6649V3.37168H24.4605V10.6565C26.657 12.0127 28.3513 14.0484 29.2864 16.4546C30.2214 18.8608 30.3462 21.5063 29.6419 23.9898C28.9375 26.4734 27.4423 28.6595 25.3832 30.2165C23.3241 31.7735 20.8134 32.6165 18.2319 32.6176V32.626Z" fill="#333333"/>
<path d="M16.772 8.12601C17.161 7.73736 17.6884 7.51906 18.2384 7.51906C18.787 7.52072 19.3126 7.73982 19.6999 8.12835C20.0873 8.51688 20.3048 9.04313 20.3048 9.59177C20.3051 9.70943 20.296 9.82693 20.2776 9.94314L19.5393 22.9295C19.5163 23.2619 19.368 23.5732 19.1244 23.8005C18.8808 24.0278 18.56 24.1543 18.2268 24.1543C17.8937 24.1543 17.5729 24.0278 17.3293 23.8005C17.0857 23.5732 16.9374 23.2619 16.9144 22.9295L16.1635 9.70889V9.59177C16.1641 9.04186 16.3829 8.51466 16.772 8.12601Z" fill="#333333"/>
<path d="M19.1919 27.8447C19.7056 28.3584 19.7056 29.1914 19.1919 29.7052C18.6781 30.2189 17.8451 30.2189 17.3314 29.7052C16.8176 29.1914 16.8176 28.3584 17.3314 27.8447C17.8451 27.3309 18.6781 27.3309 19.1919 27.8447Z" fill="#333333"/>
</svg>
