<svg width="36" height="36" viewBox="0 0 36 36" fill="none" xmlns="http://www.w3.org/2000/svg">
<path d="M32.2586 25.404V19.0969H3.74144V25.404H1V27.5979H3.74144V33.903H32.2586V27.5979H35V25.404H32.2586ZM31.1616 32.808H4.8384V20.1939H31.1616V32.808Z" fill="#333333"/>
<path d="M13.7031 9.00361L17.9652 4.75313L22.3105 8.93203L23.0747 8.14075L17.9594 3.19378L12.9253 8.22587L13.7031 9.00361Z" fill="#333333"/>
<path d="M32.2586 3.19389V2.09692H3.74145V3.19389L17.9594 3.19378L32.2586 3.19389Z" fill="#333333"/>
<path d="M17.9652 17.5376L13.7031 13.2871L12.9253 14.0648L17.9594 19.0969L23.0747 14.1499L22.3105 13.3606L17.9652 17.5376Z" fill="#333333"/>
<path d="M10.8707 22.3877H6.4829V23.4847H10.8707V22.3877Z" fill="#333333"/>
<path d="M20.1939 22.3877H15.8061V23.4847H20.1939V22.3877Z" fill="#333333"/>
<path d="M29.5171 22.3877H25.1292V23.4847H29.5171V22.3877Z" fill="#333333"/>
<path d="M10.8707 29.5172H6.4829V30.6141H10.8707V29.5172Z" fill="#333333"/>
<path d="M29.5171 29.5172H25.1292V30.6141H29.5171V29.5172Z" fill="#333333"/>
<path d="M15.5313 25.9515H11.1454V27.0485H15.5313V25.9515Z" fill="#333333"/>
<path d="M24.8546 25.9515H20.4687V27.0485H24.8546V25.9515Z" fill="#333333"/>
<path d="M20.1939 29.5172H15.8061V30.6141H20.1939V29.5172Z" fill="#333333"/>
</svg>
