<svg width="36" height="36" viewBox="0 0 36 36" fill="none" xmlns="http://www.w3.org/2000/svg">
<path d="M18.0167 16.4323C17.7048 16.4319 17.3997 16.524 17.1402 16.6969C16.8806 16.8699 16.6782 17.116 16.5585 17.404C16.4389 17.6921 16.4073 18.0091 16.4679 18.3151C16.5285 18.6211 16.6785 18.9022 16.8989 19.1229C17.1193 19.3436 17.4002 19.494 17.7061 19.555C18.012 19.616 18.3291 19.5849 18.6173 19.4657C18.9055 19.3464 19.1519 19.1443 19.3252 18.885C19.4985 18.6257 19.5911 18.3208 19.5911 18.0089C19.5911 17.5911 19.4253 17.1905 19.1301 16.8949C18.8349 16.5993 18.4344 16.4329 18.0167 16.4323Z" fill="#333333"/>
<path d="M33.0487 17.8466L34.4741 12.5275L33.5846 10.9843L32.8286 13.8128L29.5309 12.9233C28.8047 11.2724 27.7324 9.79674 26.3866 8.59608L25.3926 4.88699L21.4945 1H19.7155L21.788 3.07247L19.3731 5.48293C18.9174 5.4333 18.4594 5.40806 18.0011 5.40733C16.6592 5.40773 15.326 5.62243 14.0518 6.0433L10.3428 5.04931L5.0215 6.47469L4.13203 8.0157L6.96054 7.25965L7.85001 10.5529C6.78271 12.0088 6.04102 13.6772 5.67526 15.445L2.95126 18.1557L1.52588 23.4747L2.41535 25.0157L3.17585 22.1872L6.47133 23.0767C7.19693 24.7285 8.26926 26.2051 9.61561 27.4061L10.6096 31.113L14.5055 35H16.2844L14.2119 32.9298L16.6246 30.5171C17.0809 30.5679 17.5397 30.5931 17.9989 30.5927C19.3399 30.5929 20.6723 30.3789 21.9459 29.9589L25.655 30.9529L30.9762 29.5275L31.8657 27.9843L29.0372 28.7426L28.1477 25.4493C29.2144 23.9928 29.9568 22.3247 30.3247 20.5572L33.0487 17.8466ZM17.9388 29.343C15.6958 29.343 13.5032 28.6778 11.6382 27.4317C9.77327 26.1856 8.3197 24.4144 7.46135 22.3421C6.60299 20.2699 6.37841 17.9896 6.81599 15.7898C7.25358 13.5899 8.33368 11.5691 9.91971 9.98311C11.5057 8.39707 13.5265 7.31697 15.7264 6.87939C17.9263 6.4418 20.2065 6.66639 22.2787 7.52474C24.351 8.3831 26.1222 9.83667 27.3683 11.7016C28.6145 13.5666 29.2796 15.7592 29.2796 18.0022C29.2796 21.01 28.0848 23.8945 25.9579 26.0213C23.8311 28.1481 20.9466 29.343 17.9388 29.343Z" fill="#333333"/>
</svg>
