<svg width="36" height="36" viewBox="0 0 36 36" fill="none" xmlns="http://www.w3.org/2000/svg">
<path d="M33.3741 15.8669C35.865 14.3464 35.0619 11.3012 33.8196 9.27042C33.372 8.54051 32.5647 8.15568 31.8202 8.43384C31.6322 8.52107 31.4664 8.64975 31.3353 8.81022C31.2042 8.97069 31.1111 9.15877 31.0631 9.36036C30.7138 10.6842 30.7682 11.9621 30.971 13.3111C31.0108 13.5767 30.5946 13.8214 30.2683 13.7545C29.3522 13.5663 28.6704 12.9869 27.8401 12.6628C26.7329 12.2651 25.561 12.0785 24.385 12.1127C21.685 12.1274 19.2171 13.1271 16.8223 14.6768C16.0861 15.1537 15.0906 15.4967 14.3126 14.886C13.2418 14.0494 12.6499 12.9409 11.4954 12.1211C11.3254 12.0203 11.1785 11.885 11.0639 11.724C10.9494 11.563 10.8698 11.3798 10.8303 11.1862C10.8178 11.0879 10.8491 10.8788 10.9098 10.8411C12.8883 9.60924 15.1303 9.53813 17.1193 8.43802C18.3742 7.74157 19.5224 6.89871 20.2105 5.59155C20.382 5.26738 20.4196 4.67968 20.0515 4.72778C17.9078 5.00804 16.059 6.24827 13.8797 6.43232C13.6677 6.44636 13.4576 6.48068 13.2522 6.5348C13.4001 6.27696 13.5761 6.03636 13.7772 5.81743C14.6953 4.79889 15.7557 4.03551 16.3476 2.79109C16.4626 2.55058 16.3978 2.02771 16.3016 2.04026C12.3759 2.52966 9.29519 5.84044 7.60529 9.36036C7.44006 9.70126 7.05314 9.80584 6.73943 9.90413C5.78733 10.1885 4.90093 10.6585 4.13132 11.287C3.36172 11.9155 2.72414 12.6902 2.25534 13.5663C2.11522 13.834 1.84751 14.0975 1.67601 14.3799C1.18034 15.2164 0.485973 16.6261 1.58817 17.0569C2.10894 17.2661 2.48541 17.7973 2.85978 18.157C3.95779 19.2195 5.53684 19.117 7.05314 18.8556C7.37523 18.8012 7.68058 19.1316 7.79561 19.483C8.57154 21.6393 9.53152 23.7538 11.3762 25.1592C11.8321 26.4559 12.5411 27.738 12.8402 29.087C12.1458 29.3275 10.2761 30.0511 10.8868 31.2307C12.2525 31.7975 13.5325 31.2976 14.9651 31.2621C15.763 32.0984 16.6714 32.8218 17.6652 33.4121C18.2696 33.7948 18.9075 34.0772 19.6583 33.912C19.7312 33.9052 19.8013 33.8811 19.8629 33.8417C19.9245 33.8023 19.9757 33.7487 20.0124 33.6855C20.049 33.6222 20.07 33.5511 20.0735 33.4781C20.0771 33.405 20.0631 33.3322 20.0327 33.2657C19.6751 32.5065 18.6461 31.7055 18.2884 30.9421C19.9825 30.4046 23.789 30.5426 24.4854 29.8838C25.5625 28.8632 26.2569 25.7636 28.2647 24.5234C29.3104 23.873 30.5256 23.8416 31.5985 23.2999C32.4748 22.8586 32.8533 21.9697 33.3804 21.1708C34.2567 19.8176 34.0622 18.0734 33.2946 16.6616C33.165 16.4316 33.1482 16.0049 33.3741 15.8669ZM23.2828 24.3707C22.6889 25.567 21.7163 27.7003 21.4005 27.8614C20.9822 28.0705 17.9517 28.5285 16.6278 28.5767C16.1133 27.9785 15.9648 27.28 15.7912 26.5877C15.6658 26.0523 15.396 25.5921 15.3437 25.063C15.2998 24.6447 15.2203 24.2139 15.4315 23.8207C15.7285 23.2706 16.3936 23.6429 16.8767 23.7579C17.9015 24.0068 18.8887 24.1469 19.9407 23.9671C20.9927 23.7872 21.9882 23.576 23.0277 23.6408C23.4104 23.6743 23.4104 24.1156 23.2828 24.3707Z" fill="#333333"/>
</svg>
