<svg width="36" height="36" viewBox="0 0 36 36" fill="none" xmlns="http://www.w3.org/2000/svg">
<path d="M17.9934 20.1665C17.7174 20.1668 17.4476 20.249 17.2182 20.4026C16.9888 20.5562 16.8102 20.7743 16.7047 21.0295C16.5993 21.2846 16.5719 21.5653 16.626 21.836C16.68 22.1067 16.8131 22.3553 17.0084 22.5504C17.2038 22.7455 17.4525 22.8783 17.7233 22.932C17.9941 22.9858 18.2747 22.958 18.5297 22.8523C18.7847 22.7466 19.0027 22.5676 19.156 22.3381C19.3094 22.1085 19.3912 21.8387 19.3912 21.5626C19.3908 21.1922 19.2433 20.8371 18.9812 20.5753C18.7191 20.3135 18.3639 20.1665 17.9934 20.1665ZM17.9934 20.1665C17.7174 20.1668 17.4476 20.249 17.2182 20.4026C16.9888 20.5562 16.8102 20.7743 16.7047 21.0295C16.5993 21.2846 16.5719 21.5653 16.626 21.836C16.68 22.1067 16.8131 22.3553 17.0084 22.5504C17.2038 22.7455 17.4525 22.8783 17.7233 22.932C17.9941 22.9858 18.2747 22.958 18.5297 22.8523C18.7847 22.7466 19.0027 22.5676 19.156 22.3381C19.3094 22.1085 19.3912 21.8387 19.3912 21.5626C19.3908 21.1922 19.2433 20.8371 18.9812 20.5753C18.7191 20.3135 18.3639 20.1665 17.9934 20.1665ZM17.9934 10.6727C17.6246 10.6745 17.2714 10.8221 17.011 11.0834C16.7507 11.3447 16.6043 11.6984 16.6039 12.0672V17.8834C16.6039 18.2537 16.751 18.6088 17.0128 18.8706C17.2746 19.1324 17.6297 19.2795 18 19.2795C18.3703 19.2795 18.7254 19.1324 18.9872 18.8706C19.249 18.6088 19.3961 18.2537 19.3961 17.8834V12.0672C19.3957 11.6972 19.2484 11.3426 18.9866 11.0811C18.7249 10.8196 18.37 10.6727 18 10.6727H17.9934ZM1 16.029V17.8834H6.12135V16.029H1ZM29.8786 16.029V17.8834H35V16.029H29.8786ZM17.0671 28.8274V33.9324H18.9297V28.8209L17.0671 28.8274ZM17.9918 20.173C17.7157 20.1734 17.446 20.2555 17.2166 20.4091C16.9872 20.5627 16.8085 20.7809 16.7031 21.036C16.5977 21.2912 16.5703 21.5718 16.6243 21.8426C16.6784 22.1133 16.8115 22.3619 17.0068 22.557C17.2021 22.7521 17.4509 22.8849 17.7217 22.9386C17.9924 22.9923 18.2731 22.9646 18.5281 22.8589C18.7831 22.7532 19.0011 22.5742 19.1544 22.3447C19.3077 22.1151 19.3896 21.8452 19.3896 21.5692C19.3902 21.3853 19.3546 21.2032 19.2847 21.0331C19.2149 20.8631 19.1122 20.7085 18.9825 20.5782C18.8528 20.4479 18.6987 20.3445 18.529 20.2738C18.3593 20.2032 18.1773 20.1667 17.9934 20.1665L17.9918 20.173ZM17.9918 10.6793C17.6244 10.6815 17.2726 10.8284 17.0128 11.0882C16.7529 11.348 16.606 11.6998 16.6039 12.0672V17.8834C16.6039 18.2537 16.751 18.6088 17.0128 18.8706C17.2746 19.1324 17.6297 19.2795 18 19.2795C18.3703 19.2795 18.7254 19.1324 18.9872 18.8706C19.249 18.6088 19.3961 18.2537 19.3961 17.8834V12.0672C19.3957 11.6972 19.2484 11.3426 18.9866 11.0811C18.7249 10.8196 18.37 10.6727 18 10.6727L17.9918 10.6793ZM17.9918 10.6793C17.6244 10.6815 17.2726 10.8284 17.0128 11.0882C16.7529 11.348 16.606 11.6998 16.6039 12.0672V17.8834C16.6039 18.2537 16.751 18.6088 17.0128 18.8706C17.2746 19.1324 17.6297 19.2795 18 19.2795C18.3703 19.2795 18.7254 19.1324 18.9872 18.8706C19.249 18.6088 19.3961 18.2537 19.3961 17.8834V12.0672C19.3957 11.6972 19.2484 11.3426 18.9866 11.0811C18.7249 10.8196 18.37 10.6727 18 10.6727L17.9918 10.6793ZM17.9918 20.173C17.7157 20.1734 17.446 20.2555 17.2166 20.4091C16.9872 20.5627 16.8085 20.7809 16.7031 21.036C16.5977 21.2912 16.5703 21.5718 16.6243 21.8426C16.6784 22.1133 16.8115 22.3619 17.0068 22.557C17.2021 22.7521 17.4509 22.8849 17.7217 22.9386C17.9924 22.9923 18.2731 22.9646 18.5281 22.8589C18.7831 22.7532 19.0011 22.5742 19.1544 22.3447C19.3077 22.1151 19.3896 21.8452 19.3896 21.5692C19.3902 21.3853 19.3546 21.2032 19.2847 21.0331C19.2149 20.8631 19.1122 20.7085 18.9825 20.5782C18.8528 20.4479 18.6987 20.3445 18.529 20.2738C18.3593 20.2032 18.1773 20.1667 17.9934 20.1665L17.9918 20.173ZM22.6532 8.36995V2.06763H13.3451V8.36338C11.433 9.39893 9.9208 11.0425 9.04777 13.0341C8.17474 15.0257 7.99074 17.2515 8.52489 19.3594C9.05903 21.4673 10.2808 23.3369 11.9969 24.6724C13.713 26.0079 15.8255 26.733 18 26.733C20.1745 26.733 22.287 26.0079 24.0031 24.6724C25.7192 23.3369 26.941 21.4673 27.4751 19.3594C28.0093 17.2515 27.8253 15.0257 26.9522 13.0341C26.0792 11.0425 24.567 9.39893 22.6549 8.36338L22.6532 8.36995ZM15.2044 3.93516H20.789V7.5914C18.967 7.04888 17.0264 7.04888 15.2044 7.5914V3.93516ZM17.9967 24.8969C16.4329 24.8966 14.9042 24.4326 13.604 23.5637C12.3038 22.6948 11.2904 21.4599 10.6918 20.0151C10.0933 18.5703 9.93654 16.9806 10.2413 15.4467C10.5462 13.9129 11.2989 12.5038 12.4043 11.3977C13.5098 10.2915 14.9184 9.53792 16.452 9.23216C17.9857 8.92639 19.5756 9.08217 21.0207 9.6798C22.4659 10.2774 23.7014 11.2901 24.5711 12.5898C25.4409 13.8894 25.9058 15.4178 25.9071 16.9816C25.9053 19.0793 25.0708 21.0905 23.5869 22.5732C22.103 24.0558 20.0911 24.8887 17.9934 24.8887L17.9967 24.8969ZM17.9967 10.681C17.6287 10.6818 17.2759 10.8279 17.0151 11.0875C16.7542 11.3472 16.6065 11.6992 16.6039 12.0672V17.8834C16.6039 18.2537 16.751 18.6088 17.0128 18.8706C17.2746 19.1324 17.6297 19.2795 18 19.2795C18.3703 19.2795 18.7254 19.1324 18.9872 18.8706C19.249 18.6088 19.3961 18.2537 19.3961 17.8834V12.0672C19.3957 11.6972 19.2484 11.3426 18.9866 11.0811C18.7249 10.8196 18.37 10.6727 18 10.6727L17.9967 10.681ZM17.9967 20.1747C17.7207 20.175 17.4509 20.2572 17.2215 20.4108C16.9921 20.5644 16.8134 20.7825 16.708 21.0377C16.6026 21.2928 16.5752 21.5735 16.6292 21.8442C16.6833 22.1149 16.8164 22.3635 17.0117 22.5586C17.207 22.7537 17.4558 22.8865 17.7266 22.9402C17.9974 22.994 18.278 22.9662 18.533 22.8605C18.788 22.7548 19.006 22.5759 19.1593 22.3463C19.3127 22.1167 19.3945 21.8469 19.3945 21.5708C19.3954 21.3864 19.3597 21.2037 19.2897 21.0331C19.2196 20.8626 19.1165 20.7076 18.9863 20.577C18.856 20.4465 18.7013 20.343 18.5309 20.2725C18.3605 20.2021 18.1778 20.166 17.9934 20.1665L17.9967 20.1747ZM17.9967 10.681C17.6287 10.6818 17.2759 10.8279 17.0151 11.0875C16.7542 11.3472 16.6065 11.6992 16.6039 12.0672V17.8834C16.6039 18.2537 16.751 18.6088 17.0128 18.8706C17.2746 19.1324 17.6297 19.2795 18 19.2795C18.3703 19.2795 18.7254 19.1324 18.9872 18.8706C19.249 18.6088 19.3961 18.2537 19.3961 17.8834V12.0672C19.3957 11.6972 19.2484 11.3426 18.9866 11.0811C18.7249 10.8196 18.37 10.6727 18 10.6727L17.9967 10.681ZM29.358 4.29159L25.7444 7.90512L27.0585 9.21913L30.672 5.6056L29.358 4.29159ZM27.0585 24.6949L25.7444 26.0089L29.358 29.6224L30.672 28.3084L27.0585 24.6949ZM8.94155 24.6949L5.32802 28.3084L6.64203 29.6224L10.2556 26.0089L8.94155 24.6949ZM6.64203 4.29159L5.32802 5.6056L8.94155 9.21913L10.2556 7.90512L6.64203 4.29159Z" fill="#333333"/>
</svg>
