<svg width="36" height="36" viewBox="0 0 36 36" fill="none" xmlns="http://www.w3.org/2000/svg">
<path d="M27.9514 26.2936C28.4212 25.3486 28.4696 23.4571 28.1967 22.3895L28.1552 22.2288V1H7.63635V23.7214H14.0401L14.7466 26.4853C14.9173 27.1417 15.2917 27.7272 15.8159 28.1575L18.4071 30.633C18.6792 30.9364 18.8784 31.298 18.9893 31.6902L19.834 35L27.3675 33.0756L26.5953 30.056C26.5395 29.758 26.5658 29.4505 26.6713 29.1663C26.7819 28.8744 27.5558 27.1642 27.9514 26.2936ZM21.6427 1.97947H27.1705V6.43461H21.6427V1.97947ZM21.6427 7.41408H27.1705V11.8709H21.6427V7.41408ZM21.6427 12.8504H27.1705V17.3056H25.906C25.6871 17.2676 25.4633 17.2676 25.2444 17.3056H24.0266C23.8684 17.1816 23.6877 17.0895 23.4945 17.0343C23.2139 16.9608 22.9211 16.9469 22.6348 16.9936C22.3486 17.0403 22.0753 17.1466 21.8327 17.3056H21.6427V12.8504ZM27.1567 18.3351C27.1567 18.3179 27.1464 18.3006 27.1395 18.285H27.1826V18.4146V18.2868H27.1395C27.1395 18.3006 27.1429 18.3179 27.1567 18.3351ZM15.1301 1.97947H20.658V6.43461H15.1301V1.97947ZM15.1301 7.41408H20.658V11.8709H15.1301V7.41408ZM20.658 12.8504V16.9825C20.4183 16.9513 20.1748 16.9671 19.9411 17.0292C19.7235 17.0857 19.5173 17.1792 19.3313 17.3056H19.1689L18.2637 13.7314C18.1882 13.4208 18.0653 13.1236 17.8992 12.8504H20.658ZM15.1301 18.285H15.384L15.7865 19.8639C15.5795 19.7347 15.3595 19.6276 15.1301 19.5444V18.285ZM14.1472 19.4407C14.1178 19.4407 14.0884 19.4407 14.0608 19.4563C13.819 19.5288 13.0554 19.8657 13.3975 21.2148L13.7861 22.7419H8.61583V18.285H14.1437L14.1472 19.4407ZM14.1472 17.3056H8.61928V12.8504H14.1472V17.3056ZM14.1472 11.8709H8.61928V7.41408H14.1472V11.8709ZM14.1472 6.43461H8.61928V1.97947H14.1472V6.43461ZM25.64 30.3186L26.1583 32.3742L20.5336 33.8219L19.9325 31.4708C19.7786 30.9024 19.4886 30.3801 19.0877 29.9489L16.4723 27.4302L16.424 27.3905C16.0678 27.0948 15.8135 26.6948 15.6967 26.2469L14.3493 20.9695C14.2508 20.5774 14.3026 20.4202 14.3234 20.3995C14.4512 20.3643 14.5871 20.374 14.7086 20.4271C15.3616 20.6206 16.0906 21.2511 16.2771 21.7814L17.1081 25.036L18.0582 24.7924L15.3961 14.3723C15.365 14.2462 15.1215 13.1406 16.0612 12.9005C16.166 12.8669 16.2767 12.8555 16.3862 12.8671C16.4956 12.8787 16.6015 12.9131 16.6969 12.9679C17.0666 13.1925 17.2635 13.7487 17.3102 13.956C17.3292 14.0286 19.1413 21.1595 19.3503 21.9455L20.297 21.695C20.2555 21.5413 20.1536 21.1405 20.0137 20.5981C19.9307 20.2699 19.8409 19.8916 19.7286 19.4839L19.5559 18.8309C19.4367 18.3593 19.8772 18.0587 20.1829 17.9793C20.3833 17.9274 20.8739 17.8704 21.0225 18.4561L21.8759 21.8022L22.8381 21.5569L22.3993 19.8398L22.2766 19.363L22.1039 18.7117C22.0769 18.624 22.0759 18.5303 22.1011 18.442C22.1262 18.3537 22.1764 18.2746 22.2455 18.2142C22.3771 18.0996 22.5342 18.0182 22.7037 17.9767C22.8732 17.9352 23.0502 17.9349 23.2198 17.9758C23.3054 17.9971 23.3833 18.0421 23.4444 18.1057C23.5055 18.1692 23.5474 18.2488 23.5653 18.3351L24.4135 21.657L25.3619 21.4135L24.7849 19.1038C24.767 19.0391 24.7577 18.9723 24.7573 18.9052C24.757 18.8301 24.7721 18.7558 24.8019 18.6868C24.8316 18.6178 24.8752 18.5557 24.93 18.5044C25.0475 18.3976 25.1895 18.3213 25.3435 18.2824C25.4975 18.2436 25.6586 18.2433 25.8128 18.2816C25.9212 18.3082 26.02 18.3647 26.0979 18.4447C26.1758 18.5247 26.2296 18.625 26.2533 18.7342L27.2483 22.6331C27.4901 23.5797 27.402 25.2087 27.0755 25.8617L27.0669 25.879C27.0203 25.9826 25.913 28.4166 25.7575 28.8157C25.5714 29.2943 25.5317 29.8174 25.6435 30.3186H25.64Z" fill="#333333"/>
<path d="M11.3987 3.79673V5.52419H12.1277V2.88635H11.53C11.4568 3.04585 11.348 3.18648 11.2121 3.29749C11.0418 3.43061 10.8477 3.53025 10.6403 3.59116V4.18368C10.7828 4.14187 10.9215 4.08813 11.0549 4.02303C11.1762 3.95827 11.2913 3.88252 11.3987 3.79673Z" fill="#333333"/>
<path d="M18.0235 4.78139C18.0718 4.73993 18.1703 4.67083 18.3154 4.57064C18.5115 4.44488 18.6826 4.2838 18.8198 4.09558C18.91 3.96176 18.9586 3.80433 18.9598 3.64299C18.9601 3.49879 18.9169 3.35785 18.8358 3.23859C18.7548 3.11932 18.6396 3.02727 18.5054 2.97446C18.3153 2.90784 18.1142 2.87794 17.9129 2.88636C17.7187 2.87829 17.5248 2.90943 17.3429 2.97791C17.2123 3.03371 17.1011 3.12687 17.0233 3.24567C16.9366 3.39104 16.8835 3.55393 16.8678 3.72245L17.5916 3.77946C17.5967 3.66752 17.6379 3.56024 17.7091 3.4737C17.7696 3.4181 17.8488 3.38725 17.9311 3.38725C18.0133 3.38725 18.0925 3.4181 18.153 3.4737C18.1812 3.4992 18.2037 3.53042 18.2189 3.56526C18.234 3.60011 18.2416 3.6378 18.2411 3.67581C18.2372 3.76039 18.2063 3.84149 18.153 3.90729C18.0339 4.04371 17.8974 4.16393 17.7471 4.26488C17.4769 4.44788 17.2378 4.673 17.0388 4.93168C16.9163 5.11153 16.8393 5.3184 16.8142 5.53456H18.9788V4.93859H17.8507C17.9164 4.87294 17.9751 4.82112 18.0235 4.78139Z" fill="#333333"/>
<path d="M25.2082 4.16126C25.1366 4.1207 25.0591 4.09155 24.9785 4.07489C25.0891 4.01834 25.1845 3.93598 25.2566 3.83477C25.3188 3.74571 25.3514 3.63935 25.3499 3.53074C25.3512 3.43931 25.3313 3.34882 25.2918 3.26638C25.2522 3.18395 25.194 3.11182 25.1219 3.05568C24.9076 2.91106 24.6504 2.84402 24.3929 2.86566C24.1502 2.84977 23.9086 2.91017 23.7019 3.03841C23.5369 3.1612 23.4211 3.33884 23.3754 3.53938L24.0664 3.66203C24.0728 3.56233 24.1109 3.46729 24.1752 3.39081C24.2028 3.36469 24.2354 3.34435 24.271 3.331C24.3066 3.31765 24.3445 3.31155 24.3825 3.31308C24.4502 3.31316 24.5155 3.3384 24.5656 3.3839C24.5897 3.40913 24.6084 3.43898 24.6205 3.47165C24.6327 3.50431 24.6381 3.53911 24.6364 3.57393C24.6363 3.61426 24.6277 3.65411 24.6114 3.69098C24.595 3.72785 24.5712 3.76093 24.5414 3.78813C24.4763 3.84735 24.3911 3.87948 24.303 3.87796C24.2718 3.87689 24.2407 3.87401 24.2098 3.86932L24.1718 4.38756C24.248 4.36387 24.3269 4.34994 24.4067 4.3461C24.4533 4.34385 24.4998 4.35146 24.5433 4.36843C24.5868 4.3854 24.6262 4.41134 24.6589 4.44457C24.7251 4.52153 24.7586 4.62136 24.7522 4.72269C24.7572 4.826 24.7226 4.92733 24.6554 5.00599C24.6252 5.04012 24.588 5.06723 24.5462 5.08544C24.5044 5.10364 24.4592 5.11249 24.4136 5.11137C24.3296 5.11478 24.2477 5.08499 24.1856 5.02845C24.1123 4.94307 24.066 4.83786 24.0526 4.72615L23.3322 4.82116C23.3717 4.96845 23.4411 5.10604 23.536 5.22538C23.6266 5.33295 23.7432 5.4156 23.8746 5.4655C24.0544 5.52772 24.2442 5.55585 24.4343 5.54842C24.6361 5.55617 24.837 5.51777 25.0217 5.43613C25.1669 5.36675 25.2874 5.25464 25.3672 5.11483C25.4434 4.983 25.4839 4.83353 25.4846 4.68123C25.4874 4.57329 25.463 4.46639 25.4138 4.37029C25.3646 4.28393 25.2938 4.21189 25.2082 4.16126Z" fill="#333333"/>
<path d="M11.5629 10.9622H12.1917V10.4768H12.5182V9.91712H12.1917V8.32267H11.5629L10.2483 9.87739V10.4716H11.5629V10.9622ZM10.8719 9.91712L11.5629 9.09658V9.91712H10.8719Z" fill="#333333"/>
<path d="M24.652 9.20729C24.5432 9.20467 24.4351 9.22651 24.3359 9.27121C24.2359 9.3186 24.1457 9.38422 24.0698 9.46468C24.0721 9.27845 24.1078 9.09414 24.1752 8.92053C24.1996 8.86875 24.2382 8.82498 24.2865 8.79438C24.3349 8.76378 24.3909 8.74761 24.4482 8.74779C24.4797 8.74582 24.5113 8.75033 24.541 8.76102C24.5707 8.77172 24.5979 8.78838 24.6209 8.80997C24.6736 8.86872 24.7068 8.94235 24.7159 9.02073L25.4328 8.93262C25.4009 8.80632 25.342 8.68844 25.2601 8.58713C25.179 8.49408 25.0764 8.42231 24.9612 8.37811C24.8036 8.32378 24.6372 8.29918 24.4706 8.30555C24.3184 8.29726 24.1661 8.32216 24.0244 8.37853C23.8827 8.43491 23.755 8.52141 23.6501 8.63205C23.4531 8.84971 23.3547 9.1952 23.3547 9.66853C23.3439 9.93252 23.3917 10.1956 23.4946 10.439C23.5722 10.6075 23.6978 10.7493 23.8556 10.8467C24.0496 10.9427 24.2648 10.9878 24.481 10.9779C24.6672 10.9838 24.8522 10.9466 25.0217 10.8691C25.1634 10.7985 25.2803 10.6864 25.3568 10.5478C25.4385 10.4054 25.4809 10.2438 25.4795 10.0797C25.484 9.85096 25.3977 9.62979 25.2393 9.46468C25.165 9.38291 25.0743 9.31772 24.9731 9.27337C24.8719 9.22902 24.7625 9.2065 24.652 9.20729ZM24.7004 10.4252C24.6711 10.4596 24.6345 10.4871 24.5933 10.5056C24.552 10.5242 24.5072 10.5333 24.462 10.5323C24.4125 10.5322 24.3636 10.5216 24.3186 10.501C24.2736 10.4804 24.2335 10.4505 24.2011 10.4131C24.1256 10.3203 24.0874 10.2026 24.094 10.0831C24.0864 9.96778 24.1235 9.85393 24.1977 9.76526C24.229 9.72935 24.2678 9.7007 24.3114 9.68131C24.355 9.66192 24.4022 9.65225 24.4499 9.65298C24.4971 9.65235 24.5439 9.66244 24.5867 9.68249C24.6295 9.70253 24.6672 9.73202 24.6969 9.76872C24.7686 9.86447 24.8036 9.98278 24.7954 10.1021C24.8042 10.2178 24.7704 10.3327 24.7004 10.4252Z" fill="#333333"/>
<path d="M11.0342 15.3103C10.8988 15.6516 10.8093 16.0095 10.7682 16.3744H11.4851C11.503 16.1065 11.5494 15.8413 11.6233 15.5832C11.7041 15.3076 11.8233 15.0448 11.9774 14.8024C12.1049 14.6034 12.2589 14.4227 12.4352 14.2652V13.7832H10.3311V14.393H11.6094C11.3773 14.6715 11.1838 14.9801 11.0342 15.3103Z" fill="#333333"/>
<path d="M24.1681 15.5107C24.2762 15.5131 24.3835 15.4919 24.4825 15.4485C24.5824 15.4012 24.6726 15.3355 24.7485 15.2551C24.7442 15.4411 24.7086 15.6251 24.6431 15.7992C24.6189 15.8507 24.5806 15.8943 24.5326 15.9249C24.4846 15.9555 24.4289 15.9718 24.3719 15.972C24.3112 15.9736 24.2522 15.9512 24.2078 15.9098C24.1545 15.8513 24.1207 15.7776 24.1111 15.699L23.3942 15.7889C23.4273 15.9147 23.4861 16.0323 23.5669 16.1344C23.6499 16.23 23.7556 16.3031 23.8744 16.3468C24.0315 16.4012 24.1973 16.4258 24.3633 16.4194C24.5156 16.4278 24.6679 16.403 24.8096 16.3466C24.9513 16.2902 25.079 16.2036 25.1838 16.0929C25.3808 15.8752 25.4792 15.5297 25.4792 15.0564C25.4898 14.793 25.4421 14.5305 25.3393 14.2877C25.2599 14.111 25.1286 13.9628 24.9627 13.8627C24.7692 13.7653 24.5538 13.7195 24.3374 13.7297C24.1522 13.7231 23.9681 13.7604 23.8001 13.8386C23.6551 13.9082 23.5346 14.0202 23.4547 14.1599C23.3729 14.3029 23.3306 14.465 23.332 14.6297C23.3281 14.745 23.3474 14.8599 23.3886 14.9676C23.4299 15.0753 23.4923 15.1736 23.5721 15.2568C23.6478 15.339 23.74 15.4041 23.8428 15.4479C23.9455 15.4917 24.0564 15.5131 24.1681 15.5107ZM24.1197 14.3015C24.1488 14.2669 24.1854 14.2392 24.2267 14.2207C24.268 14.2021 24.3129 14.1932 24.3581 14.1944C24.4072 14.1939 24.4557 14.2043 24.5003 14.2249C24.5448 14.2456 24.5842 14.2758 24.6155 14.3136C24.6911 14.4064 24.7293 14.5241 24.7226 14.6436C24.73 14.7586 24.6936 14.8721 24.6207 14.9614C24.5897 14.9978 24.551 15.0268 24.5073 15.0462C24.4637 15.0656 24.4162 15.075 24.3685 15.0737C24.3215 15.0744 24.2749 15.0644 24.2324 15.0443C24.1899 15.0243 24.1525 14.9947 24.1232 14.9579C24.0515 14.8629 24.0165 14.7451 24.0247 14.6263C24.0164 14.5101 24.0501 14.3949 24.1197 14.3015Z" fill="#333333"/>
<path d="M10.9307 20.669C10.7978 20.7665 10.673 20.8745 10.5575 20.992L10.1032 21.4481L10.8529 21.9957L11.157 21.4481C11.2356 21.3001 11.306 21.1479 11.3677 20.992C11.4645 21.2183 11.5405 21.3704 11.5785 21.4481L11.8791 21.9957L12.608 21.4481L12.1865 20.992C12.0756 20.8743 11.9548 20.7663 11.8255 20.669C11.995 20.6652 12.1641 20.6502 12.3316 20.6241L12.9535 20.4945L12.6771 19.6412L12.114 19.9089C12.0535 19.9348 11.9672 19.9798 11.8549 20.0419C11.822 20.0609 11.7547 20.0955 11.651 20.1473C11.6984 19.9816 11.7325 19.8123 11.7529 19.6412L11.8255 19.0314H10.9307L11.0101 19.6412C11.024 19.7517 11.0568 19.921 11.1086 20.1473C10.8737 20.0074 10.7268 19.9227 10.6664 19.8968L10.1032 19.6412L9.813 20.4945L10.4401 20.5947C10.6422 20.6327 10.8063 20.6569 10.9307 20.669Z" fill="#333333"/>
<path d="M18.0996 9.17431C18.021 9.17471 17.9427 9.18457 17.8664 9.20368C17.7842 9.22337 17.7042 9.25175 17.628 9.28833L17.6867 8.89965H18.8511V8.32267H17.1374L16.9111 9.72019L17.5261 9.80829C17.5705 9.75465 17.6244 9.70957 17.685 9.67528C17.7471 9.64161 17.8165 9.62381 17.8871 9.62345C17.9363 9.62147 17.9853 9.62999 18.0308 9.64846C18.0764 9.66693 18.1175 9.69492 18.1514 9.73056C18.2264 9.82929 18.2616 9.95261 18.2499 10.0761C18.2593 10.1993 18.2244 10.3218 18.1514 10.4215C18.1216 10.458 18.0838 10.4873 18.041 10.507C17.9983 10.5268 17.9515 10.5365 17.9044 10.5356C17.8182 10.5368 17.735 10.5039 17.6729 10.444C17.6018 10.3725 17.5578 10.2784 17.5485 10.178L16.8196 10.2574C16.8487 10.3648 16.8935 10.4672 16.9526 10.5615C17.0087 10.6454 17.0788 10.719 17.1599 10.7791C17.254 10.8468 17.3601 10.8961 17.4725 10.9242C17.6168 10.9584 17.7648 10.9746 17.913 10.9726C18.1159 10.98 18.3175 10.9379 18.5004 10.85C18.6516 10.7705 18.7751 10.647 18.8545 10.4958C18.9359 10.3482 18.9786 10.1824 18.9789 10.0139C18.982 9.90356 18.9619 9.79384 18.9199 9.69178C18.878 9.58973 18.8151 9.4976 18.7353 9.42134C18.6517 9.33917 18.5522 9.27489 18.4429 9.23243C18.3336 9.18996 18.2168 9.17018 18.0996 9.17431Z" fill="#333333"/>
</svg>
