<svg width="36" height="36" viewBox="0 0 36 36" fill="none" xmlns="http://www.w3.org/2000/svg">
<path d="M18.7503 24.6713L16.9828 13.5994L16.0527 13.7451L17.8202 24.8169L18.7503 24.6713Z" fill="#333333"/>
<path d="M25.1088 14.8588V8.2389H14.0651L15.1458 4.23715L13.2625 1L10.6145 2.51762L13.941 8.23725H11.4685V14.8572C10.0815 15.8982 8.95578 17.2476 8.18024 18.7986C7.40471 20.3497 7.00064 22.0599 7 23.7941C7 29.9788 12.0576 35 18.2886 35C24.5197 35 29.579 29.9788 29.579 23.7941C29.5785 22.06 29.1743 20.3498 28.3985 18.7989C27.6226 17.248 26.4963 15.8991 25.1088 14.8588ZM13.7043 5.96495L11.9004 2.8602L12.9182 2.27599L14.1363 4.36789L13.7043 5.96495ZM18.2886 33.1315C13.097 33.1315 8.88172 28.9494 8.88172 23.7941C8.88416 22.1982 9.29633 20.6297 10.0787 19.2387C10.8611 17.8478 11.9876 16.681 13.3502 15.8502V10.1024H23.2288V15.8402C24.5913 16.6712 25.7176 17.838 26.5 19.2289C27.2824 20.6198 27.6946 22.1883 27.6972 23.7842C27.6989 28.9461 23.4836 33.1282 18.2886 33.1282V33.1315Z" fill="#333333"/>
<path d="M23.323 21.7517L20.2067 16.8017L19.409 17.2982L22.5237 22.2499L23.323 21.7517Z" fill="#333333"/>
<path d="M15.4139 18.1589L14.5467 17.7932L12.2496 23.1669L13.1168 23.531L15.4139 18.1589Z" fill="#333333"/>
<path d="M25.2528 22.4817C25.3796 22.9944 25.3603 23.5323 25.1971 24.0345C25.0339 24.5367 24.7332 24.9831 24.3292 25.3232C23.9252 25.6633 23.434 25.8834 22.9113 25.9586C22.3886 26.0338 21.8553 25.9611 21.3718 25.7487C21.1665 26.3504 20.7922 26.8803 20.2938 27.2749C19.7953 27.6696 19.1937 27.9123 18.5609 27.9741C17.9281 28.0359 17.2909 27.9142 16.7255 27.6234C16.1601 27.3326 15.6904 26.8852 15.3725 26.3345C14.9497 26.5071 14.4963 26.5925 14.0396 26.5855C13.583 26.5785 13.1324 26.4792 12.7151 26.2937C12.2977 26.1083 11.9222 25.8403 11.611 25.5061C11.2997 25.1718 11.0593 24.7781 10.9041 24.3486C10.8064 24.8783 10.8504 25.4244 11.0316 25.9316C11.2128 26.4389 11.5248 26.8893 11.9359 27.2373C12.3471 27.5853 12.8428 27.8185 13.373 27.9134C13.9033 28.0083 14.4491 27.9615 14.9555 27.7777C15.341 28.3119 15.8596 28.736 16.4598 29.0078C17.0599 29.2796 17.7207 29.3897 18.3766 29.3271C19.0324 29.2645 19.6605 29.0315 20.1984 28.6511C20.7364 28.2707 21.1654 27.7562 21.443 27.1587C22.0709 27.4612 22.7825 27.5432 23.4628 27.3915C24.143 27.2398 24.7523 26.8632 25.1923 26.3227C25.6322 25.7821 25.8772 25.109 25.8876 24.4121C25.8979 23.7152 25.6731 23.0352 25.2495 22.4817H25.2528Z" fill="#333333"/>
</svg>
