<svg width="36" height="36" viewBox="0 0 36 36" fill="none" xmlns="http://www.w3.org/2000/svg">
<path d="M33.7193 28.408V3.81656C33.7193 3.34184 33.5307 2.88656 33.195 2.55088C32.8594 2.21519 32.4041 2.02661 31.9294 2.02661C31.4546 2.02661 30.9993 2.21519 30.6637 2.55088C30.328 2.88656 30.1394 3.34184 30.1394 3.81656V28.408C29.6113 28.7869 29.217 29.3237 29.0134 29.941C28.8097 30.5583 28.8073 31.2242 29.0063 31.843C29.2053 32.4618 29.5955 33.0015 30.1208 33.3843C30.6461 33.7672 31.2793 33.9734 31.9294 33.9734C32.5794 33.9734 33.2126 33.7672 33.7379 33.3843C34.2632 33.0015 34.6534 32.4618 34.8524 31.843C35.0514 31.2242 35.049 30.5583 34.8453 29.941C34.6417 29.3237 34.2474 28.7869 33.7193 28.408ZM32.6952 18.3818H31.1617V3.81656C31.1567 3.71274 31.1728 3.60898 31.209 3.51157C31.2453 3.41415 31.3009 3.32512 31.3726 3.24986C31.4443 3.1746 31.5306 3.11468 31.6261 3.07375C31.7216 3.03281 31.8245 3.0117 31.9284 3.0117C32.0324 3.0117 32.1352 3.03281 32.2308 3.07375C32.3263 3.11468 32.4126 3.1746 32.4843 3.24986C32.5559 3.32512 32.6116 3.41415 32.6479 3.51157C32.6841 3.60898 32.7002 3.71274 32.6952 3.81656V18.3818Z" fill="#333333"/>
<path d="M23.4854 20.2333C23.4854 20.347 23.4854 20.4626 23.4854 20.5764C23.4874 22.3601 23.0229 24.1134 22.1381 25.6621C21.2532 27.2108 19.9787 28.5013 18.441 29.4053C16.9034 30.3093 15.1561 30.7955 13.3725 30.8157C11.5889 30.8358 9.83101 30.3892 8.27334 29.5202C6.71567 28.6511 5.41233 27.3898 4.49269 25.8615C3.57304 24.3331 3.06905 22.5908 3.03074 20.8075C2.99242 19.0242 3.42111 17.2619 4.27427 15.6955C5.12742 14.129 6.37538 12.8129 7.89429 11.8778V5.6048H18.6322V8.9788L20.6786 9.52066V3.56018H5.84786V10.8031C4.18522 12.0658 2.87237 13.732 2.03358 15.6439C1.1948 17.5559 0.857841 19.6502 1.05461 21.7287C1.25137 23.8072 1.97535 25.8011 3.15801 27.5217C4.34066 29.2422 5.94286 30.6325 7.81292 31.5608C9.68298 32.4892 11.759 32.9249 13.8445 32.8267C15.93 32.7286 17.956 32.0998 19.7306 30.9999C21.5052 29.9 22.9697 28.3654 23.9855 26.5414C25.0013 24.7173 25.5348 22.6642 25.5355 20.5764C25.5362 19.8392 25.4697 19.1034 25.3368 18.3783L23.4854 20.2333Z" fill="#333333"/>
<path d="M12.7529 20.5763C12.7529 21.1528 12.5239 21.7057 12.1163 22.1134C11.7086 22.5211 11.1557 22.7501 10.5792 22.7501C10.0026 22.7501 9.44974 22.5211 9.04208 22.1134C8.63442 21.7057 8.4054 21.1528 8.4054 20.5763H7.38309C7.38071 21.1504 7.15159 21.7003 6.74563 22.1063C6.33967 22.5123 5.78975 22.7414 5.21564 22.7438V23.7661C5.74985 23.7668 6.27568 23.6333 6.74493 23.378C7.21418 23.1227 7.61185 22.7537 7.90147 22.3049C8.19104 22.7537 8.58852 23.1228 9.05756 23.3784C9.52661 23.634 10.0522 23.7679 10.5864 23.7679C11.1205 23.7679 11.6462 23.634 12.1152 23.3784C12.5843 23.1228 12.9817 22.7537 13.2713 22.3049C13.5604 22.7541 13.9576 23.1236 14.4265 23.3795C14.8954 23.6354 15.4211 23.7695 15.9553 23.7695C16.4896 23.7695 17.0152 23.6354 17.4842 23.3795C17.9531 23.1236 18.3503 22.7541 18.6394 22.3049C18.929 22.7537 19.3266 23.1227 19.7959 23.378C20.2651 23.6333 20.791 23.7668 21.3252 23.7661V22.7438C20.7503 22.7438 20.199 22.5154 19.7926 22.1089C19.3861 21.7025 19.1577 21.1512 19.1577 20.5763H18.121C18.121 21.1526 17.892 21.7053 17.4846 22.1128C17.0771 22.5203 16.5244 22.7492 15.9481 22.7492C15.3718 22.7492 14.8192 22.5203 14.4117 22.1128C14.0042 21.7053 13.7752 21.1526 13.7752 20.5763H12.7529Z" fill="#333333"/>
<path d="M23.4908 11.3375L11.4182 8.1044V18.8351L23.4908 15.6038V18.7809L28.8065 13.4706L23.4908 8.15858V11.3375Z" fill="#333333"/>
</svg>
