<svg width="36" height="36" viewBox="0 0 36 36" fill="none" xmlns="http://www.w3.org/2000/svg">
<path fill-rule="evenodd" clip-rule="evenodd" d="M32 25.9848V27.0116L30.5448 27.3608C30.4965 27.7019 30.4201 28.0384 30.3164 28.3667L31.4806 29.3221L31.0382 30.2475L29.5722 29.92C29.3821 30.2066 29.1685 30.4765 28.9337 30.727L29.5758 32.0993L28.7806 32.7398L27.5994 31.8017C27.3054 31.9783 26.9971 32.1296 26.6779 32.254L26.6672 33.772L25.6758 34L25.014 32.643C25.1842 32.643 24.8439 32.6566 25.014 32.643C24.8439 32.643 24.1615 32.6566 23.9913 32.643L23.3296 34L22.3382 33.772L22.3275 32.254C22.3275 32.254 21.6998 31.9787 21.406 31.8017L20.2239 32.7389L19.426 32.0993L20.0725 30.727C19.838 30.4765 19.6247 30.2066 19.4349 29.92L17.9672 30.2466L17.5257 29.3212L18.6899 28.3667C18.5868 28.0383 18.5108 27.7018 18.4624 27.3608L17 27.0116V25.9848L18.4597 25.6365C18.5072 25.2951 18.583 24.9583 18.6863 24.6296L17.5221 23.6743L17.9636 22.7498L19.4304 23.0791C19.6204 22.7924 19.8337 22.5222 20.0681 22.2712L19.4269 20.8998L20.2239 20.2566L21.4033 21.1938C21.4033 21.1938 22.0057 20.8689 22.3248 20.746L22.3355 19.2289L23.3269 19L23.9887 20.3624C24.1588 20.3479 24.8403 20.3624 25.0113 20.3624C24.8412 20.3479 25.1824 20.3624 25.0113 20.3624L25.6731 19L26.6645 19.2316L26.6761 20.7487C26.9948 20.8718 27.3027 21.0216 27.5967 21.1965L28.7788 20.2593L29.574 20.8998L28.9275 22.2694C29.1618 22.5201 29.375 22.79 29.5651 23.0764L31.0319 22.7498L31.4734 23.6743L30.3093 24.6296C30.4131 24.9582 30.4895 25.295 30.5376 25.6365L32 25.9848ZM24.5 27C24.7761 27 25 26.7761 25 26.5C25 26.2239 24.7761 26 24.5 26C24.2239 26 24 26.2239 24 26.5C24 26.7761 24.2239 27 24.5 27Z" fill="#333333"/>
<path d="M5 35V1H24V16.792L20.2142 17.6943L16.9515 20.3274C16.6029 19.9101 16.294 19.6645 15.9147 19.2759V19.265C15.6403 18.9015 15.4913 18.4546 15.4913 17.9946C15.4913 17.5345 15.6403 17.0876 15.9147 16.7241C16.7981 15.8221 17.5997 14.8392 18.3095 13.7877C19.0205 12.7376 19.6377 11.6235 20.1534 10.4592C21.2022 8.12371 21.8316 5.6127 22.0113 3.04719H7.01691C7.10245 4.32384 7.30108 5.58982 7.61034 6.8294C7.91495 8.07567 8.32995 9.29066 8.85016 10.4592C9.36587 11.627 9.98298 12.7446 10.694 13.7985C11.404 14.85 12.2056 15.8328 13.0889 16.735C13.3633 17.0985 13.5122 17.5454 13.5122 18.0054C13.5122 18.4655 13.3633 18.9124 13.0889 19.2759C9.51781 22.9244 7.35545 27.7799 7.00279 32.9419H17.2794L19.847 35H5Z" fill="#333333"/>
</svg>
