<svg width="36" height="36" viewBox="0 0 36 36" fill="none" xmlns="http://www.w3.org/2000/svg">
<path fill-rule="evenodd" clip-rule="evenodd" d="M5 1V35H21.6971L21.5257 34.0071C21.378 33.9468 21.2321 33.882 21.0882 33.8128C20.6945 33.8708 20.2937 33.8791 19.8953 33.8365C19.1676 33.7587 18.4679 33.5132 17.8511 33.1191C17.7594 33.063 17.67 33.0039 17.583 32.9419H7.00279C7.35545 27.7799 9.51781 22.9244 13.0889 19.2759C13.3633 18.9124 13.5122 18.4655 13.5122 18.0054C13.5122 17.5454 13.3633 17.0985 13.0889 16.735C12.2056 15.8328 11.404 14.85 10.694 13.7985C9.98298 12.7446 9.36587 11.627 8.85016 10.4592C8.32995 9.29066 7.91495 8.07567 7.61034 6.8294C7.30108 5.58982 7.10245 4.32384 7.01691 3.04719H22.0113C21.8316 5.6127 21.2022 8.12371 20.1534 10.4592C19.6377 11.6235 19.0205 12.7376 18.3095 13.7877C17.5997 14.8392 16.7981 15.8221 15.9147 16.7241C15.6403 17.0876 15.4913 17.5345 15.4913 17.9946C15.4913 18.4546 15.6403 18.9015 15.9147 19.265V19.2759C16.4659 19.8406 16.9854 20.4366 17.4709 21.0609C17.5983 20.633 17.7859 20.2238 18.0292 19.8461C18.155 19.6423 18.2963 19.4476 18.4524 19.2642L19.6394 17.8685L21.5006 19.1896C21.6289 19.136 21.7587 19.0856 21.8898 19.0387C22.2026 18.6176 22.5825 18.2478 23.0162 17.9449C23.3241 17.7299 23.6543 17.552 24 17.4137V1H5Z" fill="#333333"/>
<path fill-rule="evenodd" clip-rule="evenodd" d="M19.5111 29.8299C19.1383 29.2532 18.8685 28.6159 18.7134 27.947C18.3161 27.7697 17.9664 27.501 17.6927 27.1628C17.4191 26.8246 17.2293 26.4266 17.1389 26.001C17.1051 25.8597 17.0823 25.7158 17.0706 25.5709L18.6996 25.2927C18.8476 24.6315 19.107 24.0001 19.4665 23.4257C19.3046 23.0171 19.2432 22.5755 19.2875 22.1382C19.3318 21.7009 19.4805 21.2807 19.7212 20.9128C19.7966 20.7887 19.8817 20.6706 19.9758 20.56L21.3383 21.5271C21.9075 21.159 22.5356 20.891 23.1952 20.7345C23.4105 20.273 23.7437 19.8763 24.1612 19.5847C24.5788 19.2931 25.0659 19.1169 25.5733 19.0738L25.8607 20.7217C26.5212 20.8644 27.1532 21.1166 27.7305 21.4679C28.2094 21.2961 28.725 21.253 29.2256 21.3433C29.7263 21.4335 30.1945 21.6538 30.5832 21.982L29.631 23.3345C29.9954 23.9052 30.2607 24.5334 30.4158 25.1925C30.8167 25.3682 31.1697 25.6373 31.4455 25.9772C31.7213 26.3171 31.9118 26.718 32.0012 27.1465C32.0352 27.2882 32.0584 27.4323 32.0706 27.5775L30.4534 27.8549C30.3088 28.5243 30.0515 29.1642 29.6924 29.7474C29.8454 30.1539 29.9004 30.591 29.853 31.0227C29.8057 31.4545 29.6573 31.869 29.4199 32.2327C29.3441 32.3574 29.2586 32.4759 29.1643 32.5873L27.8405 31.644C27.2555 32.0255 26.6078 32.3007 25.9271 32.4566C25.749 32.8474 25.4818 33.191 25.147 33.4598C24.8121 33.7286 24.4188 33.9151 23.9988 34.0044C23.8569 34.0389 23.7124 34.0621 23.5668 34.0738L23.2893 32.4665C22.6078 32.3207 21.9572 32.0565 21.367 31.6858C20.9659 31.838 20.5345 31.8935 20.1079 31.8479C19.6813 31.8022 19.2715 31.6568 18.9116 31.4232C18.7865 31.348 18.6679 31.2622 18.5569 31.1674L19.5111 29.8299ZM24.7755 27.41C24.6101 27.4505 24.4364 27.4411 24.2763 27.383C24.0617 27.3048 23.887 27.1447 23.7904 26.9377C23.6937 26.7308 23.6832 26.494 23.7611 26.2793C23.8193 26.1193 23.9237 25.9801 24.061 25.8794C24.1983 25.7786 24.3624 25.721 24.5325 25.7135C24.7026 25.706 24.8711 25.7492 25.0167 25.8375C25.1623 25.9258 25.2785 26.0553 25.3505 26.2096C25.4225 26.3639 25.4472 26.5359 25.4214 26.7042C25.3955 26.8725 25.3204 27.0294 25.2054 27.155C25.0905 27.2806 24.9408 27.3694 24.7755 27.41Z" fill="#333333"/>
</svg>
