<svg width="36" height="36" viewBox="0 0 36 36" fill="none" xmlns="http://www.w3.org/2000/svg">
<path d="M6.03704 16.7407H3.57251C4.1749 9.74748 9.74748 4.1749 16.7407 3.57251V6.03704H19.2593V3.57251C26.2525 4.1749 31.8251 9.74748 32.4275 16.7407H29.963V19.2593H32.4275C32.2938 20.8113 31.9153 22.2934 31.3308 23.6667H34.0327C34.6591 21.8943 35 19.9869 35 18C35 8.61116 27.3888 1 18 1C8.61116 1 1 8.61116 1 18C1 27.3888 8.61116 35 18 35C20.4666 35 22.8105 34.4747 24.9259 33.5298V30.721C23.2165 31.6537 21.2982 32.2519 19.2593 32.4275V29.963H16.7407V32.4275C9.74748 31.8251 4.1749 26.2525 3.57251 19.2593H6.03704V16.7407Z" fill="#333333"/>
<path d="M29.3589 32.291H32.7235V33.7409H27.4442V33.1432C27.4442 32.7374 27.5125 32.374 27.649 32.053C27.7855 31.7284 27.957 31.4388 28.1636 31.1842C28.3702 30.926 28.5953 30.6991 28.8387 30.5036C29.0859 30.3044 29.3202 30.1254 29.5415 29.9668C29.774 29.8008 29.9769 29.6421 30.1503 29.4909C30.3274 29.3396 30.4749 29.1902 30.593 29.0426C30.7147 28.8914 30.8051 28.7401 30.8641 28.5889C30.9232 28.4339 30.9527 28.2697 30.9527 28.0963C30.9527 27.7569 30.8568 27.5005 30.6649 27.3271C30.4731 27.1537 30.1798 27.067 29.785 27.067C29.1025 27.067 28.4495 27.3382 27.826 27.8805V26.3421C28.5159 25.8957 29.2944 25.6725 30.1613 25.6725C30.5635 25.6725 30.9232 25.726 31.2404 25.833C31.5614 25.9363 31.8326 26.0857 32.0539 26.2812C32.2753 26.4768 32.4431 26.7147 32.5575 26.9951C32.6756 27.2718 32.7346 27.5817 32.7346 27.9248C32.7346 28.29 32.6774 28.6147 32.563 28.8988C32.4524 29.1828 32.3029 29.4411 32.1148 29.6735C31.9303 29.9059 31.7163 30.1199 31.4729 30.3154C31.2294 30.5073 30.9767 30.6936 30.7147 30.8743C30.5376 30.9998 30.3661 31.1252 30.2001 31.2506C30.0377 31.3724 29.8939 31.4941 29.7684 31.6159C29.643 31.7339 29.5434 31.8501 29.4696 31.9645C29.3958 32.0789 29.3589 32.1877 29.3589 32.291Z" fill="#333333"/>
<path d="M28.7038 18.0003C28.7038 23.9118 23.9116 28.704 18.0001 28.704C14.1696 28.704 10.8091 26.6919 8.91778 23.6669L18.6297 18.0003L22.4075 8.24321C26.1205 9.92305 28.7038 13.66 28.7038 18.0003Z" fill="#333333"/>
</svg>
