<svg width="36" height="36" viewBox="0 0 36 36" fill="none" xmlns="http://www.w3.org/2000/svg">
<path d="M23.5061 33.7061C22.1442 33.701 20.8209 33.2529 19.7361 32.4294C18.6513 31.6059 17.864 30.4517 17.4931 29.1412C17.1221 27.8308 17.1877 26.4352 17.68 25.1653C18.1722 23.8954 19.0643 22.8202 20.2215 22.1021V18.2539H26.7796V22.1021C27.9361 22.8197 28.8278 23.8939 29.3202 25.1627C29.8127 26.4315 29.8792 27.8261 29.5097 29.136C29.1401 30.4459 28.3547 31.6001 27.2717 32.4244C26.1888 33.2488 24.8671 33.6987 23.5061 33.7061Z" fill="#333333"/>
<path d="M5 35V1H24V16.2539H18.2215V21.0862C18.0717 21.2114 17.9266 21.3418 17.7864 21.477C17.2125 20.7004 16.5872 19.9649 15.9147 19.2759V19.265C15.6403 18.9015 15.4913 18.4546 15.4913 17.9946C15.4913 17.5345 15.6403 17.0876 15.9147 16.7241C16.7981 15.8221 17.5997 14.8392 18.3095 13.7877C19.0205 12.7376 19.6377 11.6235 20.1534 10.4592C21.2022 8.12371 21.8316 5.6127 22.0113 3.04719H7.01691C7.10245 4.32384 7.30108 5.58982 7.61034 6.8294C7.91495 8.07567 8.32995 9.29066 8.85016 10.4592C9.36587 11.627 9.98298 12.7446 10.694 13.7985C11.404 14.85 12.2056 15.8328 13.0889 16.735C13.3633 17.0985 13.5122 17.5454 13.5122 18.0054C13.5122 18.4655 13.3633 18.9124 13.0889 19.2759C9.51781 22.9244 7.35545 27.7799 7.00279 32.9419H17.3569C17.7093 33.3367 18.1006 33.6989 18.5267 34.0223C19.0426 34.414 19.5994 34.7413 20.1848 35H5Z" fill="#333333"/>
</svg>
