<svg width="36" height="36" viewBox="0 0 36 36" fill="none" xmlns="http://www.w3.org/2000/svg">
<path d="M25.3269 10.6903V3.5H10.6732V10.6903C8.64666 12.2251 7.15328 14.3576 6.40383 16.7868C5.65439 19.216 5.68673 21.8192 6.4963 24.2291C7.30587 26.6389 8.85177 28.7336 10.9158 30.2176C12.9799 31.7017 15.4579 32.5 18 32.5C20.5422 32.5 23.0202 31.7017 25.0843 30.2176C27.1483 28.7336 28.6942 26.6389 29.5038 24.2291C30.3134 21.8192 30.3457 19.216 29.5963 16.7868C28.8468 14.3576 27.3534 12.2251 25.3269 10.6903ZM18.0099 30.5319C15.8061 30.5237 13.665 29.7986 11.9097 28.4661C10.1545 27.1336 8.88056 25.2661 8.28037 23.1456C7.68018 21.0252 7.78632 18.7671 8.58277 16.7123C9.37923 14.6575 10.8227 12.9177 12.6952 11.7557V5.52913H23.3067V11.7557C25.1779 12.9169 26.6208 14.6551 27.4176 16.7081C28.2144 18.7611 28.322 21.0176 27.7241 23.1371C27.1262 25.2566 25.8552 27.1242 24.1029 28.4581C22.3506 29.792 20.2121 30.5199 18.0099 30.5319Z" fill="#333333"/>
</svg>
