<svg width="36" height="36" viewBox="0 0 36 36" fill="none" xmlns="http://www.w3.org/2000/svg">
<path d="M25.411 10.3613H25.4003V3.5H10.5891V10.3542C8.52733 11.9081 7.00618 14.0708 6.24073 16.5366C5.47529 19.0023 5.50427 21.6462 6.32359 24.0945C7.14291 26.5429 8.71111 28.6717 10.8064 30.1801C12.9018 31.6884 15.4183 32.5 18.0001 32.5C20.5818 32.5 23.0983 31.6884 25.1937 30.1801C27.289 28.6717 28.8572 26.5429 29.6765 24.0945C30.4958 21.6462 30.5248 19.0023 29.7594 16.5366C28.9939 14.0708 27.4728 11.9081 25.411 10.3542V10.3613ZM17.9965 30.4778C15.8393 30.4785 13.7364 29.8012 11.9853 28.5414C10.2341 27.2817 8.92324 25.5033 8.23805 23.4578C7.55287 21.4124 7.52803 19.2032 8.16704 17.1428C8.80605 15.0825 10.0766 13.2751 11.799 11.9763L12.6127 11.3767V5.5236H23.3767V10.3827L23.3981 11.3767L24.1904 11.9763C25.9126 13.2749 27.183 15.082 27.8221 17.142C28.4612 19.202 28.4366 21.4108 27.7519 23.4562C27.0672 25.5015 25.7569 27.2798 24.0063 28.5399C22.2557 29.7999 20.1534 30.4778 17.9965 30.4778Z" fill="#333333"/>
<path d="M12.3719 20.0636C11.9436 19.8852 11.4654 19.812 11.0496 19.5943C10.6927 19.4016 10.6231 18.9233 11.0103 18.702C11.3369 18.5236 11.9204 18.5361 12.1542 18.8627C12.2374 19.0333 12.3008 19.2129 12.3433 19.398L13.0482 19.3641C13.0803 19.3641 13.2266 19.3784 13.2552 19.3534C13.2637 18.9133 13.1093 18.4856 12.8216 18.1524C12.2291 17.535 10.9728 17.4975 10.3429 18.0775C9.62912 18.7288 9.74154 20.0404 10.5642 20.5526C10.955 20.797 11.4207 20.888 11.8508 21.0361C12.2077 21.1593 12.5307 21.3377 12.4718 21.7803C12.4129 22.2228 11.9561 22.4352 11.5421 22.4209C11.3798 22.4185 11.2213 22.3718 11.0836 22.286C10.9458 22.2001 10.8341 22.0784 10.7605 21.9337C10.6856 21.7552 10.63 21.5691 10.5945 21.3788L10.3572 21.4073L9.71299 21.4841C9.77009 22.0569 9.94497 22.6725 10.4268 23.0383C10.9086 23.4042 11.617 23.447 12.1916 23.3114C12.5306 23.227 12.8321 23.0328 13.049 22.7591C13.266 22.4853 13.3862 22.1474 13.3908 21.7981C13.4176 21.0272 13.0946 20.3741 12.3719 20.0636Z" fill="#333333"/>
<path d="M13.8208 18.709H15.1681V23.2862H16.0782V18.709H17.4165V17.7722H13.8208V18.709Z" fill="#333333"/>
<path d="M19.9112 17.6831C19.5086 17.6715 19.1116 17.7803 18.771 17.9953C18.4327 18.2331 18.1686 18.5615 18.009 18.9429C17.7974 19.4561 17.6976 20.0084 17.7163 20.5632C17.7163 21.4673 17.9323 22.1782 18.3641 22.6957C18.5532 22.9202 18.7914 23.0983 19.0603 23.2161C19.3292 23.334 19.6215 23.3886 19.9148 23.3756C20.2077 23.3884 20.4996 23.333 20.7675 23.2138C21.0353 23.0945 21.2719 22.9147 21.4584 22.6885C21.8867 22.171 22.1008 21.4513 22.1008 20.5293C22.1008 19.6073 21.8986 18.9054 21.4941 18.4236C21.3054 18.1863 21.0642 17.996 20.7896 17.8675C20.515 17.739 20.2143 17.6759 19.9112 17.6831ZM20.8142 21.9515C20.7147 22.0962 20.5814 22.2146 20.426 22.2963C20.2706 22.3781 20.0976 22.4208 19.9219 22.4209C19.7462 22.4194 19.5734 22.3756 19.4181 22.2933C19.2628 22.211 19.1296 22.0926 19.0297 21.948C18.7918 21.6315 18.6728 21.1557 18.6728 20.5204C18.6728 19.8851 18.7918 19.4092 19.0297 19.0928C19.1327 18.9474 19.2695 18.8294 19.4284 18.7488C19.5873 18.6683 19.7635 18.6277 19.9416 18.6306C20.1182 18.6274 20.2929 18.6673 20.4506 18.7469C20.6082 18.8265 20.7441 18.9434 20.8463 19.0874C21.0783 19.3926 21.1925 19.8637 21.1925 20.5008C21.1925 21.1378 21.0515 21.6375 20.8142 21.9515Z" fill="#333333"/>
<path d="M26.2694 19.1589C26.2553 18.9356 26.1947 18.7177 26.0914 18.5192C25.9881 18.3206 25.8445 18.1459 25.6698 18.0061C25.3754 17.7938 25.0131 17.7884 24.6634 17.7777C24.1494 17.7634 23.6337 17.7777 23.118 17.7777C23.0841 17.7777 22.8182 17.7581 22.8182 17.7938V23.2917C22.9128 23.2917 23.7283 23.2917 23.7283 23.2917V21.2146C23.7283 21.2325 24.9989 21.1718 25.0363 21.1664C25.2313 21.1486 25.4197 21.0865 25.587 20.9847C25.7544 20.8829 25.8962 20.7443 26.0017 20.5793C26.2505 20.1503 26.345 19.649 26.2694 19.1589ZM25.097 20.0957C24.8686 20.292 24.5028 20.2742 24.2226 20.2742C24.1726 20.2742 23.7247 20.2742 23.7247 20.2742V18.7092C23.9389 18.7092 24.1512 18.7092 24.3636 18.7092C24.6919 18.7092 25.0292 18.7092 25.2273 19.0215C25.3299 19.189 25.3729 19.3863 25.3492 19.5813C25.3256 19.7763 25.2367 19.9576 25.097 20.0957Z" fill="#333333"/>
</svg>
