<svg width="36" height="36" viewBox="0 0 36 36" fill="none" xmlns="http://www.w3.org/2000/svg">
<path d="M25.3346 10.6742V3.5H10.6601V10.6742C8.63307 12.2114 7.13986 14.3462 6.39105 16.7774C5.64224 19.2086 5.67564 21.8136 6.48653 24.2248C7.29742 26.6361 8.84488 28.7319 10.9106 30.2166C12.9763 31.7013 15.4561 32.5 18 32.5C20.5439 32.5 23.0237 31.7013 25.0894 30.2166C27.1551 28.7319 28.7026 26.6361 29.5135 24.2248C30.3244 21.8136 30.3578 19.2086 29.609 16.7774C28.8602 14.3462 27.367 12.2114 25.34 10.6742H25.3346ZM17.9947 30.4732C15.7916 30.4739 13.6485 29.7557 11.8907 28.4276C10.133 27.0996 8.85653 25.2343 8.25525 23.1149C7.65397 20.9955 7.76067 18.7377 8.55917 16.6845C9.35766 14.6312 10.8043 12.8946 12.6795 11.7383V5.52303H23.3152V11.7383C25.1907 12.8949 26.6376 14.6319 27.436 16.6857C28.2344 18.7395 28.3407 20.9978 27.7387 23.1174C27.1367 25.2371 25.8594 27.1024 24.1007 28.4301C22.3421 29.7577 20.1982 30.475 17.9947 30.4732ZM25.5681 17.6095L25.0583 19.3919C24.5897 17.7458 23.5411 16.3249 22.1063 15.3918C20.6715 14.4586 18.9475 14.0762 17.2528 14.3152C15.558 14.5542 14.007 15.3985 12.8862 16.692C11.7655 17.9856 11.1507 19.6411 11.1556 21.3526H10.1503V22.365H13.1804V21.3526H12.1733C12.1735 19.8638 12.7205 18.427 13.7103 17.3149C14.7001 16.2029 16.0638 15.493 17.5425 15.3201C19.0212 15.1473 20.5119 15.5235 21.7315 16.3773C22.9511 17.2311 23.8146 18.5031 24.1582 19.9516L22.5024 18.4098L21.8126 19.1495L25.2615 22.3579L26.5413 17.9019L25.5681 17.6095ZM25.5681 17.6095L25.0583 19.3919C24.5897 17.7458 23.5411 16.3249 22.1063 15.3918C20.6715 14.4586 18.9475 14.0762 17.2528 14.3152C15.558 14.5542 14.007 15.3985 12.8862 16.692C11.7655 17.9856 11.1507 19.6411 11.1556 21.3526H10.1503V22.365H13.1804V21.3526H12.1733C12.1735 19.8638 12.7205 18.427 13.7103 17.3149C14.7001 16.2029 16.0638 15.493 17.5425 15.3201C19.0212 15.1473 20.5119 15.5235 21.7315 16.3773C22.9511 17.2311 23.8146 18.5031 24.1582 19.9516L22.5024 18.4098L21.8126 19.1495L25.2615 22.3579L26.5413 17.9019L25.5681 17.6095ZM25.5681 17.6095L25.0583 19.3919C24.5897 17.7458 23.5411 16.3249 22.1063 15.3918C20.6715 14.4586 18.9475 14.0762 17.2528 14.3152C15.558 14.5542 14.007 15.3985 12.8862 16.692C11.7655 17.9856 11.1507 19.6411 11.1556 21.3526H10.1503V22.365H13.1804V21.3526H12.1733C12.1735 19.8638 12.7205 18.427 13.7103 17.3149C14.7001 16.2029 16.0638 15.493 17.5425 15.3201C19.0212 15.1473 20.5119 15.5235 21.7315 16.3773C22.9511 17.2311 23.8146 18.5031 24.1582 19.9516L22.5024 18.4098L21.8126 19.1495L25.2615 22.3579L26.5413 17.9019L25.5681 17.6095Z" fill="#333333"/>
</svg>
