<svg width="36" height="36" viewBox="0 0 36 36" fill="none" xmlns="http://www.w3.org/2000/svg">
<path d="M25.3294 10.6733V3.5H10.6617V10.6733C8.63434 12.2102 7.14074 14.3449 6.3916 16.7762C5.64246 19.2075 5.67559 21.8126 6.48633 24.224C7.29708 26.6355 8.84449 28.7315 10.9103 30.2163C12.976 31.7012 15.4559 32.5 18 32.5C20.5441 32.5 23.0239 31.7012 25.0897 30.2163C27.1555 28.7315 28.7029 26.6355 29.5136 24.224C30.3244 21.8126 30.3575 19.2075 29.6084 16.7762C28.8592 14.3449 27.3656 12.2102 25.3383 10.6733H25.3294ZM17.992 30.4752C15.7899 30.4746 13.6482 29.7559 11.8916 28.428C10.135 27.1001 8.85943 25.2355 8.2584 23.1171C7.65737 20.9987 7.76368 18.742 8.56119 16.6895C9.35871 14.637 10.8039 12.9005 12.6775 11.7437V5.52301H23.3046V11.7365C25.1781 12.8933 26.6232 14.6296 27.4208 16.6819C28.2183 18.7343 28.3248 20.9908 27.724 23.1091C27.1232 25.2274 25.8479 27.092 24.0916 28.42C22.3353 29.7481 20.1938 30.4671 17.992 30.4681V30.4752Z" fill="#333333"/>
<path d="M16.7466 9.57813C17.0784 9.24664 17.5282 9.06044 17.9973 9.06044C18.4652 9.06185 18.9135 9.24874 19.2439 9.58013C19.5743 9.91152 19.7598 10.3604 19.7598 10.8283C19.7601 10.9287 19.7523 11.0289 19.7366 11.128L19.1069 22.2046C19.0873 22.4881 18.9608 22.7537 18.753 22.9475C18.5453 23.1414 18.2717 23.2493 17.9875 23.2493C17.7033 23.2493 17.4297 23.1414 17.2219 22.9475C17.0141 22.7537 16.8876 22.4881 16.868 22.2046L16.2276 10.9282V10.8283C16.2281 10.3593 16.4147 9.90963 16.7466 9.57813Z" fill="#333333"/>
<path d="M18.8103 26.397C19.2485 26.8352 19.2485 27.5457 18.8103 27.9839C18.3721 28.4221 17.6616 28.4221 17.2234 27.9839C16.7852 27.5457 16.7852 26.8352 17.2234 26.397C17.6616 25.9588 18.3721 25.9588 18.8103 26.397Z" fill="#333333"/>
</svg>
