<svg width="36" height="36" viewBox="0 0 36 36" fill="none" xmlns="http://www.w3.org/2000/svg">
<path d="M26.4853 20.5079C24.608 21.3055 23.8692 21.0593 24.0637 21.0593C24.4849 21.0593 24.7204 20.5239 24.7204 20.5239C24.1851 20.0064 23.8282 20.0546 23.2661 18.975C22.9395 18.3504 22.2507 17.2137 20.9463 16.9103C19.9362 16.6748 16.7688 16.6052 16.1121 16.8158C15.1602 17.0968 14.3483 17.7247 13.8369 18.5753C13.4632 19.1837 12.9155 19.6661 12.2648 19.96C12.3665 20.1902 12.511 20.5114 12.511 20.5114C12.5342 20.6899 12.6163 20.6399 12.3575 20.4989C10.5481 19.5139 9.27218 20.5114 9.27218 20.5114C9.00807 21.1217 9.82358 21.889 10.5517 21.8605C13.0035 21.7659 14.0474 22.635 14.0474 22.635C13.9779 23.9715 13.1088 23.8074 13.273 24.3713H14.8683C15.2252 23.9251 15.4037 22.9169 15.4037 22.9169C18.9726 23.6093 21.4102 22.8687 21.4102 22.8687C21.669 24.0072 20.9052 23.6914 21.0194 24.3713H22.6147C23.1269 23.413 22.588 22.7652 22.911 22.494C23.9335 21.6678 25.9624 21.6374 26.7244 20.606C26.8529 20.4204 26.7226 20.4061 26.4853 20.5079Z" fill="#333333"/>
<path d="M25.411 10.3613H25.4003V3.5H10.5891V10.3542C8.52733 11.9081 7.00618 14.0708 6.24073 16.5366C5.47529 19.0023 5.50427 21.6462 6.32359 24.0945C7.14291 26.5429 8.71111 28.6717 10.8064 30.1801C12.9018 31.6884 15.4183 32.5 18.0001 32.5C20.5818 32.5 23.0983 31.6884 25.1937 30.1801C27.289 28.6717 28.8572 26.5429 29.6765 24.0945C30.4958 21.6462 30.5248 19.0023 29.7594 16.5366C28.9939 14.0708 27.4728 11.9081 25.411 10.3542V10.3613ZM17.9965 30.4778C15.8393 30.4785 13.7364 29.8012 11.9853 28.5414C10.2341 27.2817 8.92324 25.5033 8.23805 23.4578C7.55287 21.4124 7.52803 19.2032 8.16704 17.1428C8.80605 15.0825 10.0766 13.2751 11.799 11.9763L12.6127 11.3767V5.5236H23.3767V10.3827L23.3981 11.3767L24.1904 11.9763C25.9126 13.2749 27.183 15.082 27.8221 17.142C28.4612 19.202 28.4366 21.4108 27.7519 23.4562C27.0672 25.5015 25.7569 27.2798 24.0063 28.5399C22.2557 29.7999 20.1534 30.4778 17.9965 30.4778Z" fill="#333333"/>
</svg>
