<svg width="36" height="36" viewBox="0 0 36 36" fill="none" xmlns="http://www.w3.org/2000/svg">
<path d="M25.3128 19.5245C26.4995 18.8 26.1176 17.3493 25.5252 16.3803C25.4376 16.214 25.2943 16.0838 25.1204 16.0127C24.9464 15.9416 24.753 15.934 24.574 15.9913C24.485 16.0332 24.4066 16.0949 24.3447 16.1715C24.2829 16.2482 24.2393 16.3379 24.2171 16.4338C24.0698 17.0493 24.0534 17.6889 24.1689 18.3111C24.1886 18.4378 23.9905 18.5538 23.8352 18.5217C23.3981 18.4324 23.0733 18.1558 22.6771 18.0006C22.1494 17.8107 21.5906 17.7223 21.03 17.7401C19.7434 17.7401 18.5675 18.2236 17.4254 18.9606C17.0685 19.189 16.601 19.3514 16.228 19.0624C15.7176 18.668 15.4339 18.1326 14.8843 17.7454C14.804 17.6958 14.735 17.6301 14.6815 17.5523C14.6281 17.4746 14.5914 17.3866 14.5738 17.2939C14.5738 17.2475 14.5738 17.1476 14.6113 17.1298C15.5553 16.5427 16.6242 16.5088 17.5717 15.9913C18.1749 15.6522 18.7102 15.2507 19.0439 14.6279C19.126 14.4727 19.1421 14.1925 18.969 14.2157C17.9429 14.3495 17.0578 14.9402 16.0335 15.0276C15.9323 15.0354 15.832 15.0521 15.7337 15.0776C15.8026 14.9576 15.884 14.8451 15.9764 14.7421C16.4136 14.2567 16.9186 13.8927 17.2005 13.3003C17.2559 13.1843 17.2255 12.9434 17.1791 12.9434C15.3072 13.1682 13.8386 14.7421 13.032 16.4213C12.9851 16.4908 12.9242 16.5497 12.8532 16.5943C12.7823 16.6388 12.7027 16.668 12.6198 16.6801C12.1652 16.8159 11.7419 17.0404 11.3744 17.3405C11.0069 17.6407 10.7024 18.0106 10.4784 18.4289C10.4124 18.5556 10.2857 18.6823 10.2036 18.8197C9.96805 19.2176 9.63614 19.8904 10.1626 20.0974C10.4088 20.1937 10.589 20.4542 10.7675 20.6202C11.2903 21.127 12.0434 21.0788 12.7661 20.9539C12.9196 20.9271 13.0623 21.0842 13.123 21.2483C13.4924 22.2762 13.9492 23.2844 14.829 23.9554C15.0467 24.5728 15.3839 25.1831 15.5303 25.8273C15.2001 25.9415 14.3079 26.2859 14.5988 26.848C15.2501 27.1175 15.8604 26.8802 16.5439 26.8623C16.9221 27.2602 17.3532 27.6042 17.8251 27.8848C17.9589 27.9882 18.1126 28.0629 18.2765 28.1043C18.4405 28.1458 18.6112 28.1531 18.778 28.1257C18.8126 28.1226 18.846 28.1112 18.8753 28.0925C18.9046 28.0738 18.929 28.0484 18.9465 28.0183C18.964 27.9883 18.974 27.9545 18.9757 27.9198C18.9775 27.8851 18.9709 27.8504 18.9565 27.8188C18.778 27.4619 18.2944 27.0765 18.1249 26.7124C18.9333 26.4555 20.7463 26.5215 21.0782 26.2074C21.5922 25.7202 21.9223 24.2445 22.8788 23.652C23.3802 23.3415 23.9495 23.3273 24.4687 23.0703C24.8863 22.8597 25.0701 22.435 25.3182 22.0549C25.7357 21.4089 25.6429 20.5774 25.2771 19.9135C25.2147 19.794 25.2075 19.5906 25.3128 19.5245ZM20.5054 23.5771C20.2217 24.1481 19.7577 25.1653 19.6132 25.2402C19.4169 25.3402 17.9697 25.5596 17.338 25.5828C17.1307 25.3044 16.9958 24.9788 16.9454 24.6353C16.8847 24.3783 16.7562 24.1606 16.7312 23.909C16.6843 23.7118 16.6993 23.505 16.7741 23.3166C16.915 23.0542 17.2327 23.2309 17.4629 23.2862C17.9374 23.4194 18.434 23.4546 18.9226 23.3897C19.4052 23.2821 19.8985 23.23 20.393 23.2345C20.5661 23.2452 20.5661 23.4557 20.5054 23.5771Z" fill="#333333"/>
<path d="M25.411 10.3613H25.4003V3.5H10.5891V10.3542C8.52733 11.9081 7.00618 14.0708 6.24073 16.5366C5.47529 19.0023 5.50427 21.6462 6.32359 24.0945C7.14291 26.5429 8.71111 28.6717 10.8064 30.1801C12.9018 31.6884 15.4183 32.5 18.0001 32.5C20.5818 32.5 23.0983 31.6884 25.1937 30.1801C27.289 28.6717 28.8572 26.5429 29.6765 24.0945C30.4958 21.6462 30.5248 19.0023 29.7594 16.5366C28.9939 14.0708 27.4728 11.9081 25.411 10.3542V10.3613ZM17.9965 30.4778C15.8393 30.4785 13.7364 29.8012 11.9853 28.5414C10.2341 27.2817 8.92324 25.5033 8.23805 23.4578C7.55287 21.4124 7.52803 19.2032 8.16704 17.1428C8.80605 15.0825 10.0766 13.2751 11.799 11.9763L12.6127 11.3767V5.5236H23.3767V10.3827L23.3981 11.3767L24.1904 11.9763C25.9126 13.2749 27.183 15.082 27.8221 17.142C28.4612 19.202 28.4366 21.4108 27.7519 23.4562C27.0672 25.5015 25.7569 27.2798 24.0063 28.5399C22.2557 29.7999 20.1534 30.4778 17.9965 30.4778Z" fill="#333333"/>
</svg>
