<svg width="36" height="36" viewBox="0 0 36 36" fill="none" xmlns="http://www.w3.org/2000/svg">
<path d="M18.0032 26.991C20.316 26.9905 22.5703 26.2634 24.4475 24.9122C26.3247 23.5611 27.7299 21.6542 28.4645 19.4611C29.1991 17.268 29.2261 14.8995 28.5415 12.6902C27.857 10.481 26.4956 8.54263 24.6496 7.14911H24.64V1H11.3663V7.14271H11.3567C9.50809 8.53544 8.14422 10.4742 7.45802 12.6846C6.77183 14.8951 6.79805 17.2654 7.53299 19.4601C8.26793 21.6548 9.67437 23.5629 11.5533 24.9144C13.4323 26.2659 15.6886 26.9923 18.0032 26.991ZM12.441 8.59962L13.183 8.05908V2.81355H22.8265V7.14911L22.8457 8.05908L23.5557 8.59642C24.81 9.54241 25.8018 10.7932 26.437 12.23C27.0722 13.6669 27.3298 15.2422 27.1853 16.8066C27.0409 18.3709 26.4991 19.8724 25.6115 21.1686C24.7238 22.4648 23.5197 23.5128 22.1134 24.213C20.7071 24.9133 19.1452 25.2427 17.5759 25.1699C16.0066 25.0971 14.4819 24.6246 13.1464 23.7971C11.811 22.9697 10.7091 21.8148 9.94523 20.442C9.18139 19.0692 8.78095 17.524 8.7819 15.953C8.77704 14.5274 9.10535 13.1205 9.74064 11.8444C10.3759 10.5683 11.3006 9.45823 12.441 8.60282V8.59962Z" fill="#333333"/>
<path d="M8.8651 29.2684C8.54763 29.2531 8.23244 29.3292 7.95691 29.4877C7.68139 29.6461 7.4571 29.8803 7.31063 30.1624H7.28824V29.4043H5.98645V34.5843H7.34741V31.6097C7.34741 30.8229 7.81439 30.415 8.41731 30.415C9.2809 30.415 9.30169 31.0547 9.30169 31.4354V34.5843H10.6626V30.9972C10.6626 29.8601 9.87422 29.2684 8.8651 29.2684Z" fill="#333333"/>
<path d="M10.9761 34.9999H12.1132L14.0003 28.6109H12.8633L10.9761 34.9999Z" fill="#333333"/>
<path d="M19.9127 29.2683C19.0859 29.2683 18.7069 29.8409 18.5326 30.0935C18.1823 29.5402 17.8417 29.2683 17.0933 29.2683C16.7875 29.2542 16.4846 29.3318 16.2233 29.4911C15.962 29.6504 15.7542 29.8841 15.6267 30.1623H15.606V29.4043H14.3026V34.5842H15.6635V31.4337C15.6635 30.8692 15.8682 30.423 16.5095 30.423C17.3251 30.423 17.3251 31.0355 17.3251 31.4721V34.5842H18.6861V31.4817C18.6861 30.8692 18.9292 30.423 19.6105 30.423C20.0087 30.423 20.3493 30.6757 20.3493 31.4433V34.5842H21.7103V30.9971C21.7119 29.8601 20.9234 29.2683 19.9127 29.2683Z" fill="#333333"/>
<path d="M24.1987 29.4041H22.8377V34.5761H24.1987V29.4041Z" fill="#333333"/>
<path d="M24.1987 27.3891H22.8377V28.6525H24.1987V27.3891Z" fill="#333333"/>
<path d="M28.2159 29.2683C27.8985 29.2533 27.5834 29.3295 27.3079 29.4879C27.0324 29.6463 26.8081 29.8804 26.6615 30.1623H26.6423V29.4043H25.3373V34.5842H26.6983V31.6096C26.6983 30.8228 27.1652 30.415 27.7682 30.415C28.6333 30.415 28.6525 31.0547 28.6525 31.4353V34.5842H30.0135V30.9971C30.0199 29.8601 29.2331 29.2683 28.2159 29.2683Z" fill="#333333"/>
</svg>
