<svg width="36" height="36" viewBox="0 0 36 36" fill="none" xmlns="http://www.w3.org/2000/svg">
<path fill-rule="evenodd" clip-rule="evenodd" d="M31.4296 15.6832L23.8739 24.718H7.91187V18.9829L1 16.4586L2.37827 11.282L9.60439 13.9207V15.3758H13.8366V13.4356H11.5394V11.7277H17.5786V13.4356H15.2883V15.3758H19.5222L20.9944 16.8549L29.9369 14.4894L33.5099 13.0548L34.9991 14.5919L34.0325 15.9838L33.0761 15.024L31.4296 15.6832ZM3.03583 15.3911L7.91186 17.1742V15.1043L3.53964 13.5124L3.03583 15.3911Z" fill="#333333"/>
<path d="M34.0325 18.1494C34.1607 18.1494 34.2836 18.2004 34.3742 18.291C34.4649 18.3817 34.5158 18.5046 34.5158 18.6328H34.5141C34.5489 19.446 34.6954 20.2506 34.9496 21.0238C34.9985 21.1695 35.0121 21.3246 34.9892 21.4766C34.9663 21.6285 34.9075 21.7727 34.8178 21.8975C34.7282 22.0222 34.6101 22.1238 34.4734 22.1939C34.3367 22.264 34.1852 22.3005 34.0316 22.3005C33.878 22.3005 33.7266 22.264 33.5899 22.1939C33.4532 22.1238 33.3351 22.0222 33.2454 21.8975C33.1557 21.7727 33.097 21.6285 33.0741 21.4766C33.0512 21.3246 33.0647 21.1695 33.1136 21.0238C33.3686 20.2508 33.5152 19.4461 33.5491 18.6328C33.5491 18.5046 33.6001 18.3817 33.6907 18.291C33.7813 18.2004 33.9043 18.1494 34.0325 18.1494Z" fill="#333333"/>
</svg>
