<svg width="36" height="36" viewBox="0 0 36 36" fill="none" xmlns="http://www.w3.org/2000/svg">
<path d="M25.3146 11.32V3.5H10.6855V11.32C8.74507 12.8417 7.32759 14.9308 6.63047 17.2961C5.93336 19.6615 5.99132 22.1853 6.79628 24.5162C7.60124 26.847 9.11313 28.8688 11.1213 30.2999C13.1295 31.7309 15.5341 32.5 18 32.5C20.4659 32.5 22.8705 31.7309 24.8787 30.2999C26.8869 28.8688 28.3988 26.847 29.2037 24.5162C30.0087 22.1853 30.0667 19.6615 29.3696 17.2961C28.6724 14.9308 27.255 12.8417 25.3146 11.32ZM18.0045 30.4796C15.8768 30.4814 13.806 29.793 12.1029 28.5178C10.3997 27.2426 9.15616 25.4494 8.5588 23.4074C7.96143 21.3653 8.04253 19.1846 8.7899 17.1926C9.53728 15.2005 10.9106 13.5046 12.7038 12.3595V5.51651H23.2945V12.3595C25.0884 13.5036 26.4627 15.1987 27.2111 17.1905C27.9594 19.1822 28.0415 21.3629 27.4448 23.4052C26.8482 25.4475 25.6051 27.2412 23.9022 28.5168C22.1993 29.7924 20.1286 30.4811 18.0009 30.4796H18.0045Z" fill="#333333"/>
<path d="M18.0009 11.3147L13.4133 19.2578C12.95 20.0626 12.7065 20.9751 12.7073 21.9038C12.7081 22.8325 12.9533 23.7446 13.4181 24.5486C13.8829 25.3526 14.551 26.0201 15.3554 26.4842C16.1598 26.9483 17.0722 27.1927 18.0009 27.1927C18.9295 27.1927 19.8419 26.9483 20.6463 26.4842C21.4507 26.0201 22.1188 25.3526 22.5837 24.5486C23.0485 23.7446 23.2936 22.8325 23.2944 21.9038C23.2953 20.9751 23.0518 20.0626 22.5884 19.2578L18.0009 11.3147ZM18.0009 26.1917C17.249 26.1931 16.5101 25.9964 15.8585 25.6214C15.2069 25.2464 14.6655 24.7064 14.289 24.0556C13.9125 23.4049 13.714 22.6664 13.7137 21.9146C13.7133 21.1628 13.9111 20.4241 14.287 19.773L18.0009 13.333L21.713 19.7641C22.091 20.4153 22.2906 21.1547 22.2914 21.9077C22.2923 22.6607 22.0944 23.4006 21.7178 24.0526C21.3413 24.7047 20.7993 25.2458 20.1467 25.6214C19.494 25.997 18.7538 26.1937 18.0009 26.1917Z" fill="#333333"/>
</svg>
