<svg width="36" height="36" viewBox="0 0 36 36" fill="none" xmlns="http://www.w3.org/2000/svg">
<path d="M32.8852 15.0253H21.5796C22.1187 13.7995 22.9926 12.7506 24.1011 11.9991C25.2096 11.2477 26.5075 10.8242 27.8459 10.7774H33.369L35 7.95099H27.0146C24.9127 8.0439 22.888 8.76971 21.2058 10.0333C19.5236 11.2969 18.2625 13.0392 17.5877 15.032H17.3449V6.99998H6.51482L9.0087 21.1636H14.0497V22.5801H12.5866L1 28.2429L1.25271 29.1889H9.58064L12.6066 27.0641H15.0838C15.6821 27.9207 16.5326 28.5694 17.5169 28.9198C18.5012 29.2702 19.5703 29.305 20.5753 29.0192C21.5803 28.7334 22.4711 28.1413 23.1238 27.3254C23.7764 26.5095 24.1584 25.5104 24.2164 24.4672H28.318L28.6423 24.7997C28.3466 25.253 28.1872 25.7817 28.1832 26.323C28.1793 26.8642 28.3308 27.3952 28.6197 27.8529C28.9087 28.3105 29.323 28.6756 29.8134 28.9046C30.3038 29.1337 30.8496 29.2171 31.3861 29.145C31.9225 29.0729 32.4269 28.8483 32.8394 28.4979C33.252 28.1475 33.5552 27.686 33.7131 27.1683C33.8709 26.6506 33.8769 26.0984 33.7301 25.5775C33.5833 25.0565 33.2901 24.5886 32.8852 24.2294V15.0253ZM31.1029 28.2263C30.6991 28.2251 30.3063 28.0945 29.9822 27.8537C29.658 27.6128 29.4196 27.2745 29.3019 26.8882C29.1842 26.5019 29.1933 26.0881 29.3281 25.7074C29.4628 25.3268 29.716 24.9993 30.0505 24.7731L28.8019 23.5228H23.3269C23.3607 23.7379 23.3779 23.9552 23.3785 24.1729C23.3806 25.0828 23.0788 25.9674 22.5209 26.6863C21.9629 27.4051 21.1809 27.917 20.2988 28.1406C19.4168 28.3643 18.4853 28.2869 17.6523 27.9208C16.8192 27.5547 16.1323 26.9208 15.7006 26.1198H12.4054L9.3778 28.2429H3.2445L12.8992 23.5228H15.0855V20.2176H9.89154L7.73017 7.94434H16.4987V15.978H18.3824C18.8953 14.0192 20.0208 12.2757 21.5947 11.0018C23.1685 9.72797 25.1083 8.99048 27.131 8.897H33.4671L32.9218 9.82639H27.934C26.1737 9.8848 24.4809 10.5177 23.114 11.6285C21.7472 12.7393 20.7814 14.2668 20.3642 15.978H32.0373V24.7066C32.3984 24.9132 32.6812 25.2333 32.8417 25.6172C33.0023 26.0011 33.0315 26.4272 32.925 26.8294C32.8185 27.2317 32.5821 27.5875 32.2526 27.8415C31.9231 28.0956 31.519 28.2338 31.1029 28.2346V28.2263Z" fill="#333333"/>
<path fill-rule="evenodd" clip-rule="evenodd" d="M13.4981 9.25721C13.3331 9.09241 13.1095 8.99998 12.8763 8.99998C12.6436 9.00069 12.4208 9.09374 12.2565 9.2585C12.0922 9.42325 12 9.64615 12 9.8788C11.9999 9.92869 12.0037 9.97866 12.0115 10.0279L12.3246 15.535C12.3344 15.6759 12.3972 15.8077 12.5005 15.9041C12.6038 16.0005 12.7399 16.0542 12.8812 16.0542C13.0224 16.0542 13.1585 16.0005 13.2618 15.9041C13.3651 15.8077 13.4279 15.6759 13.4377 15.535L13.7561 9.92851V9.8788C13.7559 9.64561 13.6631 9.42202 13.4981 9.25721ZM12.472 17.6191C12.2542 17.8369 12.2542 18.1902 12.472 18.4081C12.6899 18.626 13.0431 18.626 13.261 18.4081C13.4789 18.1902 13.4789 17.8369 13.261 17.6191C13.0431 17.4012 12.6899 17.4012 12.472 17.6191Z" fill="#333333"/>
</svg>
