<svg width="36" height="36" viewBox="0 0 36 36" fill="none" xmlns="http://www.w3.org/2000/svg">
<path d="M21.3664 11.5056V4.93684H7.98418V11.5056C6.47196 12.6419 5.27531 14.1459 4.50783 15.8748C3.74036 17.6037 3.42754 19.5 3.59907 21.3838C3.77061 23.2676 4.42081 25.0762 5.48794 26.638C6.55506 28.1999 8.00369 29.463 9.69628 30.3075C11.3889 31.152 13.2692 31.5498 15.1588 31.4633C17.0484 31.3767 18.8845 30.8085 20.4927 29.8128C22.101 28.817 23.428 27.4267 24.3479 25.7738C25.2677 24.121 25.7498 22.2604 25.7483 20.3689C25.7496 18.6539 25.3548 16.9617 24.5947 15.4244C23.8347 13.887 22.7299 12.5459 21.3664 11.5056ZM14.6753 29.6369C12.6629 29.6263 10.7085 28.9615 9.10702 27.7429C7.50552 26.5243 6.34375 24.8179 5.79698 22.8811C5.25021 20.9444 5.34809 18.8824 6.07587 17.0062C6.80365 15.13 8.12183 13.5413 9.83158 12.4799V6.79077H19.5223V12.4799C21.2321 13.5414 22.5504 15.1302 23.2781 17.0066C24.0059 18.8829 24.1036 20.9451 23.5567 22.8819C23.0097 24.8187 21.8476 26.5251 20.2459 27.7436C18.6441 28.9621 16.6895 29.6266 14.6769 29.6369H14.6753Z" fill="#333333"/>
<path d="M31.2872 27.4697V5.167C31.2941 4.95062 31.2574 4.73506 31.1794 4.53313C31.1013 4.3312 30.9835 4.14701 30.8329 3.99152C30.6822 3.83602 30.5019 3.71238 30.3025 3.62794C30.1032 3.54351 29.8889 3.5 29.6724 3.5C29.4559 3.5 29.2416 3.54351 29.0423 3.62794C28.8429 3.71238 28.6626 3.83602 28.5119 3.99152C28.3613 4.14701 28.2435 4.3312 28.1654 4.53313C28.0873 4.73506 28.0507 4.95062 28.0576 5.167V27.4697C27.5798 27.8117 27.2229 28.2965 27.0384 28.8543C26.8539 29.4122 26.8512 30.0142 27.0308 30.5736C27.2104 31.1331 27.563 31.6211 28.0377 31.9673C28.5124 32.3135 29.0848 32.5 29.6724 32.5C30.26 32.5 30.8324 32.3135 31.3071 31.9673C31.7818 31.6211 32.1344 31.1331 32.314 30.5736C32.4936 30.0142 32.4909 29.4122 32.3064 28.8543C32.1219 28.2965 31.765 27.8117 31.2872 27.4697ZM30.3668 18.3763H28.9796V5.167C28.9751 5.0732 28.9896 4.97945 29.0224 4.89143C29.0551 4.80341 29.1054 4.72297 29.1702 4.65497C29.235 4.58697 29.3129 4.53283 29.3992 4.49584C29.4855 4.45885 29.5785 4.43978 29.6724 4.43978C29.7663 4.43978 29.8592 4.45885 29.9456 4.49584C30.0319 4.53283 30.1098 4.58697 30.1746 4.65497C30.2394 4.72297 30.2897 4.80341 30.3224 4.89143C30.3552 4.97945 30.3697 5.0732 30.3652 5.167L30.3668 18.3763Z" fill="#333333"/>
<path d="M14.6768 12.0163L10.481 19.3161C9.95287 20.2437 9.7423 21.3184 9.88136 22.3766C10.0204 23.4348 10.5015 24.4186 11.2513 25.1782C11.6984 25.6307 12.2304 25.9904 12.8169 26.2369C13.4033 26.4833 14.0326 26.6116 14.6687 26.6144H14.6997C15.5496 26.6087 16.3831 26.3803 17.1172 25.9519C17.8512 25.5235 18.4601 24.9101 18.8831 24.1729C19.306 23.4357 19.5282 22.6005 19.5275 21.7505C19.5269 20.9006 19.3033 20.0657 18.8792 19.3292L14.6768 12.0163ZM14.6654 25.6874C13.6234 25.6831 12.6257 25.2655 11.8914 24.5262C11.157 23.787 10.746 22.7865 10.7486 21.7445C10.7505 21.0576 10.9305 20.3828 11.2709 19.7862L14.6687 13.8784L18.0762 19.7845C18.4201 20.3818 18.6013 21.0588 18.6015 21.748C18.6018 22.4372 18.4211 23.1144 18.0777 23.7119C17.7343 24.3094 17.24 24.8063 16.6444 25.153C16.0487 25.4997 15.3725 25.6839 14.6834 25.6874H14.6654Z" fill="#333333"/>
</svg>
