<svg width="36" height="36" viewBox="0 0 36 36" fill="none" xmlns="http://www.w3.org/2000/svg">
<path d="M31.5947 18.2934V16.2489L28.8265 19.0299C28.6789 17.5344 28.2252 16.0852 27.4936 14.7724C26.762 13.4597 25.7682 12.3115 24.5739 11.3993V4.93695H11.4309V11.3993C10.2357 12.3111 9.24098 13.4591 8.50855 14.7718C7.77611 16.0846 7.32167 17.534 7.1735 19.0299L4.4069 16.2489V18.2934H1V21.9474H4.4069V23.9854L7.1735 21.2028C7.42596 23.8994 8.67571 26.4048 10.6781 28.2285C12.6806 30.0523 15.2915 31.0631 18 31.0631C20.7085 31.0631 23.3194 30.0523 25.3219 28.2285C27.3243 26.4048 28.574 23.8994 28.8265 21.2028L31.5947 23.9854V21.9474H35V18.2934H31.5947ZM5.31359 21.7869V21.0311H1.90669V19.2049H5.31359V18.449L6.9713 20.1164L5.31359 21.7869ZM18.0008 29.2362C16.0217 29.2242 14.1001 28.5692 12.5257 27.3699C10.9513 26.1705 9.80947 24.4919 9.27231 22.587C8.73515 20.6822 8.83178 18.6543 9.54765 16.8091C10.2635 14.964 11.5598 13.4015 13.2411 12.3574V6.76156H22.7605V12.3574C24.4403 13.4021 25.7352 14.9645 26.45 16.809C27.1649 18.6535 27.2611 20.6804 26.7241 22.5843C26.1871 24.4882 25.046 26.1661 23.4727 27.3653C21.8993 28.5644 19.979 29.2199 18.0008 29.233V29.2362ZM34.0933 21.0311H30.688V21.7869L29.0287 20.1164L30.688 18.449V19.2049H34.0949L34.0933 21.0311Z" fill="#333333"/>
<path d="M18.0008 11.9015L13.8782 19.0812C13.4607 19.8048 13.241 20.6255 13.2411 21.4609C13.2413 22.2963 13.4613 23.117 13.8791 23.8404C14.2969 24.5639 14.8977 25.1646 15.6212 25.5822C16.3447 25.9999 17.1654 26.2198 18.0008 26.2198C18.8362 26.2198 19.6569 25.9999 20.3804 25.5822C21.1039 25.1646 21.7048 24.5639 22.1226 23.8404C22.5404 23.117 22.7604 22.2963 22.7605 21.4609C22.7607 20.6255 22.541 19.8048 22.1235 19.0812L18.0008 11.9015ZM18.0008 25.3478C16.9767 25.344 15.9958 24.9339 15.2737 24.2076C14.5516 23.4813 14.1473 22.4981 14.1494 21.4739C14.1501 20.7957 14.3271 20.1294 14.6629 19.5402L18.0008 13.7294L21.3371 19.5402C21.6752 20.128 21.8533 20.7942 21.8536 21.4723C21.8539 22.1504 21.6764 22.8168 21.3388 23.4049C21.0012 23.993 20.5154 24.4823 19.9297 24.8241C19.344 25.1658 18.6789 25.3481 18.0008 25.3526V25.3478Z" fill="#333333"/>
</svg>
