<svg width="36" height="36" viewBox="0 0 36 36" fill="none" xmlns="http://www.w3.org/2000/svg">
<path d="M2.00707 12.1698H1V26.024L10.8526 20.338L2.00707 15.23V12.1698ZM8.84022 20.338L2.00707 24.283V16.3931L8.84022 20.338Z" fill="#333333"/>
<path d="M22.9268 11.2729L18.3507 19.1893C17.8868 19.9925 17.6425 20.9037 17.6424 21.8312C17.6423 22.7587 17.8863 23.6699 18.35 24.4733C18.8137 25.2766 19.4807 25.9436 20.284 26.4074C21.0872 26.8713 21.9984 27.1154 22.9259 27.1154C23.8535 27.1154 24.7646 26.8713 25.5679 26.4074C26.3711 25.9436 27.0381 25.2766 27.5018 24.4733C27.9655 23.6699 28.2096 22.7587 28.2095 21.8312C28.2094 20.9037 27.9651 19.9925 27.5012 19.1893L22.9268 11.2729ZM22.9268 26.1093C22.1764 26.1096 21.4392 25.9123 20.7892 25.5373C20.1393 25.1622 19.5995 24.6227 19.2241 23.973C18.8487 23.3232 18.651 22.5861 18.6508 21.8357C18.6506 21.0853 18.848 20.3481 19.223 19.6982L22.9268 13.2852L26.6288 19.6982C27.0036 20.3477 27.2008 21.0844 27.2006 21.8343C27.2003 22.5842 27.0026 23.3208 26.6274 23.97C26.2522 24.6193 25.7127 25.1583 25.0631 25.5329C24.4135 25.9075 23.6767 26.1045 22.9268 26.104V26.1093Z" fill="#333333"/>
<path d="M30.2208 10.7178V3.58679H15.6308V10.7178C13.6158 12.2456 12.1313 14.3676 11.3868 16.7842C10.6423 19.2009 10.6754 21.7903 11.4813 24.1872C12.2872 26.5841 13.8254 28.6674 15.8788 30.1433C17.9321 31.6192 20.397 32.4132 22.9258 32.4132C25.4545 32.4132 27.9195 31.6192 29.9728 30.1433C32.0262 28.6674 33.5644 26.5841 34.3703 24.1872C35.1762 21.7903 35.2093 19.2009 34.4648 16.7842C33.7203 14.3676 32.2358 12.2456 30.2208 10.7178ZM22.9267 30.3982C20.7389 30.3962 18.6113 29.6812 16.8664 28.3613C15.1216 27.0414 13.8546 25.1887 13.2574 23.0839C12.6603 20.9792 12.7655 18.7371 13.5573 16.6976C14.349 14.658 15.7841 12.9322 17.6449 11.7816V5.59915H28.2085V11.7745C30.068 12.9259 31.5018 14.6518 32.2926 16.691C33.0835 18.7301 33.1884 20.9715 32.5914 23.0756C31.9945 25.1797 30.7282 27.032 28.9843 28.352C27.2404 29.672 25.1138 30.3878 22.9267 30.3911V30.3982Z" fill="#333333"/>
</svg>
