<svg width="36" height="36" viewBox="0 0 36 36" fill="none" xmlns="http://www.w3.org/2000/svg">
<path d="M4.39846 28.2014H2.45502V35.0001H4.39846V32.5725H8.28364V30.629H4.39846V28.2014Z" fill="#333333"/>
<path d="M17.0291 30.6289H10.2271V32.5724H17.0291V30.6289Z" fill="#333333"/>
<path d="M25.7729 30.6289H18.9708V32.5724H25.7729V30.6289Z" fill="#333333"/>
<path d="M18.0095 8.42136L13.5905 16.072C13.1435 16.8466 12.908 17.7252 12.9078 18.6197C12.9075 19.5141 13.1425 20.3928 13.5892 21.1677C14.0358 21.9426 14.6784 22.5865 15.4524 23.0346C16.2265 23.4827 17.1048 23.7194 17.9992 23.7208H18.0095C18.9031 23.7208 19.781 23.486 20.5553 23.0399C21.3296 22.5938 21.973 21.9521 22.4213 21.179C22.8695 20.4059 23.1067 19.5286 23.1091 18.635C23.1116 17.7414 22.8792 16.8629 22.4353 16.0874L18.0095 8.42136ZM18.0095 22.7508C17.2846 22.7511 16.5724 22.5605 15.9445 22.1983C15.3166 21.8361 14.7951 21.315 14.4324 20.6874C14.0697 20.0598 13.8785 19.3477 13.8782 18.6229C13.8779 17.898 14.0684 17.1858 14.4305 16.5578L18.0078 10.3648L21.5901 16.5681C21.9502 17.1959 22.139 17.9074 22.1375 18.6312C22.136 19.3549 21.9444 20.0656 21.5817 20.692C21.2191 21.3184 20.6981 21.8384 20.0712 22.2001C19.4442 22.5617 18.7333 22.7522 18.0095 22.7525V22.7508Z" fill="#333333"/>
<path d="M31.6015 28.2014V30.629H27.7164V32.5725H31.6015V35.0001H33.545V28.2014H31.6015Z" fill="#333333"/>
<path d="M25.0528 7.88588V1H10.9645V7.88588C9.01879 9.36117 7.58535 11.4101 6.86645 13.7437C6.14755 16.0773 6.17946 18.5777 6.95769 20.8921C7.73592 23.2066 9.22118 25.2183 11.2039 26.6434C13.1867 28.0686 15.5669 28.8352 18.0086 28.8352C20.4504 28.8352 22.8306 28.0686 24.8134 26.6434C26.7961 25.2183 28.2814 23.2066 29.0596 20.8921C29.8378 18.5777 29.8697 16.0773 29.1508 13.7437C28.4319 11.4101 26.9985 9.36117 25.0528 7.88588ZM18.0095 26.8892C15.895 26.8899 13.838 26.2005 12.1509 24.9259C10.4637 23.6512 9.2386 21.8608 8.66148 19.8266C8.08437 17.7924 8.18679 15.6254 8.95319 13.6546C9.7196 11.6839 11.1081 10.0171 12.908 8.90722V2.94344H23.1093V8.90722C24.909 10.017 26.2975 11.6837 27.0639 13.6542C27.8304 15.6248 27.9329 17.7916 27.356 19.8258C26.7791 21.8599 25.5543 23.6503 23.8674 24.9251C22.1806 26.1999 20.1239 26.8895 18.0095 26.8892Z" fill="#333333"/>
</svg>
