<svg width="36" height="36" viewBox="0 0 36 36" fill="none" xmlns="http://www.w3.org/2000/svg">
<path d="M16.4173 10.6082V8.32578L20.975 12.8924L16.4173 17.4608V15.1766C12.7731 15.5009 9.19585 16.356 5.79884 17.7146L5.42529 16.7709C9.25736 15.2409 13.3101 14.3357 17.429 14.0899V15.0104L19.5452 12.8924L17.429 10.7744V11.7002C13.3096 11.453 9.25668 10.5454 5.42529 9.01211L5.79884 8.0684C9.19577 9.4276 12.773 10.2832 16.4173 10.6082ZM13.1305 9.0836V5.5304H23.749V11.7646C25.2599 12.6866 26.5031 13.988 27.3551 15.5394C28.207 17.0909 28.638 18.8384 28.6052 20.608C28.5723 22.3777 28.0768 24.108 27.1679 25.6268C26.2589 27.1456 24.9683 28.4 23.4242 29.2652C21.8801 30.1305 20.1364 30.5765 18.3665 30.5589C16.5966 30.5413 14.8622 30.0607 13.3356 29.1649C11.8091 28.269 10.5436 26.9892 9.66507 25.4526C8.78653 23.9161 8.32554 22.1763 8.32791 20.4063C8.32862 19.672 8.40771 18.9398 8.56384 18.2222L6.38687 18.9943C6.33316 19.4631 6.3063 19.9345 6.30644 20.4063C6.31333 22.4703 6.84659 24.4984 7.8558 26.2989C8.86501 28.0994 10.3168 29.6126 12.0739 30.6956C13.831 31.7785 15.8353 32.3954 17.8972 32.4878C19.9592 32.5802 22.0106 32.1452 23.8575 31.2237C25.7044 30.3023 27.2858 28.925 28.452 27.222C29.6183 25.5191 30.3308 23.5468 30.5223 21.4917C30.7138 19.4366 30.378 17.3666 29.5465 15.4775C28.7149 13.5884 27.4153 11.9426 25.7704 10.6958V3.5H11.1143V8.64571L13.1376 9.0836" fill="#333333"/>
</svg>
