<svg width="36" height="36" viewBox="0 0 36 36" fill="none" xmlns="http://www.w3.org/2000/svg">
<path d="M33.6796 28.8167V3.34677C33.6875 3.09857 33.6454 2.85132 33.5559 2.6197C33.4663 2.38808 33.3312 2.17682 33.1584 1.99846C32.9856 1.82011 32.7787 1.67829 32.5501 1.58145C32.3214 1.4846 32.0756 1.43469 31.8273 1.43469C31.579 1.43469 31.3332 1.4846 31.1045 1.58145C30.8758 1.67829 30.669 1.82011 30.4962 1.99846C30.3234 2.17682 30.1882 2.38808 30.0987 2.6197C30.0092 2.85132 29.9671 3.09857 29.9749 3.34677V28.8167C29.4299 29.2086 29.0232 29.7634 28.8134 30.4011C28.6036 31.0388 28.6015 31.7267 28.8074 32.3656C29.0133 33.0046 29.4166 33.5619 29.9592 33.9571C30.5019 34.3524 31.1559 34.5654 31.8273 34.5654C32.4986 34.5654 33.1527 34.3524 33.6953 33.9571C34.238 33.5619 34.6413 33.0046 34.8472 32.3656C35.0531 31.7267 35.051 31.0388 34.8412 30.4011C34.6314 29.7634 34.2247 29.2086 33.6796 28.8167ZM32.6233 18.4324H31.035V3.34677C31.0449 3.14281 31.1329 2.95048 31.2807 2.80963C31.4286 2.66878 31.625 2.59022 31.8292 2.59022C32.0333 2.59022 32.2297 2.66878 32.3776 2.80963C32.5254 2.95048 32.6134 3.14281 32.6233 3.34677V18.4324Z" fill="#333333"/>
<path d="M12.5078 17.6391L17.2707 12.8781L12.5078 8.11146V10.4948C8.69267 10.1537 4.94747 9.25908 1.39006 7.83898L1 8.83C5.01232 10.4282 9.25475 11.3733 13.566 11.6295V10.6683L15.7739 12.8781L13.566 15.0822V14.1173C9.25454 14.3747 5.01211 15.3211 1 16.9206L1.39006 17.9041C4.94728 16.4868 8.69182 15.5947 12.506 15.2558L12.5078 17.6391Z" fill="#333333"/>
<path d="M22.3005 10.5862V3.08539H6.9499V8.44925L9.06633 8.9065V5.20182H20.1822V11.6985C21.8337 12.7187 23.1728 14.1736 24.0529 15.9038C24.9329 17.6341 25.3201 19.573 25.1721 21.5086C25.024 23.4441 24.3464 25.3017 23.2133 26.8779C22.0803 28.4541 20.5356 29.6883 18.7481 30.4455C16.9606 31.2026 14.9993 31.4534 13.0788 31.1706C11.1584 30.8877 9.35268 30.0821 7.8594 28.8418C6.36612 27.6015 5.24278 25.9743 4.6123 24.1383C3.98183 22.3024 3.86852 20.3283 4.28477 18.4323L2.00597 19.2329C1.94849 19.7223 1.91983 20.2146 1.92012 20.7074C1.91984 22.8701 2.47169 24.9971 3.5234 26.8869C4.5751 28.7767 6.09184 30.3667 7.92995 31.5063C9.76806 32.6459 11.8667 33.2974 14.027 33.3991C16.1873 33.5008 18.3379 33.0493 20.2749 32.0873C22.2119 31.1254 23.8713 29.6848 25.0958 27.9022C26.3204 26.1195 27.0696 24.0538 27.2724 21.9006C27.4753 19.7474 27.1251 17.5781 26.255 15.5981C25.3849 13.6181 24.0238 11.893 22.3005 10.5862Z" fill="#333333"/>
</svg>
