<svg width="36" height="36" viewBox="0 0 36 36" fill="none" xmlns="http://www.w3.org/2000/svg">
<path d="M6.33048 16.8592L6.66644 17.7023C9.71268 16.4875 12.9199 15.7238 16.1867 15.4354V17.4815L20.2661 13.4005L16.1867 9.31307V11.3528C12.9199 11.0643 9.71268 10.3007 6.66644 9.0859L6.33048 9.92738C9.76646 11.2971 13.3998 12.1073 17.0922 12.327V11.5032L18.9831 13.3941L17.0922 15.285V14.4579C13.3999 14.6797 9.76682 15.4904 6.33048 16.8592Z" fill="#333333"/>
<path d="M31.4261 20.2012V18.163L28.8665 20.7227C28.8777 20.5147 28.8841 20.3083 28.8841 20.102C28.8848 18.4218 28.4964 16.7642 27.7492 15.2593C27.002 13.7544 25.9164 12.443 24.5775 11.428V5.0033H11.4257V9.60105L13.2399 9.99139V6.81744H22.7569V12.3863C24.1727 13.2595 25.3209 14.5054 26.0759 15.9876C26.8308 17.4698 27.1635 19.1312 27.0373 20.7898C26.9112 22.4484 26.3312 24.0404 25.3608 25.3914C24.3904 26.7424 23.067 27.8003 21.5355 28.4495C20.0039 29.0986 18.3234 29.3139 16.6777 29.0717C15.032 28.8296 13.4847 28.1393 12.2051 27.0765C10.9255 26.0137 9.96291 24.6194 9.42281 23.0461C8.8827 21.4728 8.78585 19.7813 9.14285 18.1566L7.18793 18.8269C7.14317 19.2473 7.12074 19.6697 7.12074 20.0924C7.12074 20.3051 7.12074 20.5163 7.13673 20.7323L4.5771 18.1726V20.2012H1V23.8278H4.5739V25.8628L7.49348 22.9416C8.11463 25.2529 9.48067 27.2949 11.38 28.7512C13.2793 30.2075 15.6058 30.9968 17.9992 30.9968C20.3926 30.9968 22.7191 30.2075 24.6184 28.7512C26.5177 27.2949 27.8838 25.2529 28.5049 22.9416L31.4261 25.8628V23.8246H35V20.2012H31.4261ZM5.47937 23.6695V22.9208H1.90547V21.1034H5.47937V20.3611L7.13673 22.0185L5.47937 23.6695ZM34.0929 22.9208H30.519V23.6711L28.8601 22.0121L30.519 20.3611V21.1114H34.0929V22.9208Z" fill="#333333"/>
</svg>
