<svg width="36" height="36" viewBox="0 0 36 36" fill="none" xmlns="http://www.w3.org/2000/svg">
<path d="M10.2229 30.6322H17.028V32.5746H10.2229V30.6322ZM18.9738 32.5712H25.7789V30.6322H18.9738V32.5712ZM8.27878 32.5712H4.3889V35H2.44482V28.2H4.3889V30.6322H8.27878V32.5746V32.5712ZM27.723 32.5712H31.6112V35H33.5553V28.2H31.6112V30.6322H27.723V32.5746V32.5712ZM5.84825 14.6C9.11477 13.2998 12.553 12.4816 16.0551 12.1712V14.3602L20.4297 9.98559L16.0551 5.61441V7.8C12.5529 7.49041 9.11452 6.67221 5.84825 5.37118L5.49027 6.27385C9.17443 7.74047 13.0696 8.60787 17.028 8.84312V7.95929L19.0594 9.98559L17.028 12.0119V11.1281C13.0689 11.3622 9.17299 12.2297 5.48855 13.6973L5.84825 14.6ZM12.8932 6.34237V2.94237H23.1018V8.9065C24.6184 9.84335 25.8481 11.1794 26.6562 12.7683C27.4643 14.3572 27.8198 16.1379 27.6837 17.9153C27.5476 19.6928 26.9251 21.3985 25.8845 22.8459C24.8438 24.2933 23.4251 25.4265 21.7835 26.1215C20.1419 26.8165 18.3407 27.0465 16.5772 26.7864C14.8136 26.5262 13.1556 25.786 11.7846 24.6466C10.4136 23.5073 9.38239 22.0127 8.80393 20.3265C8.22547 18.6403 8.12201 16.8275 8.50487 15.0864C7.80032 15.3148 7.10262 15.5603 6.41178 15.823C6.35983 16.2716 6.33352 16.7228 6.33299 17.1744C6.33201 19.1607 6.83813 21.1144 7.80342 22.8504C8.7687 24.5864 10.1612 26.0472 11.849 27.0945C13.5368 28.1418 15.464 28.7409 17.4481 28.835C19.4322 28.9291 21.4074 28.5151 23.1868 27.6323C24.9661 26.7494 26.4906 25.427 27.6159 23.7901C28.7412 22.1533 29.4299 20.2563 29.617 18.2788C29.804 16.3013 29.4831 14.3088 28.6847 12.49C27.8862 10.6712 26.6367 9.08641 25.0544 7.88564V1H10.9525V5.92443C11.5966 6.08202 12.2434 6.22133 12.8932 6.34237Z" fill="#333333"/>
</svg>
