<svg width="36" height="36" viewBox="0 0 36 36" fill="none" xmlns="http://www.w3.org/2000/svg">
<path d="M18.8103 27.984C19.2485 27.5458 19.2485 26.8353 18.8103 26.3971C18.3721 25.9589 17.6616 25.9589 17.2234 26.3971C16.7852 26.8353 16.7852 27.5458 17.2234 27.984C17.6616 28.4222 18.3721 28.4222 18.8103 27.984Z" fill="#333333"/>
<path d="M25.3294 10.6733V3.5H10.6617V10.6733C8.63434 12.2102 7.14074 14.3449 6.3916 16.7762C5.64246 19.2075 5.67559 21.8126 6.48633 24.224C7.29708 26.6355 8.84449 28.7315 10.9103 30.2163C12.976 31.7012 15.4559 32.5 18 32.5C20.5441 32.5 23.0239 31.7012 25.0897 30.2163C27.1555 28.7315 28.7029 26.6355 29.5136 24.224C30.3244 21.8126 30.3575 19.2075 29.6084 16.7762C28.8592 14.3449 27.3656 12.2102 25.3383 10.6733H25.3294ZM17.992 30.4752C15.7899 30.4746 13.6482 29.7559 11.8916 28.428C10.135 27.1001 8.85943 25.2355 8.2584 23.1171C7.65737 20.9987 7.76368 18.742 8.56119 16.6895C9.35871 14.637 10.8039 12.9005 12.6775 11.7437V5.52301H23.3046V11.7365C25.1781 12.8933 26.6232 14.6296 27.4208 16.6819C28.2183 18.7343 28.3248 20.9908 27.724 23.1091C27.1232 25.2274 25.8479 27.092 24.0916 28.42C22.3353 29.7481 20.1938 30.4671 17.992 30.4681V30.4752Z" fill="#333333"/>
<path d="M17.9973 9.06057C17.5283 9.06057 17.0784 9.24677 16.7466 9.57827C16.4148 9.90976 16.2281 10.3594 16.2276 10.8285C16.2276 10.8624 16.2276 10.8945 16.2276 10.9284L16.8681 22.2048C16.8877 22.4883 17.0142 22.7538 17.2219 22.9477C17.4297 23.1416 17.7033 23.2494 17.9875 23.2494C18.2717 23.2494 18.5453 23.1416 18.7531 22.9477C18.9609 22.7538 19.0873 22.4883 19.1069 22.2048L19.7367 11.1282C19.7524 11.029 19.7601 10.9288 19.7599 10.8285C19.7599 10.3605 19.5743 9.91165 19.244 9.58026C18.9136 9.24887 18.4653 9.06199 17.9973 9.06057Z" fill="#333333"/>
</svg>
