<svg width="36" height="36" viewBox="0 0 36 36" fill="none" xmlns="http://www.w3.org/2000/svg">
<path d="M14.5701 18.6028V7.99258L26.4655 11.1965V8.04775L31.7057 13.2986L26.4673 18.5494V15.4078L14.5701 18.6028ZM21.6792 8.85763V5.52024H11.0975V11.7233C9.59522 12.6432 8.3598 13.9402 7.51394 15.4853C6.66808 17.0305 6.24122 18.77 6.27577 20.5312C6.31032 22.2924 6.80507 24.0139 7.71087 25.5247C8.61667 27.0354 9.902 28.2829 11.4392 29.1432C12.9763 30.0035 14.7118 30.4466 16.4733 30.4285C18.2347 30.4104 19.9607 29.9318 21.4799 29.0402C22.9991 28.1485 24.2586 26.8749 25.1332 25.3459C26.0078 23.8168 26.4671 22.0855 26.4655 20.324C26.4655 20.2101 26.4655 20.098 26.4655 19.9841L28.2917 18.1525C28.6046 19.8108 28.5672 21.5161 28.182 23.1591C27.7968 24.8021 27.0723 26.3464 26.055 27.6928C25.0378 29.0392 23.7502 30.158 22.2749 30.9774C20.7997 31.7968 19.1694 32.2987 17.4887 32.4507C15.8081 32.6028 14.1142 32.4018 12.5158 31.8605C10.9175 31.3193 9.44993 30.4498 8.20747 29.3078C6.965 28.1659 5.97506 26.7768 5.3012 25.2296C4.62733 23.6825 4.28444 22.0115 4.29453 20.324C4.29385 18.4537 4.7255 16.6085 5.55576 14.9325C6.38603 13.2566 7.59243 11.7952 9.08079 10.6625V3.5H23.6959V9.39873L21.681 8.86475" fill="#333333"/>
</svg>
