<svg width="36" height="36" viewBox="0 0 36 36" fill="none" xmlns="http://www.w3.org/2000/svg">
<path d="M6.03704 16.7407H3.57251C4.1749 9.74748 9.74748 4.1749 16.7407 3.57251V6.03704H19.2593V3.57251C26.2525 4.1749 31.8251 9.74748 32.4275 16.7407H29.963V19.2593H32.4275C32.2938 20.8113 31.9153 22.2934 31.3308 23.6667H34.0327C34.6591 21.8943 35 19.9869 35 18C35 8.61116 27.3888 1 18 1C8.61116 1 1 8.61116 1 18C1 27.3888 8.61116 35 18 35C20.4666 35 22.8105 34.4747 24.9259 33.5298V30.721C23.2165 31.6537 21.2982 32.2519 19.2593 32.4275V29.963H16.7407V32.4275C9.74748 31.8251 4.1749 26.2525 3.57251 19.2593H6.03704V16.7407Z" fill="#333333"/>
<path d="M17.9999 28.7034C23.9114 28.7034 28.7036 23.9112 28.7036 17.9997C28.7036 13.6594 26.1202 9.92251 22.4073 8.24268L18.6295 17.9997L8.91752 23.6664C10.8088 26.6913 14.1694 28.7034 17.9999 28.7034Z" fill="#333333"/>
<path d="M30.8752 33.0384V24.9258H29.8182C29.4936 25.173 29.1302 25.3998 28.7281 25.6064C28.3259 25.813 27.898 25.9827 27.4442 26.1156V27.5876C27.5992 27.5691 27.756 27.5396 27.9146 27.499C28.0732 27.4548 28.2263 27.4031 28.3739 27.3441C28.5215 27.2814 28.6598 27.2131 28.7889 27.1393C28.9218 27.0618 29.0361 26.9807 29.132 26.8958V33.0384H30.8752Z" fill="#333333"/>
</svg>
