<svg width="36" height="36" viewBox="0 0 36 36" fill="none" xmlns="http://www.w3.org/2000/svg">
<path d="M23.5039 20.2419C23.5039 20.359 23.5039 20.4725 23.5039 20.586C23.5013 22.3666 23.0334 24.1156 22.1465 25.6596C21.2596 27.2037 19.9847 28.4891 18.4479 29.3885C16.9112 30.288 15.1661 30.7702 13.3856 30.7873C11.605 30.8045 9.85096 30.356 8.29718 29.4863C6.74341 28.6167 5.4439 27.356 4.52746 25.8294C3.61103 24.3027 3.1095 22.563 3.07258 20.7828C3.03567 19.0026 3.46465 17.2437 4.31701 15.6803C5.16937 14.117 6.41551 12.8036 7.9319 11.8703V5.58343H18.6568V8.9656L20.6983 9.50617V3.53648H5.88854V10.7945C4.21779 12.0535 2.89646 13.7184 2.04995 15.6315C1.20345 17.5445 0.859853 19.6422 1.05178 21.7253C1.2437 23.8085 1.96478 25.808 3.14657 27.5342C4.32836 29.2604 5.93167 30.6559 7.80432 31.5884C9.67698 32.5208 11.7569 32.9593 13.8466 32.8621C15.9363 32.765 17.9665 32.1354 19.7445 31.0332C21.5226 29.9309 22.9895 28.3926 24.006 26.5642C25.0225 24.7358 25.5549 22.678 25.5527 20.586C25.5554 19.8485 25.4921 19.1122 25.3635 18.3859L23.5039 20.2419Z" fill="#333333"/>
<path d="M33.7243 28.4352V3.80146C33.7243 3.32739 33.5359 2.87274 33.2007 2.53752C32.8655 2.2023 32.4109 2.01398 31.9368 2.01398C31.4627 2.01398 31.0081 2.2023 30.6728 2.53752C30.3376 2.87274 30.1493 3.32739 30.1493 3.80146V28.4352C29.6229 28.8135 29.23 29.349 29.0272 29.9648C28.8245 30.5805 28.8223 31.2447 29.021 31.8618C29.2197 32.4788 29.6091 33.0169 30.133 33.3987C30.657 33.7804 31.2885 33.986 31.9368 33.986C32.5851 33.986 33.2166 33.7804 33.7406 33.3987C34.2645 33.0169 34.6539 32.4788 34.8526 31.8618C35.0513 31.2447 35.0491 30.5805 34.8463 29.9648C34.6436 29.349 34.2507 28.8135 33.7243 28.4352ZM32.7026 18.3968H31.171V3.80146C31.171 3.59835 31.2517 3.40357 31.3953 3.25995C31.5389 3.11634 31.7337 3.03565 31.9368 3.03565C32.1399 3.03565 32.3347 3.11634 32.4783 3.25995C32.6219 3.40357 32.7026 3.59835 32.7026 3.80146V18.3968Z" fill="#333333"/>
<path d="M23.5111 11.3279L11.4528 8.08992V18.8436L23.5111 15.6038V18.7878L28.8176 13.4668L23.5111 8.14397V11.3279Z" fill="#333333"/>
</svg>
