<svg width="36" height="36" viewBox="0 0 36 36" fill="none" xmlns="http://www.w3.org/2000/svg">
<path d="M31.5928 18.1632V16.1266L28.8132 18.9109C28.7844 18.6595 28.7492 18.4114 28.7044 18.1632L27.0616 19.8092C27.0616 19.9116 27.0616 20.0125 27.0616 20.1134C27.0607 21.6938 26.6467 23.2466 25.8606 24.6177C25.0746 25.9888 23.9438 27.1307 22.5804 27.93C21.217 28.7294 19.6683 29.1585 18.0879 29.1748C16.5075 29.1911 14.9504 28.794 13.5708 28.023C12.1911 27.2519 11.037 26.1336 10.2229 24.779C9.40871 23.4244 8.96276 21.8805 8.92924 20.3004C8.89571 18.7203 9.27579 17.1589 10.0318 15.7709C10.7877 14.383 11.8934 13.2168 13.239 12.3879V6.81439H22.7594V9.8117L24.5734 10.292V5.00031H11.4266V11.4336C10.2494 12.327 9.26644 13.4507 8.53753 14.7362C7.80863 16.0217 7.34904 17.4421 7.18677 18.9109L4.4056 16.1266V18.1632H1V21.793H4.4056V23.8296L7.16115 21.0709C7.39894 23.7813 8.64371 26.3043 10.65 28.1422C12.6562 29.9802 15.2783 30.9997 17.9992 30.9997C20.7201 30.9997 23.3422 29.9802 25.3484 28.1422C27.3547 26.3043 28.5995 23.7813 28.8372 21.0709L31.5928 23.8296V21.793H35V18.1632H31.5928ZM5.31345 21.6376V20.8867H1.90624V19.0694H5.31345V18.3185L6.97061 19.9773L5.31345 21.6376ZM34.0922 20.8867H30.6866V21.6376L29.0278 19.9773L30.6866 18.3185V19.0694H34.0922V20.8867Z" fill="#333333"/>
<path d="M16.3645 18.5683L27.0665 15.6975V18.5203L31.777 13.8018L27.0665 9.08483V11.9076L16.3645 9.03679V18.5683Z" fill="#333333"/>
</svg>
