<svg width="36" height="36" viewBox="0 0 36 36" fill="none" xmlns="http://www.w3.org/2000/svg">
<path d="M23.0698 13.9675L22.9824 13.9255L22.5593 11.8601L1 15.8599L1.42148 17.9253L23.0698 13.9675Z" fill="#333333"/>
<path d="M1.36772 19.5037L1.01845 21.5842L22.5173 24.506L22.9404 22.4406L1.36772 19.5037Z" fill="#333333"/>
<path d="M23.1336 10.1842C23.4833 9.88975 23.8988 9.68396 24.3449 9.58428C24.7911 9.48461 25.2547 9.49398 25.6964 9.61162C26.1381 9.72925 26.545 9.95168 26.8825 10.26C27.2199 10.5684 27.4781 10.9536 27.635 11.3829C27.7919 11.8123 27.843 12.2731 27.7838 12.7264C27.7247 13.1797 27.5572 13.6121 27.2954 13.9868C27.0336 14.3616 26.6853 14.6677 26.28 14.8791C25.8747 15.0906 25.4244 15.2013 24.9673 15.2017C24.652 15.202 24.3389 15.1504 24.0404 15.0488L23.985 15.0304L24.4014 17.2604L24.5106 17.2839C24.6617 17.299 24.8128 17.304 24.9673 17.304C25.7103 17.3044 26.4439 17.1374 27.1135 16.8155C27.7831 16.4935 28.3717 16.0249 28.8353 15.4443C29.299 14.8638 29.626 14.1862 29.792 13.462C29.9579 12.7377 29.9586 11.9854 29.7939 11.2609C29.6293 10.5364 29.3036 9.85821 28.8409 9.27682C28.3783 8.69542 27.7906 8.22571 27.1216 7.90255C26.4525 7.5794 25.7192 7.4111 24.9762 7.41016C24.2332 7.40922 23.4996 7.57566 22.8297 7.89712L22.645 8.00291L23.0883 10.2094L23.1336 10.1842Z" fill="#333333"/>
<path d="M31.4439 12.98L30.9955 15.0454C31.5483 15.2458 32.0257 15.612 32.3625 16.0939C32.6993 16.5759 32.879 17.1501 32.8772 17.738C32.8753 18.326 32.692 18.899 32.3522 19.3789C32.0124 19.8587 31.5327 20.2219 30.9787 20.4188L31.3414 22.5061C32.3827 22.2249 33.3037 21.6112 33.964 20.7584C34.6244 19.9056 34.988 18.8604 34.9996 17.7818C35.0112 16.7033 34.6701 15.6505 34.0283 14.7837C33.3864 13.9169 32.4789 13.2835 31.4439 12.98Z" fill="#333333"/>
<path d="M25.1806 18.6893C25.0278 18.6893 24.875 18.6893 24.7239 18.7128L24.6147 18.7363L24.1983 20.9663L24.2537 20.9495C24.7239 20.7884 25.2282 20.7533 25.7162 20.8477C26.2042 20.9421 26.6589 21.1628 27.0351 21.4877C27.4113 21.8126 27.6958 22.2304 27.8602 22.6995C28.0246 23.1686 28.0633 23.6725 27.9723 24.1612C27.8813 24.6499 27.6638 25.1062 27.3416 25.4846C27.0194 25.8631 26.6036 26.1505 26.1356 26.3182C25.6677 26.4859 25.164 26.5281 24.6747 26.4406C24.1854 26.353 23.7276 26.1388 23.3469 25.8192L23.2663 25.7067L22.8163 27.9484L23.0783 28.1264C23.7286 28.4558 24.4521 28.6141 25.1806 28.5865C26.4931 28.5865 27.7518 28.0652 28.6798 27.1371C29.6079 26.2091 30.1292 24.9504 30.1292 23.6379C30.1292 22.3255 29.6079 21.0668 28.6798 20.1387C27.7518 19.2107 26.4931 18.6893 25.1806 18.6893Z" fill="#333333"/>
</svg>
