<svg width="36" height="36" viewBox="0 0 36 36" fill="none" xmlns="http://www.w3.org/2000/svg">
<path d="M33.7036 28.245V3.91835C33.7036 3.45101 33.518 3.00281 33.1875 2.67236C32.8571 2.3419 32.4089 2.15625 31.9415 2.15625C31.4742 2.15625 31.026 2.3419 30.6955 2.67236C30.3651 3.00281 30.1794 3.45101 30.1794 3.91835L30.1357 28.294C29.3333 28.8394 28.9418 29.6925 28.9418 30.7413C28.9321 31.1452 29.0032 31.5469 29.1511 31.9228C29.2989 32.2988 29.5204 32.6413 29.8026 32.9304C30.0848 33.2194 30.422 33.4491 30.7942 33.606C31.1665 33.7628 31.5664 33.8436 31.9704 33.8436C32.3743 33.8436 32.7742 33.7628 33.1465 33.606C33.5188 33.4491 33.8559 33.2194 34.1381 32.9304C34.4203 32.6413 34.6418 32.2988 34.7897 31.9228C34.9375 31.5469 35.0087 31.1452 34.999 30.7413C35.0119 30.2497 34.8998 29.7627 34.6732 29.3261C34.4467 28.8895 34.1131 28.5176 33.7036 28.245ZM32.6932 17.8455H31.1776V3.91835C31.1799 3.71611 31.261 3.52275 31.4036 3.37942C31.5463 3.23608 31.7393 3.1541 31.9415 3.15092C32.1432 3.15642 32.3347 3.24113 32.4744 3.38673C32.6141 3.53232 32.6908 3.72708 32.688 3.92883L32.6932 17.8455Z" fill="#333333"/>
<path d="M18.2802 11.8514C18.5534 11.621 18.8782 11.4601 19.227 11.3821C19.5758 11.3042 19.9383 11.3116 20.2836 11.4038C20.6289 11.4959 20.9468 11.6701 21.2104 11.9114C21.474 12.1528 21.6754 12.4542 21.7975 12.79C21.9197 13.1259 21.9589 13.4863 21.912 13.8406C21.865 14.1948 21.7332 14.5326 21.5278 14.825C21.3223 15.1174 21.0493 15.356 20.732 15.5203C20.4146 15.6846 20.0623 15.7699 19.7049 15.7689C19.4593 15.7693 19.2154 15.7291 18.9829 15.65L18.9375 15.6343L19.2644 17.3824L19.3483 17.3999C19.4645 17.4111 19.5812 17.4163 19.6979 17.4156C20.2787 17.4165 20.8523 17.2864 21.3759 17.0349C21.8994 16.7835 22.3596 16.4173 22.7221 15.9635C23.0846 15.5097 23.3401 14.9799 23.4696 14.4138C23.5991 13.8476 23.5993 13.2594 23.4702 12.6932C23.341 12.1269 23.0858 11.597 22.7236 11.143C22.3614 10.6889 21.9014 10.3224 21.378 10.0707C20.8546 9.81896 20.2811 9.68848 19.7003 9.68898C19.1195 9.68948 18.5462 9.82093 18.0232 10.0736L17.8799 10.1575L18.2295 11.8794L18.2802 11.8514Z" fill="#333333"/>
<path d="M18.2311 14.8057L18.1629 14.7724L17.8326 13.1589L1 16.2828L1.32864 17.8963L18.2311 14.8057Z" fill="#333333"/>
<path d="M19.8796 18.4924C19.7628 18.4924 19.6461 18.4982 19.5299 18.5099L19.446 18.5274L19.1191 20.2755L19.1646 20.2615C19.3975 20.1816 19.6421 20.1414 19.8883 20.1426C20.2455 20.1427 20.5974 20.229 20.9142 20.3941C21.2309 20.5592 21.5032 20.7984 21.7078 21.0912C21.9124 21.384 22.0433 21.7219 22.0894 22.0761C22.1355 22.4303 22.0955 22.7905 21.9727 23.1259C21.8499 23.4614 21.6479 23.7622 21.384 24.003C21.1201 24.2437 20.802 24.4172 20.4567 24.5087C20.1114 24.6003 19.7491 24.6071 19.4006 24.5287C19.0521 24.4503 18.7277 24.289 18.4548 24.0584L18.3937 23.971L18.044 25.7191L18.2503 25.859C18.7579 26.1172 19.3227 26.2423 19.8918 26.2226C20.9164 26.2226 21.8991 25.8155 22.6236 25.091C23.3481 24.3665 23.7551 23.3839 23.7551 22.3592C23.7551 21.3346 23.3481 20.352 22.6236 19.6275C21.8991 18.9029 20.9164 18.4959 19.8918 18.4959L19.8796 18.4924Z" fill="#333333"/>
<path d="M24.7742 14.0328L24.4246 15.6446C24.8594 15.7978 25.2358 16.0824 25.5016 16.459C25.7674 16.8357 25.9095 17.2857 25.9081 17.7467C25.9068 18.2076 25.7621 18.6568 25.4941 19.0319C25.2261 19.407 24.848 19.6894 24.4124 19.84L24.6955 21.471C25.509 21.2517 26.2284 20.7726 26.7443 20.1066C27.2601 19.4405 27.5442 18.6241 27.5531 17.7817C27.562 16.9393 27.2953 16.1171 26.7936 15.4403C26.2919 14.7635 25.5828 14.2693 24.7742 14.0328Z" fill="#333333"/>
<path d="M1.28667 19.1286L1.01222 20.7526L17.7993 23.0339L18.1297 21.4204L1.28667 19.1286Z" fill="#333333"/>
</svg>
