<svg width="36" height="36" viewBox="0 0 36 36" fill="none" xmlns="http://www.w3.org/2000/svg">
<path d="M31.4447 12.4321L30.9961 14.4906C31.5529 14.687 32.0349 15.0518 32.3752 15.5343C32.7155 16.0169 32.8973 16.5933 32.8954 17.1838C32.8934 17.7742 32.7079 18.3495 32.3645 18.8298C32.0211 19.3101 31.5368 19.6718 30.9787 19.8646L31.3421 21.9509C32.3833 21.6694 33.3041 21.0555 33.9643 20.2026C34.6245 19.3497 34.9881 18.3045 34.9997 17.226C35.0113 16.1474 34.6703 15.0946 34.0286 14.2277C33.3869 13.3608 32.4796 12.7272 31.4447 12.4234V12.4321Z" fill="#333333"/>
<path d="M1.42248 17.3785L7.00687 16.3423L7.00861 14.1986L1 15.313L1.42248 17.3785Z" fill="#333333"/>
<path d="M1.01914 21.0381L6.97907 21.9022L6.98602 19.7985L1.3686 18.957L1.01914 21.0381Z" fill="#333333"/>
<path d="M22.9829 13.3779L22.5604 11.309L17.8349 12.1418L17.8366 14.275L22.9829 13.3779Z" fill="#333333"/>
<path d="M17.8227 20.9946L17.8158 23.1261L20.7697 23.6495L18.1774 21.0572L17.8227 20.9946Z" fill="#333333"/>
<path d="M23.1343 9.63642C23.4839 9.34116 23.8997 9.13464 24.3463 9.03439C24.7928 8.93415 25.257 8.94314 25.6993 9.0606C26.1416 9.17806 26.5491 9.40052 26.8871 9.7091C27.2251 10.0177 27.4836 10.4033 27.6407 10.8331C27.7979 11.263 27.849 11.7244 27.7897 12.1782C27.7304 12.632 27.5625 13.0648 27.3002 13.4398C27.0379 13.8149 26.6889 14.1211 26.283 14.3325C25.8771 14.5439 25.4261 14.6542 24.9685 14.654C24.6533 14.6544 24.3402 14.6027 24.0418 14.501L23.9862 14.4836L24.4034 16.7143L24.5112 16.7369C24.6625 16.749 24.8137 16.7577 24.9685 16.7577C25.7116 16.7575 26.4452 16.5899 27.1146 16.2673C27.7841 15.9447 28.3724 15.4755 28.8357 14.8945C29.299 14.3134 29.6254 13.6355 29.7908 12.911C29.9562 12.1865 29.9563 11.434 29.7911 10.7095C29.6259 9.98496 29.2995 9.30695 28.8364 8.72579C28.3732 8.14464 27.7851 7.67528 27.1157 7.35255C26.4463 7.02983 25.7128 6.86203 24.9696 6.86161C24.2265 6.8612 23.4928 7.02818 22.823 7.35016L22.6388 7.45621L23.0804 9.65903L23.1343 9.63642Z" fill="#333333"/>
<path d="M29.047 26.1688C29.6268 25.4405 29.9894 24.5634 30.0929 23.6383C30.1965 22.7131 30.0369 21.7775 29.6324 20.9391C29.228 20.1006 28.5952 19.3933 27.8067 18.8984C27.0182 18.4036 26.1061 18.1413 25.1752 18.1417C25.0204 18.1417 24.8674 18.1417 24.7179 18.1608L24.6101 18.1869L24.1928 20.4193L24.2485 20.4019C24.6768 20.2533 25.1345 20.2095 25.5832 20.2741C26.032 20.3388 26.4587 20.5099 26.8278 20.7732C27.1968 21.0366 27.4974 21.3844 27.7044 21.7878C27.9115 22.1911 28.0189 22.6381 28.0178 23.0915C28.017 23.6484 27.8519 24.1927 27.5431 24.6562L29.047 26.1688Z" fill="#333333"/>
<path d="M13.3128 10.4344L14.9749 12.0965C15.2178 12.0419 15.4416 11.9231 15.6229 11.7525C15.8042 11.5819 15.9364 11.3658 16.0057 11.1267C16.075 10.8876 16.0789 10.6343 16.0169 10.3932C15.9549 10.1521 15.8294 9.93203 15.6533 9.756C15.4773 9.57997 15.2573 9.45441 15.0162 9.39242C14.775 9.33044 14.5217 9.3343 14.2826 9.4036C14.0435 9.47291 13.8274 9.60512 13.6568 9.78643C13.4862 9.96775 13.3674 10.1915 13.3128 10.4344Z" fill="#333333"/>
<path d="M10.058 16.9734C10.3331 16.9734 10.602 16.8919 10.8308 16.739C11.0595 16.5862 11.2378 16.369 11.343 16.1148C11.4483 15.8607 11.4759 15.581 11.4222 15.3112C11.3685 15.0414 11.2361 14.7936 11.0415 14.599C10.847 14.4045 10.5992 14.2721 10.3294 14.2184C10.0596 14.1647 9.77992 14.1923 9.52577 14.2975C9.27162 14.4028 9.05439 14.5811 8.90156 14.8098C8.74873 15.0385 8.66715 15.3075 8.66715 15.5825C8.66715 15.9514 8.81369 16.3052 9.07454 16.566C9.33538 16.8269 9.68915 16.9734 10.058 16.9734Z" fill="#333333"/>
<path d="M14.6914 21.8194C15.4624 21.8091 16.079 21.1757 16.0687 20.4047C16.0583 19.6337 15.4249 19.0171 14.6539 19.0275C13.8829 19.0378 13.2663 19.6712 13.2767 20.4422C13.2871 21.2132 13.9205 21.8298 14.6914 21.8194Z" fill="#333333"/>
<path d="M10.058 21.8169C10.3331 21.8169 10.602 21.7354 10.8308 21.5825C11.0595 21.4297 11.2378 21.2125 11.343 20.9583C11.4483 20.7042 11.4759 20.4245 11.4222 20.1547C11.3685 19.8849 11.2361 19.6371 11.0415 19.4426C10.847 19.248 10.5992 19.1156 10.3294 19.0619C10.0596 19.0082 9.77992 19.0358 9.52577 19.141C9.27162 19.2463 9.05439 19.4246 8.90156 19.6533C8.74873 19.882 8.66715 20.151 8.66715 20.4261C8.66715 20.7949 8.81369 21.1487 9.07454 21.4096C9.33538 21.6704 9.68915 21.8169 10.058 21.8169Z" fill="#333333"/>
<path d="M14.6742 26.6609C14.9493 26.6609 15.2182 26.5793 15.4469 26.4265C15.6757 26.2737 15.8539 26.0564 15.9592 25.8023C16.0645 25.5481 16.092 25.2685 16.0384 24.9987C15.9847 24.7289 15.8522 24.481 15.6577 24.2865C15.4632 24.092 15.2153 23.9595 14.9455 23.9059C14.6757 23.8522 14.3961 23.8797 14.1419 23.985C13.8878 24.0903 13.6706 24.2686 13.5177 24.4973C13.3649 24.726 13.2833 24.9949 13.2833 25.27C13.2833 25.6389 13.4299 25.9927 13.6907 26.2535C13.9515 26.5144 14.3053 26.6609 14.6742 26.6609Z" fill="#333333"/>
<path d="M10.058 26.6609C10.3331 26.6609 10.602 26.5793 10.8308 26.4265C11.0595 26.2737 11.2378 26.0564 11.343 25.8023C11.4483 25.5481 11.4759 25.2685 11.4222 24.9987C11.3685 24.7289 11.2361 24.481 11.0415 24.2865C10.847 24.092 10.5992 23.9595 10.3294 23.9059C10.0596 23.8522 9.77992 23.8797 9.52577 23.985C9.27162 24.0903 9.05439 24.2686 8.90156 24.4973C8.74873 24.726 8.66715 24.9949 8.66715 25.27C8.66715 25.6389 8.81369 25.9927 9.07454 26.2535C9.33538 26.5144 9.68915 26.6609 10.058 26.6609Z" fill="#333333"/>
<path d="M17.2715 8.11698V5.54732H8.42551L10.9952 8.11698H17.2715Z" fill="#333333"/>
<path d="M17.2717 27.8866H7.47115V30.4545H17.2717V27.8866Z" fill="#333333"/>
<path d="M4.75709 3.36353L3.36273 4.75789L31.2412 32.6364L32.6356 31.242L4.75709 3.36353Z" fill="#333333"/>
</svg>
