<svg width="36" height="36" viewBox="0 0 36 36" fill="none" xmlns="http://www.w3.org/2000/svg">
<path d="M14.364 28.5097C14.3644 28.1137 14.2473 27.7266 14.0275 27.3972C13.8078 27.0679 13.4952 26.8111 13.1295 26.6594C12.7638 26.5077 12.3613 26.4679 11.9729 26.5451C11.5846 26.6223 11.2278 26.8129 10.9478 27.0929C10.6679 27.3728 10.4772 27.7296 10.4001 28.1179C10.3229 28.5063 10.3627 28.9088 10.5144 29.2745C10.6661 29.6403 10.9228 29.9528 11.2522 30.1725C11.5816 30.3923 11.9687 30.5094 12.3646 30.5091C12.8948 30.5086 13.4031 30.2978 13.7779 29.9229C14.1528 29.5481 14.3636 29.0398 14.364 28.5097ZM10.3864 22.2432V7.49213C10.3864 6.96139 10.5973 6.45239 10.9725 6.07709C11.3478 5.7018 11.8568 5.49097 12.3876 5.49097C12.9183 5.49097 13.4273 5.7018 13.8026 6.07709C14.1779 6.45239 14.3888 6.96139 14.3888 7.49213V22.2432C14.3888 22.774 14.1779 23.283 13.8026 23.6583C13.4273 24.0336 12.9183 24.2444 12.3876 24.2444C11.8568 24.2444 11.3478 24.0336 10.9725 23.6583C10.5973 23.283 10.3864 22.774 10.3864 22.2432ZM1.38647 17.2421L1 15.278L6.88526 14.138V16.1727L1.38117 17.2421H1.38647ZM1.38117 18.7421L6.88526 19.8115V21.8497L1 20.7062L1.38117 18.7421ZM17.8899 14.0339V11.9974L22.6087 11.0798L22.9881 13.0439L17.8899 14.0339ZM17.8899 21.9503V23.9885L22.6087 24.9026L22.9881 22.9385L17.8899 21.9503ZM24.7281 16.7497L24.3399 14.7433C24.4175 14.7433 24.4952 14.7433 24.5746 14.7433C25.3702 14.7433 26.1333 14.4272 26.6959 13.8646C27.2585 13.302 27.5746 12.5389 27.5746 11.7433C27.574 11.5508 27.5557 11.3588 27.5199 11.1698C27.4324 10.715 27.241 10.2867 26.9604 9.91828C26.6798 9.54989 26.3177 9.25146 25.9026 9.04635C25.4874 8.84125 25.0304 8.73503 24.5673 8.73604C24.1042 8.73704 23.6477 8.84522 23.2334 9.05212L22.8452 7.05978C23.5253 6.80844 24.2518 6.70797 24.9746 6.76534C25.6974 6.82271 26.399 7.03654 27.0309 7.39202C27.6628 7.74751 28.2099 8.23614 28.6342 8.82405C29.0585 9.41197 29.3499 10.0851 29.4882 10.7968C29.6265 11.5086 29.6084 12.2418 29.4352 12.9459C29.2619 13.6499 28.9376 14.3079 28.4848 14.8741C28.032 15.4404 27.4615 15.9014 26.8128 16.2253C26.1642 16.5491 25.4528 16.7281 24.7281 16.7497ZM24.7281 19.2344L24.3399 21.2426C24.4175 21.2426 24.4952 21.2321 24.5746 21.2321C25.3702 21.2321 26.1333 21.5481 26.6959 22.1107C27.2585 22.6733 27.5746 23.4364 27.5746 24.232C27.5739 24.4239 27.5556 24.6153 27.5199 24.8038C27.4324 25.2585 27.241 25.6869 26.9604 26.0553C26.6798 26.4237 26.3177 26.7221 25.9026 26.9272C25.4874 27.1323 25.0304 27.2385 24.5673 27.2375C24.1042 27.2365 23.6477 27.1283 23.2334 26.9214L22.8434 28.9297C23.5233 29.1801 24.2496 29.2798 24.9718 29.2218C25.6941 29.1639 26.3951 28.9497 27.0265 28.5941C27.6578 28.2385 28.2043 27.7499 28.6281 27.1622C29.052 26.5746 29.3431 25.9018 29.4813 25.1905C29.6195 24.4792 29.6014 23.7464 29.4285 23.0428C29.2555 22.3391 28.9317 21.6815 28.4794 21.1154C28.0272 20.5492 27.4574 20.0881 26.8093 19.764C26.1613 19.4398 25.4506 19.2603 24.7263 19.2379L24.7281 19.2344ZM30.9398 13.0792L30.2093 14.9974C30.9675 15.0495 31.6777 15.3875 32.1964 15.943C32.7151 16.4986 33.0036 17.2303 33.0036 17.9903C33.0036 18.7504 32.7151 19.4821 32.1964 20.0376C31.6777 20.5932 30.9675 20.9311 30.2093 20.9832L30.9434 22.9015C32.0849 22.6819 33.1144 22.0715 33.8547 21.1753C34.595 20.279 35 19.1528 35 17.9903C35 16.8278 34.595 15.7016 33.8547 14.8054C33.1144 13.9091 32.0849 13.2987 30.9434 13.0792" fill="#333333"/>
</svg>
