<svg width="36" height="36" viewBox="0 0 36 36" fill="none" xmlns="http://www.w3.org/2000/svg">
<path d="M26.607 9.42895V1H9.40338V9.42895C7.02817 11.2295 5.27824 13.7303 4.40049 16.5786C3.52275 19.427 3.56149 22.479 4.51125 25.3041C5.46102 28.1293 7.27386 30.5849 9.69401 32.3245C12.1142 34.0642 15.0194 35 17.9999 35C20.9805 35 23.8857 34.0642 26.3059 32.3245C28.726 30.5849 30.5389 28.1293 31.4886 25.3041C32.4384 22.479 32.4771 19.427 31.5994 16.5786C30.7217 13.7303 28.9717 11.2295 26.5965 9.42895H26.607ZM18.0167 32.6856C15.4328 32.6783 12.9215 31.8301 10.8624 30.2691C8.80323 28.7082 7.30817 26.5194 6.60316 24.0335C5.89815 21.5476 6.02151 18.8998 6.9546 16.4903C7.88769 14.0807 9.57978 12.0404 11.7751 10.6777V3.37804H24.2248V10.6777C26.4219 12.0384 28.1162 14.0775 29.0516 16.4867C29.987 18.8958 30.1126 21.544 29.4094 24.0309C28.7062 26.5177 27.2125 28.708 25.154 30.2706C23.0956 31.8332 20.5843 32.6831 17.9999 32.6919L18.0167 32.6856Z" fill="#333333"/>
<path d="M23.8309 19.1547H22.6429C22.6516 19.4261 22.6057 19.6965 22.5079 19.9498C22.4101 20.2032 22.2623 20.4342 22.0734 20.6293C21.8845 20.8244 21.6583 20.9795 21.4083 21.0854C21.1582 21.1913 20.8895 21.2459 20.6179 21.2459C20.3464 21.2459 20.0776 21.1913 19.8276 21.0854C19.5775 20.9795 19.3513 20.8244 19.1624 20.6293C18.9735 20.4342 18.8258 20.2032 18.7279 19.9498C18.6301 19.6965 18.5842 19.4261 18.5929 19.1547H17.407C17.4158 19.4261 17.3698 19.6965 17.272 19.9498C17.1742 20.2032 17.0264 20.4342 16.8375 20.6293C16.6486 20.8244 16.4224 20.9795 16.1724 21.0854C15.9224 21.1913 15.6536 21.2459 15.382 21.2459C15.1105 21.2459 14.8417 21.1913 14.5917 21.0854C14.3416 20.9795 14.1154 20.8244 13.9265 20.6293C13.7376 20.4342 13.5899 20.2032 13.4921 19.9498C13.3942 19.6965 13.3483 19.4261 13.357 19.1547H12.1691C12.1696 19.6925 11.9568 20.2084 11.5774 20.5895C11.1979 20.9705 10.6828 21.1854 10.1451 21.1871V22.3708C10.658 22.371 11.1634 22.248 11.6188 22.0121C12.0742 21.7762 12.4663 21.4343 12.762 21.0153C13.0583 21.4342 13.4508 21.776 13.9065 22.0119C14.3622 22.2477 14.8678 22.3708 15.381 22.3708C15.8941 22.3708 16.3998 22.2477 16.8555 22.0119C17.3112 21.776 17.7037 21.4342 18 21.0153C18.2963 21.4342 18.6887 21.776 19.1445 22.0119C19.6002 22.2477 20.1058 22.3708 20.619 22.3708C21.1321 22.3708 21.6378 22.2477 22.0935 22.0119C22.5492 21.776 22.9417 21.4342 23.238 21.0153C23.5341 21.4343 23.9266 21.7762 24.3823 22.0121C24.8381 22.248 25.3438 22.371 25.8569 22.3708V21.1871C25.3188 21.186 24.8032 20.9713 24.4233 20.5902C24.0434 20.2091 23.8303 19.6928 23.8309 19.1547Z" fill="#333333"/>
</svg>
