<svg width="36" height="36" viewBox="0 0 36 36" fill="none" xmlns="http://www.w3.org/2000/svg">
<path d="M33.6442 29.0938V2.90441C33.6442 2.39938 33.4436 1.91503 33.0865 1.55792C32.7294 1.20081 32.245 1.00018 31.74 1.00018C31.235 1.00018 30.7506 1.20081 30.3935 1.55792C30.0364 1.91503 29.8358 2.39938 29.8358 2.90441V29.0938C29.276 29.4967 28.8583 30.0667 28.643 30.7219C28.4276 31.3772 28.4256 32.0838 28.6373 32.7402C28.8489 33.3967 29.2633 33.9691 29.8208 34.3751C30.3784 34.7811 31.0503 34.9999 31.74 34.9999C32.4297 34.9999 33.1016 34.7811 33.6592 34.3751C34.2167 33.9691 34.6311 33.3967 34.8427 32.7402C35.0544 32.0838 35.0524 31.3772 34.837 30.7219C34.6217 30.0667 34.204 29.4967 33.6442 29.0938ZM32.555 18.4144H30.9231V2.90441C30.9332 2.69485 31.0236 2.49723 31.1756 2.35251C31.3275 2.20779 31.5292 2.12706 31.739 2.12706C31.9489 2.12706 32.1506 2.20779 32.3025 2.35251C32.4544 2.49723 32.5448 2.69485 32.555 2.90441V18.4144Z" fill="#333333"/>
<path d="M21.9446 10.3488V2.63595H6.16999V10.3488C3.99021 12.0014 2.38435 14.2968 1.57895 16.911C0.773549 19.5253 0.809274 22.3264 1.68108 24.9192C2.55289 27.5121 4.21677 29.7657 6.438 31.3623C8.65922 32.9589 11.3257 33.8177 14.0611 33.8177C16.7966 33.8177 19.4631 32.9589 21.6843 31.3623C23.9055 29.7657 25.5694 27.5121 26.4412 24.9192C27.313 22.3264 27.3487 19.5253 26.5433 16.911C25.7379 14.2968 24.1321 12.0014 21.9523 10.3488H21.9446ZM14.0535 31.6347C11.6877 31.6316 9.38742 30.8577 7.50092 29.4301C5.61442 28.0026 4.24449 25.9992 3.59857 23.7233C2.95266 21.4474 3.06596 19.0231 3.9213 16.8174C4.77665 14.6116 6.32745 12.7447 8.33886 11.4993V4.81248H19.7681V11.4917C21.7795 12.7371 23.3303 14.604 24.1856 16.8097C25.041 19.0154 25.1543 21.4398 24.5084 23.7156C23.8625 25.9915 22.4925 27.9949 20.606 29.4224C18.7195 30.85 16.4192 31.6239 14.0535 31.627V31.6347Z" fill="#333333"/>
<path d="M19.4018 19.2505H18.3145C18.3145 19.7433 18.1187 20.2159 17.7702 20.5644C17.4218 20.9129 16.9491 21.1087 16.4563 21.1087C15.9635 21.1087 15.4908 20.9129 15.1423 20.5644C14.7938 20.2159 14.5981 19.7433 14.5981 19.2505H13.5088C13.4933 19.7332 13.2907 20.191 12.9437 20.527C12.5967 20.863 12.1327 21.0509 11.6497 21.0509C11.1667 21.0509 10.7026 20.863 10.3557 20.527C10.0087 20.191 9.80602 19.7332 9.79052 19.2505H8.70129C8.70129 19.7433 8.50552 20.2159 8.15704 20.5644C7.80855 20.9129 7.33591 21.1087 6.84309 21.1087V22.1979C7.31231 22.197 7.7745 22.0839 8.19114 21.8681C8.60778 21.6522 8.96679 21.3399 9.23823 20.9572C9.51063 21.3411 9.87101 21.6542 10.2892 21.8702C10.7074 22.0862 11.1713 22.199 11.642 22.199C12.1127 22.199 12.5766 22.0862 12.9948 21.8702C13.413 21.6542 13.7734 21.3411 14.0458 20.9572C14.318 21.3411 14.6782 21.6542 15.0962 21.8702C15.5143 22.0863 15.978 22.199 16.4486 22.199C16.9192 22.199 17.3829 22.0863 17.801 21.8702C18.219 21.6542 18.5792 21.3411 18.8514 20.9572C19.1243 21.3408 19.4849 21.6536 19.9032 21.8694C20.3216 22.0852 20.7854 22.1979 21.2562 22.1979V21.1087C20.764 21.1077 20.2924 20.9114 19.9447 20.5631C19.597 20.2147 19.4018 19.7426 19.4018 19.2505Z" fill="#333333"/>
</svg>
