<svg width="36" height="36" viewBox="0 0 36 36" fill="none" xmlns="http://www.w3.org/2000/svg">
<path d="M32.3091 31.6971C31.8906 31.5397 31.4433 31.4739 30.9972 31.5041C30.5511 31.5342 30.1167 31.6597 29.7232 31.8719C28.8486 32.4162 27.839 32.7047 26.8089 32.7047C25.7788 32.7047 24.7692 32.4162 23.8946 31.8719C23.3991 31.6049 22.8409 31.4763 22.2785 31.4995C21.7161 31.5227 21.1704 31.697 20.6986 32.004C19.876 32.464 18.9493 32.7055 18.0068 32.7055C17.0643 32.7055 16.1376 32.464 15.315 32.004C14.8435 31.6972 14.2981 31.523 13.7361 31.4998C13.174 31.4765 12.6161 31.6051 12.1209 31.8719C11.2831 32.3933 10.3209 32.6806 9.33444 32.7038C8.34795 32.727 7.37327 32.4854 6.51189 32.004C6.10049 31.7361 5.63185 31.5687 5.14382 31.5154C4.65579 31.4621 4.16206 31.5243 3.70251 31.6971V29.2452C5.08456 28.9639 6.52186 29.2232 7.7184 29.9699C8.21349 30.2348 8.77049 30.3622 9.33151 30.339C9.89253 30.3158 10.4371 30.1427 10.9086 29.8377C11.7696 29.3552 12.7444 29.1129 13.7312 29.1361C14.7179 29.1593 15.6803 29.4473 16.5176 29.9699C16.9747 30.2148 17.4853 30.3429 18.0039 30.3429C18.5225 30.3429 19.033 30.2148 19.4902 29.9699C20.3271 29.4473 21.2892 29.1593 22.2756 29.136C23.2621 29.1128 24.2366 29.3552 25.0973 29.8377C25.5692 30.1434 26.1145 30.3169 26.6762 30.3401C27.238 30.3634 27.7958 30.2355 28.2913 29.9699C29.4879 29.2232 30.9252 28.9639 32.3072 29.2452L32.3091 31.6971ZM16.3486 23.0805C15.8862 23.4271 15.5447 23.9104 15.3723 24.462C15.1999 25.0135 15.2055 25.6053 15.3882 26.1536C15.5709 26.7018 15.9214 27.1786 16.3902 27.5165C16.8589 27.8544 17.4221 28.0362 18 28.0362C18.5779 28.0362 19.1411 27.8544 19.6098 27.5165C20.0786 27.1786 20.4291 26.7018 20.6118 26.1536C20.7945 25.6053 20.8001 25.0135 20.6277 24.462C20.4553 23.9104 20.1138 23.4271 19.6514 23.0805V19.7776H26.941V17.59H19.6514V14.8408H26.941V12.6415H19.6514V9.89432H26.941V7.695H19.6514V4.94586C19.6514 4.50788 19.4774 4.08783 19.1677 3.77813C18.858 3.46842 18.438 3.29443 18 3.29443C17.562 3.29443 17.142 3.46842 16.8323 3.77813C16.5226 4.08783 16.3486 4.50788 16.3486 4.94586V23.0805ZM12.8145 24.2851C12.757 24.6057 12.7284 24.9308 12.729 25.2565C12.7292 25.679 12.7774 26.1 12.8728 26.5116C12.4534 26.5806 12.0291 26.6157 11.6041 26.6165C10.194 26.6164 8.81097 26.2294 7.60571 25.4974C6.58211 24.8754 5.38379 24.6035 4.19197 24.7231C3.00016 24.8426 1.87968 25.347 1 26.1599V23.4691C2.18902 22.8106 3.53093 22.4779 4.88985 22.5049C6.24876 22.5318 7.57643 22.9174 8.7384 23.6225C9.95719 24.3628 11.4155 24.6016 12.8067 24.2889L12.8145 24.2851ZM35 26.1599C34.2056 25.4293 33.2142 24.9479 32.1488 24.7752C31.0835 24.6026 29.9908 24.7462 29.0063 25.1885L28.4059 25.5052C26.8282 26.4665 24.9568 26.8266 23.135 26.5193C23.3071 25.7884 23.327 25.0298 23.1933 24.2909C24.5845 24.6036 26.0428 24.3647 27.2616 23.6245C27.8098 23.2936 28.3972 23.0325 29.0102 22.8473C29.999 22.5424 31.0393 22.4403 32.0685 22.5471C33.0978 22.654 34.0949 22.9676 35 23.4691V26.1599Z" fill="#333333"/>
</svg>
