<svg width="36" height="36" viewBox="0 0 36 36" fill="none" xmlns="http://www.w3.org/2000/svg">
<path d="M31.5928 18.164V16.1261L28.8109 18.9112C28.6485 17.4419 28.1887 16.021 27.4596 14.7351C26.7305 13.4492 25.7473 12.3251 24.5699 11.4313V4.99689H11.4221V11.4313C10.2466 12.3235 9.26448 13.4451 8.53522 14.7281C7.80596 16.011 7.34473 17.4287 7.17949 18.8951L4.40722 16.118V18.1544H1V21.786H4.40722V23.8224L7.15383 21.0725C7.39181 23.7835 8.63692 26.3069 10.6436 28.1452C12.6503 29.9835 15.273 31.0032 17.9944 31.0032C20.7158 31.0032 23.3384 29.9835 25.3452 28.1452C27.3519 26.3069 28.597 23.7835 28.8349 21.0725L31.5928 23.832V21.7957H35V18.164H31.5928ZM5.31313 21.6305V20.8785H1.90592V19.0635H5.31313V18.3051L6.97265 19.971L5.31313 21.6305ZM17.996 29.1937C16.0207 29.1915 14.1 28.5454 12.5251 27.3533C10.9501 26.1612 9.80673 24.4881 9.2683 22.5876C8.72987 20.6872 8.82573 18.663 9.54135 16.8219C10.257 14.9808 11.5533 13.4233 13.2339 12.3853V6.81193H22.7565V12.3853C24.4369 13.4232 25.7332 14.9806 26.4489 16.8215C27.1645 18.6624 27.2605 20.6865 26.7223 22.5869C26.1841 24.4872 25.041 26.1604 23.4663 27.3526C21.8916 28.5448 19.9711 29.1912 17.996 29.1937ZM34.0941 20.8865H30.6853V21.6385L29.0274 19.979L30.6853 18.3195V19.0715H34.0941V20.8865Z" fill="#333333"/>
<path d="M22.455 18.8583H21.5459C21.5526 19.0658 21.5175 19.2725 21.4427 19.4661C21.3679 19.6598 21.2549 19.8364 21.1105 19.9856C20.9661 20.1347 20.7932 20.2533 20.602 20.3343C20.4109 20.4152 20.2054 20.457 19.9978 20.457C19.7902 20.457 19.5847 20.4152 19.3936 20.3343C19.2024 20.2533 19.0295 20.1347 18.8851 19.9856C18.7407 19.8364 18.6277 19.6598 18.5529 19.4661C18.4781 19.2725 18.443 19.0658 18.4497 18.8583H17.5262V18.8711C17.5328 19.0777 17.4979 19.2836 17.4234 19.4765C17.3489 19.6693 17.2364 19.8453 17.0926 19.9938C16.9488 20.1423 16.7766 20.2604 16.5862 20.3411C16.3959 20.4217 16.1912 20.4633 15.9845 20.4633C15.7778 20.4633 15.5731 20.4217 15.3828 20.3411C15.1924 20.2604 15.0202 20.1423 14.8764 19.9938C14.7326 19.8453 14.6201 19.6693 14.5456 19.4765C14.4711 19.2836 14.4362 19.0777 14.4428 18.8711H13.5353C13.5353 19.282 13.3722 19.6762 13.0818 19.9669C12.7913 20.2576 12.3974 20.4212 11.9864 20.4216V21.3307C12.3794 21.3288 12.7661 21.2328 13.1143 21.0506C13.4625 20.8684 13.7619 20.6055 13.9875 20.2837C14.2144 20.604 14.5149 20.8652 14.8636 21.0455C15.2123 21.2258 15.5991 21.3199 15.9917 21.3199C16.3843 21.3199 16.7711 21.2258 17.1198 21.0455C17.4686 20.8652 17.769 20.604 17.996 20.2837C18.2229 20.604 18.5233 20.8652 18.8721 21.0455C19.2208 21.2258 19.6076 21.3199 20.0002 21.3199C20.3928 21.3199 20.7796 21.2258 21.1283 21.0455C21.4771 20.8652 21.7775 20.604 22.0044 20.2837C22.2319 20.6033 22.5325 20.864 22.8811 21.0439C23.2298 21.2238 23.6164 21.3177 24.0087 21.3179V20.4088C23.8047 20.4094 23.6027 20.3697 23.4141 20.2921C23.2255 20.2144 23.0541 20.1003 22.9098 19.9562C22.7654 19.8122 22.6509 19.641 22.5729 19.4526C22.4949 19.2642 22.4548 19.0622 22.455 18.8583Z" fill="#333333"/>
</svg>
