<svg width="36" height="36" viewBox="0 0 36 36" fill="none" xmlns="http://www.w3.org/2000/svg">
<path d="M32.8852 15.0252H21.5796C22.1187 13.7994 22.9926 12.7505 24.1011 11.999C25.2096 11.2476 26.5075 10.8241 27.8459 10.7773H33.369L35 7.95088H27.0146C24.9127 8.04379 22.888 8.7696 21.2058 10.0332C19.5236 11.2967 18.2625 13.0391 17.5877 15.0319H17.3449V6.99988H6.51482L9.0087 21.1635H14.0497V22.58H12.5866L1 28.2428L1.25271 29.1888H9.58064L12.6066 27.064H15.0838C15.6821 27.9206 16.5326 28.5693 17.5169 28.9197C18.5012 29.2701 19.5703 29.3049 20.5753 29.0191C21.5803 28.7333 22.4711 28.1412 23.1238 27.3253C23.7764 26.5094 24.1584 25.5103 24.2164 24.4671H28.318L28.6423 24.7996C28.3466 25.2529 28.1872 25.7816 28.1832 26.3229C28.1793 26.8641 28.3308 27.3951 28.6197 27.8528C28.9087 28.3104 29.323 28.6755 29.8134 28.9045C30.3038 29.1336 30.8496 29.217 31.3861 29.1449C31.9225 29.0728 32.4269 28.8482 32.8394 28.4978C33.252 28.1474 33.5552 27.6859 33.7131 27.1682C33.8709 26.6505 33.8769 26.0983 33.7301 25.5774C33.5833 25.0564 33.2901 24.5885 32.8852 24.2293V15.0252ZM31.1029 28.2262C30.6991 28.225 30.3063 28.0944 29.9822 27.8536C29.658 27.6127 29.4196 27.2744 29.3019 26.8881C29.1842 26.5018 29.1933 26.088 29.3281 25.7073C29.4628 25.3267 29.716 24.9992 30.0505 24.773L28.8019 23.5227H23.3269C23.3607 23.7378 23.3779 23.9551 23.3785 24.1728C23.3806 25.0827 23.0788 25.9673 22.5209 26.6862C21.9629 27.405 21.1809 27.9169 20.2988 28.1405C19.4168 28.3642 18.4853 28.2868 17.6523 27.9207C16.8192 27.5546 16.1323 26.9207 15.7006 26.1197H12.4054L9.3778 28.2428H3.2445L12.8992 23.5227H15.0855V20.2175H9.89154L7.73017 7.94423H16.4987V15.9779H18.3824C18.8953 14.0191 20.0208 12.2756 21.5947 11.0017C23.1685 9.72786 25.1083 8.99037 27.131 8.8969H33.4671L32.9218 9.82628H27.934C26.1737 9.88469 24.4809 10.5176 23.114 11.6284C21.7472 12.7391 20.7814 14.2667 20.3642 15.9779H32.0373V24.7065C32.3984 24.9131 32.6812 25.2332 32.8417 25.6171C33.0023 26.001 33.0315 26.4271 32.925 26.8293C32.8185 27.2316 32.5821 27.5874 32.2526 27.8414C31.9231 28.0955 31.519 28.2337 31.1029 28.2345V28.2262Z" fill="#333333"/>
<path fill-rule="evenodd" clip-rule="evenodd" d="M17.8551 18.9559C18.0242 19.0062 18.193 19.0563 18.3538 19.1234C18.9936 19.3982 19.2795 19.9761 19.2558 20.6585C19.2517 20.9677 19.1453 21.2672 18.9532 21.5096C18.7612 21.7519 18.4943 21.9237 18.1942 21.9984C17.6856 22.1184 17.0584 22.0805 16.6319 21.7567C16.2054 21.4328 16.0506 20.8878 16 20.3807L16.5703 20.3128L16.7804 20.2874C16.8118 20.4559 16.861 20.6205 16.9273 20.7786C16.9925 20.9066 17.0914 21.0146 17.2133 21.0906C17.3352 21.1666 17.4756 21.2081 17.6192 21.2103C17.9857 21.2229 18.3901 21.0347 18.4422 20.6429C18.4944 20.2511 18.2084 20.0932 17.8925 19.9842C17.7866 19.9477 17.6782 19.9153 17.5695 19.8826C17.2875 19.7979 17.0032 19.7122 16.7535 19.556C16.0253 19.1026 15.9258 17.9416 16.5576 17.3651C17.1153 16.8516 18.2274 16.8849 18.7519 17.4315C19.0066 17.7264 19.1433 18.1048 19.1357 18.4944C19.1155 18.5121 19.0288 18.5077 18.9802 18.5052C18.968 18.5046 18.9582 18.5042 18.9525 18.5042L18.3285 18.534C18.2909 18.3702 18.2347 18.211 18.1611 18.0599C17.9541 17.7708 17.4375 17.7598 17.1485 17.9178C16.8057 18.1137 16.8673 18.5372 17.1832 18.7078C17.3952 18.8188 17.6255 18.8875 17.8551 18.9559ZM20.8294 17.9241H19.6367V17.095H22.8198V17.9241H21.635V21.9764H20.8294V17.9241ZM25.0283 17.0154C24.6718 17.0052 24.3204 17.1014 24.0189 17.2918C23.7194 17.5023 23.4856 17.7931 23.3443 18.1307C23.157 18.585 23.0687 19.0741 23.0852 19.5652C23.0852 20.3656 23.2764 20.9948 23.6587 21.4529C23.8261 21.6517 24.037 21.8095 24.275 21.9139C24.513 22.0182 24.7718 22.0665 25.0315 22.055C25.2908 22.0663 25.5492 22.017 25.7863 21.9114C26.0234 21.8059 26.2328 21.6469 26.3979 21.4466C26.777 20.9885 26.9666 20.3512 26.9666 19.535C26.9666 18.7188 26.7876 18.0977 26.4295 17.6712C26.2624 17.4611 26.049 17.2923 25.8059 17.1785C25.5628 17.0648 25.2966 17.0091 25.0283 17.0154ZM25.8276 20.7943C25.7395 20.9223 25.6216 21.027 25.484 21.0994C25.3464 21.1718 25.1932 21.2098 25.0378 21.2098C24.8822 21.2085 24.7292 21.1698 24.5917 21.097C24.4543 21.0241 24.3363 20.9188 24.2479 20.7908C24.0373 20.5107 23.932 20.0895 23.932 19.5272C23.932 18.9648 24.0373 18.5436 24.2479 18.2635C24.3391 18.1348 24.4602 18.0301 24.6009 17.9588C24.7415 17.8875 24.8975 17.8517 25.0551 17.8543C25.2115 17.8514 25.3661 17.8869 25.5057 17.9573C25.6453 18.0278 25.7656 18.1311 25.8561 18.2586C26.0614 18.5287 26.1625 18.9461 26.1625 19.5101C26.1625 20.074 26.0377 20.5162 25.8276 20.7943ZM30.4992 17.7562C30.5906 17.9319 30.6443 18.1249 30.6568 18.3226C30.7237 18.7565 30.6401 19.2006 30.4198 19.5804C30.3264 19.7264 30.2008 19.8487 30.0527 19.9388C29.9046 20.0289 29.7379 20.0841 29.5652 20.0999C29.532 20.1047 28.4073 20.1582 28.4073 20.1424V21.9813H27.6016V17.1141C27.6016 17.0879 27.7627 17.0956 27.8354 17.0989C27.8505 17.0996 27.8618 17.0999 27.867 17.0999C28.0193 17.0999 28.1715 17.0984 28.3237 17.097C28.6279 17.0942 28.9318 17.0915 29.2351 17.0999C29.2433 17.1002 29.2516 17.1006 29.2599 17.1009C29.5617 17.11 29.8723 17.1191 30.126 17.3021C30.2807 17.4258 30.4078 17.5804 30.4992 17.7562ZM28.9023 19.3104C29.1411 19.3115 29.432 19.3128 29.6189 19.1522C29.7426 19.0299 29.8213 18.8692 29.8422 18.6966C29.8632 18.5239 29.8251 18.3493 29.7342 18.201C29.5589 17.9245 29.2603 17.9246 28.9697 17.9246H28.4041V19.3099H28.8449C28.8636 19.3099 28.8828 19.3103 28.9023 19.3104Z" fill="#333333"/>
</svg>
