<svg width="36" height="36" viewBox="0 0 36 36" fill="none" xmlns="http://www.w3.org/2000/svg">
<path d="M30.2189 10.7244V3.57697H15.6308V10.7244C13.6152 12.2521 12.1302 14.3742 11.3852 16.7911C10.6403 19.2081 10.6731 21.798 11.4789 24.1953C12.2848 26.5926 13.8231 28.6764 15.8767 30.1526C17.9304 31.6289 20.3957 32.423 22.9248 32.423C25.454 32.423 27.9193 31.6289 29.9729 30.1526C32.0266 28.6764 33.5648 26.5926 34.3707 24.1953C35.1766 21.798 35.2094 19.2081 34.4644 16.7911C33.7195 14.3742 32.2345 12.2521 30.2189 10.7244ZM22.9328 30.45C20.7429 30.4417 18.6152 29.7211 16.8709 28.397C15.1267 27.0728 13.8606 25.2171 13.264 23.11C12.6674 21.0029 12.7726 18.7589 13.5638 16.7169C14.3549 14.6749 15.7891 12.9457 17.6496 11.7906V5.59395H28.2072V11.7853C30.0676 12.9403 31.5016 14.6693 32.2928 16.7112C33.084 18.753 33.1894 20.9968 32.593 23.1038C31.9966 25.2108 30.7309 27.0666 28.9869 28.3908C27.243 29.7151 25.1155 30.436 22.9257 30.4446L22.9328 30.45Z" fill="#333333"/>
<path d="M2.00583 12.1816H1V26.0695L10.8504 20.3687L2.00583 15.2489V12.1816ZM8.8387 20.3687L2.00583 24.3227V16.4147L8.8387 20.3687Z" fill="#333333"/>
<path d="M27.8731 18.9735H26.8655C26.8655 19.4293 26.6844 19.8664 26.3621 20.1887C26.0399 20.5109 25.6028 20.692 25.147 20.692C24.6913 20.692 24.2542 20.5109 23.9319 20.1887C23.6096 19.8664 23.4286 19.4293 23.4286 18.9735H22.421C22.421 19.4293 22.2399 19.8664 21.9177 20.1887C21.5954 20.5109 21.1583 20.692 20.7025 20.692C20.2468 20.692 19.8097 20.5109 19.4874 20.1887C19.1651 19.8664 18.9841 19.4293 18.9841 18.9735H17.9765C17.977 19.1993 17.9329 19.423 17.8469 19.6318C17.7608 19.8406 17.6345 20.0304 17.4751 20.1903C17.3156 20.3502 17.1262 20.4772 16.9177 20.5639C16.7092 20.6506 16.4857 20.6953 16.2598 20.6955V21.7031C16.6951 21.7031 17.1239 21.5987 17.5105 21.3986C17.897 21.1986 18.2299 20.9087 18.4812 20.5534C18.7327 20.9084 19.0657 21.1979 19.4522 21.3977C19.8387 21.5975 20.2674 21.7018 20.7025 21.7018C21.1376 21.7018 21.5664 21.5975 21.9529 21.3977C22.3394 21.1979 22.6723 20.9084 22.9239 20.5534C23.1752 20.9087 23.5081 21.1986 23.8946 21.3986C24.2811 21.5987 24.71 21.7031 25.1452 21.7031C25.5805 21.7031 26.0093 21.5987 26.3959 21.3986C26.7824 21.1986 27.1153 20.9087 27.3666 20.5534C27.6181 20.9085 27.951 21.1982 28.3375 21.3982C28.724 21.5983 29.1528 21.7028 29.5879 21.7031V20.6955C29.1328 20.6927 28.6971 20.5102 28.3759 20.1876C28.0547 19.8651 27.874 19.4287 27.8731 18.9735Z" fill="#333333"/>
</svg>
