<svg width="36" height="36" viewBox="0 0 36 36" fill="none" xmlns="http://www.w3.org/2000/svg">
<path d="M5.00564 28.2657H3.07935V35.0001H5.00564V32.5943H8.37368V30.6697H5.00564V28.2657Z" fill="#333333"/>
<path d="M25.7002 30.6713H18.9624V32.5942H25.7002V30.6713Z" fill="#333333"/>
<path d="M17.0376 30.6697H10.2999V32.5943H17.0376V30.6697Z" fill="#333333"/>
<path d="M25.0473 7.67991V0.999939H10.9529V7.68501C8.98961 9.16271 7.54065 11.2203 6.81098 13.5667C6.08131 15.9131 6.10787 18.4296 6.88691 20.7601C7.66595 23.0905 9.15802 25.1171 11.1521 26.553C13.1461 27.989 15.5411 28.7616 17.9984 28.7616C20.4556 28.7616 22.8507 27.989 24.8447 26.553C26.8388 25.1171 28.3308 23.0905 29.1099 20.7601C29.8889 18.4296 29.9155 15.9131 29.1858 13.5667C28.4561 11.2203 27.0072 9.16271 25.0439 7.68501L25.0473 7.67991ZM18.0052 26.817C15.8734 26.8196 13.7992 26.1255 12.0983 24.8405C10.3974 23.5554 9.16294 21.7498 8.58292 19.6985C8.0029 17.6471 8.10906 15.4624 8.88523 13.477C9.66141 11.4915 11.0651 9.81409 12.8826 8.70001V2.92963H23.1244V8.69491C24.9428 9.8086 26.3475 11.486 27.1245 13.4718C27.9015 15.4576 28.0083 17.6428 27.4287 19.6949C26.849 21.747 25.6146 23.5534 23.9134 24.8391C22.2123 26.1248 20.1376 26.8194 18.0052 26.817Z" fill="#333333"/>
<path d="M30.9944 28.2657V30.6697H27.6264V32.5943H30.9944V35.0001H32.9207V28.2657H30.9944Z" fill="#333333"/>
<path d="M22.65 15.6299C22.65 15.5993 22.65 15.5687 22.65 15.5381H21.788C21.788 15.5823 21.788 15.6282 21.788 15.6724C21.788 16.1233 21.6089 16.5557 21.29 16.8746C20.9712 17.1934 20.5388 17.3725 20.0878 17.3725C19.6369 17.3725 19.2045 17.1934 18.8856 16.8746C18.5668 16.5557 18.3877 16.1233 18.3877 15.6724C18.3877 15.6282 18.3877 15.5823 18.3877 15.5381H17.5716C17.5716 15.5823 17.5716 15.6282 17.5716 15.6724C17.5716 16.1233 17.3925 16.5557 17.0736 16.8746C16.7548 17.1934 16.3223 17.3725 15.8714 17.3725C15.4205 17.3725 14.9881 17.1934 14.6692 16.8746C14.3504 16.5557 14.1712 16.1233 14.1712 15.6724C14.1712 15.6282 14.1712 15.5823 14.1712 15.5381H13.3467C13.3467 15.5704 13.3467 15.601 13.3467 15.6316C13.3455 16.1015 13.1676 16.5538 12.8481 16.8984C12.5287 17.2431 12.0912 17.4548 11.6227 17.4916V18.4743C12.053 18.4759 12.4768 18.3696 12.8554 18.1653C13.2341 17.961 13.5555 17.6651 13.7904 17.3045C14.037 17.6297 14.3555 17.8933 14.7209 18.0748C15.0864 18.2563 15.4889 18.3508 15.8969 18.3508C16.305 18.3508 16.7075 18.2563 17.0729 18.0748C17.4384 17.8933 17.7569 17.6297 18.0034 17.3045C18.2496 17.6303 18.5679 17.8945 18.9334 18.0764C19.2989 18.2583 19.7017 18.353 20.1099 18.353C20.5182 18.353 20.9209 18.2583 21.2864 18.0764C21.652 17.8945 21.9703 17.6303 22.2165 17.3045C22.4507 17.6647 22.7712 17.9607 23.1489 18.1656C23.5265 18.3705 23.9494 18.4777 24.3791 18.4777V17.495C23.9088 17.4594 23.4693 17.2474 23.1487 16.9016C22.8281 16.5557 22.6499 16.1015 22.65 15.6299Z" fill="#333333"/>
</svg>
