<svg width="36" height="36" viewBox="0 0 36 36" fill="none" xmlns="http://www.w3.org/2000/svg">
<path d="M1.00222 31.25V29.99H7.29778V10.1856C7.2979 9.15107 7.07273 8.12897 6.63793 7.1903C6.20314 6.25162 5.56913 5.4189 4.78 4.75C6.24803 5.2399 7.52463 6.17944 8.42883 7.43543C9.33304 8.69143 9.81898 10.2002 9.81778 11.7478V29.99H12.3333V22.1011H14.8511V29.99H17.3711V22.1011H19.8889V29.99H22.4067V22.1011H24.9267V29.99H27.4444V22.1011H29.9622V29.99H32.48V22.1011H35V31.25H1H1.00222ZM12.3333 19.8922V10.1856C12.3335 9.15107 12.1083 8.12897 11.6735 7.1903C11.2387 6.25162 10.6047 5.4189 9.81556 4.75C11.2832 5.23978 12.5596 6.17898 13.4637 7.43453C14.3679 8.69008 14.8541 10.1983 14.8533 11.7456V17.3678L12.3333 19.8922ZM19.8889 11.5833C19.8554 10.0641 19.3535 8.5923 18.4517 7.36917C17.55 6.14604 16.2925 5.23129 14.8511 4.75C15.6413 5.4181 16.2762 6.25061 16.7115 7.18943C17.1467 8.12825 17.3719 9.15075 17.3711 10.1856V14.8522L19.8889 12.33V11.5833ZM16.1267 19.8922L22.4222 13.5833H35V19.8922H16.1267Z" fill="#333333"/>
</svg>
