<svg width="36" height="36" viewBox="0 0 36 36" fill="none" xmlns="http://www.w3.org/2000/svg">
<path d="M1 17.5417H13.2302V16.6347H1V17.5417ZM4.14088 13.6541L4.78187 13.0131L7.1151 15.3511L9.44832 13.0131L10.0893 13.6541L7.1151 16.6347L4.14088 13.6541ZM9.44832 29.3392L7.1151 27.0012L4.78187 29.3392L4.14088 28.6982L7.1151 25.7176L10.0893 28.6982L9.44832 29.3392ZM1 25.7176H35V19.1474H33.1892V24.8186H31.3768V19.1394H29.566V24.8106H27.7616V19.1394H25.9411V24.8106H24.1303V19.1394H22.3131V24.8106H20.5023V19.1394H18.6947V24.8106H16.8839V11.574C16.8594 10.4814 16.4981 9.42301 15.8493 8.54356C15.2004 7.66411 14.2958 7.00655 13.259 6.6608C13.8266 7.14181 14.2826 7.74055 14.5956 8.41546C14.9086 9.09038 15.071 9.82532 15.0715 10.5693V24.8106H1V25.7176ZM21.4237 17.5577L25.9524 13.0195H35V17.5577H21.4237ZM18.6995 10.5773V17.5577L20.5119 15.7437V11.6926C20.512 10.5792 20.1616 9.49397 19.5105 8.59082C18.8593 7.68768 17.9403 7.01242 16.8839 6.6608C17.4511 7.14196 17.9069 7.74077 18.2196 8.41567C18.5323 9.09058 18.6944 9.82544 18.6947 10.5693L18.6995 10.5773ZM22.3195 10.5693V13.9201L24.1303 12.1093V11.6846C24.1313 10.5726 23.7817 9.48861 23.1312 8.58671C22.4807 7.68481 21.5625 7.01091 20.5071 6.6608C21.0735 7.14241 21.5283 7.74142 21.8402 8.41631C22.152 9.09119 22.3134 9.82582 22.3131 10.5693" fill="#333333"/>
</svg>
