<svg width="36" height="36" viewBox="0 0 36 36" fill="none" xmlns="http://www.w3.org/2000/svg">
<path d="M18.2038 2.31217C13.5824 2.29949 9.09253 3.8504 5.46424 6.71277L7.78101 1.43496L6.84921 1L3.36768 9.00771L12.0087 8.0304L11.8813 7.00578L5.9447 7.6646C9.67731 4.66353 14.3805 3.13473 19.1643 3.36748C23.948 3.60023 28.4806 5.57839 31.9042 8.92763L32.6322 8.19966C28.7813 4.42039 23.5994 2.30592 18.2038 2.31217Z" fill="#333333"/>
<path d="M30.0679 17.5342L27.5728 16.8808C26.9608 15.4815 26.0509 14.2325 24.9066 13.2209L24.2205 10.2817L21.1594 7.28248L19.2175 7.09139L20.9919 8.83671L19.2011 10.6712C18.8047 10.627 18.4061 10.6057 18.0072 10.6075C16.8578 10.603 15.7154 10.7875 14.6258 11.1535L11.794 10.2817L7.66092 11.4265L6.52346 13.0116L8.92213 12.3492L9.61735 14.8625C8.70102 16.0842 8.06702 17.4939 7.76102 18.9901L5.5771 21.0357L4.49969 25.1888L5.30229 26.9651L5.92834 24.5573L8.41255 25.2052C9.02865 26.612 9.94702 27.8659 11.1024 28.8778L11.7758 31.8024L14.8333 34.8072L16.7733 35.0001L15.0007 33.2529L16.8097 31.433C17.2033 31.4745 17.5988 31.4939 17.9945 31.4912C19.1318 31.492 20.2615 31.3076 21.3395 30.9453L24.1987 31.8206L28.3317 30.6741L29.4692 29.0871L27.0705 29.7514L26.3844 27.2672C27.2953 26.0365 27.9207 24.6184 28.2152 23.1159L30.421 21.0648L31.4929 16.9099L30.6885 15.1337L30.0679 17.5342ZM17.9981 30.2537C16.1768 30.2537 14.3964 29.7136 12.882 28.7017C11.3676 27.6898 10.1873 26.2516 9.49026 24.5689C8.79326 22.8862 8.6109 21.0346 8.96622 19.2483C9.32155 17.4619 10.1986 15.8211 11.4865 14.5332C12.7744 13.2453 14.4152 12.3682 16.2016 12.0129C17.9879 11.6576 19.8395 11.8399 21.5222 12.5369C23.2049 13.2339 24.6431 14.4143 25.655 15.9286C26.6669 17.443 27.207 19.2235 27.207 21.0448C27.2072 22.2542 26.9692 23.4518 26.5065 24.5692C26.0438 25.6866 25.3655 26.7018 24.5103 27.557C23.6552 28.4122 22.6399 29.0905 21.5225 29.5532C20.4051 30.0159 19.2075 30.2539 17.9981 30.2537Z" fill="#333333"/>
<path d="M18.4495 19.7999C18.2046 19.711 17.9389 19.6967 17.6859 19.7587C17.4329 19.8208 17.204 19.9565 17.0281 20.1486C16.8522 20.3407 16.7372 20.5806 16.6976 20.8381C16.658 21.0956 16.6956 21.359 16.8056 21.5951C16.9156 21.8312 17.0932 22.0294 17.3158 22.1646C17.5385 22.2998 17.7962 22.366 18.0564 22.3548C18.3167 22.3437 18.5678 22.2556 18.778 22.1018C18.9882 21.9479 19.1481 21.7353 19.2375 21.4906C19.3571 21.1619 19.3412 20.7991 19.1935 20.4821C19.0457 20.1651 18.7781 19.9197 18.4495 19.7999Z" fill="#333333"/>
</svg>
