<svg width="36" height="36" viewBox="0 0 36 36" fill="none" xmlns="http://www.w3.org/2000/svg">
<path d="M8.13765 28.8119C7.79493 28.7957 7.45473 28.8779 7.15731 29.049C6.85989 29.22 6.6177 29.4727 6.4594 29.7771H6.43523V28.9587H5.02979V34.5425H6.49911V31.3414C6.49911 30.4919 7.00328 30.0499 7.6542 30.0499C8.58656 30.0499 8.609 30.7405 8.609 31.1532V34.5425H10.0783V30.6801C10.0783 29.4525 9.22712 28.8119 8.13765 28.8119Z" fill="#333333"/>
<path d="M10.4168 35H11.6444L13.6817 28.1023H12.4541L10.4168 35Z" fill="#333333"/>
<path d="M20.0649 28.8119C19.1722 28.8119 18.763 29.4317 18.5748 29.7045C18.1967 29.1054 17.8289 28.8119 17.0209 28.8119C16.6909 28.7969 16.3639 28.8807 16.0819 29.0526C15.7998 29.2246 15.5755 29.4768 15.4376 29.777H15.4152V28.9586H14.008V34.5424H15.4773V31.1428C15.4773 30.5333 15.6983 30.0498 16.3907 30.0498C17.2713 30.0498 17.2713 30.7111 17.2713 31.1842V34.5424H18.7406V31.1946C18.7406 30.5333 19.003 30.0498 19.7386 30.0498C20.1685 30.0498 20.5362 30.3226 20.5362 31.1531V34.5424H22.0056V30.68C22.0073 29.4524 21.1561 28.8119 20.0649 28.8119Z" fill="#333333"/>
<path d="M24.6922 28.9586H23.2229V34.5424H24.6922V28.9586Z" fill="#333333"/>
<path d="M24.6922 26.785H23.2229V28.149H24.6922V26.785Z" fill="#333333"/>
<path d="M29.0293 28.8118C28.6867 28.796 28.3467 28.8784 28.0493 29.0494C27.752 29.2204 27.5097 29.4729 27.3511 29.777H27.3304V28.9586H25.9215V34.5424H27.3908V31.3413C27.3908 30.4918 27.895 30.0498 28.5459 30.0498C29.48 30.0498 29.5007 30.7404 29.5007 31.1531V34.5424H30.97V30.68C30.9769 29.4524 30.1274 28.8118 29.0293 28.8118Z" fill="#333333"/>
<path d="M17.5751 15.4135C17.8078 15.4983 18.0603 15.5122 18.3009 15.4534C18.5414 15.3947 18.7591 15.2659 18.9265 15.0834C19.0938 14.9009 19.2033 14.6729 19.241 14.4282C19.2788 14.1834 19.2431 13.933 19.1385 13.7086C19.0339 13.4842 18.865 13.2958 18.6534 13.1673C18.4417 13.0388 18.1967 12.976 17.9493 12.9868C17.7019 12.9976 17.4633 13.0816 17.2636 13.228C17.0639 13.3744 16.9122 13.5768 16.8275 13.8095C16.7141 14.1213 16.7291 14.4655 16.8693 14.7662C17.0095 15.067 17.2634 15.2998 17.5751 15.4135Z" fill="#333333"/>
<path d="M6.55268 17.5753L8.90947 18.1813C9.49347 19.5188 10.3647 20.7113 11.4614 21.6742L12.1088 24.4436L15.013 27.2942L16.8535 27.4773L15.1718 25.8197L16.888 24.0931C18.3351 24.2358 19.796 24.074 21.1769 23.6183L23.8894 24.4471L27.8104 23.3593L28.8896 21.8537L26.6122 22.4891L25.9613 20.1323C26.8261 18.9649 27.42 17.6196 27.6999 16.194L29.7926 14.2481L30.8095 10.3063L30.0464 8.62117L29.4542 10.9072L27.0801 10.2873C26.4995 8.95976 25.6363 7.77482 24.5506 6.81515L23.9066 4.03189L21.0025 1.18129L19.1602 1L20.8437 2.6558L19.1361 4.3962C18.76 4.35423 18.3818 4.33405 18.0034 4.33577C16.9129 4.33154 15.8292 4.50653 14.7954 4.85375L12.1175 4.02326L8.19639 5.11274L7.11728 6.6166L9.39292 5.98812L10.0525 8.37254C9.18314 9.53158 8.58166 10.869 8.29136 12.2884L6.21945 14.2291L5.20249 18.1692L5.96564 19.8544L6.55268 17.5753ZM18.0034 5.5064C19.7313 5.5064 21.4205 6.01879 22.8572 6.97877C24.2939 7.93876 25.4137 9.30322 26.0749 10.8996C26.7362 12.496 26.9092 14.2526 26.5721 15.9474C26.235 17.6421 25.4029 19.1988 24.1811 20.4206C22.9593 21.6424 21.4026 22.4745 19.7078 22.8116C18.0131 23.1487 16.2565 22.9757 14.6601 22.3145C13.0637 21.6532 11.6992 20.5334 10.7393 19.0967C9.77927 17.66 9.26688 15.9709 9.26688 14.2429C9.2662 13.0952 9.49167 11.9586 9.93042 10.898C10.3692 9.83746 11.0126 8.87374 11.8239 8.06192C12.6353 7.25011 13.5986 6.60612 14.6589 6.16674C15.7192 5.72737 16.8557 5.50122 18.0034 5.50122V5.5064Z" fill="#333333"/>
</svg>
