<svg width="36" height="36" viewBox="0 0 36 36" fill="none" xmlns="http://www.w3.org/2000/svg">
<path d="M12.3779 23.0372H3.53913C3.21918 23.0372 3.11745 22.9305 3.11745 22.5925V9.16774H2.18713V23.0454C2.19189 23.2854 2.28781 23.5146 2.45541 23.6864C2.62301 23.8583 2.84974 23.96 3.08956 23.9707H11.9267C12.2549 23.9707 12.3484 24.0823 12.3484 24.4187V30.2549H13.2787V24.0085C13.2787 23.5163 12.8521 23.0372 12.3779 23.0372Z" fill="#333333"/>
<path d="M18.4651 32.2878V25.0537L24.0585 19.4898L22.7443 19.4865L18.0008 24.2087L13.2573 19.4865H11.9431L17.5348 25.0537V32.2878L15.3674 28.5337L14.5585 28.9997L18.0221 35L21.4415 28.9997L20.6326 28.5337L18.4651 32.2878Z" fill="#333333"/>
<path d="M7.37358 18.9779C9.28507 18.9976 9.99881 15.0483 10.2531 12.7922L15.1492 12.8037C15.6578 16.0278 16.2567 18.9976 18.0008 18.9976C19.8434 18.9976 20.4275 16.0721 20.8525 12.7889H25.6747C26.0833 15.1861 26.7133 18.8795 28.5871 18.9746C30.428 19.0681 30.9038 16.4724 31.2123 14.7283C31.3806 13.7563 31.4739 12.7727 31.4912 11.7864V7.17913H26.7986C26.2933 3.87627 25.8273 1 23.7698 1C21.855 1 21.3201 4.26021 20.8919 7.01834H15.1082C14.6947 4.51945 14.1467 1 12.2319 1C10.3549 1 9.66573 3.57437 9.19647 7.17749H4.49403V11.7881C4.47829 12.1256 4.49312 12.4639 4.53833 12.7988C4.68108 14.3739 5.06666 19.0632 7.37358 18.9779ZM28.6511 16.9384C28.1112 15.9769 27.6469 13.862 27.3499 11.5009L27.4385 11.5551C27.9674 11.8592 28.563 12.0283 29.1728 12.0473H29.629C29.6273 13.4091 29.35 15.9572 28.6511 16.9384ZM29.6355 8.87241V11.1039H29.2089C28.0341 10.9923 27.4664 10.5394 27.217 10.2835C27.1973 10.208 27.1186 9.41386 27.053 8.87241H29.6355ZM18.0008 17.0877C17.5414 16.3412 17.2346 14.9236 17.0164 12.7971H18.9984C18.772 14.8957 18.4881 16.3756 18.0008 17.0877ZM23.7698 2.90985C24.349 3.69414 24.6902 5.55805 25.1037 8.46878C24.4917 8.00444 23.522 7.97655 23.2431 7.96342C23.2431 7.96342 22.9789 7.94373 22.6803 7.94373C22.6737 7.14468 23.2431 3.6039 23.7698 2.90985ZM12.2319 2.90985C12.839 3.74008 13.3214 7.21523 13.3214 7.94209C13.0244 7.94209 12.5912 7.96178 12.5912 7.96178C12.3123 7.97983 11.6199 7.92076 10.8996 8.46221C11.1687 5.54165 11.5067 3.95338 12.2319 2.91149V2.90985ZM10.7191 9.73053C11.3291 9.21477 12.092 8.91433 12.8898 8.87569H23.1135C23.8206 8.87569 24.8773 9.19236 25.2826 9.72725C25.3384 10.4361 25.4466 11.0989 25.4466 11.0989H10.5156C10.5156 11.0989 10.6239 10.5312 10.7191 9.73053ZM6.37271 8.87569H8.96348C8.88965 9.41714 8.81089 10.2605 8.79941 10.336C8.50079 10.5 7.94128 10.9923 6.76649 11.1039H6.37271V8.87569ZM7.0684 12.0391C7.82643 12.0128 8.65502 11.4714 8.65174 11.5009C8.5254 13.2319 7.83135 16.059 7.33912 16.9417C6.58765 16.0262 6.37271 13.4173 6.37271 12.0374L7.0684 12.0391Z" fill="#333333"/>
<path d="M32.8842 9.16774V22.5925C32.8842 22.9305 32.7808 23.0372 32.4609 23.0372H23.6237C23.1577 23.0372 22.7229 23.5163 22.7229 24.0085V30.2549H23.6532V24.4154C23.6532 24.079 23.7533 23.9675 24.0733 23.9675H32.9121C33.1511 23.9563 33.3769 23.855 33.5441 23.6838C33.7113 23.5127 33.8073 23.2845 33.8129 23.0454V9.16774H32.8842Z" fill="#333333"/>
</svg>
