<svg width="36" height="36" viewBox="0 0 36 36" fill="none" xmlns="http://www.w3.org/2000/svg">
<path d="M21.927 12.0332V14.9613L24.8533 12.0332H21.927Z" fill="#333333"/>
<path d="M35 25.1062V22.1871L32.0863 25.1062H35Z" fill="#333333"/>
<path d="M29.1762 25.1062L35 19.277V16.3849L26.2841 25.1062H29.1762Z" fill="#333333"/>
<path d="M33.5494 12.0332L21.927 23.6575V25.1062H23.3649L35 13.4748V12.0332H33.5494Z" fill="#333333"/>
<path d="M27.7454 12.0332L21.927 17.8552V20.7636L30.6555 12.0332H27.7454Z" fill="#333333"/>
<path d="M14.4041 26.3047L15.4912 26.3083L21.5382 9.69168L20.4494 9.69348L14.4041 26.3047Z" fill="#333333"/>
<path d="M9.93553 15.6775V14.4177C9.94458 14.077 9.88529 13.738 9.76115 13.4205C9.63702 13.1031 9.45056 12.8138 9.21277 12.5696C8.97499 12.3254 8.6907 12.1313 8.37668 11.9988C8.06266 11.8663 7.72528 11.798 7.38445 11.798C7.04361 11.798 6.70623 11.8663 6.39222 11.9988C6.0782 12.1313 5.79391 12.3254 5.55613 12.5696C5.31834 12.8138 5.13188 13.1031 5.00774 13.4205C4.88361 13.738 4.82432 14.077 4.83337 14.4177V15.6775H3.39361L1 25.2574H13.7545L11.3591 15.6775H9.93553ZM8.66314 15.6775H6.11116V14.4177C6.10955 14.0741 6.24191 13.7434 6.48014 13.4958C6.71837 13.2481 7.04372 13.1031 7.38715 13.0914C7.73057 13.1031 8.05592 13.2481 8.29415 13.4958C8.53238 13.7434 8.66474 14.0741 8.66314 14.4177V15.6775Z" fill="#333333"/>
</svg>
