<svg width="36" height="36" viewBox="0 0 36 36" fill="none" xmlns="http://www.w3.org/2000/svg">
<path d="M32.8783 9.48654V12.0656C32.4949 11.8419 32.0461 11.7572 31.6075 11.8257C31.6137 11.6321 31.5752 11.4398 31.4949 11.2636C31.4146 11.0874 31.2947 10.9321 31.1445 10.8098C30.9644 10.6751 30.7569 10.5816 30.5367 10.5359C30.3164 10.4902 30.0888 10.4935 29.87 10.5455C29.8445 10.3153 29.762 10.0951 29.6302 9.90466C29.4983 9.71423 29.3212 9.5596 29.1147 9.45468C28.7604 9.28739 28.3593 9.24702 27.9788 9.34035C27.7701 8.863 27.3874 8.48303 26.9086 8.27761C26.7149 8.18719 26.5038 8.14033 26.2901 8.14033C26.0763 8.14033 25.8652 8.18719 25.6716 8.27761C25.5521 8.02618 25.355 7.81984 25.1093 7.68908C24.8972 7.56623 24.6589 7.49569 24.4141 7.48331C24.1693 7.47092 23.9251 7.51705 23.7017 7.61786C23.5525 7.35615 23.3204 7.15168 23.0419 7.03682C22.5602 6.80815 22.0335 7.01995 21.6399 7.22425C21.5211 7.02464 21.3578 6.85517 21.1627 6.72903C20.9677 6.60288 20.7461 6.52349 20.5153 6.49702C20.2761 6.46339 20.0325 6.47932 19.7997 6.54381C19.5669 6.60829 19.3499 6.71996 19.1621 6.87188C19.0226 6.69898 18.8457 6.55992 18.6448 6.46513C18.4438 6.37035 18.224 6.32229 18.0019 6.32458C17.5755 6.30897 17.1575 6.44586 16.8229 6.71069C16.534 6.4942 16.179 6.38427 15.8183 6.39955C15.5802 6.39695 15.3446 6.4482 15.1291 6.54946C14.9136 6.65072 14.7237 6.79939 14.5738 6.98434C14.141 6.73441 13.634 6.64483 13.1418 6.73131C12.6319 6.80358 12.1633 7.05149 11.8166 7.4323C11.4811 7.22613 11.0838 7.14553 10.3378 7.34796C10.107 7.39544 9.89049 7.49605 9.70537 7.6418C9.52025 7.78756 9.37164 7.97445 9.27133 8.18765C8.89428 8.04706 8.48267 8.02805 8.09427 8.13329C7.42701 8.27574 7.0409 8.7968 6.82348 9.15292C6.47861 9.06295 5.92007 9.04046 5.27343 9.64399C4.98837 9.93424 4.77916 10.2902 4.66428 10.6805C4.10529 10.7153 3.56945 10.9164 3.12547 11.2578V9.48654H1V21.1822L11.0088 29.6766H24.9912L35 21.1822V9.48654H32.8783ZM24.2133 27.5512H11.7885L3.12547 20.1945V13.0852L3.32789 13.1021C3.4366 11.9475 4.24068 11.7601 4.93605 11.7263C5.01913 11.7256 5.10172 11.7136 5.18159 11.6907L5.20783 11.6814C5.48523 11.5745 5.5677 11.3271 5.64829 11.0891C5.71123 10.8413 5.83198 10.612 6.00066 10.42C6.34928 10.0938 6.49548 10.1519 6.68104 10.2325C6.84604 10.3166 7.03632 10.3366 7.21522 10.2887L7.26957 10.2681C7.43836 10.1789 7.57088 10.0338 7.64443 9.85766C7.77563 9.62899 7.99305 9.24851 8.31169 9.18103C8.75402 9.08732 8.88523 9.18103 9.01081 9.25975C9.15011 9.36643 9.31905 9.42732 9.49438 9.43406H9.55623C10.0098 9.37971 10.1298 8.97673 10.1804 8.80242C10.2404 8.6 10.2778 8.47817 10.6171 8.38445C11.1438 8.24013 11.2037 8.28886 11.4493 8.49503L11.5749 8.59812L11.7079 8.70496H11.8785C11.9835 8.70753 12.0873 8.6813 12.1785 8.62909C12.2697 8.57689 12.3448 8.50071 12.3958 8.40882C12.4899 8.24591 12.6188 8.10582 12.7734 7.99857C12.928 7.89131 13.1043 7.81955 13.2899 7.78842C13.884 7.70407 14.1277 7.95523 14.2439 8.07706C14.3024 8.1477 14.3766 8.20377 14.4605 8.24085C14.5444 8.27793 14.6358 8.295 14.7275 8.29073C14.8326 8.27877 14.9328 8.23917 15.0177 8.17596C15.1027 8.11275 15.1694 8.02819 15.211 7.93087C15.3666 7.6441 15.5222 7.46604 15.8164 7.46604C16.1557 7.46604 16.2082 7.58224 16.2588 7.6947C16.296 7.80027 16.3638 7.89234 16.4536 7.95912C16.5434 8.0259 16.6511 8.06436 16.763 8.06957C16.8782 8.06857 16.9912 8.03676 17.09 7.97744C17.1889 7.91812 17.2701 7.83345 17.3252 7.73219C17.3921 7.61564 17.4916 7.52123 17.6116 7.46061C17.7315 7.39999 17.8665 7.37581 18 7.39106C18.2418 7.39106 18.3636 7.53351 18.5042 7.79592C18.5488 7.89216 18.6125 7.97826 18.6916 8.04895C19.0665 8.36008 19.4413 8.02271 19.5763 7.91212C19.8181 7.69658 20.0599 7.50915 20.3466 7.556C20.4604 7.56357 20.5683 7.60963 20.6524 7.68662C20.7365 7.7636 20.792 7.86693 20.8096 7.9796C20.8497 8.14046 20.942 8.28349 21.072 8.38632C21.3738 8.61312 21.6905 8.43131 21.9229 8.29636C22.056 8.21951 22.4609 7.98522 22.5864 8.00396C22.6522 8.02976 22.7116 8.06939 22.7607 8.12017C22.7631 8.14886 22.7631 8.1777 22.7607 8.20639C22.7522 8.34374 22.7847 8.48053 22.8541 8.59935C22.9235 8.71818 23.0268 8.81366 23.1506 8.87364C23.2684 8.91582 23.3951 8.92624 23.5182 8.90387C23.6412 8.8815 23.7562 8.82711 23.8516 8.74619C24.1609 8.55876 24.3389 8.48941 24.5807 8.62436C24.6932 8.68809 24.7044 8.73869 24.7363 8.88489C24.7509 9.02224 24.8041 9.15265 24.8897 9.26109C24.9752 9.36953 25.0897 9.45158 25.2198 9.49779C25.3311 9.52318 25.4464 9.52461 25.5582 9.50198C25.67 9.47936 25.7758 9.43321 25.8684 9.36659C26.1364 9.22227 26.2826 9.16979 26.4307 9.24476C26.9817 9.50716 27.0229 9.86328 27.0436 10.0338C27.0485 10.1273 27.0759 10.2183 27.1236 10.2989C27.1712 10.3795 27.2377 10.4474 27.3172 10.4968L27.5477 10.6317L27.8589 10.5024C28.1213 10.3881 28.3781 10.2981 28.6348 10.42C28.7773 10.4893 28.8223 10.6842 28.8335 10.9954C28.8223 11.1211 28.8465 11.2475 28.9035 11.3601C28.9605 11.4728 29.0479 11.5672 29.1559 11.6326L29.2402 11.6664C29.439 11.711 29.646 11.702 29.84 11.6401C30.1062 11.582 30.3367 11.5408 30.466 11.6401C30.5635 11.7151 30.526 11.9925 30.5054 12.1574C30.4792 12.358 30.4398 12.6579 30.6928 12.8659C30.7852 12.9361 30.8942 12.9811 31.0092 12.9965C31.1242 13.0119 31.2412 12.9973 31.3488 12.954C31.8474 12.8322 32.2223 12.8059 32.4135 13.0665C32.4868 13.2367 32.5494 13.4113 32.6009 13.5894C32.6678 13.8361 32.7595 14.0753 32.8745 14.3035V20.1945L24.2133 27.5512Z" fill="#333333"/>
</svg>
