<svg width="36" height="36" viewBox="0 0 36 36" fill="none" xmlns="http://www.w3.org/2000/svg">
<path d="M20.6672 14.9112V13.5991C20.6488 12.9067 20.3608 12.2488 19.8645 11.7656C19.3683 11.2824 18.703 11.0119 18.0103 11.0119C17.3177 11.0119 16.6524 11.2824 16.1561 11.7656C15.6599 12.2488 15.3719 12.9067 15.3535 13.5991V14.9112H13.8541L11.3612 24.8881H24.6426L22.1498 14.9112H20.6672ZM19.3402 14.9112H16.6843V13.5991C16.6776 13.4206 16.7069 13.2425 16.7706 13.0755C16.8344 12.9085 16.9311 12.7561 17.0551 12.6274C17.179 12.4987 17.3277 12.3963 17.4922 12.3263C17.6566 12.2564 17.8335 12.2204 18.0122 12.2204C18.1909 12.2204 18.3678 12.2564 18.5323 12.3263C18.6967 12.3963 18.8454 12.4987 18.9694 12.6274C19.0933 12.7561 19.1901 12.9085 19.2538 13.0755C19.3175 13.2425 19.3469 13.4206 19.3402 13.5991V14.9112Z" fill="#333333"/>
<path d="M32.8783 9.40633V12.1822C32.4191 11.8317 31.8418 11.8636 31.4463 11.9329C31.4746 11.7343 31.4527 11.5319 31.3826 11.344C31.3125 11.156 31.1965 10.9886 31.0452 10.857C30.6104 10.4991 30.0856 10.5834 29.7332 10.6584C29.6957 10.306 29.5701 9.77744 29.0359 9.52254C28.6697 9.35385 28.2533 9.32975 27.8701 9.45506C27.7839 9.20768 27.6468 8.98113 27.4676 8.79001C27.2884 8.59889 27.0712 8.44745 26.8299 8.34547C26.6303 8.25618 26.4122 8.2162 26.194 8.22892C25.9758 8.24165 25.7638 8.30669 25.576 8.41857C25.5325 8.27731 25.4616 8.14601 25.3674 8.03216C25.2732 7.91831 25.1574 7.82415 25.0268 7.75506C24.8122 7.63137 24.5688 7.56627 24.3211 7.56627C24.0734 7.56627 23.8301 7.63137 23.6154 7.75506C23.5598 7.60714 23.4737 7.4726 23.3626 7.36022C23.2515 7.24783 23.1179 7.16012 22.9707 7.1028C22.5002 6.87976 21.9473 7.15528 21.5724 7.36708C21.4758 7.15414 21.3255 6.96998 21.1362 6.83263C20.9469 6.69529 20.7252 6.60948 20.4928 6.58362C20.2486 6.55269 20.0006 6.5756 19.7662 6.65072C19.5317 6.72584 19.3166 6.85135 19.1358 7.01846C19.0122 6.83064 18.8439 6.67648 18.646 6.56982C18.448 6.46317 18.2267 6.40737 18.0019 6.40743C17.7854 6.39669 17.5691 6.4302 17.3661 6.50594C17.163 6.58167 16.9776 6.69803 16.8211 6.8479C16.6872 6.72245 16.5294 6.6254 16.3571 6.56258C16.1847 6.49977 16.0015 6.47249 15.8183 6.4824C15.5803 6.48102 15.3455 6.53785 15.1345 6.64794C14.9235 6.75803 14.7425 6.91805 14.6075 7.11405C14.1846 6.82809 13.6661 6.72034 13.1643 6.81416C12.6439 6.8882 12.1706 7.15595 11.8391 7.56388C11.5055 7.32397 11.1475 7.21526 10.3716 7.42706C9.67056 7.61449 9.44752 8.04183 9.35006 8.32485C9.12326 8.20115 8.7559 8.07932 8.11863 8.21427C7.44763 8.35484 7.07839 8.93588 6.88909 9.26388C6.58732 9.16079 6.0419 9.06146 5.37464 9.6856C5.09228 9.97731 4.88851 10.3359 4.78236 10.7277C4.78236 10.7277 4.78236 10.7446 4.78236 10.754C4.01202 10.8121 3.48534 11.0538 3.12734 11.3837V9.40633H1V21.102L11.0088 29.5945H24.9912L35 21.102V9.40633H32.8783ZM32.8783 20.118L24.2133 27.4691H11.7904L3.12547 20.1255V13.0031H3.17233C3.28666 11.7155 4.22944 11.5187 4.92668 11.4831C4.99627 11.4836 5.06561 11.4748 5.13286 11.4568H5.1516C5.35965 11.3762 5.42525 11.1832 5.50022 10.9601C5.56972 10.6874 5.70485 10.4358 5.89383 10.2273C6.31367 9.83367 6.54046 9.92177 6.73914 10.0005C6.87109 10.0695 7.02366 10.0882 7.16836 10.053L7.20772 10.038C7.34547 9.96122 7.45267 9.83946 7.51136 9.6931C7.6538 9.44382 7.88622 9.02397 8.2817 8.94337C8.78964 8.83654 8.96207 8.94337 9.10077 9.04459C9.21418 9.13353 9.35231 9.18525 9.49625 9.19266H9.53936C9.89173 9.15142 9.98357 8.84029 10.0323 8.6716C10.0979 8.45231 10.1541 8.263 10.5777 8.14679C11.185 7.98185 11.2843 8.06432 11.5505 8.28737L11.6742 8.38858L11.7679 8.46355H11.8879C11.9654 8.46479 12.0416 8.44417 12.1079 8.40406C12.1742 8.36395 12.2279 8.30597 12.2627 8.23676C12.3699 8.05564 12.5154 7.9001 12.6889 7.78097C12.8624 7.66184 13.0598 7.582 13.2674 7.54701C13.9402 7.45142 14.2308 7.75319 14.3545 7.88252C14.3989 7.94311 14.4591 7.99029 14.5286 8.01887C14.5981 8.04744 14.6741 8.05631 14.7483 8.04449C14.8225 8.03268 14.892 8.00063 14.9492 7.95189C15.0063 7.90314 15.0489 7.83958 15.0723 7.76818C15.226 7.48516 15.4228 7.22276 15.8221 7.22276C16.2625 7.22276 16.3506 7.41019 16.4087 7.54326C16.4347 7.62313 16.4846 7.69308 16.5517 7.74369C16.6187 7.7943 16.6996 7.82313 16.7836 7.82629C16.8723 7.82289 16.9585 7.79614 17.0335 7.74875C17.1085 7.70136 17.1697 7.635 17.2109 7.55639C17.2921 7.42241 17.4093 7.31395 17.5492 7.24336C17.689 7.17278 17.8459 7.14291 18.0019 7.15716C18.3542 7.15716 18.5136 7.39707 18.6448 7.64448C18.6836 7.72367 18.7385 7.7939 18.806 7.85065C19.0815 8.07744 19.3551 7.83378 19.4863 7.71758C19.6906 7.53014 19.9999 7.26212 20.386 7.32397C20.5276 7.33681 20.6612 7.3953 20.7666 7.49062C20.8721 7.58595 20.9437 7.71296 20.9708 7.85253C21.0007 7.98095 21.0726 8.09572 21.1751 8.17866C21.3944 8.34547 21.6193 8.21614 21.8555 8.07932C22.0148 7.98748 22.5021 7.70446 22.6633 7.7813C22.9257 7.90688 22.9276 7.98748 22.9332 8.12243C22.9212 8.23004 22.9422 8.33875 22.9934 8.43414C23.0447 8.52954 23.1237 8.60712 23.22 8.65661C23.3156 8.6893 23.4184 8.69559 23.5173 8.67481C23.6163 8.65402 23.7078 8.60694 23.7823 8.53852C24.069 8.35109 24.3352 8.22364 24.6707 8.41295C24.737 8.44894 24.7931 8.50118 24.8338 8.56478C24.8744 8.62837 24.8983 8.70124 24.9031 8.77656C24.9126 8.88598 24.9529 8.99048 25.0192 9.07802C25.0855 9.16557 25.1752 9.23259 25.278 9.27138C25.369 9.29056 25.463 9.29012 25.5538 9.27008C25.6446 9.25005 25.7301 9.21087 25.8046 9.15517C26.0652 9.0146 26.2826 8.91526 26.5169 9.02772C27.1466 9.32761 27.1972 9.75683 27.2197 9.94051C27.2207 10.0091 27.2382 10.0765 27.2709 10.1369C27.3035 10.1973 27.3503 10.2489 27.4072 10.2873L27.5702 10.381L27.8083 10.2835C28.0332 10.186 28.3706 10.0417 28.7136 10.2048C28.9479 10.3172 28.9835 10.604 29.0003 10.9133C29.0097 11.0895 29.0228 11.3069 29.2384 11.4175L29.2983 11.4418C29.471 11.4779 29.6502 11.4676 29.8175 11.4118C30.1362 11.3425 30.3929 11.2994 30.5673 11.4475C30.7416 11.5955 30.7022 11.8223 30.6666 12.1091C30.6404 12.3059 30.6122 12.5271 30.794 12.6714C30.9759 12.8157 31.1333 12.767 31.3095 12.7239C31.7949 12.6058 32.2804 12.5477 32.5447 12.9113C32.6241 13.094 32.6911 13.2819 32.7452 13.4736C32.7921 13.6217 32.8314 13.7454 32.8689 13.8484L32.8783 20.118Z" fill="#333333"/>
</svg>
