<svg width="36" height="36" viewBox="0 0 36 36" fill="none" xmlns="http://www.w3.org/2000/svg">
<path d="M13.5549 5.46712C12.8711 6.45867 12.4101 7.4309 12.1075 8.37352C11.2254 7.92539 10.2094 7.56869 9.02342 7.35879C7.98294 3.55871 9.02986 1 9.02986 1C9.02986 1 11.5847 2.05465 13.5549 5.46712Z" fill="#333333"/>
<path d="M22.7201 31.5204C26.7764 29.3802 27.4847 25.1449 26.0836 21.789L25.5878 20.6005C22.5063 22.8978 21.556 25.0367 21.1903 27.1331C20.8516 26.1918 20.5103 25.2505 20.1614 24.3156C19.9875 23.8494 19.8188 23.4039 19.6527 22.9673C23.3433 20.764 23.9653 16.7115 22.6119 13.4716L22.1161 12.2831C19.2806 14.3962 18.2504 16.3767 17.8177 18.3122C17.1841 16.7669 16.6536 15.5397 16.2377 14.6138C19.8768 12.4028 20.4846 8.3761 19.1389 5.15292L18.6431 3.96435C14.386 7.13724 14.1902 10.0101 13.9945 12.8817C11.8144 11.0016 9.63275 9.12043 4.38416 9.91751L4.87993 11.1061C6.25007 14.3872 9.6355 16.8184 13.8721 15.6376C14.3164 16.6266 14.901 17.9787 15.6093 19.7184C13.858 18.4976 11.6701 17.6567 7.85586 18.2349L8.35164 19.4235C9.71405 22.6879 13.0724 25.1088 17.2782 23.9717C17.299 24.0269 17.32 24.0821 17.341 24.1374C17.4739 24.4881 17.609 24.8442 17.7469 25.2157C17.9783 25.8338 18.2008 26.4568 18.4235 27.08C18.5055 27.3098 18.5876 27.5396 18.6702 27.7692C16.9833 26.7004 14.8534 26.0179 11.3276 26.5523L11.8233 27.7409C13.1368 30.8868 16.3008 33.2537 20.2927 32.4063C20.5865 33.2722 20.876 34.1374 21.1606 35H23.8739C23.4818 33.793 23.0921 32.6154 22.7201 31.5204Z" fill="#333333"/>
<path d="M23.0019 5.93446C23.0019 7.16773 23.9808 8.17116 25.1839 8.17116C26.3871 8.17116 27.3658 7.16773 27.3658 5.93446C27.3658 4.78126 25.5708 2.41805 25.3661 2.15233C25.322 2.09511 25.2548 2.06177 25.1838 2.06177C25.1128 2.06177 25.0456 2.09519 25.0016 2.15233C24.7969 2.41797 23.0019 4.78126 23.0019 5.93446Z" fill="#333333"/>
<path d="M27.2519 11.2471C27.2519 12.4803 28.2308 13.4838 29.4339 13.4838C30.6371 13.4838 31.6158 12.4803 31.6158 11.2471C31.6158 10.0939 29.8208 7.73065 29.6161 7.46493C29.572 7.40771 29.5048 7.37438 29.4338 7.37438C29.3628 7.37438 29.2956 7.40779 29.2516 7.46493C29.047 7.73057 27.2519 10.0939 27.2519 11.2471Z" fill="#333333"/>
</svg>
