<svg width="36" height="36" viewBox="0 0 36 36" fill="none" xmlns="http://www.w3.org/2000/svg">
<path d="M7.60847 21.6235V20.6067H1V21.6235H4.36252H7.60847Z" fill="#333333"/>
<path d="M4.2891 30.904L1.80173 28.4167L1.08439 29.1358L4.24785 32.2993L4.64956 31.9818L7.52429 29.1071L6.80695 28.388L4.2891 30.904Z" fill="#333333"/>
<path d="M1.08439 24.8157L1.80173 25.5348L4.31958 23.0187L6.80695 25.5061L7.52429 24.787L4.36252 21.6235L3.95912 21.9392L1.08439 24.8157Z" fill="#333333"/>
<path d="M25.0828 16.2146L15.3198 20.1564V20.1528L11.6757 21.6234H35V16.2146H25.0828Z" fill="#333333"/>
<path d="M29.4675 23.1477H27.4339V32.3063H23.3666V23.1477H21.3347V32.3063H17.2674V23.1477H15.2338V32.3063H11.1665V20.0882C11.1665 18.3146 12.221 16.8172 13.4673 16.8172V14.7907C12.6313 14.7992 11.8218 15.0856 11.1665 15.6049V12.4737C11.1665 10.6983 12.221 9.19906 13.4673 9.19906V7.16541C12.1367 7.16541 10.9459 7.90427 10.1496 9.06277C9.35519 7.90427 8.16261 7.16541 6.83375 7.16541V9.19906C8.08012 9.19906 9.13281 10.6983 9.13281 12.4737V15.6049C8.47822 15.0858 7.66916 14.7999 6.83375 14.7925V16.8244C8.08012 16.8244 9.13281 18.3236 9.13281 20.099V32.3063H1V33.307H32.518V32.3063H29.4693L29.4675 23.1477Z" fill="#333333"/>
<path d="M15.2337 7.9994V11.6381C14.5782 11.1195 13.7687 10.8337 12.9328 10.8257V12.8594C14.1792 12.8594 15.2319 14.3568 15.2337 16.1304V18.3811L17.2673 17.5597V16.143C17.2673 14.3676 18.32 12.8683 19.5664 12.8683V10.8257C18.731 10.8331 17.9219 11.119 17.2673 11.6381V7.9994C17.2673 6.22579 18.32 4.72655 19.5664 4.72655V2.6929C18.2375 2.6929 17.0468 3.43176 16.2433 4.59026C15.4543 3.43176 14.2707 2.6929 12.9328 2.6929V4.72655C14.181 4.72655 15.2337 6.22579 15.2337 7.9994Z" fill="#333333"/>
</svg>
