<svg width="36" height="36" viewBox="0 0 36 36" fill="none" xmlns="http://www.w3.org/2000/svg">
<path d="M25.0262 17.0475C25.2104 17.0475 25.3905 16.9929 25.5437 16.8906C25.6969 16.7883 25.8163 16.6428 25.8869 16.4727C25.9575 16.3025 25.976 16.1152 25.9402 15.9345C25.9044 15.7538 25.8158 15.5878 25.6856 15.4574C25.5555 15.327 25.3896 15.2382 25.2089 15.202C25.0283 15.1659 24.841 15.1841 24.6707 15.2544C24.5004 15.3247 24.3548 15.4439 24.2522 15.5969C24.1496 15.7499 24.0947 15.9299 24.0944 16.1141C24.094 16.2367 24.1178 16.3581 24.1644 16.4714C24.2111 16.5848 24.2797 16.6878 24.3663 16.7745C24.4529 16.8612 24.5557 16.93 24.669 16.9769C24.7822 17.0237 24.9036 17.0477 25.0262 17.0475Z" fill="#333333"/>
<path d="M1 13.2531L4.95972 13.7695L4.4417 17.7276L5.34141 17.8463L5.97491 12.9885L1.11868 12.3534L1 13.2531Z" fill="#333333"/>
<path d="M17.3586 17.8109C17.5575 18.7151 17.9142 19.5772 18.4123 20.3577L17.025 22.2726C17.5857 22.6066 18.21 22.8199 18.8578 22.8989C19.5057 22.9778 20.1629 22.9208 20.7875 22.7313C21.5672 23.2303 22.4296 23.5866 23.3342 23.7834L23.7095 26.1201C24.3422 25.961 24.9345 25.6709 25.448 25.2685C25.9618 24.8651 26.3862 24.3594 26.6941 23.7834C27.5982 23.5864 28.4601 23.2301 29.2393 22.7313L31.151 24.1185C31.484 23.5577 31.6967 22.9338 31.7756 22.2863C31.8546 21.6389 31.7981 20.9821 31.6097 20.3577C32.1076 19.577 32.4648 18.715 32.665 17.8109L35.0001 17.4372C34.8403 16.8047 34.5502 16.2125 34.1484 15.6986C33.7466 15.1846 33.2419 14.7603 32.6666 14.4526C32.4667 13.5484 32.1095 12.6864 31.6113 11.9058L33.0018 9.9909C32.4411 9.65692 31.8168 9.44362 31.169 9.36464C30.5211 9.28566 29.8639 9.34274 29.2393 9.53222C28.4598 9.03352 27.5981 8.67679 26.6941 8.47854L26.3189 6.14185C25.6862 6.30227 25.094 6.59295 24.58 6.99531C24.0661 7.39767 23.6418 7.90285 23.3342 8.47854C22.4303 8.67679 21.5686 9.03352 20.7891 9.53222L18.8741 8.14496C18.5406 8.70555 18.3274 9.32945 18.2482 9.97694C18.1689 10.6244 18.2253 11.2813 18.4139 11.9058C17.9156 12.6864 17.5584 13.5484 17.3586 14.4526L15.0251 14.8247C15.185 15.4573 15.4752 16.0497 15.877 16.5638C16.2788 17.078 16.7834 17.5028 17.3586 17.8109ZM25.0246 10.1641C26.216 10.1641 27.3806 10.5174 28.3713 11.1793C29.3619 11.8412 30.1339 12.782 30.5899 13.8827C31.0458 14.9834 31.1651 16.1946 30.9326 17.3631C30.7002 18.5316 30.1265 19.6049 29.2841 20.4473C28.4416 21.2898 27.3683 21.8635 26.1998 22.0959C25.0313 22.3283 23.8201 22.2091 22.7194 21.7531C21.6187 21.2972 20.6779 20.5251 20.016 19.5345C19.3541 18.5439 19.0008 17.3793 19.0008 16.1879C19.0017 14.5903 19.6368 13.0583 20.7667 11.9288C21.8965 10.7993 23.4286 10.1645 25.0262 10.1641H25.0246Z" fill="#333333"/>
<path d="M10.0228 6.31657L9.1247 6.19949L8.48961 11.0557L13.3458 11.6908L13.4645 10.7927L9.5048 10.2747L10.0228 6.31657Z" fill="#333333"/>
<path d="M2.38554 8.31981L5.97491 12.9885L12.3273 21.251L13.0442 20.6977L3.10243 7.76811L2.38554 8.31981Z" fill="#333333"/>
<path d="M25.0134 28.0446C23.188 28.0449 21.387 27.6256 19.7494 26.8192C18.1118 26.0128 16.6814 24.8407 15.5688 23.3936L14.1254 24.4986C15.3157 26.0465 16.8226 27.3227 18.5454 28.2419C20.2681 29.1611 22.1672 29.7022 24.1157 29.8291C26.0642 29.956 28.0174 29.6657 29.8449 28.9777C31.6723 28.2897 33.332 27.2198 34.713 25.8394L33.43 24.5564C31.1975 26.7884 28.1703 28.043 25.0134 28.0446Z" fill="#333333"/>
<path d="M4.18197 6.93888L10.8088 15.5592L11.5289 15.0075L8.48961 11.0557L4.90046 6.38718L4.18197 6.93888Z" fill="#333333"/>
</svg>
