<svg width="36" height="36" viewBox="0 0 36 36" fill="none" xmlns="http://www.w3.org/2000/svg">
<path fill-rule="evenodd" clip-rule="evenodd" d="M3.96117 7H25.7485V12.5333H33.4336L35 16.7103L29.7008 19.9713V21.7256C30.8795 22.3898 31.6769 23.6536 31.6769 25.1051C31.6769 27.2461 29.9413 28.9816 27.8002 28.9816C25.6591 28.9816 23.9234 27.2461 23.9234 25.1051C23.9234 24.139 24.2773 23.2551 24.8612 22.5768L24.2945 21.8677H21.0057V24.3145C21.0057 26.8922 18.9161 28.9816 16.3385 28.9816C14.004 28.9816 12.0698 27.2677 11.7257 25.0294H9.66618L8.48048 27.4008H1.71495C1.40612 27.4008 1.1322 27.2025 1.03578 26.9091C0.939363 26.6157 1.04224 26.2936 1.29087 26.1104L8.9894 20.4379H10.8808V19.4964H7.08523L3.96117 7ZM8.20159 18.0666L5.79243 8.42981H24.3187V13.9631H32.4428L32.9244 15.2473L32.7941 15.3208L31.4187 16.3631L30.6393 15.3254L28.9124 16.6275L28.1315 15.5914L26.4061 16.8934L25.6267 15.8572L21.577 18.9183L21.8597 19.9879L28.271 19.6385V22.6548L28.7176 22.8356C29.6157 23.1991 30.2471 24.0793 30.2471 25.1051C30.2471 26.4565 29.1516 27.5518 27.8002 27.5518C26.4488 27.5518 25.3532 26.4565 25.3532 25.1051C25.3532 24.3326 25.7103 23.6441 26.2712 23.1945L26.8281 22.7479L24.9822 20.4379H19.5759V24.3145C19.5759 26.1025 18.1265 27.5518 16.3385 27.5518C14.5505 27.5518 13.1011 26.1025 13.1011 24.3145V23.5996H8.7825L7.59681 25.971H3.89034L9.45928 21.8677H12.3106V18.0666H8.20159Z" fill="#333333"/>
</svg>
