<svg width="36" height="36" viewBox="0 0 36 36" fill="none" xmlns="http://www.w3.org/2000/svg">
<path fill-rule="evenodd" clip-rule="evenodd" d="M3.96117 3H25.7485V8.53328H33.4336L35 12.7103L29.7008 15.9713V17.7256C30.8795 18.3898 31.6769 19.6536 31.6769 21.1051C31.6769 23.2461 29.9413 24.9816 27.8002 24.9816C25.6591 24.9816 23.9234 23.2461 23.9234 21.1051C23.9234 20.139 24.2773 19.2551 24.8612 18.5768L24.2945 17.8677H21.0057V20.3145C21.0057 22.8922 18.9161 24.9816 16.3385 24.9816C14.004 24.9816 12.0698 23.2677 11.7257 21.0294H9.66618L8.48048 23.4008H1.71495C1.40612 23.4008 1.1322 23.2025 1.03578 22.9091C0.939363 22.6157 1.04224 22.2936 1.29087 22.1104L8.9894 16.4379H10.8808V15.4964H7.08523L3.96117 3ZM8.20159 14.0666L5.79243 4.42981H24.3187V9.96309H32.4428L32.9244 11.2473L32.7941 11.3208L31.4187 12.3631L30.6393 11.3254L28.9124 12.6275L28.1315 11.5914L26.4061 12.8934L25.6267 11.8572L21.577 14.9183L21.8597 15.9879L28.271 15.6385V18.6548L28.7176 18.8356C29.6157 19.1991 30.2471 20.0793 30.2471 21.1051C30.2471 22.4565 29.1516 23.5518 27.8002 23.5518C26.4488 23.5518 25.3532 22.4565 25.3532 21.1051C25.3532 20.3326 25.7103 19.6441 26.2712 19.1945L26.8281 18.7479L24.9822 16.4379H19.5759V20.3145C19.5759 22.1025 18.1265 23.5518 16.3385 23.5518C14.5505 23.5518 13.1011 22.1025 13.1011 20.3145V19.5996H8.7825L7.59681 21.971H3.89034L9.45928 17.8677H12.3106V14.0666H8.20159Z" fill="#333333"/>
<path d="M24.2931 25H22.7767V26.4078H24.2931V25Z" fill="#333333"/>
<path d="M10.8268 33.4803H9.55981L11.6625 26.3595H12.9295L10.8268 33.4803Z" fill="#333333"/>
<path d="M6.19349 27.3371C6.50051 27.1602 6.85184 27.0752 7.20578 27.092C8.33199 27.092 9.2105 27.7478 9.21763 29.0201V33.0117H7.70117V29.5137C7.70117 29.0896 7.678 28.3768 6.71573 28.3768C6.04393 28.3768 5.52359 28.8312 5.52359 29.7079V33.0064H4V27.2435H5.45053V28.0899H5.47369C5.63665 27.7753 5.88647 27.514 6.19349 27.3371Z" fill="#333333"/>
<path d="M19.5174 27.0919C18.614 27.0919 18.1903 27.7071 17.9911 27.9965L17.9796 28.0132C17.5893 27.3966 17.2098 27.0919 16.3758 27.0919C16.035 27.0763 15.6973 27.163 15.4061 27.3409C15.1149 27.5187 14.8835 27.7795 14.7417 28.0898H14.7203V27.2434H13.268V33.0063H14.7898V29.4976C14.7898 28.8686 15.0179 28.3714 15.7325 28.3714C16.6413 28.3714 16.6413 29.0539 16.6413 29.5404V33.0063H18.1578V29.551C18.1578 28.8686 18.4286 28.3714 19.1877 28.3714C19.6315 28.3714 20.011 28.6529 20.011 29.5083V33.0063H21.5275V29.02C21.5221 27.7477 20.6436 27.0919 19.5174 27.0919Z" fill="#333333"/>
<path d="M22.7767 27.2434H24.2931V33.0063H22.7767V27.2434Z" fill="#333333"/>
<path d="M27.7627 27.3373C28.0697 27.1605 28.4209 27.0753 28.7748 27.0919C29.9028 27.0919 30.7795 27.7477 30.7795 29.02V33.0117H29.2631V29.5137C29.2631 29.0895 29.2417 28.3768 28.2776 28.3768C27.6058 28.3768 27.0855 28.8312 27.0855 29.7079V33.0063H25.569V27.2434H27.0213V28.0899H27.0427C27.2058 27.7754 27.4557 27.5142 27.7627 27.3373Z" fill="#333333"/>
</svg>
