<svg width="36" height="36" viewBox="0 0 36 36" fill="none" xmlns="http://www.w3.org/2000/svg">
<path d="M16.7576 6.413L19.7147 10.3378L17.76 11.8106L24.2506 12.7224L25.1624 6.23565L23.2057 7.70841L20.2467 3.78553L16.7576 6.413ZM20.5455 16.8804L30.1416 9.65154L31.4563 11.3865L21.8602 18.625L20.5455 16.8804ZM27.732 19.4771L29.785 17.9349L31.5199 20.2481L32.6766 19.3807L32.1387 23.1975L28.3219 22.6616L29.4785 21.7942L27.7436 19.4809L27.732 19.4771ZM13.1335 25.2467L10.9089 23.024H1.69641V24.1151H10.4578L11.6337 25.291C10.9328 26.2407 10.5228 27.3736 10.4538 28.5519C10.3847 29.7302 10.6594 30.9033 11.2446 31.9283C11.8297 32.9534 12.7001 33.7865 13.7499 34.3261C14.7997 34.8657 15.9836 35.0888 17.1578 34.9681C18.3319 34.8474 19.4457 34.3881 20.3638 33.6462C21.2818 32.9043 21.9645 31.9116 22.3289 30.7889C22.6933 29.6662 22.7236 28.4618 22.4163 27.3222C22.1089 26.1826 21.4771 25.1568 20.5976 24.3696V22.9932L34.3035 12.6703L28.8578 1H1.69641V2.09108H28.1638L32.9387 12.331L19.5045 22.4496V24.8862C20.3338 25.4961 20.9546 26.347 21.2823 27.3228C21.6099 28.2986 21.6285 29.3517 21.3353 30.3385C21.0422 31.3252 20.4517 32.1974 19.6444 32.8361C18.8372 33.4748 17.8525 33.8487 16.8248 33.907C15.7971 33.9652 14.7765 33.7049 13.9022 33.1615C13.028 32.6181 12.3427 31.8182 11.94 30.8709C11.5373 29.9236 11.4367 28.8751 11.6521 27.8685C11.8674 26.8619 12.3881 25.9463 13.1431 25.2467" fill="#333333"/>
</svg>
