<svg width="36" height="36" viewBox="0 0 36 36" fill="none" xmlns="http://www.w3.org/2000/svg">
<path d="M18.2389 9.80413C18.6786 9.80413 19.0351 9.44763 19.0351 9.00786C19.0351 8.56809 18.6786 8.21158 18.2389 8.21158C17.7991 8.21158 17.4426 8.56809 17.4426 9.00786C17.4426 9.44763 17.7991 9.80413 18.2389 9.80413Z" fill="#333333"/>
<path d="M33.9377 5.78891V17.467L27.2977 24.1032H15.3442V12.9554H18.2651C19.3214 12.9554 20.3344 12.536 21.0817 11.7895C21.8289 11.0429 22.2492 10.0303 22.2502 8.97401V7.11541C22.2492 6.05914 21.8289 5.04647 21.0817 4.29992C20.3344 3.55338 19.3214 3.13403 18.2651 3.13403H11.3591C10.8357 3.13354 10.3174 3.23613 9.83374 3.43595C9.35006 3.63577 8.91046 3.9289 8.54006 4.2986C8.16966 4.6683 7.87571 5.10735 7.67498 5.59065C7.47426 6.07396 7.37069 6.59208 7.3702 7.11541V22.7767L2.06232 17.467V5.78891H1V17.9073L7.3702 24.2775V28.8809C7.3702 29.9378 7.79006 30.9514 8.53741 31.6988C9.28477 32.4461 10.2984 32.866 11.3553 32.866C12.4122 32.866 13.4259 32.4461 14.1732 31.6988C14.9206 30.9514 15.3404 29.9378 15.3404 28.8809V25.1656H27.7361L35 17.9073V5.78891H33.9377ZM13.2177 28.8809C13.2023 29.3638 12.9997 29.8219 12.6526 30.1581C12.3056 30.4943 11.8413 30.6823 11.3581 30.6823C10.8749 30.6823 10.4107 30.4943 10.0636 30.1581C9.71656 29.8219 9.51393 29.3638 9.4986 28.8809V12.502C10.0724 12.8034 10.7109 12.9609 11.3591 12.961H13.2177V28.8809ZM11.3591 10.8326C10.866 10.8326 10.393 10.6369 10.0442 10.2884C9.69532 9.93985 9.49909 9.46711 9.4986 8.97401V7.11541C9.49884 6.87133 9.54716 6.6297 9.64079 6.4043C9.73442 6.17889 9.87153 5.97414 10.0443 5.80173C10.2171 5.62932 10.4221 5.49262 10.6477 5.39944C10.8733 5.30627 11.115 5.25844 11.3591 5.25868H18.2651C18.5092 5.25844 18.7509 5.30627 18.9765 5.39944C19.2021 5.49262 19.4071 5.62932 19.5799 5.80173C19.7527 5.97414 19.8898 6.17889 19.9834 6.4043C20.077 6.6297 20.1253 6.87133 20.1256 7.11541V8.97401C20.1251 9.46711 19.9289 9.93985 19.58 10.2884C19.2312 10.6369 18.7582 10.8326 18.2651 10.8326H11.3591Z" fill="#333333"/>
</svg>
