<svg width="36" height="36" viewBox="0 0 36 36" fill="none" xmlns="http://www.w3.org/2000/svg">
<path d="M23.397 17.9993L21.795 14.5583H16.2298V11.4168H2.04448V12.3251H2.57312L4.41217 19.1959H7.56804V20.1779H6.83434L1 24.5817H5.03053C5.34763 24.5813 5.65159 24.455 5.87567 24.2307C6.09974 24.0063 6.22559 23.7022 6.22559 23.3851C6.22534 23.2984 6.21621 23.212 6.19836 23.1271H7.62571C8.02235 23.7072 8.59166 24.1474 9.25278 24.3855C9.91389 24.6235 10.6332 24.6472 11.3085 24.4532C11.9839 24.2592 12.5809 23.8573 13.0149 23.3047C13.4489 22.752 13.6977 22.0767 13.726 21.3746H15.8822L16.539 22.0362C16.428 22.2794 16.3729 22.5443 16.3775 22.8116C16.3822 23.0788 16.4465 23.3417 16.5659 23.5808C16.6852 23.82 16.8566 24.0295 17.0673 24.1939C17.2781 24.3582 17.523 24.4734 17.784 24.531C18.045 24.5885 18.3156 24.5869 18.576 24.5264C18.8363 24.4658 19.0798 24.3478 19.2887 24.1809C19.4975 24.0141 19.6664 23.8027 19.783 23.5621C19.8996 23.3216 19.9609 23.058 19.9624 22.7907C19.9628 22.3955 19.8321 22.0112 19.5907 21.6982V20.8684L23.397 17.9993ZM18.6856 20.4182V22.065C18.8431 22.178 18.9593 22.3395 19.0162 22.5248C19.0731 22.71 19.0677 22.9089 19.0008 23.0908C18.9339 23.2727 18.8092 23.4276 18.6457 23.5319C18.4823 23.6361 18.2892 23.6838 18.0961 23.6678C17.9029 23.6518 17.7203 23.5728 17.5763 23.4431C17.4324 23.3133 17.3349 23.1399 17.2989 22.9495C17.2629 22.759 17.2904 22.562 17.3771 22.3887C17.4638 22.2153 17.6049 22.0752 17.7789 21.9898L16.2571 20.4663H12.6943C12.7747 20.713 12.8158 20.9709 12.8161 21.2304C12.8178 21.7906 12.6267 22.3342 12.2747 22.77C11.9228 23.2058 11.4315 23.5071 10.8836 23.6233C10.3356 23.7395 9.76433 23.6634 9.26584 23.4079C8.76734 23.1524 8.37202 22.7331 8.14634 22.2204H5.80588L5.19233 23.1496C5.23186 23.1752 5.26461 23.21 5.28777 23.251C5.31092 23.292 5.3238 23.338 5.32529 23.3851C5.32529 23.4615 5.29491 23.5349 5.24084 23.589C5.18676 23.643 5.11342 23.6734 5.03694 23.6734H3.70731L7.13711 21.0846H8.47475V18.2876H5.11063L3.50867 12.3251H15.3231V15.4666H21.2167L22.2644 17.7093L18.6856 20.4182Z" fill="#333333"/>
<path d="M27.0719 13.4208L26.1652 14.9923L29.8065 17.0989H23.6742V18.9155H29.8065L26.1652 21.0221L27.0719 22.5936L35 18.0072L27.0719 13.4208Z" fill="#333333"/>
</svg>
