<svg width="36" height="36" viewBox="0 0 36 36" fill="none" xmlns="http://www.w3.org/2000/svg">
<path d="M18.9479 29.8049V23.6715H17.1355V29.8049L15.0327 26.164L13.4625 27.0702L18.0417 35L22.6193 27.0702L21.049 26.164L18.9479 29.8049Z" fill="#333333"/>
<path d="M22.5359 17.9984H21.6296V22.5327H22.5359V17.9984Z" fill="#333333"/>
<path d="M14.3752 17.9984H13.4689V22.5327H14.3752V17.9984Z" fill="#333333"/>
<path d="M28.4255 8.69884V1H27.5177L26.6114 1.68006H9.3885L8.48228 1H7.57446V8.69884H13.4689V9.61308H10.9748V15.9582H13.4689V16.866H15.2829V22.5311H20.7266V16.866H22.5359V15.9582H25.03V9.61308H22.5359V8.69884H28.4255ZM13.4689 15.052H11.8826V10.5177H13.4689V15.052ZM24.1222 10.5177V15.052H22.5359V10.5177H24.1222ZM19.8204 7.80545V8.71327H21.6393V15.9855H19.8204V21.6666H16.1843V15.9855H14.3655V8.71327H16.1843V7.80545H8.45662V2.57826H27.5433V7.80545H19.8204Z" fill="#333333"/>
</svg>
