<svg width="36" height="36" viewBox="0 0 36 36" fill="none" xmlns="http://www.w3.org/2000/svg">
<path d="M12.972 18.9622V17.0393H6.49091L10.3383 14.8084L9.38025 13.1429L1 18.0008L9.38025 22.8569L10.3383 21.1914L6.49091 18.9622H12.972Z" fill="#333333"/>
<path d="M30.98 21.0425L35 17.9958L33.3074 14.3515H27.4255V11.0306H12.4338V11.992H12.9924L14.9355 19.2703H18.2734V20.3062H17.4948L11.3251 24.9694H15.5906C15.9256 24.9685 16.2466 24.8347 16.4831 24.5973C16.7195 24.3599 16.852 24.0384 16.8516 23.7033C16.8522 23.6112 16.8425 23.5192 16.8228 23.4291H18.3327C18.7521 24.0432 19.3546 24.5093 20.0543 24.761C20.7541 25.0126 21.5154 25.037 22.2299 24.8307C22.9443 24.6244 23.5755 24.1978 24.0333 23.6119C24.4912 23.0259 24.7525 22.3104 24.7799 21.5672H27.0667L27.7657 22.268C27.6251 22.5727 27.5681 22.9094 27.6005 23.2434C27.6329 23.5774 27.7535 23.8969 27.95 24.1689C28.1466 24.4409 28.4119 24.6558 28.7189 24.7915C29.0258 24.9272 29.3633 24.9789 29.6968 24.9411C30.0303 24.9034 30.3477 24.7776 30.6166 24.5768C30.8855 24.3759 31.0961 24.1072 31.2268 23.7981C31.3576 23.489 31.4038 23.1507 31.3607 22.8179C31.3177 22.4851 31.1869 22.1697 30.9817 21.9041L30.98 21.0425ZM30.413 23.0737C30.4114 23.24 30.3656 23.4029 30.2801 23.5456C30.1947 23.6883 30.0728 23.8057 29.9269 23.8856C29.781 23.9656 29.6165 24.0052 29.4502 24.0005C29.284 23.9957 29.122 23.9467 28.9809 23.8586C28.8399 23.7704 28.7249 23.6463 28.6477 23.4989C28.5706 23.3515 28.5341 23.1863 28.5421 23.0201C28.55 22.854 28.6021 22.693 28.6929 22.5536C28.7838 22.4143 28.9101 22.3017 29.0589 22.2274L27.4492 20.6143H23.6915C23.7765 20.8756 23.8199 21.1486 23.8202 21.4234C23.8233 22.0161 23.622 22.5917 23.2502 23.0533C22.8784 23.5148 22.3588 23.8341 21.779 23.9571C21.1992 24.0802 20.5947 23.9996 20.0674 23.7289C19.5402 23.4582 19.1223 23.014 18.8845 22.4711H16.4166L15.7666 23.4545C15.8059 23.4832 15.838 23.5206 15.8603 23.5637C15.8826 23.6069 15.8946 23.6547 15.8953 23.7033C15.8953 23.7843 15.8632 23.862 15.8061 23.9194C15.749 23.9768 15.6715 24.0093 15.5906 24.0097H14.1908L17.8164 21.2676H19.2314V18.3089H15.6769L13.9843 11.9954H26.4675V15.318H32.6981L33.805 17.7013L30.022 20.5635V22.3052C30.1431 22.3923 30.2417 22.5069 30.3097 22.6397C30.3777 22.7724 30.4131 22.9195 30.413 23.0686V23.0737Z" fill="#333333"/>
</svg>
