<svg width="36" height="36" viewBox="0 0 36 36" fill="none" xmlns="http://www.w3.org/2000/svg">
<path d="M17.095 6.19892V12.3381H18.9082V6.19892L21.0135 9.84298L22.5844 8.93638L18.0016 1L13.4189 8.93638L14.9898 9.84298L17.095 6.19892Z" fill="#333333"/>
<path d="M22.5378 30.4639H21.6312V35.0001H22.5378V30.4639Z" fill="#333333"/>
<path d="M14.3736 30.4639H13.467V35.0001H14.3736V30.4639Z" fill="#333333"/>
<path d="M28.4299 21.1682V13.4661H27.5233L26.6167 14.1449H9.38488L8.47667 13.4597H7.57007V21.1618H13.467V22.0684H10.9718V28.4178H13.467V29.3244H15.2802V34.9935H20.7278V29.3309H22.5378V28.4243H25.0314V22.0748H22.5378V21.1682H28.4299ZM13.467 27.5177H11.8784V22.983H13.467V27.5177ZM24.1248 22.983V27.5193H22.5378V22.983H24.1248ZM19.8212 20.268V21.1763H21.6409V28.4515H19.8212V34.1351H16.1836V28.4515H14.364V21.1763H16.1836V20.268H8.4526V15.0386H27.5474V20.268H19.8212Z" fill="#333333"/>
</svg>
