<svg width="36" height="36" viewBox="0 0 36 36" fill="none" xmlns="http://www.w3.org/2000/svg">
<path d="M12.285 27.8422H10.856V35.0001H12.285V27.8422Z" fill="#333333"/>
<path d="M25.1464 27.8422H23.7174V35.0001H25.1464V27.8422Z" fill="#333333"/>
<path d="M34.4341 13.1684V1H33.0051L31.576 2.07368H4.42391L2.99485 1H1.5658V13.1684H10.8559V14.6101H6.92414V24.6211H10.8559V26.0526H13.7141V35H22.2834V26.0526H25.144V24.6211H29.0758V14.6101H25.144V13.1684H34.4341ZM10.8559 23.1794H8.35319V16.0316H10.8559V23.1794ZM27.6467 16.0215V23.1794H25.144V16.0316L27.6467 16.0215ZM20.8568 11.7368V13.1684H23.7175V24.6211H20.8568V33.5684H15.1431V24.6211H12.285V13.1684H15.1406V11.7368H2.99485V3.50526H33.0051V11.7368H20.8568Z" fill="#333333"/>
</svg>
