<svg width="36" height="36" viewBox="0 0 36 36" fill="none" xmlns="http://www.w3.org/2000/svg">
<path fill-rule="evenodd" clip-rule="evenodd" d="M3.35648 6.24999H26.2134V12.0549H34.2758L35.9191 16.437L30.3597 19.8581V21.6984C31.5963 22.3953 32.4329 23.7211 32.4329 25.2438C32.4329 27.49 30.612 29.3109 28.3658 29.3109C26.1197 29.3109 24.2988 27.49 24.2988 25.2438C24.2988 24.2303 24.67 23.3032 25.2825 22.5916L24.688 21.8476H21.2378V24.4146C21.2378 27.1188 19.0456 29.3109 16.3415 29.3109C13.8923 29.3109 11.8632 27.5127 11.5022 25.1645L9.34157 25.1646L8.09766 27.6524H0.999989C0.675996 27.6524 0.38863 27.4444 0.287478 27.1366C0.186326 26.8288 0.294257 26.4908 0.55509 26.2986L8.63156 20.3476H10.6158V19.3598H6.63392L3.35648 6.24999ZM5.27764 7.74999L7.80508 17.8598H12.1158V21.8476H9.12451L3.28218 26.1524H7.17061L8.41451 23.6646L12.9451 23.6645V24.4145C12.9451 26.2903 14.4657 27.8109 16.3415 27.8109C18.2172 27.8109 19.7378 26.2904 19.7378 24.4146V20.3476H25.4095L27.346 22.7711L26.7618 23.2394C26.1734 23.7111 25.7988 24.4335 25.7988 25.2438C25.7988 26.6616 26.9481 27.8109 28.3658 27.8109C29.7836 27.8109 30.9329 26.6616 30.9329 25.2438C30.9329 24.1676 30.2705 23.2444 29.3283 22.863L28.8597 22.6734V19.0199L34.0809 15.8069L33.2363 13.5549H24.7134V7.74999H5.27764Z" fill="#333333"/>
</svg>
