<svg width="36" height="36" viewBox="0 0 36 36" fill="none" xmlns="http://www.w3.org/2000/svg">
<path d="M27.5785 24.5283C27.5785 24.3527 27.631 24.1809 27.7295 24.0349C27.8279 23.8889 27.9678 23.7752 28.1315 23.708C28.2951 23.6408 28.4753 23.6232 28.649 23.6575C28.8228 23.6917 28.9824 23.7762 29.1077 23.9004C29.2329 24.0246 29.3183 24.1828 29.3528 24.355C29.3874 24.5272 29.3696 24.7057 29.3018 24.8679C29.234 25.0301 29.1192 25.1688 28.9719 25.2664C28.8246 25.3639 28.6514 25.416 28.4743 25.416C28.2367 25.416 28.0088 25.3225 27.8409 25.156C27.6729 24.9895 27.5785 24.7638 27.5785 24.5283Z" fill="#333333"/>
<path fill-rule="evenodd" clip-rule="evenodd" d="M26.1601 6H3.1332L6.43396 19.2031H10.4492V20.2109H8.44493L0.305151 26.2085C0.0443183 26.4007 -0.0636134 26.7388 0.0375389 27.0466C0.138691 27.3544 0.426057 27.5625 0.75005 27.5625H7.90103L9.15494 25.0547L11.3418 25.0544C11.7031 27.4211 13.7472 29.2341 16.2148 29.2341C17.6715 29.2341 18.9814 28.6014 19.8828 27.5981C20.154 27.2963 20.3886 26.9606 20.5795 26.5979L19.2522 25.8992C19.1195 26.1513 18.9561 26.3852 18.767 26.5957C18.1381 27.2957 17.2281 27.7341 16.2148 27.7341C14.3207 27.7341 12.7851 26.1986 12.7851 24.3044V23.5544L8.22788 23.5547L6.97398 26.0625H3.03224L8.93788 21.7109H11.9492V17.7031H7.60513L5.05436 7.5H24.6601V13.3516H33.2496L34.1041 15.6301L28.8397 18.8699V20.0511C28.7101 20.0397 28.5797 20.0338 28.4491 20.0334H19.1792L22.9407 17.885L21.8665 16L13 21.1021L21.8665 26.2019L22.9407 24.2957L19.3537 22.2415H28.4316C29.0506 22.2554 29.6398 22.508 30.0741 22.9453C30.5085 23.3826 30.7539 23.9703 30.7583 24.584C30.7634 24.89 30.707 25.194 30.5924 25.4783C30.4778 25.7625 30.3072 26.0213 30.0907 26.2395C29.8741 26.4577 29.6159 26.631 29.331 26.7493C29.0462 26.8676 28.7404 26.9285 28.4316 26.9285C28.1199 26.9307 27.8108 26.8721 27.5219 26.7559C27.2331 26.6396 26.9702 26.468 26.7484 26.251C26.5265 26.0339 26.35 25.7757 26.2289 25.491C26.1079 25.2063 26.0447 24.9005 26.0429 24.5916C26.0429 24.065 26.2814 23.4214 26.5373 23.1658H24.0943C23.9443 23.617 23.8696 24.0896 23.8733 24.5647C23.8966 25.7481 24.3869 26.8754 25.2391 27.7046C26.0913 28.5338 27.2375 28.9987 28.4317 29C29.6259 29.0013 30.7731 28.5386 31.627 27.7112C32.481 26.8838 32.9738 25.7578 32.9996 24.5745C33.008 23.9328 32.8754 23.2969 32.6109 22.7112C32.3464 22.1255 31.9563 21.6039 31.4679 21.1826C31.1973 20.9231 30.7256 20.6416 30.5237 20.5332C30.4629 20.5023 30.4016 20.4728 30.3397 20.4448V19.708L35.9424 16.2603L34.2891 11.8516H26.1601V6Z" fill="#333333"/>
</svg>
