<svg width="36" height="36" viewBox="0 0 36 36" fill="none" xmlns="http://www.w3.org/2000/svg">
<path d="M7.91955 21.876L7.46053 21.0727L1 24.7979L7.46053 28.5129L7.93839 27.6668L3.80036 25.2792H33.1656V24.3081H3.77467L7.91955 21.876Z" fill="#333333"/>
<path d="M15.3067 17.553L8.50875 22.8009C8.53958 22.8009 13.4758 22.8009 13.498 22.8009C13.6951 22.8056 13.8911 22.7702 14.0742 22.6968C14.2572 22.6235 14.4234 22.5138 14.5628 22.3743C14.7021 22.2348 14.8116 22.0684 14.8848 21.8853C14.9579 21.7022 14.993 21.5062 14.9881 21.309V21.1018H16.3583C16.863 21.7809 17.56 22.2926 18.3591 22.5708C19.1581 22.8489 20.0223 22.8805 20.8395 22.6616C21.6567 22.4426 22.3893 21.9832 22.9423 21.3429C23.4953 20.7026 23.8431 19.9109 23.9407 19.0705H26.8524L26.9723 19.2315C26.7027 19.6112 26.559 20.0658 26.5612 20.5315C26.5612 21.1356 26.8012 21.715 27.2284 22.1422C27.6556 22.5694 28.2351 22.8094 28.8392 22.8094C29.4434 22.8094 30.0228 22.5694 30.45 22.1422C30.8772 21.715 31.1172 21.1356 31.1172 20.5315C31.1298 20.2365 31.0831 19.9421 30.9798 19.6655C30.8766 19.389 30.7188 19.1359 30.516 18.9215V18.5464L35 14.9273L33.0646 10.9588H26.8747L26.8627 7.49735L10.3226 7.48708V8.45821H10.8364L12.5046 16.6024H16.2264V17.5513L15.3067 17.553ZM17.1411 15.6826H13.3062L11.8195 8.45821H25.8984V11.9403H32.4805L33.8114 14.6293L29.5397 18.0754V19.425C29.7243 19.5492 29.8752 19.7171 29.9792 19.9137C30.0832 20.1103 30.137 20.3296 30.1358 20.552C30.1315 20.7841 30.0653 21.0107 29.9442 21.2087C29.8231 21.4067 29.6514 21.5688 29.4468 21.6783C29.2422 21.7879 29.0121 21.8409 28.7802 21.8318C28.5483 21.8228 28.3229 21.7521 28.1275 21.627C27.932 21.502 27.7734 21.327 27.668 21.1202C27.5626 20.9134 27.5143 20.6823 27.528 20.4506C27.5417 20.2189 27.617 19.9951 27.746 19.8022C27.875 19.6093 28.0531 19.4542 28.262 19.3531L27.3337 18.1062H22.9679C22.9839 18.277 22.9896 18.4486 22.985 18.62C22.9767 19.3403 22.7298 20.0374 22.2828 20.6022C21.8358 21.167 21.2141 21.5676 20.515 21.7411C19.816 21.9147 19.0791 21.8514 18.4198 21.5612C17.7606 21.271 17.2163 20.7703 16.8722 20.1375H14.0632L13.5871 20.8689C13.6285 20.8708 13.6692 20.8807 13.707 20.898C13.7942 20.9327 13.8697 20.9916 13.9246 21.0678C13.9795 21.1439 14.0116 21.2342 14.017 21.3279C14.0191 21.3931 14.008 21.458 13.9845 21.5188C13.961 21.5796 13.9255 21.635 13.8801 21.6819C13.8347 21.7287 13.7804 21.7659 13.7203 21.7913C13.6603 21.8167 13.5958 21.8298 13.5306 21.8297H11.3468L15.6475 18.5138H17.1462L17.1411 15.6826Z" fill="#333333"/>
</svg>
