<svg width="36" height="36" viewBox="0 0 36 36" fill="none" xmlns="http://www.w3.org/2000/svg">
<path d="M28.9976 6.57935L23.1392 11.1531L23.7493 11.9345L29.6076 7.36073L28.9976 6.57935Z" fill="#333333"/>
<path d="M25.2599 14.6811L31.4211 10.527L30.8686 9.70529L24.7056 13.8612L25.2599 14.6811Z" fill="#333333"/>
<path d="M26.5414 17.038L33.2237 13.7825L32.7883 12.8908L26.1061 16.148L26.5414 17.038Z" fill="#333333"/>
<path d="M16.4586 14.4451C15.3183 13.214 13.8538 12.3296 12.2333 11.8936C10.6129 11.4576 8.90232 11.4877 7.29823 11.9805C5.69415 12.4733 4.26168 13.4087 3.16548 14.6792C2.06929 15.9498 1.35387 17.5039 1.10145 19.1628C0.849043 20.8218 1.06989 22.5183 1.73861 24.0574C2.40732 25.5965 3.49677 26.9156 4.88171 27.8631C6.26664 28.8107 7.89085 29.3482 9.56763 29.4139C11.2444 29.4796 12.9057 29.0708 14.3605 28.2345L27.4855 20.6623L22.0341 11.2211L16.4586 14.4451ZM13.3744 26.5176C12.1858 27.2006 10.8214 27.516 9.45366 27.4239C8.08588 27.3318 6.77609 26.8363 5.68981 26C4.60352 25.1638 3.78949 24.0243 3.35058 22.7256C2.91166 21.4269 2.86755 20.0272 3.22383 18.7034C3.58011 17.3797 4.32078 16.1912 5.35226 15.2882C6.38374 14.3853 7.65973 13.8083 9.019 13.6302C10.3783 13.4522 11.7598 13.681 12.9891 14.2879C14.2183 14.8947 15.2401 15.8523 15.9253 17.0397L21.312 13.9328L24.7825 19.9367L13.3744 26.5176Z" fill="#333333"/>
<path d="M34.6276 16.0449L27.7338 18.8283L28.1045 19.7462L35 16.9645L34.6276 16.0449Z" fill="#333333"/>
<path d="M9.91086 17.538C9.32301 17.538 8.74836 17.7123 8.25958 18.0389C7.7708 18.3655 7.38984 18.8297 7.16488 19.3728C6.93992 19.9159 6.88106 20.5135 6.99574 21.0901C7.11043 21.6666 7.39351 22.1962 7.80918 22.6119C8.22485 23.0276 8.75445 23.3107 9.33101 23.4253C9.90756 23.54 10.5052 23.4812 11.0483 23.2562C11.5914 23.0312 12.0556 22.6503 12.3822 22.1615C12.7088 21.6727 12.8831 21.0981 12.8831 20.5102C12.8831 19.7219 12.5699 18.9659 12.0125 18.4085C11.4551 17.8511 10.6991 17.538 9.91086 17.538ZM9.91086 22.4876C9.51856 22.4894 9.13458 22.3746 8.80759 22.1578C8.48061 21.941 8.22536 21.6321 8.07419 21.2701C7.92302 20.908 7.88275 20.5093 7.95848 20.1244C8.0342 19.7394 8.22252 19.3857 8.49955 19.1079C8.77659 18.8301 9.12986 18.6409 9.51458 18.5641C9.89931 18.4874 10.2982 18.5266 10.6606 18.6768C11.023 18.827 11.3326 19.0814 11.5503 19.4078C11.7679 19.7342 11.8837 20.1179 11.883 20.5102C11.8821 21.0335 11.6742 21.5351 11.3047 21.9056C10.9352 22.2761 10.4341 22.4853 9.91086 22.4876Z" fill="#333333"/>
</svg>
