<svg width="36" height="36" viewBox="0 0 36 36" fill="none" xmlns="http://www.w3.org/2000/svg">
<path d="M18 14C18.5523 14 19 13.5523 19 13C19 12.4477 18.5523 12 18 12C17.4477 12 17 12.4477 17 13C17 13.5523 17.4477 14 18 14Z" fill="#333333"/>
<path fill-rule="evenodd" clip-rule="evenodd" d="M18.9965 4.63303L21.1963 2.43246H24.4304V1H20.6034L9.61546 11.9864L7.41559 9.78709V6.55141H5.98315V10.3806L16.9698 21.3733L14.77 23.5663H11.5346V25H15.3629L26.3496 14.0123L28.5507 16.2129V19.4473H29.9832V15.6194L18.9965 4.63303ZM17.9851 20.3534L10.6294 13L17.9825 5.64663L25.3369 13L17.9851 20.3534Z" fill="#333333"/>
<path d="M25.2894 25.6643H23.6985V27.1412H25.2894V25.6643Z" fill="#333333"/>
<path d="M11.1619 34.5609H9.83276L12.0387 27.0906H13.3679L11.1619 34.5609Z" fill="#333333"/>
<path d="M6.30118 28.1161C6.62327 27.9306 6.99185 27.8413 7.36316 27.859C8.54466 27.859 9.4663 28.547 9.47378 29.8818V34.0694H7.88287V30.3996C7.88287 29.9547 7.85857 29.2069 6.84906 29.2069C6.14427 29.2069 5.59839 29.6836 5.59839 30.6034V34.0637H4V28.0179H5.52174V28.9059H5.54604C5.717 28.5758 5.97908 28.3017 6.30118 28.1161Z" fill="#333333"/>
<path d="M20.2792 27.8589C19.3314 27.8589 18.887 28.5043 18.678 28.8079L18.6659 28.8254C18.2565 28.1786 17.8583 27.8589 16.9834 27.8589C16.6258 27.8426 16.2715 27.9335 15.966 28.1201C15.6606 28.3066 15.4178 28.5803 15.2691 28.9058H15.2466V28.0178H13.723V34.0637H15.3195V30.3827C15.3195 29.7228 15.5588 29.2012 16.3085 29.2012C17.2619 29.2012 17.2619 29.9172 17.2619 30.4276V34.0637H18.8528V30.4388C18.8528 29.7228 19.137 29.2012 19.9334 29.2012C20.3989 29.2012 20.7971 29.4966 20.7971 30.3939V34.0637H22.388V29.8817C22.3824 28.5469 21.4607 27.8589 20.2792 27.8589Z" fill="#333333"/>
<path d="M23.6985 28.0178H25.2894V34.0637H23.6985V28.0178Z" fill="#333333"/>
<path d="M28.9293 28.1164C29.2513 27.9309 29.6198 27.8415 29.9911 27.859C31.1745 27.859 32.0942 28.5469 32.0942 29.8817V34.0693H30.5033V30.3995C30.5033 29.9546 30.4809 29.2068 29.4695 29.2068C28.7647 29.2068 28.2188 29.6835 28.2188 30.6033V34.0637H26.6279V28.0179H28.1515V28.9058H28.174C28.3451 28.5759 28.6072 28.3019 28.9293 28.1164Z" fill="#333333"/>
</svg>
