<svg width="36" height="36" viewBox="0 0 36 36" fill="none" xmlns="http://www.w3.org/2000/svg">
<path d="M7.38 27.859C7.0087 27.8413 6.64012 27.9306 6.31802 28.1161C5.99593 28.3017 5.73384 28.5758 5.56289 28.9059H5.53859V28.0179H4.01685V34.0637H5.61523V30.6034C5.61523 29.6836 6.16112 29.2069 6.8659 29.2069C7.87541 29.2069 7.89972 29.9547 7.89972 30.3996V34.0693H9.49063V29.8817C9.48315 28.5469 8.5615 27.859 7.38 27.859Z" fill="#333333"/>
<path d="M9.84953 34.5609H11.1787L13.3847 27.0906H12.0555L9.84953 34.5609Z" fill="#333333"/>
<path d="M20.296 27.8589C19.3295 27.8589 18.8865 28.53 18.6827 28.8254C18.2733 28.1786 17.8751 27.8589 17.0002 27.8589C16.6426 27.8425 16.2883 27.9335 15.9828 28.12C15.6774 28.3066 15.4346 28.5802 15.2859 28.9058H15.2634V28.0178H13.7398V34.0636H15.3363V30.3827C15.3363 29.7227 15.5756 29.2012 16.3253 29.2012C17.2787 29.2012 17.2787 29.9172 17.2787 30.4275V34.0636H18.8696V30.4387C18.8696 29.7227 19.1538 29.2012 19.9502 29.2012C20.4157 29.2012 20.8139 29.4965 20.8139 30.3939V34.0636H22.4048V29.8816C22.3992 28.5469 21.4775 27.8589 20.296 27.8589Z" fill="#333333"/>
<path d="M25.3062 28.0178H23.7153V34.0637H25.3062V28.0178Z" fill="#333333"/>
<path d="M25.3062 25.6642H23.7153V27.1411H25.3062V25.6642Z" fill="#333333"/>
<path d="M30.0079 27.8589C29.6367 27.8415 29.2682 27.9308 28.9461 28.1164C28.6241 28.3019 28.362 28.5759 28.1908 28.9058H28.1684V28.0178H26.6448V34.0637H28.2357V30.6033C28.2357 29.6835 28.7816 29.2068 29.4864 29.2068C30.4977 29.2068 30.5202 29.9546 30.5202 30.3995V34.0693H32.1111V29.8817C32.1111 28.5469 31.1913 27.8589 30.0079 27.8589Z" fill="#333333"/>
<path d="M23.2495 7.76276V2.61108H12.7505V7.76276C11.2985 8.86244 10.2285 10.3903 9.69158 12.1308C9.15462 13.8712 9.1778 15.7364 9.75783 17.4629C10.3379 19.1895 11.4455 20.6904 12.9243 21.7536C14.4032 22.8169 16.1786 23.3889 18 23.3889C19.8214 23.3889 21.5968 22.8169 23.0756 21.7536C24.5545 20.6904 25.6621 19.1895 26.2421 17.4629C26.8222 15.7364 26.8453 13.8712 26.3084 12.1308C25.7714 10.3903 24.7015 8.86244 23.2495 7.76276ZM18.007 21.9788C16.4281 21.9729 14.894 21.4534 13.6364 20.4987C12.3788 19.544 11.4661 18.2059 11.0361 16.6867C10.606 15.1675 10.6821 13.5496 11.2527 12.0774C11.8234 10.6052 12.8576 9.35865 14.1992 8.52612V4.06491H21.802V8.52612C23.1427 9.35806 24.1765 10.6034 24.7474 12.0744C25.3183 13.5453 25.3954 15.162 24.967 16.6806C24.5386 18.1992 23.628 19.5372 22.3725 20.4929C21.1171 21.4487 19.5848 21.9702 18.007 21.9788Z" fill="#333333"/>
</svg>
