<svg width="36" height="36" viewBox="0 0 36 36" fill="none" xmlns="http://www.w3.org/2000/svg">
<path d="M29.4535 1.43896L23.2448 5.94318L23.8629 6.7951L30.0715 2.29089L29.4535 1.43896Z" fill="#333333"/>
<path d="M31.1665 4.24158L24.7175 8.39444L25.2874 9.27935L31.7363 5.12648L31.1665 4.24158Z" fill="#333333"/>
<path d="M32.8599 7.07543L26.178 10.842L26.6948 11.7589L33.3767 7.9923L32.8599 7.07543Z" fill="#333333"/>
<path d="M34.5437 9.92362L27.6344 13.2548L28.0907 14.2012L35 10.87L34.5437 9.92362Z" fill="#333333"/>
<path d="M12.5958 23.8733C13.4183 23.6265 14.1986 23.2565 14.9102 22.7759L27.572 15.2625L22.1338 6.02365L16.6301 9.37185C15.7643 8.48104 14.728 7.77366 13.583 7.29189C12.438 6.81012 11.2077 6.56381 9.96547 6.56766C8.79429 6.55063 7.63142 6.76659 6.54445 7.203C5.45749 7.6394 4.46812 8.28754 3.63389 9.10973C2.79965 9.93192 2.13719 10.9117 1.68502 11.9923C1.23285 13.0728 1 14.2324 1 15.4037C1 16.575 1.23285 17.7346 1.68502 18.8151C2.13719 19.8956 2.79965 20.8754 3.63389 21.6976C4.46812 22.5198 5.45749 23.1679 6.54445 23.6043C7.63142 24.0407 8.79429 24.2567 9.96547 24.2397C10.8554 24.2468 11.7416 24.1233 12.5958 23.8733ZM3.3401 15.4289C3.33798 14.0095 3.78555 12.6259 4.61859 11.4767C5.45163 10.3275 6.62732 9.47166 7.97694 9.0321C9.32656 8.59253 10.7807 8.59181 12.1308 9.03002C13.4809 9.46823 14.6574 10.3229 15.4916 11.4713C15.7683 11.933 15.9646 12.292 15.9646 12.292L21.386 9.02226L24.6557 14.5596L13.8147 21.0205C12.8005 21.692 11.6237 22.0769 10.4087 22.1342C9.19372 22.1916 7.98583 21.9193 6.91294 21.3463C5.84004 20.7732 4.94207 19.9207 4.3141 18.879C3.68612 17.8373 3.35152 16.6452 3.34571 15.4289H3.3401Z" fill="#333333"/>
<path d="M13.136 15.3765C13.1364 14.7627 12.9547 14.1625 12.6139 13.6519C12.2732 13.1414 11.7886 12.7433 11.2216 12.5081C10.6546 12.273 10.0305 12.2112 9.42844 12.3308C8.82633 12.4503 8.2732 12.7457 7.83901 13.1796C7.40482 13.6136 7.10907 14.1665 6.98918 14.7686C6.86928 15.3706 6.93063 15.9947 7.16546 16.5618C7.40028 17.129 7.79804 17.6138 8.30842 17.9548C8.81879 18.2959 9.41886 18.478 10.0327 18.478C10.8554 18.478 11.6445 18.1513 12.2264 17.5697C12.8083 16.9881 13.1355 16.1993 13.136 15.3765ZM10.0252 17.5395C9.60048 17.5395 9.18526 17.4136 8.83206 17.1776C8.47886 16.9417 8.20355 16.6063 8.04091 16.2139C7.87828 15.8216 7.83563 15.3898 7.91836 14.9731C8.00109 14.5565 8.20549 14.1738 8.5057 13.8733C8.80592 13.5728 9.18849 13.3681 9.60504 13.285C10.0216 13.2019 10.4534 13.2442 10.846 13.4065C11.2385 13.5688 11.5741 13.8438 11.8103 14.1968C12.0466 14.5498 12.1729 14.9649 12.1732 15.3896C12.1735 15.6719 12.1181 15.9514 12.0103 16.2122C11.9024 16.473 11.7443 16.7101 11.5448 16.9097C11.3453 17.1094 11.1084 17.2678 10.8477 17.3758C10.5869 17.4839 10.3075 17.5395 10.0252 17.5395Z" fill="#333333"/>
<path d="M7.38003 27.859C7.00872 27.8413 6.64014 27.9305 6.31805 28.1161C5.99595 28.3017 5.73387 28.5758 5.56292 28.9059H5.53861V28.0179H4.01687V34.0637H5.61526V30.6033C5.61526 29.6836 6.16114 29.2069 6.86593 29.2069C7.87544 29.2069 7.89974 29.9546 7.89974 30.3996V34.0693H9.49065V29.8817C9.48318 28.5469 8.56153 27.859 7.38003 27.859Z" fill="#333333"/>
<path d="M9.84956 34.5609H11.1787L13.3847 27.0906H12.0555L9.84956 34.5609Z" fill="#333333"/>
<path d="M20.2961 27.8589C19.3295 27.8589 18.8865 28.53 18.6827 28.8254C18.2733 28.1786 17.8751 27.8589 17.0002 27.8589C16.6426 27.8425 16.2883 27.9335 15.9829 28.12C15.6774 28.3066 15.4347 28.5802 15.2859 28.9058H15.2635V28.0178H13.7399V34.0636H15.3364V30.3827C15.3364 29.7227 15.5757 29.2012 16.3253 29.2012C17.2787 29.2012 17.2787 29.9172 17.2787 30.4275V34.0636H18.8697V30.4387C18.8697 29.7227 19.1538 29.2012 19.9502 29.2012C20.4157 29.2012 20.8139 29.4965 20.8139 30.3939V34.0636H22.4048V29.8816C22.3992 28.5468 21.4776 27.8589 20.2961 27.8589Z" fill="#333333"/>
<path d="M25.3062 28.0178H23.7153V34.0637H25.3062V28.0178Z" fill="#333333"/>
<path d="M25.3062 25.6642H23.7153V27.1411H25.3062V25.6642Z" fill="#333333"/>
<path d="M30.008 27.8589C29.6367 27.8415 29.2682 27.9308 28.9461 28.1164C28.6241 28.3019 28.362 28.5759 28.1908 28.9058H28.1684V28.0178H26.6448V34.0637H28.2357V30.6033C28.2357 29.6835 28.7816 29.2068 29.4864 29.2068C30.4978 29.2068 30.5202 29.9546 30.5202 30.3995V34.0693H32.1111V29.8817C32.1111 28.5469 31.1913 27.8589 30.008 27.8589Z" fill="#333333"/>
</svg>
