<svg width="36" height="36" viewBox="0 0 36 36" fill="none" xmlns="http://www.w3.org/2000/svg">
<path d="M21.294 18C21.2937 17.7982 21.2749 17.5968 21.2379 17.3985L33.2766 10.4507L32.1877 8.54352L20.1393 15.5068C19.8321 15.2433 19.4786 15.0394 19.0967 14.9052V1H16.9033V14.8975C16.5239 15.0353 16.1731 15.2419 15.8685 15.5068L3.81241 8.54352L2.7157 10.4507L14.7621 17.3985C14.6873 17.796 14.6873 18.204 14.7621 18.6015L2.7157 25.5493L3.81241 27.4507L15.8685 20.501C16.1766 20.7627 16.5299 20.9659 16.9111 21.1006V35H19.0967V21.1025C19.4782 20.9684 19.8316 20.7652 20.1393 20.5029L32.1877 27.4507L33.2844 25.5493L21.2379 18.6015C21.275 18.4032 21.2938 18.2018 21.294 18ZM17.9962 19.0716C17.7793 19.0716 17.5672 19.0072 17.3869 18.8867C17.2065 18.7662 17.0659 18.5949 16.9829 18.3945C16.8999 18.1942 16.8782 17.9736 16.9205 17.7609C16.9628 17.5482 17.0673 17.3527 17.2207 17.1994C17.374 17.046 17.5695 16.9415 17.7822 16.8992C17.9949 16.8569 18.2155 16.8786 18.4159 16.9616C18.6163 17.0446 18.7875 17.1852 18.908 17.3656C19.0286 17.5459 19.0929 17.7579 19.0929 17.9749C19.0929 18.2657 18.9773 18.5447 18.7717 18.7503C18.566 18.956 18.287 19.0716 17.9962 19.0716Z" fill="#333333"/>
</svg>
