<svg width="36" height="36" viewBox="0 0 36 36" fill="none" xmlns="http://www.w3.org/2000/svg">
<path d="M18.0238 16.8519C17.8019 16.8523 17.5851 16.9183 17.4008 17.0418C17.2164 17.1652 17.0727 17.3405 16.9878 17.5454C16.9029 17.7504 16.8806 17.976 16.9237 18.1936C16.9668 18.4113 17.0733 18.6113 17.23 18.7684C17.3866 18.9256 17.5862 19.0329 17.8037 19.0767C18.0212 19.1206 18.2468 19.0991 18.4521 19.0149C18.6574 18.9307 18.8332 18.7876 18.9572 18.6037C19.0813 18.4197 19.1481 18.2032 19.1493 17.9813C19.1506 17.833 19.1224 17.6858 19.0664 17.5485C19.0103 17.4111 18.9275 17.2862 18.8228 17.1811C18.7181 17.0761 18.5935 16.9928 18.4564 16.9363C18.3192 16.8798 18.1722 16.8511 18.0238 16.8519Z" fill="#333333"/>
<path d="M34.9576 19.1225V16.8775H26.8836C26.6839 15.2813 26.0592 13.7681 25.0749 12.4959L30.7833 6.76967L29.2037 5.19002L23.4952 10.9163C22.2266 9.92753 20.7152 9.29867 19.1196 9.09571V1H16.8805V9.09571C15.2876 9.29796 13.7783 9.92471 12.5107 10.9103L6.80228 5.1841L5.22263 6.76375L10.9311 12.49C9.94613 13.7628 9.32082 15.2766 9.12042 16.8735H1.04248V19.1225H9.11647C9.31543 20.721 9.94085 22.2365 10.9271 23.51L5.21868 29.2363L6.79833 30.8159L12.5068 25.0897C13.7739 26.0761 15.2834 26.7029 16.8765 26.9043V35H19.1196V26.9043C20.7134 26.7032 22.2236 26.0764 23.4913 25.0897L29.1998 30.8159L30.7794 29.2363L25.0709 23.51C26.0553 22.2378 26.6799 20.7246 26.8796 19.1285L34.9576 19.1225ZM17.9625 24.7757C16.63 24.7796 15.3262 24.388 14.2163 23.6506C13.1065 22.9131 12.2404 21.8629 11.7277 20.6329C11.2151 19.4029 11.0789 18.0484 11.3365 16.741C11.5941 15.4336 12.2338 14.232 13.1746 13.2883C14.1155 12.3447 15.3152 11.7015 16.6219 11.4401C17.9286 11.1786 19.2834 11.3108 20.5149 11.8199C21.7464 12.3289 22.7991 13.1919 23.5399 14.2996C24.2806 15.4073 24.676 16.7099 24.676 18.0425C24.6776 19.8253 23.9714 21.5358 22.7126 22.7983C21.4538 24.0609 19.7453 24.7721 17.9625 24.7757Z" fill="#333333"/>
</svg>
