<svg width="36" height="36" viewBox="0 0 36 36" fill="none" xmlns="http://www.w3.org/2000/svg">
<path d="M7.55716 24.8731V33.9066H28.0387V2.15046H7.55716V24.8731ZM9.73839 4.34133H25.8517V24.8596C25.3704 24.7073 24.9502 24.4054 24.6522 23.9979C24.3543 23.5903 24.1941 23.0983 24.1951 22.5935H23.0823C23.1007 22.9151 23.0532 23.237 22.9428 23.5397C22.8323 23.8423 22.6613 24.1192 22.4401 24.3534C22.2189 24.5875 21.9523 24.7741 21.6564 24.9016C21.3606 25.0291 21.0419 25.0949 20.7198 25.0949C20.3976 25.0949 20.0789 25.0291 19.7831 24.9016C19.4872 24.7741 19.2206 24.5875 18.9994 24.3534C18.7782 24.1192 18.6072 23.8423 18.4967 23.5397C18.3863 23.237 18.3389 22.9151 18.3572 22.5935H17.2387C17.2387 23.2211 16.9893 23.823 16.5456 24.2667C16.1018 24.7105 15.4999 24.9598 14.8723 24.9598C14.2447 24.9598 13.6428 24.7105 13.199 24.2667C12.7552 23.823 12.5059 23.2211 12.5059 22.5935H11.3931C11.3934 23.0974 11.2331 23.5884 10.9356 23.9951C10.6381 24.4019 10.2187 24.7033 9.73839 24.8557V4.34133ZM9.73839 26.0129C10.1894 25.9174 10.6171 25.7337 10.9967 25.4722C11.3764 25.2107 11.7006 24.8766 11.9505 24.4893C12.2647 24.979 12.6969 25.3818 13.2074 25.6609C13.718 25.9399 14.2905 26.0861 14.8723 26.0861C15.4541 26.0861 16.0266 25.9399 16.5371 25.6609C17.0477 25.3818 17.4799 24.979 17.7941 24.4893C18.1082 24.9794 18.5405 25.3826 19.0512 25.662C19.562 25.9413 20.1347 26.0877 20.7169 26.0877C21.299 26.0877 21.8718 25.9413 22.3825 25.662C22.8932 25.3826 23.3255 24.9794 23.6396 24.4893C23.8892 24.8769 24.2133 25.2112 24.593 25.4727C24.9727 25.7343 25.4005 25.9179 25.8517 26.0129V31.7176H9.73839V26.0129Z" fill="#333333"/>
<path d="M4.3731 23.0658H1V26.68H4.3731V28.705L7.55716 24.8731L4.3731 21.0389V23.0658ZM5.12332 23.2201L6.49261 24.8729L5.12332 26.5238V25.7755H1.75022V23.9684H5.12332V23.2201Z" fill="#333333"/>
<path d="M34.0444 27.8006V4.0674C34.0525 3.81118 34.0091 3.55593 33.9167 3.31682C33.8242 3.07772 33.6847 2.85963 33.5063 2.6755C33.3279 2.49138 33.1144 2.34498 32.8783 2.245C32.6423 2.14503 32.3886 2.09351 32.1322 2.09351C31.8758 2.09351 31.6221 2.14503 31.3861 2.245C31.15 2.34498 30.9365 2.49138 30.7581 2.6755C30.5797 2.85963 30.4402 3.07772 30.3477 3.31682C30.2553 3.55593 30.2119 3.81118 30.22 4.0674V27.8006C29.7872 28.1878 29.4821 28.6973 29.3452 29.2617C29.2083 29.8261 29.246 30.4188 29.4533 30.9613C29.6605 31.5038 30.0276 31.9706 30.506 32.3C30.9844 32.6293 31.5514 32.8056 32.1322 32.8056C32.713 32.8056 33.28 32.6293 33.7584 32.3C34.2368 31.9706 34.6039 31.5038 34.8111 30.9613C35.0184 30.4188 35.0561 29.8261 34.9192 29.2617C34.7823 28.6973 34.4772 28.1878 34.0444 27.8006ZM32.9509 19.1219H31.3116V4.0674C31.3116 3.85001 31.3979 3.64153 31.5517 3.48782C31.7054 3.3341 31.9139 3.24775 32.1312 3.24775C32.3486 3.24775 32.5571 3.3341 32.7108 3.48782C32.8645 3.64153 32.9509 3.85001 32.9509 4.0674V19.1219Z" fill="#333333"/>
<path d="M11.4472 13.4134L11.8522 14.4317C14.5997 13.4216 17.4685 12.779 20.3843 12.5205V14.5397L24.415 10.5013L20.3843 6.46087V8.4801C17.4685 8.2218 14.5996 7.57916 11.8522 6.56887L11.4472 7.58716C14.6682 8.77317 18.0485 9.47067 21.4759 9.65654V9.10496L22.8683 10.5013L21.4759 11.8956V11.344C18.0484 11.529 14.668 12.2265 11.4472 13.4134Z" fill="#333333"/>
</svg>
