<svg width="36" height="36" viewBox="0 0 36 36" fill="none" xmlns="http://www.w3.org/2000/svg">
<path d="M34.5132 13.8094C34.4736 13.8094 30.5479 13.8094 30.1419 13.8094C29.873 13.7898 29.6082 13.7319 29.3557 13.6374L22.7377 11.2049L22.7102 11.1963C21.7072 10.8935 21.0398 11.0535 20.9555 11.0776L17.3428 12.1304C17.2769 11.8571 17.1206 11.6141 16.8992 11.4408C16.6778 11.2674 16.4043 11.174 16.1232 11.1757H2.25066C1.92017 11.1748 1.60283 11.305 1.36834 11.5379C1.13384 11.7708 1.00137 12.0872 1 12.4177V21.1912C1.00137 21.5217 1.13384 21.8382 1.36834 22.071C1.60283 22.3039 1.92017 22.4342 2.25066 22.4333H16.1232C16.3857 22.4329 16.6415 22.3498 16.8543 22.1959C17.0368 22.3224 17.2436 22.4097 17.4615 22.4522C17.3523 22.6923 17.2937 22.9523 17.2895 23.216C17.2895 24.0762 17.8538 24.9776 18.9255 24.9862H26.3452C27.5821 24.9862 28.7536 23.9541 28.8035 23.9007L31.0726 21.8209C31.3091 21.6354 31.6029 21.538 31.9035 21.5456H35V13.8043L34.5132 13.8094ZM16.3984 21.2067C16.397 21.2785 16.3673 21.3469 16.3158 21.3968C16.2642 21.4468 16.195 21.4743 16.1232 21.4734H2.25066C2.17886 21.4743 2.10962 21.4468 2.05805 21.3968C2.00648 21.3469 1.97677 21.2785 1.97541 21.2067V12.4332C1.97677 12.3614 2.00648 12.2931 2.05805 12.2431C2.10962 12.1932 2.17886 12.1656 2.25066 12.1666H16.1232C16.195 12.1656 16.2642 12.1932 16.3158 12.2431C16.3673 12.2931 16.397 12.3614 16.3984 12.4332V13.4963H13.9384C13.5605 13.5069 13.1885 13.5929 12.8443 13.7492C12.4822 13.9111 12.1772 14.1781 11.9689 14.5156C11.7606 14.853 11.6586 15.2454 11.6762 15.6416C11.665 15.9098 11.7101 16.1773 11.8084 16.4271C11.9068 16.6768 12.0563 16.9032 12.2473 17.0918C12.901 17.7231 13.8541 17.7231 14.0037 17.718H16.3984V21.2067ZM21.2634 24.0263H18.9376C18.4094 24.0263 18.2718 23.5291 18.2735 23.2384C18.2735 23.1145 18.3097 22.5073 18.9272 22.5073H21.1722C21.2686 22.5073 21.9928 22.5554 21.9928 23.2608C21.9877 23.8526 21.4234 23.9902 21.2634 24.0177V24.0263ZM21.9877 21.2308C21.9288 21.3284 21.8438 21.4076 21.7422 21.4593C21.6407 21.511 21.5266 21.5332 21.4131 21.5233H17.8004C17.6354 21.5286 17.4745 21.4715 17.3497 21.3633C17.3575 21.3063 17.3615 21.2488 17.3618 21.1912V20.2778C17.4921 20.1972 17.6439 20.1582 17.797 20.166H21.3185C21.4467 20.157 21.575 20.1826 21.6899 20.2401C21.8049 20.2976 21.9024 20.3849 21.9722 20.4928C22.0372 20.6044 22.0728 20.7307 22.0755 20.8598C22.0782 20.9889 22.048 21.1166 21.9877 21.2308ZM22.0307 18.5299C22.0307 19.1166 21.4406 19.1837 21.26 19.1905H17.8039C17.6592 19.1899 17.515 19.2055 17.3738 19.237V17.699H21.2479C21.3552 17.6984 21.4614 17.7197 21.5601 17.7618C21.6588 17.804 21.7477 17.8659 21.8214 17.9438C21.8951 18.0217 21.9521 18.1139 21.9886 18.2148C22.0252 18.3156 22.0407 18.4229 22.0341 18.5299H22.0307ZM34.0298 20.5771H31.9155C31.3976 20.5669 30.892 20.7358 30.4842 21.0553L28.1566 23.1851C27.9003 23.4173 27.0746 24.0177 26.3538 24.0177H22.8014C22.9164 23.779 22.9753 23.5171 22.9734 23.2522C22.9859 22.8231 22.8275 22.4067 22.533 22.0944C22.6551 21.9857 22.7596 21.8586 22.8426 21.7177C22.9904 21.4547 23.0671 21.1578 23.0653 20.8561C23.0635 20.5545 22.9832 20.2585 22.8323 19.9974C22.7578 19.8704 22.6657 19.7546 22.5588 19.6533C22.7086 19.5076 22.8265 19.3324 22.905 19.1387C22.9835 18.945 23.0209 18.7371 23.0147 18.5282C23.0144 18.3942 23.0011 18.2606 22.9751 18.1291C23.0676 18.2347 23.1484 18.3501 23.2159 18.4732C23.8095 19.5054 25.3526 19.7754 27.9915 19.901L28.0379 18.9273L27.4496 18.8946C25.6433 18.7846 24.3926 18.5678 24.0623 17.9898C23.4275 16.8767 22.5244 16.7391 21.9016 16.7305C21.2789 16.7219 14.2962 16.7305 14.002 16.7305H13.9848C13.9848 16.7305 13.2967 16.7305 12.9286 16.3761C12.8338 16.2771 12.7607 16.1594 12.7139 16.0306C12.6671 15.9017 12.6476 15.7646 12.6568 15.6278C12.6516 14.5268 13.7302 14.4546 13.9384 14.4546H22.0978V13.4809H17.3738V13.1368L21.217 12.0169C21.6214 11.9568 22.0343 11.9945 22.4212 12.127L29.0202 14.5475C29.3797 14.6838 29.758 14.7639 30.1419 14.7849H34.0298V20.5771Z" fill="#333333"/>
<path d="M5.8959 13.6065H3.11762V16.3848H5.8959V13.6065Z" fill="#333333"/>
</svg>
