<svg width="36" height="36" viewBox="0 0 36 36" fill="none" xmlns="http://www.w3.org/2000/svg">
<path d="M7.63393 7.69086L5.9785 6.03543C2.79077 9.22404 1 13.5482 1 18.0569C1 22.5657 2.79077 26.8898 5.9785 30.0784L7.63393 28.423C6.27264 27.0621 5.19278 25.4464 4.45604 23.6681C3.71929 21.8899 3.34008 19.9839 3.34008 18.059C3.34008 16.1341 3.71929 14.2281 4.45604 12.4499C5.19278 10.6716 6.27264 9.05587 7.63393 7.695V7.69086Z" fill="#333333"/>
<path d="M17.9514 5.10217C15.4004 5.10258 12.9069 5.85943 10.7861 7.277C8.66528 8.69457 7.01246 10.7092 6.03663 13.0661C5.0608 15.4231 4.80579 18.0164 5.30386 20.5183C5.80193 23.0201 7.0307 25.3181 8.83478 27.1216C10.6389 28.9251 12.9372 30.1532 15.4393 30.6504C17.9413 31.1477 20.5346 30.8919 22.8912 29.9153C25.2478 28.9387 27.2619 27.2852 28.6788 25.1639C30.0957 23.0427 30.8517 20.5489 30.8513 17.9979C30.8497 14.5776 29.4899 11.2978 27.0709 8.87961C24.652 6.46142 21.3718 5.10272 17.9514 5.10217ZM18.059 29.8301C15.7402 29.8297 13.4736 29.1417 11.5458 27.8532C9.61793 26.5646 8.11549 24.7333 7.2284 22.5909C6.34131 20.4485 6.10942 18.0911 6.56205 15.8169C7.01468 13.5427 8.1315 11.4538 9.77129 9.8143C11.4111 8.1748 13.5002 7.05835 15.7745 6.60612C18.0488 6.1539 20.4061 6.3862 22.5483 7.27367C24.6906 8.16113 26.5216 9.6639 27.8098 11.5919C29.098 13.52 29.7856 15.7867 29.7856 18.1055C29.784 21.2149 28.5479 24.1965 26.349 26.395C24.1502 28.5935 21.1684 29.829 18.059 29.8301Z" fill="#333333"/>
<path d="M30.0215 6.03335L28.3661 7.68877C29.7274 9.04964 30.8072 10.6654 31.544 12.4436C32.2807 14.2219 32.6599 16.1279 32.6599 18.0528C32.6599 19.9776 32.2807 21.8836 31.544 23.6619C30.8072 25.4402 29.7274 27.0559 28.3661 28.4168L30.0215 30.0722C33.2092 26.8836 35 22.5595 35 18.0507C35 13.542 33.2092 9.21781 30.0215 6.02921V6.03335Z" fill="#333333"/>
</svg>
