<svg width="36" height="36" viewBox="0 0 36 36" fill="none" xmlns="http://www.w3.org/2000/svg">
<path d="M7.63325 7.65704L5.97672 6.00051C4.39897 7.57733 3.14737 9.44957 2.29345 11.5103C1.43952 13.571 1 15.7797 1 18.0103C1 20.2409 1.43952 22.4497 2.29345 24.5104C3.14737 26.5711 4.39897 28.4433 5.97672 30.0201L7.63325 28.3636C6.27313 27.0043 5.19417 25.3903 4.45803 23.6138C3.72189 21.8374 3.343 19.9333 3.343 18.0103C3.343 16.0874 3.72189 14.1833 4.45803 12.4068C5.19417 10.6304 6.27313 9.01637 7.63325 7.65704Z" fill="#333333"/>
<path d="M17.9866 5.11636C15.4389 5.11882 12.9493 5.87652 10.8322 7.29368C8.71512 8.71085 7.06572 10.7239 6.0925 13.0782C5.11927 15.4326 4.8659 18.0227 5.36442 20.5211C5.86294 23.0194 7.09097 25.3139 8.89327 27.1145C10.6956 28.9151 12.9912 30.1409 15.4901 30.637C17.9889 31.1331 20.5788 30.8772 22.9322 29.9017C25.2857 28.9262 27.2971 27.2749 28.7122 25.1565C30.1273 23.038 30.8826 20.5476 30.8826 18C30.8793 14.5819 29.5192 11.3049 27.1011 8.88914C24.6829 6.47334 21.4047 5.11636 17.9866 5.11636ZM17.9866 29.7137C15.6701 29.7125 13.406 29.0244 11.4805 27.7366C9.55497 26.4487 8.05456 24.6189 7.16893 22.4783C6.2833 20.3378 6.05221 17.9828 6.50489 15.711C6.95757 13.4391 8.07368 11.3525 9.71212 9.71496C11.3506 8.07739 13.4378 6.96238 15.7098 6.51091C17.9819 6.05944 20.3368 6.29177 22.4769 7.17853C24.6169 8.0653 26.446 9.56668 27.7328 11.4929C29.0196 13.419 29.7065 15.6835 29.7065 18C29.7037 21.1069 28.4679 24.0857 26.2704 26.282C24.0729 28.4783 21.0935 29.7126 17.9866 29.7137Z" fill="#333333"/>
<path d="M30.0233 6.00051L28.3668 7.65704C29.7269 9.01637 30.8058 10.6304 31.542 12.4068C32.2781 14.1833 32.657 16.0874 32.657 18.0103C32.657 19.9333 32.2781 21.8374 31.542 23.6138C30.8058 25.3903 29.7269 27.0043 28.3668 28.3636L30.0233 30.0201C31.601 28.4433 32.8526 26.5711 33.7066 24.5104C34.5605 22.4497 35 20.2409 35 18.0103C35 15.7797 34.5605 13.571 33.7066 11.5103C32.8526 9.44957 31.601 7.57733 30.0233 6.00051Z" fill="#333333"/>
<path d="M20.9249 15.1528C20.9255 14.4091 20.6441 13.6928 20.1373 13.1484C19.6305 12.604 18.9361 12.272 18.1942 12.2195C17.4523 12.167 16.7181 12.3977 16.1396 12.8652C15.5612 13.3328 15.1816 14.0023 15.0774 14.7387L16.2245 15.1528C16.2464 14.7008 16.4415 14.2745 16.7691 13.9624C17.0968 13.6502 17.532 13.4761 17.9846 13.4761C18.4371 13.4761 18.8723 13.6502 19.2 13.9624C19.5277 14.2745 19.7227 14.7008 19.7446 15.1528C19.7441 15.4937 19.6456 15.8272 19.461 16.1136L15.0484 23.9593H20.9249V22.7853H17.0756L20.5501 16.5878C20.7954 16.1493 20.9245 15.6553 20.9249 15.1528Z" fill="#333333"/>
</svg>
