<svg width="36" height="36" viewBox="0 0 36 36" fill="none" xmlns="http://www.w3.org/2000/svg">
<path d="M19.7597 22.4429V10.1085C19.7597 9.64154 19.5742 9.19373 19.2441 8.86356C18.9139 8.53339 18.4661 8.3479 17.9992 8.3479C17.5322 8.3479 17.0844 8.53339 16.7542 8.86356C16.4241 9.19373 16.2386 9.64154 16.2386 10.1085V22.4429C15.747 22.8122 15.384 23.3269 15.2011 23.9139C15.0181 24.501 15.0244 25.1307 15.2191 25.714C15.4138 26.2973 15.7871 26.8045 16.286 27.164C16.7849 27.5234 17.3843 27.7168 17.9992 27.7168C18.6141 27.7168 19.2134 27.5234 19.7123 27.164C20.2112 26.8045 20.5845 26.2973 20.7792 25.714C20.9739 25.1307 20.9802 24.501 20.7973 23.9139C20.6143 23.3269 20.2513 22.8122 19.7597 22.4429ZM18.5874 16.8629H17.4171V10.1085C17.4124 10.0287 17.424 9.94881 17.4513 9.87369C17.4785 9.79857 17.5209 9.72982 17.5757 9.67167C17.6305 9.61351 17.6966 9.56717 17.7699 9.53549C17.8433 9.50382 17.9224 9.48748 18.0023 9.48748C18.0822 9.48748 18.1612 9.50382 18.2346 9.53549C18.308 9.56717 18.3741 9.61351 18.4289 9.67167C18.4837 9.72982 18.526 9.79857 18.5533 9.87369C18.5805 9.94881 18.5921 10.0287 18.5874 10.1085V16.8629Z" fill="#333333"/>
<path d="M7.63454 7.65406L5.97753 5.99705C2.78992 9.195 1 13.5262 1 18.0414C1 22.5567 2.78992 26.8879 5.97753 30.0858L7.63454 28.4288C4.88355 25.6719 3.33856 21.9362 3.33856 18.0414C3.33856 14.1467 4.88355 10.411 7.63454 7.65406Z" fill="#333333"/>
<path d="M30.0208 5.99496L28.3638 7.65197C31.1122 10.4086 32.6556 14.1425 32.6556 18.0352C32.6556 21.9279 31.1122 25.6618 28.3638 28.4185L30.0208 30.0755C33.2094 26.878 35 22.5467 35 18.0311C35 13.5155 33.2094 9.18409 30.0208 5.98667V5.99496Z" fill="#333333"/>
<path d="M17.9784 5.07949C15.4219 5.07457 12.9214 5.82817 10.7934 7.2449C8.66536 8.66164 7.00544 10.6778 6.0237 13.0383C5.04196 15.3988 4.78254 17.9975 5.27827 20.5054C5.77401 23.0134 7.0026 25.318 8.80858 27.1274C10.6146 28.9369 12.9167 30.1699 15.4237 30.6705C17.9308 31.171 20.5299 30.9166 22.8923 29.9394C25.2547 28.9622 27.274 27.3062 28.6949 25.1809C30.1157 23.0556 30.8741 20.5565 30.8741 18C30.8763 14.5769 29.5192 11.293 27.101 8.87019C24.6828 6.44735 21.4015 5.08388 17.9784 5.07949ZM17.9784 29.7482C15.6538 29.7532 13.38 29.0683 11.4447 27.7804C9.50947 26.4925 7.9998 24.6594 7.1068 22.5131C6.21379 20.3669 5.97759 18.0039 6.42808 15.7233C6.87858 13.4428 7.99552 11.3471 9.63755 9.70162C11.2796 8.05612 13.3729 6.93474 15.6525 6.47942C17.9321 6.02409 20.2955 6.25529 22.4437 7.14375C24.5918 8.03221 26.4281 9.53799 27.7201 11.4705C29.0121 13.403 29.7018 15.6754 29.7018 18C29.7045 21.1124 28.4711 24.0984 26.2726 26.3015C24.0742 28.5046 21.0908 29.7444 17.9784 29.7482Z" fill="#333333"/>
</svg>
