<svg width="36" height="36" viewBox="0 0 36 36" fill="none" xmlns="http://www.w3.org/2000/svg">
<path d="M30.0195 5.99828L28.3661 7.65169C29.7269 9.01106 30.8065 10.6253 31.5431 12.4022C32.2797 14.1791 32.6588 16.0837 32.6588 18.0072C32.6588 19.9307 32.2797 21.8354 31.5431 23.6122C30.8065 25.3891 29.7269 27.0034 28.3661 28.3628L30.0195 30.0162C31.5984 28.4391 32.8509 26.5663 33.7055 24.5048C34.5601 22.4434 35 20.2337 35 18.0021C35 15.7705 34.5601 13.5607 33.7055 11.4993C32.8509 9.4378 31.5984 7.56499 30.0195 5.98794V5.99828Z" fill="#333333"/>
<path d="M10.6808 15.5509H7.73562V20.2383H10.6808V22.8652L15.6555 17.8946L10.6808 12.9241V15.5509ZM11.8526 15.7576L13.9979 17.8946L11.8526 20.0379V19.0665H8.90748V16.7228H11.8526V15.7576Z" fill="#333333"/>
<path d="M7.63224 7.65588L5.97883 6.00247C4.40042 7.57979 3.14829 9.45269 2.294 11.5141C1.43971 13.5756 1 15.7851 1 18.0166C1 20.248 1.43971 22.4576 2.294 24.519C3.14829 26.5805 4.40042 28.4534 5.97883 30.0307L7.63224 28.3773C6.27087 27.0182 5.19085 25.404 4.45396 23.6271C3.71706 21.8502 3.33777 19.9454 3.33777 18.0217C3.33777 16.0981 3.71706 14.1933 4.45396 12.4164C5.19085 10.6395 6.27087 9.02531 7.63224 7.66622V7.65588Z" fill="#333333"/>
<path d="M17.995 5.11163C15.4464 5.11368 12.9555 5.8713 10.8374 7.28873C8.7193 8.70617 7.06897 10.7198 6.09507 13.075C5.12116 15.4302 4.8674 18.0213 5.36587 20.5207C5.86434 23.0201 7.09265 25.3156 8.89553 27.1171C10.6984 28.9185 12.9949 30.145 15.4947 30.6415C17.9945 31.1379 20.5854 30.8821 22.9399 29.9063C25.2943 28.9305 27.3066 27.2786 28.7223 25.1593C30.138 23.04 30.8937 20.5486 30.8937 18C30.8909 14.5808 29.5308 11.3027 27.1121 8.88592C24.6934 6.46918 21.4141 5.11163 17.995 5.11163ZM17.995 29.7165C15.6781 29.7144 13.4139 29.0255 11.4885 27.7369C9.56306 26.4482 8.06293 24.6176 7.17772 22.4765C6.29251 20.3355 6.06196 17.98 6.51521 15.7079C6.96846 13.4358 8.08516 11.3491 9.72416 9.71153C11.3631 8.07398 13.4508 6.95912 15.7233 6.50787C17.9958 6.05662 20.3511 6.28925 22.4914 7.17635C24.6317 8.06344 26.461 9.56518 27.7479 11.4917C29.0349 13.4183 29.7218 15.6831 29.7218 18C29.7196 21.1085 28.4831 24.0889 26.2841 26.286C24.085 28.4831 21.1035 29.717 17.995 29.7165Z" fill="#333333"/>
<path d="M25.3134 15.5509V12.9241L20.3367 17.8946L25.3134 22.8652V20.2383H28.2565V15.5509H25.3134ZM27.0847 19.0644H24.1416V20.0358L21.9963 17.8946L24.1416 15.7535V16.7228H27.0867L27.0847 19.0644Z" fill="#333333"/>
<path d="M17.9949 16.5367C17.705 16.5367 17.4216 16.6227 17.1806 16.7838C16.9396 16.9449 16.7518 17.1739 16.641 17.4418C16.5301 17.7097 16.5012 18.0044 16.5579 18.2887C16.6146 18.573 16.7544 18.8341 16.9595 19.039C17.1647 19.2438 17.426 19.3832 17.7103 19.4395C17.9947 19.4958 18.2894 19.4665 18.5571 19.3553C18.8249 19.2441 19.0536 19.0559 19.2143 18.8147C19.3751 18.5734 19.4607 18.2899 19.4603 18C19.4603 17.8077 19.4224 17.6172 19.3487 17.4396C19.275 17.2619 19.1671 17.1005 19.031 16.9646C18.8949 16.8287 18.7333 16.7209 18.5555 16.6475C18.3778 16.5741 18.1873 16.5365 17.9949 16.5367Z" fill="#333333"/>
</svg>
