<svg width="36" height="36" viewBox="0 0 36 36" fill="none" xmlns="http://www.w3.org/2000/svg">
<path d="M7.63229 7.61355L5.97938 5.96064C4.40083 7.53756 3.14856 9.41014 2.29417 11.4713C1.43977 13.5325 1 15.7419 1 17.9732C1 20.2044 1.43977 22.4138 2.29417 24.475C3.14856 26.5362 4.40083 28.4088 5.97938 29.9857L7.63229 28.3328C6.27183 26.973 5.19261 25.3585 4.45629 23.5815C3.71997 21.8044 3.34099 19.8998 3.34099 17.9763C3.34099 16.0527 3.71997 14.1481 4.45629 12.3711C5.19261 10.5941 6.27183 8.97954 7.63229 7.61974V7.61355Z" fill="#333333"/>
<path d="M10.3143 14.3656L7.96712 14.3636V21.5785H10.3143L10.3122 19.283H13.4858V16.657H10.3143V14.3656Z" fill="#333333"/>
<path d="M20.1634 16.6591H15.8328V19.2831H20.1634V16.6591Z" fill="#333333"/>
<path d="M30.019 5.95853L28.3661 7.61144C29.7265 8.97124 30.8057 10.5858 31.5421 12.3628C32.2784 14.1398 32.6574 16.0444 32.6574 17.968C32.6574 19.8915 32.2784 21.7961 31.5421 23.5732C30.8057 25.3502 29.7265 26.9647 28.3661 28.3245L30.019 29.9774C31.598 28.4007 32.8507 26.5282 33.7054 24.467C34.5601 22.4058 35.0001 20.1963 35.0001 17.9649C35.0001 15.7335 34.5601 13.5239 33.7054 11.4627C32.8507 9.40148 31.598 7.52898 30.019 5.95233V5.95853Z" fill="#333333"/>
<path d="M17.9774 5.11142C15.4287 5.11346 12.9377 5.87115 10.8195 7.2887C8.70134 8.70625 7.05099 10.72 6.07713 13.0754C5.10327 15.4308 4.84963 18.022 5.34827 20.5215C5.84691 23.021 7.07545 25.3166 8.87857 27.118C10.6817 28.9193 12.9784 30.1457 15.4784 30.6419C17.9784 31.1382 20.5694 30.882 22.9238 29.9059C25.2783 28.9298 27.2904 27.2775 28.706 25.1579C30.1215 23.0384 30.8768 20.5467 30.8764 17.9979C30.8736 14.5789 29.5133 11.3009 27.0946 8.88443C24.6758 6.46798 21.3965 5.11087 17.9774 5.11142ZM17.9774 29.6468C15.6603 29.6452 13.3957 28.9565 11.4698 27.668C9.54401 26.3794 8.04349 24.5487 7.15798 22.4075C6.27247 20.2662 6.04174 17.9104 6.49494 15.638C6.94815 13.3656 8.06495 11.2786 9.70415 9.64087C11.3433 8.00312 13.4313 6.88816 15.7041 6.43696C17.9769 5.98576 20.3325 6.21857 22.473 7.10597C24.6135 7.99336 26.4428 9.49549 27.7297 11.4224C29.0166 13.3494 29.7032 15.6147 29.7028 17.9318C29.7006 21.0399 28.4642 24.02 26.2655 26.2168C24.0667 28.4136 21.0856 29.6474 17.9774 29.6468Z" fill="#333333"/>
<path d="M25.68 14.3656V16.657H22.5085V19.283H25.6821L25.68 21.5785H28.0271V14.3636L25.68 14.3656Z" fill="#333333"/>
</svg>
