<svg width="36" height="36" viewBox="0 0 36 36" fill="none" xmlns="http://www.w3.org/2000/svg">
<path d="M14.6265 19.708C14.6878 16.491 15.499 13.3327 16.9955 10.4843C17.1903 10.1124 17.4815 9.79965 17.8385 9.57872C18.1956 9.3578 18.6054 9.23682 19.0252 9.22844V10.3809L28.5426 6.53873L30.7544 1H19.0252V2.19382C17.323 2.20185 15.655 2.67259 14.1998 3.55566C12.7445 4.43872 11.5568 5.70087 10.7636 7.20702C8.74496 11.0475 7.65507 15.3078 7.58152 19.6459V32.6558H5.24561V35H16.9727V32.6558H14.6265V19.708ZM21.3715 3.34625H27.2909L26.7343 4.7387L21.3715 6.90495V3.34625ZM12.2823 32.6558H9.93605V19.6645C10.0017 15.704 10.9937 11.8139 12.8327 8.30567C13.4257 7.17474 14.3154 6.22657 15.4063 5.56282C16.4972 4.89908 17.7482 4.54481 19.0252 4.538V6.88426C18.1774 6.89216 17.3476 7.12971 16.6241 7.57163C15.9005 8.01355 15.3103 8.64332 14.9161 9.39396C13.2487 12.5732 12.3468 16.0979 12.2823 19.6873V32.6558Z" fill="#333333"/>
<path d="M24.7688 28.3283L24.7385 24.1958L27.8558 24.2184L27.8861 28.3509L30.0268 28.367L26.3627 32.0489L22.6425 28.3133L24.7688 28.3283Z" fill="#333333"/>
<path d="M24.7688 18.6381L24.7385 22.7706L27.8558 22.748L27.8861 18.6156L30.0268 18.5994L26.3627 14.9175L22.6425 18.6531L24.7688 18.6381Z" fill="#333333"/>
</svg>
