<svg width="36" height="36" viewBox="0 0 36 36" fill="none" xmlns="http://www.w3.org/2000/svg">
<path d="M7.6376 7.61073L5.97929 5.95242C2.7903 9.15643 1 13.493 1 18.0135C1 22.5341 2.7903 26.8706 5.97929 30.0747L7.6376 28.4163C4.88558 25.6537 3.3404 21.913 3.3404 18.0135C3.3404 14.114 4.88558 10.3734 7.6376 7.61073Z" fill="#333333"/>
<path d="M18.0186 5.059C15.4572 5.05039 12.9509 5.80204 10.8171 7.21877C8.68319 8.63551 7.01773 10.6536 6.03157 13.0175C5.04542 15.3814 4.78292 17.9848 5.27733 20.498C5.77174 23.0111 7.00081 25.3211 8.8089 27.1353C10.617 28.9495 12.9228 30.1863 15.4343 30.6892C17.9458 31.1921 20.55 30.9383 22.9172 29.9602C25.2845 28.982 27.3081 27.3233 28.7321 25.1942C30.156 23.0652 30.9161 20.5614 30.9161 18.0001C30.9205 14.5741 29.5644 11.2865 27.146 8.85988C24.7275 6.43325 21.4445 5.06614 18.0186 5.059ZM18.0186 29.7637C15.6903 29.7711 13.4123 29.0875 11.4729 27.7994C9.53345 26.5112 8.01987 24.6766 7.12378 22.5277C6.22769 20.3789 5.9894 18.0124 6.43908 15.728C6.88876 13.4437 8.00619 11.3441 9.64987 9.69518C11.2936 8.04627 13.3896 6.92218 15.6725 6.46525C17.9554 6.00831 20.3226 6.23908 22.4743 7.12834C24.626 8.01759 26.4655 9.52534 27.7597 11.4607C29.054 13.396 29.7449 15.6718 29.7449 18.0001C29.7488 21.1147 28.5157 24.1034 26.3168 26.3093C24.118 28.5152 21.1332 29.7577 18.0186 29.7637Z" fill="#333333"/>
<path d="M30.0248 5.94827L28.3665 7.60658C31.116 10.3689 32.6596 14.1078 32.6596 18.0052C32.6596 21.9027 31.116 25.6416 28.3665 28.4039L30.0248 30.0622C33.2113 26.8586 35 22.5238 35 18.0052C35 13.4867 33.2113 9.15193 30.0248 5.94827Z" fill="#333333"/>
<path d="M22.5624 18.4146L18.002 10.0691L13.5701 18.2011C13.1176 18.9824 12.8783 19.8688 12.8761 20.7717C12.874 21.6746 13.1091 22.5622 13.5579 23.3456C14.0067 24.129 14.6535 24.7808 15.4334 25.2356C16.2134 25.6904 17.0991 25.9323 18.002 25.9371C18.6776 25.9371 19.3466 25.804 19.9707 25.5452C20.5948 25.2865 21.1618 24.9073 21.6393 24.4292C22.1167 23.9512 22.4953 23.3838 22.7532 22.7593C23.0112 22.1349 23.1436 21.4658 23.1428 20.7901C23.1421 19.9639 22.9431 19.1499 22.5624 18.4167V18.4146ZM20.8087 23.5968C20.4417 23.9641 20.0057 24.2552 19.5258 24.4533C19.0459 24.6515 18.5316 24.7528 18.0124 24.7514C17.3151 24.7491 16.6307 24.5632 16.0279 24.2126C15.4252 23.862 14.9253 23.359 14.5785 22.754C14.2317 22.1491 14.0502 21.4635 14.0522 20.7662C14.0543 20.0689 14.2397 19.3844 14.59 18.7815L18.002 12.5214L21.5259 18.9701C21.9101 19.7185 22.0474 20.5692 21.9181 21.4004C21.7889 22.2316 21.3998 23.0005 20.8066 23.5968H20.8087Z" fill="#333333"/>
</svg>
