<svg width="36" height="36" viewBox="0 0 36 36" fill="none" xmlns="http://www.w3.org/2000/svg">
<path d="M17.9866 5.11029C15.4375 5.11152 12.946 5.86853 10.8271 7.28561C8.70823 8.7027 7.05709 10.7162 6.08245 13.0716C5.10781 15.427 4.85343 18.0185 5.35149 20.5185C5.84954 23.0184 7.07765 25.3145 8.88056 27.1166C10.6835 28.9186 12.9802 30.1456 15.4804 30.6425C17.9806 31.1393 20.5719 30.8837 22.9269 29.9079C25.2818 28.9322 27.2945 27.28 28.7106 25.1605C30.1266 23.0409 30.8825 20.5491 30.8825 18C30.8803 14.581 29.5207 11.3028 27.1025 8.88583C24.6844 6.46883 21.4055 5.11084 17.9866 5.11029ZM27.39 20.3152C26.7731 20.3152 26.1812 20.0707 25.7442 19.6352C25.3071 19.1997 25.0605 18.6087 25.0583 17.9917H23.5004V18.0352C23.4822 18.6451 23.2272 19.224 22.7894 19.649C22.3516 20.074 21.7654 20.3117 21.1552 20.3117C20.545 20.3117 19.9588 20.074 19.521 19.649C19.0831 19.224 18.8281 18.6451 18.81 18.0352V17.9917H17.1879C17.1698 18.6016 16.9148 19.1805 16.477 19.6055C16.0391 20.0305 15.4529 20.2683 14.8427 20.2683C14.2326 20.2683 13.6464 20.0305 13.2085 19.6055C12.7707 19.1805 12.5157 18.6016 12.4976 17.9917H10.9396C10.9216 18.5984 10.6679 19.1741 10.2324 19.5969C9.79685 20.0196 9.21379 20.256 8.60686 20.256C7.99993 20.256 7.41687 20.0196 6.98137 19.5969C6.54586 19.1741 6.29216 18.5984 6.2741 17.9917C6.27135 14.8821 7.50402 11.8987 9.70092 9.69795C11.8978 7.49717 14.879 6.25925 17.9886 6.2565C21.0982 6.25376 24.0816 7.48642 26.2824 9.68332C28.4832 11.8802 29.7211 14.8614 29.7238 17.971V17.9834C29.7233 18.602 29.4772 19.1951 29.0396 19.6324C28.6019 20.0696 28.0086 20.3152 27.39 20.3152ZM30.0197 5.97719L28.3645 7.63237C29.725 8.99229 30.8043 10.6069 31.5406 12.3841C32.277 14.1612 32.656 16.066 32.656 17.9896C32.656 19.9133 32.277 21.8181 31.5406 23.5952C30.8043 25.3724 29.725 26.987 28.3645 28.3469L30.0197 30.0021C31.5985 28.4249 32.851 26.552 33.7056 24.4905C34.5602 22.429 35 20.2192 35 17.9876C35 15.7559 34.5602 13.5462 33.7056 11.4847C32.851 9.42311 31.5985 7.55022 30.0197 5.97305V5.97719ZM7.63548 7.63237L5.9803 5.97719C4.40146 7.55436 3.14896 9.42725 2.29441 11.4888C1.43985 13.5503 1 15.7601 1 17.9917C1 20.2234 1.43985 22.4331 2.29441 24.4946C3.14896 26.5562 4.40146 28.4291 5.9803 30.0062L7.63548 28.3511C6.2747 26.9909 5.19531 25.3759 4.45903 23.5984C3.72274 21.8209 3.34399 19.9157 3.34443 17.9917C3.34443 14.1083 4.78857 10.2827 7.63548 7.63444V7.63237Z" fill="#333333"/>
</svg>
