<svg width="36" height="36" viewBox="0 0 36 36" fill="none" xmlns="http://www.w3.org/2000/svg">
<path fill-rule="evenodd" clip-rule="evenodd" d="M1 2.80127V9.98425L8.18942 2.80127H1ZM1 16.432V23.3106L21.5265 2.80127H14.6415L1 16.432ZM1 29.7691V33.1987H4.44252L9.99893 27.6445V20.7737L1 29.7691ZM17.6473 19.9992H10.7738L27.9785 2.80127H31.4211V6.23093L17.6473 19.9992ZM31.4211 12.6894L24.4912 19.6135L26.5375 21.6605L26.5386 21.6614L31.1992 17.0013L31.4211 16.7551V12.6894ZM28.3212 33.1987L26.54 31.4177L24.7593 33.1987H28.3212Z" fill="#333333"/>
<path fill-rule="evenodd" clip-rule="evenodd" d="M27.2747 25.8088C27.4202 25.9542 27.5192 26.1394 27.5594 26.3411C27.5995 26.5427 27.579 26.7517 27.5003 26.9417C27.4216 27.1317 27.2884 27.294 27.1174 27.4082C26.9465 27.5225 26.7455 27.5834 26.5398 27.5834C26.3342 27.5834 26.1332 27.5225 25.9622 27.4082C25.7913 27.294 25.658 27.1317 25.5794 26.9417C25.5007 26.7517 25.4802 26.5427 25.5203 26.3411C25.5605 26.1394 25.6595 25.9542 25.8049 25.8088C26.0001 25.6144 26.2643 25.5051 26.5398 25.5051C26.8154 25.5051 27.0796 25.6144 27.2747 25.8088ZM28.7112 29.8334L31.2206 32.3438L31.8521 31.7138L29.9659 29.8278L28.7112 29.8334ZM23.2526 28.7162L20.7419 31.2267L21.372 31.8581L23.2581 29.9708L23.2526 28.7162ZM24.3629 23.2596L21.8536 20.7491L21.2221 21.3791L23.1096 23.2637L24.3629 23.2596ZM29.8215 24.3697L32.3337 21.8593L31.7035 21.2306L29.816 23.1166L29.8215 24.3697ZM19.8286 21.8801L23.9535 26.0073V27.0773L19.8286 31.2017L21.8799 33.25L26.0048 29.1242H27.0749L31.2011 33.25L33.2497 31.1989L29.1234 27.0745V26.0045L29.197 25.9282L33.2497 21.8773L31.1997 19.829L27.0735 23.9548H26.0034L21.8786 19.829L19.8286 21.8801Z" fill="#333333"/>
<path d="M14.2775 23.5537H13V33.4261H14.2775V23.5537Z" fill="#333333"/>
<path d="M16.4369 22.7661H15.1594V32.6385H16.4369V22.7661Z" fill="#333333"/>
<path d="M18.5949 22H17.3174V31.8724H18.5949V22Z" fill="#333333"/>
</svg>
