<svg width="36" height="36" viewBox="0 0 36 36" fill="none" xmlns="http://www.w3.org/2000/svg">
<path d="M1 2.80127V9.98425L8.18942 2.80127H1Z" fill="#333333"/>
<path d="M1 16.432V23.3106L3.00573 21.3066L3.001 21.3018L7.87833 16.4217L7.88648 16.4299L21.5265 2.80127H14.6415L1 16.432Z" fill="#333333"/>
<path d="M6.23424 24.5369L1 29.7691V33.1987H4.44252L5.0094 32.6321L3 30.6235L7.66024 25.9637L6.23424 24.5369Z" fill="#333333"/>
<path d="M19.2123 18.4349L17.1992 16.423L12.5386 21.0831L11.1145 19.6586L27.9785 2.80127H31.4211V6.23093L19.2123 18.4349Z" fill="#333333"/>
<path d="M28.9854 22H22.1027L31.4211 12.6894V19.5659L28.9854 22Z" fill="#333333"/>
<path fill-rule="evenodd" clip-rule="evenodd" d="M22.4737 26.0526H18.8947V24.2632H22.4737V26.0526ZM26.9474 26.0526H23.3684V24.2632H26.9474V26.0526ZM31.4211 26.0526H27.8421V24.2632H31.4211V26.0526Z" fill="#333333"/>
<path fill-rule="evenodd" clip-rule="evenodd" d="M24.2632 28.7368H20.6842V26.9474H24.2632V28.7368ZM28.7368 28.7368H25.1579V26.9474H28.7368V28.7368ZM33.2105 28.7368H29.6316V26.9474H33.2105V28.7368Z" fill="#333333"/>
<path fill-rule="evenodd" clip-rule="evenodd" d="M26.0526 31.4211H22.4737V29.6316H26.0526V31.4211ZM30.5263 31.4211H26.9474V29.6316H30.5263V31.4211ZM35 31.4211H31.4211V29.6316H35V31.4211Z" fill="#333333"/>
<path fill-rule="evenodd" clip-rule="evenodd" d="M9.95348 26.499L5.82862 30.6235L7.8957 32.6867L12.0206 28.5609H13.0907L17.2169 32.6867L19.2654 30.6356L15.1392 26.5112V25.4412L15.2127 25.3649L19.2654 21.314L17.2155 19.2656L13.0893 23.3915H12.0192L12.0034 23.3765L7.89432 19.2656L5.84438 21.3168L9.95348 25.429V26.499ZM9.10963 22.6854L10.3629 22.6813L7.86933 20.1857L7.23783 20.8158L9.10963 22.6854ZM11.9535 25.1077C11.9636 25.1008 12.0206 25.0714 12.0424 25.0603C12.0317 25.0657 12.0528 25.0545 12.0424 25.0603C12.1995 24.9808 12.3785 24.9418 12.5556 24.9418C12.6168 24.9418 12.6774 24.9472 12.7368 24.9577C12.9451 24.9945 13.1387 25.0942 13.2905 25.2455C13.4359 25.3909 13.535 25.5761 13.5751 25.7777C13.6153 25.9794 13.5947 26.1884 13.5161 26.3784C13.4374 26.5683 13.3042 26.7307 13.1332 26.8449C12.9622 26.9591 12.7612 27.0201 12.5556 27.0201C12.35 27.0201 12.149 26.9591 11.978 26.8449C11.8071 26.7307 11.6738 26.5683 11.5951 26.3784C11.5649 26.3053 11.5409 26.2272 11.5251 26.1473C11.4999 26.0194 11.4956 25.8869 11.5203 25.7628C11.5439 25.6443 11.5879 25.5315 11.6496 25.429C11.6604 25.4112 11.6716 25.3937 11.6835 25.3765C11.7192 25.3245 11.7599 25.2756 11.8049 25.2306C11.8509 25.1848 11.9006 25.1437 11.9535 25.1077ZM6.74187 30.6484L9.2526 28.138L9.27391 29.4074L7.38773 31.2948L6.74187 30.6484ZM17.2363 31.7805L14.727 29.2701L15.9816 29.2645L17.8678 31.1505L17.2363 31.7805ZM18.3494 21.296L15.8373 23.8064L15.8318 22.5532L17.7193 20.6673L18.3494 21.296Z" fill="#333333"/>
</svg>
