<svg width="36" height="36" viewBox="0 0 36 36" fill="none" xmlns="http://www.w3.org/2000/svg">
<path d="M16.8821 26.2129V22.3007L13.0997 26.2129H16.8821Z" fill="#333333"/>
<path d="M8.2405 9.78714L1 17.2749V20.8504L11.6968 9.78714H8.2405Z" fill="#333333"/>
<path d="M9.64163 26.2128L16.8821 18.7251V15.1496L6.18534 26.2128H9.64163Z" fill="#333333"/>
<path d="M1 9.78714V13.6994L4.78421 9.78714H1Z" fill="#333333"/>
<path d="M25.5675 9.78714V26.2128H35V9.78714H25.5675ZM30.9861 18.6164C31.4236 19.0526 31.8209 19.5274 32.1732 20.035C32.5272 20.542 32.8342 21.0803 33.0904 21.643C33.6073 22.7704 33.9174 23.9815 34.0057 25.2186H26.5618C26.7369 22.7247 27.8104 20.379 29.5832 18.6164C29.7194 18.4408 29.7934 18.2249 29.7934 18.0026C29.7934 17.7804 29.7194 17.5645 29.5832 17.3889C29.1447 16.953 28.7468 16.4782 28.3943 15.9702C28.0413 15.4611 27.735 14.9211 27.4789 14.3569C27.2207 13.7924 27.0147 13.2055 26.8634 12.6034C26.7099 12.0045 26.6113 11.3929 26.5688 10.7762H34.0127C33.9235 12.0156 33.611 13.2287 33.0904 14.3569C32.8343 14.9195 32.528 15.4577 32.175 15.965C31.8226 16.473 31.4246 16.9478 30.9861 17.3836C30.8499 17.5592 30.7759 17.7751 30.7759 17.9974C30.7759 18.2196 30.8499 18.4355 30.9861 18.6111V18.6164Z" fill="#333333"/>
<path d="M17.8764 26.2128H18.925L24.5645 9.78714H23.5141L17.8764 26.2128Z" fill="#333333"/>
<path d="M1 24.426V26.2128H2.72727L16.8821 11.574V9.78714H15.1548L1 24.426Z" fill="#333333"/>
</svg>
