<svg width="36" height="36" viewBox="0 0 36 36" fill="none" xmlns="http://www.w3.org/2000/svg">
<path d="M3 3V9.71841L9.71417 3H3Z" fill="#333333"/>
<path d="M33 33.0001V26.3007L26.3133 33.0001H33Z" fill="#333333"/>
<path d="M31.2008 20.3992H25.5894L12.9971 32.9999H19.6372L33 19.6245V12.9844L31.2008 14.7857V20.3992Z" fill="#333333"/>
<path d="M29.6704 3L27.8712 4.7992H31.2008V8.1076L33 6.30629V3H29.6704Z" fill="#333333"/>
<path d="M19.2012 13.4713L3 29.6746V32.9999H6.30205L19.2012 20.105V13.4713Z" fill="#333333"/>
<path d="M19.2012 4.7992H21.2311L23.0303 3H16.3543L3 16.3585V23.0367L19.2012 6.83123V4.7992Z" fill="#333333"/>
<path d="M25.1639 17.182C24.9738 17.1815 24.7878 17.2375 24.6294 17.3429C24.4711 17.4482 24.3476 17.5982 24.2746 17.7737C24.2015 17.9493 24.1822 18.1426 24.219 18.3291C24.2559 18.5157 24.3472 18.6871 24.4815 18.8217C24.6158 18.9563 24.7871 19.048 24.9735 19.0853C25.16 19.1225 25.3533 19.1036 25.5291 19.031C25.7048 18.9583 25.855 18.8351 25.9607 18.677C26.0664 18.519 26.1228 18.3331 26.1228 18.1429C26.1228 17.8884 26.0218 17.6443 25.8421 17.4642C25.6623 17.284 25.4184 17.1825 25.1639 17.182Z" fill="#333333"/>
<path d="M27.4331 13.0226C28.2191 12.3283 28.7433 11.7392 29.0058 11.2551C29.2744 10.7718 29.413 10.227 29.4079 9.67397C29.4134 9.19338 29.3143 8.71735 29.1177 8.27879C28.9211 7.84023 28.6316 7.44961 28.2692 7.13393C27.51 6.44388 26.4954 6.09816 25.2253 6.09674C24.0216 6.09674 23.0536 6.4213 22.3212 7.07043C21.5889 7.71955 21.1458 8.65442 20.9919 9.87506L22.643 10.0656C22.7869 9.16525 23.0832 8.50343 23.532 8.08009C23.9916 7.65496 24.5995 7.42698 25.2253 7.44508C25.5552 7.43722 25.8832 7.49597 26.1898 7.61781C26.4964 7.73964 26.7753 7.92207 27.0097 8.15418C27.241 8.35702 27.4276 8.6057 27.5576 8.88444C27.6877 9.16319 27.7585 9.46593 27.7654 9.77345C27.7676 10.1077 27.6807 10.4365 27.5135 10.726C27.2094 11.1692 26.8429 11.5663 26.4255 11.905C26.0127 12.2539 25.6244 12.6308 25.2634 13.0332C24.9941 13.348 24.7795 13.7057 24.6284 14.0915C24.4377 14.6184 24.3466 15.1761 24.3596 15.7362C24.3596 15.8442 24.3596 16.0071 24.3596 16.223H25.9154C25.9074 15.7517 25.9521 15.281 26.0487 14.8197C26.1205 14.5453 26.2417 14.2863 26.4065 14.0555C26.7161 13.6803 27.0597 13.3345 27.4331 13.0226Z" fill="#333333"/>
</svg>
