<svg width="36" height="36" viewBox="0 0 36 36" fill="none" xmlns="http://www.w3.org/2000/svg">
<path d="M22.1158 11.7052V14.591L24.9998 11.7052H22.1158Z" fill="#333333"/>
<path d="M35 24.5893V21.7124L32.1284 24.5893H35Z" fill="#333333"/>
<path d="M29.2622 24.5893L35.0001 18.8443V15.9939L26.4101 24.5893H29.2622Z" fill="#333333"/>
<path d="M33.5703 11.7052L22.1158 23.1615V24.5893H23.5348L34.9999 13.1259V11.7052H33.5703Z" fill="#333333"/>
<path d="M27.8502 11.7052L22.1158 17.4431V20.3094L30.7182 11.7052H27.8502Z" fill="#333333"/>
<path d="M14.7018 25.7706L15.7714 25.7741L21.7328 9.39758L20.6597 9.39936L14.7018 25.7706Z" fill="#333333"/>
<path d="M15.2712 9.95627H1V19.0802L3.64813 19.0784L5.09369 20.5186L5.80672 19.8056L4.05785 18.0674L4.05431 18.0709H2.00746L2.00569 10.9708L14.2637 10.9691V18.0709H12.2169L12.2133 18.0674L10.4644 19.8056L11.1775 20.5186L12.623 19.0784H15.2676L15.2712 9.95627Z" fill="#333333"/>
<path d="M9.8277 18.1313H6.45768V22.2498H3.79713L8.1356 26.6025L12.4812 22.2587H9.82061L9.8277 18.1313ZM10.0459 23.259L8.1356 25.1658L6.22532 23.259H7.46691V19.1245H8.82556V23.2608L10.0459 23.259Z" fill="#333333"/>
</svg>
