<svg width="36" height="36" viewBox="0 0 36 36" fill="none" xmlns="http://www.w3.org/2000/svg">
<path d="M6.26709 1V35H29.733V1H6.26709ZM27.387 3.34597V26.0754C26.7304 26.054 26.1076 25.7788 25.6497 25.3077C25.1917 24.8367 24.9343 24.2064 24.9314 23.5494H23.7088C23.7064 24.1351 23.5019 24.702 23.1299 25.1543C22.7579 25.6066 22.2411 25.9166 21.6669 26.0319C21.5883 26.0479 21.5089 26.0596 21.429 26.0671C21.3465 26.0755 21.2637 26.0796 21.1807 26.0795C21.0939 26.0795 21.007 26.0754 20.9201 26.0671C20.8771 26.0638 20.8343 26.0582 20.7918 26.0506C20.6785 26.0335 20.5665 26.0087 20.4567 25.9761C20.2388 25.9126 20.0301 25.8208 19.8361 25.703C19.5519 25.5275 19.3046 25.2985 19.1079 25.0286C19.0641 24.97 19.0234 24.9093 18.9858 24.8465C18.7501 24.4527 18.6257 24.0022 18.6258 23.5432L17.4384 23.5494C17.4385 23.6705 17.4302 23.7915 17.4135 23.9115C17.3847 24.1055 17.3341 24.2957 17.2625 24.4783C17.1027 24.873 16.8471 25.2217 16.5188 25.4929C16.1905 25.7642 15.7998 25.9494 15.382 26.0319C15.3034 26.0464 15.2248 26.0588 15.1441 26.0671C15.0634 26.0754 14.9724 26.0795 14.8835 26.0795C14.8012 26.0796 14.7191 26.0754 14.6373 26.0671C14.0536 26.0076 13.5084 25.7481 13.094 25.3327C12.8574 25.0979 12.6697 24.8184 12.5419 24.5105C12.414 24.2027 12.3485 23.8725 12.3492 23.5391H11.1287C11.1269 24.1843 10.8803 24.8048 10.4387 25.2752C9.99711 25.7456 9.39341 26.0309 8.7496 26.0733H8.60892V3.34597H27.387ZM27.387 32.654H8.61306V27.2732H8.6234C9.24578 27.2722 9.85804 27.1158 10.4046 26.8181C10.9475 26.5227 11.4077 26.0959 11.7431 25.5768C12.0629 26.0679 12.4933 26.4772 12.9999 26.7718C13.5065 27.0664 14.0751 27.2381 14.66 27.2732C14.7345 27.2732 14.809 27.2732 14.8835 27.2732C15.0411 27.273 15.1986 27.2633 15.3551 27.2442L15.531 27.2173C15.9339 27.1492 16.3227 27.0142 16.6812 26.8181L16.7784 26.7622L16.8777 26.7022L17.0226 26.6071C17.1156 26.5409 17.2087 26.4705 17.2956 26.4002C17.3411 26.3629 17.3846 26.3236 17.426 26.2843C17.4673 26.245 17.5377 26.1788 17.5915 26.123C17.6994 26.0087 17.801 25.8885 17.8956 25.763C17.9411 25.7009 17.9866 25.6347 18.03 25.5685C18.0735 25.6347 18.119 25.7009 18.1645 25.763C18.2606 25.8872 18.3635 26.006 18.4727 26.1188C18.5265 26.1747 18.5824 26.2285 18.6382 26.2802L18.7479 26.3774C19.2264 26.7909 19.8024 27.0757 20.4215 27.2049C20.5167 27.2235 20.6139 27.2401 20.7111 27.2525C20.8676 27.2716 21.0252 27.2812 21.1828 27.2815C21.2614 27.2815 21.3421 27.2815 21.4207 27.2815C21.4993 27.2815 21.5593 27.2815 21.6276 27.2629C22.1694 27.1995 22.6908 27.0186 23.1553 26.7327C23.6198 26.4468 24.0163 26.0629 24.317 25.6078C24.6546 26.1133 25.1101 26.5291 25.6442 26.8192C26.1784 27.1093 26.7751 27.2651 27.3829 27.2732L27.387 32.654Z" fill="#333333"/>
<path d="M10.6487 14.1469L11.0853 15.2372C14.3159 13.9503 17.7168 13.1412 21.1808 12.8353V14.9972L25.5066 10.6735L21.1808 6.34772V8.51164C17.7169 8.20392 14.3161 7.39415 11.0853 6.10775L10.6487 7.20626C14.3859 8.691 18.3401 9.55674 22.3558 9.76945V9.17778L23.8515 10.6735L22.3558 12.1713V11.5775C18.3399 11.7932 14.3859 12.661 10.6487 14.1469Z" fill="#333333"/>
</svg>
