<svg width="36" height="36" viewBox="0 0 36 36" fill="none" xmlns="http://www.w3.org/2000/svg">
<path d="M12.7332 4.79663L11.429 6.10086L12.2441 6.91601L10.5127 8.64738V8.65879H1V31.193H14.4352V12.5878L16.1699 10.8532L16.985 11.6683L18.2892 10.3641L12.7332 4.79663ZM12.5848 11.8232V29.3475H2.85201V10.5108H11.2741L13.5565 8.22839L14.8607 9.53263L12.5848 11.8232Z" fill="#333333"/>
<path d="M10.2894 17.9406H9.36501C9.36501 18.3596 9.19857 18.7614 8.90231 19.0577C8.60605 19.3539 8.20423 19.5204 7.78526 19.5204C7.36628 19.5204 6.96447 19.3539 6.6682 19.0577C6.37194 18.7614 6.20551 18.3596 6.20551 17.9406H5.27624C5.27624 18.3596 5.1098 18.7614 4.81354 19.0577C4.51728 19.3539 4.11546 19.5204 3.69649 19.5204V20.4464C4.09652 20.4458 4.49061 20.3496 4.84594 20.1658C5.20126 19.982 5.50754 19.716 5.73924 19.3899C5.97082 19.7163 6.2772 19.9825 6.63274 20.1661C6.98827 20.3498 7.38263 20.4457 7.78281 20.4457C8.18299 20.4457 8.57735 20.3498 8.93289 20.1661C9.28843 19.9825 9.5948 19.7163 9.82638 19.3899C10.0582 19.7164 10.3647 19.9826 10.7203 20.1664C11.076 20.3501 11.4704 20.4461 11.8708 20.4464V19.5187C11.4519 19.5187 11.0502 19.3526 10.7537 19.0567C10.4572 18.7608 10.2902 18.3595 10.2894 17.9406Z" fill="#333333"/>
<path fill-rule="evenodd" clip-rule="evenodd" d="M33.148 29.3579H16.2912V31.2034H35V12.7566H31.0628V11.3725H32.222V9.52375H24.3477V11.3725H25.5052V12.7534H16.2912V14.5988H27.3588V11.3725H29.2059V14.5988H33.148V29.3579Z" fill="#333333"/>
<path d="M16.3642 23.2736V22.3476C16.7831 22.3476 17.1849 22.1812 17.4812 21.8849C17.7775 21.5887 17.9439 21.1869 17.9439 20.7679H18.8715C18.8715 21.1869 19.038 21.5887 19.3342 21.8849C19.6305 22.1812 20.0323 22.3476 20.4513 22.3476C20.8703 22.3476 21.2721 22.1812 21.5683 21.8849C21.8646 21.5887 22.031 21.1869 22.031 20.7679H22.9571C22.9702 21.1783 23.1425 21.5675 23.4375 21.8531C23.7325 22.1388 24.127 22.2985 24.5376 22.2985C24.9482 22.2985 25.3428 22.1388 25.6377 21.8531C25.9327 21.5675 26.105 21.1783 26.1182 20.7679H27.0442C27.0442 21.1869 27.2106 21.5887 27.5069 21.8849C27.8032 22.1812 28.205 22.3476 28.6239 22.3476V23.2736C28.224 23.2736 27.8298 23.1778 27.4745 22.9943C27.1191 22.8108 26.8128 22.5449 26.5812 22.2188C26.3494 22.5449 26.0429 22.8107 25.6874 22.9942C25.3319 23.1776 24.9377 23.2734 24.5376 23.2734C24.1376 23.2734 23.7433 23.1776 23.3878 22.9942C23.0323 22.8107 22.7259 22.5449 22.4941 22.2188C22.2622 22.5449 21.9558 22.8107 21.6003 22.9942C21.2448 23.1776 20.8505 23.2734 20.4505 23.2734C20.0504 23.2734 19.6562 23.1776 19.3007 22.9942C18.9452 22.8107 18.6387 22.5449 18.4069 22.2188C18.1754 22.545 17.8691 22.811 17.5137 22.9945C17.1583 23.178 16.7641 23.2738 16.3642 23.2736Z" fill="#333333"/>
</svg>
