<svg width="36" height="36" viewBox="0 0 36 36" fill="none" xmlns="http://www.w3.org/2000/svg">
<path d="M28.4912 24.7212L31.556 29.093L29.6673 28.3732L27.0606 27.7006L24.4012 27.257L21.5436 26.9771V27.9969L24.0067 28.2096L26.4898 28.5604L28.9384 29.1021L31.576 30.0637L25.7627 30.5709L25.8536 31.5979L34.0646 30.8799L29.3365 24.1286L28.4912 24.7212Z" fill="#333333"/>
<path d="M6.57335 24.8754L3.50855 29.2472L5.39724 28.5274L8.00396 27.8548L10.6634 27.4113L13.521 27.1313V28.1511L11.0579 28.3638L8.57475 28.7146L6.12618 29.2563L3.48856 30.2179L9.30186 30.7251L9.21097 31.7522L1 31.0341L5.72808 24.2828L6.57335 24.8754Z" fill="#333333"/>
<path d="M20.513 19.5006C20.5668 16.6742 21.2795 13.8994 22.5944 11.3968C22.7655 11.0701 23.0213 10.7953 23.335 10.6012C23.6487 10.4071 24.0088 10.3008 24.3776 10.2934V11.306L32.7395 7.93032L34.6827 3.06409H24.3776V4.11295C22.8821 4.12001 21.4166 4.5336 20.1381 5.30944C18.8595 6.08528 17.816 7.19418 17.1192 8.51746C15.3456 11.8916 14.388 15.6347 14.3234 19.446V30.8763H12.2711V32.9359H22.5744V30.8763H20.513V19.5006ZM26.439 5.12546H31.6397L31.1507 6.34884L26.439 8.25207V5.12546ZM18.4534 30.8763H16.3921V19.4624C16.4497 15.9828 17.3213 12.565 18.937 9.48271C19.458 8.4891 20.2396 7.65605 21.1981 7.0729C22.1566 6.48975 23.2557 6.1785 24.3776 6.17251V8.23389C23.6328 8.24083 22.9037 8.44954 22.268 8.8378C21.6323 9.22607 21.1138 9.77937 20.7675 10.4389C19.3025 13.2321 18.5101 16.3288 18.4534 19.4824V30.8763Z" fill="#333333"/>
<path d="M30.3804 21.7996L30.3537 18.1688L33.0925 18.1887L33.1192 21.8194L35 21.8336L31.7807 25.0684L28.5122 21.7864L30.3804 21.7996Z" fill="#333333"/>
<path d="M30.3804 13.286L30.3537 16.9167L33.0925 16.8969L33.1192 13.2662L35 13.252L31.7807 10.0171L28.5122 13.2991L30.3804 13.286Z" fill="#333333"/>
<path d="M8.1328 23.1181H10.1707V25.3016H8.1328V23.1181Z" fill="#333333"/>
<path d="M10.1707 20.9346V10.0171H8.1328V20.9346H10.1707Z" fill="#333333"/>
</svg>
