<svg width="36" height="36" viewBox="0 0 36 36" fill="none" xmlns="http://www.w3.org/2000/svg">
<path d="M12.8183 11.9785V26.4564H33.7189V11.9785H29.8519V8.81355H28.04V11.9785H12.8183ZM11 10.1681H26.2216V8.81355H25.0862V7H32.8105V8.81355H31.6735V10.1713H35.5357V28.2668H11V10.1681Z" fill="#333333"/>
<path d="M17.2547 20.4881V19.5797C17.6657 19.5797 18.0598 19.4164 18.3504 19.1258C18.6411 18.8352 18.8043 18.441 18.8043 18.03H19.7143C19.7143 18.441 19.8776 18.8352 20.1682 19.1258C20.4588 19.4164 20.853 19.5797 21.264 19.5797C21.675 19.5797 22.0691 19.4164 22.3597 19.1258C22.6504 18.8352 22.8136 18.441 22.8136 18.03H23.722C23.7349 18.4326 23.904 18.8144 24.1933 19.0946C24.4827 19.3748 24.8697 19.5315 25.2725 19.5315C25.6753 19.5315 26.0623 19.3748 26.3516 19.0946C26.641 18.8144 26.81 18.4326 26.823 18.03H27.7313C27.7313 18.441 27.8946 18.8352 28.1852 19.1258C28.4758 19.4164 28.87 19.5797 29.281 19.5797V20.4881C28.8886 20.488 28.502 20.3941 28.1534 20.2141C27.8048 20.0341 27.5043 19.7732 27.2771 19.4533C27.0497 19.7732 26.7491 20.034 26.4004 20.2139C26.0517 20.3939 25.6649 20.4878 25.2725 20.4878C24.88 20.4878 24.4933 20.3939 24.1446 20.2139C23.7958 20.034 23.4952 19.7732 23.2678 19.4533C23.0404 19.7732 22.7398 20.034 22.3911 20.2139C22.0423 20.3939 21.6556 20.4878 21.2632 20.4878C20.8707 20.4878 20.484 20.3939 20.1353 20.2139C19.7865 20.034 19.4859 19.7732 19.2585 19.4533C19.0314 19.7733 18.731 20.0342 18.3823 20.2142C18.0337 20.3943 17.647 20.4882 17.2547 20.4881Z" fill="#333333"/>
<path d="M1.93704 12.2566H1V24.751L9.91182 19.8771L1.93704 15.5147V12.2566ZM7.9533 19.8771L1.93704 23.1683V16.5859L7.9533 19.8771Z" fill="#333333"/>
</svg>
