<svg width="37" height="36" viewBox="0 0 37 36" fill="none" xmlns="http://www.w3.org/2000/svg">
<path d="M29.3782 1L27.6308 2.74741L28.7229 3.83954L26.4033 6.15923V6.17452H13.6581V35H31.6586V11.4386L33.9827 9.11454L35.0748 10.2067L36.8222 8.45926L29.3782 1ZM29.1795 10.4142V32.5274H16.1394V8.65585H27.4233L30.4813 5.59788L32.2287 7.34529L29.1795 10.4142Z" fill="#333333"/>
<path d="M26.104 18.5964H24.8655C24.8655 19.1578 24.6425 19.6961 24.2456 20.0931C23.8487 20.49 23.3103 20.713 22.749 20.713C22.1876 20.713 21.6493 20.49 21.2523 20.0931C20.8554 19.6961 20.6324 19.1578 20.6324 18.5964H19.3874C19.3874 19.1578 19.1644 19.6961 18.7675 20.0931C18.3705 20.49 17.8322 20.713 17.2708 20.713V21.9537C17.8068 21.9528 18.3348 21.824 18.8109 21.5778C19.2869 21.3316 19.6973 20.9752 20.0077 20.5383C20.318 20.9755 20.7285 21.3321 21.2048 21.5782C21.6812 21.8243 22.2095 21.9527 22.7457 21.9527C23.2819 21.9527 23.8102 21.8243 24.2866 21.5782C24.7629 21.3321 25.1734 20.9755 25.4837 20.5383C25.7942 20.9756 26.2049 21.3323 26.6814 21.5785C27.1579 21.8247 27.6864 21.9534 28.2227 21.9537V20.7108C27.6616 20.7108 27.1233 20.4882 26.7261 20.0918C26.3289 19.6954 26.1052 19.1576 26.104 18.5964Z" fill="#333333"/>
<path d="M1.27982 10.5607H0V27.6256L12.1718 20.9688L1.27982 15.0106V10.5607ZM9.49688 20.9688L1.27982 25.464V16.4736L9.49688 20.9688Z" fill="#333333"/>
</svg>
