<svg width="36" height="36" viewBox="0 0 36 36" fill="none" xmlns="http://www.w3.org/2000/svg">
<path d="M3.51975 9.89884V29.9615H32.4825V9.89884H27.1238V5.5131H24.613V9.89884H3.51975ZM1 7.39017H22.0932V5.5131H20.5197V3H31.2237V5.5131H29.648V7.3946H35V32.4702H1V7.39017Z" fill="#333333"/>
<path d="M9.66732 21.6909V20.4321C10.2369 20.4321 10.7831 20.2059 11.1858 19.8032C11.5885 19.4005 11.8148 18.8542 11.8148 18.2847H13.0757C13.0757 18.8542 13.302 19.4005 13.7047 19.8032C14.1074 20.2059 14.6536 20.4321 15.2232 20.4321C15.7927 20.4321 16.3389 20.2059 16.7416 19.8032C17.1444 19.4005 17.3706 18.8542 17.3706 18.2847H18.6294C18.6473 18.8426 18.8815 19.3716 19.2825 19.7599C19.6835 20.1482 20.2198 20.3654 20.7779 20.3654C21.3361 20.3654 21.8724 20.1482 22.2734 19.7599C22.6743 19.3716 22.9086 18.8426 22.9265 18.2847H24.1852C24.1852 18.8542 24.4115 19.4005 24.8142 19.8032C25.2169 20.2059 25.7631 20.4321 26.3327 20.4321V21.6909C25.789 21.6909 25.2532 21.5607 24.7701 21.3112C24.287 21.0618 23.8707 20.7003 23.5559 20.2571C23.2408 20.7003 22.8242 21.0617 22.3409 21.311C21.8577 21.5604 21.3217 21.6905 20.7779 21.6905C20.2341 21.6905 19.6982 21.5604 19.2149 21.311C18.7317 21.0617 18.3151 20.7003 18 20.2571C17.6849 20.7003 17.2683 21.0617 16.7851 21.311C16.3018 21.5604 15.7659 21.6905 15.2221 21.6905C14.6783 21.6905 14.1423 21.5604 13.6591 21.311C13.1758 21.0617 12.7592 20.7003 12.4441 20.2571C12.1294 20.7005 11.7131 21.062 11.23 21.3115C10.7469 21.561 10.211 21.6911 9.66732 21.6909Z" fill="#333333"/>
</svg>
