<svg width="36" height="36" viewBox="0 0 36 36" fill="none" xmlns="http://www.w3.org/2000/svg">
<path d="M21.7201 1L19.9727 2.74741L21.0649 3.83954L18.7452 6.15923V6.17452H6V35H24.0005V11.4386L26.3246 9.11454L27.4167 10.2067L29.1641 8.45926L21.7201 1ZM21.5214 10.4142V32.5274H8.48133V8.65585H19.7652L22.8232 5.59788L24.5706 7.34529L21.5214 10.4142Z" fill="#333333"/>
<path d="M18.4459 18.5964H17.2075C17.2075 19.1578 16.9845 19.6961 16.5875 20.0931C16.1906 20.49 15.6522 20.713 15.0909 20.713C14.5296 20.713 13.9912 20.49 13.5943 20.0931C13.1973 19.6961 12.9744 19.1578 12.9744 18.5964H11.7293C11.7293 19.1578 11.5063 19.6961 11.1094 20.0931C10.7125 20.49 10.1741 20.713 9.61277 20.713V21.9537C10.1487 21.9528 10.6767 21.824 11.1528 21.5778C11.6289 21.3316 12.0392 20.9752 12.3497 20.5383C12.6599 20.9755 13.0704 21.3321 13.5468 21.5782C14.0231 21.8243 14.5515 21.9527 15.0876 21.9527C15.6238 21.9527 16.1521 21.8243 16.6285 21.5782C17.1048 21.3321 17.5153 20.9755 17.8256 20.5383C18.1361 20.9756 18.5468 21.3323 19.0233 21.5785C19.4998 21.8247 20.0283 21.9534 20.5647 21.9537V20.7108C20.0035 20.7108 19.4653 20.4882 19.068 20.0918C18.6708 19.6954 18.4471 19.1576 18.4459 18.5964Z" fill="#333333"/>
</svg>
