<svg width="36" height="36" viewBox="0 0 36 36" fill="none" xmlns="http://www.w3.org/2000/svg">
<path fill-rule="evenodd" clip-rule="evenodd" d="M2.99994 13.0929C3.55222 13.0929 3.99994 12.6454 3.99994 12.0934C3.99994 11.5415 3.55222 11.094 2.99994 11.094C2.44765 11.094 1.99994 11.5415 1.99994 12.0934C1.99994 12.6454 2.44765 13.0929 2.99994 13.0929ZM2.99994 14.0923C3.35179 14.0923 3.68242 14.0015 3.96964 13.8421C4.58411 13.501 4.99994 12.8457 4.99994 12.0934C4.99994 10.9895 4.10451 10.0946 2.99994 10.0946C1.89537 10.0946 0.999939 10.9895 0.999939 12.0934C0.999939 12.8207 1.38859 13.4573 1.96964 13.807C2.27056 13.9881 2.62308 14.0923 2.99994 14.0923Z" fill="#333333"/>
<path fill-rule="evenodd" clip-rule="evenodd" d="M32.9999 13.0929C33.5522 13.0929 33.9999 12.6454 33.9999 12.0934C33.9999 11.5415 33.5522 11.094 32.9999 11.094C32.4477 11.094 31.9999 11.5415 31.9999 12.0934C31.9999 12.6454 32.4477 13.0929 32.9999 13.0929ZM32.9999 14.0923C33.3768 14.0923 33.7293 13.9881 34.0303 13.807C34.6113 13.4573 34.9999 12.8207 34.9999 12.0934C34.9999 10.9895 34.1045 10.0946 32.9999 10.0946C31.8954 10.0946 30.9999 10.9895 30.9999 12.0934C30.9999 12.8457 31.4158 13.501 32.0303 13.8421C32.3175 14.0015 32.6481 14.0923 32.9999 14.0923Z" fill="#333333"/>
<path fill-rule="evenodd" clip-rule="evenodd" d="M17.6417 4.00004L32.0192 10.3689L31.0711 12.5067L17.6664 6.56869L4.94901 12.4974L3.95998 10.3783L17.6417 4.00004Z" fill="#333333"/>
<path d="M3.96964 13.8421C3.68242 14.0015 3.35179 14.0923 2.99994 14.0923C2.62308 14.0923 2.27056 13.9881 1.96964 13.807V25.7899L10.3963 32.05H25.6036L34.0303 25.7899V13.807C33.7293 13.9881 33.3768 14.0923 32.9999 14.0923C32.6481 14.0923 32.3175 14.0015 32.0303 13.8421V24.7851L24.9417 30.0512H11.0582L3.96964 24.7851V13.8421Z" fill="#333333"/>
</svg>
