<svg width="36" height="36" viewBox="0 0 36 36" fill="none" xmlns="http://www.w3.org/2000/svg">
<path d="M27.8204 27.2462C27.6809 27.2333 27.5405 27.2333 27.401 27.2462C27.3993 27.0783 27.3607 26.9128 27.2879 26.7615C27.2151 26.6103 27.1099 26.4768 26.9798 26.3707C26.8234 26.2508 26.6429 26.1662 26.4506 26.1229C26.2583 26.0795 26.0589 26.0785 25.8662 26.1198C25.8359 25.9183 25.7575 25.727 25.6376 25.5622C25.5178 25.3974 25.36 25.2639 25.1776 25.1729C24.8693 25.0254 24.5204 24.9854 24.1868 25.0594C23.9927 24.648 23.6545 24.3222 23.2362 24.1436C23.0669 24.0643 22.8828 24.0218 22.6958 24.0189C22.5089 24.0161 22.3235 24.053 22.152 24.1271C22.0424 23.9164 21.872 23.7435 21.6629 23.6308C21.4767 23.5222 21.2679 23.4581 21.0528 23.4435C20.8378 23.4288 20.6222 23.4641 20.423 23.5465C20.2841 23.3266 20.0816 23.1542 19.8424 23.052C19.4157 22.8506 18.956 23.0191 18.6062 23.2004C18.4964 23.03 18.3503 22.886 18.1784 22.7787C18.0065 22.6714 17.8129 22.6033 17.6117 22.5795C17.4032 22.5497 17.1908 22.5614 16.9868 22.6138C16.7828 22.6663 16.5912 22.7586 16.423 22.8854C16.2947 22.7374 16.1356 22.6193 15.9569 22.5393C15.7781 22.4592 15.584 22.4192 15.3882 22.422C15.0145 22.4095 14.6477 22.5245 14.3479 22.748C14.0902 22.5695 13.7821 22.4784 13.4688 22.4879C13.2602 22.4858 13.0537 22.5294 12.8638 22.6158C12.6739 22.7022 12.5053 22.8292 12.3699 22.9879C11.9866 22.7788 11.5436 22.7059 11.1135 22.781C10.6668 22.8432 10.2547 23.0557 9.94499 23.3835C9.65012 23.215 9.28565 23.1491 8.64096 23.3249C8.43981 23.3682 8.2506 23.4551 8.08667 23.5795C7.92275 23.7038 7.78811 23.8626 7.69225 24.0447C7.36202 23.9379 7.00823 23.9271 6.6721 24.0136C6.43114 24.0755 6.20558 24.1865 6.00954 24.3397C5.81351 24.4928 5.65124 24.6849 5.53291 24.9037C5.21789 24.8286 4.72338 24.8286 4.15928 25.3561C3.90827 25.6082 3.72332 25.9183 3.62082 26.259C3.43486 26.2769 3.25094 26.3118 3.07137 26.3634V22.2682H0.999939V34.7224H29.8974V22.2682H27.8204V27.2462ZM27.8204 32.6363H3.07686V27.4678C3.33269 27.3413 3.61382 27.2743 3.89921 27.2718C3.97673 27.2722 4.05388 27.2611 4.12814 27.2389H4.15562C4.42118 27.1363 4.50177 26.8964 4.5732 26.6894C4.62626 26.4799 4.7272 26.2855 4.86807 26.1216C5.15012 25.8579 5.26001 25.9019 5.41752 25.9623C5.57389 26.0392 5.75285 26.0568 5.92118 26.0117L5.9743 25.9916C6.1331 25.9085 6.25854 25.7734 6.32961 25.6088C6.4395 25.4257 6.62448 25.0942 6.87906 25.0392C7.24536 24.9623 7.34792 25.0282 7.45415 25.0997C7.58489 25.2 7.74368 25.257 7.90836 25.2627H7.9688C8.40104 25.2114 8.51825 24.8194 8.56038 24.6711C8.61349 24.4879 8.6373 24.4128 8.90836 24.3396C9.34609 24.2187 9.38455 24.2498 9.59334 24.4238C9.62814 24.455 9.6666 24.4843 9.70507 24.5172L9.8351 24.6198H10.0018C10.1032 24.6233 10.2036 24.5986 10.2919 24.5485C10.3801 24.4984 10.4528 24.4248 10.5018 24.3359C10.5809 24.1975 10.6896 24.0782 10.82 23.9864C10.9504 23.8946 11.0993 23.8326 11.2563 23.8048C11.7527 23.7334 11.9468 23.9348 12.0512 24.0429C12.1075 24.1104 12.1786 24.164 12.2589 24.1996C12.3393 24.2352 12.4268 24.2518 12.5146 24.248C12.6166 24.2376 12.7139 24.2002 12.7966 24.1397C12.8794 24.0792 12.9445 23.9977 12.9853 23.9037C13.1153 23.6619 13.238 23.5227 13.4725 23.5227C13.7362 23.5227 13.7747 23.6052 13.8131 23.6931C13.8487 23.7946 13.9134 23.8834 13.999 23.9485C14.0846 24.0136 14.1875 24.0522 14.2948 24.0594C14.4066 24.0618 14.5169 24.0336 14.6138 23.9777C14.7107 23.9219 14.7904 23.8405 14.8443 23.7425C14.8976 23.6465 14.9784 23.5687 15.0763 23.5191C15.1742 23.4695 15.2848 23.4503 15.3937 23.4641C15.5769 23.4641 15.6758 23.574 15.7911 23.792C15.8351 23.8831 15.8975 23.9642 15.9743 24.0301C16.2179 24.2315 16.5036 24.1912 16.8205 23.9092C17.0219 23.726 17.2215 23.5704 17.4541 23.6088C17.7179 23.6509 17.7582 23.7682 17.8204 23.9458C17.8591 24.0954 17.9452 24.2284 18.0659 24.3249C18.3589 24.5465 18.6666 24.3689 18.8717 24.2498C19.0407 24.139 19.2262 24.0556 19.4212 24.0026C19.4583 24.0218 19.4938 24.0438 19.5274 24.0685C19.5285 24.088 19.5285 24.1076 19.5274 24.1271C19.5175 24.2574 19.5472 24.3875 19.6126 24.5006C19.6779 24.6137 19.7759 24.7044 19.8937 24.7608C20.005 24.8008 20.1248 24.8112 20.2414 24.791C20.3579 24.7707 20.4672 24.7206 20.5585 24.6454C20.8168 24.4824 20.956 24.4312 21.1446 24.5392C21.2234 24.5832 21.2307 24.6052 21.2582 24.7334C21.2728 24.863 21.3237 24.9859 21.4051 25.0879C21.4864 25.19 21.5948 25.267 21.7179 25.3103C21.8221 25.3344 21.9302 25.3365 22.0353 25.3163C22.1403 25.2961 22.2399 25.2541 22.3278 25.1931C22.5494 25.074 22.6666 25.0301 22.7838 25.085C23.2417 25.303 23.2765 25.5978 23.293 25.7389C23.2982 25.8294 23.3253 25.9173 23.3718 25.9951C23.4184 26.0729 23.4831 26.1383 23.5604 26.1857L23.7838 26.3158L24.0824 26.1912C24.3021 26.0978 24.5164 26.0209 24.7215 26.1198C24.8241 26.1693 24.8534 26.3323 24.8662 26.5813C24.8564 26.7013 24.8806 26.8217 24.936 26.9285C24.9914 27.0354 25.0757 27.1246 25.1794 27.1857L25.2618 27.2187C25.4436 27.2608 25.6334 27.2532 25.8113 27.1967C25.9944 27.1564 26.2142 27.107 26.3168 27.1967C26.3791 27.2443 26.3461 27.5063 26.3333 27.6033C26.302 27.7213 26.3025 27.8454 26.3347 27.9631C26.3668 28.0808 26.4295 28.188 26.5164 28.2736C26.6039 28.3406 26.7072 28.3838 26.8163 28.3992C26.9253 28.4146 27.0365 28.4016 27.1391 28.3616C27.357 28.2905 27.5888 28.2729 27.815 28.3103L27.8204 32.6363Z" fill="#333333"/>
<path d="M16.3733 13.182L15.3972 12.607C14.6169 13.2187 11.6023 15.7974 10.4924 19.9421L11.5034 20.1051C12.3735 17.3502 14.0746 14.932 16.3733 13.182Z" fill="#333333"/>
<path d="M14.0972 19.913L15.1448 20.0064C15.3078 17.391 17.2181 14.8453 17.8921 14.0211L17.0093 13.5229C16.5478 14.0834 14.187 17.0669 14.0972 19.913Z" fill="#333333"/>
<path d="M18.5826 14.4111C18.2639 15.0136 16.5863 18.3635 17.5551 20.0887L18.4837 19.7865C17.9782 18.2829 18.9489 15.9587 19.4416 14.9166L18.5826 14.4111Z" fill="#333333"/>
<path d="M34.9911 11.477L35.0003 9.12899L21.1834 1.27734L15.3354 11.0942L21.1468 14.3891L24.9288 11.6949L34.9911 17.3854L34.9874 15.0539L24.8244 9.19493L21.0515 11.9477L18.2567 10.3433L21.9765 4.0887L34.9911 11.477Z" fill="#333333"/>
</svg>
