<svg width="36" height="36" viewBox="0 0 36 36" fill="none" xmlns="http://www.w3.org/2000/svg">
<path d="M3.33513 17.2882H5.57224V19.5744H3.33513C3.88193 25.9223 8.94029 30.9807 15.2882 31.5275V29.2904H17.5744V31.5275C19.4252 31.3681 21.1664 30.8251 22.7181 29.9785V32.5281C20.7979 33.3858 18.6703 33.8626 16.4313 33.8626C7.90883 33.8626 1 26.9538 1 18.4313C1 9.90883 7.90883 3 16.4313 3C24.9538 3 31.8626 9.90883 31.8626 18.4313C31.8626 20.2349 31.5532 21.9662 30.9845 23.5751H28.532C29.0626 22.3285 29.4061 20.9832 29.5275 19.5744H27.2904V17.2882H29.5275C28.9807 10.9403 23.9223 5.88193 17.5744 5.33513V7.57224H15.2882V5.33513C8.94029 5.88193 3.88193 10.9403 3.33513 17.2882Z" fill="#333333"/>
<path d="M25.363 17.4604L16.2282 17.5842L8.44875 11.5508L7.18156 13.1847L15.5328 19.6615L25.391 19.5279L25.363 17.4604Z" fill="#333333"/>
<path d="M25.5915 30.7187H28.6456V32.0348H23.8535V31.4923C23.8535 31.1239 23.9154 30.794 24.0394 30.5027C24.1633 30.208 24.319 29.9451 24.5065 29.714C24.694 29.4796 24.8983 29.2737 25.1193 29.0962C25.3437 28.9154 25.5564 28.7529 25.7573 28.6089C25.9683 28.4582 26.1525 28.3142 26.3098 28.1769C26.4706 28.0396 26.6045 27.904 26.7117 27.7701C26.8222 27.6328 26.9043 27.4955 26.9578 27.3582C27.0114 27.2175 27.0382 27.0685 27.0382 26.9111C27.0382 26.603 26.9511 26.3703 26.777 26.2129C26.6029 26.0555 26.3366 25.9768 25.9783 25.9768C25.3588 25.9768 24.766 26.2229 24.2001 26.7152V25.3187C24.8263 24.9135 25.5329 24.7109 26.3199 24.7109C26.6849 24.7109 27.0114 24.7595 27.2994 24.8566C27.5908 24.9504 27.8369 25.086 28.0378 25.2635C28.2388 25.441 28.3911 25.657 28.4949 25.9115C28.6021 26.1626 28.6557 26.4439 28.6557 26.7554C28.6557 27.0869 28.6038 27.3816 28.5 27.6395C28.3995 27.8973 28.2639 28.1317 28.0931 28.3427C27.9256 28.5537 27.7314 28.7479 27.5104 28.9254C27.2894 29.0995 27.06 29.2687 26.8222 29.4327C26.6615 29.5466 26.5057 29.6605 26.3551 29.7743C26.2077 29.8848 26.0771 29.9953 25.9632 30.1059C25.8494 30.213 25.759 30.3185 25.692 30.4223C25.625 30.5261 25.5915 30.6249 25.5915 30.7187Z" fill="#333333"/>
<path d="M34.136 24.8315V29.3725H35V30.5579H34.136V32.0348H32.6893V30.5579H29.5498V29.3172C29.8278 29.0058 30.1158 28.6659 30.4138 28.2975C30.7119 27.9258 30.9999 27.544 31.2778 27.1522C31.5558 26.7604 31.8136 26.3669 32.0514 25.9718C32.2925 25.5732 32.4968 25.1932 32.6642 24.8315H34.136ZM30.9714 29.3725H32.6893V26.8558C32.5721 27.0735 32.4449 27.2945 32.3076 27.5189C32.1703 27.7399 32.0263 27.9593 31.8756 28.1769C31.7249 28.3913 31.5725 28.6006 31.4185 28.8048C31.2644 29.0058 31.1154 29.195 30.9714 29.3725Z" fill="#333333"/>
</svg>
