<svg width="36" height="36" viewBox="0 0 36 36" fill="none" xmlns="http://www.w3.org/2000/svg">
<path fill-rule="evenodd" clip-rule="evenodd" d="M3.96123 7.00008H25.7485V12.5331H33.4337L35.0001 16.7104L29.7008 19.9712V21.7254C30.8796 22.3897 31.677 23.6535 31.677 25.1049C31.677 27.246 29.9413 28.982 27.8002 28.982C25.6592 28.982 23.9235 27.246 23.9235 25.1049C23.9235 24.1388 24.2774 23.2555 24.8612 22.5772L24.2946 21.8678H21.0058V24.3146C21.0058 26.8923 18.9162 28.982 16.3386 28.982C14.004 28.982 12.0698 27.2678 11.7258 25.0295H9.66624L8.48054 27.4009H1.71501C1.40618 27.4009 1.13226 27.2028 1.03584 26.9094C0.939425 26.616 1.04231 26.2939 1.29093 26.1107L8.98946 20.438H10.8809V19.4965H7.0853L3.96123 7.00008ZM5.79249 8.42988L8.20165 18.0667H12.3107V21.8678H9.45934L3.8904 25.9711H7.59687L8.78256 23.5997H13.1011V24.3146C13.1011 26.1026 14.5506 27.5522 16.3386 27.5522C18.1265 27.5522 19.576 26.1026 19.576 24.3146V20.438H24.9823L26.8282 22.748L26.2712 23.1943C25.7104 23.6439 25.3533 24.3325 25.3533 25.1049C25.3533 26.4563 26.4488 27.5522 27.8002 27.5522C29.1517 27.5522 30.2472 26.4563 30.2472 25.1049C30.2472 24.0791 29.6158 23.1995 28.7177 22.8359L28.271 22.6549V19.1725L33.2478 16.11L32.4428 13.9629H24.3187V8.42988H5.79249Z" fill="#333333"/>
<path fill-rule="evenodd" clip-rule="evenodd" d="M10.1557 12.4391C10.3169 12.4871 10.4777 12.5349 10.631 12.5988C11.2409 12.8608 11.5134 13.4116 11.4908 14.0621C11.4869 14.3568 11.3855 14.6423 11.2024 14.8733C11.0194 15.1043 10.765 15.2681 10.4789 15.3392C9.99407 15.4537 9.39627 15.4175 8.98971 15.1088C8.58314 14.8001 8.43558 14.2806 8.38739 13.7972L8.93098 13.7326L9.13125 13.7083C9.16116 13.869 9.20811 14.0259 9.27129 14.1766C9.33345 14.2986 9.42771 14.4015 9.54392 14.474C9.66014 14.5464 9.7939 14.586 9.93083 14.588C10.2802 14.6001 10.6657 14.4206 10.7153 14.0472C10.765 13.6737 10.4925 13.5232 10.1913 13.4193C10.0904 13.3845 9.98709 13.3536 9.88348 13.3225C9.61466 13.2417 9.34368 13.16 9.10565 13.0111C8.41148 12.579 8.31662 11.4724 8.91894 10.9227C9.45048 10.4334 10.5106 10.465 11.0105 10.986C11.2533 11.2671 11.3836 11.6279 11.3764 11.9993C11.3571 12.0161 11.2744 12.0119 11.2281 12.0095C11.2165 12.0089 11.2072 12.0086 11.2017 12.0086L10.6069 12.037C10.5711 11.8808 10.5175 11.7291 10.4473 11.585C10.2501 11.3095 9.75766 11.299 9.4821 11.4496C9.15535 11.6363 9.21407 12.0401 9.51523 12.2027C9.71727 12.3085 9.93679 12.374 10.1557 12.4391ZM12.9907 11.4557H11.8539V10.6654H14.888V11.4557H13.7587V15.3183H12.9907V11.4557ZM16.9932 10.5895C16.6534 10.5798 16.3184 10.6714 16.031 10.8529C15.7456 11.0535 15.5227 11.3307 15.388 11.6525C15.2094 12.0856 15.1253 12.5518 15.1411 13.02C15.1411 13.7829 15.3233 14.3827 15.6877 14.8193C15.8473 15.0088 16.0483 15.1592 16.2751 15.2587C16.502 15.3582 16.7487 15.4042 16.9962 15.3932C17.2434 15.404 17.4897 15.357 17.7157 15.2564C17.9417 15.1558 18.1413 15.0042 18.2987 14.8133C18.6601 14.3766 18.8408 13.7691 18.8408 12.9911C18.8408 12.2131 18.6701 11.6211 18.3288 11.2146C18.1696 11.0143 17.9661 10.8534 17.7344 10.7449C17.5027 10.6365 17.249 10.5834 16.9932 10.5895ZM17.7551 14.1915C17.6711 14.3136 17.5587 14.4134 17.4276 14.4824C17.2964 14.5514 17.1504 14.5875 17.0022 14.5876C16.8539 14.5863 16.7081 14.5495 16.5771 14.48C16.446 14.4106 16.3336 14.3102 16.2493 14.1882C16.0486 13.9212 15.9482 13.5197 15.9482 12.9837C15.9482 12.4476 16.0486 12.0462 16.2493 11.7791C16.3362 11.6565 16.4517 11.5567 16.5858 11.4887C16.7199 11.4207 16.8685 11.3867 17.0188 11.3891C17.1678 11.3864 17.3152 11.4201 17.4483 11.4873C17.5813 11.5545 17.696 11.6529 17.7822 11.7745C17.978 12.032 18.0744 12.4298 18.0744 12.9674C18.0744 13.505 17.9554 13.9264 17.7551 14.1915ZM22.2081 11.2955C22.2952 11.4631 22.3464 11.647 22.3583 11.8355C22.4221 12.2491 22.3424 12.6724 22.1324 13.0344C22.0434 13.1736 21.9237 13.2902 21.7825 13.376C21.6413 13.4619 21.4824 13.5146 21.3178 13.5296C21.2862 13.5341 20.2141 13.5852 20.2141 13.5701V15.3229H19.4461V10.6835C19.4461 10.6586 19.5997 10.6659 19.6689 10.6691C19.6834 10.6697 19.6941 10.67 19.6991 10.67C19.8442 10.67 19.9893 10.6686 20.1344 10.6672C20.4243 10.6645 20.714 10.662 21.0031 10.67C21.011 10.6702 21.0189 10.6707 21.0267 10.6709C21.3145 10.6796 21.6105 10.6883 21.8524 10.8627C21.9998 10.9806 22.121 11.128 22.2081 11.2955ZM20.6859 12.777C20.9135 12.7781 21.1908 12.7793 21.369 12.6262C21.4869 12.5097 21.5619 12.3565 21.5819 12.192C21.6018 12.0274 21.5655 11.8609 21.4789 11.7196C21.3118 11.456 21.0272 11.4561 20.7501 11.4561H20.211V12.7766H20.6312C20.649 12.7766 20.6673 12.7769 20.6859 12.777Z" fill="#333333"/>
</svg>
