<svg width="36" height="36" viewBox="0 0 36 36" fill="none" xmlns="http://www.w3.org/2000/svg">
<path d="M3.50929 16.3539H5.91325V18.8105H3.50929C4.09688 25.632 9.53251 31.0676 16.3539 31.6552V29.2512H18.8105V31.6552C20.7994 31.4839 22.6705 30.9004 24.338 29.9906V32.7304C22.2745 33.6521 19.9882 34.1645 17.5822 34.1645C8.42412 34.1645 1 26.7403 1 17.5822C1 8.42412 8.42412 1 17.5822 1C26.7403 1 34.1645 8.42412 34.1645 17.5822C34.1645 19.5203 33.832 21.3808 33.2209 23.1096H30.5854C31.1556 21.7701 31.5248 20.3244 31.6552 18.8105H29.2512V16.3539H31.6552C31.0676 9.53251 25.632 4.09687 18.8105 3.50929V5.91325H16.3539V3.50929C9.53251 4.09687 4.09688 9.53251 3.50929 16.3539Z" fill="#333333"/>
<path d="M27.1851 16.9043L17.2412 17.0391L8.78041 10.4773L7.86664 11.6555L16.7397 18.537L27.2053 18.3952L27.1851 16.9043Z" fill="#333333"/>
<path d="M32.7904 33.5167H28.0361L31.8598 29.1749L28.9071 25.4613H32.2356C33.8402 25.4613 34.1148 26.519 34.2771 27.1188H34.5794L34.3562 24.3765H25.9614L29.7531 29.1357L24.6078 35H34.6321L35.2313 31.7578H34.9067C34.4213 33.2952 33.8208 33.5167 32.7904 33.5167Z" fill="#333333"/>
</svg>
