<svg width="36" height="36" viewBox="0 0 36 36" fill="none" xmlns="http://www.w3.org/2000/svg">
<path d="M28.7502 24.7845L31.8439 29.1975L29.9374 28.4708L27.3061 27.7919L24.6216 27.3442L21.7371 27.0616V28.091L24.2234 28.3057L26.7299 28.6598L29.2016 29.2066L31.864 30.1773L25.996 30.6893L26.0877 31.726L34.376 31.0012L29.6034 24.1863L28.7502 24.7845Z" fill="#333333"/>
<path d="M6.62586 24.9402L3.53219 29.3532L5.43867 28.6265L8.06994 27.9476L10.7544 27.4999L13.6389 27.2173V28.2467L11.1526 28.4614L8.64611 28.8155L6.17447 29.3623L3.512 30.333L9.38007 30.8449L9.28833 31.8817L1 31.1569L5.77262 24.342L6.62586 24.9402Z" fill="#333333"/>
<path d="M20.6968 19.5147C20.7512 16.6617 21.4706 13.8607 22.7978 11.3346C22.9706 11.0048 23.2288 10.7274 23.5455 10.5315C23.8621 10.3355 24.2256 10.2282 24.5978 10.2208V11.2429L33.0385 7.83541L35 2.92334H24.5978V3.98209C23.0882 3.98922 21.609 4.40669 20.3184 5.18985C19.0278 5.973 17.9744 7.09235 17.271 8.42809C15.4807 11.834 14.5142 15.6124 14.4489 19.4596V30.9976H12.3773V33.0765H22.7776V30.9976H20.6968V19.5147ZM26.6786 5.00414H31.9283L31.4348 6.23904L26.6786 8.16019V5.00414ZM18.6179 30.9976H16.5371V19.4761C16.5953 15.9637 17.475 12.5138 19.1059 9.40243C19.6319 8.39946 20.4209 7.55857 21.3884 6.96992C22.3559 6.38128 23.4654 6.06709 24.5978 6.06105V8.14185C23.846 8.14885 23.1101 8.35952 22.4684 8.75145C21.8267 9.14337 21.3033 9.70189 20.9537 10.3676C19.4749 13.1871 18.6751 16.313 18.6179 19.4963V30.9976Z" fill="#333333"/>
</svg>
