<svg width="36" height="36" viewBox="0 0 36 36" fill="none" xmlns="http://www.w3.org/2000/svg">
<path fill-rule="evenodd" clip-rule="evenodd" d="M3.96129 7.00012H25.7486V12.5332H33.4337L35.0001 16.7104L29.7009 19.9712V21.7254C30.8796 22.3897 31.6771 23.6535 31.6771 25.1049C31.6771 27.246 29.9414 28.982 27.8003 28.982C25.6592 28.982 23.9236 27.246 23.9236 25.1049C23.9236 24.1389 24.2774 23.2555 24.8613 22.5772L24.2946 21.8679H21.0058V24.3146C21.0058 26.8923 18.9162 28.982 16.3386 28.982C14.0041 28.982 12.0699 27.2678 11.7258 25.0295H9.6663L8.4806 27.4009H1.71507C1.40624 27.4009 1.13232 27.2028 1.0359 26.9094C0.939486 26.616 1.04237 26.2939 1.29099 26.1107L8.98952 20.4381H10.8809V19.4965H7.08536L3.96129 7.00012ZM5.79255 8.42993L8.20171 18.0667H12.3107V21.8679H9.4594L3.89046 25.9711H7.59693L8.78262 23.5997H13.1012V24.3146C13.1012 26.1026 14.5506 27.5522 16.3386 27.5522C18.1266 27.5522 19.576 26.1026 19.576 24.3146V20.4381H24.9823L26.8282 22.748L26.2713 23.1943C25.7104 23.644 25.3534 24.3325 25.3534 25.1049C25.3534 26.4564 26.4489 27.5522 27.8003 27.5522C29.1517 27.5522 30.2473 26.4564 30.2473 25.1049C30.2473 24.0792 29.6158 23.1995 28.7178 22.836L28.2711 22.6549V19.1726L33.2479 16.11L32.4429 13.963H24.3188V8.42993H5.79255Z" fill="#333333"/>
<path fill-rule="evenodd" clip-rule="evenodd" d="M15.4189 10.233C15.6583 9.99385 15.9829 9.85973 16.3213 9.85973C16.6589 9.86076 16.9823 9.99579 17.2207 10.2349C17.459 10.474 17.5929 10.7974 17.5929 11.135C17.593 11.2074 17.5875 11.2799 17.5761 11.3514L17.1218 19.3429C17.1077 19.5474 17.0164 19.7387 16.8665 19.8786C16.7166 20.0185 16.5192 20.0964 16.3142 20.0964C16.1092 20.0964 15.9118 20.0185 15.7619 19.8786C15.612 19.7387 15.5207 19.5474 15.5066 19.3429L15.0445 11.2072V11.135C15.0449 10.7966 15.1795 10.4722 15.4189 10.233ZM16.9079 22.3673C17.224 22.6834 17.224 23.1961 16.9079 23.5122C16.5917 23.8284 16.0791 23.8284 15.763 23.5122C15.4468 23.1961 15.4468 22.6834 15.763 22.3673C16.0791 22.0511 16.5917 22.0511 16.9079 22.3673Z" fill="#333333"/>
</svg>
