<svg width="36" height="36" viewBox="0 0 36 36" fill="none" xmlns="http://www.w3.org/2000/svg">
<path d="M18 25.1C20.822 25.1 23.1 22.822 23.1 20C23.1 18.096 22.063 16.43 20.55 15.563L4.043 6.009L13.444 22.295C14.294 23.961 16.011 25.1 18 25.1ZM18 3C14.923 3 12.05 3.85 9.551 5.244L13.121 7.301C14.6 6.723 16.3 6.4 18 6.4C25.514 6.4 31.6 12.486 31.6 20C31.6 23.757 30.087 27.157 27.622 29.605H27.605C27.4474 29.7623 27.3224 29.9491 27.2371 30.1547C27.1517 30.3604 27.1078 30.5808 27.1078 30.8035C27.1078 31.0261 27.1517 31.2466 27.2371 31.4523C27.3224 31.6579 27.4474 31.8447 27.605 32.002C28.268 32.665 29.356 32.665 30.019 32.019C31.6 30.4425 32.854 28.5691 33.7088 26.5065C34.5636 24.4439 35.0024 22.2327 35 20C35 10.65 27.35 3 18 3ZM1 20C1 24.692 2.904 28.942 5.981 32.019C6.644 32.665 7.715 32.665 8.378 32.002C8.53559 31.8447 8.66063 31.6579 8.74593 31.4523C8.83124 31.2466 8.87515 31.0261 8.87515 30.8035C8.87515 30.5808 8.83124 30.3604 8.74593 30.1547C8.66063 29.9491 8.53559 29.7623 8.378 29.605C7.1137 28.3459 6.11126 26.8488 5.4285 25.2003C4.74574 23.5518 4.39618 21.7843 4.4 20C4.4 18.3 4.723 16.6 5.318 15.07L3.261 11.5C1.85 14.05 1 16.906 1 20Z" fill="#333333"/>
</svg>
