<svg width="36" height="36" viewBox="0 0 36 36" fill="none" xmlns="http://www.w3.org/2000/svg">
<path fill-rule="evenodd" clip-rule="evenodd" d="M5.60915 11.8395H24.8794L21.7487 17.079H33.5168L35 21.0342L29.9821 24.1221V25.7831C31.0983 26.4122 31.8534 27.6089 31.8534 28.9832C31.8534 31.0106 30.2099 32.6541 28.1825 32.6541C26.1551 32.6541 24.5115 31.0106 24.5115 28.9832C24.5115 28.0684 24.8466 27.2316 25.3995 26.5893L24.8629 25.9178H21.7487V28.2348C21.7487 30.6756 19.7701 32.6541 17.3293 32.6541C15.1187 32.6541 13.2872 31.0311 12.9614 28.9117L11.0113 28.9117L9.88852 31.1572H3.4822C3.18977 31.1572 2.93039 30.9694 2.83909 30.6916C2.74779 30.4138 2.84521 30.1088 3.08064 29.9353L10.3704 24.5639H12.1614V23.6723H8.56735L5.60915 11.8395Z" fill="#333333"/>
<path d="M24.6943 9.98805C23.9392 9.98805 23.3296 9.72886 22.8657 9.21048C22.4067 8.69211 22.1772 7.99471 22.1772 7.11827C22.1772 6.16168 22.4215 5.40282 22.9101 4.84169C23.4037 4.28056 24.0601 4 24.8794 4C25.6642 4 26.2762 4.25384 26.7154 4.76153C27.1596 5.26922 27.3817 5.98266 27.3817 6.90184C27.3817 7.84774 27.1374 8.59859 26.6488 9.15437C26.1602 9.71016 25.5087 9.98805 24.6943 9.98805ZM24.835 5.41084C24.1144 5.41084 23.7541 5.95326 23.7541 7.03811C23.7541 8.06418 24.0971 8.57721 24.7832 8.57721C25.484 8.57721 25.8344 8.0428 25.8344 6.97398C25.8344 5.93189 25.5013 5.41084 24.835 5.41084ZM32.4457 4.16032L25.5309 15.6555H23.7245L30.6244 4.16032H32.4457ZM31.3055 15.8158C30.5504 15.8158 29.9408 15.5566 29.4769 15.0382C29.0179 14.5198 28.7884 13.8224 28.7884 12.946C28.7884 11.9894 29.0327 11.2306 29.5213 10.6694C30.0149 10.1083 30.6713 9.82773 31.4906 9.82773C32.2803 9.82773 32.8948 10.0789 33.334 10.5812C33.7733 11.0836 33.993 11.7944 33.993 12.7135C33.993 13.6594 33.7486 14.413 33.26 14.9741C32.7714 15.5352 32.1199 15.8158 31.3055 15.8158ZM31.424 11.2386C30.7083 11.2386 30.3505 11.781 30.3505 12.8658C30.3505 13.8919 30.6985 14.4049 31.3944 14.4049C32.0952 14.4049 32.4457 13.8705 32.4457 12.8017C32.4457 12.3047 32.3519 11.9199 32.1643 11.6474C31.9768 11.3748 31.73 11.2386 31.424 11.2386Z" fill="#333333"/>
<path fill-rule="evenodd" clip-rule="evenodd" d="M3.29751 7.61038H1V5.80519H3.29751V7.61038ZM11.3388 7.61038H4.82919V5.80519H11.3388V7.61038ZM1 8.75913H7.89254V10.5643H1V8.75913ZM9.04129 8.75913H11.3388V10.5643H9.04129V8.75913Z" fill="#333333"/>
</svg>
