<svg width="36" height="36" viewBox="0 0 36 36" fill="none" xmlns="http://www.w3.org/2000/svg">
<path fill-rule="evenodd" clip-rule="evenodd" d="M32.8001 17.8829V27.0624C33.204 27.4206 33.4965 27.8873 33.6428 28.4069C33.7892 28.9265 33.7833 29.4771 33.6258 29.9935C33.4683 30.5098 33.166 30.9701 32.7546 31.3195C32.3432 31.669 31.8401 31.893 31.3051 31.9649C30.7701 32.0368 30.2256 31.9536 29.7366 31.7252C29.2475 31.4967 28.8343 31.1326 28.5461 30.6762C28.2579 30.2198 28.1068 29.6902 28.1108 29.1504C28.1148 28.6106 28.2736 28.0833 28.5685 27.6312L28.2452 27.2995H24.1545C24.0966 28.34 23.7157 29.3364 23.0648 30.1502C22.4139 30.9639 21.5254 31.5544 20.5231 31.8394C19.5208 32.1244 18.4546 32.0898 17.4729 31.7403C16.4912 31.3908 15.643 30.7439 15.0463 29.8896H12.5756L9.55774 32.0087H1.25206L1 31.0652L12.5557 25.4175H14.0149V24.0048H8.98733L6.50013 10.8789H17.3014V17.8895H17.5434C18.2164 15.902 19.4742 14.1643 21.1519 12.9041C22.8296 11.6439 23.8371 11.0741 25.9333 10.9814L23.44 14.9708C22.3345 15.7202 22.0623 16.6603 21.5247 17.8829H32.8001Z" fill="#333333"/>
<path fill-rule="evenodd" clip-rule="evenodd" d="M3.53867 6.26689H1.00001V4.27222H3.53867V6.26689ZM12.424 6.26689H5.23112V4.27222H12.424V6.26689ZM1.00001 7.53622H8.616V9.53089H1.00001V7.53622ZM9.88534 7.53622H12.424V9.53089H9.88534V7.53622Z" fill="#333333"/>
<path d="M24.7254 10.6166C23.891 10.6166 23.2174 10.3302 22.7048 9.75739C22.1976 9.18461 21.944 8.414 21.944 7.44558C21.944 6.38858 22.214 5.55007 22.7539 4.93004C23.2992 4.31001 24.0246 4 24.9299 4C25.797 4 26.4732 4.28049 26.9586 4.84147C27.4494 5.40244 27.6949 6.19076 27.6949 7.20643C27.6949 8.25161 27.4249 9.08127 26.885 9.69539C26.3451 10.3095 25.6252 10.6166 24.7254 10.6166ZM24.8808 5.55892C24.0846 5.55892 23.6864 6.15828 23.6864 7.357C23.6864 8.49077 24.0655 9.05765 24.8235 9.05765C25.5979 9.05765 25.9851 8.46715 25.9851 7.28614C25.9851 6.13466 25.617 5.55892 24.8808 5.55892ZM33.2903 4.17715L25.6497 16.8788H23.6537L31.2779 4.17715H33.2903ZM32.0305 17.056C31.1961 17.056 30.5226 16.7696 30.0099 16.1968C29.5027 15.624 29.2491 14.8534 29.2491 13.885C29.2491 12.828 29.5191 11.9895 30.059 11.3695C30.6044 10.7494 31.3297 10.4394 32.235 10.4394C33.1076 10.4394 33.7866 10.717 34.2719 11.272C34.7573 11.8271 35 12.6125 35 13.6281C35 14.6733 34.73 15.5059 34.1901 16.126C33.6502 16.746 32.9303 17.056 32.0305 17.056ZM32.1614 11.9983C31.3706 11.9983 30.9752 12.5977 30.9752 13.7964C30.9752 14.9302 31.3597 15.4971 32.1287 15.4971C32.9031 15.4971 33.2903 14.9066 33.2903 13.7256C33.2903 13.1764 33.1867 12.7512 32.9794 12.4501C32.7722 12.1489 32.4995 11.9983 32.1614 11.9983Z" fill="#333333"/>
</svg>
