<svg width="36" height="36" viewBox="0 0 36 36" fill="none" xmlns="http://www.w3.org/2000/svg">
<path fill-rule="evenodd" clip-rule="evenodd" d="M20.9504 20.7958L21.7419 21.592C21.2598 22.3178 20.9158 23.1419 20.7491 24.0258L19.0302 22.3072C18.9295 22.2055 18.8107 22.1813 18.6848 22.1813C18.5589 22.1813 18.4079 22.2065 18.3072 22.3072C18.1058 22.5086 18.1058 22.8288 18.3072 23.0302L20.6362 25.3596C20.6785 27.9087 22.1545 30.1092 24.293 31.1903C23.5192 31.2262 22.7332 30.9503 22.1456 30.3627L16.7022 24.9504C16.1987 24.4469 16.098 23.729 16.1987 23.1248L15.0024 21.9296C14.7004 22.3324 14.0841 22.3324 13.6813 21.9296L13.2725 21.5198C12.8698 21.117 12.8698 20.5068 13.2725 20.104L14.0589 19.3488L4.83944 10.1283L3.32904 10.3498L1 6.32211L2.32211 5L6.34884 7.32904L6.12933 8.83944L15.3488 18.0589L16.0094 17.3984C16.1009 17.3029 16.2108 17.227 16.3325 17.1751C16.4541 17.1232 16.585 17.0965 16.7173 17.0965C16.8495 17.0965 16.9804 17.1232 17.102 17.1751C17.2237 17.227 17.3336 17.3029 17.4251 17.3984L17.8027 17.775C18.1048 18.0781 18.1048 18.6943 17.8027 19.0971L19.1248 20.2923C19.729 20.0909 20.4469 20.2923 20.9504 20.7958ZM21.9573 5.03121C19.9707 4.86608 17.3365 6.18315 16.104 7.32803C14.5876 8.84448 14.8353 10.8271 16.0406 12.7413L13.9019 14.8811L15.4123 16.5798C16.2178 15.8749 17.406 15.8749 18.2115 16.5798L18.6214 16.9886L18.716 17.0832L19.5971 16.2022C21.4176 17.2725 23.3127 17.4266 24.7576 15.9816C26.1673 14.6726 27.6959 11.4444 26.991 9.53121L24.1595 12.4574C23.7567 12.8601 23.1465 12.8601 22.7438 12.4574L19.8166 9.53121C19.7211 9.43967 19.6452 9.32977 19.5933 9.20812C19.5414 9.08647 19.5147 8.95559 19.5147 8.82333C19.5147 8.69108 19.5414 8.56019 19.5933 8.43854C19.6452 8.31689 19.7211 8.207 19.8166 8.11546L22.7448 5.1893C22.493 5.10069 22.2413 5.05538 21.9573 5.03121ZM7.22991 21.2368L10.8811 17.5867L12.5798 19.2854C11.8749 20.0919 11.8689 21.3124 12.6744 22.1179L12.9886 22.5267L10.8488 24.6665C10.9878 25.1327 11.0694 25.6291 11.0694 26.1456C11.0694 28.9651 8.8541 31.1803 6.03468 31.1803C3.21526 31.1803 1 28.9651 1 26.1456C1 23.3262 3.21526 21.111 6.03468 21.111C6.43657 21.1074 6.83756 21.1497 7.22991 21.2368ZM6.72745 23.5326L8.64667 25.4529L7.9539 28.0639L5.34291 28.7566L3.42269 26.8364L4.11546 24.2254L6.72745 23.5326Z" fill="#333333"/>
<path d="M34.8741 23.6744H30.8464C30.7772 23.6744 30.7205 23.731 30.7205 23.8003V24.5555C30.7205 24.6247 30.7772 24.6813 30.8464 24.6813H34.8741C34.9434 24.6813 35 24.6247 35 24.5555V23.8003C35 23.731 34.9434 23.6744 34.8741 23.6744ZM32.7659 25.8141H30.8464C30.7772 25.8141 30.7205 25.8708 30.7205 25.94V26.6952C30.7205 26.7644 30.7772 26.8211 30.8464 26.8211H32.7659C32.8351 26.8211 32.8917 26.7644 32.8917 26.6952V25.94C32.8917 25.8708 32.8351 25.8141 32.7659 25.8141ZM27.5156 22.2663H26.8344C26.7368 22.2663 26.6582 22.3449 26.6582 22.4425V26.3444C26.6582 26.401 26.6849 26.4529 26.7305 26.486L29.0732 28.1946C29.1519 28.2512 29.262 28.2355 29.3187 28.1568L29.723 27.6046V27.603C29.7797 27.5244 29.7624 27.4142 29.6837 27.3576L27.6903 25.9164V22.4425C27.6919 22.3449 27.6116 22.2663 27.5156 22.2663Z" fill="#333333"/>
<path d="M32.6681 27.795H31.7587C31.6706 27.795 31.5872 27.8406 31.54 27.9161C31.3402 28.2324 31.1074 28.525 30.8399 28.7925C30.3789 29.2535 29.8424 29.6153 29.2461 29.8671C28.6278 30.1282 27.9717 30.2604 27.2952 30.2604C26.6171 30.2604 25.961 30.1282 25.3442 29.8671C24.748 29.6153 24.2114 29.2535 23.7505 28.7925C23.2895 28.3315 22.9276 27.795 22.6759 27.1987C22.4147 26.5819 22.2825 25.9259 22.2825 25.2478C22.2825 24.5696 22.4147 23.9151 22.6759 23.2968C22.9276 22.7005 23.2895 22.164 23.7505 21.703C24.2114 21.242 24.748 20.8802 25.3442 20.6284C25.961 20.3673 26.6187 20.2351 27.2952 20.2351C27.9733 20.2351 28.6294 20.3673 29.2461 20.6284C29.8424 20.8802 30.3789 21.242 30.8399 21.703C31.1074 21.9705 31.3402 22.2631 31.54 22.5794C31.5872 22.6549 31.6706 22.7005 31.7587 22.7005H32.6681C32.7767 22.7005 32.8459 22.5872 32.7971 22.4913C31.7713 20.4506 29.6914 19.1243 27.3691 19.0976C23.9692 19.0551 21.145 21.8383 21.1387 25.2352C21.1324 28.6383 23.8905 31.3995 27.2936 31.3995C29.6458 31.3995 31.7603 30.0685 32.7971 28.0042C32.8459 27.9083 32.7751 27.795 32.6681 27.795Z" fill="#333333"/>
</svg>
