<svg width="36" height="36" viewBox="0 0 36 36" fill="none" xmlns="http://www.w3.org/2000/svg">
<path d="M13.8302 3H1V5.13813H1.01205L1.01135 29.5556H4.41844V27.4161H3.15016V5.13813H12.758L21.1798 17.1654L22.9325 15.9381L13.8737 3.00136L13.8302 3.03182V3Z" fill="#333333"/>
<path fill-rule="evenodd" clip-rule="evenodd" d="M16.4971 23.2878L12.2266 19.0144L14.3489 16.8907L18.6194 21.1626H19.7273L23.9992 16.8907L26.1215 19.0116L21.9257 23.2059L21.8496 23.2849V24.3928L26.1215 28.6633L24.0006 30.787L19.7287 26.5151H18.6208L14.3503 30.787L12.2266 28.6662L16.4971 24.3957V23.2878ZM20.2303 23.6334C20.1887 23.4246 20.0862 23.2328 19.9356 23.0823C19.7336 22.8809 19.46 22.7679 19.1748 22.7679C18.8895 22.7679 18.6159 22.8809 18.4139 23.0823C18.2634 23.2328 18.1608 23.4246 18.1192 23.6334C18.0777 23.8422 18.0989 24.0586 18.1804 24.2553C18.2618 24.452 18.3998 24.6201 18.5768 24.7383C18.7538 24.8566 18.9619 24.9198 19.1748 24.9198C19.3877 24.9198 19.5958 24.8566 19.7728 24.7383C19.9498 24.6201 20.0877 24.452 20.1691 24.2553C20.2506 24.0586 20.2719 23.8422 20.2303 23.6334ZM24.0208 29.8488L21.4228 27.2494L22.7218 27.2436L24.6746 29.1964L24.0208 29.8488ZM13.1721 28.692L15.7715 26.0926L15.7772 27.3916L13.8244 29.3458L13.1721 28.692ZM14.323 17.8433L16.921 20.4427L15.6234 20.447L13.6692 18.4957L14.323 17.8433ZM25.1732 18.9929L22.5723 21.5923L22.5666 20.2947L24.5208 18.342L25.1732 18.9929Z" fill="#333333"/>
<path d="M25.135 27.1693H25.7744V26.1828H25.135V27.1693Z" fill="#333333"/>
<path d="M26.7974 27.1693H28.0762V26.1828H26.7974V27.1693Z" fill="#333333"/>
<path d="M29.0993 27.1693H30.3781V26.1828H29.0993V27.1693Z" fill="#333333"/>
<path d="M31.4011 27.1693H32.0405V26.1828H31.4011V27.1693Z" fill="#333333"/>
<path d="M27.108 29.1423H27.7474V28.1558H27.108V29.1423Z" fill="#333333"/>
<path d="M28.7704 29.1423H30.0492V28.1558H28.7704V29.1423Z" fill="#333333"/>
<path d="M31.0723 29.1423H32.3511V28.1558H31.0723V29.1423Z" fill="#333333"/>
<path d="M33.3741 29.1423H34.0135V28.1558H33.3741V29.1423Z" fill="#333333"/>
<path d="M28.0945 31.1153H28.7339V30.1288H28.0945V31.1153Z" fill="#333333"/>
<path d="M29.7569 31.1153H31.0357V30.1288H29.7569V31.1153Z" fill="#333333"/>
<path d="M32.0588 31.1153H33.3376V30.1288H32.0588V31.1153Z" fill="#333333"/>
<path d="M34.3606 31.1153H35V30.1288H34.3606V31.1153Z" fill="#333333"/>
<path d="M6.66519 22.2898H5.40494V32.029H6.66519V22.2898Z" fill="#333333"/>
<path d="M8.79551 21.5128H7.53526V31.2519H8.79551V21.5128Z" fill="#333333"/>
<path d="M10.9242 20.757H9.66399V30.4962H10.9242V20.757Z" fill="#333333"/>
<path d="M7.01309 16.0419H9.26402V15.8316C9.2759 14.6256 9.69164 14.0628 10.63 13.4753C11.7406 12.7888 12.4652 11.8796 12.4652 10.4263C12.4652 8.26166 10.7904 7 8.43254 7C6.27664 7 4.51866 8.17507 4.46521 10.6489H6.88837C6.92401 9.64082 7.64264 9.10276 8.42067 9.10276C9.22245 9.10276 9.86981 9.65937 9.86981 10.519C9.86981 11.3292 9.3056 11.8673 8.57508 12.3497C7.57731 13.0052 7.01903 13.667 7.01309 15.8316V16.0419ZM8.1831 20C8.94331 20 9.60255 19.3382 9.60849 18.5157C9.60255 17.7055 8.94331 17.0438 8.1831 17.0438C7.39914 17.0438 6.75177 17.7055 6.75771 18.5157C6.75177 19.3382 7.39914 20 8.1831 20Z" fill="#333333"/>
</svg>
