<svg width="36" height="36" viewBox="0 0 36 36" fill="none" xmlns="http://www.w3.org/2000/svg">
<path d="M16.0998 14.4804C16.0556 12.1623 15.4711 9.88657 14.3928 7.83413C14.2524 7.56613 14.0426 7.34076 13.7853 7.18157C13.528 7.02238 13.2327 6.93521 12.9302 6.92917V7.75958L6.07225 4.99105L4.47852 1H12.9302V1.86023C14.1568 1.86602 15.3587 2.20522 16.4073 2.84153C17.4559 3.47784 18.3118 4.38731 18.8833 5.4726C20.3379 8.23991 21.1232 11.3098 21.1762 14.4357V23.8102H22.8594V25.4994H14.4092V23.8102H16.0998V14.4804ZM11.2396 2.69064H6.97423L7.37527 3.69399L11.2396 5.25493V2.69064ZM17.789 23.8102H19.4796V14.4491C19.4323 11.5953 18.7175 8.7922 17.3924 6.26425C16.9651 5.44933 16.324 4.76611 15.5379 4.28784C14.7518 3.80956 13.8504 3.55429 12.9302 3.54938V5.24002C13.5411 5.24572 14.139 5.41688 14.6604 5.73532C15.1818 6.05376 15.6071 6.50755 15.8911 7.04844C17.0926 9.33929 17.7425 11.8791 17.789 14.4655V23.8102Z" fill="#333333"/>
<path d="M26.5266 21.452L26.4978 17.5263L29.4591 17.5477L29.4879 21.4734L31.5215 21.4888L28.0407 24.9864L24.5066 21.4378L26.5266 21.452Z" fill="#333333"/>
<path d="M15.7669 34.8915H14.3465V33.3625H11.5055V32.3859L13.9223 28.4797H15.7669V32.238H16.5265V33.3625H15.7669V34.8915ZM12.8964 32.238H14.3465V30.8175C14.3465 30.5742 14.3596 30.1763 14.3859 29.6239H14.3563C14.0012 30.3276 13.8006 30.7254 13.7546 30.8175L12.9063 32.2183L12.8964 32.238Z" fill="#333333"/>
<path d="M19.4827 35H19.4728C18.6837 35 18.0885 34.6909 17.6874 34.0728C17.2862 33.4546 17.0824 32.6621 17.0758 31.6954C17.0758 30.7156 17.283 29.9166 17.6973 29.2984C18.1116 28.6802 18.7166 28.3712 19.5123 28.3712C20.3146 28.3712 20.913 28.6802 21.3076 29.2984C21.7022 29.9166 21.8995 30.7024 21.8995 31.656C21.8995 32.6753 21.6923 33.4875 21.278 34.0925C20.8703 34.6975 20.2719 35 19.4827 35ZM19.4926 33.8656H19.5024C20.1009 33.8656 20.4001 33.1356 20.4001 31.6757C20.4001 30.2289 20.0976 29.5056 19.4926 29.5056C19.2032 29.5056 18.9763 29.6897 18.8119 30.058C18.6541 30.4262 18.5752 30.9655 18.5752 31.6757C18.5686 32.3991 18.6442 32.9449 18.8021 33.3132C18.9665 33.6815 19.1966 33.8656 19.4926 33.8656Z" fill="#333333"/>
<path d="M23.9876 28.1344H23.9975C24.4315 28.1344 24.7866 28.2758 25.0628 28.5586C25.3456 28.8414 25.487 29.18 25.487 29.5746C25.487 29.9889 25.339 30.3375 25.0431 30.6202C24.7472 30.8964 24.3921 31.0345 23.9778 31.0345C23.5503 31.0345 23.1952 30.8964 22.9124 30.6202C22.6296 30.344 22.4883 30.0054 22.4883 29.6042C22.4817 29.1965 22.6231 28.8512 22.9124 28.5684C23.2083 28.2791 23.5668 28.1344 23.9876 28.1344ZM23.9876 28.8249H23.9778C23.7739 28.8249 23.6062 28.9005 23.4747 29.0518C23.3432 29.203 23.2774 29.3839 23.2774 29.5943C23.2774 29.8048 23.3432 29.9823 23.4747 30.127C23.6128 30.2717 23.7838 30.344 23.9876 30.344C24.1915 30.344 24.3592 30.2717 24.4907 30.127C24.6288 29.9823 24.6979 29.8015 24.6979 29.5845C24.6979 29.3806 24.6321 29.203 24.5006 29.0518C24.3756 28.9005 24.2046 28.8249 23.9876 28.8249Z" fill="#333333"/>
</svg>
