<svg width="36" height="36" viewBox="0 0 36 36" fill="none" xmlns="http://www.w3.org/2000/svg">
<path d="M16.0974 14.4963C16.0532 12.1755 15.468 9.89702 14.3883 7.84216C14.2478 7.57385 14.0377 7.34822 13.7801 7.18884C13.5226 7.02946 13.2269 6.94219 12.9241 6.93614V7.76753L6.05801 4.99574L4.4624 1H12.9241V1.86124C14.1521 1.86704 15.3554 2.20664 16.4052 2.8437C17.4551 3.48075 18.3119 4.39129 18.8841 5.47786C20.3404 8.24843 21.1267 11.3219 21.1797 14.4515V23.8371H22.8649V25.5282H14.4047V23.8371H16.0974V14.4963ZM11.2314 2.69263H6.96105L7.36256 3.69716L11.2314 5.25993V2.69263ZM17.7885 23.8371H19.4811V14.4649C19.4338 11.6078 18.7181 8.80137 17.3915 6.27044C16.9637 5.45457 16.3218 4.77054 15.5348 4.2917C14.7478 3.81287 13.8453 3.55729 12.9241 3.55238V5.24501C13.5357 5.25071 14.1343 5.42208 14.6563 5.74089C15.1783 6.0597 15.6041 6.51403 15.8884 7.05555C17.0913 9.3491 17.742 11.8919 17.7885 14.4813V23.8371Z" fill="#333333"/>
<path d="M26.5367 21.476L26.5079 17.5457L29.4727 17.5672L29.5015 21.4975L31.5375 21.5129L28.0526 25.0146L24.5144 21.4618L26.5367 21.476Z" fill="#333333"/>
<path d="M14.5538 35L14.4446 32.4387C14.4049 31.3666 14.3851 30.4499 14.3851 29.6888H14.3652C14.1336 30.5823 13.8821 31.446 13.6107 32.2799L12.7967 34.8908H11.6153L10.9005 32.2997C10.6755 31.4857 10.4737 30.6154 10.295 29.6888H10.2751C10.242 30.7213 10.2056 31.6445 10.1659 32.4586L10.0369 35H8.63709L9.06397 28.3089H11.0792L11.7345 30.5426C11.9595 31.35 12.1481 32.1475 12.3003 32.9351H12.34C12.5452 32.0416 12.757 31.2408 12.9754 30.5327L13.6802 28.3089H15.6657L16.0231 35H14.5538Z" fill="#333333"/>
<path d="M20.6563 33.2826H18.7303L18.2638 35H16.6952L18.7403 28.3089H20.7158L22.8006 35H21.1725L20.6563 33.2826ZM18.9488 32.1508H20.4279L20.011 30.7312C19.9713 30.5724 19.9084 30.3308 19.8224 30.0065C19.7429 29.6756 19.6966 29.487 19.6834 29.4406H19.6536C19.4948 30.1422 19.3955 30.5724 19.3558 30.7312L18.9488 32.1508Z" fill="#333333"/>
<path d="M28.7256 35H26.9784L26.3728 33.7889C26.2868 33.63 26.0883 33.2296 25.7772 32.5876H25.7573C25.6779 32.806 25.5025 33.2064 25.2312 33.7889L24.6852 35H22.9578L24.8937 31.6147L23.0273 28.3089H24.7646L25.3503 29.53C25.5356 29.9138 25.7044 30.2845 25.8566 30.6419H25.8765C25.9824 30.3507 26.1346 29.98 26.3331 29.53L26.899 28.3089H28.6264L26.7402 31.575L28.7256 35Z" fill="#333333"/>
</svg>
