<svg width="36" height="36" viewBox="0 0 36 36" fill="none" xmlns="http://www.w3.org/2000/svg">
<path d="M27.1051 19.516L29.7254 23.2537L28.1106 22.6383L25.882 22.0632L23.6082 21.684L21.1651 21.4447V22.3166L23.271 22.4984L25.394 22.7984L27.4874 23.2615L29.7425 24.0836L24.7723 24.5172L24.85 25.3953L31.8701 24.7814L27.8277 19.0094L27.1051 19.516Z" fill="#333333"/>
<path d="M8.36681 19.6479L5.74652 23.3856L7.36128 22.7702L9.58992 22.1951L11.8636 21.8159L14.3067 21.5766V22.4485L12.2009 22.6303L10.0779 22.9303L7.98449 23.3934L5.72943 24.2155L10.6996 24.6491L10.6219 25.5272L3.60181 24.9133L7.64413 19.1413L8.36681 19.6479Z" fill="#333333"/>
<path d="M20.2837 15.0526C20.3297 12.6361 20.9391 10.2637 22.0632 8.12419C22.2096 7.84482 22.4283 7.60989 22.6965 7.44394C22.9647 7.27799 23.2725 7.18712 23.5878 7.18083V8.04648L30.7369 5.16044L32.3983 1H23.5878V1.89674C22.3092 1.90278 21.0563 2.25638 19.9632 2.91969C18.8701 3.58301 17.9779 4.53107 17.3821 5.66243C15.8658 8.5472 15.0471 11.7474 14.9919 15.0059V24.7784H13.2372V26.5392H22.0461V24.7784H20.2837V15.0526ZM25.3502 2.7624H29.7966L29.3786 3.80834L25.3502 5.43552V2.7624ZM18.5229 24.7784H16.7605V15.0199C16.8098 12.045 17.5549 9.12293 18.9363 6.48768C19.3817 5.63818 20.05 4.92595 20.8695 4.42738C21.6889 3.92881 22.6286 3.6627 23.5878 3.65758V5.41998C22.951 5.42592 22.3277 5.60435 21.7842 5.9363C21.2407 6.26825 20.7974 6.74131 20.5013 7.30516C19.2488 9.69324 18.5713 12.3408 18.5229 15.037V24.7784Z" fill="#333333"/>
<path d="M7.10401 32.0553H9.4852V32.9733H7.10401V32.0553Z" fill="#333333"/>
<path d="M11.9052 34.9V30.2195H11.887L10.76 30.7557L10.5328 29.7196L12.1051 28.9925H13.2412V34.9H11.9052Z" fill="#333333"/>
<path d="M17.3191 35H17.31C16.5829 35 16.0345 34.7152 15.6649 34.1457C15.2954 33.5761 15.1075 32.846 15.1015 31.9554C15.1015 31.0526 15.2923 30.3164 15.674 29.7469C16.0558 29.1773 16.6132 28.8925 17.3463 28.8925C18.0855 28.8925 18.6369 29.1773 19.0004 29.7469C19.364 30.3164 19.5457 31.0404 19.5457 31.919C19.5457 32.8581 19.3549 33.6064 18.9732 34.1639C18.5975 34.7213 18.0461 35 17.3191 35ZM17.3281 33.9548H17.3372C17.8886 33.9548 18.1643 33.2823 18.1643 31.9372C18.1643 30.6042 17.8856 29.9377 17.3281 29.9377C17.0615 29.9377 16.8525 30.1074 16.701 30.4467C16.5556 30.786 16.4829 31.2828 16.4829 31.9372C16.4769 32.6037 16.5465 33.1066 16.6919 33.4459C16.8434 33.7852 17.0555 33.9548 17.3281 33.9548Z" fill="#333333"/>
<path d="M24.1689 28.9925V30.1286H21.8786L21.7514 31.0374C21.9211 31.0253 22.0483 31.0192 22.1331 31.0192C22.7814 31.0192 23.2995 31.1616 23.6873 31.4464C24.1659 31.7675 24.4052 32.2613 24.4052 32.9278C24.4052 33.5034 24.175 33.9942 23.7145 34.4002C23.254 34.8001 22.639 35 21.8696 35C21.197 35 20.6487 34.8879 20.2245 34.6637L20.479 33.6276C20.8668 33.8215 21.3091 33.9185 21.8059 33.9185C22.1271 33.9185 22.4027 33.8427 22.633 33.6913C22.8693 33.5337 22.9874 33.3095 22.9874 33.0187C22.9874 32.3643 22.433 32.0371 21.3242 32.0371C21.0334 32.0371 20.7698 32.0553 20.5335 32.0917L20.9153 28.9925H24.1689Z" fill="#333333"/>
<path d="M26.5109 28.6744H26.52C26.9199 28.6744 27.2471 28.8047 27.5016 29.0652C27.7621 29.3258 27.8924 29.6378 27.8924 30.0013C27.8924 30.383 27.7561 30.7042 27.4834 30.9647C27.2107 31.2192 26.8836 31.3464 26.5018 31.3464C26.108 31.3464 25.7808 31.2192 25.5203 30.9647C25.2597 30.7102 25.1295 30.3982 25.1295 30.0286C25.1234 29.6529 25.2537 29.3348 25.5203 29.0743C25.7929 28.8077 26.1232 28.6744 26.5109 28.6744ZM26.5109 29.3106H26.5018C26.314 29.3106 26.1595 29.3803 26.0383 29.5196C25.9172 29.659 25.8566 29.8256 25.8566 30.0195C25.8566 30.2134 25.9172 30.377 26.0383 30.5103C26.1656 30.6436 26.3231 30.7102 26.5109 30.7102C26.6988 30.7102 26.8533 30.6436 26.9744 30.5103C27.1017 30.377 27.1653 30.2104 27.1653 30.0104C27.1653 29.8226 27.1047 29.659 26.9835 29.5196C26.8684 29.3803 26.7109 29.3106 26.5109 29.3106Z" fill="#333333"/>
</svg>
