<svg width="36" height="36" viewBox="0 0 36 36" fill="none" xmlns="http://www.w3.org/2000/svg">
<path d="M21.7377 18.8957L22.7214 19.0094C23.3845 19.0892 24.0448 19.1988 24.6984 19.3396C25.352 19.4803 26.0015 19.644 26.6402 19.8402C27.1084 19.9716 27.5647 20.1423 28.0042 20.3504C28.4427 20.5593 28.8624 20.8056 29.2586 21.0865C29.5137 21.2443 29.7293 21.4584 29.8888 21.7124C30.0483 21.9665 30.1475 22.2537 30.1788 22.552C30.148 22.8508 30.0491 23.1386 29.8895 23.3932C29.73 23.6477 29.5141 23.8623 29.2586 24.0202C28.6841 24.4372 28.0524 24.769 27.3831 25.0053L26.578 24.5831C27.2731 24.3926 27.9384 24.1066 28.555 23.7333C28.7846 23.6239 28.9836 23.4593 29.1341 23.2543C29.2595 23.1126 29.3431 22.939 29.3758 22.7527C29.4086 22.5665 29.3891 22.3747 29.3195 22.1988C29.2477 22.0211 29.1435 21.8582 29.0123 21.7185C28.8828 21.5773 28.7276 21.462 28.555 21.3788C28.1757 21.1489 27.7783 20.9503 27.3669 20.7848C26.9567 20.6158 26.5336 20.48 26.1017 20.3788C25.499 20.2218 24.8915 20.0865 24.2789 19.9729C23.7286 19.8727 23.1752 19.7915 22.6186 19.7293L21.7417 19.64L21.7377 18.8957Z" fill="#333333"/>
<path d="M10.4305 17.1217L8.149 20.3761L9.55495 19.8403L11.4954 19.3396L13.4751 19.0094L15.6023 18.801V19.5602L13.7687 19.7185L11.9203 19.9797L10.0976 20.3829L8.13411 21.0987L12.4616 21.4763L12.3939 22.2408L6.28162 21.7063L9.80123 16.6806L10.4305 17.1217Z" fill="#333333"/>
<path d="M16.3693 13.2354C16.3292 11.1314 15.7987 9.06584 14.8199 7.20296C14.6925 6.95971 14.5021 6.75516 14.2685 6.61067C14.035 6.46618 13.767 6.38706 13.4924 6.38158V7.1353L7.26783 4.62245L5.82129 1H13.4924V1.78078C14.6057 1.78604 15.6966 2.09391 16.6484 2.67146C17.6001 3.249 18.377 4.07447 18.8957 5.05953C20.2159 7.57127 20.9288 10.3576 20.9769 13.1948V21.7036H22.5046V23.2367H14.8348V21.7036H16.3693V13.2354ZM11.9579 2.5345H8.08651L8.45051 3.44519L11.9579 4.86196V2.5345ZM17.9024 21.7036H19.437V13.207C19.394 10.6168 18.7452 8.07255 17.5425 5.77806C17.1547 5.03841 16.5728 4.41829 15.8593 3.98419C15.1458 3.55009 14.3276 3.31838 13.4924 3.31393V4.84843C14.0469 4.8536 14.5896 5.00896 15.0628 5.29799C15.536 5.58702 15.9221 5.9989 16.1799 6.48984C17.2704 8.56911 17.8603 10.8744 17.9024 13.2219V21.7036Z" fill="#333333"/>
<path d="M14.97 31.8237L14.871 29.5017C14.835 28.5297 14.817 27.6987 14.817 27.0087H14.799C14.589 27.8187 14.361 28.6017 14.115 29.3577L13.377 31.7247H12.306L11.658 29.3757C11.454 28.6377 11.271 27.8487 11.109 27.0087H11.091C11.061 27.9447 11.028 28.7817 10.992 29.5197L10.875 31.8237H9.60597L9.99297 25.7577H11.82L12.414 27.7827C12.618 28.5147 12.789 29.2377 12.927 29.9517H12.963C13.149 29.1417 13.341 28.4157 13.539 27.7737L14.178 25.7577H15.978L16.302 31.8237H14.97Z" fill="#333333"/>
<path d="M20.5023 30.2667H18.7563L18.3333 31.8237H16.9113L18.7653 25.7577H20.5563L22.4463 31.8237H20.9703L20.5023 30.2667ZM18.9543 29.2407H20.2953L19.9173 27.9537C19.8813 27.8097 19.8243 27.5907 19.7463 27.2967C19.6743 26.9967 19.6323 26.8257 19.6203 26.7837H19.5933C19.4493 27.4197 19.3593 27.8097 19.3233 27.9537L18.9543 29.2407Z" fill="#333333"/>
<path d="M27.8178 31.8237H26.2338L25.6848 30.7257C25.6068 30.5817 25.4268 30.2187 25.1448 29.6367H25.1268C25.0548 29.8347 24.8958 30.1977 24.6498 30.7257L24.1548 31.8237H22.5888L24.3438 28.7547L22.6518 25.7577H24.2268L24.7578 26.8647C24.9258 27.2127 25.0788 27.5487 25.2168 27.8727H25.2348C25.3308 27.6087 25.4688 27.2727 25.6488 26.8647L26.1618 25.7577H27.7278L26.0178 28.7187L27.8178 31.8237Z" fill="#333333"/>
</svg>
