<svg width="36" height="36" viewBox="0 0 36 36" fill="none" xmlns="http://www.w3.org/2000/svg">
<path d="M13.8772 20.7399L12.792 20.8652C12.0607 20.9533 11.3323 21.0742 10.6113 21.2294C9.89039 21.3847 9.17394 21.5653 8.46942 21.7817C7.95297 21.9266 7.44966 22.1149 6.96486 22.3444C6.48117 22.5748 6.01824 22.8465 5.5812 23.1564C5.29978 23.3304 5.06197 23.5666 4.88603 23.8468C4.71009 24.127 4.60068 24.4438 4.56622 24.7729C4.60014 25.1025 4.70929 25.42 4.88526 25.7008C5.06124 25.9816 5.29933 26.2182 5.5812 26.3924C6.21487 26.8523 6.91166 27.2183 7.64997 27.479L8.53808 27.0133C7.77134 26.8032 7.03744 26.4877 6.35737 26.076C6.10408 25.9553 5.88461 25.7737 5.71852 25.5476C5.58027 25.3913 5.48799 25.1998 5.45189 24.9943C5.4158 24.7888 5.43731 24.5774 5.51404 24.3833C5.59326 24.1873 5.70814 24.0076 5.85286 23.8535C5.99579 23.6978 6.16699 23.5706 6.35737 23.4788C6.77572 23.2252 7.21401 23.0061 7.66789 22.8236C8.12034 22.6372 8.58704 22.4874 9.06348 22.3758C9.7282 22.2026 10.3984 22.0534 11.074 21.928C11.681 21.8175 12.2915 21.728 12.9055 21.6593L13.8727 21.5608L13.8772 20.7399Z" fill="#333333"/>
<path d="M26.3496 18.7831L28.8661 22.3728L27.3153 21.7817L25.1749 21.2295L22.9912 20.8653L20.6448 20.6354V21.4728L22.6673 21.6474L24.7062 21.9355L26.7168 22.3803L28.8825 23.1699L24.1091 23.5863L24.1838 24.4296L30.9259 23.8401L27.0436 18.2965L26.3496 18.7831Z" fill="#333333"/>
<path d="M19.7987 14.4963C19.843 12.1755 20.4282 9.89702 21.5078 7.84216C21.6483 7.57385 21.8584 7.34822 22.116 7.18884C22.3735 7.02946 22.6692 6.94219 22.972 6.93614V7.76753L29.8381 4.99574L31.4337 1H22.972V1.86124C21.744 1.86704 20.5407 2.20664 19.4909 2.8437C18.4411 3.48075 17.5842 4.39129 17.012 5.47786C15.5557 8.24843 14.7694 11.3219 14.7164 14.4515V23.8371H13.0312V25.5282H21.4914V23.8371H19.7987V14.4963ZM24.6647 2.69263H28.9351L28.5335 3.69716L24.6647 5.25993V2.69263ZM18.1076 23.8371H16.415V14.4649C16.4623 11.6078 17.178 8.80137 18.5046 6.27044C18.9325 5.45457 19.5743 4.77054 20.3613 4.2917C21.1483 3.81287 22.0508 3.55729 22.972 3.55238V5.24501C22.3604 5.25071 21.7618 5.42208 21.2398 5.74089C20.7179 6.0597 20.292 6.51403 20.0077 7.05555C18.8048 9.3491 18.1541 11.8919 18.1076 14.4813V23.8371Z" fill="#333333"/>
<path d="M14.6577 35L14.5485 32.4387C14.5088 31.3666 14.4889 30.4499 14.4889 29.6888H14.469C14.2374 30.5823 13.9859 31.446 13.7146 32.2799L12.9005 34.8908H11.7191L11.0044 32.2997C10.7793 31.4857 10.5775 30.6154 10.3988 29.6888H10.3789C10.3458 30.7213 10.3094 31.6445 10.2697 32.4586L10.1407 35H8.74091L9.16779 28.3089H11.1831L11.8383 30.5426C12.0633 31.35 12.2519 32.1475 12.4041 32.9351H12.4438C12.649 32.0416 12.8608 31.2408 13.0792 30.5327L13.784 28.3089H15.7695L16.1269 35H14.6577Z" fill="#333333"/>
<path d="M20.7601 33.2826H18.8342L18.3676 35H16.799L18.8441 28.3089H20.8197L22.9044 35H21.2763L20.7601 33.2826ZM19.0526 32.1508H20.5318L20.1148 30.7312C20.0751 30.5724 20.0122 30.3308 19.9262 30.0065C19.8468 29.6756 19.8004 29.487 19.7872 29.4406H19.7574C19.5986 30.1422 19.4993 30.5724 19.4596 30.7312L19.0526 32.1508Z" fill="#333333"/>
<path d="M28.8295 35H27.0822L26.4767 33.7889C26.3906 33.63 26.1921 33.2296 25.881 32.5876H25.8612C25.7817 32.806 25.6064 33.2064 25.335 33.7889L24.789 35H23.0616L24.9975 31.6147L23.1311 28.3089H24.8684L25.4541 29.53C25.6395 29.9138 25.8082 30.2845 25.9604 30.6419H25.9803C26.0862 30.3507 26.2384 29.98 26.437 29.53L27.0028 28.3089H28.7302L26.844 31.575L28.8295 35Z" fill="#333333"/>
</svg>
