<svg width="36" height="36" viewBox="0 0 36 36" fill="none" xmlns="http://www.w3.org/2000/svg">
<path d="M12.7829 26.2261L11.4097 26.3847C10.4841 26.4962 9.56232 26.6492 8.64999 26.8456C7.73766 27.0421 6.83099 27.2706 5.93944 27.5445C5.28587 27.7279 4.64895 27.9661 4.03544 28.2566C3.42334 28.5482 2.8375 28.892 2.28444 29.2842C1.92831 29.5044 1.62737 29.8033 1.40471 30.1579C1.18206 30.5125 1.04361 30.9134 1 31.3299C1.04292 31.747 1.18105 32.1487 1.40374 32.504C1.62643 32.8594 1.92774 33.1588 2.28444 33.3793C3.08634 33.9613 3.96811 34.4245 4.90244 34.7544L6.02633 34.1651C5.05603 33.8991 4.12729 33.4999 3.26666 32.9788C2.94613 32.8261 2.66839 32.5964 2.45822 32.3102C2.28326 32.1124 2.16648 31.8701 2.1208 31.6101C2.07512 31.35 2.10234 31.0824 2.19944 30.8369C2.29969 30.5888 2.44508 30.3614 2.62822 30.1663C2.80909 29.9693 3.02574 29.8084 3.26666 29.6922C3.79609 29.3713 4.35073 29.094 4.92511 28.863C5.49768 28.6271 6.08829 28.4376 6.69121 28.2963C7.5324 28.0772 8.38051 27.8883 9.23554 27.7296C10.0037 27.5899 10.7762 27.4765 11.5532 27.3896L12.7772 27.265L12.7829 26.2261Z" fill="#333333"/>
<path d="M28.5664 23.7498L31.751 28.2926L29.7885 27.5446L27.0798 26.8457L24.3164 26.3848L21.347 26.0939V27.1536L23.9065 27.3746L26.4867 27.7392L29.031 28.302L31.7718 29.3013L25.7311 29.8283L25.8256 30.8955L34.3577 30.1494L29.4447 23.134L28.5664 23.7498Z" fill="#333333"/>
<path d="M20.2761 18.3249C20.3321 15.388 21.0726 12.5046 22.4389 9.90426C22.6168 9.56472 22.8826 9.27918 23.2086 9.07749C23.5345 8.8758 23.9087 8.76536 24.2919 8.75771V9.80982L32.9808 6.30216L35 1.24561H24.2919V2.33549C22.7379 2.34283 21.2151 2.77259 19.8866 3.57878C18.558 4.38496 17.4737 5.53723 16.7496 6.91227C14.9066 10.4184 13.9116 14.3078 13.8445 18.2683V30.1456H11.7119V32.2857H22.4181V30.1456H20.2761V18.3249ZM26.4339 3.3876H31.838L31.3299 4.65882L26.4339 6.63649V3.3876ZM18.136 30.1456H15.994V18.2853C16.054 14.6696 16.9596 11.1181 18.6385 7.91526C19.1799 6.88279 19.9921 6.01716 20.988 5.41121C21.984 4.80525 23.1261 4.48182 24.2919 4.4756V6.6176C23.5179 6.62481 22.7604 6.84168 22.0998 7.24513C21.4393 7.64858 20.9004 8.22353 20.5406 8.90882C19.0183 11.8113 18.1949 15.0291 18.136 18.306V30.1456Z" fill="#333333"/>
</svg>
