<svg width="36" height="36" viewBox="0 0 36 36" fill="none" xmlns="http://www.w3.org/2000/svg">
<path d="M9.50841 27.7307C10.3653 27.5759 11.2253 27.4538 12.0885 27.3645C12.9517 27.2752 13.8048 27.2015 14.6479 27.1437V26.0848C13.6551 26.1502 12.6654 26.2478 11.6789 26.3774C10.7529 26.4831 9.83556 26.6359 8.92708 26.836C8.0186 27.0361 7.11263 27.2695 6.20919 27.5363L4.24815 28.2912L7.43035 23.7482L6.5527 23.1348L1.64539 30.1466L10.1766 30.9015L10.269 29.8351L4.22928 29.3067L6.96982 28.3082C7.80595 28.0723 8.65529 27.8854 9.50841 27.7307Z" fill="#333333"/>
<path d="M22.1392 18.2633C22.1077 16.2892 21.8454 14.3255 21.3578 12.4123C20.8695 10.5018 20.16 8.65473 19.2439 6.90855C18.5208 5.53049 17.4359 4.37552 16.1057 3.56777C14.7755 2.76001 13.2504 2.33002 11.6942 2.32399V1.24438H1L3.01955 6.29703L11.7017 9.80575V8.75446C12.0849 8.76204 12.4591 8.87213 12.7854 9.07327C13.1117 9.27441 13.3781 9.55927 13.5571 9.89824C14.924 12.4981 15.6653 15.3812 15.7219 18.3181V30.139H13.5778V32.2812H24.2814V30.139H22.1392V18.2633ZM9.56326 6.6311L4.66916 4.65497L4.15955 3.38473H9.56326V6.6311ZM20.0007 30.139H17.8585V18.2992C17.8301 16.6667 17.6109 15.0432 17.2054 13.4617C16.8001 11.8802 16.2124 10.3512 15.4539 8.90545C15.0945 8.22006 14.5558 7.64499 13.8954 7.24149C13.235 6.83799 12.4775 6.62117 11.7036 6.61411V4.47377C12.8682 4.48033 14.009 4.80367 15.0038 5.40914C15.9986 6.01461 16.8099 6.87938 17.3508 7.91078C19.0273 11.1129 19.9321 14.6626 19.9932 18.2765L20.0007 30.139Z" fill="#333333"/>
<path d="M34.5961 30.1465C34.3734 29.7913 34.0717 29.4923 33.7147 29.2726C32.6063 28.4867 31.3699 27.8991 30.0606 27.5362C29.1672 27.2619 28.2638 27.0278 27.3503 26.834C26.4367 26.6403 25.5176 26.488 24.5927 26.3773C24.136 26.3106 23.6786 26.2578 23.2206 26.2188V27.2795C23.5427 27.2958 23.8636 27.3242 24.1832 27.3644C25.0457 27.455 25.9083 27.5758 26.7614 27.7306C27.6145 27.8853 28.4601 28.0722 29.3056 28.2968C29.9079 28.4388 30.4979 28.6282 31.0704 28.863C31.6433 29.0968 32.1973 29.3745 32.7275 29.6935C33.0488 29.8444 33.3272 30.0735 33.5372 30.3596C33.7472 30.6458 33.8822 30.98 33.9298 31.3318C33.8806 31.683 33.7449 32.0165 33.5351 32.3024C33.3253 32.5883 33.0478 32.8177 32.7275 32.9701C32.2997 33.2328 31.8538 33.4649 31.3931 33.6646C30.9332 33.8649 30.4595 34.0321 29.9757 34.1648L31.0987 34.7556C31.5654 34.5912 32.0196 34.3932 32.4576 34.1629C32.8951 33.9317 33.3158 33.67 33.7165 33.3796C34.0733 33.1597 34.3746 32.8605 34.5971 32.5054C34.8197 32.1503 34.9575 31.7487 35 31.3318C34.9596 30.9106 34.8213 30.5047 34.5961 30.1465Z" fill="#333333"/>
</svg>
