<svg width="36" height="36" viewBox="0 0 36 36" fill="none" xmlns="http://www.w3.org/2000/svg">
<path d="M15.2888 3.80925L15.5739 4.87516C14.3964 5.17725 13.2957 5.72371 12.3432 6.47904C11.3907 7.23437 10.6078 8.18166 10.0454 9.25936C8.1864 12.8165 7.18443 16.7589 7.11937 20.7719V32.828H4.95502V35H15.7768V32.8223H13.6124V20.8293C13.6684 17.8523 14.4159 14.9291 15.7959 12.2906C15.943 12.0082 16.1507 11.7617 16.4041 11.5689C16.6575 11.376 16.9504 11.2415 17.2618 11.1749L17.5373 12.2045L25.1001 6.48646L25.7488 1L15.2888 3.80925ZM13.8708 11.2725C12.3318 14.2182 11.4997 17.4816 11.4404 20.8045V32.8184H9.28372V20.7872C9.34407 17.118 10.2615 13.5137 11.9628 10.2621C12.3881 9.45026 12.9804 8.73759 13.7007 8.17096C14.421 7.60433 15.2531 7.19655 16.1423 6.97445L16.703 9.07947C16.103 9.22372 15.5407 9.49429 15.0536 9.87313C14.5666 10.252 14.1659 10.7304 13.8784 11.2764L13.8708 11.2725ZM23.0563 5.30191L18.7965 8.52834L17.9469 5.34401L23.2228 3.92599L23.0563 5.30191ZM30.5837 17.1773L31.0449 18.1571L23.1989 21.8294L23.9529 13.1758L25.0303 13.2696L24.5385 18.9762C26.0789 17.1051 27.1508 14.8936 27.665 12.5252C28.1792 10.1568 28.121 7.69991 27.4951 5.35854L28.5399 5.07915C29.2036 7.56993 29.2681 10.1824 28.7283 12.7029C28.1885 15.2235 27.0596 17.5804 25.4341 19.5809L30.5837 17.1773Z" fill="#333333"/>
</svg>
