<svg width="36" height="36" viewBox="0 0 36 36" fill="none" xmlns="http://www.w3.org/2000/svg">
<path fill-rule="evenodd" clip-rule="evenodd" d="M21.3275 16.2243L20.9538 17.6168C19.4239 17.1893 17.8212 17.0885 16.2498 17.321C14.6784 17.5534 13.1736 18.1139 11.833 18.966C7.40521 21.7769 3.69559 25.5836 1 30.0824L3.43927 31.5139C5.9049 27.401 9.29803 23.9216 13.3477 21.3536C14.3594 20.7127 15.4952 20.2932 16.6806 20.1226C17.866 19.952 19.074 20.0342 20.2254 20.3638L19.4845 23.1122C18.7114 22.8835 17.8983 22.8223 17.0995 22.9328C16.3008 23.0432 15.5349 23.3228 14.8528 23.7529C11.1867 26.0808 8.10678 29.2209 5.86862 32.9424L8.3103 34.3897C10.3187 31.0573 13.0746 28.2377 16.3601 26.1534C16.7111 25.93 17.1071 25.7868 17.5199 25.7341C17.9326 25.6814 18.3519 25.7205 18.7478 25.8486L18.387 27.1938L30.6813 25.6642L35 19.8793L21.3275 16.2243ZM22.2138 23.8564L29.1424 22.9884L30.2297 21.5401L23.3328 19.6977L22.2138 23.8564Z" fill="#333333"/>
<path d="M19.4714 3.82257L23.8066 6.2832L21.9029 9.52594L17.5678 7.06531L16.2598 9.29181L14.6236 3.24359L20.7695 1.61035L19.4714 3.82257Z" fill="#333333"/>
<path d="M27.7548 12.9091L23.4196 10.4485L25.3233 7.20577L29.6584 9.66639L30.9663 7.43989L32.6026 13.4881L26.4567 15.1214L27.7548 12.9091Z" fill="#333333"/>
</svg>
