<svg width="36" height="36" viewBox="0 0 36 36" fill="none" xmlns="http://www.w3.org/2000/svg">
<path fill-rule="evenodd" clip-rule="evenodd" d="M20.8442 11.5097L20.5754 12.5111C19.4752 12.2037 18.3226 12.1312 17.1926 12.2984C16.0625 12.4656 14.9803 12.8686 14.0162 13.4814C10.8319 15.5029 8.16413 18.2405 6.22559 21.4759L7.9798 22.5053C9.75297 19.5475 12.1932 17.0453 15.1055 15.1984C15.8331 14.7375 16.6499 14.4358 17.5024 14.3132C18.3548 14.1905 19.2236 14.2496 20.0516 14.4866L19.5188 16.4632C18.9628 16.2987 18.3781 16.2547 17.8037 16.3341C17.2293 16.4136 16.6784 16.6147 16.1879 16.9239C13.5514 18.5981 11.3365 20.8563 9.72688 23.5326L11.4828 24.5734C12.9272 22.1769 14.9091 20.1492 17.2719 18.6503C17.5243 18.4896 17.8091 18.3866 18.1059 18.3487C18.4028 18.3108 18.7043 18.3389 18.989 18.4311L18.7295 19.3984L27.571 18.2984L30.6769 14.1382L20.8442 11.5097ZM21.4816 16.9984L26.4643 16.3741L27.2463 15.3326L22.2863 14.0076L21.4816 16.9984Z" fill="#333333"/>
<path d="M10.7992 34.8805V29.2865H10.7775L9.43055 29.9274L9.159 28.6891L11.0382 27.8201H12.3959V34.8805H10.7992Z" fill="#333333"/>
<path d="M17.2696 35H17.2588C16.3898 35 15.7345 34.6596 15.2927 33.979C14.851 33.2983 14.6265 32.4257 14.6193 31.3612C14.6193 30.2822 14.8474 29.4024 15.3036 28.7217C15.7598 28.041 16.426 27.7006 17.3022 27.7006C18.1857 27.7006 18.8447 28.041 19.2791 28.7217C19.7136 29.4024 19.9309 30.2677 19.9309 31.3177C19.9309 32.4401 19.7028 33.3345 19.2466 34.0007C18.7976 34.6669 18.1386 35 17.2696 35ZM17.2805 33.7509H17.2914C17.9503 33.7509 18.2798 32.9471 18.2798 31.3395C18.2798 29.7463 17.9467 28.9498 17.2805 28.9498C16.9619 28.9498 16.712 29.1525 16.531 29.5581C16.3572 29.9636 16.2703 30.5574 16.2703 31.3395C16.2631 32.136 16.3464 32.737 16.5202 33.1426C16.7012 33.5481 16.9546 33.7509 17.2805 33.7509Z" fill="#333333"/>
<path d="M22.8494 34.8805V29.2865H22.8277L21.4808 29.9274L21.2092 28.6891L23.0884 27.8201H24.4461V34.8805H22.8494Z" fill="#333333"/>
<path d="M28.2554 27.4399H28.2662C28.7442 27.4399 29.1352 27.5956 29.4393 27.907C29.7507 28.2184 29.9064 28.5913 29.9064 29.0258C29.9064 29.482 29.7435 29.8658 29.4176 30.1772C29.0917 30.4813 28.7007 30.6334 28.2445 30.6334C27.7738 30.6334 27.3828 30.4813 27.0714 30.1772C26.76 29.8731 26.6043 29.5001 26.6043 29.0584C26.5971 28.6094 26.7528 28.2292 27.0714 27.9179C27.3972 27.5992 27.7919 27.4399 28.2554 27.4399ZM28.2554 28.2003H28.2445C28.02 28.2003 27.8354 28.2836 27.6905 28.4501C27.5457 28.6167 27.4733 28.8158 27.4733 29.0475C27.4733 29.2793 27.5457 29.4748 27.6905 29.6341C27.8426 29.7934 28.0309 29.8731 28.2554 29.8731C28.4798 29.8731 28.6645 29.7934 28.8093 29.6341C28.9614 29.4748 29.0374 29.2756 29.0374 29.0367C29.0374 28.8122 28.965 28.6167 28.8202 28.4501C28.6826 28.2836 28.4943 28.2003 28.2554 28.2003Z" fill="#333333"/>
<path d="M19.5094 2.59093L22.6271 4.3605L21.258 6.69254L18.1404 4.92297L17.1998 6.52417L16.023 2.17455L20.4429 1L19.5094 2.59093Z" fill="#333333"/>
<path d="M25.4664 9.12558L22.3488 7.35601L23.7178 5.02397L26.8354 6.79355L27.776 5.19235L28.9528 9.54196L24.5329 10.7165L25.4664 9.12558Z" fill="#333333"/>
</svg>
