<svg width="36" height="36" viewBox="0 0 36 36" fill="none" xmlns="http://www.w3.org/2000/svg">
<path d="M12.6417 3.80925L12.9269 4.87516C11.7494 5.17725 10.6486 5.72371 9.69614 6.47904C8.74365 7.23437 7.96075 8.18166 7.39832 9.25936C5.53936 12.8165 4.53739 16.7589 4.47233 20.7719V32.828H2.30798V35H13.1297V32.8223H10.9654V20.8293C11.0214 17.8523 11.7689 14.9291 13.1489 12.2906C13.296 12.0082 13.5037 11.7617 13.7571 11.5689C14.0105 11.376 14.3033 11.2415 14.6147 11.1749L14.8903 12.2045L22.4531 6.48646L23.1018 1L12.6417 3.80925ZM11.2237 11.2725C9.68478 14.2182 8.85271 17.4816 8.79338 20.8045V32.8184H6.63668V20.7872C6.69704 17.118 7.6145 13.5137 9.31581 10.2621C9.74106 9.45026 10.3333 8.73759 11.0536 8.17096C11.774 7.60432 12.6061 7.19655 13.4952 6.97445L14.0559 9.07947C13.456 9.22372 12.8937 9.49429 12.4066 9.87313C11.9195 10.252 11.5189 10.7304 11.2314 11.2764L11.2237 11.2725ZM20.4093 5.30191L16.1495 8.52834L15.2998 5.34401L20.5758 3.92599L20.4093 5.30191ZM33.2308 7.61361L33.692 6.63382L25.846 2.9615L26.6 11.6151L27.6774 11.5213L27.1856 5.81477C28.726 7.68579 29.7979 9.89733 30.3121 12.2657C30.8263 14.6341 30.768 17.091 30.1422 19.4324L31.187 19.7118C31.8507 17.221 31.9152 14.6085 31.3754 12.088C30.8356 9.56746 29.7067 7.21055 28.0812 5.21005L33.2308 7.61361Z" fill="#333333"/>
</svg>
