<svg width="36" height="36" viewBox="0 0 36 36" fill="none" xmlns="http://www.w3.org/2000/svg">
<path d="M21.2215 9.50936L20.7758 10.2832C19.9607 9.85552 19.0692 9.59279 18.1524 9.51007C17.2357 9.42735 16.3116 9.52625 15.4331 9.80111C14.5546 10.076 13.7389 10.5214 13.0328 11.1119C12.3267 11.7024 11.7439 12.4264 11.3179 13.2423C9.81192 16.1173 8.9999 19.3049 8.94691 22.55V32.3004H7.19495V34.0554H15.9579V32.2942H14.2044V22.5965C14.2502 20.188 14.8558 17.8232 15.9733 15.6892C16.1707 15.31 16.5001 15.0163 16.8994 14.8634C17.2986 14.7106 17.74 14.7092 18.1401 14.8597L17.7191 15.5917L25.3027 16.6612L28.8051 13.9001L21.2215 9.50936ZM19.0207 13.329C18.2026 12.943 17.2668 12.8886 16.4094 13.1771C15.552 13.4656 14.8394 14.0746 14.421 14.8767C13.1768 17.2568 12.5044 19.8941 12.457 22.5795V32.2942H10.7004V22.5779C10.7492 19.6104 11.4912 16.6954 12.8672 14.0657C13.5054 12.8386 14.6019 11.9128 15.9187 11.4895C17.2354 11.0661 18.666 11.1793 19.8998 11.8046L19.0207 13.329ZM24.8121 14.8179L20.5328 14.2158L21.8638 11.9083L25.6927 14.123L24.8121 14.8179ZM21.2153 7.67072L27.5608 10.6392L26.9556 3.64678L26.0843 3.72261L26.4851 8.3161C25.4203 6.52623 23.9452 5.01509 22.1816 3.90726C20.418 2.79943 18.4164 2.12663 16.3417 1.94434L16.2659 2.81877C18.2148 2.99134 20.0942 3.62774 21.7471 4.67482C23.4 5.72189 24.7783 7.14924 25.767 8.83767L21.5883 6.88141L21.2153 7.67072Z" fill="#333333"/>
</svg>
