<svg width="36" height="36" viewBox="0 0 36 36" fill="none" xmlns="http://www.w3.org/2000/svg">
<path fill-rule="evenodd" clip-rule="evenodd" d="M20.1111 7.307V9.80414L18.0626 10.2074C17.9507 10.5797 17.8019 10.9385 17.6169 11.2801L18.76 12.9947L16.9947 14.7599L15.2801 13.6169C14.9386 13.8019 14.5797 13.9506 14.2075 14.0626L13.8041 16.1111H11.307L10.9036 14.0626C10.5314 13.9507 10.1725 13.8019 9.83101 13.6169L8.11637 14.76L6.35115 12.9947L7.49425 11.2801C7.3092 10.9386 7.16048 10.5797 7.0485 10.2075L5 9.80411V7.30697L7.04847 6.90363C7.16045 6.53137 7.30917 6.17254 7.49422 5.83101L6.35115 4.11637L8.11637 2.35115L9.83101 3.49425C10.1725 3.3092 10.5314 3.16048 10.9036 3.0485L11.307 1H13.8041L14.2074 3.04847C14.5797 3.16045 14.9385 3.30917 15.2801 3.49422L16.9947 2.35115L18.7599 4.11637L17.6169 5.83101C17.8019 6.17254 17.9506 6.5314 18.0626 6.90363L20.1111 7.307ZM9.4566 8.55556C9.4566 10.2641 10.847 11.6545 12.5556 11.6545C14.2641 11.6545 15.6545 10.2641 15.6545 8.55556C15.6545 6.84697 14.2641 5.4566 12.5556 5.4566C10.847 5.4566 9.4566 6.84697 9.4566 8.55556Z" fill="#333333"/>
<path fill-rule="evenodd" clip-rule="evenodd" d="M20.1111 26.1959V28.693L18.0626 29.0963C17.9507 29.4686 17.8019 29.8274 17.6169 30.169L18.76 31.8836L16.9947 33.6488L15.2801 32.5058C14.9386 32.6908 14.5797 32.8395 14.2075 32.9515L13.8041 35H11.307L10.9036 32.9515C10.5314 32.8396 10.1725 32.6908 9.83101 32.5058L8.11637 33.6489L6.35115 31.8836L7.49425 30.169C7.3092 29.8275 7.16048 29.4686 7.0485 29.0964L5 28.693V26.1959L7.04847 25.7925C7.16045 25.4203 7.30917 25.0614 7.49422 24.7199L6.35115 23.0053L8.11637 21.24L9.83101 22.3831C10.1725 22.1981 10.5314 22.0494 10.9036 21.9374L11.307 19.8889H13.8041L14.2074 21.9374C14.5797 22.0493 14.9385 22.1981 15.2801 22.3831L16.9947 21.24L18.7599 23.0053L17.6169 24.7199C17.8019 25.0614 17.9506 25.4203 18.0626 25.7925L20.1111 26.1959ZM9.4566 27.4444C9.4566 29.153 10.847 30.5434 12.5556 30.5434C14.2641 30.5434 15.6545 29.153 15.6545 27.4444C15.6545 25.7359 14.2641 24.3455 12.5556 24.3455C10.847 24.3455 9.4566 25.7359 9.4566 27.4444Z" fill="#333333"/>
<path fill-rule="evenodd" clip-rule="evenodd" d="M20.4281 4.30327C20.2206 4.63838 20.1113 5.01859 20.1111 5.40567C20.1109 5.79275 20.2199 6.17304 20.4271 6.50832C20.6343 6.84359 20.9324 7.12202 21.2914 7.31561C21.6504 7.50919 22.0576 7.61111 22.4722 7.61111C22.8868 7.61111 23.2941 7.50919 23.6531 7.31561C24.0121 7.12202 24.3102 6.84359 24.5173 6.50832C24.7245 6.17304 24.8335 5.79275 24.8333 5.40567C24.8332 5.01859 24.7238 4.63838 24.5163 4.30327L22.4743 1L20.4281 4.30327Z" fill="#333333"/>
<path fill-rule="evenodd" clip-rule="evenodd" d="M29.6017 29.5434V4.64602C29.6017 4.18 29.4165 3.73307 29.087 3.40354C28.7575 3.07401 28.3106 2.88889 27.8445 2.88889C27.3785 2.88889 26.9316 3.07401 26.6021 3.40354C26.2725 3.73307 26.0874 4.18 26.0874 4.64602V29.5434C25.5699 29.9153 25.1837 30.4417 24.9844 31.047C24.7851 31.6523 24.7829 32.3052 24.9783 32.9118C25.1736 33.5184 25.5563 34.0473 26.0714 34.4226C26.5865 34.7978 27.2073 35 27.8445 35C28.4818 35 29.1026 34.7978 29.6177 34.4226C30.1327 34.0473 30.5155 33.5184 30.7108 32.9118C30.9061 32.3052 30.904 31.6523 30.7047 31.047C30.5054 30.4417 30.1192 29.9153 29.6017 29.5434ZM28.5973 18.944H27.0917V4.64602C27.0917 4.44636 27.1711 4.25488 27.3122 4.11371C27.4534 3.97253 27.6449 3.89322 27.8445 3.89322C28.0442 3.89322 28.2357 3.97253 28.3769 4.11371C28.518 4.25488 28.5973 4.44636 28.5973 4.64602V18.944Z" fill="#333333"/>
</svg>
