<svg width="36" height="36" viewBox="0 0 36 36" fill="none" xmlns="http://www.w3.org/2000/svg">
<path fill-rule="evenodd" clip-rule="evenodd" d="M25.5556 10.3495V7.69765L23.5071 7.2693C23.3951 6.87401 23.2464 6.49293 23.0613 6.13024L24.2044 4.3094L22.4392 2.43483L20.7245 3.64871C20.383 3.45219 20.0242 3.29426 19.6519 3.17535L19.2486 1H16.7515L16.3481 3.17538C15.9759 3.29429 15.617 3.45223 15.2755 3.64874L13.5608 2.43483L11.7956 4.3094L12.9387 6.13024C12.7536 6.49293 12.6049 6.87398 12.4929 7.2693L10.4445 7.69762V10.3494L12.493 10.7778C12.6049 11.1731 12.7537 11.5541 12.9387 11.9168L11.7956 13.7377L24.2044 13.7376L23.0613 11.9168C23.2464 11.5541 23.3951 11.1731 23.5071 10.7777L25.5556 10.3495ZM18 12.3144C16.2914 12.3144 14.9011 10.838 14.9011 9.02354C14.9011 7.20912 16.2914 5.73263 18 5.73263C19.7086 5.73263 21.099 7.20912 21.099 9.02354C21.099 10.838 19.7086 12.3144 18 12.3144Z" fill="#333333"/>
<path fill-rule="evenodd" clip-rule="evenodd" d="M25.5556 25.8661V28.4568L23.5071 28.8752C23.3951 29.2614 23.2464 29.6337 23.0613 29.988L24.2044 31.7669L22.4392 33.5982L20.7245 32.4124C20.383 32.6043 20.0242 32.7586 19.6519 32.8748L19.2486 35H16.7515L16.3481 32.8748C15.9759 32.7586 15.617 32.6043 15.2755 32.4123L13.5608 33.5982L11.7956 31.7669L12.9387 29.988C12.7536 29.6337 12.6049 29.2614 12.4929 28.8752L10.4445 28.4568V25.8661L12.493 25.4476C12.6049 25.0615 12.7537 24.6892 12.9387 24.3348L11.7956 22.556L24.2044 22.556L23.0613 24.3349C23.2464 24.6892 23.3951 25.0615 23.5071 25.4477L25.5556 25.8661ZM18 23.9464C16.2914 23.9464 14.9011 25.3888 14.9011 27.1614C14.9011 28.934 16.2914 30.3765 18 30.3765C19.7086 30.3765 21.099 28.934 21.099 27.1614C21.099 25.3888 19.7086 23.9464 18 23.9464Z" fill="#333333"/>
<path d="M13.1434 17.6145L13.1409 17.6137C12.9241 17.5468 12.7066 17.4794 12.5064 17.3707C12.208 17.2035 12.1498 16.7885 12.4736 16.5966C12.7466 16.4418 13.2345 16.4526 13.4299 16.7358C13.4995 16.8839 13.5525 17.0399 13.588 17.2004L14.1774 17.1712C14.1828 17.1712 14.192 17.1715 14.2035 17.1722C14.2494 17.1746 14.3314 17.1789 14.3504 17.1616C14.3576 16.7799 14.2284 16.4091 13.9879 16.1201C13.4926 15.5845 12.4422 15.552 11.9156 16.055C11.3188 16.62 11.4128 17.7575 12.1006 18.2017C12.3364 18.3548 12.6049 18.4388 12.8712 18.5218L12.8801 18.5246C12.9798 18.5556 13.0791 18.5866 13.1763 18.6213C13.4747 18.7281 13.7447 18.8829 13.6955 19.2667C13.6462 19.6506 13.2643 19.835 12.9182 19.8227C12.7825 19.8205 12.6499 19.7799 12.5348 19.7054C12.4197 19.631 12.3263 19.5252 12.2647 19.3997C12.2021 19.2448 12.1556 19.0835 12.1259 18.9184L11.9275 18.9433L11.3889 19.0098C11.4366 19.5067 11.5829 20.0407 11.9857 20.358C12.3885 20.6753 12.9808 20.7125 13.4612 20.5948C13.7446 20.5217 13.9967 20.3534 14.1781 20.1159C14.3595 19.8785 14.4599 19.585 14.4638 19.282C14.4862 18.6134 14.2162 18.0472 13.6119 17.7778C13.4608 17.7125 13.3023 17.6636 13.1434 17.6145Z" fill="#333333"/>
<path d="M14.8235 16.6028H15.95V20.5733H16.7109V16.6028H17.8298V15.7905H14.8235V16.6028Z" fill="#333333"/>
<path fill-rule="evenodd" clip-rule="evenodd" d="M18.9623 15.9833C19.247 15.7967 19.579 15.7025 19.9156 15.7125C20.169 15.7062 20.4204 15.7608 20.65 15.8723C20.8796 15.9837 21.0812 16.1492 21.239 16.355C21.5772 16.7729 21.7463 17.3814 21.7463 18.1812C21.7463 18.9809 21.5672 19.6053 21.2091 20.0542C21.0532 20.2504 20.8555 20.4063 20.6315 20.5097C20.4075 20.6131 20.1635 20.6615 19.9186 20.6503C19.6734 20.6616 19.429 20.6143 19.2042 20.5121C18.9794 20.4098 18.7802 20.2552 18.6221 20.0604C18.261 19.6116 18.0805 18.9951 18.0805 18.2108C18.0649 17.7296 18.1483 17.2503 18.3252 16.8052C18.4586 16.4744 18.6795 16.1895 18.9623 15.9833ZM20.346 19.714C20.4759 19.6431 20.5873 19.5405 20.6706 19.415C20.869 19.1426 20.9868 18.7093 20.9868 18.1568C20.9868 17.6042 20.8914 17.1952 20.6974 16.9306C20.6119 16.8056 20.4984 16.7044 20.3665 16.6354C20.2347 16.5663 20.0886 16.5316 19.941 16.5344C19.7921 16.5319 19.6448 16.5669 19.512 16.6368C19.3791 16.7067 19.2647 16.8092 19.1786 16.9353C18.9797 17.2098 18.8802 17.6225 18.8802 18.1735C18.8802 18.7245 18.9797 19.1372 19.1786 19.4117C19.2621 19.5371 19.3735 19.6403 19.5033 19.7117C19.6332 19.783 19.7776 19.8209 19.9246 19.8222C20.0714 19.8221 20.216 19.785 20.346 19.714Z" fill="#333333"/>
<path fill-rule="evenodd" clip-rule="evenodd" d="M25.2314 16.9932C25.2196 16.7995 25.1689 16.6104 25.0826 16.4382C24.9963 16.2661 24.8762 16.1146 24.7301 15.9933C24.4909 15.8143 24.1982 15.8052 23.9135 15.7962L23.9121 15.7962L23.8887 15.7952C23.6023 15.787 23.3152 15.7896 23.0279 15.7924L22.9964 15.7927C22.8632 15.794 22.7299 15.7952 22.5966 15.7952C22.5917 15.7952 22.5811 15.795 22.5668 15.7943L22.5645 15.7942C22.4949 15.7909 22.346 15.7838 22.346 15.8091V20.5781H23.1069V18.7763C23.1069 18.7918 24.1692 18.7393 24.2005 18.7347C24.3635 18.7193 24.521 18.6651 24.6609 18.5768C24.8008 18.4886 24.9194 18.3687 25.0076 18.2257C25.2157 17.8535 25.2946 17.4184 25.2314 16.9932ZM24.2512 17.8061C24.0747 17.9635 23.7999 17.9622 23.5744 17.9611C23.5662 17.961 23.5582 17.9609 23.5502 17.9609C23.5401 17.9607 23.53 17.9606 23.5202 17.9606H23.1039V16.6033H23.638C23.9125 16.6033 24.1946 16.6033 24.3601 16.8741C24.4459 17.0194 24.4819 17.1905 24.4621 17.3597C24.4423 17.5289 24.368 17.6863 24.2512 17.8061Z" fill="#333333"/>
</svg>
