<svg width="36" height="36" viewBox="0 0 36 36" fill="none" xmlns="http://www.w3.org/2000/svg">
<path fill-rule="evenodd" clip-rule="evenodd" d="M24.8 8.92373V6.6763L22.9563 6.31327C22.8555 5.97826 22.7217 5.65529 22.5552 5.34791L23.5839 3.80473L21.9952 2.21603L20.452 3.2448C20.1447 3.07825 19.8217 2.9444 19.4867 2.84362L19.1237 1H16.8763L16.5132 2.84365C16.1782 2.94443 15.8553 3.07828 15.5479 3.24482L14.0047 2.21603L12.416 3.80473L13.4448 5.34791C13.2782 5.65529 13.1444 5.97824 13.0436 6.31327L11.2 6.67627V8.9237L13.0436 9.28673C13.1444 9.62174 13.2783 9.94471 13.4448 10.2521L12.416 11.7953L14.0047 13.384L15.5479 12.3552C15.8553 12.5217 16.1782 12.6556 16.5132 12.7564L16.8762 14.6H19.1237L19.4867 12.7563C19.8217 12.6556 20.1447 12.5217 20.4521 12.3552L21.9952 13.3839L23.5839 11.7952L22.5552 10.2521C22.7217 9.94468 22.8556 9.62174 22.9564 9.2867L24.8 8.92373ZM18 10.5891C16.4622 10.5891 15.2109 9.33773 15.2109 7.8C15.2109 6.26227 16.4622 5.01094 18 5.01094C19.5377 5.01094 20.789 6.26227 20.789 7.8C20.789 9.33773 19.5377 10.5891 18 10.5891Z" fill="#333333"/>
<path fill-rule="evenodd" clip-rule="evenodd" d="M24.8 24.2237V21.9763L22.9563 21.6133C22.8555 21.2783 22.7217 20.9553 22.5552 20.6479L23.5839 19.1047L21.9952 17.516L20.452 18.5448C20.1447 18.3783 19.8217 18.2444 19.4867 18.1436L19.1237 16.3H16.8763L16.5132 18.1437C16.1782 18.2444 15.8553 18.3783 15.5479 18.5448L14.0047 17.516L12.416 19.1047L13.4448 20.6479C13.2782 20.9553 13.1444 21.2782 13.0436 21.6133L11.2 21.9763V24.2237L13.0436 24.5867C13.1444 24.9217 13.2783 25.2447 13.4448 25.5521L12.416 27.0953L14.0047 28.684L15.5479 27.6552C15.8553 27.8217 16.1782 27.9556 16.5132 28.0564L16.8762 29.9H19.1237L19.4867 28.0564C19.8217 27.9556 20.1447 27.8217 20.4521 27.6552L21.9952 28.6839L23.5839 27.0952L22.5552 25.5521C22.7217 25.2447 22.8556 24.9217 22.9564 24.5867L24.8 24.2237ZM18 25.8891C16.4622 25.8891 15.2109 24.6377 15.2109 23.1C15.2109 21.5623 16.4622 20.3109 18 20.3109C19.5377 20.3109 20.789 21.5623 20.789 23.1C20.789 24.6377 19.5377 25.8891 18 25.8891Z" fill="#333333"/>
<path fill-rule="evenodd" clip-rule="evenodd" d="M25.0853 3.97295C24.8985 4.27454 24.8001 4.61673 24.8 4.9651C24.7998 5.31347 24.8979 5.65574 25.0844 5.95749C25.2708 6.25923 25.5391 6.50982 25.8622 6.68405C26.1853 6.85827 26.5519 6.95 26.925 6.95C27.2981 6.95 27.6646 6.85827 27.9877 6.68405C28.3108 6.50982 28.5791 6.25923 28.7656 5.95749C28.952 5.65574 29.0501 5.31347 29.05 4.9651C29.0498 4.61673 28.9514 4.27454 28.7647 3.97295L26.9268 1L25.0853 3.97295Z" fill="#333333"/>
<path d="M6.09998 29.9H7.58804V31.7221H10.5629V33.1779H7.58804V35H6.09998V29.9Z" fill="#333333"/>
<path d="M28.4132 31.7221V29.9H29.9V35H28.4132V33.1779H25.4371V31.7221H28.4132Z" fill="#333333"/>
<path d="M12.0496 31.7222H17.2558V33.178H12.0496V31.7222Z" fill="#333333"/>
<path d="M23.9502 31.7222H18.7439V33.178H23.9502V31.7222Z" fill="#333333"/>
</svg>
