<svg width="36" height="36" viewBox="0 0 36 36" fill="none" xmlns="http://www.w3.org/2000/svg">
<path d="M11.6853 6.36205C11.0222 7.32355 10.5752 8.26632 10.2817 9.18037C9.42636 8.74582 8.44113 8.39993 7.29108 8.19639C6.28213 4.51147 7.29732 2.0303 7.29732 2.0303C7.29732 2.0303 9.77475 3.05299 11.6853 6.36205Z" fill="#333333"/>
<path d="M20.5723 31.6258C24.5057 29.5505 25.1925 25.4435 23.8339 22.1894L23.3531 21.0368C20.365 23.2645 19.4434 25.3386 19.0888 27.3715C18.7604 26.4587 18.4295 25.5459 18.0911 24.6393C17.9225 24.1873 17.7589 23.7553 17.5979 23.332C21.1766 21.1954 21.7798 17.2658 20.4674 14.124L19.9866 12.9715C17.237 15.0206 16.238 16.9411 15.8185 18.8179C15.2041 17.3195 14.6896 16.1294 14.2863 15.2316C17.8151 13.0876 18.4045 9.18291 17.0996 6.0574L16.6189 4.90485C12.4908 7.98159 12.3009 10.7674 12.1111 13.5519C9.99709 11.7289 7.88154 9.90468 2.79199 10.6776L3.27274 11.8302C4.60136 15.0118 7.8842 17.3694 11.9924 16.2243C12.4232 17.1833 12.9901 18.4945 13.6769 20.1815C11.9787 18.9977 9.85715 18.1823 6.15849 18.743L6.63925 19.8955C7.96037 23.061 11.217 25.4086 15.2953 24.3059C15.3155 24.3593 15.3358 24.4128 15.3561 24.4664C15.4851 24.8065 15.616 25.1519 15.7498 25.5122C15.9742 26.1116 16.19 26.7157 16.4059 27.3201C16.4855 27.5429 16.5651 27.7657 16.6451 27.9884C15.0093 26.9519 12.9439 26.2901 9.525 26.8083L10.0057 27.9609C11.2794 31.0115 14.3475 33.3066 18.2185 32.4849C18.5034 33.3246 18.784 34.1635 19.0601 35H21.6911C21.3109 33.8295 20.933 32.6877 20.5723 31.6258Z" fill="#333333"/>
<path d="M20.8444 6.81593C20.8444 8.01183 21.7936 8.98485 22.9603 8.98485C24.127 8.98485 25.0761 8.01183 25.076 6.81593C25.076 5.69768 23.3354 3.40608 23.1369 3.14842C23.0942 3.09293 23.0291 3.0606 22.9602 3.0606C22.8914 3.0606 22.8262 3.093 22.7835 3.14842C22.5851 3.40601 20.8444 5.69768 20.8444 6.81593Z" fill="#333333"/>
<path d="M24.9656 11.9674C24.9656 13.1633 25.9148 14.1364 27.0815 14.1364C28.2482 14.1364 29.1973 13.1633 29.1972 11.9674C29.1972 10.8492 27.4567 8.55759 27.2582 8.29993C27.2154 8.24444 27.1503 8.21211 27.0814 8.21211C27.0126 8.21211 26.9474 8.24452 26.9047 8.29993C26.7063 8.55752 24.9656 10.8492 24.9656 11.9674Z" fill="#333333"/>
<path fill-rule="evenodd" clip-rule="evenodd" d="M33.208 8.72727C33.208 12.9949 29.7484 16.4545 25.4808 16.4545C21.2131 16.4545 17.7535 12.9949 17.7535 8.72727C17.7535 4.45961 21.2131 1 25.4808 1C29.7484 1 33.208 4.45961 33.208 8.72727ZM32.1777 8.72727C32.1777 12.4259 29.1794 15.4242 25.4808 15.4242C23.8939 15.4242 22.4359 14.8723 21.2884 13.95L30.7035 4.53488C31.6258 5.68244 32.1777 7.1404 32.1777 8.72727ZM20.5367 13.2446L29.9981 3.7832C28.8071 2.69446 27.2215 2.0303 25.4808 2.0303C21.7821 2.0303 18.7838 5.02863 18.7838 8.72727C18.7838 10.468 19.448 12.0536 20.5367 13.2446Z" fill="#333333"/>
</svg>
