<svg width="36" height="36" viewBox="0 0 36 36" fill="none" xmlns="http://www.w3.org/2000/svg">
<path d="M23.0013 5.93517C23.0013 7.16844 23.9802 8.17187 25.1833 8.17187C26.3865 8.17187 27.3653 7.16844 27.3652 5.93517C27.3652 4.78197 25.5702 2.41876 25.3655 2.15304C25.3215 2.09582 25.2543 2.06249 25.1833 2.06249C25.1123 2.06249 25.0451 2.0959 25.001 2.15304C24.7964 2.41868 23.0013 4.78197 23.0013 5.93517Z" fill="#333333"/>
<path d="M27.2513 11.2477C27.2513 12.4809 28.2302 13.4844 29.4333 13.4844C30.6365 13.4844 31.6152 12.4809 31.6152 11.2477C31.6152 10.0945 29.8202 7.73126 29.6155 7.46554C29.5714 7.40831 29.5042 7.37498 29.4333 7.37498C29.3623 7.37498 29.2951 7.40839 29.251 7.46554C29.0464 7.73118 27.2513 10.0945 27.2513 11.2477Z" fill="#333333"/>
<path d="M13.5554 5.46709C12.8717 6.45863 12.4107 7.43087 12.108 8.37348C11.226 7.92535 10.2099 7.56865 9.02394 7.35875C7.98346 3.55868 9.03038 0.999969 9.03038 0.999969C9.03038 0.999969 11.5852 2.05462 13.5554 5.46709Z" fill="#333333"/>
<path fill-rule="evenodd" clip-rule="evenodd" d="M20.2933 32.4064C18.4804 32.7912 16.8382 32.5131 15.4626 31.8001H13.1722L13.1736 29.9562C12.6146 29.2954 12.1591 28.5435 11.824 27.7409L11.3282 26.5524C14.5581 26.0628 16.6165 26.5945 18.2362 27.5088L18.556 27.4491L18.4241 27.0801C18.2015 26.4569 17.9789 25.8338 17.7475 25.2157C17.6096 24.8444 17.4746 24.4884 17.3417 24.1378L17.2788 23.9718C16.9064 24.0724 16.5407 24.1452 16.1825 24.192L13.7489 25.3393C12.7292 25.7844 11.8433 25.2082 11.4896 24.4109C11.3115 24.0095 11.2595 23.5423 11.3765 23.1215C10.0223 22.2411 8.97725 20.9211 8.35225 19.4235L7.85647 18.2349C11.6707 17.6568 13.8586 18.4976 15.6099 19.7184C14.9016 17.9787 14.317 16.6266 13.8727 15.6376C9.63611 16.8185 6.25068 14.3872 4.88054 11.1061L4.38477 9.91753C9.63336 9.12046 11.8148 11.0017 13.9948 12.8817C14.1906 10.0101 14.3866 7.13727 18.6437 3.96438L19.1395 5.15295C20.4852 8.37613 19.8774 12.4028 16.2383 14.6139C16.6542 15.5397 17.1847 16.7669 17.8183 18.3122C18.251 16.3768 19.2812 14.3962 22.1167 12.2831L22.6125 13.4717C23.3833 15.3169 23.5134 17.4256 22.8008 19.3062C22.9758 19.3994 23.1418 19.5191 23.2948 19.6636C23.6262 19.3236 24.0588 19.1102 24.527 19.069C25.0933 19.0218 25.6463 19.2306 26.0996 19.6575C26.388 19.3861 26.828 19.1315 27.3765 19.0858C27.8209 19.0492 28.4869 19.1453 29.1275 19.8145L31.5013 22.2502V33.9375L30.3508 33.0273C29.5764 32.2727 28.5136 31.8001 27.5846 31.8001H22.8155C23.1586 32.8149 23.5156 33.8951 23.8745 35H21.1612C20.8766 34.1374 20.5871 33.2722 20.2933 32.4064ZM27.464 31C28.5997 31 29.5698 31.0929 30.5003 32L30.5174 22.7798L28.3932 20.6226C28.0588 20.272 27.6961 20.1134 27.3081 20.1455C26.9915 20.1714 26.7284 20.3208 26.5634 20.4671C27.2746 21.2043 28.1377 22.1107 28.3824 22.3676C28.4241 22.4114 28.4478 22.4363 28.4497 22.4383L27.8462 23.042C27.8314 23.0252 26.2691 21.3834 25.4471 20.5403C25.077 20.1622 24.7069 20.1073 24.4616 20.1287C24.1941 20.1516 23.9459 20.2735 23.7556 20.4702C24.7024 21.4565 26.0893 22.917 26.1056 22.9353L25.5007 23.5375C25.4978 23.5345 25.4571 23.4916 25.3868 23.4177C24.9464 22.9538 23.3452 21.2674 22.6363 20.5403C22.3583 20.2552 22.0269 20.1165 21.6776 20.1333C21.3773 20.1485 21.08 20.2872 20.8511 20.5068L24.1421 23.8652L23.5475 24.4781C23.5475 24.4781 19.9028 20.7598 19.4762 20.3223C19.2383 20.0784 18.6125 20.1043 18.1116 20.3787C16.7486 21.1242 13.7267 22.5282 12.49 23.0969L12.4127 23.1335C11.9043 23.3865 11.9905 23.9567 12.1213 24.2525C12.2937 24.6397 12.6981 25.001 13.2733 24.7494L17.8173 22.6075C18.2945 22.3865 18.8861 22.4718 19.4449 22.8408C20.0678 23.2509 20.4691 23.8911 20.4691 24.4705V27.0164C20.4691 27.4295 20.2967 28.1582 19.1417 28.3945L14.8786 29.1888C14.3227 29.3184 13.911 29.797 13.8812 30.1523V31H27.464Z" fill="#333333"/>
</svg>
