<svg width="36" height="36" viewBox="0 0 36 36" fill="none" xmlns="http://www.w3.org/2000/svg">
<path d="M28.6952 5.83716H27.772V25.2238H28.6952V5.83716Z" fill="#333333"/>
<path d="M34.9354 15.3541L31.1615 11.4317L35 7.58094L34.2976 6.88033L29.7532 11.4247L34.2208 16.0442L34.9354 15.3541Z" fill="#333333"/>
<path fill-rule="evenodd" clip-rule="evenodd" d="M26 9L26 25H22V9L26 9Z" fill="#333333"/>
<path fill-rule="evenodd" clip-rule="evenodd" d="M20 9L20 25H16L16 9L20 9Z" fill="#333333"/>
<path fill-rule="evenodd" clip-rule="evenodd" d="M14 9L14 25H10L10 9L14 9Z" fill="#333333"/>
<path d="M8.38492 5.83716H7.46174V25.2238H8.38492V5.83716Z" fill="#333333"/>
<path d="M1.06464 15.3541L1.77924 16.0442L6.24676 11.4247L1.70236 6.88033L1 7.58094L4.83854 11.4317L1.06464 15.3541Z" fill="#333333"/>
<path fill-rule="evenodd" clip-rule="evenodd" d="M28.6948 30.1628L7.46174 30.1628V27.6703L28.6948 27.6703V30.1628Z" fill="#333333"/>
</svg>
