<svg width="36" height="36" viewBox="0 0 36 36" fill="none" xmlns="http://www.w3.org/2000/svg">
<path d="M25.9232 5.83716H25V25.2238H25.9232V5.83716Z" fill="#333333"/>
<path d="M31.9384 15.3222L28.342 11.47L32 7.68808L31.3307 7L27 11.4631L31.2574 16L31.9384 15.3222Z" fill="#333333"/>
<path fill-rule="evenodd" clip-rule="evenodd" d="M23 9L23 25H19L19 9L23 9Z" fill="#333333"/>
<path fill-rule="evenodd" clip-rule="evenodd" d="M17 9V25H13L13 9L17 9Z" fill="#333333"/>
<path d="M10.9232 6H10V25.3867H10.9232V6Z" fill="#333333"/>
<path d="M4.0616 15.3222L4.74259 16L9 11.4631L4.66933 7L4 7.68808L7.65801 11.47L4.0616 15.3222Z" fill="#333333"/>
<path fill-rule="evenodd" clip-rule="evenodd" d="M28.6948 30.1628L7.46175 30.1628L7.46174 27.6703L28.6948 27.6703V30.1628Z" fill="#333333"/>
</svg>
