<svg width="36" height="36" viewBox="0 0 36 36" fill="none" xmlns="http://www.w3.org/2000/svg">
<path d="M21 17.53V4.53003L20 4.53003L20 17.53H21Z" fill="#333333"/>
<path d="M25.9656 13.3669L22.04 9.28504L26.0328 5.2813L25.3041 4.5507L20.5752 9.27959L25.2241 14.0848L25.9656 13.3669Z" fill="#333333"/>
<path d="M10.6976 4.5507L9.96699 5.2813L13.9598 9.28504L10.0342 13.3669L10.7757 14.0848L15.4247 9.27959L10.6976 4.5507Z" fill="#333333"/>
<path d="M27.3051 16.0148L26.8035 16.889L25.9275 17.0144L25.3023 16.2638L25.0515 17.2633L24.2391 17.5832L23.4249 17.0198L23.4867 18.083L22.7998 18.5828L21.7984 18.272L22.111 19.2098L21.6094 19.9604L20.5462 19.8968L21.1714 20.7128L20.797 21.5252L19.7956 21.7069L20.6098 22.3957L20.4844 23.2717L19.552 23.7097L20.4916 24.2095L20.6171 25.0237L19.8029 25.7125L20.8042 25.9614L21.1786 26.7139L20.5534 27.5898L21.6166 27.5262L22.1182 28.215L21.7984 29.2146L22.7998 28.8384L23.4867 29.4018L23.4249 30.4032L24.2391 29.8416L25.0515 30.216L25.3023 31.2137L25.9275 30.3996L26.8035 30.525L27.3051 31.4646L27.7431 30.525L28.6191 30.3996L29.3061 31.2137L29.4878 30.2124L30.3002 29.838L31.1144 30.3996L31.0508 29.3982L31.7396 28.8348L32.7482 29.2146L32.4356 28.2132L32.9354 27.5244L34.0004 27.588L33.3643 26.7139L33.7496 25.9614L34.751 25.7125L34.0004 25.0237L34.0622 24.2095L35 23.7097L34.0622 23.2717L34.0004 22.3957L34.751 21.7069L33.7496 21.5252L33.3643 20.7073L34.0004 19.8913L32.9354 19.9549L32.4356 19.2043L32.7482 18.2665L31.7468 18.5773L31.058 18.0775L31.1217 17.0144L30.3075 17.5832L29.4951 17.2688L29.3133 16.2692L28.6264 17.0198L27.7504 16.8944L27.3051 16.0148ZM32.8191 23.7097C32.8153 25.1857 32.2271 26.6001 31.1832 27.6436C30.1394 28.6871 28.7248 29.2749 27.2488 29.2782C25.7891 29.2518 24.3981 28.6535 23.3751 27.6119C22.3522 26.5703 21.779 25.1687 21.779 23.7088C21.779 22.2488 22.3522 20.8473 23.3751 19.8057C24.3981 18.7641 25.7891 18.1657 27.2488 18.1393C28.7251 18.1427 30.14 18.7306 31.1839 19.7746C32.2278 20.8185 32.8158 22.2334 32.8191 23.7097Z" fill="#333333"/>
<path d="M8.75851 31.47L9.19287 30.5304L10.0689 30.405L10.7558 31.2192L10.9376 30.2178L11.7518 29.8434L12.6278 30.405L12.5024 29.4036L13.253 28.8402L14.1907 29.2164L13.8781 28.215L14.3779 27.5262L15.4429 27.5898L14.8795 26.7139L15.1921 25.9614L16.1935 25.7125L15.4429 25.0237L15.5683 24.2095L16.4625 23.7097L15.5865 23.2717L15.4611 22.3957L16.2117 21.7069L15.2103 21.5252L14.8977 20.7128L15.4611 19.8968L14.3961 19.9604L13.8963 19.2098L14.2089 18.272L13.2711 18.5828L12.5205 18.083L12.6459 17.0144L11.7699 17.5778L10.9558 17.2633L10.774 16.2638L10.087 17.0144L9.19287 16.889L8.75487 16.0148L8.25327 16.889L7.44089 17.0144L6.75209 16.2638L6.57035 17.2633L5.75615 17.5832L4.87834 17.0198L4.94195 18.083L4.25316 18.5828L3.25177 18.272L3.62797 19.2098L3.06457 19.9604L2.06318 19.8968L2.62658 20.7128L2.25038 21.5252L1.24898 21.7069L2.06318 22.3957L1.93778 23.2717L1 23.7097L1.93778 24.2095L2.06318 25.0237L1.24898 25.7125L2.25038 25.9614L2.62658 26.7139L2.06318 27.5898L3.06457 27.5262L3.62797 28.215L3.25177 29.2164L4.25316 28.8402L4.94195 29.4036L4.87834 30.405L5.75615 29.8434L6.56853 30.2178L6.75027 31.2192L7.43907 30.405L8.25145 30.5304L8.75851 31.47ZM3.19543 23.7097C3.20156 22.6144 3.53236 21.5455 4.146 20.6382C4.75965 19.731 5.62857 19.026 6.64286 18.6126C7.65716 18.1992 8.77127 18.0959 9.8443 18.3157C10.9173 18.5355 11.9011 19.0686 12.6711 19.8475C13.4411 20.6265 13.9629 21.6163 14.1704 22.6917C14.3778 23.7672 14.2617 24.8801 13.8367 25.8896C13.4116 26.899 12.6968 27.7598 11.7825 28.363C10.8682 28.9662 9.79564 29.2847 8.70035 29.2782C7.97294 29.2751 7.2533 29.1285 6.58266 28.8468C5.91201 28.5651 5.30356 28.1538 4.79217 27.6365C4.28077 27.1192 3.87649 26.506 3.60249 25.8322C3.32849 25.1584 3.19016 24.4371 3.19543 23.7097Z" fill="#333333"/>
<path d="M16 17.53L16 4.53003L15 4.53003V17.53H16Z" fill="#333333"/>
</svg>
