<svg width="36" height="36" viewBox="0 0 36 36" fill="none" xmlns="http://www.w3.org/2000/svg">
<path d="M27.3051 6L26.8035 6.87417L25.9275 6.99958L25.3023 6.24899L25.0515 7.24856L24.2391 7.56842L23.4249 7.00503L23.4867 8.06821L22.7998 8.568L21.7984 8.25722L22.111 9.195L21.6094 9.94559L20.5462 9.88198L21.1714 10.698L20.797 11.5104L19.7956 11.6921L20.6098 12.3809L20.4844 13.2569L19.552 13.6949L20.4916 14.1947L20.6171 15.0089L19.8029 15.6977L20.8042 15.9467L21.1786 16.6991L20.5534 17.5751L21.6166 17.5115L22.1182 18.2002L21.7984 19.1998L22.7998 18.8236L23.4867 19.387L23.4249 20.3884L24.2391 19.8268L25.0515 20.2012L25.3023 21.199L25.9275 20.3848L26.8035 20.5102L27.3051 21.4498L27.7431 20.5102L28.6191 20.3848L29.3061 21.199L29.4878 20.1976L30.3002 19.8232L31.1144 20.3848L31.0508 19.3834L31.7396 18.82L32.7482 19.1998L32.4356 18.1984L32.9354 17.5096L34.0004 17.5732L33.3643 16.6991L33.7496 15.9467L34.751 15.6977L34.0004 15.0089L34.0622 14.1947L35 13.6949L34.0622 13.2569L34.0004 12.3809L34.751 11.6921L33.7496 11.5104L33.3643 10.6925L34.0004 9.87653L32.9354 9.94014L32.4356 9.18955L32.7482 8.25177L31.7468 8.56254L31.058 8.06276L31.1217 6.99958L30.3075 7.56842L29.4951 7.25401L29.3133 6.25444L28.6264 7.00503L27.7504 6.87963L27.3051 6ZM32.8191 13.6949C32.8153 15.1709 32.2271 16.5853 31.1832 17.6288C30.1394 18.6724 28.7248 19.2601 27.2488 19.2634C25.7891 19.2371 24.3981 18.6387 23.3751 17.5971C22.3522 16.5555 21.779 15.1539 21.779 13.694C21.779 12.2341 22.3522 10.8325 23.3751 9.79089C24.3981 8.74929 25.7891 8.15092 27.2488 8.12455C28.7251 8.12791 30.14 8.71586 31.1839 9.75978C32.2278 10.8037 32.8158 12.2186 32.8191 13.6949Z" fill="#333333"/>
<path d="M8.75851 21.4552L9.19287 20.5156L10.0689 20.3902L10.7558 21.2044L10.9376 20.203L11.7518 19.8286L12.6278 20.3902L12.5024 19.3888L13.253 18.8254L14.1907 19.2016L13.8781 18.2002L14.3779 17.5115L15.4429 17.5751L14.8795 16.6991L15.1921 15.9467L16.1935 15.6977L15.4429 15.0089L15.5683 14.1947L16.4625 13.6949L15.5865 13.2569L15.4611 12.3809L16.2117 11.6921L15.2103 11.5104L14.8977 10.698L15.4611 9.88198L14.3961 9.94559L13.8963 9.195L14.2089 8.25722L13.2711 8.568L12.5205 8.06821L12.6459 6.99957L11.7699 7.56297L10.9558 7.24856L10.774 6.24899L10.087 6.99957L9.19287 6.87417L8.75487 6L8.25327 6.87417L7.44089 6.99957L6.75209 6.24898L6.57035 7.24856L5.75615 7.56842L4.87834 7.00503L4.94195 8.06821L4.25316 8.568L3.25177 8.25722L3.62797 9.195L3.06457 9.94559L2.06318 9.88198L2.62658 10.698L2.25038 11.5104L1.24898 11.6921L2.06318 12.3809L1.93778 13.2569L1 13.6949L1.93778 14.1947L2.06318 15.0089L1.24898 15.6977L2.25038 15.9467L2.62658 16.6991L2.06318 17.5751L3.06457 17.5114L3.62797 18.2002L3.25177 19.2016L4.25316 18.8254L4.94195 19.3888L4.87834 20.3902L5.75615 19.8286L6.56853 20.203L6.75027 21.2044L7.43907 20.3902L8.25145 20.5156L8.75851 21.4552ZM3.19543 13.6949C3.20156 12.5996 3.53236 11.5307 4.146 10.6235C4.75965 9.71618 5.62857 9.01126 6.64286 8.59785C7.65716 8.18443 8.77127 8.0811 9.84429 8.30091C10.9173 8.52072 11.9011 9.05381 12.6711 9.83275C13.4411 10.6117 13.9629 11.6015 14.1704 12.677C14.3778 13.7524 14.2617 14.8653 13.8367 15.8748C13.4116 16.8843 12.6968 17.745 11.7825 18.3482C10.8682 18.9514 9.79564 19.2699 8.70035 19.2634C7.97294 19.2603 7.2533 19.1137 6.58266 18.832C5.91201 18.5503 5.30356 18.139 4.79217 17.6217C4.28077 17.1044 3.87649 16.4912 3.60249 15.8174C3.32849 15.1436 3.19016 14.4223 3.19543 13.6949Z" fill="#333333"/>
<path d="M12.9602 30.4537C12.1114 30.4537 11.3445 30.2708 10.6593 29.9048C9.98183 29.5388 9.44846 29.0366 9.05913 28.3981C8.6776 27.7518 8.48683 27.0277 8.48683 26.2257C8.48683 25.4237 8.6776 24.7034 9.05913 24.0649C9.44846 23.4187 9.98183 22.9125 10.6593 22.5466C11.3445 22.1806 12.1114 21.9976 12.9602 21.9976C13.8089 21.9976 14.5719 22.1806 15.2494 22.5466C15.9268 22.9125 16.4602 23.4187 16.8495 24.0649C17.2388 24.7034 17.4335 25.4237 17.4335 26.2257C17.4335 27.0277 17.2388 27.7518 16.8495 28.3981C16.4602 29.0366 15.9268 29.5388 15.2494 29.9048C14.5719 30.2708 13.8089 30.4537 12.9602 30.4537ZM12.9602 28.8419C13.4429 28.8419 13.879 28.7329 14.2683 28.5149C14.6576 28.2891 14.9613 27.9776 15.1793 27.5805C15.4051 27.1834 15.518 26.7318 15.518 26.2257C15.518 25.7196 15.4051 25.268 15.1793 24.8708C14.9613 24.4737 14.6576 24.1662 14.2683 23.9481C13.879 23.7223 13.4429 23.6094 12.9602 23.6094C12.4774 23.6094 12.0413 23.7223 11.652 23.9481C11.2627 24.1662 10.9551 24.4737 10.7293 24.8708C10.5113 25.268 10.4023 25.7196 10.4023 26.2257C10.4023 26.7318 10.5113 27.1834 10.7293 27.5805C10.9551 27.9776 11.2627 28.2891 11.652 28.5149C12.0413 28.7329 12.4774 28.8419 12.9602 28.8419Z" fill="#333333"/>
<path d="M26.3538 22.1378V30.3136H24.8004L20.7242 25.3497V30.3136H18.8555V22.1378H20.4206L24.4851 27.1017V22.1378H26.3538Z" fill="#333333"/>
</svg>
