<svg width="36" height="36" viewBox="0 0 36 36" fill="none" xmlns="http://www.w3.org/2000/svg">
<path fill-rule="evenodd" clip-rule="evenodd" d="M1 8H35V28H1V8ZM6 11H4V25H6V11ZM32 11H30V25H32V11ZM16.5164 19.4734C16.3417 19.9217 16.1251 20.5325 16.1111 21.3056H18C18 20.318 18.4274 19.5611 18.9375 19.0349L20.0799 17.9823C21.2118 16.8778 21.7778 15.7571 21.7778 14.6201C21.7778 13.4701 21.4075 12.567 20.6668 11.9108C19.9331 11.2481 18.906 10.9167 17.5854 10.9167C16.3137 10.9167 15.2796 11.2416 14.4831 11.8913C13.6935 12.5345 13.2918 13.3824 13.2778 14.4349H15.2167C15.2167 13.8437 15.4333 13.3726 15.8666 13.0218C16.2998 12.6709 16.8727 12.4955 17.5854 12.4955C18.3191 12.4955 18.8781 12.6904 19.2624 13.0803C19.6467 13.4636 19.8388 13.9964 19.8388 14.6786C19.8388 15.3867 19.5453 16.0494 18.9584 16.6667L17.5854 17.9823C17.0474 18.5281 16.6911 19.0251 16.5164 19.4734ZM18.0004 23.1945H16.1115V25.0834H18.0004V23.1945Z" fill="#333333"/>
</svg>
