<svg width="36" height="36" viewBox="0 0 36 36" fill="none" xmlns="http://www.w3.org/2000/svg">
<path d="M27.3051 5.77319L26.8035 6.64737L25.9275 6.77277L25.3023 6.02218L25.0515 7.02175L24.2391 7.34162L23.4249 6.77822L23.4867 7.8414L22.7998 8.34119L21.7984 8.03041L22.111 8.96819L21.6094 9.71878L20.5462 9.65517L21.1714 10.4712L20.797 11.2836L19.7956 11.4653L20.6098 12.1541L20.4844 13.0301L19.552 13.4681L20.4916 13.9679L20.6171 14.7821L19.8029 15.4709L20.8042 15.7199L21.1786 16.4723L20.5534 17.3483L21.6166 17.2846L22.1182 17.9734L21.7984 18.973L22.7998 18.5968L23.4867 19.1602L23.4249 20.1616L24.2391 19.6L25.0515 19.9744L25.3023 20.9722L25.9275 20.158L26.8035 20.2834L27.3051 21.223L27.7431 20.2834L28.6191 20.158L29.3061 20.9722L29.4878 19.9708L30.3002 19.5964L31.1144 20.158L31.0508 19.1566L31.7396 18.5932L32.7482 18.973L32.4356 17.9716L32.9354 17.2828L34.0004 17.3464L33.3643 16.4723L33.7496 15.7199L34.751 15.4709L34.0004 14.7821L34.0622 13.9679L35 13.4681L34.0622 13.0301L34.0004 12.1541L34.751 11.4653L33.7496 11.2836L33.3643 10.4657L34.0004 9.64972L32.9354 9.71333L32.4356 8.96274L32.7482 8.02496L31.7468 8.33574L31.058 7.83595L31.1217 6.77277L30.3075 7.34162L29.4951 7.0272L29.3133 6.02763L28.6264 6.77822L27.7504 6.65282L27.3051 5.77319ZM32.8191 13.4681C32.8153 14.9441 32.2271 16.3585 31.1832 17.402C30.1394 18.4456 28.7248 19.0333 27.2488 19.0366C25.7891 19.0103 24.3981 18.4119 23.3751 17.3703C22.3522 16.3287 21.779 14.9271 21.779 13.4672C21.779 12.0073 22.3522 10.6057 23.3751 9.56409C24.3981 8.52248 25.7891 7.92411 27.2488 7.89774C28.7251 7.9011 30.14 8.48906 31.1839 9.53297C32.2278 10.5769 32.8158 11.9918 32.8191 13.4681Z" fill="#333333"/>
<path d="M8.75851 21.2284L9.19287 20.2888L10.0689 20.1634L10.7558 20.9776L10.9376 19.9762L11.7518 19.6018L12.6278 20.1634L12.5024 19.162L13.253 18.5986L14.1907 18.9748L13.8781 17.9734L14.3779 17.2846L15.4429 17.3483L14.8795 16.4723L15.1921 15.7199L16.1935 15.4709L15.4429 14.7821L15.5683 13.9679L16.4625 13.4681L15.5865 13.0301L15.4611 12.1541L16.2117 11.4653L15.2103 11.2836L14.8977 10.4712L15.4611 9.65517L14.3961 9.71878L13.8963 8.96819L14.2089 8.03041L13.2711 8.34119L12.5205 7.8414L12.6459 6.77277L11.7699 7.33616L10.9558 7.02175L10.774 6.02218L10.087 6.77277L9.19287 6.64737L8.75487 5.77319L8.25327 6.64737L7.44089 6.77277L6.75209 6.02218L6.57035 7.02175L5.75615 7.34161L4.87834 6.77822L4.94195 7.8414L4.25316 8.34119L3.25177 8.03041L3.62797 8.96819L3.06457 9.71878L2.06318 9.65517L2.62658 10.4712L2.25038 11.2836L1.24898 11.4653L2.06318 12.1541L1.93778 13.0301L1 13.4681L1.93778 13.9679L2.06318 14.7821L1.24898 15.4709L2.25038 15.7199L2.62658 16.4723L2.06318 17.3483L3.06457 17.2846L3.62797 17.9734L3.25177 18.9748L4.25316 18.5986L4.94195 19.162L4.87834 20.1634L5.75615 19.6018L6.56853 19.9762L6.75027 20.9776L7.43907 20.1634L8.25145 20.2888L8.75851 21.2284ZM3.19543 13.4681C3.20156 12.3728 3.53236 11.3039 4.146 10.3966C4.75965 9.48937 5.62857 8.78445 6.64286 8.37104C7.65716 7.95763 8.77127 7.85429 9.84429 8.07411C10.9173 8.29392 11.9011 8.827 12.6711 9.60594C13.4411 10.3849 13.9629 11.3747 14.1704 12.4502C14.3778 13.5256 14.2617 14.6385 13.8367 15.648C13.4116 16.6575 12.6968 17.5182 11.7825 18.1214C10.8682 18.7246 9.79564 19.0431 8.70035 19.0366C7.97294 19.0335 7.2533 18.8869 6.58266 18.6052C5.91201 18.3235 5.30356 17.9122 4.79217 17.3949C4.28077 16.8776 3.87649 16.2644 3.60249 15.5906C3.32849 14.9168 3.19016 14.1955 3.19543 13.4681Z" fill="#333333"/>
<path d="M9.95551 30.2268C9.13808 30.2268 8.39939 30.0506 7.73945 29.6981C7.08701 29.3457 6.57331 28.862 6.19834 28.247C5.83087 27.6246 5.64714 26.9271 5.64714 26.1547C5.64714 25.3823 5.83087 24.6886 6.19834 24.0736C6.57331 23.4512 7.08701 22.9637 7.73945 22.6113C8.39939 22.2588 9.13808 22.0826 9.95551 22.0826C10.7729 22.0826 11.5079 22.2588 12.1603 22.6113C12.8128 22.9637 13.3265 23.4512 13.7014 24.0736C14.0764 24.6886 14.2639 25.3823 14.2639 26.1547C14.2639 26.9271 14.0764 27.6246 13.7014 28.247C13.3265 28.862 12.8128 29.3457 12.1603 29.6981C11.5079 30.0506 10.7729 30.2268 9.95551 30.2268ZM9.95551 28.6745C10.4205 28.6745 10.8404 28.5695 11.2154 28.3595C11.5904 28.142 11.8828 27.8421 12.0928 27.4596C12.3103 27.0771 12.419 26.6422 12.419 26.1547C12.419 25.6672 12.3103 25.2323 12.0928 24.8498C11.8828 24.4674 11.5904 24.1711 11.2154 23.9611C10.8404 23.7437 10.4205 23.6349 9.95551 23.6349C9.49055 23.6349 9.07059 23.7437 8.69562 23.9611C8.32065 24.1711 8.02443 24.4674 7.80695 24.8498C7.59697 25.2323 7.49197 25.6672 7.49197 26.1547C7.49197 26.6422 7.59697 27.0771 7.80695 27.4596C8.02443 27.8421 8.32065 28.142 8.69562 28.3595C9.07059 28.5695 9.49055 28.6745 9.95551 28.6745Z" fill="#333333"/>
<path d="M17.4558 23.6799V25.761H21.1005V27.2234H17.4558V30.0919H15.6334V22.2176H21.5842V23.6799H17.4558Z" fill="#333333"/>
<path d="M24.6402 23.6799V25.761H28.2849V27.2234H24.6402V30.0919H22.8179V22.2176H28.7686V23.6799H24.6402Z" fill="#333333"/>
</svg>
