<svg width="36" height="36" viewBox="0 0 36 36" fill="none" xmlns="http://www.w3.org/2000/svg">
<path d="M20.8382 13.2988V1L19.8921 1L19.8921 13.2988H20.8382Z" fill="#333333"/>
<path d="M25.5359 9.36027L21.8221 5.49854L25.5996 1.71075L24.9101 1.01956L20.4363 5.49338L24.8344 10.0394L25.5359 9.36027Z" fill="#333333"/>
<path d="M11.0915 1.01955L10.4003 1.71075L14.1777 5.49854L10.4639 9.36027L11.1654 10.0394L15.5636 5.49338L11.0915 1.01955Z" fill="#333333"/>
<path d="M26.8032 11.8653L26.3287 12.6923L25.4999 12.811L24.9085 12.1008L24.6712 13.0465L23.9026 13.3491L23.1323 12.8161L23.1908 13.8219L22.5409 14.2948L21.5935 14.0008L21.8892 14.888L21.4147 15.5981L20.4088 15.5379L21.0003 16.3099L20.6461 17.0785L19.6987 17.2504L20.469 17.902L20.3504 18.7308L19.4683 19.1451L20.3573 19.618L20.4759 20.3883L19.7056 21.0399L20.653 21.2755L21.0072 21.9873L20.4157 22.816L21.4215 22.7558L21.8961 23.4075L21.5935 24.3531L22.5409 23.9972L23.1908 24.5302L23.1323 25.4776L23.9026 24.9463L24.6712 25.3005L24.9084 26.2445L25.4999 25.4742L26.3287 25.5928L26.8032 26.4817L27.2176 25.5928L28.0463 25.4742L28.6962 26.2445L28.8682 25.2971L29.6367 24.9429L30.407 25.4742L30.3468 24.5268L30.9985 23.9938L31.9527 24.3532L31.657 23.4058L32.1298 22.7541L33.1374 22.8143L32.5356 21.9873L32.9001 21.2755L33.8475 21.0399L33.1374 20.3883L33.1959 19.618L34.0831 19.1452L33.1959 18.7308L33.1374 17.902L33.8475 17.2504L32.9001 17.0785L32.5356 16.3047L33.1374 15.5327L32.1298 15.5929L31.657 14.8828L31.9527 13.9956L31.0054 14.2896L30.3537 13.8168L30.4139 12.811L29.6436 13.3491L28.8751 13.0517L28.7031 12.106L28.0532 12.8161L27.2245 12.6975L26.8032 11.8653ZM32.0198 19.1452C32.0162 20.5415 31.4597 21.8797 30.4722 22.8669C29.4846 23.8541 28.1463 24.4102 26.7499 24.4133C25.3689 24.3884 24.053 23.8223 23.0852 22.8369C22.1174 21.8514 21.5752 20.5255 21.5752 19.1443C21.5752 17.7631 22.1174 16.4371 23.0852 15.4517C24.053 14.4663 25.369 13.9002 26.7499 13.8752C28.1466 13.8784 29.4852 14.4347 30.4728 15.4223C31.4604 16.4099 32.0166 17.7485 32.0198 19.1452Z" fill="#333333"/>
<path d="M9.25696 26.4869L9.6679 25.598L10.4966 25.4793L11.1466 26.2496L11.3185 25.3022L12.0888 24.9481L12.9175 25.4793L12.7989 24.532L13.509 23.999L14.3962 24.3549L14.1005 23.4075L14.5733 22.7558L15.5808 22.816L15.0478 21.9873L15.3436 21.2755L16.2909 21.0399L15.5808 20.3883L15.6995 19.618L16.5454 19.1451L15.7167 18.7308L15.598 17.902L16.3081 17.2504L15.3608 17.0785L15.065 16.3099L15.598 15.5379L14.5905 15.5981L14.1177 14.888L14.4134 14.0008L13.5262 14.2948L12.8161 13.8219L12.9347 12.811L12.106 13.344L11.3357 13.0465L11.1638 12.1008L10.5138 12.811L9.6679 12.6923L9.25353 11.8653L8.77898 12.6923L8.01041 12.811L7.35877 12.1008L7.18683 13.0465L6.41655 13.3491L5.58609 12.8161L5.64627 13.8219L4.99462 14.2948L4.04724 14.0008L4.40316 14.888L3.87015 15.5981L2.92277 15.5379L3.45578 16.3099L3.09987 17.0785L2.15249 17.2504L2.92277 17.902L2.80413 18.7308L1.91693 19.1451L2.80413 19.618L2.92277 20.3883L2.15249 21.0399L3.09987 21.2755L3.45578 21.9873L2.92277 22.816L3.87015 22.7558L4.40316 23.4075L4.04724 24.3549L4.99462 23.999L5.64627 24.532L5.58609 25.4793L6.41655 24.9481L7.18511 25.3022L7.35705 26.2496L8.0087 25.4793L8.77726 25.598L9.25696 26.4869ZM3.99394 19.1451C3.99974 18.1089 4.3127 17.0977 4.89325 16.2394C5.47379 15.381 6.29584 14.7141 7.25543 14.323C8.21502 13.9319 9.26904 13.8341 10.2842 14.0421C11.2993 14.2501 12.23 14.7544 12.9585 15.4913C13.687 16.2282 14.1806 17.1646 14.3769 18.1821C14.5732 19.1996 14.4633 20.2524 14.0612 21.2075C13.6591 22.1625 12.9828 22.9768 12.1179 23.5475C11.2529 24.1181 10.2382 24.4194 9.20194 24.4133C8.51377 24.4104 7.83294 24.2717 7.19847 24.0052C6.564 23.7387 5.98837 23.3495 5.50456 22.8601C5.02075 22.3707 4.63827 21.7907 4.37905 21.1532C4.11983 20.5157 3.98896 19.8333 3.99394 19.1451Z" fill="#333333"/>
<path d="M16.1079 13.2988L16.1079 1L15.1618 1V13.2988H16.1079Z" fill="#333333"/>
<path d="M10.0993 35C9.32156 35 8.6187 34.8269 7.99077 34.4807C7.36997 34.1344 6.88119 33.6593 6.52441 33.0552C6.17476 32.4438 5.99994 31.7587 5.99994 31C5.99994 30.2413 6.17476 29.5599 6.52441 28.9558C6.88119 28.3444 7.36997 27.8656 7.99077 27.5193C8.6187 27.1731 9.32156 27 10.0993 27C10.8771 27 11.5764 27.1731 12.1972 27.5193C12.818 27.8656 13.3068 28.3444 13.6636 28.9558C14.0204 29.5599 14.1987 30.2413 14.1987 31C14.1987 31.7587 14.0204 32.4438 13.6636 33.0552C13.3068 33.6593 12.818 34.1344 12.1972 34.4807C11.5764 34.8269 10.8771 35 10.0993 35ZM10.0993 33.4751C10.5417 33.4751 10.9413 33.372 11.2981 33.1657C11.6549 32.9521 11.9332 32.6575 12.133 32.2818C12.3399 31.9061 12.4434 31.4788 12.4434 31C12.4434 30.5212 12.3399 30.0939 12.133 29.7182C11.9332 29.3425 11.6549 29.0516 11.2981 28.8453C10.9413 28.6317 10.5417 28.5249 10.0993 28.5249C9.65693 28.5249 9.25734 28.6317 8.90056 28.8453C8.54378 29.0516 8.26192 29.3425 8.05499 29.7182C7.8552 30.0939 7.7553 30.5212 7.7553 31C7.7553 31.4788 7.8552 31.9061 8.05499 32.2818C8.26192 32.6575 8.54378 32.9521 8.90056 33.1657C9.25734 33.372 9.65693 33.4751 10.0993 33.4751Z" fill="#333333"/>
<path d="M17.2358 28.5691V30.6133H20.7037V32.0497H17.2358V34.8674H15.5019V27.1326H21.164V28.5691H17.2358Z" fill="#333333"/>
<path d="M24.0718 28.5691V30.6133H27.5397V32.0497H24.0718V34.8674H22.3378V27.1326H27.9999V28.5691H24.0718Z" fill="#333333"/>
</svg>
