<svg width="36" height="36" viewBox="0 0 36 36" fill="none" xmlns="http://www.w3.org/2000/svg">
<path fill-rule="evenodd" clip-rule="evenodd" d="M19.0218 2.1919V1H30.7036L28.5074 6.53882L19.0218 10.3826V9.22986C18.6045 9.2466 18.1988 9.37106 17.8439 9.59113C17.4891 9.8112 17.1972 10.1194 16.9968 10.4857C15.5085 13.3345 14.7017 16.4898 14.6398 19.7033V32.6554H16.9782V35H5.29639V32.6554H7.63275V19.6435C7.70328 15.3105 8.78508 11.054 10.7919 7.21312C11.5773 5.70682 12.7587 4.44327 14.2088 3.55849C15.659 2.67372 17.323 2.20123 19.0218 2.1919ZM16.6276 7.57056C17.3485 7.12821 18.176 6.88992 19.0218 6.88113V4.53651C17.7485 4.54391 16.5013 4.89843 15.4145 5.56192C14.3277 6.2254 13.4424 7.17273 12.854 8.30192C11.0191 11.8184 10.0306 15.7147 9.96706 19.6806V32.6554H12.3075V19.6827C12.3687 16.0955 13.2662 12.5721 14.9285 9.39277C15.3194 8.64273 15.9067 8.01292 16.6276 7.57056ZM21.3581 6.90175L26.699 4.73654L27.2537 3.34461H21.3581V6.90175Z" fill="#333333"/>
<path d="M24.7115 30.208L24.6854 33.7712L27.3732 33.7517L27.3993 30.1886L29.2451 30.1746L26.0858 27L22.8781 30.2209L24.7115 30.208Z" fill="#333333"/>
<path d="M22.9902 24V15.3545C23.68 15.2318 24.4036 15.1704 25.1611 15.1704C26.3206 15.1704 27.1649 15.4095 27.6938 15.8877C28.1551 16.3024 28.3857 16.861 28.3857 17.5635C28.3857 18.1094 28.2334 18.5749 27.9287 18.96C27.624 19.3451 27.2305 19.6201 26.748 19.7852V19.8296C27.3743 20.0539 27.7975 20.6421 28.0176 21.5942C28.335 22.9484 28.5614 23.7503 28.6968 24H27.5225C27.3913 23.7673 27.2008 23.069 26.9512 21.9053C26.82 21.3044 26.6211 20.877 26.3545 20.6231C26.0921 20.3649 25.7028 20.2253 25.1865 20.2041H24.1201V24H22.9902ZM24.1201 16.148V19.3472H25.2754C25.8763 19.3472 26.3545 19.1969 26.71 18.8965C27.0697 18.5918 27.2495 18.1877 27.2495 17.6841C27.2495 17.1382 27.0697 16.7319 26.71 16.4653C26.3503 16.1945 25.8594 16.0591 25.2373 16.0591C24.721 16.0591 24.3486 16.0887 24.1201 16.148Z" fill="#333333"/>
</svg>
