<svg width="36" height="36" viewBox="0 0 36 36" fill="none" xmlns="http://www.w3.org/2000/svg">
<path fill-rule="evenodd" clip-rule="evenodd" d="M16.9782 1V2.1919C18.677 2.20123 20.341 2.67372 21.7911 3.55849C23.2413 4.44327 24.4227 5.70682 25.2081 7.21312C27.2149 11.054 28.2967 15.3105 28.3672 19.6435V32.6554H30.7036V35H19.0218V32.6554H21.3602V19.7033C21.2983 16.4898 20.4914 13.3345 19.0032 10.4857C18.8028 10.1194 18.5109 9.8112 18.1561 9.59113C17.8012 9.37106 17.3954 9.2466 16.9782 9.22986V10.3826L7.49253 6.53882L5.29639 1H16.9782ZM16.9782 6.88113C17.824 6.88992 18.6515 7.12821 19.3724 7.57056C20.0933 8.01292 20.6806 8.64273 21.0715 9.39277C22.7338 12.5721 23.6313 16.0955 23.6924 19.6827V32.6554H26.0329V19.6806C25.9694 15.7147 24.9808 11.8184 23.146 8.30192C22.5575 7.17273 21.6723 6.2254 20.5855 5.56192C19.4987 4.89843 18.2515 4.54391 16.9782 4.53651V6.88113ZM9.301 4.73654L14.6418 6.90175V3.34461H8.74628L9.301 4.73654Z" fill="#333333"/>
<path d="M10.6854 33.7712L10.7115 30.208L8.87812 30.2209L12.0858 27L15.2451 30.1746L13.3993 30.1886L13.3732 33.7517L10.6854 33.7712Z" fill="#333333"/>
<path d="M9.16407 24.6484H14.9004V23.5117H10.9395L13.0254 21.2793C13.5723 20.6855 13.9648 20.1562 14.2031 19.6914C14.4453 19.2226 14.5664 18.7754 14.5664 18.3496C14.5664 17.6152 14.3262 17.041 13.8457 16.6269C13.3691 16.209 12.7168 16 11.8887 16C11.3145 16 10.8066 16.1152 10.3652 16.3457C9.92774 16.5762 9.58985 16.9004 9.35157 17.3183C9.11719 17.7324 9 18.1992 9 18.7187H10.4238C10.4238 18.2304 10.5508 17.8457 10.8047 17.5644C11.0586 17.2832 11.416 17.1426 11.877 17.1426C12.2637 17.1426 12.5703 17.2676 12.7969 17.5176C13.0273 17.7676 13.1426 18.0957 13.1426 18.5019C13.1426 18.8105 13.0547 19.1191 12.8789 19.4277C12.707 19.7324 12.416 20.1133 12.0059 20.5703L9.16407 23.6699V24.6484Z" fill="#333333"/>
</svg>
