<svg width="36" height="36" viewBox="0 0 36 36" fill="none" xmlns="http://www.w3.org/2000/svg">
<path fill-rule="evenodd" clip-rule="evenodd" d="M16.9782 2.1919V1H5.29639L7.49253 6.53882L16.9782 10.3826V9.22986C17.3954 9.2466 17.8012 9.37106 18.1561 9.59113C18.5109 9.8112 18.8028 10.1194 19.0032 10.4857C20.4914 13.3345 21.2983 16.4898 21.3602 19.7033V32.6554H19.0218V35H30.7036V32.6554H28.3672V19.6435C28.2967 15.3105 27.2149 11.054 25.2081 7.21312C24.4227 5.70682 23.2413 4.44327 21.7911 3.55849C20.341 2.67372 18.677 2.20123 16.9782 2.1919ZM19.3724 7.57056C18.6515 7.12821 17.824 6.88992 16.9782 6.88113V4.53651C18.2515 4.54391 19.4987 4.89843 20.5855 5.56192C21.6723 6.2254 22.5575 7.17273 23.146 8.30192C24.9808 11.8184 25.9694 15.7147 26.0329 19.6806V32.6554H23.6924V19.6827C23.6313 16.0955 22.7338 12.5721 21.0715 9.39277C20.6806 8.64273 20.0933 8.01292 19.3724 7.57056ZM14.6418 6.90175L9.30099 4.73654L8.74628 3.34461H14.6418V6.90175Z" fill="#333333"/>
<path d="M12.4941 24H11.0762V17.1504L8.98438 17.8652V16.6641L12.3125 15.4395H12.4941V24Z" fill="#333333"/>
<path d="M10.7115 30.208L10.6854 33.7712L13.3732 33.7517L13.3993 30.1886L15.2451 30.1746L12.0858 27L8.87812 30.2209L10.7115 30.208Z" fill="#333333"/>
</svg>
