<svg width="36" height="36" viewBox="0 0 36 36" fill="none" xmlns="http://www.w3.org/2000/svg">
<path fill-rule="evenodd" clip-rule="evenodd" d="M19.0218 2.1919V1H30.7036L28.5074 6.53882L19.0218 10.3826V9.22986C18.6045 9.2466 18.1988 9.37106 17.8439 9.59113C17.489 9.8112 17.1972 10.1194 16.9968 10.4857C15.5085 13.3345 14.7017 16.4898 14.6398 19.7033V32.6554H16.9782V35H5.29639V32.6554H7.63275V19.6435C7.70328 15.3105 8.78508 11.054 10.7919 7.21312C11.5773 5.70682 12.7587 4.44327 14.2088 3.55849C15.659 2.67372 17.323 2.20123 19.0218 2.1919ZM16.6276 7.57056C17.3485 7.12821 18.176 6.88992 19.0218 6.88113V4.53651C17.7485 4.54391 16.5013 4.89843 15.4145 5.56192C14.3277 6.2254 13.4424 7.17273 12.854 8.30192C11.0191 11.8184 10.0306 15.7147 9.96706 19.6806V32.6554H12.3075V19.6827C12.3687 16.0955 13.2662 12.5721 14.9285 9.39277C15.3194 8.64273 15.9067 8.01292 16.6276 7.57056ZM21.3581 6.90175L26.699 4.73654L27.2537 3.34461H21.3581V6.90175Z" fill="#333333"/>
<path d="M28.375 24H22.6387V23.0215L25.4805 19.9219C25.8906 19.4648 26.1816 19.084 26.3535 18.7793C26.5293 18.4707 26.6172 18.1621 26.6172 17.8535C26.6172 17.4473 26.502 17.1191 26.2715 16.8691C26.0449 16.6191 25.7383 16.4941 25.3516 16.4941C24.8906 16.4941 24.5332 16.6348 24.2793 16.916C24.0254 17.1973 23.8984 17.582 23.8984 18.0703H22.4746C22.4746 17.5508 22.5918 17.084 22.8262 16.6699C23.0645 16.252 23.4023 15.9277 23.8398 15.6973C24.2812 15.4668 24.7891 15.3516 25.3633 15.3516C26.1914 15.3516 26.8437 15.5605 27.3203 15.9785C27.8008 16.3926 28.041 16.9668 28.041 17.7012C28.041 18.127 27.9199 18.5742 27.6777 19.043C27.4395 19.5078 27.0469 20.0371 26.5 20.6309L24.4141 22.8633H28.375V24Z" fill="#333333"/>
<path d="M24.7115 30.208L24.6854 33.7712L27.3732 33.7517L27.3993 30.1886L29.2451 30.1746L26.0858 27L22.8781 30.2209L24.7115 30.208Z" fill="#333333"/>
</svg>
