<svg width="36" height="36" viewBox="0 0 36 36" fill="none" xmlns="http://www.w3.org/2000/svg">
<path fill-rule="evenodd" clip-rule="evenodd" d="M19.0218 1V2.1919C17.323 2.20123 15.659 2.67372 14.2088 3.55849C12.7587 4.44327 11.5773 5.70682 10.7919 7.21312C8.78508 11.054 7.70328 15.3105 7.63275 19.6435V32.6554H5.29639V35H16.9782V32.6554H14.6398V19.7033C14.7017 16.4898 15.5085 13.3345 16.9968 10.4857C17.1972 10.1194 17.489 9.8112 17.8439 9.59113C18.1988 9.37106 18.6045 9.2466 19.0218 9.22986V10.3826L28.5074 6.53882L30.7036 1H19.0218ZM19.0218 6.88113C18.176 6.88992 17.3485 7.12821 16.6276 7.57056C15.9067 8.01292 15.3194 8.64273 14.9285 9.39277C13.2662 12.5721 12.3687 16.0955 12.3075 19.6827V32.6554H9.96706V19.6806C10.0306 15.7147 11.0191 11.8184 12.854 8.30192C13.4424 7.17273 14.3277 6.2254 15.4145 5.56192C16.5013 4.89843 17.7485 4.54391 19.0218 4.53651V6.88113ZM26.699 4.73654L21.3581 6.90175V3.34461H27.2537L26.699 4.73654Z" fill="#333333"/>
<path d="M24.6854 33.7712L24.7115 30.208L22.8781 30.2209L26.0858 27L29.2451 30.1746L27.3993 30.1886L27.3732 33.7517L24.6854 33.7712Z" fill="#333333"/>
<path d="M25.0918 23.5605H26.5098V15H26.3281L23 16.2246V17.4258L25.0918 16.7109V23.5605Z" fill="#333333"/>
</svg>
