<svg width="36" height="36" viewBox="0 0 36 36" fill="none" xmlns="http://www.w3.org/2000/svg">
<path d="M8.03946 2.66451L7.94702 1L7.17922 1.07627L7.27166 2.74078L5.80495 2.04821L5.45824 2.76214L6.92495 3.45471L5.55189 4.42722L5.97298 5.06489L7.34604 4.09238L7.43969 5.75746L8.20749 5.68119L8.11506 4.01668L9.58055 4.70868L9.92726 3.99475L8.46176 3.30275L9.83482 2.33024L9.41373 1.69257L8.03946 2.66451Z" fill="#333333"/>
<path d="M16.6497 6.5769L10.9365 4.32344L10.5598 5.25191L16.2731 7.50537L16.6497 6.5769Z" fill="#333333"/>
<path d="M13.0573 7.51203L8.49371 8.51199L8.7137 9.48818L13.2772 8.48822L13.0573 7.51203Z" fill="#333333"/>
<path d="M3.94315 7.77976L5.10712 8.98871L5.51548 7.37041L6.25519 7.58718L5.84813 9.20514L7.41916 8.79613L7.62408 9.56148L6.05305 9.97048L7.21702 11.1794L6.68223 11.728L5.51696 10.5194L5.1099 12.1374L4.37019 11.9206L4.77725 10.3026L3.20492 10.712L3 9.94663L4.57233 9.53729L3.40836 8.32833L3.94315 7.77976Z" fill="#333333"/>
<path fill-rule="evenodd" clip-rule="evenodd" d="M19.7512 11.3042L21.7155 9.36558L20.0282 7.70363H21.4765L24.6482 10.8294L25.4556 13.807C26.5528 14.7699 27.4265 15.9548 28.0173 17.2808L30.7002 17.9949L31.3175 15.7242L32.0417 16.9631L30.8794 21.2313L28.669 23.411C28.371 24.83 27.7671 26.1693 26.8985 27.3382L27.6226 29.982L29.9254 29.3733L29.2012 30.6122L24.8691 31.7564L21.8494 30.9585C20.812 31.2956 19.7266 31.4674 18.6343 31.4672C18.2611 31.4675 17.8882 31.4473 17.5173 31.4065L15.5512 33.338L17.2421 35H15.7938L12.6167 31.8742L11.8111 28.8967C10.7144 27.936 9.83956 26.7544 9.24581 25.4317L6.56107 24.7177L5.94736 26.9848L5.22323 25.7459L6.38004 21.4759L8.59047 19.298C8.88889 17.8788 9.49333 16.5394 10.3628 15.3707L9.63866 12.7288L7.34314 13.3375L8.06728 12.1004L12.3994 10.9561L15.4191 11.7523C16.4561 11.416 17.5408 11.2443 18.6324 11.2435C19.0062 11.2432 19.3797 11.2635 19.7512 11.3042ZM18.2852 24.4222C19.9736 24.4222 21.3422 23.0691 21.3422 21.4C21.3422 19.7309 19.9736 18.3778 18.2852 18.3778C16.5969 18.3778 15.2282 19.7309 15.2282 21.4C15.2282 23.0691 16.5969 24.4222 18.2852 24.4222Z" fill="#333333"/>
<path d="M26.9335 3.19671H18.935V6.5769H26.9335V3.19671Z" fill="#333333"/>
</svg>
