<svg width="36" height="36" viewBox="0 0 36 36" fill="none" xmlns="http://www.w3.org/2000/svg">
<path d="M29.3578 14H28.2849V14.996H29.3578V14Z" fill="#333333"/>
<path d="M19.8301 20H18.9337L20.4214 14.9619H21.3178L19.8301 20Z" fill="#333333"/>
<path d="M16.5519 15.6537C16.7692 15.5285 17.0177 15.4683 17.2682 15.4802C18.065 15.4802 18.6865 15.9442 18.6916 16.8444V19.6686H17.6187V17.1937C17.6187 16.8936 17.6023 16.3893 16.9214 16.3893C16.4461 16.3893 16.078 16.7108 16.078 17.3311V19.6648H15V15.5874H16.0263V16.1863H16.0427C16.158 15.9637 16.3347 15.7788 16.5519 15.6537Z" fill="#333333"/>
<path d="M25.9789 15.4801C25.3397 15.4801 25.04 15.9154 24.899 16.1201L24.8909 16.132C24.6147 15.6957 24.3462 15.4801 23.7561 15.4801C23.515 15.4691 23.2761 15.5305 23.07 15.6563C22.864 15.7821 22.7003 15.9666 22.6 16.1862H22.5849V15.5873H21.5573V19.6647H22.634V17.1822C22.634 16.7372 22.7954 16.3854 23.301 16.3854C23.944 16.3854 23.944 16.8683 23.944 17.2125V19.6647H25.0169V17.22C25.0169 16.7371 25.2086 16.3854 25.7457 16.3854C26.0596 16.3854 26.3281 16.5846 26.3281 17.1898V19.6647H27.4011V16.8443C27.3973 15.9441 26.7757 15.4801 25.9789 15.4801Z" fill="#333333"/>
<path d="M28.2849 15.5873H29.3578V19.6647H28.2849V15.5873Z" fill="#333333"/>
<path d="M31.8126 15.6538C32.0298 15.5287 32.2783 15.4684 32.5287 15.4802C33.3268 15.4802 33.9471 15.9442 33.9471 16.8444V19.6685H32.8742V17.1936C32.8742 16.8935 32.859 16.3892 32.177 16.3892C31.7016 16.3892 31.3335 16.7107 31.3335 17.331V19.6648H30.2606V15.5874H31.2881V16.1862H31.3032C31.4186 15.9637 31.5954 15.779 31.8126 15.6538Z" fill="#333333"/>
<path d="M18 9.32203V6.678L15.831 6.25091C15.7124 5.85678 15.555 5.47681 15.359 5.11519L16.5693 3.29969L14.7003 1.43062L12.8848 2.64094C12.5232 2.445 12.1432 2.28753 11.7491 2.16897L11.322 0H8.678L8.25091 2.169C7.85678 2.28756 7.47681 2.44503 7.11519 2.64097L5.29969 1.43062L3.43062 3.29969L4.64094 5.11519C4.445 5.47681 4.28753 5.85675 4.16897 6.25091L2 6.67797V9.322L4.169 9.74909C4.28756 10.1432 4.44503 10.5232 4.64097 10.8848L3.43062 12.7003L5.29969 14.5694L7.11519 13.3591C7.47681 13.555 7.85675 13.7125 8.25091 13.831L8.67797 16H11.322L11.7491 13.831C12.1432 13.7124 12.5232 13.555 12.8848 13.359L14.7003 14.5693L16.5694 12.7003L15.3591 10.8848C15.555 10.5232 15.7125 10.1432 15.831 9.74906L18 9.32203ZM10 11.2812C8.19091 11.2812 6.71875 9.80909 6.71875 8C6.71875 6.19091 8.19091 4.71875 10 4.71875C11.8091 4.71875 13.2812 6.19091 13.2812 8C13.2812 9.80909 11.8091 11.2812 10 11.2812Z" fill="#333333"/>
<path d="M18 29.322V26.678L15.831 26.2509C15.7124 25.8568 15.555 25.4768 15.359 25.1152L16.5693 23.2997L14.7003 21.4306L12.8848 22.6409C12.5232 22.445 12.1432 22.2875 11.7491 22.169L11.322 20H8.678L8.25091 22.169C7.85678 22.2876 7.47681 22.445 7.11519 22.641L5.29969 21.4306L3.43062 23.2997L4.64094 25.1152C4.445 25.4768 4.28753 25.8568 4.16897 26.2509L2 26.678V29.322L4.169 29.7491C4.28756 30.1432 4.44503 30.5232 4.64097 30.8848L3.43062 32.7003L5.29969 34.5694L7.11519 33.3591C7.47681 33.555 7.85675 33.7125 8.25091 33.831L8.67797 36H11.322L11.7491 33.831C12.1432 33.7124 12.5232 33.555 12.8848 33.359L14.7003 34.5693L16.5694 32.7003L15.3591 30.8848C15.555 30.5232 15.7125 30.1432 15.831 29.7491L18 29.322ZM10 31.2812C8.19091 31.2812 6.71875 29.8091 6.71875 28C6.71875 26.1909 8.19091 24.7188 10 24.7188C11.8091 24.7188 13.2812 26.1909 13.2812 28C13.2812 29.8091 11.8091 31.2812 10 31.2812Z" fill="#333333"/>
</svg>
