<svg width="36" height="36" viewBox="0 0 36 36" fill="none" xmlns="http://www.w3.org/2000/svg">
<path d="M19.0207 1V2.1919C17.3219 2.20123 15.6579 2.67372 14.2077 3.55849C12.7576 4.44327 11.5762 5.70682 10.7908 7.21312C8.78398 11.054 7.70218 15.3105 7.63165 19.6435V32.6554H5.29529V35H16.9771V32.6554H14.6387V19.7033C14.7006 16.4898 15.5074 13.3345 16.9957 10.4857C17.1961 10.1194 17.488 9.8112 17.8428 9.59113C18.1977 9.37106 18.6034 9.2466 19.0207 9.22986V10.3826L28.5063 6.53882L30.7025 1H19.0207ZM19.0207 6.88113C18.1749 6.88992 17.3474 7.12821 16.6265 7.57056C15.9056 8.01292 15.3183 8.64273 14.9274 9.39277C13.2651 12.5721 12.3676 16.0955 12.3064 19.6827V32.6554H9.96596V19.6806C10.0295 15.7147 11.018 11.8184 12.8529 8.30192C13.4413 7.17273 14.3266 6.2254 15.4134 5.56192C16.5002 4.89843 17.7474 4.54391 19.0207 4.53651V6.88113ZM26.6979 4.73654L21.357 6.90175V3.34461H27.2526L26.6979 4.73654Z" fill="#333333"/>
<path d="M24.4408 26.1402L23.7801 28.2494H25.9782L25.3048 26.1402C25.1711 25.7186 25.054 25.2553 24.9469 24.8313C24.9217 24.7314 24.897 24.6338 24.8728 24.5393H24.8474C24.8015 24.7183 24.7539 24.9105 24.7053 25.107C24.6194 25.4546 24.5301 25.8155 24.4408 26.1402Z" fill="#333333"/>
<path fill-rule="evenodd" clip-rule="evenodd" d="M30.7048 21.1765H19.0577V34.9412H30.7048V21.1765ZM27.0074 31.8579L26.2323 29.4311H23.5259L22.789 31.8579H21.1754L23.9198 23.2941H25.9147L28.6972 31.8579H27.0074Z" fill="#333333"/>
</svg>
