<svg width="36" height="36" viewBox="0 0 36 36" fill="none" xmlns="http://www.w3.org/2000/svg">
<path d="M13.0727 25.7691L11.7758 25.9189C10.9017 26.0242 10.0311 26.1687 9.16944 26.3542C8.3078 26.5398 7.4515 26.7556 6.60947 27.0143C5.99222 27.1875 5.39067 27.4125 4.81125 27.6868C4.23315 27.9622 3.67987 28.2869 3.15753 28.6573C2.82118 28.8653 2.53696 29.1476 2.32667 29.4825C2.11639 29.8174 1.98563 30.196 1.94444 30.5893C1.98498 30.9833 2.11543 31.3627 2.32575 31.6983C2.53607 32.0339 2.82065 32.3167 3.15753 32.5249C3.91488 33.0746 4.74766 33.512 5.63009 33.8236L6.69154 33.267C5.77514 33.0159 4.898 32.6388 4.08518 32.1467C3.78246 32.0024 3.52015 31.7855 3.32165 31.5152C3.15642 31.3284 3.04612 31.0996 3.00298 30.854C2.95984 30.6084 2.98555 30.3556 3.07725 30.1237C3.17193 29.8894 3.30924 29.6747 3.48221 29.4904C3.65303 29.3043 3.85765 29.1524 4.08518 29.0426C4.5852 28.7396 5.10903 28.4776 5.65149 28.2595C6.19226 28.0367 6.75005 27.8577 7.31949 27.7243C8.11394 27.5174 8.91493 27.339 9.72247 27.1891C10.4479 27.0571 11.1776 26.9501 11.9114 26.868L13.0674 26.7503L13.0727 25.7691Z" fill="#333333"/>
<path d="M27.9794 23.4304L30.9871 27.7208L29.1336 27.0143L26.5754 26.3543L23.9655 25.919L21.1611 25.6443V26.6451L23.5784 26.8538L26.0152 27.1981L28.4182 27.7297L31.0067 28.6734L25.3017 29.1711L25.3908 30.1791L33.449 29.4744L28.8089 22.8488L27.9794 23.4304Z" fill="#333333"/>
<path d="M20.1497 18.3069C20.2025 15.5331 20.902 12.8099 22.1923 10.354C22.3603 10.0333 22.6114 9.76367 22.9192 9.57318C23.2271 9.3827 23.5804 9.27839 23.9424 9.27116V10.2648L32.1485 6.95203L34.0556 2.17639H23.9424V3.20573C22.4747 3.21266 21.0365 3.61854 19.7818 4.37994C18.527 5.14134 17.5029 6.2296 16.8191 7.52824C15.0785 10.8396 14.1388 14.513 14.0753 18.2534V29.4708H12.0613V31.4921H22.1727V29.4708H20.1497V18.3069ZM25.9654 4.19939H31.0692L30.5894 5.39999L25.9654 7.26779V4.19939ZM18.1285 29.4708H16.1055V18.2694C16.1621 14.8546 17.0174 11.5004 18.603 8.47552C19.1143 7.50041 19.8814 6.68287 20.8221 6.11057C21.7627 5.53828 22.8413 5.23282 23.9424 5.22695V7.24995C23.2114 7.25676 22.4959 7.46158 21.8721 7.84262C21.2482 8.22365 20.7393 8.76666 20.3994 9.41388C18.9617 12.1551 18.1841 15.1942 18.1285 18.289V29.4708Z" fill="#333333"/>
<path d="M8.25679 18.8579C9.04761 18.9973 9.84134 19.1073 10.638 19.1879C11.4346 19.2684 12.2219 19.3347 13 19.3869V20.3412C12.0838 20.2822 11.1704 20.1943 10.26 20.0775C9.40529 19.9823 8.55872 19.8445 7.72028 19.6642C6.88184 19.4839 6.04573 19.2735 5.21193 19.0331L3.40209 18.3526L6.33895 22.4472L5.52896 23L1 16.6805L8.87342 16L8.95878 16.9611L3.38467 17.4374L5.91392 18.3373C6.68559 18.55 7.46945 18.7184 8.25679 18.8579Z" fill="#333333"/>
<path d="M31.6228 15.3193C31.4148 15.6521 31.1332 15.9323 30.7997 16.1382C29.7647 16.8747 28.6101 17.4253 27.3874 17.7654C26.5532 18.0225 25.7095 18.2418 24.8564 18.4234C24.0034 18.605 23.145 18.7477 22.2814 18.8514C21.8548 18.9139 21.4277 18.9635 21 19V18.006C21.3008 17.9907 21.6004 17.9641 21.8989 17.9264C22.7044 17.8415 23.5099 17.7283 24.3065 17.5833C25.1032 17.4382 25.8928 17.2631 26.6824 17.0526C27.2448 16.9195 27.7958 16.7421 28.3304 16.522C28.8654 16.3029 29.3828 16.0428 29.8779 15.7438C30.1779 15.6023 30.4379 15.3877 30.634 15.1195C30.8301 14.8513 30.9562 14.5381 31.0006 14.2085C30.9546 13.8794 30.828 13.5669 30.632 13.2989C30.4361 13.031 30.177 12.816 29.8779 12.6732C29.4783 12.4271 29.0619 12.2096 28.6318 12.0223C28.2023 11.8347 27.7599 11.678 27.3081 11.5536L28.3568 11C28.7927 11.154 29.2168 11.3396 29.6259 11.5554C30.0344 11.7721 30.4273 12.0174 30.8015 12.2894C31.1346 12.4956 31.4159 12.7759 31.6238 13.1087C31.8316 13.4415 31.9603 13.8178 32 14.2085C31.9623 14.6032 31.8331 14.9836 31.6228 15.3193Z" fill="#333333"/>
</svg>
