<svg width="36" height="36" viewBox="0 0 36 36" fill="none" xmlns="http://www.w3.org/2000/svg">
<path d="M14.6232 19.708C14.6845 16.491 15.4957 13.3327 16.9922 10.4843C17.187 10.1124 17.4782 9.79965 17.8352 9.57872C18.1923 9.3578 18.6021 9.23682 19.0219 9.22844V10.3809L28.5393 6.53873L30.7511 1H19.0219V2.19382C17.3197 2.20185 15.6517 2.67259 14.1965 3.55566C12.7412 4.43872 11.5535 5.70087 10.7604 7.20702C8.74167 11.0475 7.65178 15.3078 7.57822 19.6459V32.6558H5.24231V35H16.9694V32.6558H14.6232V19.708ZM21.3682 3.34625H27.2876L26.731 4.7387L21.3682 6.90495V3.34625ZM12.279 32.6558H9.93275V19.6645C9.9984 15.704 10.9904 11.8139 12.8294 8.30567C13.4224 7.17474 14.3121 6.22657 15.403 5.56282C16.4939 4.89908 17.7449 4.54481 19.0219 4.538V6.88426C18.1741 6.89216 17.3443 7.12971 16.6208 7.57163C15.8972 8.01355 15.307 8.64332 14.9129 9.39396C13.2454 12.5732 12.3435 16.0979 12.279 19.6873V32.6558Z" fill="#333333"/>
<path d="M27.0889 24.2194H25.6687V26.5863H27.0889V24.2194Z" fill="#333333"/>
<path d="M28.607 23.0359H19.278V34.6338H30.6392V25.0681L28.607 23.0359ZM21.645 23.5093H27.7989V27.2964H21.645V23.5093Z" fill="#333333"/>
</svg>
