<svg width="36" height="36" viewBox="0 0 36 36" fill="none" xmlns="http://www.w3.org/2000/svg">
<path d="M18.4663 23.4973L17.846 25.4777H19.9099L19.2776 23.4973C19.1521 23.1015 19.0422 22.6665 18.9416 22.2684C18.9179 22.1746 18.8947 22.0829 18.872 21.9942H18.8481C18.805 22.1622 18.7604 22.3427 18.7147 22.5272C18.634 22.8535 18.5502 23.1925 18.4663 23.4973Z" fill="#333333"/>
<path fill-rule="evenodd" clip-rule="evenodd" d="M24.3478 18.8367H13.4121V31.7608H24.3478V18.8367ZM20.8762 28.8658L20.1485 26.5872H17.6074L16.9155 28.8658H15.4004L17.9772 20.825H19.8502L22.4629 28.8658H20.8762Z" fill="#333333"/>
<path fill-rule="evenodd" clip-rule="evenodd" d="M20.8084 3.88037L20.5398 4.88096C19.4405 4.57381 18.2889 4.50139 17.1598 4.66841C16.0307 4.83544 14.9494 5.23818 13.9861 5.85045C10.8046 7.87018 8.13905 10.6055 6.20215 13.8381L7.95487 14.8666C9.72654 11.9114 12.1647 9.41128 15.0745 7.56602C15.8015 7.10551 16.6176 6.80406 17.4694 6.68148C18.3211 6.5589 19.1892 6.61796 20.0164 6.85479L19.4841 8.8297C18.9286 8.66532 18.3443 8.62136 17.7704 8.70074C17.1965 8.78012 16.6461 8.98102 16.156 9.29003C13.5218 10.9627 11.3087 13.219 9.70048 15.8931L11.4549 16.933C12.8981 14.5386 14.8783 12.5125 17.239 11.0149C17.4913 10.8544 17.7758 10.7515 18.0724 10.7136C18.369 10.6757 18.6703 10.7038 18.9548 10.7959L18.6955 11.7625L27.5295 10.6634L30.6327 6.5067L20.8084 3.88037ZM21.4452 9.36439L26.4237 8.74069L27.205 7.70004L22.2492 6.37621L21.4452 9.36439Z" fill="#333333"/>
</svg>
