<svg width="36" height="36" viewBox="0 0 36 36" fill="none" xmlns="http://www.w3.org/2000/svg">
<path d="M27.2632 12.231L26.6991 10.4395L23.4142 11.4739C22.8538 10.2504 21.9751 9.19986 20.8699 8.43201L22.4711 5.33615L20.8136 4.47257L19.2125 7.56843C17.9517 7.09824 16.5876 6.97622 15.2634 7.21519L14.2462 3.98511L12.4594 4.54777L13.4766 7.77785C12.2563 8.33951 11.2095 9.21888 10.4456 10.3239L7.3657 8.70731L6.50212 10.3648L9.58205 11.9814C9.11591 13.2445 8.99733 14.6097 9.23868 15.9343L6.01404 16.9497L6.57918 18.7444L9.80067 17.73C10.3611 18.9555 11.241 20.0076 12.348 20.7761L10.5012 24.3434L12.1586 25.207L14.0055 21.6396C15.2645 22.1083 16.6265 22.2293 17.9484 21.9896L18.9655 25.2197L20.7555 24.6561L19.7383 21.426C20.9596 20.8651 22.0072 19.9854 22.7708 18.8794L26.3285 20.7449L27.1921 19.0875L23.6344 17.222C24.1002 15.9594 24.2184 14.595 23.9767 13.2711L27.2632 12.231ZM18.2801 20.0182C17.2178 20.3562 16.079 20.3713 15.008 20.0617C13.9371 19.7521 12.9821 19.1317 12.2639 18.279C11.5457 17.4263 11.0967 16.3797 10.9737 15.2717C10.8508 14.1637 11.0593 13.0441 11.573 12.0547C12.0866 11.0652 12.8823 10.2505 13.8593 9.71355C14.8363 9.17661 15.9507 8.94164 17.0613 9.03839C18.1719 9.13514 19.2288 9.55926 20.0983 10.257C20.9677 10.9548 21.6105 11.8949 21.9454 12.9582C22.3946 14.3805 22.261 15.9229 21.5737 17.2467C20.8865 18.5705 19.7019 19.5673 18.2801 20.0182Z" fill="#333333"/>
<path d="M29.4561 17.9342C29.0881 19.4886 28.3676 20.9377 27.3505 22.1695C26.3333 23.4013 25.0467 24.3829 23.5899 25.0384L24.2396 26.4905C25.7979 25.7891 27.1887 24.7634 28.319 23.4819C29.4494 22.2003 30.2934 20.6923 30.7946 19.0587C31.2958 17.425 31.4428 15.7032 31.2257 14.0082C31.0085 12.3132 30.4323 10.684 29.5354 9.2294L28.184 10.0631C29.6342 12.4146 30.0918 15.2455 29.4561 17.9342Z" fill="#333333"/>
<path d="M15.3693 34.2569L16.396 31.3792L19.2722 32.4067L19.5065 31.7531L15.9761 30.4937L14.7157 34.0226L15.3693 34.2569Z" fill="#333333"/>
<path d="M11.6413 26.3874L11.4085 27.0401L14.9374 28.3005L16.1978 24.7715L15.5454 24.5375L14.5175 27.4149L11.6413 26.3874Z" fill="#333333"/>
<path d="M11.9044 32.4228L15.9761 30.4937L23.1828 27.0794L22.885 26.4538L11.6078 31.7975L11.9044 32.4228Z" fill="#333333"/>
<path d="M11.1622 30.8562L18.6805 27.2946L18.3844 26.6669L14.9374 28.3005L10.8658 30.2296L11.1622 30.8562Z" fill="#333333"/>
</svg>
