<svg width="36" height="36" viewBox="0 0 36 36" fill="none" xmlns="http://www.w3.org/2000/svg">
<path d="M6.4255 6.97067V12.4207C6.42572 12.4338 6.5138 13.7381 8.355 13.745C8.35985 13.745 8.36404 13.7454 8.36889 13.7454C10.29 13.7454 10.3121 12.4766 10.3121 12.4224V6.97067H12.5172V12.4224C12.5172 13.8406 11.4125 15.9506 8.36889 15.9506C8.36426 15.9506 8.35983 15.9502 8.355 15.9502C5.23164 15.9433 4.22037 13.5719 4.22037 12.4224V6.97067H6.4255ZM8.79603 15.4936C11.1933 15.3112 12.0762 13.596 12.0762 12.4224V7.41171H10.7531V12.4224C10.7531 12.9836 10.3315 14.0049 8.79603 14.165V15.4936Z" fill="#333333"/>
<path fill-rule="evenodd" clip-rule="evenodd" d="M14.875 24.2623L16.5936 24.1794C16.718 23.8086 16.8733 23.4496 17.0577 23.1039L15.9408 21.7965L16.6289 20.8566L18.2118 21.5292C18.4854 21.2496 18.7812 20.9926 19.0968 20.7622L18.6571 19.0993L19.6845 18.5508L20.8214 19.8422C21.0051 19.7752 21.192 19.7158 21.38 19.6646C21.569 19.6132 21.7592 19.5699 21.9516 19.5346L22.2773 17.8452L23.441 17.7974L23.9055 19.4535C24.2954 19.492 24.6796 19.5639 25.0571 19.6663L26.0844 18.2855L27.1539 18.747L26.8527 20.4404C27.1865 20.644 27.5023 20.8748 27.7975 21.1314L29.3213 20.333L30.0844 21.2116L29.0781 22.6069C29.2897 22.9351 29.474 23.2804 29.6292 23.6399L31.349 23.5811L31.6547 24.7044L30.1426 25.5262C30.1916 25.9135 30.208 26.3056 30.1909 26.6961L31.7656 27.3889L31.5532 28.5341L29.8347 28.617C29.7103 28.9878 29.555 29.3468 29.3703 29.6915L30.4909 30.9969L29.8027 31.9367L28.2184 31.2667C27.9448 31.5463 27.6491 31.8032 27.3334 32.0337L27.7724 33.6978L26.745 34.2463L25.6081 32.955C25.4244 33.022 25.2375 33.0813 25.0495 33.1325C24.8605 33.1839 24.6703 33.2272 24.4779 33.2625L24.1509 34.9512L22.9875 35L22.524 33.3436C22.1351 33.3049 21.7502 33.2343 21.3724 33.1309L20.3451 34.5116L19.2756 34.0501L19.5768 32.3567C19.243 32.1532 18.9272 31.9224 18.632 31.6658L17.1072 32.4644L16.3438 31.5848L17.3501 30.1895C17.1373 29.8606 16.953 29.5153 16.799 29.1565L15.079 29.2143L14.7733 28.0911L16.2857 27.2702C16.2363 26.8819 16.2203 26.4908 16.2373 26.1004L14.6627 25.4075L14.875 24.2623ZM21.6797 20.7969C24.7792 19.9534 27.9782 21.7837 28.8212 24.8813C29.6645 27.9799 27.8329 31.1782 24.7343 32.0214C21.6348 32.8649 18.4358 31.0346 17.5928 27.9371C16.7498 24.8395 18.5801 21.6405 21.6797 20.7969Z" fill="#333333"/>
<path d="M14.8001 21.6C14.8001 20.9569 13.8857 20.8119 13.2427 20.8119C12.6006 20.8119 10.8001 22.5569 10.8001 23.2C10.8001 23.8441 12.558 25.2 13.2001 25.2C13.8431 25.2 14.8001 22.2441 14.8001 21.6ZM10.4001 27.6C10.4001 26.9559 9.04107 24.8 8.40006 24.8C7.75904 24.8 5.60006 26.1559 5.60006 26.8C5.60006 27.441 7.1617 30.3851 7.80272 30.3851C8.44374 30.3851 10.4001 28.242 10.4001 27.6Z" fill="#333333"/>
<path fill-rule="evenodd" clip-rule="evenodd" d="M15.7051 5.24816L17.3851 5.61944C17.6025 5.29431 17.8466 4.98867 18.1153 4.70355L17.381 3.14869L18.2917 2.42255L19.6425 3.48715C19.9799 3.28921 20.3328 3.11895 20.6979 2.97947L20.7102 1.25948L21.8456 1L22.6035 2.5446C22.7984 2.52819 22.9943 2.51998 23.1891 2.51998C23.385 2.51998 23.5799 2.52819 23.7748 2.5446L24.5327 1L25.6681 1.25948L25.6814 2.97947C26.0476 3.11895 26.3994 3.28921 26.7368 3.48715L28.0906 2.4246L29.0014 3.15075L28.266 4.7056C28.5347 4.9897 28.7788 5.29534 28.9962 5.62046L30.6762 5.25021L31.1819 6.2984L29.8444 7.38044C29.9624 7.75275 30.0496 8.13428 30.105 8.52197L31.7798 8.91684V10.0809L30.105 10.4768C30.0506 10.8635 29.9634 11.246 29.8444 11.6183L31.1819 12.7004L30.6762 13.7496L28.9962 13.3783C28.7788 13.7035 28.5347 14.0091 28.266 14.2932L29.0045 15.847L28.0937 16.5732L26.7409 15.5106C26.4035 15.7086 26.0506 15.8788 25.6855 16.0183L25.6722 17.7393L24.5368 17.9988L23.7789 16.4542C23.584 16.4706 23.3881 16.4788 23.1932 16.4788C22.9973 16.4788 22.8025 16.4706 22.6076 16.4542L21.8486 17.9978L20.7133 17.7393L20.701 16.0193C20.3358 15.8798 19.983 15.7106 19.6456 15.5116L18.2917 16.5742L17.381 15.848L18.1164 14.2932C17.8477 14.0091 17.6036 13.7035 17.3861 13.3783L15.7051 13.7486L15.1995 12.6994L16.5369 11.6173C16.4179 11.244 16.3307 10.8625 16.2764 10.4758L14.6015 10.0799V8.91581L16.2764 8.52094C16.3307 8.13326 16.4179 7.75172 16.5369 7.37942L15.1995 6.29738L15.7051 5.24816ZM23.1809 3.69125C26.3932 3.69125 28.9993 6.29738 28.9993 9.5076C28.9993 12.7188 26.3922 15.3239 23.1809 15.3239C19.9687 15.3239 17.3625 12.7178 17.3625 9.5076C17.3625 6.29738 19.9687 3.69125 23.1809 3.69125Z" fill="#333333"/>
<path d="M7.20006 18C7.84313 18 9.20006 18.9569 9.20006 19.6C9.20006 20.2441 7.64579 22.8 7.00272 22.8C6.36068 22.8 4.80005 20.2441 4.80005 19.6C4.80005 18.9569 6.55801 18 7.20006 18Z" fill="#333333"/>
</svg>
