<svg width="36" height="36" viewBox="0 0 36 36" fill="none" xmlns="http://www.w3.org/2000/svg">
<path fill-rule="evenodd" clip-rule="evenodd" d="M14.3455 24.2623L16.064 24.1794C16.1884 23.8086 16.3437 23.4496 16.5281 23.1039L15.4112 21.7965L16.0994 20.8566L17.6823 21.5292C17.9559 21.2496 18.2516 20.9926 18.5673 20.7622L18.1275 19.0993L19.1549 18.5508L20.2918 19.8422C20.4756 19.7752 20.6624 19.7158 20.8505 19.6646C21.0395 19.6132 21.2297 19.5699 21.422 19.5346L21.7477 17.8452L22.9114 17.7974L23.3759 19.4535C23.7659 19.492 24.15 19.5639 24.5276 19.6663L25.5549 18.2855L26.6244 18.747L26.3231 20.4404C26.657 20.644 26.9728 20.8748 27.268 21.1314L28.7918 20.333L29.5549 21.2116L28.5485 22.6069C28.7601 22.9351 28.9444 23.2804 29.0997 23.6399L30.8194 23.5811L31.1251 24.7044L29.613 25.5262C29.6621 25.9135 29.6784 26.3056 29.6614 26.6961L31.236 27.3889L31.0236 28.5341L29.3051 28.617C29.1807 28.9878 29.0254 29.3468 28.8407 29.6915L29.9613 30.9969L29.2732 31.9367L27.6888 31.2667C27.4152 31.5463 27.1195 31.8032 26.8038 32.0337L27.2429 33.6978L26.2155 34.2463L25.0785 32.955C24.8948 33.022 24.708 33.0813 24.5199 33.1325C24.3309 33.1839 24.1407 33.2272 23.9484 33.2625L23.6214 34.9512L22.458 35L21.9944 33.3436C21.6055 33.3049 21.2206 33.2343 20.8428 33.1309L19.8155 34.5116L18.746 34.0501L19.0473 32.3567C18.7134 32.1532 18.3976 31.9224 18.1024 31.6658L16.5776 32.4644L15.8142 31.5848L16.8206 30.1895C16.6078 29.8606 16.4234 29.5153 16.2695 29.1565L14.5494 29.2143L14.2437 28.0911L15.7561 27.2702C15.7068 26.8819 15.6907 26.4908 15.7077 26.1004L14.1331 25.4075L14.3455 24.2623ZM21.1501 20.7969C24.2497 19.9534 27.4487 21.7837 28.2917 24.8813C29.1349 27.9799 27.3033 31.1782 24.2048 32.0214C21.1052 32.8649 17.9062 31.0346 17.0632 27.9371C16.2203 24.8395 18.0506 21.6405 21.1501 20.7969Z" fill="#333333"/>
<path fill-rule="evenodd" clip-rule="evenodd" d="M15.1756 5.24816L16.8555 5.61944C17.073 5.29431 17.3171 4.98867 17.5858 4.70355L16.8514 3.14869L17.7622 2.42255L19.1129 3.48715C19.4504 3.28921 19.8032 3.11895 20.1683 2.97947L20.1806 1.25948L21.316 1L22.0739 2.5446C22.2688 2.52819 22.4647 2.51998 22.6596 2.51998C22.8555 2.51998 23.0503 2.52819 23.2452 2.5446L24.0031 1L25.1385 1.25948L25.1519 2.97947C25.518 3.11895 25.8698 3.28921 26.2072 3.48715L27.5611 2.4246L28.4718 3.15075L27.7364 4.7056C28.0052 4.9897 28.2493 5.29534 28.4667 5.62046L30.1467 5.25021L30.6523 6.2984L29.3149 7.38044C29.4328 7.75275 29.52 8.13428 29.5754 8.52197L31.2502 8.91684V10.0809L29.5754 10.4768C29.521 10.8635 29.4339 11.246 29.3149 11.6183L30.6523 12.7004L30.1467 13.7496L28.4667 13.3783C28.2493 13.7035 28.0052 14.0091 27.7364 14.2932L28.4749 15.847L27.5641 16.5732L26.2113 15.5106C25.8739 15.7086 25.5211 15.8788 25.156 16.0183L25.1426 17.7393L24.0073 17.9988L23.2493 16.4542C23.0544 16.4706 22.8585 16.4788 22.6637 16.4788C22.4678 16.4788 22.2729 16.4706 22.078 16.4542L21.3191 17.9978L20.1837 17.7393L20.1714 16.0193C19.8063 15.8798 19.4535 15.7106 19.116 15.5116L17.7622 16.5742L16.8514 15.848L17.5868 14.2932C17.3181 14.0091 17.074 13.7035 16.8566 13.3783L15.1756 13.7486L14.6699 12.6994L16.0073 11.6173C15.8884 11.244 15.8012 10.8625 15.7468 10.4758L14.072 10.0799V8.91581L15.7468 8.52094C15.8012 8.13326 15.8884 7.75172 16.0073 7.37942L14.6699 6.29738L15.1756 5.24816ZM22.6514 3.69125C25.8636 3.69125 28.4698 6.29738 28.4698 9.5076C28.4698 12.7188 25.8626 15.3239 22.6514 15.3239C19.4391 15.3239 16.833 12.7178 16.833 9.5076C16.833 6.29738 19.4391 3.69125 22.6514 3.69125Z" fill="#333333"/>
<path d="M15.5002 16.5186C15.5002 15.7147 14.3574 15.5334 13.5535 15.5334C12.751 15.5334 10.5002 17.7147 10.5002 18.5186C10.5002 19.3237 12.6977 21.0186 13.5002 21.0186C14.3041 21.0186 15.5002 17.3237 15.5002 16.5186ZM10.0002 24.0186C10.0002 23.2134 8.30152 20.5186 7.50024 20.5186C6.69897 20.5186 4.00024 22.2134 4.00024 23.0186C4.00024 23.8198 5.95231 27.5 6.75358 27.5C7.55485 27.5 10.0002 24.8211 10.0002 24.0186Z" fill="#333333"/>
<path d="M6.00024 12.0186C6.80408 12.0186 8.50024 13.2147 8.50024 14.0186C8.50024 14.8237 6.55742 18.0186 5.75358 18.0186C4.95102 18.0186 3.00024 14.8237 3.00024 14.0186C3.00024 13.2147 5.19769 12.0186 6.00024 12.0186Z" fill="#333333"/>
</svg>
