<svg width="36" height="36" viewBox="0 0 36 36" fill="none" xmlns="http://www.w3.org/2000/svg">
<path fill-rule="evenodd" clip-rule="evenodd" d="M14.8751 24.2623L16.5936 24.1794C16.718 23.8086 16.8733 23.4496 17.0577 23.1039L15.9408 21.7965L16.6289 20.8566L18.2118 21.5292C18.4855 21.2496 18.7812 20.9926 19.0969 20.7622L18.6571 19.0993L19.6845 18.5508L20.8214 19.8422C21.0051 19.7752 21.192 19.7158 21.38 19.6646C21.5691 19.6132 21.7592 19.5699 21.9516 19.5346L22.2773 17.8452L23.441 17.7974L23.9055 19.4535C24.2954 19.492 24.6796 19.5639 25.0572 19.6663L26.0845 18.2855L27.1539 18.747L26.8527 20.4404C27.1866 20.644 27.5024 20.8748 27.7975 21.1314L29.3213 20.333L30.0845 21.2116L29.0781 22.6069C29.2897 22.9351 29.474 23.2804 29.6292 23.6399L31.349 23.5811L31.6547 24.7044L30.1426 25.5262C30.1917 25.9135 30.208 26.3056 30.191 26.6961L31.7656 27.3889L31.5532 28.5341L29.8347 28.617C29.7103 28.9878 29.555 29.3468 29.3703 29.6915L30.4909 30.9969L29.8028 31.9367L28.2184 31.2667C27.9448 31.5463 27.6491 31.8032 27.3334 32.0337L27.7725 33.6978L26.7451 34.2463L25.6081 32.955C25.4244 33.022 25.2375 33.0813 25.0495 33.1325C24.8605 33.1839 24.6703 33.2272 24.478 33.2625L24.151 34.9512L22.9876 35L22.524 33.3436C22.1351 33.3049 21.7502 33.2343 21.3724 33.1309L20.3451 34.5116L19.2756 34.0501L19.5769 32.3567C19.243 32.1532 18.9272 31.9224 18.632 31.6658L17.1072 32.4644L16.3438 31.5848L17.3502 30.1895C17.1373 29.8606 16.953 29.5153 16.799 29.1565L15.079 29.2143L14.7733 28.0911L16.2857 27.2702C16.2363 26.8819 16.2203 26.4908 16.2373 26.1004L14.6627 25.4075L14.8751 24.2623ZM21.6797 20.7969C24.7792 19.9534 27.9783 21.7837 28.8212 24.8813C29.6645 27.9799 27.8329 31.1782 24.7344 32.0214C21.6348 32.8649 18.4358 31.0346 17.5928 27.9371C16.7498 24.8395 18.5801 21.6405 21.6797 20.7969Z" fill="#333333"/>
<path fill-rule="evenodd" clip-rule="evenodd" d="M15.7051 5.24816L17.3851 5.61944C17.6025 5.29431 17.8466 4.98867 18.1154 4.70355L17.381 3.14869L18.2918 2.42255L19.6425 3.48715C19.98 3.28921 20.3328 3.11895 20.6979 2.97947L20.7102 1.25948L21.8456 1L22.6035 2.5446C22.7984 2.52819 22.9943 2.51998 23.1891 2.51998C23.385 2.51998 23.5799 2.52819 23.7748 2.5446L24.5327 1L25.6681 1.25948L25.6814 2.97947C26.0476 3.11895 26.3994 3.28921 26.7368 3.48715L28.0906 2.4246L29.0014 3.15075L28.266 4.7056C28.5347 4.9897 28.7788 5.29534 28.9963 5.62046L30.6762 5.25021L31.1819 6.2984L29.8445 7.38044C29.9624 7.75275 30.0496 8.13428 30.105 8.52197L31.7798 8.91684V10.0809L30.105 10.4768C30.0506 10.8635 29.9634 11.246 29.8445 11.6183L31.1819 12.7004L30.6762 13.7496L28.9963 13.3783C28.7788 13.7035 28.5347 14.0091 28.266 14.2932L29.0045 15.847L28.0937 16.5732L26.7409 15.5106C26.4035 15.7086 26.0507 15.8788 25.6855 16.0183L25.6722 17.7393L24.5368 17.9988L23.7789 16.4542C23.584 16.4706 23.3881 16.4788 23.1933 16.4788C22.9974 16.4788 22.8025 16.4706 22.6076 16.4542L21.8487 17.9978L20.7133 17.7393L20.701 16.0193C20.3358 15.8798 19.983 15.7106 19.6456 15.5116L18.2918 16.5742L17.381 15.848L18.1164 14.2932C17.8477 14.0091 17.6036 13.7035 17.3861 13.3783L15.7051 13.7486L15.1995 12.6994L16.5369 11.6173C16.4179 11.244 16.3308 10.8625 16.2764 10.4758L14.6016 10.0799V8.91581L16.2764 8.52094C16.3308 8.13326 16.4179 7.75172 16.5369 7.37942L15.1995 6.29738L15.7051 5.24816ZM23.1809 3.69125C26.3932 3.69125 28.9993 6.29738 28.9993 9.5076C28.9993 12.7188 26.3922 15.3239 23.1809 15.3239C19.9687 15.3239 17.3625 12.7178 17.3625 9.5076C17.3625 6.29738 19.9687 3.69125 23.1809 3.69125Z" fill="#333333"/>
<path d="M9.77855 16.8193L9.3581 18.1173H10.7569L10.3284 16.8193C10.2433 16.5599 10.1688 16.2748 10.1006 16.0138C10.0846 15.9524 10.0689 15.8923 10.0535 15.8341H10.0373C10.0081 15.9443 9.97783 16.0625 9.94691 16.1835C9.89219 16.3974 9.83537 16.6195 9.77855 16.8193Z" fill="#333333"/>
<path fill-rule="evenodd" clip-rule="evenodd" d="M13.7647 13.7647H6.35297V22.2353H13.7647V13.7647ZM11.4118 20.3379L10.9186 18.8444H9.19639L8.72743 20.3379H7.70056L9.44704 15.0679H10.7165L12.4872 20.3379H11.4118Z" fill="#333333"/>
</svg>
