<svg width="36" height="36" viewBox="0 0 36 36" fill="none" xmlns="http://www.w3.org/2000/svg">
<path d="M17.7668 15.4469L17.2227 17.1837H19.0328L18.4783 15.4469C18.3682 15.0997 18.2718 14.7183 18.1836 14.3691C18.1628 14.2869 18.1425 14.2064 18.1225 14.1286H18.1016C18.0638 14.276 18.0247 14.4343 17.9846 14.5961C17.9138 14.8823 17.8403 15.1796 17.7668 15.4469Z" fill="#333333"/>
<path fill-rule="evenodd" clip-rule="evenodd" d="M22.9249 11.3595H13.3341V22.6941H22.9249V11.3595ZM19.8802 20.1551L19.242 18.1568H17.0135L16.4066 20.1551H15.0779L17.3378 13.1033H18.9805L21.2718 20.1551H19.8802Z" fill="#333333"/>
<path d="M28.1565 7H27.2846V25.3096H28.1565V7Z" fill="#333333"/>
<path d="M34.0501 15.9882L30.4858 12.2837L34.1111 8.64688L33.4478 7.98519L29.1558 12.2771L33.3752 16.64L34.0501 15.9882Z" fill="#333333"/>
<path d="M8.97465 7H8.10276V25.3096H8.97465V7Z" fill="#333333"/>
<path d="M2.06105 15.9882L2.73595 16.64L6.95527 12.2771L2.66334 7.98519L2 8.64688L5.62528 12.2837L2.06105 15.9882Z" fill="#333333"/>
<path fill-rule="evenodd" clip-rule="evenodd" d="M28.1562 29.9743L8.10276 29.9743V27.6202L28.1562 27.6202V29.9743Z" fill="#333333"/>
</svg>
