<svg width="36" height="36" viewBox="0 0 36 36" fill="none" xmlns="http://www.w3.org/2000/svg">
<path d="M18 1C19.4109 0.999883 20.7684 1.53956 21.7941 2.50836C22.8198 3.47716 23.4359 4.80166 23.5162 6.21027L23.5247 6.52476L23.5264 20.0426L23.6624 20.1599C25.2466 21.5722 26.2438 23.5271 26.4571 25.6387L26.4894 26.0671L26.4996 26.4989C26.4999 27.8993 26.1541 29.2781 25.493 30.5127C24.8319 31.7472 23.8761 32.7993 22.7103 33.5754C21.5446 34.3515 20.2052 34.8275 18.8112 34.9612C17.4172 35.0949 16.0117 34.882 14.7198 34.3415C13.4279 33.8011 12.2895 32.9498 11.4059 31.8633C10.5223 30.7768 9.92078 29.4889 9.65493 28.1139C9.38908 26.739 9.46708 25.3196 9.882 23.9821C10.2969 22.6445 11.0359 21.4302 12.0333 20.4471L12.3392 20.1582L12.4735 20.0426L12.4752 6.52476C12.475 5.16703 12.9746 3.85675 13.8789 2.84398C14.7832 1.83122 16.0287 1.1869 17.3778 1.034L17.6872 1.0085L18 1ZM18 3.54989C17.2531 3.54995 16.5336 3.83094 15.9844 4.33703C15.4351 4.84313 15.0964 5.5373 15.0353 6.28167L15.0251 6.52476V21.3039L14.4998 21.6864C13.4963 22.4164 12.7461 23.4419 12.3543 24.6194C11.9625 25.797 11.9487 27.0675 12.3148 28.2533C12.681 29.4391 13.4087 30.4806 14.3962 31.2323C15.3837 31.9839 16.5815 32.4079 17.822 32.445C19.0624 32.482 20.2834 32.1303 21.314 31.439C22.3446 30.7477 23.1333 29.7514 23.5696 28.5897C24.0059 27.4279 24.068 26.1588 23.7472 24.9599C23.4264 23.7611 22.7388 22.6926 21.7806 21.904L21.5001 21.6881L20.9783 21.3056L20.9749 6.52476C20.9749 5.73577 20.6614 4.9791 20.1035 4.42121C19.5456 3.86331 18.789 3.54989 18 3.54989ZM18 11.1995C18.3381 11.1995 18.6624 11.3339 18.9015 11.573C19.1406 11.8121 19.2749 12.1364 19.2749 12.4745V22.4446C20.244 22.7492 21.072 23.3907 21.6089 24.253C22.1459 25.1152 22.3564 26.1413 22.2023 27.1453C22.0482 28.1494 21.5397 29.0651 20.7689 29.7266C19.998 30.3882 19.0158 30.7519 18 30.7519C16.9842 30.7519 16.002 30.3882 15.2311 29.7266C14.4603 29.0651 13.9518 28.1494 13.7977 27.1453C13.6436 26.1413 13.8541 25.1152 14.3911 24.253C14.928 23.3907 15.756 22.7492 16.725 22.4446V12.4745C16.725 12.1364 16.8594 11.8121 17.0985 11.573C17.3376 11.3339 17.6619 11.1995 18 11.1995Z" fill="#333333"/>
</svg>
