<svg width="36" height="36" viewBox="0 0 36 36" fill="none" xmlns="http://www.w3.org/2000/svg">
<path d="M33.7058 9.76769H33.4276C32.5675 9.76668 31.7097 9.68191 30.8661 9.51456C30.022 9.34989 29.196 9.10284 28.4002 8.77696C26.4257 7.97134 24.2489 7.80312 22.1741 8.29584C21.8428 8.40093 21.5279 8.55217 21.2387 8.74511C21.0994 8.83822 20.9318 8.87949 20.7651 8.86172C20.5985 8.84395 20.4434 8.76828 20.3268 8.64788C20.0857 8.39499 19.809 8.17869 19.5054 8.00583C18.1219 7.3413 16.6062 6.99749 15.0714 7.00001C14.4865 7.0002 13.9027 7.05012 13.3263 7.14921C12.5773 7.27957 11.8184 7.34519 11.0582 7.34534C10.1657 7.34526 9.27559 7.2554 8.40114 7.07713L1.28331 15.6517L1 17.9768C2.11808 18.2554 3.26584 18.3973 4.4181 18.3993C5.0686 18.3991 5.71832 18.3543 6.36269 18.2652C7.61736 18.0919 8.89424 18.1781 10.1143 18.5184C11.3343 18.8586 12.4715 19.4457 13.4554 20.2433L16.1174 20.7143C16.8962 20.385 17.7328 20.2141 18.5783 20.2114H18.6437C18.8114 20.2114 18.9924 20.198 19.1667 20.198C20.911 20.1971 22.6294 20.6199 24.174 21.4301C25.4373 22.1548 26.8684 22.5357 28.3247 22.5349C28.4924 22.5349 28.66 22.5349 28.8276 22.5198L35 11.8313L33.7058 9.76769ZM21.2354 10.1231C21.4077 9.87613 21.6196 9.65922 21.8623 9.48103C22.0413 9.37165 22.2327 9.28387 22.4323 9.21952C23.123 9.05748 23.8301 8.97591 24.5395 8.97645C25.138 8.97502 25.7353 9.03115 26.3231 9.14408C26.9107 9.25932 27.4857 9.43168 28.0397 9.65873C28.7228 9.93592 29.4261 10.1601 30.1436 10.3293C30.8603 10.4969 31.5889 10.609 32.3228 10.6645C32.3691 10.6703 32.4116 10.6927 32.4425 10.7276C32.4734 10.7624 32.4904 10.8074 32.4905 10.854C32.4907 10.8875 32.482 10.9205 32.4653 10.9495L27.4094 19.7404C26.7584 19.593 26.1438 19.3159 25.6023 18.9257C23.9689 17.6865 22.0005 16.9674 19.953 16.8621C19.8289 16.8537 19.7032 16.8503 19.5775 16.8503C18.5617 16.8508 17.5586 17.0763 16.6405 17.5108C16.6192 17.5241 16.5947 17.5316 16.5696 17.5324C16.5445 17.5332 16.5196 17.5273 16.4974 17.5154C16.4753 17.5035 16.4567 17.4859 16.4436 17.4645C16.4304 17.4431 16.4232 17.4186 16.4225 17.3935C16.4224 17.3652 16.4312 17.3376 16.4477 17.3147L18.917 13.6099H24.4691C24.6475 13.8215 24.867 13.9948 25.1142 14.1192C25.3615 14.2435 25.6314 14.3165 25.9077 14.3336C26.184 14.3506 26.4608 14.3115 26.7215 14.2185C26.9823 14.1256 27.2214 13.9807 27.4245 13.7926L26.0482 13.4238L25.5453 12.5505L26.4187 12.0475L27.795 12.4163C27.6894 12.0696 27.4922 11.7579 27.2241 11.514C26.956 11.2701 26.627 11.1032 26.2718 11.0309C25.9167 10.9586 25.5486 10.9836 25.2065 11.1033C24.8644 11.2229 24.561 11.4327 24.3283 11.7106H20.1809L21.2354 10.1231ZM8.77833 8.11144C9.53207 8.23418 10.2945 8.29585 11.0582 8.29584C11.8724 8.29552 12.685 8.22541 13.4872 8.0863C14.6908 7.87427 15.9245 7.9039 17.1166 8.17347C17.7877 8.32397 18.4399 8.54887 19.0611 8.84401C19.535 9.12283 19.9123 9.5399 20.1424 10.0393L19.0377 11.6955H11.4672C11.2876 11.4852 11.0673 11.3135 10.8195 11.1906C10.5718 11.0676 10.3017 10.9961 10.0256 10.9803C9.74952 10.9645 9.47306 11.0047 9.2129 11.0985C8.95274 11.1923 8.71425 11.3378 8.51178 11.5262L9.88472 11.89L10.3876 12.7634L9.51425 13.2663L8.13628 12.8975C8.24089 13.2457 8.43796 13.5592 8.70651 13.8044C8.97507 14.0496 9.30508 14.2174 9.66142 14.29C10.0178 14.3625 10.3871 14.3372 10.7302 14.2165C11.0733 14.0959 11.3772 13.8845 11.6097 13.6049H17.7636L15.0395 17.6986C15.0175 17.7319 14.9886 17.7603 14.9548 17.7817C14.9211 17.8031 14.8831 17.8171 14.8435 17.8228C14.804 17.8285 14.7636 17.8258 14.7252 17.8148C14.6867 17.8037 14.651 17.7847 14.6205 17.7589C13.7892 17.0525 12.8428 16.4939 11.8226 16.1077C10.0838 15.4233 8.19039 15.2302 6.34928 15.5495C5.59974 15.6801 4.84032 15.7457 4.07948 15.7456C3.9504 15.7456 3.82132 15.7456 3.69056 15.7456C3.64813 15.7481 3.60559 15.7481 3.56316 15.7456C3.24651 15.7453 2.93905 15.6391 2.68977 15.4439L8.77833 8.11144ZM27.3491 21.3413C27.3178 21.3829 27.2774 21.4167 27.2308 21.44C27.1842 21.4633 27.1329 21.4754 27.0809 21.4754C27.0619 21.477 27.0428 21.477 27.0239 21.4754C26.5187 21.393 26.0266 21.2442 25.5604 21.0328C24.9558 20.73 24.3579 20.4109 23.7667 20.0756C23.1032 19.7386 22.4066 19.4712 21.688 19.2777C19.8145 18.7151 17.7981 18.8754 16.037 19.727L13.8577 19.3431C12.7847 18.5167 11.5581 17.9121 10.2491 17.5644C8.94023 17.2168 7.57521 17.133 6.23361 17.318C5.63206 17.4018 5.02545 17.4438 4.4181 17.4438H4.31082C3.66694 17.4374 3.02435 17.3847 2.38803 17.2862C2.30504 17.2778 2.22814 17.2389 2.17235 17.1769C2.11655 17.1149 2.08587 17.0343 2.08628 16.9509C2.08516 16.9062 2.09301 16.8617 2.10936 16.82C2.12571 16.7784 2.15022 16.7404 2.18147 16.7084C2.21271 16.6764 2.25005 16.6509 2.29129 16.6335C2.33252 16.6162 2.37681 16.6072 2.42156 16.6073H2.47352C3.00398 16.6667 3.53731 16.697 4.0711 16.6978C4.21191 16.6978 4.35273 16.6978 4.49354 16.6978C5.16799 16.6771 5.84018 16.6094 6.50518 16.4949C7.81436 16.266 9.15749 16.3217 10.4433 16.6581C11.729 16.9945 12.9273 17.6038 13.9566 18.4445L15.9884 18.8033C16.8981 18.3263 17.9099 18.0772 18.9371 18.0774C19.0343 18.0774 19.1299 18.0774 19.2254 18.0774H19.3713C21.4197 18.0756 23.4263 18.6571 25.1564 19.7538C25.7198 20.1345 26.3431 20.4179 27.0004 20.592C27.0759 20.6154 27.1452 20.6554 27.2032 20.709C27.2612 20.7627 27.3065 20.8287 27.3357 20.9021C27.3782 20.9637 27.401 21.0368 27.401 21.1116C27.4083 21.1918 27.3901 21.2721 27.3491 21.3413ZM28.5024 21.1737L28.1168 20.4109L33.3002 11.4357C33.317 11.4075 33.3408 11.3843 33.3693 11.3681C33.3978 11.3519 33.43 11.3434 33.4628 11.3434C33.4955 11.3434 33.5278 11.3519 33.5563 11.3681C33.5848 11.3843 33.6086 11.4075 33.6254 11.4357L33.8249 11.7542C33.8434 11.7845 33.8532 11.8193 33.8534 11.8548C33.8536 11.8883 33.8449 11.9212 33.8282 11.9503L28.5024 21.1737Z" fill="#333333"/>
<path d="M10.0293 25.63C11.0159 25.63 11.7426 25.8267 12.2093 26.22C12.6826 26.6133 12.9193 27.14 12.9193 27.8C12.9193 28.2267 12.8126 28.6167 12.5993 28.97C12.3859 29.3167 12.0593 29.5967 11.6193 29.81C11.1859 30.0167 10.6493 30.12 10.0093 30.12C9.51592 30.12 9.02926 30.0567 8.54926 29.93C8.07592 29.7967 7.67259 29.61 7.33926 29.37L7.97926 28.13C8.24592 28.33 8.55259 28.4867 8.89926 28.6C9.24592 28.7067 9.60259 28.76 9.96926 28.76C10.3759 28.76 10.6959 28.68 10.9293 28.52C11.1626 28.36 11.2793 28.1367 11.2793 27.85C11.2793 27.55 11.1559 27.3233 10.9093 27.17C10.6693 27.0167 10.2493 26.94 9.64926 26.94H7.85926L8.21926 23H12.4893V24.3H9.56926L9.45926 25.63H10.0293Z" fill="#333333"/>
<path d="M16.5765 30.12C15.9965 30.12 15.4799 29.9767 15.0265 29.69C14.5732 29.4033 14.2165 28.99 13.9565 28.45C13.7032 27.9033 13.5765 27.2533 13.5765 26.5C13.5765 25.7467 13.7032 25.1 13.9565 24.56C14.2165 24.0133 14.5732 23.5967 15.0265 23.31C15.4799 23.0233 15.9965 22.88 16.5765 22.88C17.1565 22.88 17.6732 23.0233 18.1265 23.31C18.5799 23.5967 18.9332 24.0133 19.1865 24.56C19.4465 25.1 19.5765 25.7467 19.5765 26.5C19.5765 27.2533 19.4465 27.9033 19.1865 28.45C18.9332 28.99 18.5799 29.4033 18.1265 29.69C17.6732 29.9767 17.1565 30.12 16.5765 30.12ZM16.5765 28.75C17.0032 28.75 17.3365 28.5667 17.5765 28.2C17.8232 27.8333 17.9465 27.2667 17.9465 26.5C17.9465 25.7333 17.8232 25.1667 17.5765 24.8C17.3365 24.4333 17.0032 24.25 16.5765 24.25C16.1565 24.25 15.8232 24.4333 15.5765 24.8C15.3365 25.1667 15.2165 25.7333 15.2165 26.5C15.2165 27.2667 15.3365 27.8333 15.5765 28.2C15.8232 28.5667 16.1565 28.75 16.5765 28.75Z" fill="#333333"/>
<path d="M23.3636 30.12C22.7836 30.12 22.267 29.9767 21.8136 29.69C21.3603 29.4033 21.0036 28.99 20.7436 28.45C20.4903 27.9033 20.3636 27.2533 20.3636 26.5C20.3636 25.7467 20.4903 25.1 20.7436 24.56C21.0036 24.0133 21.3603 23.5967 21.8136 23.31C22.267 23.0233 22.7836 22.88 23.3636 22.88C23.9436 22.88 24.4603 23.0233 24.9136 23.31C25.367 23.5967 25.7203 24.0133 25.9736 24.56C26.2336 25.1 26.3636 25.7467 26.3636 26.5C26.3636 27.2533 26.2336 27.9033 25.9736 28.45C25.7203 28.99 25.367 29.4033 24.9136 29.69C24.4603 29.9767 23.9436 30.12 23.3636 30.12ZM23.3636 28.75C23.7903 28.75 24.1236 28.5667 24.3636 28.2C24.6103 27.8333 24.7336 27.2667 24.7336 26.5C24.7336 25.7333 24.6103 25.1667 24.3636 24.8C24.1236 24.4333 23.7903 24.25 23.3636 24.25C22.9436 24.25 22.6103 24.4333 22.3636 24.8C22.1236 25.1667 22.0036 25.7333 22.0036 26.5C22.0036 27.2667 22.1236 27.8333 22.3636 28.2C22.6103 28.5667 22.9436 28.75 23.3636 28.75Z" fill="#333333"/>
</svg>
