<svg width="36" height="36" viewBox="0 0 36 36" fill="none" xmlns="http://www.w3.org/2000/svg">
<path d="M33.7058 9.76769H33.4276C32.5675 9.76668 31.7097 9.68191 30.8661 9.51456C30.022 9.34989 29.196 9.10284 28.4002 8.77696C26.4257 7.97134 24.2489 7.80312 22.1741 8.29584C21.8428 8.40093 21.5279 8.55217 21.2387 8.74511C21.0994 8.83822 20.9318 8.87949 20.7651 8.86172C20.5985 8.84395 20.4434 8.76828 20.3268 8.64788C20.0857 8.39499 19.809 8.17869 19.5054 8.00583C18.1219 7.3413 16.6062 6.99749 15.0714 7.00001C14.4865 7.0002 13.9027 7.05012 13.3263 7.14921C12.5773 7.27957 11.8184 7.34519 11.0582 7.34534C10.1657 7.34526 9.27559 7.2554 8.40114 7.07713L1.28331 15.6517L1 17.9768C2.11808 18.2554 3.26584 18.3973 4.4181 18.3993C5.0686 18.3991 5.71832 18.3543 6.36269 18.2652C7.61736 18.0919 8.89424 18.1781 10.1143 18.5184C11.3343 18.8586 12.4715 19.4457 13.4554 20.2433L16.1174 20.7143C16.8962 20.385 17.7328 20.2141 18.5783 20.2114H18.6437C18.8114 20.2114 18.9924 20.198 19.1667 20.198C20.911 20.1971 22.6294 20.6199 24.174 21.4301C25.4373 22.1548 26.8684 22.5357 28.3247 22.5349C28.4924 22.5349 28.66 22.5349 28.8276 22.5198L35 11.8313L33.7058 9.76769ZM21.2354 10.1231C21.4077 9.87613 21.6196 9.65922 21.8623 9.48103C22.0413 9.37165 22.2327 9.28387 22.4323 9.21952C23.123 9.05748 23.8301 8.97591 24.5395 8.97645C25.138 8.97502 25.7353 9.03115 26.3231 9.14408C26.9107 9.25932 27.4857 9.43168 28.0397 9.65873C28.7228 9.93592 29.4261 10.1601 30.1436 10.3293C30.8603 10.4969 31.5889 10.609 32.3228 10.6645C32.3691 10.6703 32.4116 10.6927 32.4425 10.7276C32.4734 10.7624 32.4904 10.8074 32.4905 10.854C32.4907 10.8875 32.482 10.9205 32.4653 10.9495L27.4094 19.7404C26.7584 19.593 26.1438 19.3159 25.6023 18.9257C23.9689 17.6865 22.0005 16.9674 19.953 16.8621C19.8289 16.8537 19.7032 16.8503 19.5775 16.8503C18.5617 16.8508 17.5586 17.0763 16.6405 17.5108C16.6192 17.5241 16.5947 17.5316 16.5696 17.5324C16.5445 17.5332 16.5196 17.5273 16.4974 17.5154C16.4753 17.5035 16.4567 17.4859 16.4436 17.4645C16.4304 17.4431 16.4232 17.4186 16.4225 17.3935C16.4224 17.3652 16.4312 17.3376 16.4477 17.3147L18.917 13.6099H24.4691C24.6475 13.8215 24.867 13.9948 25.1142 14.1192C25.3615 14.2435 25.6314 14.3165 25.9077 14.3336C26.184 14.3506 26.4608 14.3115 26.7215 14.2185C26.9823 14.1256 27.2214 13.9807 27.4245 13.7926L26.0482 13.4238L25.5453 12.5505L26.4187 12.0475L27.795 12.4163C27.6894 12.0696 27.4922 11.7579 27.2241 11.514C26.956 11.2701 26.627 11.1032 26.2718 11.0309C25.9167 10.9586 25.5486 10.9836 25.2065 11.1033C24.8644 11.2229 24.561 11.4327 24.3283 11.7106H20.1809L21.2354 10.1231ZM8.77833 8.11144C9.53207 8.23418 10.2945 8.29585 11.0582 8.29584C11.8724 8.29552 12.685 8.22541 13.4872 8.0863C14.6908 7.87427 15.9245 7.9039 17.1166 8.17347C17.7877 8.32397 18.4399 8.54887 19.0611 8.84401C19.535 9.12283 19.9123 9.5399 20.1424 10.0393L19.0377 11.6955H11.4672C11.2876 11.4852 11.0673 11.3135 10.8195 11.1906C10.5718 11.0676 10.3017 10.9961 10.0256 10.9803C9.74952 10.9645 9.47306 11.0047 9.2129 11.0985C8.95274 11.1923 8.71425 11.3378 8.51178 11.5262L9.88472 11.89L10.3876 12.7634L9.51425 13.2663L8.13628 12.8975C8.24089 13.2457 8.43796 13.5592 8.70651 13.8044C8.97507 14.0496 9.30508 14.2174 9.66142 14.29C10.0178 14.3625 10.3871 14.3372 10.7302 14.2165C11.0733 14.0959 11.3772 13.8845 11.6097 13.6049H17.7636L15.0395 17.6986C15.0175 17.7319 14.9886 17.7603 14.9548 17.7817C14.9211 17.8031 14.8831 17.8171 14.8435 17.8228C14.804 17.8285 14.7636 17.8258 14.7252 17.8148C14.6867 17.8037 14.651 17.7847 14.6205 17.7589C13.7892 17.0525 12.8428 16.4939 11.8226 16.1077C10.0838 15.4233 8.19039 15.2302 6.34928 15.5495C5.59974 15.6801 4.84032 15.7457 4.07948 15.7456C3.9504 15.7456 3.82132 15.7456 3.69056 15.7456C3.64813 15.7481 3.60559 15.7481 3.56316 15.7456C3.24651 15.7453 2.93905 15.6391 2.68977 15.4439L8.77833 8.11144ZM27.3491 21.3413C27.3178 21.3829 27.2774 21.4167 27.2308 21.44C27.1842 21.4633 27.1329 21.4754 27.0809 21.4754C27.0619 21.477 27.0428 21.477 27.0239 21.4754C26.5187 21.393 26.0266 21.2442 25.5604 21.0328C24.9558 20.73 24.3579 20.4109 23.7667 20.0756C23.1032 19.7386 22.4066 19.4712 21.688 19.2777C19.8145 18.7151 17.7981 18.8754 16.037 19.727L13.8577 19.3431C12.7847 18.5167 11.5581 17.9121 10.2491 17.5644C8.94023 17.2168 7.57521 17.133 6.23361 17.318C5.63206 17.4018 5.02545 17.4438 4.4181 17.4438H4.31082C3.66694 17.4374 3.02435 17.3847 2.38803 17.2862C2.30504 17.2778 2.22814 17.2389 2.17235 17.1769C2.11655 17.1149 2.08587 17.0343 2.08628 16.9509C2.08516 16.9062 2.09301 16.8617 2.10936 16.82C2.12571 16.7784 2.15022 16.7404 2.18147 16.7084C2.21271 16.6764 2.25005 16.6509 2.29129 16.6335C2.33252 16.6162 2.37681 16.6072 2.42156 16.6073H2.47352C3.00398 16.6667 3.53731 16.697 4.0711 16.6978C4.21191 16.6978 4.35273 16.6978 4.49354 16.6978C5.16799 16.6771 5.84018 16.6094 6.50518 16.4949C7.81436 16.266 9.15749 16.3217 10.4433 16.6581C11.729 16.9945 12.9273 17.6038 13.9566 18.4445L15.9884 18.8033C16.8981 18.3263 17.9099 18.0772 18.9371 18.0774C19.0343 18.0774 19.1299 18.0774 19.2254 18.0774H19.3713C21.4197 18.0756 23.4263 18.6571 25.1564 19.7538C25.7198 20.1345 26.3431 20.4179 27.0004 20.592C27.0759 20.6154 27.1452 20.6554 27.2032 20.709C27.2612 20.7627 27.3065 20.8287 27.3357 20.9021C27.3782 20.9637 27.401 21.0368 27.401 21.1116C27.4083 21.1918 27.3901 21.2721 27.3491 21.3413ZM28.5024 21.1737L28.1168 20.4109L33.3002 11.4357C33.317 11.4075 33.3408 11.3843 33.3693 11.3681C33.3978 11.3519 33.43 11.3434 33.4628 11.3434C33.4955 11.3434 33.5278 11.3519 33.5563 11.3681C33.5848 11.3843 33.6086 11.4075 33.6254 11.4357L33.8249 11.7542C33.8434 11.7845 33.8532 11.8193 33.8534 11.8548C33.8536 11.8883 33.8449 11.9212 33.8282 11.9503L28.5024 21.1737Z" fill="#333333"/>
<path d="M13.8036 28.68V30H8.51359V28.95L11.2136 26.4C11.5003 26.1267 11.6936 25.8933 11.7936 25.7C11.8936 25.5 11.9436 25.3033 11.9436 25.11C11.9436 24.83 11.8469 24.6167 11.6536 24.47C11.4669 24.3167 11.1903 24.24 10.8236 24.24C10.5169 24.24 10.2403 24.3 9.99359 24.42C9.74693 24.5333 9.54026 24.7067 9.37359 24.94L8.19359 24.18C8.46693 23.7733 8.84359 23.4567 9.32359 23.23C9.80359 22.9967 10.3536 22.88 10.9736 22.88C11.4936 22.88 11.9469 22.9667 12.3336 23.14C12.7269 23.3067 13.0303 23.5467 13.2436 23.86C13.4636 24.1667 13.5736 24.53 13.5736 24.95C13.5736 25.33 13.4936 25.6867 13.3336 26.02C13.1736 26.3533 12.8636 26.7333 12.4036 27.16L10.7936 28.68H13.8036Z" fill="#333333"/>
<path d="M16.872 25.63C17.8587 25.63 18.5854 25.8267 19.052 26.22C19.5254 26.6133 19.762 27.14 19.762 27.8C19.762 28.2267 19.6554 28.6167 19.442 28.97C19.2287 29.3167 18.902 29.5967 18.462 29.81C18.0287 30.0167 17.492 30.12 16.852 30.12C16.3587 30.12 15.872 30.0567 15.392 29.93C14.9187 29.7967 14.5154 29.61 14.182 29.37L14.822 28.13C15.0887 28.33 15.3954 28.4867 15.742 28.6C16.0887 28.7067 16.4454 28.76 16.812 28.76C17.2187 28.76 17.5387 28.68 17.772 28.52C18.0054 28.36 18.122 28.1367 18.122 27.85C18.122 27.55 17.9987 27.3233 17.752 27.17C17.512 27.0167 17.092 26.94 16.492 26.94H14.702L15.062 23H19.332V24.3H16.412L16.302 25.63H16.872Z" fill="#333333"/>
<path d="M23.4193 30.12C22.8393 30.12 22.3226 29.9767 21.8693 29.69C21.416 29.4033 21.0593 28.99 20.7993 28.45C20.546 27.9033 20.4193 27.2533 20.4193 26.5C20.4193 25.7467 20.546 25.1 20.7993 24.56C21.0593 24.0133 21.416 23.5967 21.8693 23.31C22.3226 23.0233 22.8393 22.88 23.4193 22.88C23.9993 22.88 24.516 23.0233 24.9693 23.31C25.4226 23.5967 25.776 24.0133 26.0293 24.56C26.2893 25.1 26.4193 25.7467 26.4193 26.5C26.4193 27.2533 26.2893 27.9033 26.0293 28.45C25.776 28.99 25.4226 29.4033 24.9693 29.69C24.516 29.9767 23.9993 30.12 23.4193 30.12ZM23.4193 28.75C23.846 28.75 24.1793 28.5667 24.4193 28.2C24.666 27.8333 24.7893 27.2667 24.7893 26.5C24.7893 25.7333 24.666 25.1667 24.4193 24.8C24.1793 24.4333 23.846 24.25 23.4193 24.25C22.9993 24.25 22.666 24.4333 22.4193 24.8C22.1793 25.1667 22.0593 25.7333 22.0593 26.5C22.0593 27.2667 22.1793 27.8333 22.4193 28.2C22.666 28.5667 22.9993 28.75 23.4193 28.75Z" fill="#333333"/>
</svg>
