<svg width="36" height="36" viewBox="0 0 36 36" fill="none" xmlns="http://www.w3.org/2000/svg">
<path d="M3.21753 7.0189L6.36459 10.1542L4.74577 11.768L10.3823 11.7798L10.3689 6.16503L8.73831 7.78889L5.59125 4.65356L3.21753 7.0189ZM12.9171 13.0731L18.515 18.6476C19.1303 18.3092 19.8398 18.1824 20.5343 18.2867C21.2287 18.3911 21.8696 18.7208 22.3583 19.2252C22.8469 19.7295 23.1563 20.3805 23.2387 21.0779C23.321 21.7752 23.1719 22.4804 22.8142 23.0847C22.4566 23.689 21.9102 24.159 21.2592 24.4224C20.6082 24.6857 19.8887 24.7277 19.2114 24.542C18.5342 24.3563 17.9368 23.9531 17.5111 23.3946C17.0855 22.836 16.8553 22.153 16.8559 21.4508C16.8555 20.9084 16.9935 20.3749 17.2569 19.9007L11.6606 14.3246C10.155 16.0928 9.24466 18.2904 9.05872 20.6053H11.1154V22.3768H9.05872C9.2469 24.6913 10.1616 26.8872 11.6723 28.6508L13.1268 27.2014L14.3849 28.4545L11.6421 31.1822C9.65968 29.4567 8.25139 27.167 7.60563 24.6194C6.95988 22.0718 7.10746 19.3877 8.02863 16.9262C8.94981 14.4648 10.6006 12.3433 12.7603 10.8456C14.92 9.34783 17.4855 8.54529 20.1137 8.54529C22.7419 8.54529 25.3074 9.34783 27.4671 10.8456C29.6268 12.3433 31.2776 14.4648 32.1988 16.9262C33.12 19.3877 33.2675 22.0718 32.6218 24.6194C31.976 27.167 30.5677 29.4567 28.5853 31.1822L25.8459 28.4528L27.1023 27.2014L28.5568 28.6491C30.0663 26.8844 30.9798 24.6881 31.167 22.3734H29.1104V20.5986H31.1704C30.9836 18.2833 30.07 16.0863 28.5601 14.3212L27.1023 15.7689L25.8442 14.5175L27.3036 13.0631C25.5263 11.5576 23.3213 10.6481 20.9994 10.4629V12.5263H19.2213V10.4679C16.8988 10.6544 14.6936 11.5657 12.9171 13.0731Z" fill="#333333"/>
</svg>
