<svg width="36" height="36" viewBox="0 0 36 36" fill="none" xmlns="http://www.w3.org/2000/svg">
<path d="M27.7104 9.94483C27.1642 9.94483 26.7173 9.49793 26.7173 8.95172V6.96552H24.7311C24.1848 6.96552 23.7379 6.51862 23.7379 5.97241C23.7379 5.42621 24.1848 4.97931 24.7311 4.97931H26.7173V2.9931C26.7173 2.4469 27.1642 2 27.7104 2C28.2566 2 28.7035 2.4469 28.7035 2.9931V4.97931H30.6897C31.2359 4.97931 31.6828 5.42621 31.6828 5.97241C31.6828 6.51862 31.2359 6.96552 30.6897 6.96552H28.7035V8.95172C28.7035 9.49793 28.2566 9.94483 27.7104 9.94483Z" fill="#333333"/>
<path fill-rule="evenodd" clip-rule="evenodd" d="M7.18623 5.31034H18.6621L27.269 13.9172V31.131C27.269 32.709 25.9779 34 24.4 34H7.17189C5.59396 34 4.31726 32.709 4.31726 31.131L4.33159 8.17931C4.33159 6.60138 5.6083 5.31034 7.18623 5.31034ZM17.2276 15.3517V7.46207L25.1173 15.3517H17.2276ZM17.4306 29.5776C19.7457 28.3561 20.15 25.9386 19.3503 24.0233L19.0674 23.3457C17.3086 24.6569 16.7662 25.8776 16.5575 27.0741C16.3642 26.5369 16.1695 25.9991 15.9703 25.4655C15.8711 25.1995 15.7748 24.9457 15.68 24.6966C17.7864 23.439 18.1413 21.1259 17.3689 19.2767L17.0859 18.5983C15.4675 19.8043 14.8796 20.935 14.6326 22.0397C14.271 21.1577 13.9682 20.4569 13.7308 19.9284C15.8078 18.6665 16.1547 16.3681 15.3867 14.5284L15.1037 13.85C12.674 15.6609 12.5623 17.3007 12.4506 18.9396C11.2063 17.8666 9.96113 16.7934 6.96554 17.2483L7.24851 17.9267C8.03051 19.7994 9.96271 21.1869 12.3807 20.5129C12.6343 21.0774 12.9679 21.8493 13.3722 22.8422C12.3726 22.1455 11.124 21.6648 8.947 21.9948L9.22992 22.6733C10.0075 24.5364 11.9243 25.9179 14.3247 25.269L14.3605 25.3638L14.4606 25.6276L14.5922 25.9793C14.7243 26.3321 14.8513 26.6874 14.9784 27.0431L15.1192 27.4371C14.1564 26.8271 12.9407 26.4372 10.9284 26.7422L11.2114 27.4207C11.961 29.2162 13.7668 30.5672 16.0452 30.0836C16.2129 30.5778 16.3781 31.0714 16.5406 31.5638H18.0892C17.9695 31.1957 17.8502 30.8319 17.7326 30.4776C17.6304 30.169 17.5294 29.8681 17.4306 29.5776ZM11.3738 16.3681C11.5465 15.8301 11.8096 15.2754 12.1999 14.7095C11.0754 12.7618 9.61726 12.1595 9.61726 12.1595C9.61726 12.1595 9.01975 13.6199 9.6136 15.7888C10.2905 15.9086 10.8703 16.1123 11.3738 16.3681Z" fill="#333333"/>
</svg>
