<svg width="36" height="36" viewBox="0 0 36 36" fill="none" xmlns="http://www.w3.org/2000/svg">
<path d="M16.1105 6.20435C15.4669 7.13757 15.033 8.05261 14.7482 8.93978C13.918 8.51801 12.9618 8.1823 11.8455 7.98474C10.8662 4.4082 11.8516 2 11.8516 2C11.8516 2 14.2561 2.99261 16.1105 6.20435Z" fill="#333333"/>
<path d="M24.7361 30.7251C28.5538 28.7108 29.2204 24.7246 27.9018 21.5662L27.4352 20.4475C24.5349 22.6097 23.6405 24.6228 23.2963 26.5959C22.9775 25.7099 22.6564 24.824 22.3279 23.9441C22.1643 23.5054 22.0055 23.086 21.8492 22.6752C25.3227 20.6015 25.9081 16.7874 24.6343 13.738L24.1677 12.6194C21.4989 14.6082 20.5293 16.4723 20.1221 18.2939C19.5258 16.8395 19.0265 15.6845 18.635 14.8131C22.0601 12.7321 22.6321 8.94224 21.3656 5.90866L20.899 4.79001C16.8923 7.77625 16.708 10.4801 16.5238 13.1828C14.472 11.4133 12.4186 9.64279 7.47876 10.393L7.94537 11.5116C9.23491 14.5997 12.4212 16.888 16.4086 15.7766C16.8267 16.7074 17.377 17.98 18.0436 19.6173C16.3953 18.4684 14.3361 17.677 10.7463 18.2211L11.2129 19.3398C12.4951 22.4122 15.656 24.6907 19.6143 23.6205C19.6339 23.6723 19.6536 23.7242 19.6733 23.7762C19.7985 24.1064 19.9256 24.4416 20.0554 24.7913C20.2733 25.3731 20.4827 25.9594 20.6923 26.546C20.7695 26.7622 20.8467 26.9785 20.9244 27.1946C19.3367 26.1887 17.3321 25.5463 14.0137 26.0493L14.4804 27.168C15.7166 30.1288 18.6944 32.3564 22.4515 31.5589C22.7281 32.3739 23.0005 33.1881 23.2684 34H25.8221C25.453 32.864 25.0862 31.7557 24.7361 30.7251Z" fill="#333333"/>
</svg>
