<svg width="36" height="36" viewBox="0 0 36 36" fill="none" xmlns="http://www.w3.org/2000/svg">
<path fill-rule="evenodd" clip-rule="evenodd" d="M7.97817 30.3114C8.90405 30.9301 9.99257 31.2603 11.1061 31.2603C12.5987 31.2584 14.0297 30.6646 15.0852 29.6092C16.1406 28.5537 16.7344 27.1228 16.7363 25.6302C16.7363 24.5166 16.4061 23.4281 15.7875 22.5022C15.1688 21.5763 14.2895 20.8547 13.2607 20.4286C12.2319 20.0025 11.0999 19.8909 10.0077 20.1082C8.91557 20.3254 7.91241 20.8617 7.12502 21.6491C6.33763 22.4365 5.80137 23.4396 5.58413 24.5318C5.36689 25.6239 5.47843 26.7559 5.90456 27.7847C6.3307 28.8135 7.0523 29.6928 7.97817 30.3114ZM9.761 26.8086H11.2619L11.3571 26.8071C12.303 26.8071 13.3593 26.1185 13.3561 24.8135C13.3559 24.7498 13.3534 24.6878 13.3486 24.6274C13.3484 24.6249 13.3482 24.6224 13.348 24.6199C13.2513 23.4463 12.3019 22.8801 11.369 22.8801H8.98377V29.2588H9.761V26.8086ZM11.3419 26.0274C11.8388 26.0274 12.4259 25.504 12.4647 24.8969C12.4667 24.8651 12.4672 24.833 12.4661 24.8008C12.461 24.6477 12.4377 24.512 12.3996 24.3925C12.2526 23.9309 11.8864 23.7113 11.5072 23.6691C11.461 23.6639 11.4145 23.6614 11.3682 23.6614L11.3147 23.6572H9.761V26.0315H11.2619L11.3419 26.0274ZM6.08126 30.6544C5.42142 29.9945 4.89801 29.2112 4.5409 28.3491C4.1838 27.487 4 26.563 4 25.6299C4 24.6968 4.1838 23.7728 4.5409 22.9107C4.89801 22.0486 5.42142 21.2653 6.08126 20.6055L6.72096 21.2452C5.55877 22.4075 4.90587 23.9838 4.90587 25.6275C4.90587 27.2712 5.55877 28.8475 6.72096 30.0099L6.08126 30.6544ZM17.6712 28.3493C17.3139 29.2114 16.7902 29.9947 16.1301 30.6544L15.4904 30.0099C16.6526 28.8475 17.3055 27.2712 17.3055 25.6275C17.3055 23.9838 16.6526 22.4075 15.4904 21.2452L16.1301 20.6055C16.7902 21.2651 17.3139 22.0484 17.6712 22.9105C18.0284 23.7726 18.2123 24.6967 18.2123 25.6299C18.2123 26.5631 18.0284 27.4872 17.6712 28.3493Z" fill="#333333"/>
<path d="M12.4661 24.8008C12.461 24.6477 12.4377 24.512 12.3996 24.3925C12.286 24.0356 12.0413 23.8233 11.761 23.7258C11.6789 23.6972 11.5933 23.6786 11.5072 23.6691C11.461 23.6639 11.4145 23.6614 11.3682 23.6614L11.3147 23.6572H9.761V26.0315H11.2619L11.3419 26.0274L11.3451 26.0271L11.3571 26.027C11.4898 26.0241 11.6284 25.9846 11.761 25.9165C12.1213 25.7315 12.4365 25.3361 12.4647 24.8969C12.4664 24.8701 12.467 24.8426 12.4665 24.8154L12.4661 24.8008Z" fill="#333333"/>
<path fill-rule="evenodd" clip-rule="evenodd" d="M8.86714 18.3357C9.11314 18.2601 9.36356 18.1969 9.61754 18.1464C11.0977 17.852 12.6319 18.0031 14.0261 18.5806C14.3267 18.7051 14.6179 18.8483 14.8981 19.0088L16.1296 17.7773L17.5438 19.1905C18.3898 20.0359 19.0609 21.0397 19.5188 22.1446C19.9767 23.2494 20.2123 24.4337 20.2123 25.6297C20.2123 26.8257 19.9767 28.0099 19.5188 29.1148C19.0609 30.2197 18.3898 31.2235 17.5438 32.0689L16.9588 32.6534H25.226V30.6444H24.0054V16.0766C24.5239 16.0789 25.0205 16.2915 25.3867 16.6679C25.7528 17.0444 25.9589 17.554 25.9598 18.0856V25.4492C26.0379 26.6167 26.556 27.7073 27.4045 28.4903C28.2529 29.2732 29.3651 29.687 30.5059 29.6443C31.6466 29.6015 32.7264 29.1055 33.5168 28.2611C34.3071 27.4167 34.7462 26.2902 34.7409 25.1199C34.7412 24.9211 34.7285 24.7224 34.7029 24.5252L33.3217 12.7241L34.9999 11.8709C34.1372 9.89475 32.8906 8.11962 31.3363 6.65394C29.782 5.18825 27.9526 4.06276 25.9598 3.34619V5.35523C27.3342 5.9062 28.5473 6.81015 29.4828 7.98029C30.4182 9.15043 31.0446 10.5475 31.3017 12.0373L32.7589 24.7128C32.7796 24.8475 32.79 24.9836 32.7899 25.1199C32.7897 25.7621 32.5487 26.3796 32.1168 26.8447C31.685 27.3099 31.0952 27.587 30.4696 27.6188C29.844 27.6507 29.2304 27.4348 28.7558 27.0158C28.2811 26.5968 27.9816 26.0067 27.9194 25.3678V18.0856C27.9203 17.0214 27.5092 16.0002 26.7763 15.2465C26.0434 14.4928 25.0486 14.0681 24.0105 14.0658V6.02963C24.011 5.70025 23.9482 5.374 23.8256 5.06951C23.7031 4.76503 23.5233 4.48826 23.2964 4.25503C23.0696 4.02179 22.8001 3.83665 22.5035 3.71017C22.2068 3.58369 21.8888 3.51835 21.5675 3.51789H11.3102C10.9888 3.51812 10.6707 3.5833 10.3739 3.7097C10.0772 3.83609 9.80765 4.02123 9.58075 4.25451C9.35385 4.48779 9.17403 4.76465 9.05158 5.06924C8.92914 5.37383 8.86646 5.70019 8.86714 6.02963V18.3357ZM10.8216 5.52693H22.0578V14.0658H10.8216V5.52693Z" fill="#333333"/>
<path d="M16.2617 22.1851C16.0378 21.8497 15.7797 21.5346 15.4904 21.2452L16.1301 20.6055L16.1338 20.609C16.4625 20.9379 16.7572 21.2975 17.0144 21.6822C17.1314 21.8571 17.2406 22.0373 17.3416 22.2221C17.4635 22.445 17.5735 22.6749 17.6712 22.9105C18.0281 23.7719 18.212 24.6949 18.2123 25.6273L18.2123 25.6299L18.2123 25.6318C18.2121 26.5643 18.0282 27.4879 17.6712 28.3493C17.5737 28.5845 17.4638 28.8137 17.3422 29.0363C17.0185 29.6284 16.6115 30.1726 16.1325 30.6517L16.1301 30.6544L15.4904 30.0099C16.0708 29.4294 16.5242 28.7454 16.8327 28.0016C17.1414 27.2571 17.305 26.4513 17.3055 25.6297V25.6275C17.3055 24.8062 17.1425 24.0015 16.8343 23.2571C16.6794 22.8827 16.4878 22.5236 16.2617 22.1851Z" fill="#333333"/>
<path fill-rule="evenodd" clip-rule="evenodd" d="M13.348 24.6199C13.2534 23.4712 12.342 22.9043 11.4288 22.8807C11.4108 22.8802 11.3929 22.88 11.375 22.8799L11.369 22.8801C12.3019 22.8801 13.2513 23.4463 13.348 24.6199ZM11.3419 26.0274C11.8388 26.0274 12.4259 25.504 12.4647 24.8969C12.4664 24.8701 12.467 24.8426 12.4665 24.8154L12.4661 24.8008C12.461 24.6477 12.4377 24.512 12.3996 24.3925C12.286 24.0356 12.0413 23.8233 11.761 23.7258C11.6789 23.6972 11.5933 23.6786 11.5072 23.6691C11.461 23.6639 11.4145 23.6614 11.3682 23.6614L11.3147 23.6572H9.761V26.0315H11.2619L11.3419 26.0274Z" fill="#333333"/>
</svg>
