<svg width="36" height="36" viewBox="0 0 36 36" fill="none" xmlns="http://www.w3.org/2000/svg">
<path d="M7.7894 27.1602V25.9092H3.57258L6.0758 24.4577L5.45247 23.374L0 26.5347L5.45247 29.6943L6.0758 28.6106L3.57258 27.1602H7.7894Z" fill="#333333"/>
<path d="M19.5062 28.5141L22.1217 26.5318L21.0204 24.1607H17.1935V22H7.43936V22.6255H7.80279L9.06706 27.3611H11.2388V28.0351H10.7322L6.71802 31.0691H9.49326C9.71125 31.0685 9.9201 30.9814 10.0739 30.827C10.2278 30.6725 10.314 30.4633 10.3137 30.2453C10.3141 30.1854 10.3078 30.1255 10.295 30.0669H11.2773C11.5502 30.4665 11.9422 30.7697 12.3975 30.9335C12.8528 31.0972 13.3482 31.1131 13.813 30.9788C14.2779 30.8446 14.6885 30.5671 14.9864 30.1858C15.2843 29.8046 15.4543 29.339 15.4722 28.8555H16.96L17.4148 29.3114C17.3233 29.5097 17.2862 29.7288 17.3073 29.9461C17.3284 30.1634 17.4069 30.3712 17.5348 30.5482C17.6626 30.7253 17.8353 30.8651 18.035 30.9534C18.2347 31.0416 18.4543 31.0752 18.6712 31.0507C18.8882 31.0261 19.0948 30.9443 19.2697 30.8136C19.4446 30.6829 19.5817 30.5081 19.6667 30.307C19.7518 30.1059 19.7819 29.8858 19.7539 29.6692C19.7258 29.4527 19.6407 29.2475 19.5073 29.0747L19.5062 28.5141Z" fill="#333333"/>
<path fill-rule="evenodd" clip-rule="evenodd" d="M8.86714 20H19.1933V22.1607H22.2966L23.5 25.5V28L21.727 29.3403C21.7307 29.3644 21.7341 29.3884 21.7372 29.4126C21.8107 29.9809 21.7318 30.5585 21.5085 31.0863C21.2852 31.614 20.9256 32.0729 20.4665 32.4159C20.3492 32.5036 20.2264 32.5829 20.0991 32.6534H25.226V30.6444H24.0054V27.6136V25.8397V16.0766C24.5239 16.0789 25.0205 16.2915 25.3867 16.6679C25.7528 17.0444 25.9589 17.554 25.9598 18.0856V25.4492C26.0379 26.6167 26.556 27.7073 27.4045 28.4903C28.2529 29.2732 29.3651 29.687 30.5059 29.6443C31.6466 29.6015 32.7264 29.1055 33.5168 28.2611C34.3072 27.4167 34.7462 26.2902 34.7409 25.1199C34.7412 24.9211 34.7285 24.7224 34.7029 24.5252L33.3217 12.7241L34.9999 11.8709C34.1372 9.89475 32.8906 8.11962 31.3363 6.65394C29.782 5.18825 27.9526 4.06276 25.9598 3.34619V5.35523C27.3342 5.9062 28.5473 6.81015 29.4828 7.98029C30.4182 9.15043 31.0446 10.5475 31.3017 12.0373L32.7589 24.7128C32.7796 24.8475 32.79 24.9836 32.7899 25.1199C32.7897 25.7621 32.5487 26.3796 32.1168 26.8447C31.685 27.3099 31.0952 27.587 30.4696 27.6188C29.844 27.6507 29.2304 27.4348 28.7558 27.0158C28.2811 26.5968 27.9816 26.0067 27.9194 25.3678V18.0856C27.9203 17.0214 27.5092 16.0002 26.7763 15.2465C26.0434 14.4928 25.0486 14.0681 24.0105 14.0658V6.02963C24.011 5.70025 23.9482 5.374 23.8256 5.06951C23.7031 4.76503 23.5233 4.48826 23.2964 4.25503C23.0696 4.02179 22.8001 3.83665 22.5035 3.71017C22.2068 3.58369 21.8888 3.51835 21.5675 3.51789H11.3102C10.9888 3.51812 10.6707 3.5833 10.3739 3.7097C10.0772 3.83609 9.80765 4.02123 9.58075 4.25451C9.35385 4.48779 9.17403 4.76465 9.05158 5.06924C8.92914 5.37383 8.86646 5.70019 8.86714 6.02963V20ZM22.0578 5.52693H10.8216V14.0658H22.0578V5.52693Z" fill="#333333"/>
</svg>
