<svg width="36" height="36" viewBox="0 0 36 36" fill="none" xmlns="http://www.w3.org/2000/svg">
<path fill-rule="evenodd" clip-rule="evenodd" d="M8.86726 16.6292H17.462V19.8653H21.3392L23.3186 25.1479L20.307 27.0027C20.6994 27.6477 20.9263 28.4058 20.9263 29.2178C20.9263 30.6264 20.2438 31.8764 19.191 32.6537H25.2261V30.6446H24.0055V16.0769C24.524 16.0792 25.0206 16.2918 25.3868 16.6682C25.753 17.0446 25.959 17.5543 25.9599 18.0859V25.4494C26.038 26.617 26.5561 27.7076 27.4046 28.4905C28.253 29.2734 29.3652 29.6873 30.506 29.6445C31.6467 29.6017 32.7265 29.1057 33.5169 28.2613C34.3073 27.417 34.7463 26.2905 34.741 25.1202C34.7413 24.9213 34.7286 24.7226 34.703 24.5254L33.3218 12.7243L35 11.8711C34.1373 9.89499 32.8907 8.11987 31.3364 6.65418C29.7821 5.18849 27.9527 4.063 25.9599 3.34644V5.35548C27.3343 5.90645 28.5474 6.8104 29.4829 7.98054C30.4184 9.15068 31.0447 10.5477 31.3018 12.0375L32.759 24.7131C32.7798 24.8477 32.7901 24.9839 32.7901 25.1202C32.7898 25.7624 32.5488 26.3799 32.117 26.845C31.6851 27.3101 31.0954 27.5873 30.4698 27.6191C29.8442 27.6509 29.2305 27.435 28.7559 27.016C28.2812 26.597 27.9818 26.007 27.9195 25.368V18.0859C27.9204 17.0216 27.5093 16.0005 26.7764 15.2468C26.0435 14.4931 25.0487 14.0684 24.0107 14.066V6.02988C24.0111 5.70049 23.9483 5.37425 23.8257 5.06976C23.7032 4.76527 23.5234 4.48851 23.2965 4.25527C23.0697 4.02203 22.8002 3.83689 22.5036 3.71041C22.2069 3.58393 21.8889 3.5186 21.5676 3.51813H11.3103C10.989 3.51837 10.6708 3.58354 10.3741 3.70994C10.0773 3.83634 9.80778 4.02147 9.58087 4.25475C9.35397 4.48804 9.17415 4.76489 9.05171 5.06948C8.92926 5.37408 8.86658 5.70043 8.86726 6.02988V16.6292ZM10.8217 5.52717H22.0579V14.066H10.8217V5.52717Z" fill="#333333"/>
<path d="M9.91872 26.3669C9.8918 26.3849 9.86328 26.4 9.83363 26.4122C9.77572 26.436 9.71348 26.4484 9.65038 26.4484C9.61878 26.4484 9.58752 26.4453 9.55701 26.4393C9.46435 26.421 9.37858 26.3759 9.31087 26.3088L9.30907 26.307C9.24156 26.2395 9.19637 26.1541 9.17791 26.0622C9.17171 26.0314 9.16852 25.9997 9.16852 25.9678C9.16852 25.904 9.18125 25.8412 9.20565 25.7828C9.21749 25.7545 9.23208 25.7272 9.2493 25.7014C9.28491 25.6481 9.33076 25.6026 9.38403 25.5673C9.40956 25.5504 9.4368 25.5359 9.46544 25.5241C9.52439 25.4996 9.58727 25.4872 9.65038 25.4872C9.68191 25.4872 9.7135 25.4903 9.7447 25.4965C9.83751 25.515 9.92277 25.5603 9.98989 25.6268L9.99169 25.6286C10.059 25.6959 10.1046 25.7815 10.123 25.8744C10.1292 25.9053 10.1322 25.9366 10.1322 25.9678C10.1322 26.0304 10.12 26.0928 10.0958 26.1512C10.0834 26.1811 10.0681 26.2095 10.0502 26.2361C10.0156 26.2873 9.97108 26.3319 9.91872 26.3669Z" fill="#333333"/>
<path fill-rule="evenodd" clip-rule="evenodd" d="M4.55596 25.9377L2.73038 18.6292H15.462V21.8653H19.9528L20.8682 24.3082L17.7715 26.2155V27.2414C18.4603 27.6299 18.9263 28.369 18.9263 29.2179C18.9263 30.4701 17.9121 31.4851 16.6609 31.4851C15.4098 31.4851 14.3955 30.4701 14.3955 29.2179C14.3955 28.6529 14.6023 28.136 14.9435 27.7393L14.6123 27.3246H12.6905V28.7556C12.6905 30.2631 11.4694 31.4851 9.96317 31.4851C8.59897 31.4851 7.4687 30.4827 7.26765 29.1737H6.06415L5.37128 30.5605H1.41779C1.23732 30.5605 1.07725 30.4446 1.02091 30.273C0.964567 30.1014 1.02469 29.913 1.16997 29.8059L5.66867 26.4883H6.77394V25.9377H4.55596ZM9.65038 24.4484C9.35012 24.4484 9.0566 24.5375 8.80694 24.7044C8.55728 24.8714 8.3627 25.1088 8.2478 25.3865C8.13289 25.6641 8.10283 25.9696 8.1614 26.2643C8.21998 26.5591 8.36457 26.8298 8.57689 27.0423C8.7892 27.2548 9.05971 27.3995 9.3542 27.4581C9.64869 27.5167 9.95394 27.4867 10.2313 27.3717C10.5088 27.2567 10.7459 27.0619 10.9127 26.812C11.0795 26.5621 11.1685 26.2684 11.1685 25.9679C11.1685 25.5649 11.0086 25.1784 10.7239 24.8935C10.4392 24.6085 10.053 24.4484 9.65038 24.4484ZM7.13029 22.5096L7.5384 21.6311L7.08117 21.4166L6.01311 23.7127L8.52787 23.4919L8.48412 22.9905L7.19726 23.0995C7.92176 22.4797 8.85333 22.1565 9.80568 22.1944C10.758 22.2324 11.661 22.6287 12.334 23.3042L12.6912 22.9468C11.9688 22.2219 11.0113 21.7793 9.99147 21.6992C8.97166 21.619 7.95682 21.9064 7.13029 22.5096ZM19.6633 23.4251L18.7754 24.1052L18.32 23.4983L17.3108 24.2598L16.8545 23.6539L15.8463 24.4154L15.3908 23.8093L13.0243 25.5996L13.1895 26.2251L17.5787 25.9857V25.7248L20.0088 24.1885L19.6633 23.4251Z" fill="#333333"/>
</svg>
