<svg width="36" height="36" viewBox="0 0 36 36" fill="none" xmlns="http://www.w3.org/2000/svg">
<path d="M1.92212 31.3282H11.9444V30.2112H1.92212V31.3282ZM24.1911 4.55756H34.2036V5.67464H24.1911V4.55756ZM8.04545 28.5404V7.90488C8.04545 7.46159 8.22141 7.03644 8.53467 6.72281C8.84794 6.40918 9.27288 6.23272 9.71616 6.2322H15.2839C15.7263 6.23376 16.1501 6.41074 16.4622 6.72431C16.7743 7.03789 16.9492 7.46245 16.9487 7.90488V27.9829C16.9479 28.4958 17.0483 29.0039 17.2442 29.478C17.44 29.9521 17.7274 30.3829 18.0899 30.7458C18.4524 31.1087 18.8829 31.3965 19.3568 31.5928C19.8307 31.7891 20.3387 31.89 20.8516 31.8897H26.4174C27.4518 31.8887 28.4436 31.477 29.1746 30.7452C29.9057 30.0134 30.3164 29.0212 30.3164 27.9868V13.7416L32.0067 16.6727L33.9346 15.5576L29.2013 7.34928L24.4699 15.5595L26.3978 16.6746L28.0881 13.7435V27.9829C28.0881 28.4262 27.9122 28.8513 27.5989 29.1649C27.2856 29.4786 26.8607 29.655 26.4174 29.6556H20.8516C20.4084 29.655 19.9834 29.4786 19.6701 29.1649C19.3569 28.8513 19.1809 28.4262 19.1809 27.9829V7.90488C19.1814 6.87044 18.7713 5.8781 18.0406 5.14591C17.3098 4.41372 16.3183 4.00156 15.2839 4H9.71616C8.68173 4.00156 7.69022 4.41372 6.9595 5.14591C6.22878 5.8781 5.81862 6.87044 5.81914 7.90488V28.5404H8.04545Z" fill="#333333"/>
</svg>
