<svg width="36" height="36" viewBox="0 0 36 36" fill="none" xmlns="http://www.w3.org/2000/svg">
<path d="M4 18.2104V31.9999H11.7059V18.2104H4ZM8.42669 25.6226C8.78414 25.9889 9.10874 26.3875 9.39655 26.8136C9.68572 27.2392 9.9365 27.6911 10.1458 28.1635C10.5681 29.11 10.8214 30.1267 10.8936 31.1652H4.81228C4.95531 29.0716 5.8323 27.1024 7.28062 25.6226C7.39191 25.4752 7.45231 25.294 7.45231 25.1074C7.45231 24.9208 7.39191 24.7396 7.28062 24.5921C6.92239 24.2262 6.59728 23.8276 6.30933 23.4012C6.02096 22.9737 5.77068 22.5205 5.56152 22.0468C5.35054 21.5729 5.18222 21.0801 5.05868 20.5747C4.93326 20.072 4.8527 19.5585 4.81801 19.0407H10.8993C10.8264 20.0812 10.5712 21.0996 10.1458 22.0468C9.93664 22.5191 9.68635 22.9709 9.39799 23.3968C9.11008 23.8232 8.78497 24.2219 8.42669 24.5877C8.3154 24.7351 8.255 24.9164 8.255 25.103C8.255 25.2895 8.3154 25.4708 8.42669 25.6182V25.6226Z" fill="#333333"/>
<path d="M3 3V10.183L10.1894 3H3Z" fill="#333333"/>
<path d="M14 25.843V18.9722L29.9785 3H33.4211V6.42966L14 25.843Z" fill="#333333"/>
<path d="M3.63124 16L16.6415 3H23.5265L10.5156 16H3.63124Z" fill="#333333"/>
<path d="M14 33.3975V32.293L33.4211 12.8881V19.7646L19.7796 33.3975H14Z" fill="#333333"/>
<path d="M33.4211 26.2123L26.2316 33.3975H33.4211V26.2123Z" fill="#333333"/>
</svg>
