<svg width="36" height="36" viewBox="0 0 36 36" fill="none" xmlns="http://www.w3.org/2000/svg">
<path d="M5 19.2104V32.9999H12.7059V19.2104H5ZM9.42669 26.6226C9.78414 26.9889 10.1087 27.3875 10.3966 27.8136C10.6857 28.2392 10.9365 28.6911 11.1458 29.1635C11.5681 30.11 11.8214 31.1267 11.8936 32.1652H5.81228C5.95531 30.0716 6.8323 28.1024 8.28062 26.6226C8.39191 26.4752 8.45231 26.294 8.45231 26.1074C8.45231 25.9208 8.39191 25.7396 8.28062 25.5921C7.92239 25.2262 7.59728 24.8276 7.30933 24.4012C7.02096 23.9737 6.77068 23.5205 6.56152 23.0468C6.35054 22.5729 6.18222 22.0801 6.05868 21.5747C5.93326 21.072 5.8527 20.5585 5.81801 20.0407H11.8993C11.8264 21.0812 11.5712 22.0996 11.1458 23.0468C10.9366 23.5191 10.6864 23.9709 10.398 24.3968C10.1101 24.8232 9.78497 25.2219 9.42669 25.5877C9.3154 25.7351 9.255 25.9164 9.255 26.103C9.255 26.2895 9.3154 26.4708 9.42669 26.6182V26.6226Z" fill="#333333"/>
<path fill-rule="evenodd" clip-rule="evenodd" d="M15 34H24.9951V31.9435H23.7456V17.0313C24.2764 17.0337 24.7847 17.2513 25.1595 17.6367C25.5344 18.022 25.7453 18.5437 25.7462 19.0879V26.6255C25.8262 27.8206 26.3565 28.937 27.225 29.7384C28.0935 30.5399 29.232 30.9635 30.3997 30.9197C31.5674 30.8759 32.6727 30.3682 33.4818 29.5038C34.2909 28.6395 34.7403 27.4864 34.7349 26.2885C34.7352 26.0849 34.7222 25.8815 34.696 25.6796L33.2821 13.5996L35 12.7262C34.1169 10.7034 32.8408 8.88627 31.2498 7.38593C29.6587 5.8856 27.7861 4.7335 25.7462 4V6.05653C27.1531 6.62053 28.3949 7.54584 29.3525 8.74364C30.31 9.94145 30.9512 11.3715 31.2144 12.8965L32.706 25.8717C32.7273 26.0096 32.7379 26.1489 32.7378 26.2885C32.7376 26.9458 32.4909 27.5779 32.0488 28.054C31.6067 28.5301 31.003 28.8138 30.3627 28.8464C29.7223 28.879 29.0942 28.658 28.6083 28.2291C28.1224 27.8002 27.8159 27.1962 27.7521 26.5421V19.0879C27.7531 17.9984 27.3322 16.9532 26.582 16.1816C25.8317 15.4101 24.8135 14.9754 23.7509 14.973V6.74687C23.7513 6.40971 23.687 6.07575 23.5616 5.76406C23.4362 5.45238 23.2521 5.16907 23.0199 4.93032C22.7876 4.69157 22.5118 4.50205 22.2082 4.37258C21.9045 4.24311 21.579 4.17623 21.2501 4.17576H10.7503C10.4214 4.17599 10.0957 4.24271 9.79193 4.3721C9.48816 4.50148 9.21226 4.69099 8.97999 4.92979C8.74772 5.16859 8.56366 5.45199 8.43831 5.76378C8.31297 6.07557 8.24881 6.40964 8.24951 6.74687V17H15V34ZM10.2501 6.23229H21.752V14.973H10.2501V6.23229Z" fill="#333333"/>
</svg>
