<svg width="36" height="36" viewBox="0 0 36 36" fill="none" xmlns="http://www.w3.org/2000/svg">
<path d="M11.0131 31.1849H5.1953L9.87428 25.8718L6.2611 21.3274H10.3342C12.2978 21.3274 12.6338 22.6218 12.8324 23.3558H13.2023L12.9291 20H2.6564L7.29634 25.8239L1 33H13.2668L14 29.0326H13.6029C13.0089 30.9138 12.274 31.1849 11.0131 31.1849Z" fill="#333333"/>
<path fill-rule="evenodd" clip-rule="evenodd" d="M8.24951 18V6.74687C8.24881 6.40964 8.31297 6.07557 8.43831 5.76378C8.56366 5.45199 8.74773 5.16859 8.97999 4.92979C9.21226 4.69099 9.48816 4.50148 9.79193 4.3721C10.0957 4.24271 10.4214 4.17599 10.7503 4.17576H21.2501C21.579 4.17623 21.9045 4.24311 22.2082 4.37258C22.5118 4.50205 22.7876 4.69157 23.0199 4.93032C23.2521 5.16907 23.4362 5.45238 23.5616 5.76406C23.687 6.07575 23.7513 6.40971 23.7509 6.74687V14.973C24.8135 14.9754 25.8317 15.4101 26.582 16.1816C27.3322 16.9532 27.7531 17.9984 27.7521 19.0879V26.5421C27.8159 27.1962 28.1224 27.8002 28.6083 28.2291C29.0942 28.658 29.7223 28.879 30.3627 28.8464C31.003 28.8138 31.6067 28.5301 32.0488 28.054C32.4909 27.5779 32.7376 26.9458 32.7378 26.2885C32.7379 26.1489 32.7273 26.0096 32.706 25.8717L31.2144 12.8965C30.9512 11.3715 30.31 9.94145 29.3525 8.74364C28.3949 7.54584 27.1531 6.62053 25.7462 6.05653V4C27.7861 4.7335 29.6587 5.8856 31.2498 7.38593C32.8408 8.88627 34.1169 10.7034 35 12.7262L33.2821 13.5996L34.696 25.6797C34.7222 25.8815 34.7352 26.0849 34.7349 26.2885C34.7403 27.4864 34.2909 28.6395 33.4818 29.5039C32.6727 30.3682 31.5674 30.8759 30.3997 30.9197C29.232 30.9635 28.0935 30.5399 27.225 29.7384C26.3565 28.937 25.8262 27.8206 25.7462 26.6255V19.0879C25.7453 18.5437 25.5344 18.022 25.1595 17.6367C24.7847 17.2513 24.2764 17.0337 23.7456 17.0313V31.9435H24.9951V34H15.1159L16.4034 27.0326H12.137C12.0709 27.041 12.4815 25.9374 12.4815 25.9374L15.3718 25.3558L14.7729 18H8.24951ZM21.752 6.23229H10.2501V14.973H21.752V6.23229Z" fill="#333333"/>
</svg>
