<svg width="36" height="36" viewBox="0 0 36 36" fill="none" xmlns="http://www.w3.org/2000/svg">
<path fill-rule="evenodd" clip-rule="evenodd" d="M23.9885 33.1875H16V20H6.71338V5.76416C6.71289 5.57959 6.73242 5.39551 6.771 5.21582C6.80347 5.06543 6.84937 4.91797 6.9082 4.7749C7.03751 4.46116 7.22743 4.17584 7.46704 3.93555C7.56689 3.83545 7.67456 3.74365 7.78906 3.66162C7.86938 3.604 7.95312 3.55078 8.03955 3.50293C8.12524 3.45557 8.21362 3.4126 8.30444 3.37451C8.61782 3.24432 8.95387 3.177 9.29321 3.17676H20.1252C20.4645 3.17724 20.8003 3.24472 21.1135 3.375C21.2927 3.44971 21.4626 3.54395 21.6201 3.65625C21.7378 3.73975 21.8486 3.8335 21.9509 3.93604C22.1905 4.17628 22.3804 4.46127 22.5098 4.7749C22.6392 5.08854 22.7056 5.42488 22.7051 5.76416V14.0415C23.8013 14.0439 24.8518 14.4815 25.6257 15.2578C26.3997 16.0342 26.8337 17.0859 26.8328 18.1821V25.6831C26.8985 26.3413 27.2148 26.9488 27.7161 27.3804C28.2173 27.812 28.8652 28.0343 29.5259 28.0015C30.0032 27.978 30.4607 27.8223 30.8496 27.5576C30.9451 27.4927 31.0364 27.4209 31.1228 27.3433C31.1719 27.2993 31.2195 27.2529 31.2654 27.2046C31.7215 26.7255 31.9761 26.0892 31.9763 25.4277C31.9764 25.2873 31.9653 25.147 31.9434 25.0083L30.4045 11.9521C30.1331 10.4176 29.4717 8.97872 28.4839 7.77344C27.496 6.56815 26.2148 5.63686 24.7634 5.06934V3C26.8678 3.73809 28.7998 4.89752 30.4412 6.40723C32.0825 7.91694 33.399 9.74525 34.3101 11.7808L32.5378 12.6597L33.9963 24.8149C34.0234 25.018 34.0369 25.2229 34.0366 25.4277C34.0422 26.6332 33.5786 27.7933 32.7439 28.6631C31.9092 29.5328 30.7689 30.0438 29.5642 30.0879C28.3596 30.1319 27.185 29.7059 26.2891 28.8994C25.3931 28.093 24.846 26.9697 24.7634 25.7671V18.1821C24.7632 18.1089 24.7593 18.0361 24.7515 17.9639C24.7461 17.9146 24.739 17.8657 24.7302 17.8174C24.7175 17.7476 24.7014 17.6787 24.6819 17.6108C24.6658 17.5547 24.6475 17.4995 24.6267 17.4453C24.5859 17.3384 24.5361 17.2349 24.478 17.1362C24.3901 16.9863 24.283 16.8467 24.1582 16.7217C23.7715 16.334 23.2471 16.1152 22.6995 16.1128V31.1182H23.9885V33.1875ZM20.6431 5.24609H8.77734V14.0415H20.6431V5.24609Z" fill="#333333"/>
<path d="M3 24.5991V22H5.60156L3 24.5991ZM3 29.4219V26.9326L7.93652 22H10.428L3 29.4219ZM3 33V31.7588L12.7627 22H14.0085V23.2412L4.24585 33H3ZM6.58057 33L14.0085 25.5781V28.0664L9.07202 33H6.58057ZM11.407 33L14.0085 30.3999V33H11.407Z" fill="#333333"/>
</svg>
