<svg width="36" height="36" viewBox="0 0 36 36" fill="none" xmlns="http://www.w3.org/2000/svg">
<path d="M5.99384 7.42316C7.03176 6.45596 8.20107 5.64019 9.46713 5C7.95835 5.29171 6.52204 5.87853 5.24062 6.72676C3.95921 7.57499 2.85793 8.66794 2 9.94288L3.32776 10.7199C4.05708 9.50115 4.95461 8.39131 5.99384 7.42316Z" fill="#333333"/>
<path d="M9.45653 6.62652C8.12437 7.39577 6.95685 8.42 6.0207 9.64067C5.08456 10.8613 4.39813 12.2545 4.00065 13.7406L5.50947 14.0424C6.09948 11.2476 7.46782 8.67677 9.45653 6.62652Z" fill="#333333"/>
<path d="M15.3621 19.0606C15.3621 19.0093 15.3621 18.9591 15.3621 18.9098C15.3594 18.8551 15.3358 18.8035 15.2962 18.7656C15.2567 18.7277 15.2041 18.7064 15.1493 18.7061H14.3828C14.3268 18.7059 14.2713 18.6946 14.2195 18.673C14.1678 18.6514 14.1208 18.6197 14.0813 18.5799C14.0418 18.5402 14.0105 18.493 13.9893 18.4411C13.968 18.3892 13.9571 18.3336 13.9573 18.2776C13.8715 17.5318 13.5182 16.8425 12.963 16.3372C12.9221 16.2995 12.8678 16.2794 12.8122 16.2814C12.7842 16.2813 12.7564 16.2867 12.7305 16.2973C12.7047 16.3079 12.6811 16.3235 12.6613 16.3433L12.1226 16.8849C12.0831 16.9247 12.0361 16.9563 11.9843 16.9778C11.9325 16.9994 11.8769 17.0105 11.8209 17.0105C11.7648 17.0105 11.7092 16.9994 11.6574 16.9778C11.6057 16.9563 11.5586 16.9247 11.5191 16.8849C10.9766 16.4512 10.3035 16.2136 9.60893 16.2105C9.55763 16.2105 9.50633 16.2105 9.45805 16.2105C9.40321 16.2136 9.3516 16.2374 9.31375 16.2773C9.2759 16.3171 9.25466 16.3698 9.25436 16.4247V17.1897C9.25456 17.2458 9.24371 17.3014 9.22244 17.3532C9.20116 17.4051 9.16988 17.4523 9.13037 17.4921C9.09086 17.5319 9.04389 17.5635 8.99217 17.5851C8.94044 17.6068 8.88495 17.618 8.82888 17.6182C8.46013 17.6608 8.10224 17.7702 7.7727 17.9411C7.44219 18.1118 7.14522 18.3408 6.89608 18.6171C6.8583 18.658 6.83823 18.7123 6.84026 18.7679C6.84008 18.7961 6.8456 18.8239 6.8565 18.8499C6.86739 18.8758 6.88342 18.8993 6.90363 18.9188L7.44227 19.4605C7.52116 19.5411 7.56533 19.6494 7.56533 19.7622C7.56533 19.8751 7.52116 19.9834 7.44227 20.064C7.00922 20.6123 6.77373 21.2906 6.77387 21.9893C6.77387 22.0406 6.77387 22.0919 6.77387 22.1401C6.77466 22.1962 6.79737 22.2497 6.83714 22.2892C6.87691 22.3287 6.93057 22.351 6.98661 22.3514H7.74856C7.80476 22.3514 7.86041 22.3625 7.91232 22.384C7.96422 22.4056 8.01136 22.4372 8.05103 22.477C8.0907 22.5168 8.12212 22.564 8.14349 22.616C8.16486 22.668 8.17576 22.7237 8.17556 22.7799C8.26095 23.5262 8.61425 24.2162 9.16987 24.7217C9.20908 24.7573 9.26028 24.7767 9.31321 24.776C9.36959 24.7756 9.42365 24.7535 9.46409 24.7142L9.9967 24.162C10.0361 24.122 10.0831 24.0904 10.1349 24.0689C10.1868 24.0474 10.2424 24.0364 10.2985 24.0367C10.4117 24.0368 10.5202 24.0819 10.6002 24.162C11.1452 24.5962 11.8212 24.8329 12.5179 24.8334H12.6688C12.6969 24.8328 12.7247 24.8267 12.7505 24.8154C12.7762 24.804 12.7995 24.7878 12.819 24.7674C12.8385 24.7471 12.8538 24.7232 12.864 24.6969C12.8742 24.6707 12.8791 24.6427 12.8785 24.6146V23.8602C12.8793 23.7471 12.9242 23.6388 13.0038 23.5584C13.0838 23.4783 13.1923 23.4333 13.3055 23.4332C14.0504 23.3478 14.7383 22.9931 15.2398 22.4359C15.2761 22.3941 15.2955 22.3403 15.2942 22.285C15.2937 22.2286 15.2716 22.1746 15.2323 22.1341L14.6936 21.597C14.6135 21.517 14.5685 21.4084 14.5684 21.2952C14.5692 21.1821 14.6141 21.0738 14.6936 20.9934C15.1283 20.4431 15.3639 19.7619 15.3621 19.0606ZM11.0378 22.3695C10.6775 22.3713 10.3248 22.2661 10.0244 22.0672C9.72397 21.8684 9.48933 21.5848 9.35022 21.2525C9.21111 20.9202 9.17378 20.554 9.24296 20.2004C9.31215 19.8469 9.48473 19.5218 9.73885 19.2664C9.99297 19.011 10.3172 18.8368 10.6704 18.7659C11.0236 18.6949 11.3899 18.7304 11.723 18.8679C12.056 19.0053 12.3407 19.2386 12.5411 19.538C12.7414 19.8374 12.8484 20.1896 12.8484 20.5499C12.8496 20.7884 12.8036 21.0248 12.7131 21.2455C12.6227 21.4662 12.4895 21.6669 12.3213 21.836C12.153 22.0051 11.953 22.1392 11.7328 22.2308C11.5125 22.3224 11.2763 22.3695 11.0378 22.3695Z" fill="#333333"/>
<path d="M33.1797 26.3677L14.2214 7.33854C13.8341 6.94953 13.3399 6.68439 12.8016 6.57676C12.2632 6.46914 11.7051 6.52388 11.1979 6.73405C10.6908 6.94422 10.2575 7.30033 9.95312 7.75718C9.64872 8.21404 9.48693 8.75103 9.48828 9.3C9.48866 10.0377 9.7804 10.7454 10.3 11.269L29.2598 30.3042C29.7818 30.8245 30.4891 31.116 31.2261 31.1147C31.963 31.1134 32.6693 30.8195 33.1895 30.2974C33.7097 29.7754 34.0013 29.0682 34 28.3312C33.9987 27.5942 33.7047 26.8879 33.1827 26.3677H33.1797ZM31.2183 29.4065C31.078 29.4064 30.9392 29.3786 30.8098 29.3248C30.6803 29.2709 30.5627 29.192 30.4638 29.0927L11.5131 10.0635C11.4057 9.96635 11.3192 9.84841 11.2588 9.71681C11.1984 9.58521 11.1653 9.44271 11.1617 9.29796C11.158 9.1532 11.1839 9.00922 11.2376 8.87475C11.2913 8.74029 11.3718 8.61815 11.4742 8.51576C11.5766 8.41337 11.6988 8.33287 11.8332 8.27914C11.9677 8.22541 12.1117 8.19958 12.2564 8.20322C12.4012 8.20686 12.5437 8.23989 12.6753 8.3003C12.8069 8.36071 12.9248 8.44725 13.0219 8.55465L31.9742 27.5778C32.1231 27.7277 32.2244 27.9183 32.2654 28.1255C32.3064 28.3328 32.2853 28.5475 32.2047 28.7429C32.1241 28.9382 31.9877 29.1053 31.8124 29.2234C31.6372 29.3415 31.431 29.4052 31.2198 29.4065H31.2183Z" fill="#333333"/>
</svg>
