<svg width="36" height="36" viewBox="0 0 36 36" fill="none" xmlns="http://www.w3.org/2000/svg">
<path d="M24.8025 9.29703C24.9894 9.2967 25.1719 9.24098 25.3271 9.1369C25.4822 9.03283 25.6031 8.88508 25.6743 8.71234C25.7454 8.5396 25.7638 8.34963 25.727 8.16645C25.6903 7.98326 25.6 7.8151 25.4677 7.68322C25.3353 7.55134 25.1668 7.46167 24.9835 7.42554C24.8002 7.38942 24.6103 7.40846 24.4378 7.48026C24.2653 7.55206 24.118 7.6734 24.0145 7.82893C23.911 7.98447 23.8559 8.1672 23.8562 8.35404C23.8564 8.47809 23.8811 8.60089 23.9288 8.71542C23.9764 8.82995 24.0462 8.93396 24.1341 9.02153C24.2219 9.10909 24.3262 9.17849 24.4409 9.22576C24.5556 9.27303 24.6785 9.29725 24.8025 9.29703Z" fill="#333333"/>
<path fill-rule="evenodd" clip-rule="evenodd" d="M9.45684 25.9727C9.92314 25.971 10.3785 25.8312 10.7654 25.5709C11.1523 25.3106 11.4534 24.9415 11.6306 24.5102C11.8078 24.0789 11.8533 23.6047 11.7612 23.1476C11.6691 22.6905 11.4436 22.2709 11.1131 21.9418C10.7827 21.6128 10.3622 21.3891 9.90467 21.2989C9.44716 21.2088 8.97319 21.2562 8.54263 21.4352C8.11207 21.6143 7.74422 21.9169 7.48556 22.3049C7.2269 22.6929 7.08903 23.1489 7.08936 23.6152C7.09001 23.9254 7.15177 24.2325 7.2711 24.5189C7.39043 24.8053 7.565 25.0653 7.78484 25.2843C8.00468 25.5032 8.26549 25.6766 8.55237 25.7948C8.83925 25.9129 9.14659 25.9733 9.45684 25.9727ZM9.45684 22.199C9.73671 22.2 10.01 22.2839 10.2422 22.4401C10.4745 22.5963 10.6552 22.8179 10.7616 23.0767C10.868 23.3356 10.8954 23.6201 10.8402 23.8945C10.785 24.1689 10.6497 24.4208 10.4514 24.6183C10.2532 24.8159 10.0009 24.9503 9.72628 25.0045C9.45171 25.0587 9.16723 25.0304 8.90875 24.9231C8.65027 24.8157 8.42939 24.6342 8.274 24.4014C8.11861 24.1687 8.03568 23.8951 8.03568 23.6152C8.03656 23.239 8.18673 22.8786 8.45321 22.613C8.71968 22.3475 9.08065 22.1986 9.45684 22.199Z" fill="#333333"/>
<path fill-rule="evenodd" clip-rule="evenodd" d="M11.5692 28.3647C10.8944 28.6695 10.1624 28.8271 9.42198 28.8269V28.8285C8.36525 28.832 7.33267 28.5127 6.46244 27.9132C5.59221 27.3137 4.92586 26.4627 4.55259 25.4741C4.17933 24.4855 4.11695 23.4064 4.37382 22.3814C4.63068 21.3564 5.19453 20.4342 5.98988 19.7385L22.3107 5.47362C23.0035 4.87216 23.8906 4.54176 24.808 4.54346C25.7255 4.54517 26.6113 4.87887 27.3019 5.48291C27.9924 6.08695 28.4411 6.92051 28.5648 7.82958C28.6886 8.73866 28.4792 9.66181 27.9753 10.4285L13.3356 27.0592C12.8462 27.6149 12.2441 28.0599 11.5692 28.3647ZM23.5552 6.89811L7.23777 21.163V21.1496C6.90328 21.45 6.63354 21.8154 6.44502 22.2235C6.2565 22.6316 6.15317 23.0739 6.14134 23.5233C6.12951 23.9727 6.20942 24.4198 6.3762 24.8372C6.54298 25.2547 6.79312 25.6338 7.11134 25.9513C7.42956 26.2689 7.80918 26.5182 8.22701 26.6841C8.64483 26.85 9.09209 26.9289 9.54146 26.9161C9.99083 26.9033 10.4329 26.7991 10.8406 26.6097C11.2483 26.4203 11.6131 26.1498 11.9127 25.8146L26.3892 9.37555C26.5983 9.06425 26.7097 8.6976 26.7091 8.32259C26.7074 7.95801 26.601 7.60159 26.4025 7.29575C26.2041 6.98992 25.9219 6.74754 25.5896 6.59747C25.2574 6.44739 24.889 6.39594 24.5283 6.44924C24.1676 6.50254 23.8299 6.65834 23.5552 6.89811Z" fill="#333333"/>
<path d="M21.8295 22.2009L24.9219 21.4723L24.69 20.5614L19 21.9028L23.0716 26L23.7743 25.3508L21.5409 23.1002C23.3361 23.7839 25.3075 23.9121 27.1817 23.4669C29.0558 23.0218 30.7398 22.0254 32 20.6161L31.2647 20C30.127 21.2701 28.6055 22.1653 26.9135 22.5599C25.2215 22.9546 23.4438 22.8291 21.8295 22.2009Z" fill="#333333"/>
<path d="M33 4L33 31H34L34 4L33 4Z" fill="#333333"/>
</svg>
