<svg width="36" height="36" viewBox="0 0 36 36" fill="none" xmlns="http://www.w3.org/2000/svg">
<path fill-rule="evenodd" clip-rule="evenodd" d="M11.3498 26.7851C10.9155 27.0773 10.4043 27.2342 9.88083 27.2361C9.53255 27.2368 9.18754 27.169 8.8655 27.0364C8.54345 26.9038 8.25067 26.709 8.00388 26.4633C7.7571 26.2175 7.56113 25.9256 7.42717 25.6041C7.29321 25.2826 7.22388 24.9379 7.22315 24.5896C7.22278 24.0662 7.37755 23.5543 7.66792 23.1188C7.95829 22.6832 8.37122 22.3435 8.85456 22.1425C9.3379 21.9415 9.86997 21.8882 10.3836 21.9894C10.8972 22.0907 11.3692 22.3418 11.7402 22.7112C12.1111 23.0805 12.3642 23.5515 12.4676 24.0647C12.571 24.5779 12.52 25.1102 12.3211 25.5943C12.1221 26.0785 11.7841 26.4929 11.3498 26.7851ZM10.7625 23.2705C10.5018 23.0952 10.195 23.001 9.88083 22.9999C9.45853 22.9994 9.05331 23.1665 8.75417 23.4646C8.45504 23.7627 8.28646 24.1673 8.28547 24.5896C8.28547 24.9038 8.37857 25.211 8.55301 25.4723C8.72744 25.7336 8.9754 25.9373 9.26556 26.0578C9.55572 26.1783 9.87508 26.2101 10.1833 26.1492C10.4915 26.0883 10.7748 25.9375 10.9974 25.7157C11.2199 25.494 11.3718 25.2112 11.4337 24.9032C11.4957 24.5952 11.465 24.2757 11.3456 23.9851C11.2261 23.6946 11.0232 23.4459 10.7625 23.2705Z" fill="#333333"/>
<path d="M27.108 8.51642C27.3177 8.51605 27.5226 8.45349 27.6968 8.33666C27.871 8.21982 28.0066 8.05397 28.0866 7.86005C28.1665 7.66614 28.1871 7.45288 28.1458 7.24724C28.1045 7.04161 28.0032 6.85283 27.8546 6.70479C27.7061 6.55674 27.5169 6.45608 27.3112 6.41552C27.1054 6.37497 26.8922 6.39634 26.6986 6.47695C26.5049 6.55755 26.3396 6.69376 26.2233 6.86836C26.1071 7.04296 26.0453 7.24809 26.0457 7.45783C26.0459 7.59709 26.0736 7.73494 26.1271 7.86351C26.1806 7.99207 26.2589 8.10884 26.3576 8.20714C26.4562 8.30544 26.5733 8.38334 26.702 8.43641C26.8308 8.48947 26.9687 8.51666 27.108 8.51642Z" fill="#333333"/>
<path fill-rule="evenodd" clip-rule="evenodd" d="M9.84158 30.4397C10.6728 30.4399 11.4945 30.2631 12.2521 29.9209C13.0096 29.5788 13.6855 29.0791 14.2349 28.4553L22.2981 19.2956C23.438 19.7972 24.677 20.06 25.9363 20.0601C28.9505 20.0601 31.6848 18.481 33.3039 16.2345L31.4415 22.1599L32.5805 22.5042L35.3794 13.4163L26.0073 15.5544L26.2851 16.7021L32.4814 15.2845C31.9026 16.1944 31.1357 16.9735 30.2309 17.5708C29.3261 18.1681 28.3037 18.5701 27.2307 18.7506C26.1576 18.931 25.0581 18.8858 24.004 18.618C23.709 18.543 23.4194 18.4511 23.1367 18.3429L30.6691 9.78611C31.2348 8.92545 31.4699 7.88913 31.3309 6.86862C31.192 5.84811 30.6884 4.91238 29.9132 4.2343C29.138 3.55622 28.1435 3.18161 27.1136 3.17969C26.0837 3.17778 25.0879 3.54868 24.3101 4.22387L18.4322 9.36132C18.5059 9.07238 18.5968 8.78731 18.7048 8.50762C19.0922 7.50349 19.69 6.5914 20.459 5.831L19.6172 5C18.3675 6.23381 17.5164 7.8057 17.1717 9.51694C17.0999 9.87333 17.0507 10.2324 17.0239 10.5922L5.98879 20.2373C5.09594 21.0183 4.46297 22.0535 4.17462 23.2042C3.88627 24.3549 3.95629 25.5662 4.37531 26.676C4.79434 27.7858 5.54236 28.7411 6.51926 29.4141C7.49616 30.087 8.65532 30.4455 9.84158 30.4416V30.4397ZM17.2314 13.2326L7.38963 21.8364V21.8214C7.01414 22.1586 6.71133 22.5688 6.49971 23.0269C6.28809 23.4851 6.17209 23.9815 6.15881 24.486C6.14552 24.9905 6.23523 25.4924 6.42245 25.961C6.60968 26.4297 6.89048 26.8552 7.24771 27.2117C7.60493 27.5682 8.03109 27.8481 8.50013 28.0343C8.96917 28.2205 9.47126 28.3091 9.97571 28.2948C10.4802 28.2804 10.9764 28.1633 11.4341 27.9507C11.8918 27.7381 12.3013 27.4344 12.6377 27.0582L20.4423 18.1955C19.2263 17.2598 18.2731 16.0268 17.6802 14.6138C17.4916 14.1644 17.3419 13.7024 17.2314 13.2326ZM18.278 12.3177C18.4012 13.1589 18.6661 13.9754 19.0632 14.733C19.5634 15.6873 20.2621 16.5266 21.1135 17.1961C21.1547 17.2285 21.1962 17.2604 21.238 17.292L28.8886 8.60409C29.1234 8.25464 29.2484 7.84304 29.2477 7.42206C29.2458 7.01279 29.1264 6.61268 28.9036 6.26936C28.6808 5.92603 28.364 5.65394 27.991 5.48547C27.618 5.317 27.2045 5.25925 26.7996 5.31908C26.3947 5.37891 26.0156 5.55381 25.7072 5.82296L18.278 12.3177Z" fill="#333333"/>
<path d="M35 31.7617H1V32.8203H35V31.7617Z" fill="#333333"/>
</svg>
