<?xml version="1.0" encoding="UTF-8" standalone="no"?>
<svg
   xmlns:dc="http://purl.org/dc/elements/1.1/"
   xmlns:cc="http://creativecommons.org/ns#"
   xmlns:rdf="http://www.w3.org/1999/02/22-rdf-syntax-ns#"
   xmlns:svg="http://www.w3.org/2000/svg"
   xmlns="http://www.w3.org/2000/svg"
   id="svg998"
   version="1.1"
   viewBox="0 0 10.172293 4.3838553"
   height="4.3838553mm"
   width="10.172293mm">
  <defs
     id="defs992" />
  <metadata
     id="metadata995">
    <rdf:RDF>
      <cc:Work
         rdf:about="">
        <dc:format>image/svg+xml</dc:format>
        <dc:type
           rdf:resource="http://purl.org/dc/dcmitype/StillImage" />
        <dc:title></dc:title>
      </cc:Work>
    </rdf:RDF>
  </metadata>
  <g
     transform="translate(-102.25909,-86.165215)"
     id="layer1">
    <g
       transform="translate(61.869541,71.305257)"
       id="g1443">
      <line
         id="line1087-2-3-6"
         y2="19.196264"
         x2="45.197056"
         y1="14.91215"
         x1="46.452038"
         class="fil0 str0"
         style="clip-rule:evenodd;fill:none;fill-rule:evenodd;stroke:#000000;stroke-width:0.33827919;image-rendering:optimizeQuality;shape-rendering:geometricPrecision;text-rendering:geometricPrecision" />
      <g
         id="g1174-6-5-6-1"
         transform="matrix(0.63610167,0,0,0.67398294,19.402011,-22.321897)">
        <polygon
           transform="matrix(1.0100957e-5,0,0,1.0100957e-5,41.892862,55.260372)"
           style="clip-rule:evenodd;fill:none;fill-rule:evenodd;stroke:#000000;stroke-width:49500.30078125;image-rendering:optimizeQuality;shape-rendering:geometricPrecision;text-rendering:geometricPrecision"
           class="fil0 str0"
           points="306387,600260 179132,106782 33126,600260 "
           id="polygon1077-0-4-7-8" />
        <polygon
           transform="matrix(1.0100957e-5,0,0,1.0100957e-5,41.892862,55.260372)"
           style="clip-rule:evenodd;fill:#000000;fill-rule:evenodd;stroke:#000000;stroke-width:49500.30078125;image-rendering:optimizeQuality;shape-rendering:geometricPrecision;text-rendering:geometricPrecision"
           class="fil1 str0"
           points="397467,259560 355947,103713 305644,259560 "
           id="polygon1079-6-7-5-7" />
        <line
           style="clip-rule:evenodd;fill:none;fill-rule:evenodd;stroke:#000000;stroke-width:0.50000042;image-rendering:optimizeQuality;shape-rendering:geometricPrecision;text-rendering:geometricPrecision"
           class="fil0 str0"
           x1="45.48827"
           y1="56.307972"
           x2="45.48827"
           y2="55.546268"
           id="line1081-2-4-3-9" />
        <polygon
           transform="matrix(1.0100957e-5,0,0,1.0100957e-5,41.892862,55.260372)"
           style="clip-rule:evenodd;fill:none;fill-rule:evenodd;stroke:#000000;stroke-width:49500.30078125;image-rendering:optimizeQuality;shape-rendering:geometricPrecision;text-rendering:geometricPrecision"
           class="fil0 str0"
           points="670244,600260 542988,106782 396982,600260 "
           id="polygon1083-6-4-5-2" />
        <polyline
           transform="matrix(1.0100957e-5,0,0,1.0100957e-5,41.892862,55.260372)"
           style="clip-rule:evenodd;fill:none;fill-rule:evenodd;stroke:#000000;stroke-width:49500.30078125;image-rendering:optimizeQuality;shape-rendering:geometricPrecision;text-rendering:geometricPrecision"
           class="fil0 str0"
           points="179132,154649 179132,24750 542988,24750 542988,150699 "
           id="polyline1085-1-3-6-0" />
      </g>
      <g
         id="g1425">
        <path
           d="m 158.29102,56.164062 v 0.0039 c -0.39644,5.29e-4 -0.75643,0.176351 -1.01563,0.458984 h -0.002 c -0.25941,0.283159 -0.42188,0.674847 -0.42188,1.109375 h -0.002 v 0.002 9.083985 c 0.028,0.0064 0.0564,0.01239 0.084,0.02148 0.0519,-0.0042 0.10417,-0.0064 0.15625,-0.0059 0.0501,-2.91e-4 0.10028,-9.5e-5 0.15039,0 0.0513,1.32e-4 0.10305,1.1e-5 0.1543,0 0.0515,3e-6 0.10282,0 0.1543,0 0.0515,-4e-6 0.10296,0 0.15429,0 h 0.1543 0.084 v -3.654297 h 5.54297 v 3.714844 c 0.0287,-0.0061 0.0569,-0.0099 0.0859,-0.01563 0.0498,0.0098 0.10009,0.0074 0.15039,0.0059 0.053,-0.001 0.10526,4e-6 0.15821,0 0.0472,-1.29e-4 0.0954,-4.5e-5 0.14257,0 0.0562,7e-6 0.11173,0 0.16797,0 0.0631,-0.0053 0.12452,0.02121 0.17774,0.05273 0.008,0.0045 -0.0135,-0.01065 -0.0215,-0.01367 -0.0272,-0.01058 -0.0378,-0.0013 -0.0273,-0.0098 0.05,-0.0094 0.10001,-0.0047 0.15039,-0.0039 0.0352,-1.22e-4 0.0703,-3.2e-5 0.10547,0 V 63.15625 h 0.51172 l 0.004,-0.002 c 0.0134,0 0.0307,-5.29e-4 0.0508,0 0.15738,0.0061 0.25773,0.05393 0.31446,0.126953 0.0698,0.08998 0.1049,0.23524 0.11133,0.410156 l 0.002,0.04297 h -0.002 v 3.179687 h 0.14062 0.16797 c 0.0419,-0.0032 0.0797,0.01691 0.11914,0.03125 0.0703,-0.0088 0.14227,-0.0069 0.21289,-0.0059 0.062,-3.44e-4 0.12356,-8.3e-5 0.18555,0 0.0541,1.25e-4 0.10802,1.5e-5 0.16211,0 0.0299,-0.0037 0.0622,0.0053 0.0918,0 0.007,-0.0013 -0.0211,0.0053 -0.0215,-0.002 -4.3e-4,-0.0076 0.0139,-0.0079 0.0215,-0.0098 0.004,-0.001 0.008,-3.89e-4 0.0117,-0.002 V 63.73416 l -0.002,-0.002 c -2.4e-4,-0.03916 -3.5e-4,-0.06937 -0.002,-0.08789 -0.0158,-0.431089 -0.13029,-0.825473 -0.36719,-1.130859 -0.25022,-0.322307 -0.61478,-0.526402 -1.11328,-0.544922 -0.0254,-7.9e-4 -0.0546,-0.0022 -0.0879,-0.002 v -0.002 h -0.51172 v -4.226563 -0.002 h -0.002 c -4.9e-4,-0.432676 -0.16099,-0.82426 -0.41993,-1.107422 v -0.002 c -0.25943,-0.283166 -0.6192,-0.45872 -1.01757,-0.458984 v -0.0039 h -0.002 z m 7.11523,0.119141 v 0.837891 c 1.10442,0.923043 2.02746,1.92263 2.48437,3.117187 0.0361,2.846143 0.38645,5.692655 0.66602,8.539063 0.0415,0.425004 -0.14685,0.704915 -0.41406,0.845703 -0.1027,0.05415 -0.21943,0.08499 -0.33789,0.105469 v 0.140625 c 1e-5,0.04807 0,0.09646 0,0.144531 -1e-5,0.05582 0,0.112145 0,0.167969 -0.003,0.01652 -4.5e-4,0.06611 0.002,0.09961 0.032,0.08011 0.048,0.162646 0.0469,0.248047 0.0254,0.04859 0.0376,0.0895 0.0312,0.169922 -0.007,0.05295 -0.003,0.107054 -0.002,0.160156 0,0.01701 1e-5,0.03388 0,0.05078 0.2547,-0.0332 0.50522,-0.09715 0.73242,-0.216797 0.65684,-0.346408 1.12457,-1.025716 1.02539,-2.042968 -0.22464,-2.304174 -0.5894,-4.648691 -0.5996,-6.91211 l 0.8457,-0.908203 c -0.90293,-2.217634 -2.58199,-3.906192 -4.48047,-4.546875 z m -7.11523,1.070313 v 0.002 h 4.84179 0.002 v -0.002 c 0.0941,0 0.18135,0.04456 0.24609,0.115234 0.064,0.07041 0.10547,0.164624 0.10547,0.267578 h -0.002 v 0.002 4.201172 h -5.54297 v -4.201172 -0.002 h -0.002 c 0,-0.102425 0.0407,-0.196901 0.10547,-0.267578 l -0.002,-0.002 c 0.0645,-0.06954 0.15371,-0.113281 0.24805,-0.113281 z m 8.01562,13.160156 c -0.005,0.0031 -0.005,0.0066 -0.01,0.0098 0.004,0.0028 0.006,0.007 0.01,0.0098 z m 1.17383,0.173828 c -0.006,1.29e-4 -0.0117,0.0019 -0.0176,0.002 0.0299,0.02325 0.0356,0.01977 0.0371,0.01563 v -0.002 c -0.005,-0.0071 -0.012,-0.01574 -0.0195,-0.01563 z"
           style="fill:#000000;fill-rule:evenodd;stroke-width:0.0002533"
           transform="scale(0.26458334)"
           id="path13" />
        <g
           transform="translate(-0.6857734,-1.988226)"
           id="g1299">
          <rect
             style="fill:none;fill-opacity:1;stroke:#000000;stroke-width:0.08669493;stroke-miterlimit:4;stroke-dasharray:none;stroke-opacity:1"
             id="rect1429-1-2"
             width="3.9881454"
             height="1.4084587"
             x="41.118671"
             y="19.700891" />
          <path
             style="font-style:normal;font-weight:normal;font-size:medium;line-height:1.25;font-family:sans-serif;letter-spacing:0px;word-spacing:0px;fill:#000000;fill-opacity:1;stroke:none;stroke-width:0.26765546"
             id="path2306-7"
             d="m 41.366579,20.785035 h 0.24286 v -0.751923 l -0.264202,0.04753 v -0.121469 l 0.26273,-0.04753 h 0.148658 v 0.873394 h 0.242857 v 0.112226 h -0.632903 z" />
          <path
             style="font-style:normal;font-weight:normal;font-size:medium;line-height:1.25;font-family:sans-serif;letter-spacing:0px;word-spacing:0px;fill:#000000;fill-opacity:1;stroke:none;stroke-width:0.26765546"
             id="path2308-5"
             d="m 42.908362,20.785035 h 0.518835 v 0.112228 h -0.697666 v -0.112228 q 0.08463,-0.07856 0.230346,-0.210592 0.146451,-0.132693 0.183983,-0.170982 0.07139,-0.07196 0.09935,-0.121468 0.0287,-0.05017 0.0287,-0.09836 0,-0.07856 -0.06182,-0.128072 -0.06108,-0.04951 -0.159699,-0.04951 -0.06991,0 -0.147921,0.02178 -0.07727,0.02178 -0.165586,0.06602 v -0.134688 q 0.08978,-0.03235 0.167793,-0.04885 0.07801,-0.0165 0.142772,-0.0165 0.170735,0 0.272295,0.07658 0.101558,0.07658 0.101558,0.20465 0,0.06073 -0.02575,0.115529 -0.02501,0.05413 -0.09199,0.128072 -0.0184,0.01914 -0.117013,0.110907 -0.09862,0.0911 -0.278184,0.255482 z" />
          <path
             style="font-style:normal;font-weight:normal;font-size:medium;line-height:1.25;font-family:sans-serif;letter-spacing:0px;word-spacing:0px;fill:#000000;fill-opacity:1;stroke:none;stroke-width:0.26765546"
             id="path2310-9"
             d="m 44.670191,20.365834 q 0.106709,0.02046 0.166321,0.08516 0.06035,0.0647 0.06035,0.159759 0,0.145896 -0.111861,0.225777 -0.111864,0.07988 -0.317924,0.07988 -0.06918,0 -0.142772,-0.01255 -0.07286,-0.01189 -0.150868,-0.03631 v -0.128731 q 0.06182,0.03235 0.135413,0.04885 0.07359,0.0165 0.15381,0.0165 0.139827,0 0.212684,-0.04951 0.07359,-0.04951 0.07359,-0.143916 0,-0.08714 -0.06844,-0.135994 -0.0677,-0.04951 -0.189135,-0.04951 h -0.128051 v -0.109587 h 0.13394 q 0.109654,0 0.167793,-0.03895 0.05814,-0.03961 0.05814,-0.113546 0,-0.07592 -0.06035,-0.116191 -0.05961,-0.04093 -0.171472,-0.04093 -0.06108,0 -0.130996,0.01189 -0.06991,0.01189 -0.15381,0.03697 v -0.118829 q 0.08463,-0.02112 0.158227,-0.03169 0.07433,-0.01057 0.139827,-0.01057 0.169266,0 0.267878,0.06931 0.09862,0.06866 0.09862,0.186167 0,0.08186 -0.05225,0.138633 -0.05225,0.05611 -0.148658,0.0779 z" />
          <path
             style="fill:none;stroke:#000000;stroke-width:0.0563517;stroke-linecap:butt;stroke-linejoin:miter;stroke-miterlimit:4;stroke-dasharray:none;stroke-opacity:1"
             d="m 42.373735,19.708086 c 0,1.393738 0,1.393738 0,1.393738 z"
             id="path1469-9-2" />
          <path
             style="fill:none;stroke:#000000;stroke-width:0.0563517;stroke-linecap:butt;stroke-linejoin:miter;stroke-miterlimit:4;stroke-dasharray:none;stroke-opacity:1"
             d="m 43.801484,19.713716 c 0,1.393738 0,1.393738 0,1.393738 z"
             id="path1469-3-4-2" />
        </g>
      </g>
    </g>
  </g>
</svg>
