<?xml version="1.0" encoding="UTF-8"?>
<!DOCTYPE svg PUBLIC "-//W3C//DTD SVG 1.1//EN" "http://www.w3.org/Graphics/SVG/1.1/DTD/svg11.dtd">
<!-- Creator: CorelDRAW X5 -->
<svg xmlns="http://www.w3.org/2000/svg" xml:space="preserve" width="12mm" height="8mm" style="shape-rendering:geometricPrecision; text-rendering:geometricPrecision; image-rendering:optimizeQuality; fill-rule:evenodd; clip-rule:evenodd"
viewBox="0 0 120000 80000"
 xmlns:xlink="http://www.w3.org/1999/xlink">
 <defs>
  <style type="text/css">
   <![CDATA[
    .fil0 {fill:#B3B3B3}
    .fil1 {fill:#B3B3B3;fill-rule:nonzero}
   ]]>
  </style>
 </defs>
 <g id="Слой_x0020_1">
  <metadata id="CorelCorpID_0Corel-Layer"/>
  <g id="_319053408">
   <path class="fil0" d="M27710 70780l64392 0 0 -38699 -7777 0 0 -7400 -8865 0 0 7400 -31108 0 0 -7400 -8865 0 0 7400 -7777 0 0 38699zm4101 -3565l56481 0 0 -30852 -56481 0 0 30852z"/>
   <polygon class="fil0" points="37677,49288 43439,49288 43439,43525 47021,43525 47021,49288 52783,49288 52783,52870 47021,52870 47021,58632 43439,58632 43439,52870 37677,52870 "/>
   <rect class="fil0" x="67111" y="49288" width="15107" height="3582"/>
   <path class="fil1" d="M43851 21145l0 -12958 1962 0 0 1816c408,-633 950,-1145 1625,-1528 674,-388 1445,-584 2307,-584 958,0 1745,200 2358,600 616,400 1049,954 1299,1670 1029,-1511 2362,-2270 4003,-2270 1287,0 2274,359 2965,1071 692,712 1038,1808 1038,3286l0 8897 -2183 0 0 -8164c0,-879 -71,-1512 -212,-1899 -146,-383 -404,-696 -775,-933 -375,-233 -816,-354 -1320,-354 -913,0 -1667,304 -2270,912 -600,604 -904,1575 -904,2907l0 7531 -2195 0 0 -8418c0,-979 -179,-1712 -538,-2199 -358,-487 -941,-733 -1757,-733 -617,0 -1187,162 -1712,491 -525,325 -908,800 -1142,1425 -237,629 -354,1533 -354,2711l0 6723 -2195 0z"/>
   <path id="1" class="fil1" d="M64678 5784l0 -2528 2199 0 0 2528 -2199 0zm0 15361l0 -12958 2199 0 0 12958 -2199 0z"/>
   <path id="12" class="fil1" d="M70221 21145l0 -12958 1975 0 0 1841c954,-1424 2328,-2137 4123,-2137 783,0 1500,142 2154,421 658,283 1145,650 1470,1108 329,454 554,996 687,1620 79,408 121,1121 121,2137l0 7968 -2199 0 0 -7885c0,-891 -84,-1562 -254,-2007 -171,-442 -475,-796 -908,-1058 -438,-267 -946,-400 -1533,-400 -937,0 -1741,300 -2424,891 -679,596 -1017,1720 -1017,3382l0 7077 -2195 0z"/>
   <polygon class="fil1" points="39406,22340 30706,14943 29247,13702 30706,12461 39406,5063 41506,7545 34266,13702 41506,19858 "/>
  </g>
 </g>
 <g id="Направляющие">
  <metadata id="CorelCorpID_1Corel-Layer"/>
 </g>
</svg>
