<?xml version="1.0" encoding="UTF-8"?>
<!DOCTYPE svg PUBLIC "-//W3C//DTD SVG 1.1//EN" "http://www.w3.org/Graphics/SVG/1.1/DTD/svg11.dtd">
<!-- Creator: CorelDRAW X5 -->
<svg xmlns="http://www.w3.org/2000/svg" xml:space="preserve" width="12mm" height="8mm" style="shape-rendering:geometricPrecision; text-rendering:geometricPrecision; image-rendering:optimizeQuality; fill-rule:evenodd; clip-rule:evenodd"
viewBox="0 0 120000 80000"
 xmlns:xlink="http://www.w3.org/1999/xlink">
 <defs>
  <style type="text/css">
   <![CDATA[
    .fil0 {fill:#B3B3B3}
   ]]>
  </style>
 </defs>
 <g id="Слой_x0020_1">
  <metadata id="CorelCorpID_0Corel-Layer"/>
  <g id="_214279904">
   <polygon class="fil0" points="50910,41954 42824,41954 42824,33868 37797,33868 37797,41954 29710,41954 29710,46981 37797,46981 37797,55068 42824,55068 42824,46981 50910,46981 "/>
   <rect class="fil0" x="69064" y="41954" width="21200" height="5027"/>
   <path class="fil0" d="M16886 70808l86091 0 0 -51739 -10398 0 0 -9894 -11852 0 0 9894 -41591 0 0 -9894 -11852 0 0 9894 -10398 0 0 51739zm5483 -4766l75514 0 0 -41249 -75514 0 0 41249z"/>
  </g>
 </g>
</svg>
