<?xml version="1.0" encoding="UTF-8"?>
<!DOCTYPE svg PUBLIC "-//W3C//DTD SVG 1.1//EN" "http://www.w3.org/Graphics/SVG/1.1/DTD/svg11.dtd">
<!-- Creator: CorelDRAW X5 -->
<svg xmlns="http://www.w3.org/2000/svg" xml:space="preserve" width="12mm" height="8mm" style="shape-rendering:geometricPrecision; text-rendering:geometricPrecision; image-rendering:optimizeQuality; fill-rule:evenodd; clip-rule:evenodd"
viewBox="0 0 120000 80000"
 xmlns:xlink="http://www.w3.org/1999/xlink">
 <defs>
  <style type="text/css">
   <![CDATA[
    .fil1 {fill:black}
    .fil0 {fill:black;fill-rule:nonzero}
   ]]>
  </style>
 </defs>
 <g id="Слой_x0020_1">
  <metadata id="CorelCorpID_0Corel-Layer"/>
  <g id="_319050864">
   <path class="fil0" d="M43815 20832l0 -12942 1960 0 0 1814c408,-633 948,-1144 1622,-1527 674,-387 1444,-583 2305,-583 957,0 1743,200 2355,599 615,400 1048,953 1298,1669 1027,-1511 2359,-2268 3998,-2268 1285,0 2271,358 2962,1070 690,711 1036,1805 1036,3282l0 8886 -2180 0 0 -8154c0,-878 -71,-1510 -213,-1897 -145,-383 -403,-695 -773,-932 -375,-233 -816,-353 -1319,-353 -911,0 -1664,303 -2267,911 -599,603 -903,1572 -903,2903l0 7522 -2193 0 0 -8408c0,-977 -178,-1710 -536,-2196 -358,-487 -940,-732 -1756,-732 -616,0 -1185,162 -1710,490 -524,325 -907,799 -1140,1423 -237,628 -353,1531 -353,2708l0 6715 -2193 0z"/>
   <path id="1" class="fil0" d="M73054 19234c-816,691 -1598,1178 -2347,1465 -753,283 -1560,424 -2421,424 -1423,0 -2513,-345 -3278,-1040 -762,-695 -1144,-1585 -1144,-2662 0,-637 141,-1215 432,-1739 287,-524 666,-945 1132,-1261 470,-316 994,-557 1581,-720 428,-112 1077,-224 1947,-328 1772,-212 3078,-462 3915,-757 8,-300 12,-491 12,-570 0,-895 -208,-1527 -624,-1889 -557,-499 -1394,-745 -2496,-745 -1032,0 -1793,179 -2288,541 -491,362 -853,1003 -1090,1922l-2143 -295c196,-915 516,-1660 961,-2222 445,-566 1094,-1002 1939,-1306 844,-304 1822,-458 2937,-458 1107,0 2001,133 2692,391 690,262 1198,587 1526,982 325,395 550,890 683,1494 70,374 108,1048 108,2022l0 2924c0,2043 46,3332 141,3869 92,541 279,1061 554,1556l-2293 0c-224,-453 -374,-986 -436,-1598zm-183 -4900c-799,328 -1993,603 -3582,832 -903,129 -1544,274 -1914,437 -374,162 -666,399 -865,715 -204,312 -308,658 -308,1040 0,587 224,1074 665,1465 441,387 1090,582 1943,582 845,0 1598,-183 2255,-553 657,-370 1144,-878 1452,-1519 237,-495 354,-1227 354,-2192l0 -807z"/>
   <path id="12" class="fil0" d="M77026 20832l4730 -6727 -4376 -6215 2741 0 1989 3032c370,579 674,1061 898,1452 358,-536 687,-1011 990,-1427l2180 -3057 2621 0 -4472 6094 4813 6848 -2691 0 -2659 -4023 -707 -1086 -3399 5109 -2658 0z"/>
   <polygon class="fil0" points="29452,20060 36684,13911 29452,7762 31550,5283 40239,12671 41696,13911 40239,15150 31550,22539 "/>
   <polygon class="fil1" points="37755,49299 43510,49299 43510,43544 47087,43544 47087,49299 52843,49299 52843,52877 47087,52877 47087,58632 43510,58632 43510,52877 37755,52877 "/>
   <rect class="fil1" x="67153" y="49299" width="15088" height="3578"/>
   <path class="fil1" d="M27800 70765l64401 0 0 -38704 -7779 0 0 -7401 -8866 0 0 7401 -31112 0 0 -7401 -8866 0 0 7401 -7778 0 0 38704zm4101 -3565l56489 0 0 -30857 -56489 0 0 30857z"/>
  </g>
 </g>
 <g id="Направляющие">
  <metadata id="CorelCorpID_1Corel-Layer"/>
 </g>
</svg>
