<?xml version="1.0" encoding="UTF-8" standalone="no"?>
<!-- Creator: CorelDRAW X5 -->

<svg
   xmlns:dc="http://purl.org/dc/elements/1.1/"
   xmlns:cc="http://creativecommons.org/ns#"
   xmlns:rdf="http://www.w3.org/1999/02/22-rdf-syntax-ns#"
   xmlns:svg="http://www.w3.org/2000/svg"
   xmlns="http://www.w3.org/2000/svg"
   xmlns:sodipodi="http://sodipodi.sourceforge.net/DTD/sodipodi-0.dtd"
   xmlns:inkscape="http://www.inkscape.org/namespaces/inkscape"
   xml:space="preserve"
   width="28"
   height="28"
   style="fill-rule:evenodd"
   viewBox="0 0 79022.224 79022.223"
   id="svg2"
   version="1.1"
   inkscape:version="0.48.4 r9939"
   sodipodi:docname="CalureaLevel.svg"><metadata
   id="metadata33"><rdf:RDF><cc:Work
       rdf:about=""><dc:format>image/svg+xml</dc:format><dc:type
         rdf:resource="http://purl.org/dc/dcmitype/StillImage" /></cc:Work></rdf:RDF></metadata><sodipodi:namedview
   pagecolor="#ffffff"
   bordercolor="#666666"
   borderopacity="1"
   objecttolerance="10"
   gridtolerance="10"
   guidetolerance="10"
   inkscape:pageopacity="0"
   inkscape:pageshadow="2"
   inkscape:window-width="709"
   inkscape:window-height="548"
   id="namedview31"
   showgrid="false"
   inkscape:zoom="8.3255556"
   inkscape:cx="21.259842"
   inkscape:cy="14.173228"
   inkscape:window-x="0"
   inkscape:window-y="74"
   inkscape:window-maximized="0"
   inkscape:current-layer="svg2" />
 <defs
   id="defs4">
  <style
   type="text/css"
   id="style6">
   
    .fil0 {fill:black}
    .fil1 {fill:black;fill-rule:nonzero}
   
  </style>
 </defs>
 <g
   id="Слой_x0020_1"
   transform="matrix(1.0488533,0,0,1.0270238,-23613.706,-2565.0333)">
  <metadata
   id="CorelCorpID_0Corel-Layer" />
  <g
   id="_328567792">
   <path
   class="fil0"
   d="m 76274,53519 2,0 0,6 c 1719,0 3277,-698 4403,-1825 l 0,-6 c 1130,-1130 1830,-2687 1831,-4400 l -6,0 0,-4 0,-2 6,0 c -1,-1719 -698,-3277 -1826,-4404 l -6,0 c -1130,-1129 -2686,-1829 -4400,-1830 l 0,6 -4,0 -2,0 0,-6 c -446,0 -881,49 -1301,139 l 458,-3202 c 278,-25 559,-38 843,-38 l 0,-7 2,0 4,0 0,7 c 2582,1 4916,1044 6602,2730 l -3,3 c 1689,1690 2734,4025 2734,6602 l 6,0 0,2 0,4 -6,0 c -1,2581 -1044,4915 -2730,6601 l -3,-3 c -1690,1689 -4025,2734 -6602,2735 l 0,6 -2,0 -4,0 0,-6 c -1207,-1 -2358,-229 -3415,-644 l 459,-3209 c 881,479 1888,751 2956,751 l 0,-6 4,0 z"
   id="path11"
   inkscape:connector-curvature="0"
   style="fill:#000000" />
   <path
   class="fil0"
   d="m 76274,20360 2,0 0,-6 c 1719,0 3277,698 4403,1825 l 0,7 c 1130,1130 1830,2686 1831,4399 l -6,0 0,5 0,2 6,0 c -1,1718 -698,3276 -1826,4403 l -6,0 c -1130,1129 -2686,1829 -4400,1830 l 0,-6 -4,0 -2,0 0,6 c -446,0 -881,-48 -1301,-139 l 458,3203 c 278,24 559,38 843,38 l 0,6 2,0 4,0 0,-6 c 2582,-1 4916,-1045 6602,-2731 l -3,-3 c 1689,-1690 2734,-4024 2734,-6601 l 6,0 0,-2 0,-5 -6,0 c -1,-2581 -1044,-4915 -2730,-6601 l -3,3 c -1690,-1689 -4025,-2734 -6602,-2735 l 0,-6 -2,0 -4,0 0,6 c -1207,1 -2358,229 -3415,644 l 459,3209 c 881,-479 1888,-751 2956,-751 l 0,6 4,0 z"
   id="path13"
   inkscape:connector-curvature="0"
   style="fill:#000000" />
   <path
   class="fil0"
   d="m 87940,26737 c 1363,559 2589,1384 3615,2408 l 3,-3 c 1990,1991 3223,4746 3224,7793 l 5,0 0,4 0,2 -5,0 c -1,3048 -1234,5805 -3226,7796 -1024,1024 -2251,1847 -3616,2405 l 0,-3483 c 513,-320 989,-697 1415,-1124 1436,-1435 2325,-3414 2325,-5594 l -6,0 0,-2 0,-4 6,0 c -1,-2179 -889,-4157 -2324,-5591 l 0,-6 c -426,-427 -902,-806 -1416,-1126 l 0,-3475 z"
   id="path15"
   inkscape:connector-curvature="0"
   style="fill:#000000" />
   <path
   class="fil0"
   d="m 77885,27265 -14337,2043 0,3005 14637,-2086 -300,-2962 z m -28232,4023 -9888,1409 299,2962 9589,-1366 0,-3005 z"
   id="path17"
   inkscape:connector-curvature="0"
   style="fill:#000000" />
   <polygon
   class="fil0"
   points="39765,43569 40064,40608 78185,46040 77885,49002 "
   id="polygon19"
   style="fill:#000000" />
   <path
   class="fil0"
   d="m 55748,34366 0,0 c -1280,-3 -2470,-356 -3356,-1144 -303,-270 -568,-588 -786,-956 -214,-363 -384,-775 -499,-1237 -112,-446 -174,-948 -177,-1508 -15,-2434 1094,-4216 2179,-5960 234,-375 466,-749 684,-1126 l 1,1 68,-119 c 685,-1202 1327,-2686 1886,-3957 l 12,0 11,0 c 559,1271 1200,2755 1886,3957 l 68,119 1,-1 c 218,377 451,751 684,1126 1085,1744 2194,3526 2179,5960 -3,560 -65,1062 -177,1508 -115,462 -285,874 -499,1237 -218,368 -483,686 -786,956 -885,788 -2076,1141 -3356,1144 l 0,0 -23,0 z"
   id="path21"
   inkscape:connector-curvature="0"
   style="fill:#000000" />
   <path
   class="fil0"
   d="m 66871,24566 0,0 c -1280,-3 -2471,-356 -3356,-1144 -303,-270 -568,-588 -786,-956 -214,-363 -384,-775 -500,-1237 -111,-446 -173,-948 -176,-1508 -15,-2435 1094,-4216 2178,-5960 234,-375 467,-749 685,-1126 l 1,1 68,-119 c 685,-1202 1326,-2686 1886,-3957 l 11,0 12,0 c 559,1271 1200,2755 1885,3957 l 69,119 1,-1 c 218,377 450,751 684,1126 1085,1744 2194,3525 2179,5960 -4,560 -65,1062 -177,1508 -116,462 -285,874 -499,1237 -219,368 -483,686 -786,956 -885,788 -2077,1141 -3356,1144 l -1,0 -22,0 z"
   id="path23"
   inkscape:connector-curvature="0"
   style="fill:#000000" />
   <path
   class="fil1"
   d="m 31850,67093 0,3003 0,451 c 2849,15 4970,-947 6512,-2694 574,-652 1061,-1401 1464,-2235 763,1619 1714,2885 2789,3810 1388,1197 2965,1806 4572,1849 1591,42 3201,-484 4665,-1563 1395,-1022 2665,-2546 3661,-4558 l 118,0 c 997,2012 2266,3536 3661,4558 1465,1079 3074,1605 4665,1563 1607,-43 3184,-652 4573,-1849 1074,-925 2026,-2191 2788,-3810 404,834 890,1583 1465,2235 1509,1710 3572,2667 6329,2694 l 0,0 49,0 84,0 49,0 0,0 c 2756,-26 4821,-984 6329,-2694 575,-652 1061,-1401 1465,-2235 762,1619 1713,2885 2788,3810 1389,1197 2966,1806 4573,1849 l 158,2 0,-3901 -106,-1 c -1029,-31 -2047,-433 -2955,-1218 -1364,-1169 -2477,-3203 -3039,-6128 -194,-1300 -2672,-1319 -2930,0 -327,2077 -938,3738 -1922,4854 -1002,1132 -2468,1762 -4505,1757 -1982,-17 -3415,-644 -4399,-1756 -984,-1117 -1595,-2778 -1922,-4855 -258,-1319 -2736,-1300 -2930,0 -563,2925 -1675,4959 -3039,6128 -909,785 -1925,1187 -2955,1218 -1050,22 -2122,-332 -3119,-1060 -1578,-1159 -2927,-3390 -3731,-6415 -145,-634 -816,-911 -1483,-902 -667,-9 -1338,268 -1483,902 -804,3025 -2153,5256 -3731,6415 -996,728 -2068,1082 -3119,1060 -1029,-31 -2046,-433 -2955,-1218 -1364,-1169 -2476,-3203 -3039,-6128 -194,-1300 -2671,-1319 -2930,0 -326,2077 -937,3738 -1922,4855 -1007,1138 -2485,1769 -4543,1756 l 0,451 z"
   id="path25"
   inkscape:connector-curvature="0"
   style="fill:#000000;fill-rule:nonzero" />
   <path
   class="fil1"
   d="m 27810,38769 18402,10515 -9862,5766 c -3634,2088 -7192,4205 -10766,6296 l -185,0 0,-28779 2411,0 0,6202 z m 0,19016 14696,-8442 -14696,-8398 0,16840 z"
   id="path27"
   inkscape:connector-curvature="0"
   style="fill:#000000;fill-rule:nonzero" />
  </g>
 </g>
 <g
   id="Направляющие"
   transform="translate(0,-977.77733)">
  <metadata
   id="CorelCorpID_1Corel-Layer" />
 </g>
</svg>