<?xml version="1.0" encoding="UTF-8" standalone="no"?>
<svg
   xmlns:dc="http://purl.org/dc/elements/1.1/"
   xmlns:cc="http://creativecommons.org/ns#"
   xmlns:rdf="http://www.w3.org/1999/02/22-rdf-syntax-ns#"
   xmlns:svg="http://www.w3.org/2000/svg"
   xmlns="http://www.w3.org/2000/svg"
   id="svg2494"
   version="1.1"
   viewBox="0 0 9.859567 6.0033512"
   height="6.0033512mm"
   width="9.8595667mm">
  <defs
     id="defs2488" />
  <metadata
     id="metadata2491">
    <rdf:RDF>
      <cc:Work
         rdf:about="">
        <dc:format>image/svg+xml</dc:format>
        <dc:type
           rdf:resource="http://purl.org/dc/dcmitype/StillImage" />
        <dc:title></dc:title>
      </cc:Work>
    </rdf:RDF>
  </metadata>
  <g
     transform="translate(-12.564756,-272.75717)"
     id="layer1">
    <rect
       y="166.27573"
       x="59.84866"
       height="1.400939"
       width="1.255059"
       id="rect1976"
       style="fill:none;fill-opacity:1;stroke:#000000;stroke-width:0.065;stroke-miterlimit:4;stroke-dasharray:none;stroke-opacity:1" />
    <g
       id="g3086"
       transform="translate(-78.573201,184.40288)">
      <path
         id="path1355-0"
         d="m 92.24725,88.505964 c -0.141,0.1645 -0.611,0.799 -0.728499,0.893 v 3.243 h 3.219499 v -3.102 l 0.329,-0.188 -0.47,-0.658 -0.3525,0.1645 -0.3055,-0.3525 h -1.6685 v 0 z m 0.164501,0.3525 c -0.117501,0.141 -0.47,0.6345 -0.587501,0.705 v 2.7495 h 2.5615 v -2.914 l 0.2115,-0.094 -0.188,-0.282 -0.3525,0.1645 -0.282,-0.329 h -1.3395 v 0 z"
         class="fil0"
         style="clip-rule:evenodd;fill:#000000;fill-rule:evenodd;stroke-width:0.0235;image-rendering:optimizeQuality;shape-rendering:geometricPrecision;text-rendering:geometricPrecision" />
      <rect
         style="fill:none;fill-opacity:1;stroke:#000000;stroke-width:0.08669493;stroke-miterlimit:4;stroke-dasharray:none;stroke-opacity:1"
         id="rect1429-1-1"
         width="3.9881456"
         height="1.4084587"
         x="91.181305"
         y="92.868874" />
      <g
         aria-label="1 2 3"
         transform="matrix(0.28259888,0,0,0.25350225,7.3981817,17.506087)"
         style="font-style:normal;font-weight:normal;font-size:5.33333349px;line-height:1.25;font-family:sans-serif;letter-spacing:0px;word-spacing:0px;fill:#000000;fill-opacity:1;stroke:none"
         id="flowRoot1461-2-5">
        <path
           d="m 297.35091,301.56315 h 0.85938 v -2.96614 l -0.9349,0.1875 v -0.47917 l 0.92969,-0.1875 h 0.52604 v 3.44531 h 0.85937 v 0.44271 h -2.23958 z"
           id="path2285" />
        <path
           d="m 302.80664,301.56315 h 1.83594 v 0.44271 h -2.46875 v -0.44271 q 0.29948,-0.30989 0.8151,-0.83073 0.51823,-0.52344 0.65104,-0.67448 0.25261,-0.28385 0.35157,-0.47916 0.10156,-0.19792 0.10156,-0.38802 0,-0.3099 -0.21875,-0.50521 -0.21615,-0.19532 -0.56511,-0.19532 -0.24739,0 -0.52343,0.0859 -0.27344,0.0859 -0.58594,0.26042 v -0.53125 q 0.31771,-0.12761 0.59375,-0.19271 0.27604,-0.0651 0.50521,-0.0651 0.60416,0 0.96354,0.30208 0.35937,0.30208 0.35937,0.80729 0,0.23958 -0.0911,0.45573 -0.0885,0.21354 -0.32552,0.50521 -0.0651,0.0755 -0.41406,0.4375 -0.34896,0.35937 -0.98438,1.00781 z"
           id="path2287" />
        <path
           d="m 309.04102,299.90951 q 0.3776,0.0807 0.58854,0.33593 0.21354,0.25521 0.21354,0.63021 0,0.57552 -0.39583,0.89063 -0.39584,0.3151 -1.125,0.3151 -0.2448,0 -0.50521,-0.0495 -0.25782,-0.0469 -0.53386,-0.14323 v -0.50781 q 0.21875,0.1276 0.47917,0.19271 0.26042,0.0651 0.54427,0.0651 0.49479,0 0.7526,-0.19531 0.26042,-0.19531 0.26042,-0.56771 0,-0.34375 -0.24219,-0.53646 -0.23958,-0.19531 -0.66927,-0.19531 h -0.45312 v -0.43229 h 0.47396 q 0.38802,0 0.59375,-0.15365 0.20573,-0.15625 0.20573,-0.44791 0,-0.29948 -0.21355,-0.45834 -0.21093,-0.16146 -0.60677,-0.16146 -0.21614,0 -0.46354,0.0469 -0.24739,0.0469 -0.54427,0.14583 v -0.46875 q 0.29948,-0.0833 0.5599,-0.125 0.26302,-0.0417 0.49479,-0.0417 0.59896,0 0.94791,0.27343 0.34896,0.27084 0.34896,0.73438 0,0.32292 -0.18489,0.54687 -0.1849,0.22136 -0.52604,0.3073 z"
           id="path2289" />
      </g>
      <path
         style="fill:none;stroke:#000000;stroke-width:0.0563517;stroke-linecap:butt;stroke-linejoin:miter;stroke-miterlimit:4;stroke-dasharray:none;stroke-opacity:1"
         d="m 92.43637,92.876074 c 0,1.393738 0,1.393738 0,1.393738 z"
         id="path1469-9-6" />
      <path
         style="fill:none;stroke:#000000;stroke-width:0.0563517;stroke-linecap:butt;stroke-linejoin:miter;stroke-miterlimit:4;stroke-dasharray:none;stroke-opacity:1"
         d="m 93.864119,92.881704 c 0,1.393738 0,1.393738 0,1.393738 z"
         id="path1469-3-4-5" />
      <line
         id="line1087-2"
         y2="94.316406"
         x2="95.632744"
         y1="88.395515"
         x1="96.887726"
         class="fil0 str0"
         style="clip-rule:evenodd;fill:none;fill-rule:evenodd;stroke:#000000;stroke-width:0.39768413;image-rendering:optimizeQuality;shape-rendering:geometricPrecision;text-rendering:geometricPrecision" />
      <g
         id="g1174-6-5"
         transform="matrix(0.63610167,0,0,0.67398294,69.837692,52.798246)">
        <polygon
           transform="matrix(1.0100957e-5,0,0,1.0100957e-5,41.892862,55.260372)"
           style="clip-rule:evenodd;fill:none;fill-rule:evenodd;stroke:#000000;stroke-width:49500.30078125;image-rendering:optimizeQuality;shape-rendering:geometricPrecision;text-rendering:geometricPrecision"
           class="fil0 str0"
           points="33126,600260 306387,600260 179132,106782 "
           id="polygon1077-0-4" />
        <polygon
           transform="matrix(1.0100957e-5,0,0,1.0100957e-5,41.892862,55.260372)"
           style="clip-rule:evenodd;fill:#000000;fill-rule:evenodd;stroke:#000000;stroke-width:49500.30078125;image-rendering:optimizeQuality;shape-rendering:geometricPrecision;text-rendering:geometricPrecision"
           class="fil1 str0"
           points="305644,259560 397467,259560 355947,103713 "
           id="polygon1079-6-7" />
        <line
           style="clip-rule:evenodd;fill:none;fill-rule:evenodd;stroke:#000000;stroke-width:0.50000042;image-rendering:optimizeQuality;shape-rendering:geometricPrecision;text-rendering:geometricPrecision"
           class="fil0 str0"
           x1="45.48827"
           y1="56.307972"
           x2="45.48827"
           y2="55.546268"
           id="line1081-2-4" />
        <polygon
           transform="matrix(1.0100957e-5,0,0,1.0100957e-5,41.892862,55.260372)"
           style="clip-rule:evenodd;fill:none;fill-rule:evenodd;stroke:#000000;stroke-width:49500.30078125;image-rendering:optimizeQuality;shape-rendering:geometricPrecision;text-rendering:geometricPrecision"
           class="fil0 str0"
           points="396982,600260 670244,600260 542988,106782 "
           id="polygon1083-6-4" />
        <polyline
           transform="matrix(1.0100957e-5,0,0,1.0100957e-5,41.892862,55.260372)"
           style="clip-rule:evenodd;fill:none;fill-rule:evenodd;stroke:#000000;stroke-width:49500.30078125;image-rendering:optimizeQuality;shape-rendering:geometricPrecision;text-rendering:geometricPrecision"
           class="fil0 str0"
           points="179132,154649 179132,24750 542988,24750 542988,150699 "
           id="polyline1085-1-3" />
      </g>
    </g>
  </g>
</svg>
