<?xml version="1.0" encoding="UTF-8"?>
<!DOCTYPE svg PUBLIC "-//W3C//DTD SVG 1.1//EN" "http://www.w3.org/Graphics/SVG/1.1/DTD/svg11.dtd">
<!-- Creator: CorelDRAW X5 -->
<svg xmlns="http://www.w3.org/2000/svg" xml:space="preserve" width="6.5206mm" height="5.746mm" style="shape-rendering:geometricPrecision; text-rendering:geometricPrecision; image-rendering:optimizeQuality; fill-rule:evenodd; clip-rule:evenodd"
viewBox="0 0 857 756"
 xmlns:xlink="http://www.w3.org/1999/xlink">
 <defs>
  <style type="text/css">
   <![CDATA[
    .fil0 {fill:black}
    .fil1 {fill:black;fill-rule:nonzero}
   ]]>
  </style>
 </defs>
 <g id="Слой_x0020_1">
  <metadata id="CorelCorpID_0Corel-Layer"/>
  <g id="_375866416">
   <path class="fil0" d="M300 0c-19,22 -82,104 -97,117l0 429 195 0 0 -45 -151 0 0 -362c13,-11 60,-75 76,-93l0 0 178 0 38 44 46 -22 26 37 -29 14 0 158 43 0 0 -140 43 -26 -63 -87 -47 22 -39 -45 -220 0 0 0z"/>
   <path class="fil1" d="M23 221l179 102 -96 56c-35,20 -70,41 -105,61l-2 0 0 -280 23 0 0 60 0 0zm0 185l143 -82 -143 -82 0 164z"/>
   <path class="fil0" d="M371 593l0 -109 214 -214 110 0 -324 323zm57 162l-57 0 0 -53 434 -433 53 0 0 56 -430 429zm219 0l-110 0 321 -320 0 109 -211 211z"/>
  </g>
 </g>
</svg>
