<?xml version="1.0" encoding="UTF-8" standalone="no"?>
<svg
   xmlns:dc="http://purl.org/dc/elements/1.1/"
   xmlns:cc="http://creativecommons.org/ns#"
   xmlns:rdf="http://www.w3.org/1999/02/22-rdf-syntax-ns#"
   xmlns:svg="http://www.w3.org/2000/svg"
   xmlns="http://www.w3.org/2000/svg"
   version="1.1"
   id="svg4612"
   viewBox="0 0 33.378065 19.031902"
   height="5.3712258mm"
   width="9.4200315mm">
  <defs
     id="defs4614" />
  <metadata
     id="metadata4617">
    <rdf:RDF>
      <cc:Work
         rdf:about="">
        <dc:format>image/svg+xml</dc:format>
        <dc:type
           rdf:resource="http://purl.org/dc/dcmitype/StillImage" />
        <dc:title></dc:title>
      </cc:Work>
    </rdf:RDF>
  </metadata>
  <g
     transform="translate(1285.2605,134.2966)"
     id="layer1">
    <g
       id="g4420"
       transform="translate(-473.8958,-816.49777)">
      <path
         style="clip-rule:evenodd;fill:#000000;fill-rule:nonzero;image-rendering:optimizeQuality;shape-rendering:geometricPrecision;text-rendering:geometricPrecision"
         d="m -780.4241,682.20117 c -0.37096,0 -0.67383,0.30097 -0.67383,0.66992 l 0,14.3125 c -0.70286,0.35168 -1.18554,1.0739 -1.18554,1.91016 -1e-5,1.18069 0.96224,2.13867 2.14843,2.13867 1.18644,0 2.14844,-0.95798 2.14844,-2.13867 0,-0.83626 -0.4827,-1.55848 -1.18555,-1.91016 l 0,-14.3125 c 0,-0.3687 -0.30312,-0.66992 -0.67382,-0.66992 l -0.57813,0 z m -0.42773,0.39258 1.43554,0 0,11.13281 -1.43554,0 0,-11.13281 z"
         id="path4214" />
      <g
         id="g4440"
         style="clip-rule:evenodd;fill:#000000;fill-rule:evenodd;image-rendering:optimizeQuality;shape-rendering:geometricPrecision;text-rendering:geometricPrecision"
         transform="matrix(3.543307e-4,0,0,3.5433067e-4,-777.15006,709.5982)">
        <g
           transform="matrix(1.0222343,0,0,0.90299152,1509.071,-1501.314)"
           id="g4419"
           style="fill:#000000">
          <path
             style="clip-rule:evenodd;fill:#000000;fill-rule:nonzero;image-rendering:optimizeQuality;shape-rendering:geometricPrecision;text-rendering:geometricPrecision"
             class="fil0"
             d="m -22965.807,-70131.336 0,-4701.823 c -431.8,-76.2 -866.423,-141.111 -1301.045,-194.733 l -2757.311,-4775.2 -2757.312,4775.2 c -832.555,101.6 -1662.289,248.356 -2480.733,437.445 l -4222.045,-3541.89 -956.733,5429.956 c -747.889,378.178 -1476.023,798.689 -2178.756,1258.712 l -5178.778,-1885.245 956.733,5429.956 c -572.911,612.422 -1114.778,1258.711 -1617.134,1927.578 l -5514.622,0 2757.311,4775.2 c -330.2,770.467 -618.067,1560.69 -860.778,2365.023 l -5178.778,1885.245 4222.045,3544.711 c -45.156,838.2 -45.156,1679.222 0,2517.423 l -4222.045,3544.711 5178.778,1885.245 c 242.711,804.333 530.578,1594.555 860.778,2365.022 l -2757.311,4775.201 5514.622,0 c 502.356,671.688 1044.223,1315.155 1617.134,1927.577 l -956.733,5429.957 5178.778,-1885.245 c 702.733,457.2 1430.867,877.711 2178.756,1258.711 l 956.733,5429.956 4222.045,-3541.889 c 818.444,191.911 1645.356,335.845 2480.733,437.445 l 2757.312,4775.2 2757.311,-4775.2 c 437.445,-53.623 869.245,-118.534 1301.045,-194.734 l 0,-4701.823 c -7349.068,1659.467 -14966.246,-1320.8 -19239.091,-7524.045 -4272.845,-6203.245 -4346.223,-14382.046 -177.8,-20658.668 4168.423,-6276.623 11731.979,-9386.712 19106.446,-7854.246 l 310.445,67.734 z"
             id="path11-5" />
          <path
             style="clip-rule:evenodd;fill:#000000;fill-rule:nonzero;image-rendering:optimizeQuality;shape-rendering:geometricPrecision;text-rendering:geometricPrecision"
             class="fil0"
             d="m -95937.192,-70131.336 0,-4701.823 c 431.8,-76.2 866.422,-141.111 1301.044,-194.733 l 2757.312,-4775.2 2757.311,4775.2 c 832.556,101.6 1662.289,248.356 2480.734,437.445 l 4222.045,-3541.89 956.733,5429.956 c 747.889,378.178 1476.022,798.689 2178.756,1258.712 l 5178.778,-1885.245 -956.733,5429.956 c 572.911,612.422 1114.778,1258.711 1617.133,1927.578 l 5514.623,0 -2757.311,4775.2 c 330.2,770.467 618.066,1560.69 860.777,2365.023 l 5178.779,1885.245 -4222.045,3544.711 c 45.155,838.2 45.155,1679.222 0,2517.423 l 4222.045,3544.711 -5178.779,1885.245 c -242.711,804.333 -530.577,1594.555 -860.777,2365.022 l 2757.311,4775.201 -5514.623,0 c -502.355,671.688 -1044.222,1315.155 -1617.133,1927.577 l 956.733,5429.957 -5178.778,-1885.245 c -702.734,457.2 -1430.867,877.711 -2178.756,1258.711 l -956.733,5429.956 -4222.045,-3541.889 c -818.445,191.911 -1645.356,335.845 -2480.734,437.445 l -2757.311,4775.2 -2757.312,-4775.2 c -437.444,-53.623 -869.244,-118.534 -1301.044,-194.734 l 0,-4701.823 c 7346.245,1659.467 14966.246,-1320.8 19239.091,-7524.045 4272.844,-6203.245 4346.222,-14382.046 177.8,-20658.668 -4168.423,-6276.623 -11731.979,-9386.712 -19106.447,-7854.246 l -310.444,67.734 z"
             id="path17" />
        </g>
      </g>
    </g>
  </g>
</svg>
