<?xml version="1.0" encoding="UTF-8"?>
<!DOCTYPE svg PUBLIC "-//W3C//DTD SVG 1.1//EN" "http://www.w3.org/Graphics/SVG/1.1/DTD/svg11.dtd">
<!-- Creator: CorelDRAW X5 -->
<svg xmlns="http://www.w3.org/2000/svg" xml:space="preserve" width="42px" height="28px" style="shape-rendering:geometricPrecision; text-rendering:geometricPrecision; image-rendering:optimizeQuality; fill-rule:evenodd; clip-rule:evenodd"
viewBox="0 0 420000 280000"
 xmlns:xlink="http://www.w3.org/1999/xlink">
 <defs>
  <style type="text/css">
   <![CDATA[
    .fil0 {fill:black}
    .fil1 {fill:black;fill-rule:nonzero}
   ]]>
  </style>
 </defs>
 <g id="Слой_x0020_1">
  <metadata id="CorelCorpID_0Corel-Layer"/>
  <g id="_349576344">
   <path class="fil0" d="M330222 105980l0 -16226c-1491,-266 -2993,-490 -4498,-676l-9513 -16478 -9513 16478c-2877,350 -5733,854 -8558,1512l-14574 -12233 -3304 18739c-2587,1313 -5096,2762 -7522,4344l-17882 -6510 3304 18739c-1981,2118 -3843,4340 -5583,6657l-19030 0 9517 16478c-1141,2664 -2132,5390 -2975,8162l-17878 6507 14574 12233c-158,2891 -158,5793 0,8687l-14574 12229 17878 6510c844,2772 1834,5495 2975,8162l-9517 16478 19030 0c1740,2321 3602,4543 5583,6654l-3304 18739 17882 -6507c2426,1582 4935,3035 7522,4344l3304 18739 14574 -12229c2825,658 5681,1159 8558,1505l9513 16482 9513 -16482c1505,-182 3007,-406 4498,-672l0 -16223c-25365,5723 -51657,-4557 -66406,-25967 -14753,-21413 -14998,-49641 -616,-71302 14382,-21662 40492,-32393 65951,-27108l1071 235z"/>
   <polygon class="fil0" points="344225,271128 344225,64964 367133,64964 367133,271128 "/>
   <polygon class="fil0" points="54149,271128 54149,64964 77056,64964 77056,271128 "/>
   <path class="fil0" d="M92407 105980l0 -16226c1491,-266 2989,-490 4494,-676l9513 -16478 9517 16478c2877,350 5733,854 8554,1512l14574 -12233 3308 18739c2583,1313 5096,2762 7522,4344l17882 -6510 -3308 18739c1985,2118 3847,4340 5583,6657l19030 0 -9513 16478c1138,2664 2132,5390 2972,8162l17882 6507 -14578 12233c158,2891 158,5793 0,8687l14578 12229 -17882 6510c-840,2772 -1834,5495 -2972,8162l9513 16478 -19030 0c-1736,2321 -3598,4543 -5583,6654l3308 18739 -17882 -6507c-2426,1582 -4939,3035 -7522,4344l-3308 18739 -14574 -12229c-2821,658 -5677,1159 -8554,1505l-9517 16482 -9513 -16482c-1505,-182 -3003,-406 -4494,-672l0 -16223c25361,5723 51653,-4557 66406,-25967 14753,-21413 14994,-49641 616,-71302 -14385,-21662 -40495,-32393 -65951,-27108l-1071 235z"/>
   <path class="fil1" d="M160769 9713c6213,0 11536,1253 15992,3777 4445,2520 7816,6087 10101,10724 2282,4638 3427,10084 3427,16352 0,4627 -627,8820 -1883,12607 -1253,3777 -3119,7063 -5625,9835 -2510,2772 -5586,4890 -9223,6367 -3651,1463 -7830,2202 -12537,2202 -4680,0 -8873,-753 -12579,-2272 -3689,-1505 -6783,-3637 -9261,-6381 -2482,-2744 -4347,-6059 -5614,-9919 -1267,-3857 -1894,-8036 -1894,-12520 0,-4599 655,-8820 1978,-12649 1323,-3847 3231,-7105 5737,-9793 2510,-2702 5544,-4764 9139,-6185 3595,-1435 7676,-2146 12243,-2146zm17234 30772c0,-4389 -711,-8180 -2118,-11396 -1421,-3203 -3441,-5642 -6076,-7284 -2618,-1645 -5625,-2468 -9041,-2468 -2422,0 -4652,459 -6713,1365 -2048,921 -3815,2244 -5306,3983 -1477,1743 -2646,3973 -3511,6675 -851,2702 -1281,5751 -1281,9125 0,3399 431,6475 1281,9219 865,2744 2076,5030 3637,6839 1558,1813 3357,3164 5390,4053 2020,907 4249,1351 6671,1351 3108,0 5950,-777 8554,-2324 2604,-1547 4666,-3941 6199,-7189 1547,-3231 2314,-7214 2314,-11949z"/>
   <path id="1" class="fil1" d="M236394 20076l-23877 0 0 15309 19961 0c1841,0 3234,417 4137,1239 907,837 1365,1936 1365,3329 0,1393 -459,2496 -1379,3304 -931,819 -2310,1225 -4123,1225l-19961 0 0 19709c0,2496 -571,4361 -1698,5572 -1131,1211 -2576,1813 -4347,1813 -1782,0 -3245,-616 -4375,-1841 -1127,-1225 -1698,-3077 -1698,-5544l0 -46036c0,-1743 266,-3164 781,-4263 515,-1099 1323,-1908 2422,-2408 1103,-504 2510,-753 4221,-753l28571 0c1936,0 3371,431 4305,1281 931,865 1407,1978 1407,3371 0,1421 -476,2548 -1407,3413 -935,851 -2370,1281 -4305,1281z"/>
   <path id="12" class="fil1" d="M286874 20076l-23877 0 0 15309 19961 0c1841,0 3234,417 4137,1239 907,837 1365,1936 1365,3329 0,1393 -459,2496 -1379,3304 -931,819 -2310,1225 -4123,1225l-19961 0 0 19709c0,2496 -571,4361 -1698,5572 -1131,1211 -2576,1813 -4347,1813 -1782,0 -3245,-616 -4375,-1841 -1127,-1225 -1698,-3077 -1698,-5544l0 -46036c0,-1743 266,-3164 781,-4263 515,-1099 1323,-1908 2422,-2408 1103,-504 2510,-753 4221,-753l28571 0c1936,0 3371,431 4305,1281 931,865 1407,1978 1407,3371 0,1421 -476,2548 -1407,3413 -935,851 -2370,1281 -4305,1281z"/>
  </g>
 </g>
 <g id="Направляющие">
  <metadata id="CorelCorpID_1Corel-Layer"/>
 </g>
</svg>
