<?xml version="1.0" encoding="UTF-8"?>
<!DOCTYPE svg PUBLIC "-//W3C//DTD SVG 1.1//EN" "http://www.w3.org/Graphics/SVG/1.1/DTD/svg11.dtd">
<!-- Creator: CorelDRAW X5 -->
<svg xmlns="http://www.w3.org/2000/svg" xml:space="preserve" width="42px" height="28px" style="shape-rendering:geometricPrecision; text-rendering:geometricPrecision; image-rendering:optimizeQuality; fill-rule:evenodd; clip-rule:evenodd"
viewBox="0 0 420000 280000"
 xmlns:xlink="http://www.w3.org/1999/xlink">
 <defs>
  <style type="text/css">
   <![CDATA[
    .str0 {stroke:black;stroke-width:2667}
    .fil1 {fill:black}
    .fil0 {fill:black;fill-rule:nonzero}
   ]]>
  </style>
 </defs>
 <g id="Слой_x0020_1">
  <metadata id="CorelCorpID_0Corel-Layer"/>
  <g id="_508917384">
   <path class="fil0" d="M176145 214512c6213,0 11536,1253 15992,3777 4445,2520 7816,6087 10101,10724 2282,4638 3427,10084 3427,16352 0,4627 -627,8820 -1883,12607 -1253,3777 -3119,7063 -5625,9835 -2510,2772 -5586,4890 -9223,6367 -3651,1463 -7830,2202 -12537,2202 -4680,0 -8873,-753 -12579,-2272 -3689,-1505 -6783,-3637 -9261,-6381 -2482,-2744 -4347,-6059 -5614,-9919 -1267,-3857 -1894,-8036 -1894,-12520 0,-4599 655,-8820 1978,-12649 1323,-3847 3231,-7105 5737,-9793 2510,-2702 5544,-4764 9139,-6185 3595,-1435 7676,-2146 12243,-2146zm17234 30772c0,-4389 -711,-8180 -2118,-11396 -1421,-3203 -3441,-5642 -6076,-7284 -2618,-1645 -5625,-2468 -9041,-2468 -2422,0 -4652,459 -6713,1365 -2048,921 -3815,2244 -5306,3983 -1477,1743 -2646,3973 -3511,6675 -851,2702 -1281,5751 -1281,9125 0,3399 431,6475 1281,9219 865,2744 2076,5030 3637,6839 1558,1813 3357,3164 5390,4053 2020,907 4249,1351 6671,1351 3108,0 5950,-777 8554,-2324 2604,-1547 4666,-3941 6199,-7189 1547,-3231 2314,-7214 2314,-11949z"/>
   <path id="1" class="fil0" d="M231823 221785l23289 35256 0 -35592c0,-2314 501,-4039 1491,-5194 987,-1159 2324,-1743 4025,-1743 1740,0 3105,571 4123,1729 1005,1155 1505,2895 1505,5208l0 47054c0,5250 -2174,7872 -6535,7872 -1085,0 -2062,-154 -2937,-476 -865,-305 -1687,-809 -2454,-1491 -753,-669 -1463,-1474 -2118,-2380 -655,-907 -1309,-1841 -1964,-2800l-22719 -34839 0 35049c0,2282 -529,4011 -1589,5180 -1057,1169 -2422,1757 -4081,1757 -1712,0 -3091,-588 -4123,-1771 -1029,-1183 -1547,-2912 -1547,-5166l0 -46151c0,-1964 224,-3497 655,-4610 518,-1225 1365,-2230 2566,-3010 1197,-763 2492,-1155 3885,-1155 1085,0 2006,182 2786,529 781,350 1463,837 2048,1435 585,599 1169,1365 1782,2328 616,949 1257,1936 1911,2982z"/>
   <path class="fil1" d="M313499 84805l0 -13251c-1218,-217 -2443,-399 -3672,-550l-7770 -13454 -7767 13454c-2352,287 -4683,697 -6986,1236l-11904 -9989 -2699 15302c-2111,1071 -4162,2254 -6143,3546l-14602 -5313 2699 15302c-1617,1726 -3140,3542 -4557,5432l-15540 0 7770 13458c-931,2174 -1740,4400 -2426,6664l-14602 5313 11904 9989c-130,2363 -130,4732 0,7091l-11904 9989 14602 5313c686,2265 1495,4491 2426,6668l-7770 13454 15540 0c1418,1894 2940,3710 4557,5436l-2699 15302 14602 -5313c1981,1292 4032,2475 6143,3542l2699 15302 11904 -9986c2303,539 4634,949 6986,1232l7767 13458 7770 -13458c1229,-151 2454,-333 3672,-550l0 -13248c-20710,4673 -42182,-3721 -54226,-21203 -12047,-17483 -12247,-40537 -504,-58223 11746,-17689 33068,-26453 53855,-22134l875 189z"/>
   <polygon class="fil1" points="324933,219660 324933,51314 343637,51314 343637,219660 "/>
   <polygon class="fil1" points="76591,219660 76591,51314 95298,51314 95298,219660 "/>
   <path class="fil1" d="M107832 84805l0 -13251c1218,-217 2443,-399 3672,-550l7767 -13454 7770 13454c2349,287 4683,697 6986,1236l11904 -9989 2699 15302c2111,1071 4162,2254 6143,3546l14599 -5313 -2699 15302c1621,1726 3140,3542 4561,5432l15537 0 -7770 13458c931,2174 1743,4400 2429,6664l14599 5313 -11900 9989c126,2363 126,4732 0,7091l11900 9989 -14599 5313c-686,2265 -1498,4491 -2429,6668l7770 13454 -15537 0c-1421,1894 -2940,3710 -4561,5436l2699 15302 -14599 -5313c-1981,1292 -4032,2475 -6143,3542l-2699 15302 -11904 -9986c-2303,539 -4638,949 -6986,1232l-7770 13458 -7767 -13458c-1229,-151 -2454,-333 -3672,-550l0 -13248c20710,4673 42182,-3721 54226,-21203 12044,-17483 12247,-40537 504,-58223 -11746,-17689 -33068,-26453 -53855,-22134l-875 189z"/>
   <polygon class="fil0 str0" points="193697,66738 193697,65608 193697,64421 193697,63238 193697,62055 193697,60869 193697,59686 193697,58503 193697,57320 193697,56133 193697,54950 193697,53767 193697,52581 193697,51398 193697,50215 193697,49028 193697,47845 193697,46662 193697,45479 193697,44293 193697,43110 193697,41927 193697,40740 193697,39557 193697,38374 193697,37188 193697,36005 193697,34818 193697,33635 193697,32452 193697,31266 193697,30083 193697,28900 193697,27713 193697,26530 193697,25344 193697,24161 193697,22974 193697,21791 193697,20605 193697,19422 193697,18235 193697,17052 193697,15866 193697,14683 193697,13496 193697,12313 193697,11127 193697,9940 193697,8757 193697,7571 193697,6384 193697,5201 193697,4015 200998,4015 200998,66738 "/>
   <polygon class="fil0 str0" points="221190,66738 221190,65608 221190,64421 221190,63238 221190,62055 221190,60869 221190,59686 221190,58503 221190,57320 221190,56133 221190,54950 221190,53767 221190,52581 221190,51398 221190,50215 221190,49028 221190,47845 221190,46662 221190,45479 221190,44293 221190,43110 221190,41927 221190,40740 221190,39557 221190,38374 221190,37188 221190,36005 221190,34818 221190,33635 221190,32452 221190,31266 221190,30083 221190,28900 221190,27713 221190,26530 221190,25344 221190,24161 221190,22974 221190,21791 221190,20605 221190,19422 221190,18235 221190,17052 221190,15866 221190,14683 221190,13496 221190,12313 221190,11127 221190,9940 221190,8757 221190,7571 221190,6384 221190,5201 221190,4015 228491,4015 228491,66738 "/>
   <polygon class="fil0 str0" points="232334,18746 255570,3710 255570,3710 258633,8404 244493,17581 238889,21217 246411,26103 258622,34031 257173,36257 255570,38721 232334,23674 228526,21210 "/>
   <polygon class="fil0 str0" points="189714,18746 166478,3710 166478,3710 163419,8404 177559,17581 183159,21217 175637,26103 163429,34031 164875,36257 166478,38721 189714,23674 193526,21210 "/>
  </g>
 </g>
 <g id="Направляющие">
  <metadata id="CorelCorpID_1Corel-Layer"/>
 </g>
</svg>
