<?xml version="1.0" encoding="UTF-8" standalone="no"?>
<svg
   width="11.557467mm"
   height="6.3658381mm"
   viewBox="0 0 11.557467 6.365838"
   version="1.1"
   id="svg8"
   sodipodi:docname="CruizePilot_constForageStab.svg"
   inkscape:version="1.1.2 (b8e25be8, 2022-02-05)"
   xmlns:inkscape="http://www.inkscape.org/namespaces/inkscape"
   xmlns:sodipodi="http://sodipodi.sourceforge.net/DTD/sodipodi-0.dtd"
   xmlns="http://www.w3.org/2000/svg"
   xmlns:svg="http://www.w3.org/2000/svg"
   xmlns:rdf="http://www.w3.org/1999/02/22-rdf-syntax-ns#"
   xmlns:cc="http://creativecommons.org/ns#"
   xmlns:dc="http://purl.org/dc/elements/1.1/">
  <sodipodi:namedview
     pagecolor="#ffffff"
     bordercolor="#666666"
     borderopacity="1"
     objecttolerance="10"
     gridtolerance="10"
     guidetolerance="10"
     inkscape:pageopacity="0"
     inkscape:pageshadow="2"
     inkscape:window-width="1312"
     inkscape:window-height="971"
     id="namedview23"
     showgrid="false"
     inkscape:zoom="22.627417"
     inkscape:cx="23.400815"
     inkscape:cy="9.2586794"
     inkscape:window-x="0"
     inkscape:window-y="25"
     inkscape:window-maximized="0"
     inkscape:current-layer="g2570"
     inkscape:pagecheckerboard="0"
     inkscape:document-units="mm" />
  <defs
     id="defs2">
    <pattern
       y="0"
       x="0"
       height="6"
       width="6"
       patternUnits="userSpaceOnUse"
       id="EMFhbasepattern" />
    <pattern
       y="0"
       x="0"
       height="6"
       width="6"
       patternUnits="userSpaceOnUse"
       id="EMFhbasepattern-4" />
    <pattern
       y="0"
       x="0"
       height="6"
       width="6"
       patternUnits="userSpaceOnUse"
       id="EMFhbasepattern-2" />
    <pattern
       y="0"
       x="0"
       height="6"
       width="6"
       patternUnits="userSpaceOnUse"
       id="EMFhbasepattern-5" />
    <pattern
       y="0"
       x="0"
       height="6"
       width="6"
       patternUnits="userSpaceOnUse"
       id="EMFhbasepattern-55" />
    <pattern
       y="0"
       x="0"
       height="6"
       width="6"
       patternUnits="userSpaceOnUse"
       id="EMFhbasepattern-23" />
  </defs>
  <metadata
     id="metadata5">
    <rdf:RDF>
      <cc:Work
         rdf:about="">
        <dc:format>image/svg+xml</dc:format>
        <dc:type
           rdf:resource="http://purl.org/dc/dcmitype/StillImage" />
      </cc:Work>
    </rdf:RDF>
  </metadata>
  <g
     id="g892"
     transform="scale(0.8)">
    <g
       transform="matrix(2.6458334e-4,0,0,2.6458334e-4,6.4487431,0.50177421)"
       style="clip-rule:evenodd;fill-rule:evenodd;image-rendering:optimizeQuality;shape-rendering:geometricPrecision;text-rendering:geometricPrecision"
       id="Слой_x0020_1"
       inkscape:label="Слой 1">
      <metadata
         id="CorelCorpID_0Corel-Layer" />
      <g
         id="g2570"
         transform="translate(2043.9805)">
        <g
           id="_313336512"
           transform="matrix(1.1091693,0,0,1.1091693,-7316.5904,-3043.3412)"
           style="fill:#ffffff">
          <g
             id="g1929"
             style="fill:#ffffff">
            <polygon
               class="fil0 str0"
               points="15023,15679 14902,15679 14781,15679 14660,15679 14539,15679 14418,15679 14296,15679 14175,15679 14054,15679 13933,15679 13812,15679 13691,15679 13570,15679 13449,15679 13327,15679 13206,15679 13085,15679 12964,15679 12843,15679 12722,15679 12601,15679 12479,15679 12358,15679 12237,15679 12116,15679 12116,14932 18528,14932 18528,15679 18412,15679 18291,15679 18170,15679 18049,15679 17928,15679 17807,15679 17686,15679 17565,15679 17444,15679 17323,15679 17202,15679 17081,15679 16960,15679 16839,15679 16718,15679 16597,15679 16476,15679 16354,15679 16233,15679 16112,15679 15992,15679 15870,15679 15749,15679 15628,15679 15507,15679 15386,15679 15265,15679 15144,15679 "
               id="polygon7"
               transform="matrix(0.51916582,0,0,0.51916582,5810.8811,13522.336)"
               style="fill:#ffffff" />
            <polygon
               class="fil0 str0"
               points="15023,12868 14902,12868 14781,12868 14660,12868 14539,12868 14418,12868 14296,12868 14175,12868 14054,12868 13933,12868 13812,12868 13691,12868 13570,12868 13449,12868 13327,12868 13206,12868 13085,12868 12964,12868 12843,12868 12722,12868 12601,12868 12479,12868 12358,12868 12237,12868 12116,12868 12116,12122 18528,12122 18528,12868 18412,12868 18291,12868 18170,12868 18049,12868 17928,12868 17807,12868 17686,12868 17565,12868 17444,12868 17323,12868 17202,12868 17081,12868 16960,12868 16839,12868 16718,12868 16597,12868 16476,12868 16354,12868 16233,12868 16112,12868 15992,12868 15870,12868 15749,12868 15628,12868 15507,12868 15386,12868 15265,12868 15144,12868 "
               id="polygon9"
               transform="matrix(0.51916582,0,0,0.51916582,5810.8811,13522.336)"
               style="fill:#ffffff" />
            <polygon
               class="fil0 str0"
               points="15184,9042 15412,9190 15664,9353 14126,11729 13874,12118 13622,11729 12085,9353 12565,9041 13503,10486 13874,11059 14374,10290 "
               id="polygon11"
               transform="matrix(0.51916582,0,0,0.51916582,5810.8811,13522.336)"
               style="fill:#ffffff" />
            <polygon
               class="fil0 str0"
               points="15184,18773 15412,18625 15664,18461 14126,16086 13874,15696 13622,16086 12085,18461 12565,18774 13503,17329 13874,16756 14374,17525 "
               id="polygon13"
               transform="matrix(0.51916582,0,0,0.51916582,5810.8811,13522.336)"
               style="fill:#ffffff" />
            <path
               class="fil1 str0"
               d="m 16528.02,18677.652 c -936.055,-933.979 -935.535,-2451.5 0,-3387.037 935.019,-935.018 2459.29,-933.98 3393.269,2.076 934.498,936.056 916.328,2465.519 -6.75,3384.961 -923.077,919.444 -2450.462,933.979 -3387.037,0 z m -229.471,1013.412 -783.939,-783.94 667.127,-667.128 c 202.476,330.189 478.67,600.155 784.46,784.46 l -667.648,667.126 z m 4646.016,-791.209 -783.941,783.941 -670.242,-670.243 c 320.844,-200.398 581.466,-457.385 782.901,-784.979 z m -5419.572,-3849.095 783.94,-783.94 669.724,669.724 c -331.228,202.993 -592.367,464.653 -789.133,778.748 l -665.05,-665.051 z m 4625.248,-775.114 783.939,783.94 -669.722,668.685 c -201.956,-316.691 -455.828,-593.925 -784.46,-782.382 z m -2484.727,-571.083 h 1108.937 l 1.558,950.074 c -385.22,-89.816 -741.887,-93.969 -1105.303,-1.558 l -5.192,-949.035 z m 1109.976,6560.7 h -1108.939 v -949.557 c 380.549,82.549 748.639,66.454 1108.939,-1.037 z m 2728.737,-3833.522 v 1108.938 l -954.747,-1.557 c 76.318,-358.225 97.083,-730.466 2.596,-1107.381 h 952.668 z m -6562.256,1104.266 v -1108.419 h 949.034 c -84.624,381.587 -100.719,751.233 0,1108.938 h -949.034 z m 2081.852,646.361 c -651.551,-660.898 -698.277,-1735.571 0,-2396.988 698.279,-661.418 1759.975,-654.149 2396.991,0 637.016,654.149 707.621,1738.686 0,2397.507 -707.624,658.303 -1745.957,660.898 -2397.508,0 z"
               id="path15"
               inkscape:connector-curvature="0"
               style="stroke-width:0.519166;fill:#ffffff" />
            <path
               class="fil1 str0"
               d="m 16528.02,26289.662 c -936.055,-933.979 -935.535,-2451.5 0,-3387.039 935.019,-935.016 2459.29,-933.979 3393.269,2.078 934.498,936.055 916.328,2465.518 -6.75,3384.961 -923.077,919.443 -2450.462,933.979 -3387.037,0 z m -229.471,1013.413 -783.939,-783.942 667.127,-667.127 c 202.476,330.188 478.67,600.155 784.46,784.459 l -667.648,667.127 z m 4646.016,-791.211 -783.941,783.942 -670.242,-670.244 c 320.844,-200.399 581.466,-457.384 782.901,-784.979 z m -5419.572,-3849.094 783.94,-783.94 669.724,669.723 c -331.228,202.993 -592.367,464.653 -789.133,778.749 l -665.05,-664.532 z m 4625.248,-775.114 783.939,783.938 -669.722,668.687 c -201.956,-316.172 -455.828,-593.407 -784.46,-782.384 z m -2484.727,-571.083 h 1108.937 l 1.558,950.591 c -385.22,-89.815 -741.887,-93.967 -1105.303,-1.557 z m 1109.976,6560.699 h -1108.939 v -949.554 c 380.549,82.546 748.639,66.452 1108.939,-1.04 z m 2728.737,-3833.521 v 1108.937 l -954.747,-2.076 c 76.318,-358.225 97.083,-729.947 2.596,-1106.861 h 952.668 z m -6562.256,1104.265 v -1108.937 h 949.034 c -84.624,381.586 -100.719,751.75 0,1108.937 z m 2081.852,646.363 c -651.551,-660.899 -698.277,-1735.572 0,-2396.991 698.279,-661.416 1759.975,-654.148 2396.991,0 637.016,654.15 707.621,1738.688 0,2397.508 -707.624,658.303 -1745.957,660.381 -2397.508,0 z"
               id="path17"
               inkscape:connector-curvature="0"
               style="stroke-width:0.519166;fill:#ffffff" />
          </g>
        </g>
        <g
           id="g133"
           transform="translate(32206.503,-4364.1746)"
           style="fill:#ffffff">
          <path
             style="fill:#ffffff;stroke-width:844.365"
             d="m -41313.185,2566.8417 c -291.701,-17.1379 -567.227,254.7121 -1113.954,800.7718 l -877.661,875.7858 1108.328,1113.9541 c 1285.28,1292.3436 1279.919,1277.5001 543.85,1864.0919 -312.73,249.2315 -490.733,491.6749 -401.323,545.7253 225.841,136.5234 3847.117,221.609 4232.651,99.3918 l 316.932,-101.2698 V 5674.2842 c 0,-2318.6509 -67.578,-2448.9316 -857.032,-1625.9231 -593.832,619.0726 -588.09,622.1387 -1744.069,-543.8476 -608.672,-613.9407 -916.02,-920.5339 -1207.722,-937.6718 z m 10479.423,2726.7501 c -1596.378,62.5249 -3226.464,552.4276 -4769,1579.0397 -368.703,245.3819 -723.347,446.3317 -789.52,446.3317 -205.921,0 -2240.924,2271.9462 -2529.839,2824.2688 -920.853,1760.44 -1263.256,3111.561 -1260.231,4969.661 4.218,2507.733 1449.941,5809.946 3028.68,6914.393 485.198,339.431 500.063,334.12 1526.53,-648.869 1028.229,-984.67 1087.389,-1158.16 577.606,-1695.311 -455.224,-479.641 -701.51,-469.832 -1248.979,52.51 l -450.082,429.454 -339.438,-457.585 c -505.332,-681.674 -1340.032,-2740.819 -1346.496,-3319.358 l -5.614,-504.468 h 688.251 c 768.56,0 824.183,-71.599 740.761,-945.173 l -58.137,-613.237 h -684.5 -686.376 v -525.097 c 0,-832.638 724.149,-2656.532 1397.131,-3521.896 l 301.932,-390.0713 729.508,701.3783 c 911.575,875.211 1483.786,1444.54 2512.961,2509.211 l 808.261,838.279 -118.147,543.849 c -562.771,2608.339 2629.233,3900.056 4249.53,2302.922 233.551,-230.213 434.666,-520.835 586.983,-875.785 0,0 159.09,-511.325 170.654,-768.891 11.705,-263.57 -112.519,-693.877 -112.519,-693.877 -116.723,-356.418 -302.06,-680.798 -530.722,-960.176 -715.901,-874.64 -1860.663,-1303.562 -2685.493,-862.659 l -307.556,165.03 -1022.063,-982.679 c -3222.151,-3099.4856 -3186.973,-3057.0064 -2666.739,-3388.7473 1183.199,-754.5084 2003.793,-1151.9965 2700.495,-1275.2343 302.874,-53.5744 947.221,-237.4531 1117.705,-161.2778 202.295,90.3998 154.923,437.2492 133.149,720.1318 l -15.004,631.9911 h 778.268 780.143 l 48.76,-661.9964 46.882,-661.9965 654.496,97.5172 c 1346.847,204.1857 3039.855,938.5003 3533.15,1532.1547 l 206.287,247.5461 -500.716,446.3321 -502.593,448.2063 472.587,481.964 c 576.727,589.259 736.471,597.488 1288.361,69.388 l 431.33,-412.576 311.306,375.069 c 426.279,514.405 849.509,1356.341 1112.08,2160.397 h 1721.565 C -22134.555,8311.4139 -26353.037,5118.0965 -30833.762,5293.5918 Z"
             id="path876-6"
             inkscape:connector-curvature="0" />
          <rect
             style="fill:#ffffff;stroke-width:3402.2"
             id="rect3369"
             height="4627.2993"
             x="-43904.609"
             y="15887.581"
             width="2187.4016" />
          <path
             style="fill:#ffffff;fill-rule:evenodd;stroke:#ffffff;stroke-width:0;stroke-linecap:butt;stroke-linejoin:miter;stroke-miterlimit:4;stroke-dasharray:none;stroke-opacity:1"
             d="m -45726.378,19859.043 h 5866.101 l -2878.396,3060.576 z"
             id="path3371"
             inkscape:connector-curvature="0" />
        </g>
      </g>
    </g>
  </g>
</svg>
