<?xml version="1.0" encoding="UTF-8" standalone="no"?>
<svg
   xmlns:dc="http://purl.org/dc/elements/1.1/"
   xmlns:cc="http://creativecommons.org/ns#"
   xmlns:rdf="http://www.w3.org/1999/02/22-rdf-syntax-ns#"
   xmlns:svg="http://www.w3.org/2000/svg"
   xmlns="http://www.w3.org/2000/svg"
   xmlns:sodipodi="http://sodipodi.sourceforge.net/DTD/sodipodi-0.dtd"
   xmlns:inkscape="http://www.inkscape.org/namespaces/inkscape"
   width="8.2020836mm"
   height="8.008461mm"
   viewBox="0 0 8.2020836 8.008461"
   version="1.1"
   id="svg8"
   inkscape:version="0.91 r13725"
   sodipodi:docname="CruizePilot_speedDownByGeneralSettings.svg">
  <sodipodi:namedview
     pagecolor="#7f7f7f"
     bordercolor="#666666"
     borderopacity="1"
     objecttolerance="10"
     gridtolerance="10"
     guidetolerance="10"
     inkscape:pageopacity="0"
     inkscape:pageshadow="2"
     inkscape:window-width="1920"
     inkscape:window-height="1031"
     id="namedview13"
     showgrid="false"
     inkscape:zoom="18.634255"
     inkscape:cx="2.6889832"
     inkscape:cy="15.244017"
     inkscape:window-x="0"
     inkscape:window-y="25"
     inkscape:window-maximized="1"
     inkscape:current-layer="svg8"
     fit-margin-top="0"
     fit-margin-left="0"
     fit-margin-right="0"
     fit-margin-bottom="0" />
  <defs
     id="defs2">
    <pattern
       y="0"
       x="0"
       height="6"
       width="6"
       patternUnits="userSpaceOnUse"
       id="EMFhbasepattern" />
    <pattern
       y="0"
       x="0"
       height="6"
       width="6"
       patternUnits="userSpaceOnUse"
       id="EMFhbasepattern-4" />
    <pattern
       y="0"
       x="0"
       height="6"
       width="6"
       patternUnits="userSpaceOnUse"
       id="EMFhbasepattern-2" />
    <pattern
       y="0"
       x="0"
       height="6"
       width="6"
       patternUnits="userSpaceOnUse"
       id="EMFhbasepattern-5" />
    <pattern
       y="0"
       x="0"
       height="6"
       width="6"
       patternUnits="userSpaceOnUse"
       id="EMFhbasepattern-55" />
    <pattern
       y="0"
       x="0"
       height="6"
       width="6"
       patternUnits="userSpaceOnUse"
       id="EMFhbasepattern-23" />
  </defs>
  <metadata
     id="metadata5">
    <rdf:RDF>
      <cc:Work
         rdf:about="">
        <dc:format>image/svg+xml</dc:format>
        <dc:type
           rdf:resource="http://purl.org/dc/dcmitype/StillImage" />
        <dc:title></dc:title>
      </cc:Work>
    </rdf:RDF>
  </metadata>
  <g
     id="g4173"
     transform="translate(-14.187345,2.0389945)">
    <path
       style="fill:#ffffff;stroke-width:0.24818198"
       d="M 17.139819,4.8152175 C 16.675784,4.4905901 16.250345,3.5197747 16.249106,2.7826827 c -8.89e-4,-0.5461469 0.09983,-0.943411 0.370494,-1.4608532 0.08492,-0.1623426 0.682992,-0.82991269 0.743518,-0.82991269 0.01945,0 0.124037,-0.0590117 0.232409,-0.13113646 2.418101,-1.60933125 5.560071,1.26835535 4.105407,3.76008845 -0.07044,0.1206701 -0.128086,0.230522 -0.128086,0.2441154 0,0.043492 -0.472085,0.5204474 -0.515131,0.5204474 -0.06846,0 -0.672403,-0.5312158 -0.630409,-0.5778413 0.108974,-0.1209967 0.1908,-0.1913437 0.284663,-0.2561662 0.05256,-0.036296 0.169456,0.084064 0.169456,0.084064 0.0382,0.032126 0.0772,0.060086 0.11454,0.052063 0.216486,-0.0465 0.393956,-0.3635237 0.556332,-1.0499789 L 21.581429,3.0144 21.359484,3.000285 21.137535,2.986169 l 0,-0.2059444 0,-0.2059464 0.206198,-0.022884 c 0.230024,-0.025526 0.225426,-0.013304 0.14329,-0.3809526 -0.06214,-0.2781694 -0.220359,-0.6166625 -0.37606,-0.804552 L 21.019801,1.2558615 20.892879,1.3773126 C 20.730663,1.5325358 20.683901,1.5300005 20.514385,1.3568012 L 20.375443,1.214839 20.522665,1.0835601 20.669887,0.95228094 20.609526,0.87964124 C 20.464533,0.70514967 19.966666,0.48928614 19.570791,0.42927005 l -0.192102,-0.029123 -0.01409,0.19462366 -0.01409,0.19462366 -0.229107,0 -0.229109,0 0.0043,-0.1854131 c 0.0064,-0.0831472 0.02048,-0.18517659 -0.03898,-0.2117474 -0.05011,-0.0223898 -0.239166,0.0314202 -0.328189,0.0471674 -0.20478,0.0362232 -0.446314,0.15345005 -0.794089,0.37522073 -0.152911,0.0975085 -0.162939,0.0847123 0.78414,0.9957359 l 0.300139,0.2887113 0.09062,-0.048441 c 0.24244,-0.1295936 0.578959,-0.00342 0.789382,0.2536607 0.06721,0.082117 0.121561,0.1775896 0.155869,0.2823506 0,0 0.03662,0.1261816 0.03318,0.203652 -0.0034,0.075706 -0.05043,0.2263509 -0.05043,0.2263509 -0.04477,0.1043292 -0.10383,0.1896356 -0.172477,0.2573019 -0.47625,0.4694415 -1.414192,0.08986 -1.248778,-0.6768026 L 18.451514,2.4369611 18.213695,2.1909157 C 17.911192,1.8779796 17.743396,1.7102466 17.475459,1.4529981 l -0.214503,-0.205946 -0.08898,0.1144145 C 16.974168,1.615821 16.761574,2.1522155 16.761574,2.3969508 l 0,0.1544256 0.201385,0 0.201385,0 0.01722,0.1802432 c 0.02452,0.2567677 0.0083,0.2774151 -0.217601,0.2774151 l -0.202379,0 0.0016,0.1487388 c 0.0019,0.1700486 0.247407,0.7749567 0.395938,0.9753195 l 0.09971,0.1345015 0.13191,-0.1258569 C 17.551658,3.9882069 17.6244,3.9851107 17.758203,4.1260906 17.908042,4.283974 17.890737,4.3347714 17.588512,4.624193 17.286805,4.9131201 17.282436,4.91498 17.139823,4.815212 Z M 15.699484,0.62354966 c -0.02628,-0.0158869 0.02603,-0.0869245 0.11795,-0.1601801 0.216351,-0.17241543 0.217532,-0.16837046 -0.160247,-0.54822582 l -0.325426,-0.3272138 0.257688,-0.25737618 c 0.321396,-0.32100405 0.324749,-0.32080705 0.68256,0.0401012 0.339774,0.34271551 0.337938,0.3421419 0.512482,0.1601801 0.232042,-0.24190488 0.252018,-0.20405869 0.252018,0.47745674 l 0,0.61475397 -0.09339,0.0296065 c -0.113319,0.0359221 -1.177249,0.0110251 -1.24363,-0.0291026 z"
       id="path876"
       inkscape:connector-curvature="0" />
    <rect
       y="2.8135607"
       x="15.003837"
       height="1.3600909"
       width="0.64256257"
       id="rect3369"
       style="fill:#ffffff" />
    <path
       inkscape:connector-curvature="0"
       id="path3371"
       d="m 14.468368,3.9808827 1.724209,0 -0.84604,0.8995878 z"
       style="fill:#ffffff;fill-rule:evenodd;stroke:#ffffff;stroke-width:0;stroke-linecap:butt;stroke-linejoin:miter;stroke-miterlimit:4;stroke-dasharray:none;stroke-opacity:1" />
  </g>
</svg>
