<?xml version="1.0" encoding="UTF-8" standalone="no"?>
<svg
   xmlns:dc="http://purl.org/dc/elements/1.1/"
   xmlns:cc="http://creativecommons.org/ns#"
   xmlns:rdf="http://www.w3.org/1999/02/22-rdf-syntax-ns#"
   xmlns:svg="http://www.w3.org/2000/svg"
   xmlns="http://www.w3.org/2000/svg"
   xmlns:sodipodi="http://sodipodi.sourceforge.net/DTD/sodipodi-0.dtd"
   xmlns:inkscape="http://www.inkscape.org/namespaces/inkscape"
   width="8.3343754mm"
   height="7.1615677mm"
   viewBox="0 0 8.3343754 7.1615677"
   version="1.1"
   id="svg8"
   inkscape:version="0.91 r13725"
   sodipodi:docname="CruizePilot_systemActivate.svg">
  <sodipodi:namedview
     pagecolor="#ffffff"
     bordercolor="#666666"
     borderopacity="1"
     objecttolerance="10"
     gridtolerance="10"
     guidetolerance="10"
     inkscape:pageopacity="0"
     inkscape:pageshadow="2"
     inkscape:window-width="1920"
     inkscape:window-height="1031"
     id="namedview13"
     showgrid="false"
     inkscape:zoom="8.3640208"
     inkscape:cx="15.004745"
     inkscape:cy="12.687817"
     inkscape:window-x="0"
     inkscape:window-y="25"
     inkscape:window-maximized="1"
     inkscape:current-layer="svg8" />
  <defs
     id="defs2">
    <pattern
       y="0"
       x="0"
       height="6"
       width="6"
       patternUnits="userSpaceOnUse"
       id="EMFhbasepattern" />
    <pattern
       y="0"
       x="0"
       height="6"
       width="6"
       patternUnits="userSpaceOnUse"
       id="EMFhbasepattern-4" />
    <pattern
       y="0"
       x="0"
       height="6"
       width="6"
       patternUnits="userSpaceOnUse"
       id="EMFhbasepattern-2" />
    <pattern
       y="0"
       x="0"
       height="6"
       width="6"
       patternUnits="userSpaceOnUse"
       id="EMFhbasepattern-5" />
    <pattern
       y="0"
       x="0"
       height="6"
       width="6"
       patternUnits="userSpaceOnUse"
       id="EMFhbasepattern-55" />
    <pattern
       y="0"
       x="0"
       height="6"
       width="6"
       patternUnits="userSpaceOnUse"
       id="EMFhbasepattern-23" />
  </defs>
  <metadata
     id="metadata5">
    <rdf:RDF>
      <cc:Work
         rdf:about="">
        <dc:format>image/svg+xml</dc:format>
        <dc:type
           rdf:resource="http://purl.org/dc/dcmitype/StillImage" />
        <dc:title></dc:title>
      </cc:Work>
    </rdf:RDF>
  </metadata>
  <path
     inkscape:connector-curvature="0"
     id="path876"
     d="M 2.2360663,7.0747326 C 1.662184,6.6732589 1.1360333,5.4726304 1.1345021,4.5610528 1.1333612,3.8856211 1.2579674,3.3943159 1.5926984,2.7543839 c 0.1050179,-0.2007726 0.844673,-1.026371 0.9195257,-1.026371 0.024059,0 0.1534,-0.072981 0.2874261,-0.1621793 2.9905174,-1.99029489 6.87626,1.5686026 5.0772455,4.6501829 -0.087123,0.1492354 -0.1584065,0.2850916 -0.1584065,0.3019028 0,0.053788 -0.5838385,0.6436486 -0.6370743,0.6436486 -0.084663,0 -0.8315745,-0.6569661 -0.7796395,-0.7146289 0.1347701,-0.1496392 0.2359657,-0.2366388 0.3520488,-0.3168062 0.064995,-0.044888 0.2095703,0.1039636 0.2095703,0.1039636 0.047241,0.039731 0.095468,0.07431 0.1416524,0.064388 C 7.2727798,6.2409765 7.4922606,5.8489068 7.693075,4.9999528 l 0.036034,-0.1523297 -0.2744851,-0.017457 -0.2744874,-0.017457 0,-0.254696 0,-0.2546983 0.2550086,-0.028301 C 7.7196165,4.2434455 7.7139298,4.2585612 7.6123508,3.8038814 7.5354945,3.4598628 7.3398236,3.0412411 7.1472653,2.8088741 L 7.034523,2.6727999 6.8775563,2.8230012 C 6.6769404,3.014969 6.6191088,3.0118336 6.4094655,2.7976345 L 6.2376319,2.6220667 6.4197046,2.4597113 6.6017773,2.2973555 6.52713,2.2075204 C 6.3478139,1.9917229 5.7320919,1.7247598 5.242505,1.6505366 l -0.2375768,-0.036017 -0.017434,0.2406953 -0.017434,0.2406953 -0.2833414,0 -0.2833436,0 0.00527,-0.2293044 c 0.00794,-0.10283 0.025334,-0.2290119 -0.048211,-0.2618726 -0.061971,-0.02769 -0.2957826,0.038858 -0.4058779,0.058333 -0.253256,0.044798 -0.5519664,0.189775 -0.9820672,0.4640436 -0.189108,0.1205909 -0.2015105,0.1047655 0.9697629,1.2314483 l 0.3711876,0.3570555 0.112076,-0.059908 c 0.2998308,-0.1602712 0.7160117,-0.00423 0.976246,0.3137078 0.083125,0.1015553 0.1503376,0.2196289 0.192766,0.3491891 0,0 0.045288,0.1560515 0.041025,0.2518608 -0.00415,0.093627 -0.06237,0.2799331 -0.06237,0.2799331 C 5.5178093,4.9794225 5.4447753,5.0849228 5.3598774,5.1686072 4.7708885,5.7491757 3.6109153,5.2797396 3.8154859,4.3315907 L 3.8582269,4.1334917 3.5641124,3.829202 C 3.1900405,3.4421868 2.9825216,3.2347478 2.6511588,2.916603 L 2.3858791,2.6619051 2.2758363,2.803404 C 2.0312014,3.1179696 1.7682813,3.7813403 1.7682813,4.0840098 l 0,0.1909815 0.2490573,0 0.2490572,0 0.021291,0.2229106 c 0.03032,0.3175502 0.010292,0.3430853 -0.2691111,0.3430853 l -0.2502873,0 0.00205,0.1839485 c 0.00228,0.2103028 0.3059738,0.9584057 0.4896644,1.2061987 l 0.1233078,0.166341 0.1631371,-0.15565 C 2.745456,6.0519507 2.8354176,6.0481215 3.0008937,6.2224744 3.1862045,6.4177323 3.164802,6.4805545 2.7910336,6.8384885 2.4179063,7.1958109 2.4125026,7.1981111 2.2361302,7.0747258 Z M 0.45477126,1.8908061 C 0.42226935,1.8711584 0.48696053,1.7833047 0.60064303,1.6927079 0.86820925,1.479478 0.8696697,1.4844805 0.40246197,1.0147051 L 1.849581e-7,0.61003279 0.31868907,0.29173001 C 0.71616707,-0.10526262 0.72031338,-0.1050189 1.1628258,0.34132445 1.5830321,0.76516816 1.5807615,0.7644587 1.7966232,0.53942267 2.0835952,0.24025364 2.1082996,0.28705884 2.1082996,1.1299037 l 0,0.7602796 -0.1155035,0.036615 C 1.852652,1.9712236 0.53686692,1.9404329 0.45477126,1.8908061 Z"
     style="fill:#ffffff;stroke-width:0.24818198" />
</svg>
