<?xml version="1.0" encoding="UTF-8" standalone="no"?>
<svg
   xmlns:dc="http://purl.org/dc/elements/1.1/"
   xmlns:cc="http://creativecommons.org/ns#"
   xmlns:rdf="http://www.w3.org/1999/02/22-rdf-syntax-ns#"
   xmlns:svg="http://www.w3.org/2000/svg"
   xmlns="http://www.w3.org/2000/svg"
   xmlns:sodipodi="http://sodipodi.sourceforge.net/DTD/sodipodi-0.dtd"
   xmlns:inkscape="http://www.inkscape.org/namespaces/inkscape"
   width="11.557467mm"
   height="6.3658381mm"
   viewBox="0 0 11.557467 6.365838"
   version="1.1"
   id="svg8"
   sodipodi:docname="CruizePilot_constForageStab.svg"
   inkscape:version="0.92.2 (unknown)">
  <sodipodi:namedview
     pagecolor="#ffffff"
     bordercolor="#666666"
     borderopacity="1"
     objecttolerance="10"
     gridtolerance="10"
     guidetolerance="10"
     inkscape:pageopacity="0"
     inkscape:pageshadow="2"
     inkscape:window-width="1853"
     inkscape:window-height="1056"
     id="namedview23"
     showgrid="false"
     inkscape:zoom="5.6591124"
     inkscape:cx="6.7148331"
     inkscape:cy="15.037411"
     inkscape:window-x="67"
     inkscape:window-y="24"
     inkscape:window-maximized="1"
     inkscape:current-layer="svg8" />
  <defs
     id="defs2">
    <pattern
       y="0"
       x="0"
       height="6"
       width="6"
       patternUnits="userSpaceOnUse"
       id="EMFhbasepattern" />
    <pattern
       y="0"
       x="0"
       height="6"
       width="6"
       patternUnits="userSpaceOnUse"
       id="EMFhbasepattern-4" />
    <pattern
       y="0"
       x="0"
       height="6"
       width="6"
       patternUnits="userSpaceOnUse"
       id="EMFhbasepattern-2" />
    <pattern
       y="0"
       x="0"
       height="6"
       width="6"
       patternUnits="userSpaceOnUse"
       id="EMFhbasepattern-5" />
    <pattern
       y="0"
       x="0"
       height="6"
       width="6"
       patternUnits="userSpaceOnUse"
       id="EMFhbasepattern-55" />
    <pattern
       y="0"
       x="0"
       height="6"
       width="6"
       patternUnits="userSpaceOnUse"
       id="EMFhbasepattern-23" />
  </defs>
  <metadata
     id="metadata5">
    <rdf:RDF>
      <cc:Work
         rdf:about="">
        <dc:format>image/svg+xml</dc:format>
        <dc:type
           rdf:resource="http://purl.org/dc/dcmitype/StillImage" />
        <dc:title />
      </cc:Work>
    </rdf:RDF>
  </metadata>
  <g
     id="g892"
     transform="scale(0.8)">
    <g
       transform="matrix(0.2535507,0,0,0.2535507,45.27075,-10.307143)"
       id="layer1">
      <path
         id="path876"
         d="m -168.74823,71.654136 c -2.51487,-1.75934 -4.82057,-7.02074 -4.82728,-11.01546 -0.005,-2.95988 0.54105,-5.11288 2.00791,-7.917193 0.46021,-0.879827 3.70153,-4.497768 4.02955,-4.497768 0.10543,0 0.67223,-0.319816 1.25956,-0.710703 13.10506,-8.72188 30.13318,6.873938 22.24953,20.378054 -0.38179,0.65398 -0.69417,1.24933 -0.69417,1.323 0,0.23571 -2.5585,2.8206 -2.79179,2.8206 -0.37101,0 -3.64413,-2.87896 -3.41654,-3.13165 0.59059,-0.65575 1.03405,-1.037 1.54275,-1.38831 0.28482,-0.19671 0.91838,0.45559 0.91838,0.45559 0.20702,0.17411 0.41836,0.32564 0.62075,0.28216 1.17326,-0.25201 2.13507,-1.97014 3.01508,-5.69043 l 0.15791,-0.66754 -1.20285,-0.0765 -1.20286,-0.0765 v -1.11613 -1.11614 l 1.1175,-0.12402 c 1.24661,-0.13834 1.22169,-0.0721 0.77655,-2.0646 -0.3368,-1.50756 -1.19427,-3.342046 -2.0381,-4.360326 l -0.49406,-0.596305 -0.68786,0.658213 c -0.87914,0.841242 -1.13257,0.827502 -2.05127,-0.111162 l -0.75301,-0.769374 0.79788,-0.711475 0.79788,-0.711476 -0.32712,-0.393676 c -0.7858,-0.945669 -3.48402,-2.115556 -5.62949,-2.440817 l -1.04111,-0.157836 -0.0764,1.054776 -0.0764,1.054776 h -1.24166 -1.24167 l 0.0231,-1.004859 c 0.0348,-0.450622 0.11102,-1.003577 -0.21127,-1.147579 -0.27157,-0.121343 -1.29618,0.170284 -1.77864,0.255627 -1.10982,0.196316 -2.41883,0.831633 -4.30362,2.033534 -0.82871,0.528454 -0.88306,0.459104 4.2497,5.396459 l 1.62662,1.56469 0.49114,-0.26253 c 1.31392,-0.702341 3.13771,-0.01855 4.27811,1.374732 0.36427,0.445036 0.65881,0.962459 0.84474,1.530218 0,0 0.19846,0.68385 0.17978,1.103706 -0.0182,0.410294 -0.27332,1.226724 -0.27332,1.226724 -0.24266,0.565422 -0.56271,1.027746 -0.93475,1.394468 -2.58107,2.54417 -7.66431,0.487005 -6.76784,-3.667978 l 0.1873,-0.86811 -1.28887,-1.33346 c -1.63926,-1.69598 -2.54865,-2.60502 -4.00075,-3.999196 l -1.16251,-1.116138 -0.48223,0.620077 c -1.07204,1.378491 -2.22421,4.285517 -2.22421,5.611877 v 0.83692 h 1.09142 1.09142 l 0.0933,0.97684 c 0.13287,1.39157 0.0451,1.50347 -1.1793,1.50347 h -1.09681 l 0.009,0.8061 c 0.01,0.92159 1.34084,4.19993 2.14581,5.28581 l 0.54036,0.72894 0.7149,-0.68209 c 0.87208,-0.83207 1.26631,-0.84885 1.99146,-0.0848 0.81207,0.85566 0.71828,1.13096 -0.91965,2.6995 -1.63512,1.56586 -1.6588,1.57594 -2.4317,1.03524 z m -7.806,-22.717028 c -0.14243,-0.0861 0.14106,-0.471093 0.63924,-0.868107 1.17253,-0.934417 1.17893,-0.912495 -0.86847,-2.971147 l -1.76367,-1.773357 1.39656,-1.394868 c 1.74183,-1.739703 1.76,-1.738635 3.69918,0.217333 1.84143,1.85737 1.83148,1.854261 2.77743,0.868107 1.25757,-1.31102 1.36583,-1.10591 1.36583,2.587609 v 3.331701 l -0.50616,0.160454 c -0.61414,0.194681 -6.38018,0.05975 -6.73994,-0.157725 z"
         style="fill:#000000;stroke-width:0.24818198"
         inkscape:connector-curvature="0" />
    </g>
    <g
       transform="matrix(2.6458334e-4,0,0,2.6458334e-4,6.4487431,0.50177421)"
       style="clip-rule:evenodd;fill-rule:evenodd;image-rendering:optimizeQuality;shape-rendering:geometricPrecision;text-rendering:geometricPrecision"
       id="Слой_x0020_1">
      <metadata
         id="CorelCorpID_0Corel-Layer" />
      <g
         id="_313336512">
        <polygon
           class="fil0 str0"
           points="17081,15679 16960,15679 16839,15679 16718,15679 16597,15679 16476,15679 16354,15679 16233,15679 16112,15679 15992,15679 15870,15679 15749,15679 15628,15679 15507,15679 15386,15679 15265,15679 15144,15679 15023,15679 14902,15679 14781,15679 14660,15679 14539,15679 14418,15679 14296,15679 14175,15679 14054,15679 13933,15679 13812,15679 13691,15679 13570,15679 13449,15679 13327,15679 13206,15679 13085,15679 12964,15679 12843,15679 12722,15679 12601,15679 12479,15679 12358,15679 12237,15679 12116,15679 12116,14932 18528,14932 18528,15679 18412,15679 18291,15679 18170,15679 18049,15679 17928,15679 17807,15679 17686,15679 17565,15679 17444,15679 17323,15679 17202,15679 "
           id="polygon7" />
        <polygon
           class="fil0 str0"
           points="17081,12868 16960,12868 16839,12868 16718,12868 16597,12868 16476,12868 16354,12868 16233,12868 16112,12868 15992,12868 15870,12868 15749,12868 15628,12868 15507,12868 15386,12868 15265,12868 15144,12868 15023,12868 14902,12868 14781,12868 14660,12868 14539,12868 14418,12868 14296,12868 14175,12868 14054,12868 13933,12868 13812,12868 13691,12868 13570,12868 13449,12868 13327,12868 13206,12868 13085,12868 12964,12868 12843,12868 12722,12868 12601,12868 12479,12868 12358,12868 12237,12868 12116,12868 12116,12122 18528,12122 18528,12868 18412,12868 18291,12868 18170,12868 18049,12868 17928,12868 17807,12868 17686,12868 17565,12868 17444,12868 17323,12868 17202,12868 "
           id="polygon9" />
        <polygon
           class="fil0 str0"
           points="13622,11729 12085,9353 12565,9041 13503,10486 13874,11059 14374,10290 15184,9042 15412,9190 15664,9353 14126,11729 13874,12118 "
           id="polygon11" />
        <polygon
           class="fil0 str0"
           points="13622,16086 12085,18461 12565,18774 13503,17329 13874,16756 14374,17525 15184,18773 15412,18625 15664,18461 14126,16086 13874,15696 "
           id="polygon13" />
        <path
           class="fil1 str0"
           d="m 20643,9930 c -1803,-1799 -1802,-4722 0,-6524 1801,-1801 4737,-1799 6536,4 1800,1803 1765,4749 -13,6520 -1778,1771 -4720,1799 -6524,0 z m -442,1952 -1510,-1510 1285,-1285 c 390,636 922,1156 1511,1511 l -1286,1285 z m 8949,-1524 -1510,1510 -1291,-1291 c 618,-386 1120,-881 1508,-1512 z M 18711,2944 20221,1434 21511,2724 c -638,391 -1141,895 -1520,1500 L 18710,2943 Z m 8909,-1493 1510,1510 -1290,1288 C 27451,3639 26962,3105 26329,2742 Z M 22834,351 h 2136 l 3,1830 c -742,-173 -1429,-181 -2129,-3 l -10,-1828 z m 2138,12637 h -2136 v -1829 c 733,159 1442,128 2136,-2 z m 5256,-7384 v 2136 l -1839,-3 c 147,-690 187,-1407 5,-2133 h 1835 z M 17588,7731 V 5596 h 1828 c -163,735 -194,1447 0,2136 h -1828 z m 4010,1245 c -1255,-1273 -1345,-3343 0,-4617 1345,-1274 3390,-1260 4617,0 1227,1260 1363,3349 0,4618 -1363,1268 -3363,1273 -4618,0 z"
           id="path15"
           inkscape:connector-curvature="0" />
        <path
           class="fil1 str0"
           d="m 20643,24592 c -1803,-1799 -1802,-4722 0,-6524 1801,-1801 4737,-1799 6536,4 1800,1803 1765,4749 -13,6520 -1778,1771 -4720,1799 -6524,0 z m -442,1952 -1510,-1510 1285,-1285 c 390,636 922,1156 1511,1511 l -1286,1285 z m 8949,-1524 -1510,1510 -1291,-1291 c 618,-386 1120,-881 1508,-1512 z m -10439,-7414 1510,-1510 1290,1290 c -638,391 -1141,895 -1520,1500 l -1281,-1280 z m 8909,-1493 1510,1510 -1290,1288 c -389,-609 -878,-1143 -1511,-1507 z m -4786,-1100 h 2136 l 3,1831 c -742,-173 -1429,-181 -2129,-3 z m 2138,12637 h -2136 v -1829 c 733,159 1442,128 2136,-2 z m 5256,-7384 v 2136 l -1839,-4 c 147,-690 187,-1406 5,-2132 h 1835 z m -12640,2127 v -2136 h 1828 c -163,735 -194,1448 0,2136 z m 4010,1245 c -1255,-1273 -1345,-3343 0,-4617 1345,-1274 3390,-1260 4617,0 1227,1260 1363,3349 0,4618 -1363,1268 -3363,1272 -4618,0 z"
           id="path17"
           inkscape:connector-curvature="0" />
      </g>
    </g>
  </g>
</svg>
