<?xml version="1.0" encoding="UTF-8" standalone="no"?>
<!-- Created with Inkscape (http://www.inkscape.org/) -->

<svg
   width="7.6729169mm"
   height="7.2682381mm"
   viewBox="0 0 7.6729177 7.2682383"
   version="1.1"
   id="svg8"
   inkscape:version="1.1.2 (b8e25be833, 2022-02-05)"
   sodipodi:docname="CruizePilot_rollersDistanceMaxFactor-1.svg"
   xmlns:inkscape="http://www.inkscape.org/namespaces/inkscape"
   xmlns:sodipodi="http://sodipodi.sourceforge.net/DTD/sodipodi-0.dtd"
   xmlns="http://www.w3.org/2000/svg"
   xmlns:svg="http://www.w3.org/2000/svg"
   xmlns:rdf="http://www.w3.org/1999/02/22-rdf-syntax-ns#"
   xmlns:cc="http://creativecommons.org/ns#"
   xmlns:dc="http://purl.org/dc/elements/1.1/">
  <defs
     id="defs2">
    <style
       type="text/css"
       id="style4338"><![CDATA[
    .fil0 {fill:none}
    .fil1 {fill:#2B2A29;fill-rule:nonzero}
   ]]></style>
    <style
       type="text/css"
       id="style4417"><![CDATA[
    .str0 {stroke:black;stroke-width:266.7}
    .fil1 {fill:black}
    .fil0 {fill:black;fill-rule:nonzero}
   ]]></style>
  </defs>
  <sodipodi:namedview
     id="base"
     pagecolor="#ffffff"
     bordercolor="#666666"
     borderopacity="1.0"
     inkscape:pageopacity="0"
     inkscape:pageshadow="2"
     inkscape:zoom="7.919596"
     inkscape:cx="11.174812"
     inkscape:cy="30.430845"
     inkscape:document-units="mm"
     inkscape:current-layer="g913"
     showgrid="false"
     inkscape:window-width="1327"
     inkscape:window-height="971"
     inkscape:window-x="158"
     inkscape:window-y="25"
     inkscape:window-maximized="0"
     inkscape:pagecheckerboard="false"
     inkscape:showpageshadow="false"
     showborder="true" />
  <metadata
     id="metadata5">
    <rdf:RDF>
      <cc:Work
         rdf:about="">
        <dc:format>image/svg+xml</dc:format>
        <dc:type
           rdf:resource="http://purl.org/dc/dcmitype/StillImage" />
      </cc:Work>
    </rdf:RDF>
  </metadata>
  <g
     inkscape:label="Layer 1"
     inkscape:groupmode="layer"
     id="layer1"
     transform="translate(-27.99134,-193.14684)">
    <text
       id="text906"
       y="202.64769"
       x="23.14469"
       style="font-style:normal;font-variant:normal;font-weight:bold;font-stretch:normal;font-size:1.41111112px;line-height:1.25;font-family:Arial;-inkscape-font-specification:'Arial Bold';letter-spacing:0px;word-spacing:0px;fill:#ffffff;fill-opacity:1;stroke:#000000;stroke-width:0.26458332;stroke-opacity:1"
       xml:space="preserve"><tspan
         style="font-style:normal;font-variant:normal;font-weight:bold;font-stretch:normal;font-size:1.41111112px;font-family:Arial;-inkscape-font-specification:'Arial Bold';fill:#ffffff;fill-opacity:1;stroke:#000000;stroke-width:0.26458332;stroke-opacity:1"
         y="203.91875"
         x="23.14469"
         id="tspan904" /></text>
    <g
       id="g913"
       style="stroke:none;stroke-opacity:1;fill:#000000"
       transform="matrix(0.99352611,0,0,1.1544177,0.19896285,-30.949152)">
      <g
         id="g167"
         style="fill:#ffffff">
        <path
           inkscape:connector-curvature="0"
           style="fill:#ffffff;fill-opacity:1;stroke:none;stroke-width:0.162815;stroke-opacity:1"
           d="m 29.107369,194.41342 c -0.05775,-0.003 -0.112296,0.0479 -0.220532,0.1504 l -0.173753,0.16448 0.219419,0.20922 c 0.25445,0.24272 0.253389,0.23993 0.107667,0.35009 -0.06191,0.0469 -0.09715,0.0924 -0.07945,0.1025 0.04471,0.0256 0.761623,0.0416 0.837948,0.0187 l 0.06275,-0.019 v -0.39272 c 0,-0.43547 -0.01337,-0.45994 -0.169669,-0.30537 -0.117563,0.11627 -0.116426,0.11685 -0.345277,-0.10214 -0.120501,-0.11531 -0.181347,-0.17289 -0.239096,-0.1761 z m 2.074637,0.51212 c -0.316039,0.0118 -0.63875,0.10375 -0.94413,0.29657 -0.07299,0.0461 -0.143203,0.0838 -0.156303,0.0838 -0.04077,0 -0.443642,0.42669 -0.500839,0.53043 -0.182303,0.33063 -0.250089,0.58439 -0.24949,0.93336 8.08e-4,0.47098 0.287047,1.09118 0.599595,1.29861 0.09605,0.0638 0.099,0.0627 0.302211,-0.12187 0.20356,-0.18493 0.215273,-0.21752 0.11435,-0.3184 -0.09013,-0.09 -0.138879,-0.0882 -0.247263,0.01 l -0.0891,0.0807 -0.0672,-0.0859 c -0.100042,-0.12802 -0.26529,-0.51475 -0.26657,-0.62341 l -0.0012,-0.0947 h 0.136256 c 0.152153,0 0.163166,-0.0134 0.146649,-0.17752 l -0.01151,-0.11517 H 29.811934 29.67605 v -0.0986 c 0,-0.15639 0.143362,-0.49893 0.276593,-0.66147 l 0.05978,-0.0733 0.144423,0.13174 c 0.180467,0.16436 0.293749,0.2713 0.497497,0.47125 l 0.160014,0.15744 -0.02339,0.10214 c -0.111412,0.48988 0.520517,0.73248 0.841291,0.43252 0.04624,-0.0433 0.08605,-0.0978 0.116206,-0.16449 0,0 0.03149,-0.096 0.03378,-0.1444 0.0023,-0.0496 -0.02228,-0.13033 -0.02228,-0.13033 -0.02311,-0.0669 -0.0598,-0.12786 -0.105069,-0.18033 -0.141728,-0.16427 -0.36836,-0.24482 -0.531653,-0.16201 l -0.06088,0.031 -0.20234,-0.18457 c -0.637898,-0.58212 -0.630932,-0.57414 -0.527941,-0.63644 0.234241,-0.1417 0.396696,-0.21636 0.534623,-0.23951 0.05996,-0.0101 0.187524,-0.0446 0.221275,-0.0303 0.04006,0.017 0.03068,0.0821 0.02636,0.13525 l -0.0029,0.11869 h 0.154076 0.154447 l 0.0097,-0.12433 0.0093,-0.12433 0.129573,0.0184 c 0.266639,0.0383 0.601808,0.17626 0.699467,0.28776 l 0.04084,0.0465 -0.09913,0.0838 -0.0995,0.0842 0.09356,0.0905 c 0.114177,0.11067 0.145801,0.11221 0.255062,0.0131 l 0.08539,-0.0775 0.06163,0.0705 c 0.08439,0.0966 0.16818,0.25473 0.220161,0.40574 h 0.340823 c -0.262588,-0.77796 -1.097731,-1.37771 -1.984791,-1.34475 z"
           id="path876" />
        <polygon
           style="clip-rule:evenodd;fill:#ffffff;fill-opacity:1;fill-rule:nonzero;stroke:none;stroke-width:266.7;stroke-opacity:1;image-rendering:optimizeQuality;shape-rendering:geometricPrecision;text-rendering:geometricPrecision"
           class="fil0 str0"
           points="18528,15679 18412,15679 18291,15679 18170,15679 18049,15679 17928,15679 17807,15679 17686,15679 17565,15679 17444,15679 17323,15679 17202,15679 17081,15679 16960,15679 16839,15679 16718,15679 16597,15679 16476,15679 16354,15679 16233,15679 16112,15679 15992,15679 15870,15679 15749,15679 15628,15679 15507,15679 15386,15679 15265,15679 15144,15679 15023,15679 14902,15679 14781,15679 14660,15679 14539,15679 14418,15679 14296,15679 14175,15679 14054,15679 13933,15679 13812,15679 13691,15679 13570,15679 13449,15679 13327,15679 13206,15679 13085,15679 12964,15679 12843,15679 12722,15679 12601,15679 12479,15679 12358,15679 12237,15679 12116,15679 12116,14932 18528,14932 "
           id="polygon4422"
           transform="matrix(1.7902007e-4,0,0,1.6042678e-4,29.809192,196.31813)" />
        <polygon
           style="clip-rule:evenodd;fill:#ffffff;fill-opacity:1;fill-rule:nonzero;stroke:none;stroke-width:266.7;stroke-opacity:1;image-rendering:optimizeQuality;shape-rendering:geometricPrecision;text-rendering:geometricPrecision"
           class="fil0 str0"
           points="18528,12868 18412,12868 18291,12868 18170,12868 18049,12868 17928,12868 17807,12868 17686,12868 17565,12868 17444,12868 17323,12868 17202,12868 17081,12868 16960,12868 16839,12868 16718,12868 16597,12868 16476,12868 16354,12868 16233,12868 16112,12868 15992,12868 15870,12868 15749,12868 15628,12868 15507,12868 15386,12868 15265,12868 15144,12868 15023,12868 14902,12868 14781,12868 14660,12868 14539,12868 14418,12868 14296,12868 14175,12868 14054,12868 13933,12868 13812,12868 13691,12868 13570,12868 13449,12868 13327,12868 13206,12868 13085,12868 12964,12868 12843,12868 12722,12868 12601,12868 12479,12868 12358,12868 12237,12868 12116,12868 12116,12122 18528,12122 "
           id="polygon4424"
           transform="matrix(1.7902007e-4,0,0,1.6042678e-4,29.809192,196.31813)" />
        <polygon
           style="clip-rule:evenodd;fill:#ffffff;fill-opacity:1;fill-rule:nonzero;stroke:none;stroke-width:266.7;stroke-opacity:1;image-rendering:optimizeQuality;shape-rendering:geometricPrecision;text-rendering:geometricPrecision"
           class="fil0 str0"
           points="12085,9353 12565,9041 13503,10486 13874,11059 14374,10290 15184,9042 15412,9190 15664,9353 14126,11729 13874,12118 13622,11729 "
           id="polygon4426"
           transform="matrix(2.9921165e-4,0,0,1.5835225e-4,28.4067,196.34698)" />
        <polygon
           style="clip-rule:evenodd;fill:#ffffff;fill-opacity:1;fill-rule:nonzero;stroke:none;stroke-width:266.7;stroke-opacity:1;image-rendering:optimizeQuality;shape-rendering:geometricPrecision;text-rendering:geometricPrecision"
           class="fil0 str0"
           points="13874,15696 13622,16086 12085,18461 12565,18774 13503,17329 13874,16756 14374,17525 15184,18773 15412,18625 15664,18461 14126,16086 "
           id="polygon4428"
           transform="matrix(2.9921165e-4,0,0,1.5835225e-4,28.4067,196.34698)" />
        <path
           inkscape:connector-curvature="0"
           style="clip-rule:evenodd;fill:#ffffff;fill-opacity:1;fill-rule:evenodd;stroke:none;stroke-width:0.031524;stroke-opacity:1;image-rendering:optimizeQuality;shape-rendering:geometricPrecision;text-rendering:geometricPrecision"
           class="fil1 str0"
           d="m 34.691775,197.99858 c 0.229697,-0.19729 0.22957,-0.51785 0,-0.71546 -0.229441,-0.19752 -0.603478,-0.19729 -0.832668,4.4e-4 -0.229313,0.19773 -0.224854,0.5208 0.0017,0.71502 0.226512,0.19422 0.601314,0.19729 0.831139,0 z m 0.0563,0.21408 0.192371,-0.16559 -0.163705,-0.14094 c -0.04968,0.07 -0.117465,0.12678 -0.192497,0.16571 l 0.163831,0.14093 z m -1.140075,-0.16713 0.19237,0.1656 0.16447,-0.1416 c -0.07874,-0.0424 -0.142685,-0.0967 -0.192116,-0.16581 z m 1.329898,-0.81308 -0.192368,-0.1656 -0.164344,0.14148 c 0.08128,0.043 0.145359,0.0983 0.193645,0.1645 l 0.163189,-0.14049 z m -1.134981,-0.16372 -0.19237,0.16558 0.164344,0.14126 c 0.04955,-0.0668 0.111852,-0.12547 0.192496,-0.16527 z m 0.609723,-0.1205 h -0.272118 l -3.82e-4,0.20069 c 0.09453,-0.019 0.182051,-0.0199 0.271229,-3.2e-4 l 0.0012,-0.20048 z m -0.272374,1.38587 h 0.272119 v -0.20058 c -0.09339,0.0174 -0.183706,0.0142 -0.272119,-2.2e-4 z m -0.6696,-0.80977 v 0.23424 l 0.234283,-3.4e-4 c -0.01872,-0.0756 -0.02383,-0.1543 -6.37e-4,-0.2339 h -0.233773 z m 1.610299,0.23325 v -0.23414 h -0.232881 c 0.02076,0.0806 0.02472,0.15869 0,0.23425 h 0.232885 z m -0.51086,0.13653 c 0.159882,-0.1396 0.171347,-0.36662 0,-0.50633 -0.171351,-0.13973 -0.43188,-0.13818 -0.588195,0 -0.156315,0.13818 -0.173642,0.36728 0,0.50644 0.173642,0.13907 0.428437,0.1396 0.588322,0 z"
           id="path4430" />
        <path
           inkscape:connector-curvature="0"
           style="clip-rule:evenodd;fill:#ffffff;fill-opacity:1;fill-rule:evenodd;stroke:none;stroke-width:0.0315242;stroke-opacity:1;image-rendering:optimizeQuality;shape-rendering:geometricPrecision;text-rendering:geometricPrecision"
           class="fil1 str0"
           d="m 34.702352,199.68755 c 0.229698,-0.1973 0.229571,-0.51785 0,-0.71547 -0.229442,-0.19751 -0.60348,-0.19729 -0.832669,4.6e-4 -0.229314,0.19772 -0.224854,0.52079 0.0017,0.71501 0.226513,0.19423 0.601315,0.19729 0.831141,0 z m 0.0563,0.21408 0.192372,-0.16559 -0.163705,-0.14093 c -0.04968,0.0699 -0.117466,0.12678 -0.192498,0.16571 l 0.163831,0.14092 z m -1.140077,-0.16712 0.192371,0.16559 0.16447,-0.14159 c -0.07874,-0.0424 -0.142686,-0.0967 -0.192117,-0.16581 z m 1.329901,-0.81309 -0.192369,-0.16561 -0.164344,0.14149 c 0.08128,0.043 0.145359,0.0982 0.193645,0.16449 l 0.163189,-0.14048 z m -1.134984,-0.16373 -0.19237,0.16558 0.164345,0.14126 c 0.04955,-0.0668 0.111852,-0.12546 0.192496,-0.16527 z m 0.609724,-0.1205 h -0.272118 l -3.82e-4,0.2007 c 0.09453,-0.019 0.182051,-0.0199 0.27123,-3.3e-4 l 0.0012,-0.20047 z m -0.272374,1.38588 h 0.27212 v -0.20057 c -0.09339,0.0174 -0.183706,0.0141 -0.27212,-2.3e-4 z m -0.669601,-0.80978 v 0.23425 l 0.234284,-3.3e-4 c -0.01872,-0.0756 -0.02383,-0.1543 -6.37e-4,-0.23392 h -0.233767 z m 1.610302,0.23326 v -0.23414 h -0.232882 c 0.02076,0.0806 0.02472,0.15868 0,0.23426 h 0.232882 z m -0.510861,0.13653 c 0.159882,-0.13961 0.171346,-0.36662 0,-0.50634 -0.171351,-0.13971 -0.431881,-0.13818 -0.588196,0 -0.156316,0.1382 -0.173642,0.36729 0,0.50646 0.173642,0.13905 0.428437,0.13958 0.588323,0 z"
           id="path4430-0" />
        <text
           xml:space="preserve"
           style="font-style:normal;font-variant:normal;font-weight:normal;font-stretch:normal;font-size:2.09511px;line-height:1.25;font-family:Arial;-inkscape-font-specification:Arial;letter-spacing:0px;word-spacing:0px;fill:#ffffff;fill-opacity:1;stroke:none;stroke-width:0.108162;stroke-miterlimit:4;stroke-dasharray:none;stroke-opacity:1"
           x="26.630291"
           y="208.73663"
           id="text910"
           transform="scale(1.0605468,0.94290982)"><tspan
             id="tspan908"
             x="26.630291"
             y="208.73663"
             style="font-style:normal;font-variant:normal;font-weight:bold;font-stretch:normal;font-size:1.25706px;font-family:Arial;-inkscape-font-specification:'Arial Bold';fill:#ffffff;fill-opacity:1;stroke:none;stroke-width:0.108162;stroke-miterlimit:4;stroke-dasharray:none;stroke-opacity:1">V</tspan></text>
        <path
           inkscape:connector-curvature="0"
           style="fill:#ffffff;fill-opacity:1;stroke:none;stroke-width:0.0891644;stroke-linecap:butt;stroke-linejoin:miter;stroke-miterlimit:4;stroke-dasharray:none;stroke-opacity:1"
           d="m 28.690674,196.99935 -0.575731,0.48949 h 0.359058 v 0.54183 h 0.414774 v -0.54183 h 0.380724 z"
           id="path978" />
      </g>
    </g>
  </g>
</svg>
