<svg width="62" height="56" viewBox="0 0 62 56" fill="none" xmlns="http://www.w3.org/2000/svg">
<path d="M0.614258 5.42774L7.08322 11.8726L3.75564 15.1898L15.3418 15.214L15.3143 3.67257L11.9625 7.0105L5.49357 0.565674L0.614258 5.42774ZM20.5522 17.8726L32.0591 29.3312C33.3239 28.6355 34.7823 28.3749 36.2098 28.5894C37.6372 28.8039 38.9546 29.4817 39.9591 30.5184C40.9635 31.5551 41.5994 32.8932 41.7688 34.3267C41.9382 35.7602 41.6316 37.2097 40.8964 38.4519C40.1612 39.6942 39.038 40.6603 37.6998 41.2015C36.3617 41.7428 34.8827 41.8292 33.4906 41.4475C32.0985 41.0657 30.8705 40.237 29.9956 39.0888C29.1207 37.9407 28.6475 36.5368 28.6487 35.0933C28.6479 33.9784 28.9315 32.8817 29.4729 31.9071L17.9694 20.445C14.8747 24.0797 13.0034 28.5969 12.6212 33.3553H16.8487V36.9967H12.6212C13.008 41.7544 14.8883 46.2681 17.9936 49.8933L20.9832 46.914L23.5694 49.4898L17.9315 55.0967C13.8565 51.5499 10.9616 46.8433 9.63425 41.6065C8.30687 36.3698 8.61022 30.8525 10.5037 25.7928C12.3973 20.7332 15.7907 16.3723 20.23 13.2937C24.6693 10.215 29.9429 8.56533 35.3453 8.56533C40.7477 8.56533 46.0213 10.215 50.4606 13.2937C54.8999 16.3723 58.2933 20.7332 60.1868 25.7928C62.0804 30.8525 62.3837 36.3698 61.0563 41.6065C59.7289 46.8433 56.8341 51.5499 52.7591 55.0967L47.1281 49.4864L49.7108 46.914L52.7005 49.8898C55.8033 46.2625 57.6811 41.7477 58.066 36.9898H53.8384V33.3415H58.0729C57.689 28.5824 55.8111 24.0663 52.7074 20.4381L49.7108 23.414L47.1246 20.8415L50.1246 17.8519C46.4713 14.7573 41.9386 12.8878 37.166 12.5071V16.7484H33.5108V12.5174C28.7369 12.9006 24.2039 14.7739 20.5522 17.8726Z" fill="white"/>
</svg>
