<?xml version="1.0" encoding="UTF-8" standalone="no"?>
<svg
   width="10.835241mm"
   height="6.3686724mm"
   viewBox="0 0 10.835241 6.3686724"
   version="1.1"
   id="svg8"
   sodipodi:docname="CruizePilot_speedStab.svg"
   inkscape:version="1.1.2 (b8e25be8, 2022-02-05)"
   xmlns:inkscape="http://www.inkscape.org/namespaces/inkscape"
   xmlns:sodipodi="http://sodipodi.sourceforge.net/DTD/sodipodi-0.dtd"
   xmlns="http://www.w3.org/2000/svg"
   xmlns:svg="http://www.w3.org/2000/svg"
   xmlns:rdf="http://www.w3.org/1999/02/22-rdf-syntax-ns#"
   xmlns:cc="http://creativecommons.org/ns#"
   xmlns:dc="http://purl.org/dc/elements/1.1/">
  <sodipodi:namedview
     pagecolor="#ffffff"
     bordercolor="#666666"
     borderopacity="1"
     objecttolerance="10"
     gridtolerance="10"
     guidetolerance="10"
     inkscape:pageopacity="0"
     inkscape:pageshadow="2"
     inkscape:window-width="1920"
     inkscape:window-height="971"
     id="namedview16"
     showgrid="false"
     inkscape:zoom="8.5366474"
     inkscape:cx="-29.871212"
     inkscape:cy="13.99847"
     inkscape:window-x="0"
     inkscape:window-y="25"
     inkscape:window-maximized="1"
     inkscape:current-layer="flowRoot831"
     inkscape:pagecheckerboard="0"
     inkscape:document-units="mm" />
  <defs
     id="defs2">
    <pattern
       y="0"
       x="0"
       height="6"
       width="6"
       patternUnits="userSpaceOnUse"
       id="EMFhbasepattern" />
    <pattern
       y="0"
       x="0"
       height="6"
       width="6"
       patternUnits="userSpaceOnUse"
       id="EMFhbasepattern-4" />
    <pattern
       y="0"
       x="0"
       height="6"
       width="6"
       patternUnits="userSpaceOnUse"
       id="EMFhbasepattern-2" />
    <pattern
       y="0"
       x="0"
       height="6"
       width="6"
       patternUnits="userSpaceOnUse"
       id="EMFhbasepattern-5" />
    <pattern
       y="0"
       x="0"
       height="6"
       width="6"
       patternUnits="userSpaceOnUse"
       id="EMFhbasepattern-55" />
    <pattern
       y="0"
       x="0"
       height="6"
       width="6"
       patternUnits="userSpaceOnUse"
       id="EMFhbasepattern-23" />
  </defs>
  <metadata
     id="metadata5">
    <rdf:RDF>
      <cc:Work
         rdf:about="">
        <dc:format>image/svg+xml</dc:format>
        <dc:type
           rdf:resource="http://purl.org/dc/dcmitype/StillImage" />
      </cc:Work>
    </rdf:RDF>
  </metadata>
  <g
     transform="matrix(0.8,0,0,0.8,4.3254526,-8.7261317)"
     id="g834">
    <g
       transform="matrix(0.1765456,0,0,0.1765456,26.782178,3.7308726)"
       id="layer1"
       style="fill:#ffffff">
      <g
         id="g133"
         transform="matrix(0.00149867,0,0,0.00149867,-96.151768,36.915123)"
         style="clip-rule:evenodd;fill-rule:evenodd;image-rendering:optimizeQuality;shape-rendering:geometricPrecision;text-rendering:geometricPrecision;fill:#ffffff">
        <path
           style="fill:#ffffff;stroke-width:844.365"
           d="m -41313.185,2566.8417 c -291.701,-17.1379 -567.227,254.7121 -1113.954,800.7718 l -877.661,875.7858 1108.328,1113.9541 c 1285.28,1292.3436 1279.919,1277.5001 543.85,1864.0919 -312.73,249.2315 -490.733,491.6749 -401.323,545.7253 225.841,136.5234 3847.117,221.609 4232.651,99.3918 l 316.932,-101.2698 V 5674.2842 c 0,-2318.6509 -67.578,-2448.9316 -857.032,-1625.9231 -593.832,619.0726 -588.09,622.1387 -1744.069,-543.8476 -608.672,-613.9407 -916.02,-920.5339 -1207.722,-937.6718 z m 10479.423,2726.7501 c -1596.378,62.5249 -3226.464,552.4276 -4769,1579.0397 -368.703,245.3819 -723.347,446.3317 -789.52,446.3317 -205.921,0 -2240.924,2271.9462 -2529.839,2824.2688 -920.853,1760.44 -1263.256,3111.561 -1260.231,4969.661 4.218,2507.733 1449.941,5809.946 3028.68,6914.393 485.198,339.431 500.063,334.12 1526.53,-648.869 1028.229,-984.67 1087.389,-1158.16 577.606,-1695.311 -455.224,-479.641 -701.51,-469.832 -1248.979,52.51 l -450.082,429.454 -339.438,-457.585 c -505.332,-681.674 -1340.032,-2740.819 -1346.496,-3319.358 l -5.614,-504.468 h 688.251 c 768.56,0 824.183,-71.599 740.761,-945.173 l -58.137,-613.237 h -684.5 -686.376 v -525.097 c 0,-832.638 724.149,-2656.532 1397.131,-3521.896 l 301.932,-390.0713 729.508,701.3783 c 911.575,875.211 1483.786,1444.54 2512.961,2509.211 l 808.261,838.279 -118.147,543.849 c -562.771,2608.339 2629.233,3900.056 4249.53,2302.922 233.551,-230.213 434.666,-520.835 586.983,-875.785 0,0 159.09,-511.325 170.654,-768.891 11.705,-263.57 -112.519,-693.877 -112.519,-693.877 -116.723,-356.418 -302.06,-680.798 -530.722,-960.176 -715.901,-874.64 -1860.663,-1303.562 -2685.493,-862.659 l -307.556,165.03 -1022.063,-982.679 c -3222.151,-3099.4856 -3186.973,-3057.0064 -2666.739,-3388.7473 1183.199,-754.5084 2003.793,-1151.9965 2700.495,-1275.2343 302.874,-53.5744 947.221,-237.4531 1117.705,-161.2778 202.295,90.3998 154.923,437.2492 133.149,720.1318 l -15.004,631.9911 h 778.268 780.143 l 48.76,-661.9964 46.882,-661.9965 654.496,97.5172 c 1346.847,204.1857 3039.855,938.5003 3533.15,1532.1547 l 206.287,247.5461 -500.716,446.3321 -502.593,448.2063 472.587,481.964 c 576.727,589.259 736.471,597.488 1288.361,69.388 l 431.33,-412.576 311.306,375.069 c 426.279,514.405 849.509,1356.341 1112.08,2160.397 h 1721.565 C -22134.555,8311.4139 -26353.037,5118.0965 -30833.762,5293.5918 Z"
           id="path876-6"
           inkscape:connector-curvature="0" />
        <rect
           style="fill:#ffffff;stroke-width:3402.2"
           id="rect3369"
           height="4627.2993"
           x="-43904.609"
           y="15887.581"
           width="2187.4016" />
        <path
           style="fill:#ffffff;fill-rule:evenodd;stroke:#ffffff;stroke-width:0;stroke-linecap:butt;stroke-linejoin:miter;stroke-miterlimit:4;stroke-dasharray:none;stroke-opacity:1"
           d="m -45726.378,19859.043 h 5866.101 l -2878.396,3060.576 z"
           id="path3371"
           inkscape:connector-curvature="0" />
      </g>
    </g>
    <g
       id="flowRoot831"
       style="font-style:normal;font-weight:normal;font-size:5.33333px;line-height:1.25;font-family:sans-serif;letter-spacing:0px;word-spacing:0px;clip-rule:evenodd;fill:#000000;fill-opacity:1;fill-rule:evenodd;stroke:none;image-rendering:optimizeQuality;shape-rendering:geometricPrecision;text-rendering:geometricPrecision"
       transform="matrix(0.7564475,0,0,1.1400149,-31.436995,13.656054)"
       aria-label="V">
      <path
         id="path886"
         d="M 47.072813,4.5722658 45.588438,0.68424482 h 1.423907 l 1.23177,3.27343758 1.234376,-3.27343758 h 1.421302 L 49.418022,4.5722658 Z"
         inkscape:connector-curvature="0"
         sodipodi:nodetypes="cccccccc"
         style="fill:#ffffff" />
    </g>
  </g>
</svg>
