<?xml version="1.0" encoding="UTF-8" standalone="no"?>
<svg
   xmlns:dc="http://purl.org/dc/elements/1.1/"
   xmlns:cc="http://creativecommons.org/ns#"
   xmlns:rdf="http://www.w3.org/1999/02/22-rdf-syntax-ns#"
   xmlns:svg="http://www.w3.org/2000/svg"
   xmlns="http://www.w3.org/2000/svg"
   xmlns:sodipodi="http://sodipodi.sourceforge.net/DTD/sodipodi-0.dtd"
   xmlns:inkscape="http://www.inkscape.org/namespaces/inkscape"
   width="10.334374mm"
   height="9.1615677mm"
   viewBox="0 0 10.334374 9.1615679"
   version="1.1"
   id="svg8"
   inkscape:version="0.91 r13725"
   sodipodi:docname="CruizePilotOn_activeOff.svg">
  <sodipodi:namedview
     pagecolor="#ffffff"
     bordercolor="#666666"
     borderopacity="1"
     objecttolerance="10"
     gridtolerance="10"
     guidetolerance="10"
     inkscape:pageopacity="0"
     inkscape:pageshadow="2"
     inkscape:window-width="1269"
     inkscape:window-height="811"
     id="namedview13"
     showgrid="false"
     fit-margin-top="1"
     fit-margin-bottom="1"
     fit-margin-right="1"
     fit-margin-left="1"
     inkscape:zoom="9.3002604"
     inkscape:cx="15.919909"
     inkscape:cy="16.231125"
     inkscape:window-x="67"
     inkscape:window-y="34"
     inkscape:window-maximized="0"
     inkscape:current-layer="svg8" />
  <defs
     id="defs2">
    <pattern
       y="0"
       x="0"
       height="6"
       width="6"
       patternUnits="userSpaceOnUse"
       id="EMFhbasepattern" />
    <pattern
       y="0"
       x="0"
       height="6"
       width="6"
       patternUnits="userSpaceOnUse"
       id="EMFhbasepattern-4" />
    <pattern
       y="0"
       x="0"
       height="6"
       width="6"
       patternUnits="userSpaceOnUse"
       id="EMFhbasepattern-2" />
    <pattern
       y="0"
       x="0"
       height="6"
       width="6"
       patternUnits="userSpaceOnUse"
       id="EMFhbasepattern-5" />
    <pattern
       y="0"
       x="0"
       height="6"
       width="6"
       patternUnits="userSpaceOnUse"
       id="EMFhbasepattern-55" />
    <pattern
       y="0"
       x="0"
       height="6"
       width="6"
       patternUnits="userSpaceOnUse"
       id="EMFhbasepattern-23" />
  </defs>
  <metadata
     id="metadata5">
    <rdf:RDF>
      <cc:Work
         rdf:about="">
        <dc:format>image/svg+xml</dc:format>
        <dc:type
           rdf:resource="http://purl.org/dc/dcmitype/StillImage" />
        <dc:title></dc:title>
      </cc:Work>
    </rdf:RDF>
  </metadata>
  <g
     id="layer1"
     transform="matrix(0.22819563,0,0,0.22819563,41.743674,-8.2764281)">
    <path
       style="fill:#000000;stroke-width:0.24818198"
       d="m -168.74823,71.654136 c -2.51487,-1.75934 -4.82057,-7.02074 -4.82728,-11.01546 -0.005,-2.95988 0.54105,-5.11288 2.00791,-7.917193 0.46021,-0.879827 3.70153,-4.497768 4.02955,-4.497768 0.10543,0 0.67223,-0.319816 1.25956,-0.710703 13.10506,-8.72188 30.13318,6.873938 22.24953,20.378054 -0.38179,0.65398 -0.69417,1.24933 -0.69417,1.323 0,0.23571 -2.5585,2.8206 -2.79179,2.8206 -0.37101,0 -3.64413,-2.87896 -3.41654,-3.13165 0.59059,-0.65575 1.03405,-1.037 1.54275,-1.38831 0.28482,-0.19671 0.91838,0.45559 0.91838,0.45559 0.20702,0.17411 0.41836,0.32564 0.62075,0.28216 1.17326,-0.25201 2.13507,-1.97014 3.01508,-5.69043 l 0.15791,-0.66754 -1.20285,-0.0765 -1.20286,-0.0765 0,-1.11613 0,-1.11614 1.1175,-0.12402 c 1.24661,-0.13834 1.22169,-0.0721 0.77655,-2.0646 -0.3368,-1.50756 -1.19427,-3.342046 -2.0381,-4.360326 l -0.49406,-0.596305 -0.68786,0.658213 c -0.87914,0.841242 -1.13257,0.827502 -2.05127,-0.111162 l -0.75301,-0.769374 0.79788,-0.711475 0.79788,-0.711476 -0.32712,-0.393676 c -0.7858,-0.945669 -3.48402,-2.115556 -5.62949,-2.440817 l -1.04111,-0.157836 -0.0764,1.054776 -0.0764,1.054776 -1.24166,0 -1.24167,0 0.0231,-1.004859 c 0.0348,-0.450622 0.11102,-1.003577 -0.21127,-1.147579 -0.27157,-0.121343 -1.29618,0.170284 -1.77864,0.255627 -1.10982,0.196316 -2.41883,0.831633 -4.30362,2.033534 -0.82871,0.528454 -0.88306,0.459104 4.2497,5.396459 l 1.62662,1.56469 0.49114,-0.26253 c 1.31392,-0.702341 3.13771,-0.01855 4.27811,1.374732 0.36427,0.445036 0.65881,0.962459 0.84474,1.530218 0,0 0.19846,0.68385 0.17978,1.103706 -0.0182,0.410294 -0.27332,1.226724 -0.27332,1.226724 -0.24266,0.565422 -0.56271,1.027746 -0.93475,1.394468 -2.58107,2.54417 -7.66431,0.487005 -6.76784,-3.667978 l 0.1873,-0.86811 -1.28887,-1.33346 c -1.63926,-1.69598 -2.54865,-2.60502 -4.00075,-3.999196 l -1.16251,-1.116138 -0.48223,0.620077 c -1.07204,1.378491 -2.22421,4.285517 -2.22421,5.611877 l 0,0.83692 1.09142,0 1.09142,0 0.0933,0.97684 c 0.13287,1.39157 0.0451,1.50347 -1.1793,1.50347 l -1.09681,0 0.009,0.8061 c 0.01,0.92159 1.34084,4.19993 2.14581,5.28581 l 0.54036,0.72894 0.7149,-0.68209 c 0.87208,-0.83207 1.26631,-0.84885 1.99146,-0.0848 0.81207,0.85566 0.71828,1.13096 -0.91965,2.6995 -1.63512,1.56586 -1.6588,1.57594 -2.4317,1.03524 z m -7.806,-22.717028 c -0.14243,-0.0861 0.14106,-0.471093 0.63924,-0.868107 1.17253,-0.934417 1.17893,-0.912495 -0.86847,-2.971147 l -1.76367,-1.773357 1.39656,-1.394868 c 1.74183,-1.739703 1.76,-1.738635 3.69918,0.217333 1.84143,1.85737 1.83148,1.854261 2.77743,0.868107 1.25757,-1.31102 1.36583,-1.10591 1.36583,2.587609 l 0,3.331701 -0.50616,0.160454 c -0.61414,0.194681 -6.38018,0.05975 -6.73994,-0.157725 z"
       id="path876"
       inkscape:connector-curvature="0" />
  </g>
</svg>
