<?xml version="1.0" encoding="UTF-8" standalone="no"?>
<svg
   xmlns:dc="http://purl.org/dc/elements/1.1/"
   xmlns:cc="http://creativecommons.org/ns#"
   xmlns:rdf="http://www.w3.org/1999/02/22-rdf-syntax-ns#"
   xmlns:svg="http://www.w3.org/2000/svg"
   xmlns="http://www.w3.org/2000/svg"
   xmlns:sodipodi="http://sodipodi.sourceforge.net/DTD/sodipodi-0.dtd"
   xmlns:inkscape="http://www.inkscape.org/namespaces/inkscape"
   version="1.1"
   id="svg5566"
   viewBox="0 0 27.568204 26.13672"
   height="7.3763633mm"
   width="7.7803597mm"
   inkscape:version="0.91 r13725"
   sodipodi:docname="CurrentPressureFeederHousingAuto.svg">
  <sodipodi:namedview
     pagecolor="#ffffff"
     bordercolor="#666666"
     borderopacity="1"
     objecttolerance="10"
     gridtolerance="10"
     guidetolerance="10"
     inkscape:pageopacity="0"
     inkscape:pageshadow="2"
     inkscape:window-width="1855"
     inkscape:window-height="1056"
     id="namedview20"
     showgrid="false"
     fit-margin-top="0"
     fit-margin-left="0"
     fit-margin-right="0"
     fit-margin-bottom="0"
     inkscape:zoom="9.029442"
     inkscape:cx="14.946963"
     inkscape:cy="13.06836"
     inkscape:window-x="65"
     inkscape:window-y="24"
     inkscape:window-maximized="1"
     inkscape:current-layer="svg5566" />
  <defs
     id="defs5568" />
  <metadata
     id="metadata5571">
    <rdf:RDF>
      <cc:Work
         rdf:about="">
        <dc:format>image/svg+xml</dc:format>
        <dc:type
           rdf:resource="http://purl.org/dc/dcmitype/StillImage" />
        <dc:title></dc:title>
      </cc:Work>
    </rdf:RDF>
  </metadata>
  <g
     id="g4175">
    <g
       transform="matrix(2.3090466e-4,0,0,3.5433067e-4,11.239036,-1.71249)"
       id="g4171"
       style="fill-rule:evenodd">
      <g
         id="Слой_x0020_1"
         transform="translate(-22577.778,-977.77733)">
        <metadata
           id="CorelCorpID_0Corel-Layer" />
        <g
           id="_323757952">
          <g
             id="g11">
            <g
               id="g13">
              <polygon
                 class="fil0"
                 points="53309,71735 51624,70656 41344,64075 39927,66234 46511,70449 26565,70449 26565,73021 46514,73021 39927,77242 40636,78321 41344,79400 51624,72814 "
                 id="polygon15"
                 style="fill:#000000;fill-rule:nonzero" />
              <ellipse
                 class="fil1"
                 cx="59860"
                 cy="71735"
                 rx="6151"
                 ry="6074"
                 id="ellipse17"
                 style="fill:#000000" />
              <polygon
                 class="fil0"
                 points="66551,71735 68236,72815 78515,79396 79932,77237 73348,73021 93295,73021 93295,70449 73345,70449 79933,66228 79224,65149 78515,64070 68235,70656 "
                 id="polygon19"
                 style="fill:#000000;fill-rule:nonzero" />
            </g>
            <path
               inkscape:connector-curvature="0"
               class="fil1"
               d="m 26548,60257 1,2661 50288,-21 c 9943,86 16551,-6649 16387,-16261 l 72,-27148 -66748,40769 z m 61064,-30523 -24,16759 c 1,7034 -4736,10960 -10966,10959 l -35087,62 46077,-27780 z"
               id="path21"
               style="fill:#000000" />
          </g>
        </g>
      </g>
      <g
         id="Направляющие-5"
         transform="translate(0,-977.77733)">
        <metadata
           id="CorelCorpID_1Corel-Layer-6" />
      </g>
    </g>
    <path
       inkscape:connector-curvature="0"
       id="rect4195-2"
       d="m 0,0 0,26.13672 11.2363,0 L 11.2363,0 0,0 Z m 5.0937,8.6875 1.4532,0 3.6093,9.4707 -1.332,0 -0.8633,-2.42969 -4.2695,0 -0.8613,2.42969 -1.3516,0 3.6152,-9.4707 z m 0.7227,1.26172 -1.7363,4.71289 3.4824,0 -1.7461,-4.71289 z"
       style="fill:#000000;fill-opacity:1;stroke:none;stroke-width:0.1;stroke-linecap:round;stroke-linejoin:bevel;stroke-miterlimit:4;stroke-dasharray:none;stroke-opacity:1" />
  </g>
</svg>
