<?xml version="1.0" encoding="UTF-8" standalone="no"?>
<!-- Creator: CorelDRAW X5 -->

<svg
   xmlns:dc="http://purl.org/dc/elements/1.1/"
   xmlns:cc="http://creativecommons.org/ns#"
   xmlns:rdf="http://www.w3.org/1999/02/22-rdf-syntax-ns#"
   xmlns:svg="http://www.w3.org/2000/svg"
   xmlns="http://www.w3.org/2000/svg"
   xmlns:sodipodi="http://sodipodi.sourceforge.net/DTD/sodipodi-0.dtd"
   xmlns:inkscape="http://www.inkscape.org/namespaces/inkscape"
   xml:space="preserve"
   width="27.96068"
   height="28.156786"
   style="fill-rule:evenodd"
   viewBox="0 0 78911.254 79464.707"
   id="svg2"
   version="1.1"
   inkscape:version="0.91 r13725"
   sodipodi:docname="CurrentHeightCut1.svg"><metadata
     id="metadata23"><rdf:RDF><cc:Work
         rdf:about=""><dc:format>image/svg+xml</dc:format><dc:type
           rdf:resource="http://purl.org/dc/dcmitype/StillImage" /><dc:title></dc:title></cc:Work></rdf:RDF></metadata><sodipodi:namedview
     pagecolor="#ffffff"
     bordercolor="#666666"
     borderopacity="1"
     objecttolerance="10"
     gridtolerance="10"
     guidetolerance="10"
     inkscape:pageopacity="0"
     inkscape:pageshadow="2"
     inkscape:window-width="1920"
     inkscape:window-height="1031"
     id="namedview21"
     showgrid="false"
     inkscape:zoom="12.867868"
     inkscape:cx="-2.720567"
     inkscape:cy="19.8047"
     inkscape:window-x="0"
     inkscape:window-y="25"
     inkscape:window-maximized="1"
     inkscape:current-layer="svg2"
     fit-margin-top="0"
     fit-margin-left="0"
     fit-margin-right="0"
     fit-margin-bottom="0" /><defs
     id="defs4"><style
       type="text/css"
       id="style6">
   
    .fil0 {fill:black}
    .fil1 {fill:black;fill-rule:nonzero}
   
  </style></defs><path
     class="fil0"
     d="m 12219.255,60022.524 1,2658 50245,-20 c 9936,85 16538,-6643 16374,-16248 l 72,-27125 -66692,40735 z m 61013,-30498 -24,16746 c 0,7027 -4732,10951 -10957,10949 l -35057,62 46038,-27757 z"
     id="path11"
     inkscape:connector-curvature="0"
     style="fill:#000000" /><g
     id="Направляющие"
     transform="translate(6619.2056,-135.11785)"><metadata
       id="CorelCorpID_1Corel-Layer" /></g><text
     xml:space="preserve"
     style="font-style:normal;font-weight:normal;font-size:99069.9375px;line-height:125%;font-family:sans-serif;letter-spacing:0px;word-spacing:0px;fill:#000000;fill-opacity:1;stroke:none;stroke-width:1px;stroke-linecap:butt;stroke-linejoin:miter;stroke-opacity:1"
     x="12193.04"
     y="85563.922"
     id="text3338"
     sodipodi:linespacing="125%"
     transform="scale(1.0806155,0.92539854)"><tspan
       sodipodi:role="line"
       id="tspan3340"
       x="12193.04"
       y="85563.922"
       style="font-size:21671.54882812px">AUTO</tspan></text>
<g
     transform="matrix(0.43598555,0,0,0.43598555,-84871.498,22551.109)"
     style="clip-rule:evenodd;fill-rule:evenodd;image-rendering:optimizeQuality;shape-rendering:geometricPrecision;text-rendering:geometricPrecision"
     id="g3418"><g
       id="g3407"><g
         id="g3380"
         transform="translate(166153.85,-47611.338)"><g
           id="g3371"><g
             id="g3363"><g
               id="Слой_x0020_1"><metadata
                 id="CorelCorpID_0Corel-Layer" /><g
                 id="_406464920"><path
                   id="path11-7"
                   d="m 56238,76943 -3197,3057 -67,0 -896,-3 -19770,3 20666,0 639,-600 2625,-2457 z M 32927,4190 l 0,71533 18255,39 35731,-33437 0,-4462 -34982,-33673 -19004,0 z"
                   class="fil0"
                   inkscape:connector-curvature="0"
                   style="fill:#ffffff" /><path
                   id="path13"
                   d="m 28512,77835 0,-75771 0,-2125 2208,0 22126,0 914,0 647,622 36274,34920 647,622 0,880 0,6232 0,891 -673,629 -37042,34665 -639,599 -896,-2 -19770,3 -3796,-1 0,-2164 z m 4416,-73646 0,71533 18254,39 35730,-33437 0,-4461 -34980,-33674 -19004,0 z"
                   class="fil1"
                   inkscape:connector-curvature="0"
                   style="fill:#000000;fill-rule:nonzero" /><polygon
                   id="polygon15"
                   points="49218,27474 38001,27474 38001,21086 68051,21086 68051,27474 56860,27474 56860,58830 49218,58830 "
                   class="fil1"
                   style="fill:#000000;fill-rule:nonzero" /></g></g></g></g></g></g></g><rect
     id="rect3406"
     width="19183.102"
     height="33294.207"
     x="30329.869"
     y="1411.1112"
     style="fill:#ffffff;stroke:#000000;stroke-width:2822.22241211;stroke-miterlimit:4;stroke-dasharray:none;stroke-opacity:1" /><rect
     id="rect3406-5"
     width="19794.785"
     height="19794.777"
     x="29977.275"
     y="14777.736"
     style="fill:#0000ff;fill-rule:evenodd;stroke:#0000ff;stroke-width:2210.5390625;stroke-miterlimit:4;stroke-dasharray:none;stroke-opacity:1" /></svg>