<?xml version="1.0" encoding="UTF-8"?>
<!DOCTYPE svg PUBLIC "-//W3C//DTD SVG 1.1//EN" "http://www.w3.org/Graphics/SVG/1.1/DTD/svg11.dtd">
<!-- Creator: CorelDRAW X5 -->
<svg xmlns="http://www.w3.org/2000/svg" xml:space="preserve" width="42px" height="28px" style="shape-rendering:geometricPrecision; text-rendering:geometricPrecision; image-rendering:optimizeQuality; fill-rule:evenodd; clip-rule:evenodd"
viewBox="0 0 42000 28000"
 xmlns:xlink="http://www.w3.org/1999/xlink">
 <defs>
  <style type="text/css">
   <![CDATA[
    .fil0 {fill:black}
   ]]>
  </style>
 </defs>
 <g id="Слой_x0020_1">
  <metadata id="CorelCorpID_0Corel-Layer"/>
  <path class="fil0" d="M17504 2846l-3008 3636 0 13293 4632 0 0 -1714 -2917 0 0 -10958 2095 -2541 5679 0 994 1152 1383 -644 713 1079 -1119 521 0 11393 -3181 0 0 1715 4896 0 0 -12725 1246 -588 -1905 -2891 -1464 682 -1216 -1408 -6829 0zm1624 17924l-1534 0 3368 4353 3348 -4353 -1534 1 0 -5672 -3648 0 0 5672zm1119 1967l0 -6346 1411 0 0 6346 -1411 0z"/>
 </g>
</svg>
