<?xml version="1.0" encoding="UTF-8"?>
<!DOCTYPE svg PUBLIC "-//W3C//DTD SVG 1.1//EN" "http://www.w3.org/Graphics/SVG/1.1/DTD/svg11.dtd">
<!-- Creator: CorelDRAW X5 -->
<svg xmlns="http://www.w3.org/2000/svg" xml:space="preserve" width="42px" height="28px" style="shape-rendering:geometricPrecision; text-rendering:geometricPrecision; image-rendering:optimizeQuality; fill-rule:evenodd; clip-rule:evenodd"
viewBox="0 0 42000 28000"
 xmlns:xlink="http://www.w3.org/1999/xlink">
 <defs>
  <style type="text/css">
   <![CDATA[
    .fil0 {fill:black}
   ]]>
  </style>
 </defs>
 <g id="Слой_x0020_1">
  <metadata id="CorelCorpID_0Corel-Layer"/>
  <path class="fil0" d="M19174 18063l-7138 0 0 -11268 12691 0 0 -2233 2667 0 0 2233 2464 0 0 11268 -7035 0 0 -2963 -3649 0 0 2963zm9935 -12984l0 -2233 -6097 0 0 2233 -12691 0 0 14699 8853 0 0 994 -1534 0 3359 4353 3359 -4353 -1535 0 0 -995 8805 0 -3 -14699 -2515 0zm-8816 17660l0 -6346 1411 0 0 6346 -1411 0z"/>
 </g>
</svg>
