<?xml version="1.0" encoding="UTF-8" standalone="no"?>
<svg
   xmlns:dc="http://purl.org/dc/elements/1.1/"
   xmlns:cc="http://creativecommons.org/ns#"
   xmlns:rdf="http://www.w3.org/1999/02/22-rdf-syntax-ns#"
   xmlns:svg="http://www.w3.org/2000/svg"
   xmlns="http://www.w3.org/2000/svg"
   xmlns:sodipodi="http://sodipodi.sourceforge.net/DTD/sodipodi-0.dtd"
   xmlns:inkscape="http://www.inkscape.org/namespaces/inkscape"
   version="1.1"
   id="svg4911"
   viewBox="0 0 28.94692 26.138043"
   height="7.3767366mm"
   width="8.1694641mm"
   inkscape:version="0.91 r13725"
   sodipodi:docname="CurrentPositionFeederHousingAuto.svg">
  <sodipodi:namedview
     pagecolor="#ffffff"
     bordercolor="#666666"
     borderopacity="1"
     objecttolerance="10"
     gridtolerance="10"
     guidetolerance="10"
     inkscape:pageopacity="0"
     inkscape:pageshadow="2"
     inkscape:window-width="1855"
     inkscape:window-height="1056"
     id="namedview11"
     showgrid="false"
     inkscape:zoom="9.028985"
     inkscape:cx="15.47025"
     inkscape:cy="13.069022"
     inkscape:window-x="65"
     inkscape:window-y="24"
     inkscape:window-maximized="1"
     inkscape:current-layer="svg4911"
     fit-margin-top="0"
     fit-margin-left="0"
     fit-margin-right="0"
     fit-margin-bottom="0" />
  <defs
     id="defs4913" />
  <metadata
     id="metadata4916">
    <rdf:RDF>
      <cc:Work
         rdf:about="">
        <dc:format>image/svg+xml</dc:format>
        <dc:type
           rdf:resource="http://purl.org/dc/dcmitype/StillImage" />
        <dc:title></dc:title>
      </cc:Work>
    </rdf:RDF>
  </metadata>
  <g
     id="g4148">
    <polygon
       transform="matrix(2.3787404e-4,0,0,3.5433067e-4,6.2020555,-0.64652)"
       style="fill:#000000;fill-rule:evenodd"
       id="polygon11"
       points="26166,69449 93742,69449 93742,75592 26166,75592 "
       class="fil0" />
    <path
       inkscape:connector-curvature="0"
       style="fill:#000000;fill-rule:nonzero"
       id="path13"
       d="m 14.56687,6.20147 c -0.15199,0.0904 -0.310425,0.15839 -0.473335,0.20339 -0.163,0.0436 -0.334503,0.0663 -0.51263,0.0663 -0.256181,0 -0.486493,-0.0517 -0.690579,-0.15661 C 12.687494,6.21144 12.514738,6.05624 12.372504,5.85108 12.230182,5.64628 12.121515,5.39293 12.046594,5.08927 11.97051,4.78738 11.9339,4.43695 11.9339,4.0401 c 0,-0.38445 0.03939,-0.73311 0.121467,-1.04634 0.08235,-0.31146 0.19773,-0.57791 0.345154,-0.79902 0.149036,-0.21968 0.328148,-0.39082 0.536709,-0.51023 0.208382,-0.11941 0.441738,-0.17929 0.698187,-0.17929 0.209545,0 0.386509,0.0163 0.529727,0.0485 0.143396,0.0337 0.271666,0.0758 0.386777,0.12579 l 0,1.12039 C 14.420429,2.7032 14.277212,2.62734 14.123969,2.57384 c -0.154139,-0.0546 -0.299684,-0.0804 -0.43771,-0.0804 -0.144381,0 -0.273546,0.0354 -0.388657,0.10808 -0.113948,0.0726 -0.210709,0.17433 -0.288763,0.3033 -0.07788,0.12933 -0.139011,0.28595 -0.180365,0.46984 -0.04117,0.18567 -0.06176,0.38764 -0.06176,0.60874 0,0.22926 0.02327,0.43583 0.06713,0.61831 0.04476,0.18425 0.107592,0.3391 0.188958,0.46666 0.08146,0.12755 0.180275,0.22606 0.294223,0.29374 0.115111,0.0677 0.242127,0.10169 0.382212,0.10169 0.06713,0 0.138922,-0.008 0.213842,-0.0209 0.07608,-0.0145 0.151095,-0.0354 0.226016,-0.0631 0.07608,-0.0259 0.149842,-0.0563 0.222614,-0.0921 0.0734,-0.0337 0.142323,-0.0726 0.20507,-0.11268 l 0,1.02649 z m 3.878874,-2.25673 c 0,0.37914 -0.0358,0.72461 -0.108756,1.03784 C 18.26538,5.29758 18.161189,5.56545 18.0254,5.78974 17.889791,6.01439 17.723479,6.18695 17.525839,6.30955 17.329362,6.4325 17.10451,6.4938 16.85173,6.4938 16.611662,6.4938 16.39782,6.4421 16.208683,6.3386 16.019814,6.23372 15.860216,6.07888 15.728903,5.8723 15.597411,5.66537 15.496532,5.40742 15.426803,5.09738 15.356089,4.78592 15.321627,4.42415 15.321627,4.011 c 0,-0.38126 0.0367,-0.72815 0.109741,-1.03996 0.0725,-0.31323 0.177859,-0.57933 0.3149,-0.79901 0.136863,-0.22111 0.30398,-0.39225 0.500457,-0.51343 0.19773,-0.12118 0.420165,-0.18248 0.668916,-0.18248 0.240964,0 0.457223,0.0535 0.644928,0.15839 0.189137,0.1063 0.34972,0.26291 0.480943,0.47126 0.131582,0.20834 0.231476,0.46488 0.300937,0.7735 0.06803,0.3065 0.103295,0.66154 0.103295,1.06547 z m -0.807927,0.0291 c 0,-0.4989 -0.06355,-0.87343 -0.190032,-1.12358 -0.126121,-0.25016 -0.311588,-0.3763 -0.558281,-0.3763 -0.135609,0 -0.250721,0.0404 -0.346408,0.11799 -0.0956,0.079 -0.173562,0.18708 -0.235504,0.32421 -0.06087,0.13748 -0.106518,0.29728 -0.134535,0.47976 -0.02954,0.1839 -0.04386,0.37914 -0.04386,0.58748 0,0.50032 0.06803,0.87839 0.204175,1.13174 0.135788,0.25512 0.32036,0.3809 0.555864,0.3809 0.129164,0 0.242127,-0.0386 0.337815,-0.11622 0.0956,-0.0758 0.172666,-0.1839 0.23246,-0.32138 0.05818,-0.13712 0.102938,-0.29834 0.133371,-0.48401 0.02954,-0.18567 0.04476,-0.38587 0.04476,-0.60059 z m 3.40733,2.41193 0,-3.13051 c 0,-0.52796 -0.131312,-0.79087 -0.395281,-0.79087 -0.131402,0 -0.256181,0.079 -0.376842,0.23705 -0.119407,0.15661 -0.246424,0.37134 -0.379885,0.64275 l 0,3.04158 -0.776419,0 0,-4.80614 0.671065,0 0.01969,0.71043 c 0.06624,-0.12295 0.134714,-0.23599 0.205339,-0.33591 0.07071,-0.10169 0.147514,-0.18744 0.230222,-0.2583 0.08325,-0.0709 0.172488,-0.12437 0.266922,-0.163 0.0956,-0.0372 0.203191,-0.0567 0.321345,-0.0567 0.166312,0 0.309709,0.0404 0.433503,0.12118 0.122719,0.079 0.225657,0.19382 0.308276,0.34051 0.08235,0.14528 0.144381,0.32315 0.185735,0.52973 0.04118,0.20657 0.06176,0.43724 0.06176,0.69236 l 0,3.22583 -0.775256,0 z m 4.319538,-1.41414 c 0,0.27426 -0.04028,0.50847 -0.121735,0.70193 -0.08235,0.19382 -0.190121,0.35221 -0.324746,0.47303 -0.134356,0.12118 -0.287599,0.21012 -0.458118,0.26504 -0.170608,0.0546 -0.345423,0.0822 -0.523371,0.0822 -0.237832,0 -0.451674,-0.0163 -0.64269,-0.0485 -0.191286,-0.0337 -0.371561,-0.0822 -0.540916,-0.14527 l 0,-1.03961 c 0.199789,0.1226 0.398414,0.21154 0.596055,0.26646 0.198893,0.0549 0.385613,0.084 0.561413,0.084 0.204086,0 0.356165,-0.0485 0.457223,-0.14528 0.101148,-0.0953 0.150737,-0.22146 0.150737,-0.3763 0,-0.0726 -0.01074,-0.1389 -0.03133,-0.19842 C 24.465725,4.83101 24.42634,4.77291 24.3678,4.71799 24.309618,4.66309 24.22682,4.60673 24.121376,4.54862 24.014768,4.49052 23.875936,4.42425 23.704344,4.35161 23.545999,4.28531 23.405914,4.2113 23.286237,4.12697 23.165845,4.04337 23.067114,3.94484 22.988881,3.83181 22.911007,3.71878 22.850855,3.58626 22.811918,3.43638 c -0.03849,-0.14882 -0.05818,-0.32457 -0.05818,-0.52654 0,-0.19523 0.02954,-0.3809 0.08862,-0.55382 0.05997,-0.17433 0.147693,-0.32598 0.266206,-0.45673 0.117259,-0.13075 0.263789,-0.23421 0.439768,-0.31004 0.177053,-0.0758 0.382302,-0.11303 0.617716,-0.11303 0.20319,0 0.383287,0.0163 0.540737,0.0468 0.156555,0.0322 0.295476,0.0663 0.417032,0.10524 l 0,0.9411 c -0.184661,-0.0889 -0.358223,-0.15165 -0.52006,-0.18744 -0.16291,-0.0354 -0.323672,-0.0549 -0.482106,-0.0549 -0.159688,0 -0.286615,0.0436 -0.383198,0.12756 -0.09685,0.0858 -0.145634,0.20338 -0.145634,0.35539 0,0.0726 0.0098,0.13713 0.02954,0.19382 0.0188,0.0563 0.05639,0.11268 0.113053,0.16618 0.05639,0.0531 0.134535,0.10984 0.235504,0.1676 0.09989,0.0585 0.233534,0.12118 0.398593,0.19063 0.18681,0.0794 0.34426,0.16476 0.471276,0.2537 0.127016,0.0904 0.229059,0.19205 0.307381,0.30508 0.07698,0.11303 0.132208,0.24342 0.165954,0.38728 0.03491,0.14528 0.05102,0.31181 0.05102,0.49748 z m 3.582146,1.36701 c -0.140085,0.0471 -0.280259,0.084 -0.422493,0.11303 -0.142143,0.0291 -0.276857,0.0422 -0.403874,0.0422 -0.212857,0 -0.39537,-0.0322 -0.549419,-0.0985 C 27.417802,6.32907 27.289801,6.22742 27.189907,6.09171 27.088849,5.95636 27.015091,5.78344 26.967293,5.57545 26.919852,5.36533 26.895684,5.11518 26.895684,4.82463 l 0,-2.34567 -0.868706,0 0,-0.89929 0.868706,0 0,-1.22847 0.794858,-0.30827 0,1.53674 1.256378,0 0,0.89929 -1.256378,0 0,2.25992 c 0,0.2746 0.04207,0.48295 0.127017,0.62327 0.08504,0.14031 0.22691,0.20976 0.426699,0.20976 0.127016,0 0.250989,-0.016 0.372545,-0.0468 0.120572,-0.0322 0.231208,-0.0677 0.330117,-0.10984 l 0,0.92338 z"
       class="fil1" />
    <path
       inkscape:connector-curvature="0"
       style="fill:#000000;fill-rule:evenodd"
       id="path15"
       d="m 12.383872,21.26632 0,0.95811 12.154894,-0.007 c 2.403553,0.0308 4.00061,-2.39385 3.960867,-5.85496 l 0.0179,-9.77385 -16.133127,14.67815 z m 14.759399,-10.98922 -0.009,6.0339 c 0,2.53205 -1.144578,3.94583 -2.650603,3.94512 L 16.003026,20.27882 27.14,10.27712 Z"
       class="fil0" />
    <path
       inkscape:connector-curvature="0"
       id="rect4195"
       d="m 0,0 0,26.13672 11.2363,0 L 11.2363,0 0,0 Z m 5.0937,8.6875 1.4532,0 3.6093,9.4707 -1.332,0 -0.8633,-2.42969 -4.2695,0 -0.8613,2.42969 -1.3516,0 3.6152,-9.4707 z m 0.7227,1.26172 -1.7363,4.71289 3.4824,0 -1.7461,-4.71289 z"
       style="fill:#000000;fill-opacity:1;stroke:none;stroke-width:0.1;stroke-linecap:round;stroke-linejoin:bevel;stroke-miterlimit:4;stroke-dasharray:none;stroke-opacity:1" />
  </g>
</svg>
