<?xml version="1.0" encoding="UTF-8"?>
<!DOCTYPE svg PUBLIC "-//W3C//DTD SVG 1.1//EN" "http://www.w3.org/Graphics/SVG/1.1/DTD/svg11.dtd">
<!-- Creator: CorelDRAW X5 -->
<svg xmlns="http://www.w3.org/2000/svg" xml:space="preserve" width="42px" height="28px" style="shape-rendering:geometricPrecision; text-rendering:geometricPrecision; image-rendering:optimizeQuality; fill-rule:evenodd; clip-rule:evenodd"
viewBox="0 0 42000 28000"
 xmlns:xlink="http://www.w3.org/1999/xlink">
 <defs>
  <style type="text/css">
   <![CDATA[
    .fil0 {fill:#2B2A29;fill-rule:nonzero}
    .fil1 {fill:black;fill-rule:nonzero}
    .fil2 {fill:#009933;fill-rule:nonzero}
   ]]>
  </style>
 </defs>
 <g id="Слой_x0020_1">
  <metadata id="CorelCorpID_0Corel-Layer"/>
  <g id="_251039632">
   <polygon class="fil0" points="15408,22832 16640,22832 17870,26574 19235,22832 20375,22832 20375,27508 19583,27508 19583,23743 18201,27508 17491,27508 16184,23562 16184,27508 15408,27508 "/>
   <polygon id="1" class="fil0" points="21608,22832 22840,22832 24070,26574 25435,22832 26575,22832 26575,27508 25783,27508 25783,23743 24401,27508 23691,27508 22384,23562 22384,27508 21608,27508 "/>
   <g>
    <path class="fil1" d="M32960 17654c1,916 1,1832 1,2750l0 274 -23775 0 0 0 -131 0 0 -3024 23905 0z"/>
    <polygon class="fil1" points="9090,14432 9090,14199 9090,13955 9090,13712 9090,13468 9090,13224 9090,12980 9090,12737 9090,12493 9090,12250 9090,12006 9090,11762 9090,11519 9090,11275 9090,11031 9090,10788 9090,10544 9090,10300 9090,10057 9090,9813 9090,9569 9090,9325 9090,9082 9090,8838 9090,8595 9090,8351 9090,8107 9090,7863 9090,7620 9090,7376 9090,7132 9090,6888 9090,6645 9090,6401 9090,6157 9090,5913 9090,5670 9090,5426 9090,5182 9090,4938 9090,4695 9090,4451 9090,4207 9090,3963 9090,3719 9090,3475 9090,3232 9090,2988 9090,2744 9090,2500 9090,2256 9090,2012 9090,1768 9090,1524 10593,1524 10593,14432 "/>
    <polygon class="fil1" points="31458,14432 31458,14199 31458,13955 31458,13712 31458,13468 31458,13224 31458,12980 31458,12737 31458,12493 31458,12250 31458,12006 31458,11762 31458,11519 31458,11275 31458,11031 31458,10788 31458,10544 31458,10300 31458,10057 31458,9813 31458,9569 31458,9325 31458,9082 31458,8838 31458,8595 31458,8351 31458,8107 31458,7863 31458,7620 31458,7376 31458,7132 31458,6888 31458,6645 31458,6401 31458,6157 31458,5913 31458,5670 31458,5426 31458,5182 31458,4938 31458,4695 31458,4451 31458,4207 31458,3963 31458,3719 31458,3475 31458,3232 31458,2988 31458,2744 31458,2500 31458,2256 31458,2012 31458,1768 31458,1524 32961,1524 32961,14432 "/>
    <polygon class="fil1" points="33752,4555 38533,1461 38534,1461 39163,2428 36253,4316 35100,5064 36649,6069 39161,7701 38863,8159 38533,8666 33752,5570 32968,5062 "/>
    <polygon class="fil1" points="8271,4555 3489,1461 3488,1461 2859,2428 5769,4316 6922,5064 5374,6069 2861,7701 3159,8159 3489,8666 8271,5570 9055,5062 "/>
   </g>
  </g>
  <path class="fil2" d="M24624 12996l-616 -1624 -5243 0 -616 1660c-243,648 -447,1084 -618,1310 -168,226 -447,340 -835,340 -327,0 -619,-120 -871,-362 -252,-241 -378,-515 -378,-822 0,-175 30,-359 87,-545 61,-190 156,-452 292,-786l3300 -8402c93,-241 207,-530 339,-868 132,-340 271,-621 420,-844 151,-223 349,-404 592,-542 243,-139 544,-208 901,-208 363,0 666,69 910,208 243,139 442,316 592,533 147,217 273,452 378,702 102,250 231,585 391,1000l3369 8351c264,636 396,1097 396,1386 0,298 -126,572 -376,822 -249,250 -550,377 -901,377 -204,0 -382,-36 -529,-111 -147,-72 -271,-172 -370,-298 -99,-127 -207,-322 -321,-585 -114,-262 -213,-491 -294,-693zm-5174 -3591l3856 0 -1946 -5338 -1910 5338z"/>
 </g>
 <g id="Направляющие">
  <metadata id="CorelCorpID_1Corel-Layer"/>
 </g>
</svg>
