<?xml version="1.0" encoding="UTF-8"?>
<!DOCTYPE svg PUBLIC "-//W3C//DTD SVG 1.1//EN" "http://www.w3.org/Graphics/SVG/1.1/DTD/svg11.dtd">
<!-- Creator: CorelDRAW X5 -->
<svg xmlns="http://www.w3.org/2000/svg" xml:space="preserve" width="12mm" height="8mm" style="shape-rendering:geometricPrecision; text-rendering:geometricPrecision; image-rendering:optimizeQuality; fill-rule:evenodd; clip-rule:evenodd"
viewBox="0 0 120000 80000"
 xmlns:xlink="http://www.w3.org/1999/xlink">
 <defs>
  <style type="text/css">
   <![CDATA[
    .fil0 {fill:black}
   ]]>
  </style>
 </defs>
 <g id="Слой_x0020_1">
  <metadata id="CorelCorpID_0Corel-Layer"/>
  <g id="_386882080">
   <path class="fil0" d="M89629 33438c1704,698 3238,1729 4520,3011l4 -4c2489,2489 4029,5934 4031,9743l7 0 0 6 0 2 -7 0c-1,3811 -1542,7259 -4033,9748 -1281,1281 -2816,2310 -4522,3008l0 -4355c642,-401 1236,-872 1769,-1405 1796,-1796 2907,-4270 2907,-6996l-7 0 0 -2 0 -6 7 0c-1,-2723 -1111,-5196 -2905,-6990l0 -8c-533,-533 -1128,-1007 -1771,-1408l0 -4344zm-14587 -7975l2 0 0 -7c2150,0 4098,873 5507,2282l0 8c1412,1413 2287,3359 2288,5502l-7 0 0 5 0 3 7 0c0,2149 -873,4096 -2282,5505l-8 0c-1413,1413 -3359,2288 -5502,2289l0 -8 -5 0 -2 0 0 8c-558,0 -1102,-61 -1627,-173l573 4003c347,31 698,48 1054,48l0 7 2 0 5 0 0 -7c3228,-1 6147,-1306 8255,-3414l-4 -4c2112,-2113 3419,-5032 3419,-8254l8 0 0 -3 0 -5 -8 0c-1,-3228 -1306,-6147 -3414,-8255l-4 4c-2113,-2112 -5032,-3419 -8255,-3419l0 -8 -2 0 -5 0 0 8c-1509,0 -2948,286 -4270,805l574 4012c1101,-599 2360,-938 3696,-939l0 7 5 0zm0 41463l2 0 0 7c2150,0 4098,-873 5507,-2282l0 -8c1412,-1413 2287,-3359 2288,-5502l-7 0 0 -5 0 -2 7 0c0,-2149 -873,-4097 -2282,-5506l-8 0c-1413,-1413 -3359,-2287 -5502,-2289l0 8 -5 0 -2 0 0 -8c-558,0 -1102,61 -1627,174l573 -4004c347,-31 698,-48 1054,-48l0 -7 2 0 5 0 0 7c3228,2 6147,1306 8255,3414l-4 4c2112,2113 3419,5032 3419,8255l8 0 0 2 0 5 -8 0c-1,3228 -1306,6147 -3414,8255l-4 -4c-2113,2112 -5032,3419 -8255,3419l0 8 -2 0 -5 0 0 -8c-1509,0 -2948,-286 -4270,-805l574 -4012c1101,599 2360,938 3696,939l0 -7 5 0z"/>
   <path class="fil0" d="M69352 32605l-17928 2555 0 3757 18302 -2609 -374 -3703zm-35302 5031l-12363 1762 374 3703 11989 -1709 0 -3756z"/>
   <polygon class="fil0" points="69352,59784 21687,52992 22061,49289 69726,56081 "/>
   <path class="fil0" d="M43501 41484l0 0c-1600,-4 -3089,-445 -4196,-1430 -379,-338 -710,-735 -983,-1196 -268,-454 -480,-968 -624,-1547 -140,-557 -217,-1185 -221,-1885 -19,-3044 1368,-5272 2724,-7452 292,-469 583,-936 856,-1408l1 1 85 -149c857,-1503 1659,-3358 2358,-4948l15 0 14 0c699,1590 1501,3445 2358,4948l85 149 1 -1c273,472 564,939 856,1408 1357,2180 2743,4408 2724,7452 -4,700 -81,1328 -221,1885 -144,579 -356,1093 -624,1547 -273,461 -604,858 -983,1196 -1107,985 -2596,1426 -4196,1430l-1 0 -28 0z"/>
   <path class="fil0" d="M55580 29230l-1 0c-1600,-4 -3089,-445 -4196,-1430 -379,-337 -710,-735 -983,-1196 -267,-454 -480,-968 -624,-1546 -139,-558 -217,-1186 -221,-1886 -19,-3044 1368,-5272 2724,-7452 293,-469 583,-936 856,-1408l2 1 85 -149c856,-1503 1658,-3358 2357,-4947l15 0 14 0c699,1589 1501,3444 2358,4947l85 149 1 -1c274,472 564,939 856,1408 1357,2180 2744,4408 2724,7452 -4,700 -81,1328 -220,1886 -145,578 -357,1092 -625,1546 -273,461 -604,859 -983,1196 -1106,985 -2596,1426 -4196,1430l0 0 -28 0z"/>
  </g>
 </g>
</svg>
