<?xml version="1.0" encoding="UTF-8"?>
<!DOCTYPE svg PUBLIC "-//W3C//DTD SVG 1.1//EN" "http://www.w3.org/Graphics/SVG/1.1/DTD/svg11.dtd">
<!-- Creator: CorelDRAW X5 -->
<svg xmlns="http://www.w3.org/2000/svg" xml:space="preserve" width="12mm" height="8mm" style="shape-rendering:geometricPrecision; text-rendering:geometricPrecision; image-rendering:optimizeQuality; fill-rule:evenodd; clip-rule:evenodd"
viewBox="0 0 120000 80000"
 xmlns:xlink="http://www.w3.org/1999/xlink">
 <defs>
  <style type="text/css">
   <![CDATA[
    .fil0 {fill:black}
   ]]>
  </style>
 </defs>
 <g id="Слой_x0020_1">
  <metadata id="CorelCorpID_0Corel-Layer"/>
  <g id="_329705840">
   <path class="fil0" d="M89143 38570c1672,686 3178,1697 4436,2955l4 -4c2442,2443 3954,5823 3955,9562l7 0 0 5 0 2 -7 0c-1,3740 -1513,7123 -3957,9566 -1257,1257 -2763,2267 -4438,2952l0 -4274c630,-393 1213,-856 1736,-1379 1762,-1762 2853,-4190 2853,-6865l-7 0 0 -2 0 -5 7 0c-1,-2673 -1091,-5100 -2851,-6861l0 -7c-523,-523 -1107,-988 -1738,-1382l0 -4263zm-14314 -7825l2 0 0 -8c2109,1 4021,857 5403,2240l0 8c1387,1386 2245,3296 2246,5399l-7 0 0 5 0 2 7 0c0,2109 -856,4020 -2240,5403l-7 0c-1387,1386 -3297,2245 -5399,2246l0 -7 -5 0 -3 0 0 7c-547,0 -1081,-60 -1596,-170l562 3929c341,30 685,47 1034,47l0 7 3 0 5 0 0 -7c3168,-2 6031,-1282 8100,-3350l-4 -4c2073,-2074 3355,-4939 3356,-8101l7 0 0 -2 0 -5 -7 0c-1,-3168 -1282,-6032 -3350,-8101l-4 4c-2074,-2073 -4939,-3355 -8101,-3356l0 -7 -2 0 -5 0 0 7c-1481,1 -2893,281 -4191,791l564 3937c1080,-587 2316,-921 3627,-922l0 8 5 0zm0 40688l2 0 0 7c2109,0 4021,-857 5403,-2240l0 -8c1387,-1386 2245,-3296 2246,-5398l-7 0 0 -5 0 -3 7 0c0,-2109 -856,-4020 -2240,-5403l-7 0c-1387,-1386 -3297,-2245 -5399,-2246l0 8 -5 0 -3 0 0 -8c-547,0 -1081,60 -1596,170l562 -3929c341,-30 685,-46 1034,-46l0 -8 3 0 5 0 0 8c3168,1 6031,1281 8100,3350l-4 4c2073,2073 3355,4938 3356,8100l7 0 0 3 0 5 -7 0c-1,3167 -1282,6031 -3350,8100l-4 -4c-2074,2073 -4939,3355 -8101,3356l0 7 -2 0 -5 0 0 -7c-1481,-1 -2893,-281 -4191,-790l564 -3938c1080,588 2316,921 3627,922l0 -7 5 0z"/>
   <path class="fil0" d="M69245 37753l-17593 2507 0 3687 17960 -2560 -367 -3634zm-34642 4937l-12133 1729 367 3634 11766 -1677 0 -3686z"/>
   <polygon class="fil0" points="69245,64424 22470,57759 22837,54125 69612,60790 "/>
   <path class="fil0" d="M42973 50528c2975,0 5386,-2412 5386,-5386 0,-1672 -763,-3166 -1959,-4154l0 -5167 12405 0 0 -4806 -12405 0 0 -4018 12405 0 0 -4805 -12405 0 0 -4018 12405 0 0 -4805 -12405 0 0 -6383c-14,-2861 -6783,-2910 -6854,0l0 34003c-1196,988 -1958,2481 -1958,4153 0,2974 2411,5386 5385,5386z"/>
  </g>
 </g>
 <g id="Направляющие">
  <metadata id="CorelCorpID_1Corel-Layer"/>
 </g>
</svg>
