<?xml version="1.0" encoding="UTF-8" standalone="no"?>
<svg
   xmlns:dc="http://purl.org/dc/elements/1.1/"
   xmlns:cc="http://creativecommons.org/ns#"
   xmlns:rdf="http://www.w3.org/1999/02/22-rdf-syntax-ns#"
   xmlns:svg="http://www.w3.org/2000/svg"
   xmlns="http://www.w3.org/2000/svg"
   xmlns:sodipodi="http://sodipodi.sourceforge.net/DTD/sodipodi-0.dtd"
   xmlns:inkscape="http://www.inkscape.org/namespaces/inkscape"
   version="1.1"
   id="svg5496"
   viewBox="0 0 30.552208 32.422353"
   height="9.1503086mm"
   width="8.6225119mm"
   inkscape:version="0.91 r13725"
   sodipodi:docname="DPFfilterClogging_btnOff.svg">
  <sodipodi:namedview
     pagecolor="#ffffff"
     bordercolor="#666666"
     borderopacity="1"
     objecttolerance="10"
     gridtolerance="10"
     guidetolerance="10"
     inkscape:pageopacity="0"
     inkscape:pageshadow="2"
     inkscape:window-width="1855"
     inkscape:window-height="1056"
     id="namedview11"
     showgrid="false"
     fit-margin-top="0"
     fit-margin-left="0"
     fit-margin-right="0"
     fit-margin-bottom="0"
     inkscape:zoom="10.970696"
     inkscape:cx="34.610113"
     inkscape:cy="26.596911"
     inkscape:window-x="65"
     inkscape:window-y="24"
     inkscape:window-maximized="1"
     inkscape:current-layer="svg5496" />
  <defs
     id="defs5498" />
  <metadata
     id="metadata5501">
    <rdf:RDF>
      <cc:Work
         rdf:about="">
        <dc:format>image/svg+xml</dc:format>
        <dc:type
           rdf:resource="http://purl.org/dc/dcmitype/StillImage" />
        <dc:title></dc:title>
      </cc:Work>
    </rdf:RDF>
  </metadata>
  <g
     id="g4154"
     transform="translate(0,-4.0953674e-5)">
    <path
       inkscape:connector-curvature="0"
       style="clip-rule:evenodd;fill:#000000;fill-rule:evenodd;image-rendering:optimizeQuality;shape-rendering:geometricPrecision;text-rendering:geometricPrecision"
       class="fil0"
       d="m 5.58284,4e-5 8.79201,0 0,1.8939 -8.79201,0 0,-1.8939 z m 2.23086,12.3789 c 0.69981,0 1.26744,0.56763 1.26744,1.26744 0,0.6998 -0.56763,1.26779 -1.26744,1.26779 -0.70015,0 -1.26744,-0.56799 -1.26744,-1.26779 0,-0.69981 0.56729,-1.26744 1.26744,-1.26744 z m 0,-4.51949 c 0.69981,0 1.26744,0.56764 1.26744,1.26744 0,0.70016 -0.56763,1.26779 -1.26744,1.26779 -0.70015,0 -1.26744,-0.56763 -1.26744,-1.26779 0,-0.6998 0.56729,-1.26744 1.26744,-1.26744 z m 0,-4.51914 c 0.69981,0 1.26744,0.56729 1.26744,1.26744 0,0.69981 -0.56763,1.26745 -1.26744,1.26745 -0.70015,0 -1.26744,-0.56764 -1.26744,-1.26745 0,-0.70015 0.56729,-1.26744 1.26744,-1.26744 z m 4.24028,0 c 0.70016,0 1.26744,0.56729 1.26744,1.26744 0,0.69981 -0.56728,1.26745 -1.26744,1.26745 -0.6998,0 -1.2678,-0.56764 -1.2678,-1.26745 0,-0.70015 0.568,-1.26744 1.2678,-1.26744 z m 0,4.51914 c 0.70016,0 1.26744,0.56764 1.26744,1.26744 0,0.70016 -0.56728,1.26779 -1.26744,1.26779 -0.6998,0 -1.2678,-0.56763 -1.2678,-1.26779 0,-0.6998 0.568,-1.26744 1.2678,-1.26744 z m 0,4.51949 c 0.70016,0 1.26744,0.56763 1.26744,1.26744 0,0.6998 -0.56728,1.26779 -1.26744,1.26779 -0.6998,0 -1.2678,-0.56799 -1.2678,-1.26779 0,-0.69981 0.568,-1.26744 1.2678,-1.26744 z m 0,4.51913 c 0.70016,0 1.26744,0.56764 1.26744,1.26779 0,0.69981 -0.56728,1.2678 -1.26744,1.2678 -0.6998,0 -1.2678,-0.56799 -1.2678,-1.2678 0,-0.70015 0.568,-1.26779 1.2678,-1.26779 z m -4.24028,0 c 0.69981,0 1.26744,0.56764 1.26744,1.26779 0,0.69981 -0.56763,1.2678 -1.26744,1.2678 -0.70015,0 -1.26744,-0.56799 -1.26744,-1.2678 0,-0.70015 0.56729,-1.26779 1.26744,-1.26779 z m 13.49363,2.76768 0.001,0 0,0.003 c 0.85819,0 1.63594,-0.34866 2.19862,-0.91134 l 0,-0.003 c 0.56409,-0.56445 0.91346,-1.34149 0.91417,-2.1972 l -0.003,0 0,-0.002 0,-10e-4 0.003,0 c -3.5e-4,-0.85819 -0.34866,-1.63594 -0.91169,-2.19862 l -0.003,0 c -0.56409,-0.56374 -1.34114,-0.91347 -2.19685,-0.91382 l 0,0.003 -0.002,0 -0.001,0 0,-0.003 c -0.22252,0 -0.44008,0.0241 -0.64984,0.0691 l 0.2289,-1.59874 c 0.1389,-0.0124 0.27886,-0.0191 0.42094,-0.0191 l 0,-0.003 0.001,0 0.002,0 0,0.003 c 1.28906,7.1e-4 2.45445,0.52193 3.29634,1.36346 l -0.002,0.001 c 0.84366,0.84402 1.36559,2.00977 1.36594,3.29634 l 0.003,0 0,10e-4 0,0.002 -0.003,0 c -7.1e-4,1.28941 -0.52193,2.4548 -1.36346,3.29669 l -0.002,-0.002 c -0.84366,0.84366 -2.00977,1.36524 -3.29634,1.36559 l 0,0.003 -0.001,0 -0.002,0 0,-0.003 c -0.60236,-3.5e-4 -1.17709,-0.11409 -1.70539,-0.32138 l 0.22925,-1.60228 c 0.43972,0.23882 0.94287,0.37453 1.47614,0.37488 l 0,-0.003 0.002,0 z m 0,-16.55823 0.001,0 0,-0.003 c 0.85819,0 1.63594,0.34831 2.19862,0.9117 l 0,0.003 c 0.56409,0.56409 0.91346,1.34149 0.91417,2.19685 l -0.003,0 0,0.002 0,7.1e-4 0.003,0 c -3.5e-4,0.85819 -0.34866,1.63595 -0.91169,2.19898 l -0.003,0 c -0.56409,0.56409 -1.34114,0.91346 -2.19685,0.91382 l 0,-0.003 -0.002,0 -0.001,0 0,0.003 c -0.22252,0 -0.44008,-0.0241 -0.64984,-0.0691 l 0.2289,1.59874 c 0.1389,0.0124 0.27886,0.0191 0.42094,0.0191 l 0,0.003 0.001,0 0.002,0 0,-0.003 c 1.28906,-3.6e-4 2.45445,-0.52158 3.29634,-1.36347 l -0.002,-10e-4 c 0.84366,-0.84401 1.36559,-2.00976 1.36594,-3.29669 l 0.003,0 0,-7.1e-4 0,-0.002 -0.003,0 C 25.96915,4.92739 25.44793,3.762 24.6064,2.92011 l -0.002,10e-4 C 23.76074,2.0778 22.59463,1.55587 21.30806,1.55551 l 0,-0.003 -0.001,0 -0.002,0 0,0.003 c -0.60236,3.6e-4 -1.17709,0.11445 -1.70539,0.32138 l 0.22925,1.60264 c 0.43972,-0.23917 0.94287,-0.37488 1.47614,-0.37524 l 0,0.003 0.002,0 z m 5.82555,3.18472 c 0.68031,0.27922 1.29259,0.69059 1.8046,1.20225 l 0.002,-10e-4 c 0.9939,0.9939 1.60902,2.36976 1.60973,3.89091 l 0.003,0 0,0.002 0,7e-4 -0.003,0 c -3.6e-4,1.52185 -0.61583,2.89878 -1.61079,3.89304 -0.5113,0.51165 -1.12429,0.92232 -1.80531,1.20082 l 0,-1.7387 c 0.25618,-0.16016 0.49358,-0.34866 0.70618,-0.56161 0.71716,-0.71681 1.16078,-1.70504 1.16114,-2.79355 l -0.003,0 0,-7e-4 0,-0.002 0.003,0 C 28.99972,10.29695 28.55645,9.30908 27.84,8.59298 l 0,-0.003 C 27.62704,8.37703 27.38929,8.18781 27.13311,8.02801 l 0,-1.73516 z m -21.55004,14.58744 8.79201,0 0,1.89355 -8.79201,0 0,-1.89355 z M 5.10307,13.35653 0.14953,12.65071 0,14.12933 l 5.10307,0.72709 0,-1.49989 z m 0,-3.9111 L 0.14953,10.15126 0,8.67228 5.10307,7.9452 l 0,1.50023 z m 14.08146,-2.00657 -4.32106,0.61547 0,-1.50024 4.17189,-0.59421 0.14917,1.47898 z m 0,7.92425 -4.32106,-0.61583 0,1.50024 4.17189,0.59457 0.14917,-1.47898 z"
       id="path4144" />
    <text
       sodipodi:linespacing="125%"
       id="text4184"
       y="32.333893"
       x="2.9411473"
       style="font-style:normal;font-weight:normal;font-size:6.25px;line-height:125%;font-family:sans-serif;letter-spacing:0px;word-spacing:0px;fill:#000000;fill-opacity:1;stroke:none;stroke-width:1px;stroke-linecap:butt;stroke-linejoin:miter;stroke-opacity:1"
       xml:space="preserve"><tspan
         style="font-style:normal;font-variant:normal;font-weight:bold;font-stretch:normal;font-family:sans-serif;-inkscape-font-specification:'sans-serif Bold'"
         y="32.333893"
         x="2.9411473"
         id="tspan4186">OFF</tspan></text>
    <path
       sodipodi:nodetypes="cccccccccc"
       inkscape:connector-curvature="0"
       id="path4178-7-6-1"
       d="m 6.5485515,16.887706 0,3.98161 -0.9634202,0 0,1.89355 4.3517606,3.682282 4.4402481,-3.682282 0,-1.89355 -1.05611,0 0,-3.98161 z"
       style="fill:#000000;fill-opacity:1;fill-rule:evenodd;stroke:none;stroke-width:1px;stroke-linecap:butt;stroke-linejoin:miter;stroke-opacity:1" />
  </g>
</svg>
