<?xml version="1.0" encoding="UTF-8"?>
<!DOCTYPE svg PUBLIC "-//W3C//DTD SVG 1.1//EN" "http://www.w3.org/Graphics/SVG/1.1/DTD/svg11.dtd">
<!-- Creator: CorelDRAW X5 -->
<svg xmlns="http://www.w3.org/2000/svg" xml:space="preserve" width="12mm" height="8mm" style="shape-rendering:geometricPrecision; text-rendering:geometricPrecision; image-rendering:optimizeQuality; fill-rule:evenodd; clip-rule:evenodd"
viewBox="0 0 120000 80000"
 xmlns:xlink="http://www.w3.org/1999/xlink">
 <defs>
  <style type="text/css">
   <![CDATA[
    .fil0 {fill:black}
   ]]>
  </style>
 </defs>
 <g id="Слой_x0020_1">
  <metadata id="CorelCorpID_0Corel-Layer"/>
  <path class="fil0" d="M32747 7936l24813 0 0 5345 -24813 0 0 -5345zm6296 34936c1975,0 3577,1602 3577,3577 0,1975 -1602,3578 -3577,3578 -1976,0 -3577,-1603 -3577,-3578 0,-1975 1601,-3577 3577,-3577zm0 -12755c1975,0 3577,1602 3577,3577 0,1976 -1602,3578 -3577,3578 -1976,0 -3577,-1602 -3577,-3578 0,-1975 1601,-3577 3577,-3577zm0 -12754c1975,0 3577,1601 3577,3577 0,1975 -1602,3577 -3577,3577 -1976,0 -3577,-1602 -3577,-3577 0,-1976 1601,-3577 3577,-3577zm11967 0c1976,0 3577,1601 3577,3577 0,1975 -1601,3577 -3577,3577 -1975,0 -3578,-1602 -3578,-3577 0,-1976 1603,-3577 3578,-3577zm0 12754c1976,0 3577,1602 3577,3577 0,1976 -1601,3578 -3577,3578 -1975,0 -3578,-1602 -3578,-3578 0,-1975 1603,-3577 3578,-3577zm0 12755c1976,0 3577,1602 3577,3577 0,1975 -1601,3578 -3577,3578 -1975,0 -3578,-1603 -3578,-3578 0,-1975 1603,-3577 3578,-3577zm0 12754c1976,0 3577,1602 3577,3578 0,1975 -1601,3578 -3577,3578 -1975,0 -3578,-1603 -3578,-3578 0,-1976 1603,-3578 3578,-3578zm-11967 0c1975,0 3577,1602 3577,3578 0,1975 -1602,3578 -3577,3578 -1976,0 -3577,-1603 -3577,-3578 0,-1976 1601,-3578 3577,-3578zm38082 7811l3 0 0 8c2422,0 4617,-984 6205,-2572l0 -9c1592,-1593 2578,-3786 2580,-6201l-9 0 0 -6 0 -3 9 0c-1,-2422 -984,-4617 -2573,-6205l-9 0c-1592,-1591 -3785,-2578 -6200,-2579l0 8 -6 0 -3 0 0 -8c-628,0 -1242,68 -1834,195l646 -4512c392,-35 787,-54 1188,-54l0 -9 3 0 6 0 0 9c3638,2 6927,1473 9303,3848l-5 4c2381,2382 3854,5672 3855,9303l8 0 0 3 0 6 -8 0c-2,3639 -1473,6928 -3848,9304l-5 -5c-2381,2381 -5672,3853 -9303,3854l0 9 -3 0 -6 0 0 -9c-1700,-1 -3322,-322 -4813,-907l647 -4522c1241,674 2661,1057 4166,1058l0 -8 6 0zm0 -46731l3 0 0 -8c2422,0 4617,983 6205,2573l0 9c1592,1592 2578,3786 2580,6200l-9 0 0 6 0 2 9 0c-1,2422 -984,4617 -2573,6206l-9 0c-1592,1592 -3785,2578 -6200,2579l0 -8 -6 0 -3 0 0 8c-628,0 -1242,-68 -1834,-195l646 4512c392,35 787,54 1188,54l0 8 3 0 6 0 0 -8c3638,-1 6927,-1472 9303,-3848l-5 -4c2381,-2382 3854,-5672 3855,-9304l8 0 0 -2 0 -6 -8 0c-2,-3638 -1473,-6927 -3848,-9303l-5 4c-2381,-2380 -5672,-3853 -9303,-3854l0 -9 -3 0 -6 0 0 9c-1700,1 -3322,323 -4813,907l647 4523c1241,-675 2661,-1058 4166,-1059l0 8 6 0zm16441 8988c1920,788 3648,1949 5093,3393l5 -4c2805,2805 4541,6688 4543,10981l8 0 0 7 0 2 -8 0c-1,4295 -1738,8181 -4546,10987 -1443,1444 -3173,2603 -5095,3389l0 -4907c723,-452 1393,-984 1993,-1585 2024,-2023 3276,-4812 3277,-7884l-9 0 0 -2 0 -7 9 0c-2,-3069 -1253,-5857 -3275,-7878l0 -9c-601,-601 -1272,-1135 -1995,-1586l0 -4897zm-60819 41169l24813 0 0 5344 -24813 0 0 -5344zm-1354 -21232l-13980 -1992 -422 4173 14402 2052 0 -4233zm0 -11038l-13980 1992 -422 -4174 14402 -2052 0 4234zm39741 -5663l-12195 1737 0 -4234 11774 -1677 421 4174zm0 22364l-12195 -1738 0 4234 11774 1678 421 -4174z"/>
 </g>
 <g id="Направляющие">
  <metadata id="CorelCorpID_1Corel-Layer"/>
 </g>
</svg>
