<?xml version="1.0" encoding="UTF-8" standalone="no"?>
<!-- Created with Inkscape (http://www.inkscape.org/) -->

<svg
   xmlns:dc="http://purl.org/dc/elements/1.1/"
   xmlns:cc="http://creativecommons.org/ns#"
   xmlns:rdf="http://www.w3.org/1999/02/22-rdf-syntax-ns#"
   xmlns:svg="http://www.w3.org/2000/svg"
   xmlns="http://www.w3.org/2000/svg"
   xmlns:sodipodi="http://sodipodi.sourceforge.net/DTD/sodipodi-0.dtd"
   xmlns:inkscape="http://www.inkscape.org/namespaces/inkscape"
   width="7.7756138mm"
   height="6.8816824mm"
   viewBox="0 0 27.551387 24.383914"
   id="svg2"
   version="1.1"
   inkscape:version="0.91 r13725"
   sodipodi:docname="block_diff_vedu_mosta.svg.2020_01_17_09_47_42.0.svg">
  <defs
     id="defs4">
    <style
       id="style6"
       type="text/css"><![CDATA[
    .str0 {stroke:#B3B3B3;stroke-width:762}
    .fil0 {fill:#B3B3B3}
    .fil2 {fill:#B3B3B3;fill-rule:nonzero}
    .fil1 {fill:red;fill-rule:nonzero}
   ]]></style>
    <style
       id="style3369"
       type="text/css"><![CDATA[
    .fil0 {fill:red}
   ]]></style>
    <style
       id="style3389"
       type="text/css"><![CDATA[
    .fil0 {fill:black;fill-rule:nonzero}
   ]]></style>
    <style
       id="style3423"
       type="text/css"><![CDATA[
    .fil0 {fill:black}
    .fil1 {fill:black;fill-rule:nonzero}
   ]]></style>
  </defs>
  <sodipodi:namedview
     id="base"
     pagecolor="#ffffff"
     bordercolor="#666666"
     borderopacity="1.0"
     inkscape:pageopacity="0.0"
     inkscape:pageshadow="2"
     inkscape:zoom="22.930397"
     inkscape:cx="11.078052"
     inkscape:cy="11.933033"
     inkscape:document-units="px"
     inkscape:current-layer="layer1"
     showgrid="false"
     showguides="true"
     inkscape:guide-bbox="true"
     inkscape:window-width="1920"
     inkscape:window-height="1031"
     inkscape:window-x="0"
     inkscape:window-y="25"
     inkscape:window-maximized="1"
     fit-margin-top="0"
     fit-margin-left="0"
     fit-margin-right="0"
     fit-margin-bottom="0" />
  <metadata
     id="metadata7">
    <rdf:RDF>
      <cc:Work
         rdf:about="">
        <dc:format>image/svg+xml</dc:format>
        <dc:type
           rdf:resource="http://purl.org/dc/dcmitype/StillImage" />
        <dc:title></dc:title>
      </cc:Work>
    </rdf:RDF>
  </metadata>
  <g
     inkscape:label="Layer 1"
     inkscape:groupmode="layer"
     id="layer1"
     transform="translate(-294.04968,-470.68184)">
    <g
       id="g3463">
      <rect
         y="481.10376"
         x="294.04968"
         height="1.4424807"
         width="5.2653384"
         id="rect3474-2"
         style="fill:#000000" />
      <g
         style="fill:#000000"
         id="g3451">
        <rect
           style="fill:#000000"
           id="rect3474-2-0"
           width="5.538897"
           height="1.4424807"
           x="-476.22073"
           y="304.14709"
           transform="matrix(0,-1,1,0,0,0)" />
        <rect
           style="fill:#000000"
           id="rect3474-2-9"
           width="5.4438796"
           height="1.4424807"
           x="470.75397"
           y="-311.46765"
           transform="matrix(0,1,-1,0,0,0)" />
        <rect
           style="fill:#000000"
           id="rect3474-2-3"
           width="5.1637759"
           height="1.4424807"
           x="316.43729"
           y="481.06769" />
        <rect
           style="fill:#000000"
           id="rect3474-2-6"
           width="5.2184634"
           height="1.4424807"
           x="316.3826"
           y="486.98187" />
        <rect
           style="fill:#000000"
           id="rect3474-2-06"
           width="5.2770572"
           height="1.4424807"
           x="294.04968"
           y="486.98187" />
      </g>
      <g
         id="g3458">
        <path
           style="fill:none;stroke:#000000;stroke-width:1.50388288;stroke-miterlimit:4;stroke-dasharray:none"
           d="m 298.59621,482.35889 a 9.5678349,9.5678349 0 0 1 6.78984,-6.85498"
           id="path4504"
           inkscape:connector-curvature="0" />
        <path
           style="fill:none;stroke:#000000;stroke-width:1.50388288;stroke-miterlimit:4;stroke-dasharray:none"
           d="m 317.11443,487.18042 a 9.5678349,9.5678349 0 0 1 -9.25295,7.13339 9.5678349,9.5678349 0 0 1 -9.25338,-7.13506"
           id="path4519"
           inkscape:connector-curvature="0" />
        <path
           style="fill:none;stroke:#000000;stroke-width:1.50388288;stroke-miterlimit:4;stroke-dasharray:none"
           d="m 310.1997,475.46825 a 9.5678349,9.5678349 0 0 1 6.9273,6.8916"
           id="path4495"
           inkscape:connector-curvature="0" />
      </g>
      <rect
         y="484.02478"
         x="294.04968"
         height="1.4424807"
         width="7.5730243"
         id="rect3474"
         style="fill:#000000" />
      <rect
         y="484.02478"
         x="314.02805"
         height="1.4424807"
         width="7.5730243"
         id="rect3474-1"
         style="fill:#000000" />
      <path
         inkscape:connector-curvature="0"
         id="path4369"
         d="m 301.19269,488.59753 0,-7.64525 1.02091,-0.99771 0.8933,1.00931 -0.0116,0.63807 -0.98611,-0.46405 0,0.9165 0.98611,0.29003 -0.0232,0.67288 -0.9745,-0.30164 0.0116,1.02092 0.9513,0 0.0116,0.59166 -0.9861,0 0,0.9165 0.99771,0 0,0.58007 -0.98611,0 0,1.02091 0.9513,-0.22042 0,0.58006 -0.98541,0.26404 0,0.9773 1.00861,-0.39444 0,0.55686 -0.87009,0.9165 z"
         style="fill:#000000;fill-rule:evenodd;stroke:#000000;stroke-width:0;stroke-linecap:butt;stroke-linejoin:miter;stroke-miterlimit:4;stroke-dasharray:none;stroke-opacity:1" />
      <g
         style="fill:#000000"
         id="g4521">
        <circle
           style="fill:#000000;stroke:#0000ff;stroke-width:0;stroke-miterlimit:4;stroke-dasharray:none"
           id="path4371"
           cx="307.79706"
           cy="486.3367"
           r="0.55549467" />
        <path
           style="fill:#000000;fill-rule:evenodd;stroke:#000000;stroke-width:0;stroke-linecap:butt;stroke-linejoin:miter;stroke-miterlimit:4;stroke-dasharray:none;stroke-opacity:1"
           d="m 307.32399,488.21517 0.88329,0 -0.27087,-1.52712 -0.27088,0 z"
           id="path4373"
           inkscape:connector-curvature="0" />
      </g>
      <g
         style="stroke:#000000"
         id="g3440">
        <g
           style="stroke:#000000"
           id="g4525">
          <path
             inkscape:connector-curvature="0"
             id="path4382"
             d="m 311.08856,486.82705 0,0 a 3.3224318,3.3224318 0 0 1 -3.32242,3.32243 3.3224318,3.3224318 0 0 1 -3.32243,-3.32243"
             style="fill:none;stroke:#000000;stroke-width:0.60000002;stroke-miterlimit:4;stroke-dasharray:none" />
          <path
             inkscape:connector-curvature="0"
             id="path4403"
             d="m 304.44731,486.85322 0,-2.9733 6.63319,0 0,2.9733"
             style="fill:none;fill-rule:evenodd;stroke:#000000;stroke-width:0.59978217;stroke-linecap:butt;stroke-linejoin:miter;stroke-miterlimit:4;stroke-dasharray:none;stroke-opacity:1" />
        </g>
        <path
           inkscape:connector-curvature="0"
           style="fill:none;stroke:#000000;stroke-width:0.60000002;stroke-miterlimit:4;stroke-dasharray:none"
           d="m 310.36739,481.59767 0,0 a 2.5750576,2.5750576 0 0 0 -2.57505,-2.57506 2.5750576,2.5750576 0 0 0 -2.57506,2.57506"
           id="path4382-2" />
        <path
           inkscape:connector-curvature="0"
           style="fill:none;stroke:#000000;stroke-width:0.60000002;stroke-miterlimit:4;stroke-dasharray:none"
           d="m 308.9265,481.58696 0,0 a 1.1183398,1.1183398 0 0 0 -1.11833,-1.11833 1.1183398,1.1183398 0 0 0 -1.11835,1.11833"
           id="path4382-6" />
        <path
           style="fill:none;fill-rule:evenodd;stroke:#000000;stroke-width:0.60000002;stroke-linecap:butt;stroke-linejoin:miter;stroke-miterlimit:4;stroke-dasharray:none;stroke-opacity:1"
           d="m 305.21887,483.8044 0,-2.34933"
           id="path4430"
           inkscape:connector-curvature="0" />
        <path
           style="fill:none;fill-rule:evenodd;stroke:#000000;stroke-width:0.60000002;stroke-linecap:butt;stroke-linejoin:miter;stroke-miterlimit:4;stroke-dasharray:none;stroke-opacity:1"
           d="m 310.36951,483.94396 0,-2.34933"
           id="path4430-1"
           inkscape:connector-curvature="0" />
        <path
           style="fill:none;fill-rule:evenodd;stroke:#000000;stroke-width:0.60199195;stroke-linecap:butt;stroke-linejoin:miter;stroke-miterlimit:4;stroke-dasharray:none;stroke-opacity:1"
           d="m 308.92427,483.94172 0,-2.36495"
           id="path4430-8"
           inkscape:connector-curvature="0" />
        <path
           style="fill:none;fill-rule:evenodd;stroke:#000000;stroke-width:0.60000002;stroke-linecap:butt;stroke-linejoin:miter;stroke-miterlimit:4;stroke-dasharray:none;stroke-opacity:1"
           d="m 306.69038,483.88242 0,-2.34933"
           id="path4430-7"
           inkscape:connector-curvature="0" />
      </g>
      <path
         inkscape:connector-curvature="0"
         id="path4369-9"
         d="m 314.41631,488.57107 0,-7.64525 -1.02091,-0.99771 -0.8933,1.00931 0.0116,0.63807 0.98611,-0.46405 0,0.9165 -0.98611,0.29003 0.0232,0.67288 0.9745,-0.30164 -0.0116,1.02092 -0.9513,0 -0.0116,0.59166 0.9861,0 0,0.9165 -0.99771,0 0,0.58007 0.98611,0 0,1.02091 -0.9513,-0.22042 0,0.58006 0.98541,0.26404 0,0.9773 -1.00861,-0.39444 0,0.55686 0.87009,0.9165 z"
         style="fill:#000000;fill-rule:evenodd;stroke:#000000;stroke-width:0;stroke-linecap:butt;stroke-linejoin:miter;stroke-miterlimit:4;stroke-dasharray:none;stroke-opacity:1" />
    </g>
  </g>
</svg>
