<?xml version="1.0" encoding="UTF-8"?>
<!DOCTYPE svg PUBLIC "-//W3C//DTD SVG 1.1//EN" "http://www.w3.org/Graphics/SVG/1.1/DTD/svg11.dtd">
<!-- Creator: CorelDRAW X5 -->
<svg xmlns="http://www.w3.org/2000/svg" xml:space="preserve" width="42px" height="28px" style="shape-rendering:geometricPrecision; text-rendering:geometricPrecision; image-rendering:optimizeQuality; fill-rule:evenodd; clip-rule:evenodd"
viewBox="0 0 42000 28000"
 xmlns:xlink="http://www.w3.org/1999/xlink">
 <defs>
  <style type="text/css">
   <![CDATA[
    .fil0 {fill:black}
    .fil1 {fill:black;fill-rule:nonzero}
   ]]>
  </style>
 </defs>
 <g id="Слой_x0020_1">
  <metadata id="CorelCorpID_0Corel-Layer"/>
  <g id="_314538632">
   <path class="fil0" d="M9813 17264l0 917 17333 -7c3428,30 5705,-2292 5649,-5605l25 -9358 -23007 14053zm21048 -10521l-8 5777c0,2424 -1632,3778 -3780,3777l-12094 22 15883 -9576z"/>
   <polygon class="fil1" points="3894,25019 3894,18418 2782,18418 2782,25020 959,22502 492,22772 26,23043 2872,26973 3338,27617 3805,26973 6648,23043 5715,22502 "/>
   <polygon class="fil1" points="3894,10719 3894,17320 2782,17320 2782,10718 959,13236 492,12965 26,12695 2872,8765 3338,8121 3805,8765 6648,12695 5715,13236 "/>
  </g>
 </g>
</svg>
