<?xml version="1.0" encoding="UTF-8"?>
<!DOCTYPE svg PUBLIC "-//W3C//DTD SVG 1.1//EN" "http://www.w3.org/Graphics/SVG/1.1/DTD/svg11.dtd">
<!-- Creator: CorelDRAW X5 -->
<svg xmlns="http://www.w3.org/2000/svg" xml:space="preserve" width="12mm" height="8mm" style="shape-rendering:geometricPrecision; text-rendering:geometricPrecision; image-rendering:optimizeQuality; fill-rule:evenodd; clip-rule:evenodd"
viewBox="0 0 120000 80000"
 xmlns:xlink="http://www.w3.org/1999/xlink">
 <defs>
  <style type="text/css">
   <![CDATA[
    .str0 {stroke:black;stroke-width:762}
    .fil0 {fill:black}
   ]]>
  </style>
 </defs>
 <g id="Слой_x0020_1">
  <metadata id="CorelCorpID_0Corel-Layer"/>
  <g id="_342815616">
   <path class="fil0" d="M71424 27845l0 0c-2155,-6 -4160,-600 -5651,-1927 -510,-454 -956,-989 -1324,-1610 -360,-611 -646,-1304 -840,-2083 -188,-750 -292,-1595 -297,-2538 -26,-4100 1841,-7099 3668,-10035 393,-632 785,-1261 1152,-1896l2 1 114 -201c1154,-2023 2234,-4522 3176,-6662l19 0 20 0c941,2140 2021,4639 3174,6662l115 201 2 -1c368,635 759,1264 1152,1896 1827,2936 3695,5935 3669,10035 -6,943 -110,1788 -298,2538 -194,779 -480,1472 -841,2083 -367,621 -813,1156 -1323,1610 -1491,1327 -3496,1921 -5650,1927l-1 0 -38 0zm0 -2472l1 0 36 0 1 0c1584,-5 3036,-423 4080,-1352 342,-304 643,-667 895,-1092 257,-435 463,-939 607,-1513 150,-602 233,-1269 238,-2003 21,-3391 -1620,-6028 -3226,-8609 -384,-616 -766,-1229 -1125,-1850l0 -3 -110 -194c-560,-981 -980,-2008 -1378,-3042 -398,1034 -817,2061 -1377,3042l-111 194 0 3c-359,621 -741,1234 -1125,1850 -1606,2581 -3247,5218 -3226,8609 5,734 88,1401 238,2003 144,574 350,1078 607,1513 252,425 553,788 895,1092 1044,929 2496,1347 4080,1352z"/>
   <path class="fil0" d="M82610 63177l0 -55733c0,-1436 1231,-2611 2738,-2611l2347 0c1505,0 2737,1175 2737,2611l0 55733c2856,1370 4818,4188 4818,7444 0,4598 -3908,8327 -8729,8327 -4820,0 -8729,-3729 -8729,-8327 0,-3257 1961,-6074 4818,-7444zm1467 -23708l0 -31221c0,-1204 409,-1898 1566,-1898l1803 0c1156,0 1408,694 1408,1895l0 31221 -4777 3z"/>
   <path class="fil0 str0" d="M34124 28260c-5151,-5139 -5146,-13490 0,-18636 5146,-5146 13531,-5140 18673,12 5141,5151 5042,13565 -37,18624 -5078,5060 -13485,5140 -18636,0zm-1263 5577l-4314 -4314 3671 -3672c1114,1817 2632,3303 4315,4316l-3672 3670zm25563 -4354l-4314 4314 -3688 -3688c1766,-1102 3200,-2518 4308,-4320l3694 3694zm-29819 -21180l4314 -4314 3685 3685c-1823,1118 -3259,2556 -4341,4287l-3658 -3658zm25450 -4266l4314 4314 -3685 3680c-1112,-1742 -2509,-3267 -4317,-4306l3688 -3688zm-13671 -3143l6101 0 9 5229c-2122,-494 -4083,-517 -6081,-8l-29 -5221zm6108 36100l-6101 0 0 -5223c2092,452 4117,367 6101,-7l0 5230zm15015 -21093l0 6101 -5254 -9c419,-1972 534,-4018 13,-6092l5241 0zm-36108 6077l0 -6100 5224 0c-467,2100 -553,4135 0,6101l-5224 -1zm11454 3557c-3584,-3636 -3843,-9549 1,-13190 3843,-3640 9683,-3599 13189,0 3507,3599 3893,9567 0,13190 -3892,3623 -9606,3635 -13190,0z"/>
   <path class="fil0 str0" d="M34124 70459c-5151,-5139 -5146,-13489 0,-18636 5146,-5146 13531,-5139 18672,12 5142,5151 5043,13565 -36,18624 -5078,5060 -13485,5140 -18636,0zm-1263 5577l-4314 -4314 3671 -3671c1114,1816 2632,3302 4315,4315l-3672 3670zm25563 -4354l-4314 4314 -3688 -3688c1766,-1102 3200,-2517 4308,-4320l3694 3694zm-29819 -21180l4314 -4314 3685 3685c-1823,1118 -3259,2557 -4341,4287l-3658 -3658zm25449 -4266l4315 4314 -3685 3680c-1112,-1742 -2509,-3267 -4317,-4306l3687 -3688zm-13670 -3143l6101 1 9 5228c-2122,-494 -4083,-516 -6082,-8l-28 -5221zm6108 36101l-6101 0 0 -5224c2092,452 4117,367 6101,-7l0 5231zm15015 -21093l0 6101 -5254 -10c419,-1972 534,-4018 13,-6091l5241 0zm-36108 6077l0 -6101 5224 0c-467,2101 -553,4135 0,6101l-5224 0zm11454 3556c-3584,-3635 -3843,-9549 0,-13189 3844,-3641 9684,-3599 13190,-1 3506,3599 3893,9567 0,13190 -3892,3624 -9606,3635 -13190,0z"/>
  </g>
 </g>
</svg>
