<?xml version="1.0" encoding="UTF-8"?>
<!DOCTYPE svg PUBLIC "-//W3C//DTD SVG 1.1//EN" "http://www.w3.org/Graphics/SVG/1.1/DTD/svg11.dtd">
<!-- Creator: CorelDRAW X5 -->
<svg xmlns="http://www.w3.org/2000/svg" xml:space="preserve" width="12mm" height="8mm" style="shape-rendering:geometricPrecision; text-rendering:geometricPrecision; image-rendering:optimizeQuality; fill-rule:evenodd; clip-rule:evenodd"
viewBox="0 0 120000 80000"
 xmlns:xlink="http://www.w3.org/1999/xlink">
 <defs>
  <style type="text/css">
   <![CDATA[
    .fil1 {fill:black}
    .fil0 {fill:#2B2A29;fill-rule:nonzero}
   ]]>
  </style>
 </defs>
 <g id="Слой_x0020_1">
  <metadata id="CorelCorpID_0Corel-Layer"/>
  <g id="_435188824">
   <path class="fil0" d="M26516 79610l0 -15371 2342 0 0 2184c1131,-1690 2761,-2535 4891,-2535 929,0 1779,168 2554,499 781,336 1359,771 1744,1315 391,538 658,1180 816,1922 94,484 143,1329 143,2534l0 9452 -2609 0 0 -9353c0,-1057 -99,-1853 -301,-2381 -203,-524 -563,-944 -1077,-1255 -519,-317 -1122,-475 -1818,-475 -1112,0 -2066,356 -2876,1058 -805,706 -1206,2040 -1206,4012l0 8394 -2603 0z"/>
   <polygon id="1" class="fil0" points="41047,79971 47198,58028 49283,58028 43147,79971 "/>
   <path id="12" class="fil0" d="M51240 79610l0 -15371 2327 0 0 2154c484,-751 1126,-1358 1927,-1813 800,-460 1714,-692 2737,-692 1136,0 2070,237 2796,712 732,474 1245,1131 1542,1981 1220,-1794 2801,-2693 4748,-2693 1527,0 2698,425 3518,1270 820,845 1230,2144 1230,3898l0 10554 -2589 0 0 -9684c0,-1043 -84,-1794 -252,-2253 -173,-455 -479,-825 -919,-1107 -444,-276 -968,-420 -1566,-420 -1082,0 -1976,361 -2693,1082 -711,717 -1072,1868 -1072,3449l0 8933 -2604 0 0 -9985c0,-1162 -212,-2031 -637,-2609 -425,-578 -1117,-870 -2085,-870 -731,0 -1408,193 -2031,583 -622,386 -1077,949 -1354,1690 -281,746 -420,1818 -420,3216l0 7975 -2603 0z"/>
   <path id="123" class="fil0" d="M75943 61388l0 -2999 2609 0 0 2999 -2609 0zm0 18222l0 -15371 2609 0 0 15371 -2609 0z"/>
   <path id="1234" class="fil0" d="M82520 79610l0 -15371 2342 0 0 2184c1131,-1690 2761,-2535 4891,-2535 929,0 1779,168 2554,499 781,336 1359,771 1744,1315 391,538 658,1180 816,1922 94,484 143,1329 143,2534l0 9452 -2609 0 0 -9353c0,-1057 -99,-1853 -301,-2381 -203,-524 -563,-944 -1077,-1255 -519,-317 -1122,-475 -1818,-475 -1112,0 -2066,356 -2876,1058 -805,706 -1206,2040 -1206,4012l0 8394 -2603 0z"/>
   <path class="fil1" d="M17511 51844l1 3352 63362 -26c12528,108 20854,-8377 20647,-20489l91 -34205 -84101 51368zm76940 -38459l-31 21117c1,8861 -5967,13809 -13816,13807l-44210 79 58057 -35003z"/>
  </g>
 </g>
 <g id="Направляющие">
  <metadata id="CorelCorpID_1Corel-Layer"/>
 </g>
</svg>
