<?xml version="1.0" encoding="UTF-8"?>
<!DOCTYPE svg PUBLIC "-//W3C//DTD SVG 1.1//EN" "http://www.w3.org/Graphics/SVG/1.1/DTD/svg11.dtd">
<!-- Creator: CorelDRAW X5 -->
<svg xmlns="http://www.w3.org/2000/svg" xml:space="preserve" width="12mm" height="8mm" style="shape-rendering:geometricPrecision; text-rendering:geometricPrecision; image-rendering:optimizeQuality; fill-rule:evenodd; clip-rule:evenodd"
viewBox="0 0 120000 80000"
 xmlns:xlink="http://www.w3.org/1999/xlink">
 <defs>
  <style type="text/css">
   <![CDATA[
    .fil1 {fill:black}
    .fil0 {fill:black;fill-rule:nonzero}
   ]]>
  </style>
 </defs>
 <g id="Слой_x0020_1">
  <metadata id="CorelCorpID_0Corel-Layer"/>
  <g id="_324466352">
   <g>
    <path class="fil0" d="M20429 32279l22825 0 480 0 0 480 0 11302 0 479 -480 0 -22826 0 -478 0 0 -479 0 -11302 1 -480 478 0zm16130 959l0 10344 6215 0 0 -10344 -6215 0zm-960 10344l0 -10344 -6798 0 0 10344 6798 0zm-7758 0l0 -10344 -6934 0 0 10344 6934 0z"/>
    <path class="fil0" d="M34570 42548l-4647 0 0 -1054c333,-317 649,-620 946,-910 297,-289 587,-589 870,-902 572,-629 963,-1134 1171,-1511 209,-379 314,-770 314,-1173 0,-210 -32,-392 -98,-551 -66,-158 -155,-289 -271,-393 -117,-101 -254,-177 -409,-227 -155,-50 -326,-76 -511,-76 -177,0 -359,23 -543,69 -183,45 -359,102 -528,169 -142,57 -278,126 -409,207 -131,81 -238,150 -320,206l-55 0 0 -1069c209,-105 501,-207 872,-307 372,-98 726,-148 1059,-148 701,0 1251,186 1648,558 399,372 597,875 597,1511 0,292 -34,563 -103,813 -69,248 -164,478 -287,690 -124,219 -274,436 -448,651 -176,216 -361,427 -558,636 -316,343 -669,699 -1059,1070 -388,370 -699,663 -932,878l3701 0 0 863z"/>
    <path class="fil0" d="M39498 35815c-177,0 -355,21 -534,64 -178,44 -354,99 -524,168 -159,66 -298,136 -415,208 -116,73 -221,140 -314,202l-59 0 0 -1043c214,-116 505,-221 874,-313 368,-95 718,-142 1053,-142 333,0 624,34 875,101 248,68 473,172 674,314 218,159 382,349 494,574 110,224 166,486 166,786 0,406 -134,762 -401,1069 -267,305 -588,501 -961,582l0 69c154,31 320,81 498,154 176,73 341,180 492,322 152,142 275,324 372,545 96,223 144,495 144,814 0,334 -58,640 -171,918 -114,279 -276,525 -484,739 -215,225 -473,394 -778,508 -302,117 -647,174 -1035,174 -368,0 -735,-44 -1099,-133 -363,-90 -669,-196 -916,-323l0 -1043 69 0c208,152 487,298 837,436 350,138 700,208 1050,208 201,0 404,-33 607,-97 203,-64 372,-168 508,-314 131,-145 231,-305 300,-479 70,-175 105,-397 105,-663 0,-267 -38,-486 -116,-658 -78,-171 -186,-306 -325,-406 -137,-98 -303,-167 -492,-204 -189,-39 -394,-57 -616,-57l-421 0 0 -821 327 0c446,0 808,-106 1087,-317 279,-211 418,-516 418,-920 0,-184 -36,-342 -109,-476 -72,-133 -165,-239 -277,-319 -127,-86 -265,-145 -416,-179 -152,-32 -314,-48 -487,-48z"/>
    <path class="fil0" d="M26383 42548l-3670 0 0 -767 1364 0 0 -5038 -1364 0 0 -685c515,0 895,-72 1140,-219 243,-146 381,-423 413,-830l783 0 0 6772 1334 0 0 767z"/>
   </g>
   <path class="fil1" d="M40449 29589l0 2731 -1993 0 -14906 0 -1407 0 0 -2731 1019 0 0 -24659 0 -1 5 0c0,-809 328,-1540 854,-2067l4 0c527,-526 1256,-853 2061,-854l0 -4 2 0 9831 0 1 0 0 4c809,1 1540,328 2067,855l0 4c525,526 852,1255 853,2060l5 0 0 3 0 7863 1036 0 0 4c68,0 129,0 180,2 1012,34 1752,413 2260,1013 481,568 712,1304 745,2106 1,33 2,87 2,160l5 5 0 9788c0,646 443,1073 1013,1268 319,109 672,155 1023,137 346,-18 685,-97 978,-239 542,-262 927,-784 843,-1574 -567,-5295 -1282,-10589 -1356,-15883 -928,-2222 -2799,-4081 -5041,-5798l-1 -1558c3854,1192 7265,4334 9098,8458l-1720 1689c21,4210 762,8572 1218,12858 202,1892 -747,3154 -2080,3799 -562,271 -1193,423 -1826,455 -629,33 -1266,-51 -1846,-249 -1418,-486 -2519,-1610 -2519,-3363l0 -9788 4 0 -3 -79c-13,-325 -83,-596 -225,-764 -115,-136 -321,-223 -641,-234 -41,-1 -75,-2 -102,-1l-9 4 -1036 0 0 14580 1604 0zm-15071 0l11251 0 0 -14531 -11251 0 0 14531zm0 -16845l11251 0 0 -7814 0 -3 4 0c0,-191 -81,-369 -211,-500l-2 2c-132,-131 -309,-214 -500,-214l0 5 -1 0 -9831 0 -2 0 0 -5c-192,1 -369,82 -500,212l2 2c-132,131 -214,309 -214,500l4 0 0 1 0 7814z"/>
   <g>
    <path class="fil0" d="M58845 66942l2244 -10 -10 -1595 -5087 -64 -696 -8 -176 -670 -4799 -18304 -299 -1138 1179 0 32268 0 909 0 0 911 0 7260 12314 0 652 0 209 622 2205 6520 232 684 -622 379 -8217 4997 0 2212c52,34 105,70 156,107 205,145 405,310 589,488 947,909 1537,2185 1537,3597l0 1 -4 0c0,1379 -560,2627 -1466,3530 -903,901 -2151,1459 -3531,1459l0 5 -4 0 -2 0 0 -5c-1382,0 -2632,-559 -3537,-1463 -903,-901 -1460,-2146 -1461,-3522l-4 0 0 -5 0 -5 4 0c0,-720 153,-1402 422,-2013 36,-79 84,-179 145,-296 136,-257 292,-501 468,-728l-831 -1155 -5866 0 0 1862c2,70 3,143 3,214l0 1 -3 0c0,2008 -817,3827 -2136,5141 -1314,1314 -3134,2125 -5144,2127l0 4 -3 0 -3 0 0 -4c-968,-1 -1890,-187 -2729,-526 -264,-107 -531,-236 -799,-383 -1145,-635 -2104,-1573 -2763,-2706l-5321 0 0 391 0 2 0 1 0 11 -1 0c-5,1489 -1222,2700 -2719,2700l-9 0 0 0 -10750 0 0 -702 13456 -9924zm1239 5709l4649 0 572 0 246 515c491,1022 1295,1869 2285,2416 183,102 383,198 598,285 636,256 1328,399 2046,399l0 -5 3 0 3 0 0 5c1507,0 2872,-614 3862,-1601 990,-986 1601,-2349 1601,-3855l-3 0 0 -1 0 -3894 169 0 1651 0 6334 0 466 0 275 379 1528 2126 464 646 -581 547c-262,243 -481,528 -645,840 -21,43 -53,105 -90,191 -175,394 -273,830 -273,1281l3 0 0 5 0 5 -3 0c0,874 358,1666 934,2243 577,574 1371,930 2248,931l0 -4 2 0 4 0 0 4c877,-2 1673,-358 2248,-934 576,-575 932,-1366 932,-2244l-2 0 0 -1c0,-901 -375,-1713 -974,-2290 -116,-110 -242,-214 -376,-308 -134,-96 -275,-179 -421,-251l-4 -4 -4 -1 -506 -254 0 -558 0 -3247 0 -507 440 -267 8038 -4887 -1763 -5213 -12571 0 -908 0 0 -908 0 -7263 -30183 0 4328 16497 5288 65 893 8 4 893 18 3396 6 907 -3576 -4 -9011 6824 5656 0c987,1 1386,-488 1382,-1454l-4 -1451 2722 0 0 -2z"/>
    <ellipse class="fil1" cx="69056" cy="66474" rx="4834" ry="4824"/>
    <path class="fil0" d="M62577 57771c4802,-2576 10021,-2634 14588,926l1246 -1564c-5423,-4351 -11402,-3878 -17082,-890l2557 -5638 -911 -412 -911 -412 -3883 8559 -637 1403 1543 8 9411 47 10 -1997 -5931 -30z"/>
    <path class="fil1" d="M78163 67232c835,-3690 3815,-5154 5723,-6630 1466,-1195 2378,-2014 3876,208 131,195 507,168 610,37 1020,-2025 1974,-2318 3009,-1226 184,194 464,391 742,383 2357,53 2393,-2508 4439,-544 413,299 1412,1222 1826,1520 -2826,1887 -5827,3599 -8653,5486 -410,58 -4348,-103 -5635,449 -1817,-153 -4121,470 -5937,317z"/>
   </g>
   <polygon class="fil0" points="29003,65097 70535,14990 73532,14987 32455,65097 "/>
  </g>
 </g>
 <g id="Направляющие">
  <metadata id="CorelCorpID_1Corel-Layer"/>
 </g>
</svg>
