<?xml version="1.0" encoding="UTF-8"?>
<!DOCTYPE svg PUBLIC "-//W3C//DTD SVG 1.1//EN" "http://www.w3.org/Graphics/SVG/1.1/DTD/svg11.dtd">
<!-- Creator: CorelDRAW X5 -->
<svg xmlns="http://www.w3.org/2000/svg" xml:space="preserve" width="12mm" height="8mm" style="shape-rendering:geometricPrecision; text-rendering:geometricPrecision; image-rendering:optimizeQuality; fill-rule:evenodd; clip-rule:evenodd"
viewBox="0 0 120000 80000"
 xmlns:xlink="http://www.w3.org/1999/xlink">
 <defs>
  <style type="text/css">
   <![CDATA[
    .fil0 {fill:none}
    .fil1 {fill:none;fill-rule:nonzero}
    .fil2 {fill:black}
    .fil3 {fill:black;fill-rule:nonzero}
   ]]>
  </style>
 </defs>
 <g id="Слой_x0020_1">
  <metadata id="CorelCorpID_0Corel-Layer"/>
  <g id="_271533576">
   <path class="fil0" d="M57057 68415l-11875 0 11875 -11876 0 11876zm-24728 0l-12851 0 37579 -37580 0 12852 -24728 24728zm-25703 0l-6630 0 0 -6223 50838 -50838 6223 0 0 6629 -50431 50432zm-6630 -19075l0 -12852 25134 -25134 12852 0 -37986 37986zm0 -25704l0 -12282 12282 0 -12282 12282z"/>
   <polygon class="fil1" points="59862,67030 76478,11190 81931,12815 65316,68655 "/>
   <path class="fil0" d="M85964 11190l33891 0 0 57225 -33891 0 0 -57225zm3306 54194c1023,-11327 4867,-18964 10352,-24457l0 -1513c-5485,-5494 -9329,-13132 -10352,-24459l13639 131 13639 -131c-1022,11326 -4867,18963 -10351,24456l0 1519c5484,5493 9329,13128 10351,24454l-13639 -131 -13639 131z"/>
  </g>
  <g id="_271550096">
   <polygon class="fil1" points="49243,66801 65742,11354 71157,12968 54658,68415 "/>
   <path class="fil0" d="M74939 11354l33652 0 0 56822 -33652 0 0 -56822zm3283 53813c1015,-11247 4832,-18830 10278,-24285l0 -1503c-5446,-5454 -9263,-13039 -10278,-24286l13543 130 13543 -130c-1015,11246 -4834,18829 -10279,24284l0 1508c5445,5454 9264,13036 10279,24282l-13543 -130 -13543 130z"/>
   <path class="fil0" d="M34306 63057l0 5119 -3735 0 -27939 0 -2636 0 0 -5119 1909 0 0 -46219 0 -2 8 0c1,-1516 615,-2887 1602,-3874l8 0c987,-985 2354,-1598 3862,-1600l0 -8 4 0 18426 0 2 0 0 8c1516,1 2887,615 3874,1602l0 8c985,986 1598,2353 1600,3861l8 0 0 5 0 14738 1943 0 0 8c126,-1 241,0 338,3 1897,65 3282,775 4234,1899 902,1065 1336,2444 1396,3947 3,63 5,164 6,301l8 8 0 18347c0,1210 830,2010 1898,2376 599,204 1261,291 1919,257 649,-34 1283,-183 1832,-448 1017,-491 1738,-1470 1580,-2951 -1063,-9923 -2403,-19846 -2540,-29769 -1740,-4164 -5247,-7649 -9449,-10866l-3 -2922c7223,2234 13618,8123 17054,15854l-3224 3166c39,7891 1427,16066 2283,24099 378,3547 -1400,5913 -3900,7120 -1053,509 -2236,793 -3422,854 -1178,61 -2373,-96 -3460,-468 -2657,-909 -4722,-3016 -4722,-6302l0 -18347 8 0 -5 -147c-24,-610 -156,-1118 -422,-1432 -216,-255 -602,-418 -1201,-439 -77,-2 -141,-3 -192,-3l-16 8 -1943 0 0 27328 3007 0zm-28247 0l21087 0 0 -27235 -21087 0 0 27235zm0 -31573l21087 0 0 -14646 0 -5 8 0c0,-359 -152,-691 -396,-937l-4 4c-246,-247 -579,-401 -937,-401l0 8 -2 0 -18426 0 -4 0 0 -8c-359,0 -692,152 -937,396l4 4c-247,246 -401,579 -401,937l8 0 0 2 0 14646z"/>
  </g>
  <g id="_271539120">
   <path class="fil2" d="M120109 65497l-10761 0 10761 -10760 0 10760zm-22406 0l-11646 0 34052 -34051 0 11645 -22406 22406zm-23292 0l-6007 0 0 -5638 46066 -46067 5639 0 0 6008 -45698 45697zm-6007 -17284l0 -11645 22775 -22776 11646 0 -34421 34421zm0 -23291l0 -11130 11129 0 -11129 11130z"/>
   <polygon class="fil3" points="45054,64642 60133,13965 65083,15440 50003,66117 "/>
   <path class="fil2" d="M31179 60795l0 4637 -3382 0 -25306 0 -2388 0 0 -4637 1730 0 0 -41863 0 -2 7 0c1,-1373 557,-2615 1451,-3509l7 0c894,-893 2132,-1448 3498,-1449l0 -8 4 0 16689 0 2 0 0 8c1373,1 2614,557 3508,1451l0 7c893,894 1448,2131 1450,3498l7 0 0 4 0 13349 1760 0 0 7c114,-1 218,0 306,3 1718,59 2973,702 3835,1720 817,964 1210,2213 1265,3575 2,57 4,149 5,272l7 8 0 16618c0,1095 752,1821 1720,2152 541,185 1142,263 1737,232 588,-30 1162,-165 1660,-406 921,-444 1574,-1330 1431,-2672 -963,-8988 -2177,-17976 -2301,-26963 -1575,-3773 -4752,-6929 -8558,-9843l-3 -2646c6543,2023 12335,7357 15447,14360l-2920 2867c35,7148 1293,14552 2067,21828 343,3213 -1267,5355 -3532,6449 -954,461 -2025,718 -3100,774 -1066,55 -2149,-88 -3133,-424 -2407,-824 -4277,-2732 -4277,-5708l0 -16618 7 0 -4 -134c-22,-552 -142,-1012 -383,-1297 -195,-230 -546,-378 -1088,-397 -69,-2 -127,-3 -174,-2l-14 7 -1760 0 0 24752 2723 0zm-25585 0l19100 0 0 -24668 -19100 0 0 24668zm0 -28597l19100 0 0 -13266 0 -4 8 0c-1,-326 -138,-627 -359,-849l-3 3c-224,-223 -525,-363 -849,-363l0 7 -2 0 -16689 0 -4 0 0 -7c-325,0 -627,138 -849,358l3 4c-223,223 -363,525 -363,849l7 0 0 2 0 13266z"/>
  </g>
 </g>
 <g id="Направляющие">
  <metadata id="CorelCorpID_1Corel-Layer"/>
 </g>
</svg>
