<?xml version="1.0" encoding="UTF-8"?>
<!DOCTYPE svg PUBLIC "-//W3C//DTD SVG 1.1//EN" "http://www.w3.org/Graphics/SVG/1.1/DTD/svg11.dtd">
<!-- Creator: CorelDRAW X5 -->
<svg xmlns="http://www.w3.org/2000/svg" xml:space="preserve" width="12mm" height="8mm" style="shape-rendering:geometricPrecision; text-rendering:geometricPrecision; image-rendering:optimizeQuality; fill-rule:evenodd; clip-rule:evenodd"
viewBox="0 0 120000 80000"
 xmlns:xlink="http://www.w3.org/1999/xlink">
 <defs>
  <style type="text/css">
   <![CDATA[
    .str0 {stroke:#2B2A29;stroke-width:762}
    .fil0 {fill:black}
   ]]>
  </style>
 </defs>
 <g id="Слой_x0020_1">
  <metadata id="CorelCorpID_0Corel-Layer"/>
  <path class="fil0" d="M51738 70765l-15858 0 -2858 0 0 -5549 2070 0 0 -50097 0 -2 8 0c1,-1643 667,-3129 1737,-4198l8 0c1070,-1069 2551,-1733 4186,-1735l0 -9 5 0 19972 0 2 0 0 9c1643,1 3129,666 4198,1736l0 9c1069,1069 1733,2550 1735,4185l9 0 0 5 0 15975 2105 0 0 9c138,-1 262,0 367,3 2056,70 3558,840 4590,2058 609,720 1021,1572 1261,2506l-5386 0c-174,-44 -376,-72 -606,-80 -83,-2 -152,-3 -208,-3l-18 9 -2105 0 0 74 -15214 0 0 26 -12145 0 0 29520 12145 0 0 5549zm29248 -10471c236,-71 463,-158 679,-262 1102,-532 1884,-1593 1713,-3198 -1153,-10756 -2605,-21512 -2754,-32267 -1886,-4514 -5687,-8291 -10242,-11778l-3 -3167c7830,2421 14761,8805 18485,17184l-3494 3432c42,8553 1547,17414 2474,26121 410,3844 -1517,6409 -4227,7717 -821,397 -1715,668 -2631,813l0 -4595zm-41393 -29299l22857 0 0 -15876 0 -5 9 0c0,-389 -165,-750 -429,-1015l-4 4c-268,-268 -629,-435 -1016,-435l0 9 -2 0 -19972 0 -5 0 0 -9c-389,0 -749,165 -1016,429l4 4c-267,268 -434,628 -434,1016l8 0 0 2 0 15876z"/>
  <path class="fil0 str0" d="M57214 41115l17593 0 0 29650 -17593 0 0 -29650zm1587 1786l14472 0 0 26105 -14472 0 0 -26105zm14472 26105c-719,-6176 -2594,-9999 -5711,-12660l0 -784c3132,-2704 5191,-6774 5711,-12661l-1655 0c307,6061 -2640,10037 -5283,12661l0 784c3302,3477 5559,7087 5290,12660l1648 0zm-14472 0c647,-6178 2570,-10000 5712,-12660l0 -784c-3108,-2709 -5188,-6765 -5712,-12661l1655 0c-277,6173 2700,10116 5283,12661l0 784c-3283,3442 -5545,7035 -5290,12660l-1648 0z"/>
 </g>
</svg>
