<?xml version="1.0" encoding="UTF-8"?>
<!DOCTYPE svg PUBLIC "-//W3C//DTD SVG 1.1//EN" "http://www.w3.org/Graphics/SVG/1.1/DTD/svg11.dtd">
<!-- Creator: CorelDRAW X5 -->
<svg xmlns="http://www.w3.org/2000/svg" xml:space="preserve" width="12mm" height="8mm" style="shape-rendering:geometricPrecision; text-rendering:geometricPrecision; image-rendering:optimizeQuality; fill-rule:evenodd; clip-rule:evenodd"
viewBox="0 0 120000 80000"
 xmlns:xlink="http://www.w3.org/1999/xlink">
 <defs>
  <style type="text/css">
   <![CDATA[
    .fil1 {fill:black}
    .fil0 {fill:black;fill-rule:nonzero}
   ]]>
  </style>
 </defs>
 <g id="Слой_x0020_1">
  <metadata id="CorelCorpID_0Corel-Layer"/>
  <g id="_395177048">
   <g>
    <path class="fil0" d="M20431 32237l22785 0 479 0 0 478 0 11283 0 479 -479 0 -22785 0 -478 0 0 -479 0 -11283 1 -478 477 0zm16102 957l0 10326 6204 0 0 -10326 -6204 0zm-959 10326l0 -10326 -6785 0 0 10326 6785 0zm-7744 0l0 -10326 -6922 0 0 10326 6922 0z"/>
    <path class="fil0" d="M34548 42487l-4639 0 0 -1052c332,-316 648,-619 944,-908 296,-288 585,-588 868,-901 572,-627 961,-1131 1170,-1507 208,-379 313,-769 313,-1171 0,-210 -33,-392 -98,-551 -66,-158 -155,-288 -271,-392 -117,-101 -253,-177 -408,-226 -155,-50 -325,-76 -510,-76 -177,0 -358,22 -542,69 -183,44 -359,101 -527,168 -142,57 -278,126 -409,207 -131,80 -237,149 -318,206l-55 0 0 -1068c208,-105 499,-206 869,-306 372,-98 726,-148 1058,-148 699,0 1249,186 1645,557 398,372 596,874 596,1508 0,292 -34,562 -103,812 -69,247 -164,478 -286,689 -124,218 -274,435 -448,650 -176,215 -360,426 -556,634 -316,343 -669,698 -1058,1068 -387,370 -698,662 -930,877l3695 0 0 861z"/>
    <path class="fil0" d="M39467 35766c-177,0 -355,22 -533,64 -178,44 -353,99 -524,168 -158,66 -297,135 -413,208 -117,72 -221,140 -314,202l-59 0 0 -1041c214,-117 504,-221 872,-314 368,-94 718,-141 1052,-141 332,0 623,33 873,101 248,67 472,172 673,313 218,159 382,349 493,573 110,224 166,485 166,785 0,405 -134,760 -401,1067 -266,305 -587,500 -958,581l0 69c153,30 319,81 496,153 176,73 341,181 491,322 152,142 275,324 372,544 96,223 143,494 143,813 0,333 -57,638 -170,916 -113,278 -276,524 -483,738 -215,224 -473,393 -777,507 -302,116 -646,174 -1033,174 -368,0 -734,-44 -1097,-133 -363,-90 -669,-196 -915,-322l0 -1041 69 0c208,151 486,296 836,434 349,138 699,207 1048,207 201,0 403,-31 606,-96 203,-64 371,-168 507,-313 131,-145 231,-305 300,-478 69,-176 105,-396 105,-663 0,-266 -39,-485 -117,-657 -77,-170 -185,-305 -324,-404 -137,-98 -302,-167 -491,-204 -189,-39 -393,-57 -615,-57l-420 0 0 -819 326 0c446,0 807,-106 1085,-317 279,-210 417,-515 417,-918 0,-184 -35,-342 -108,-475 -72,-133 -165,-239 -277,-319 -126,-86 -265,-145 -415,-178 -152,-32 -314,-49 -486,-49z"/>
    <path class="fil0" d="M26375 42487l-3664 0 0 -765 1362 0 0 -5029 -1362 0 0 -684c515,0 894,-72 1138,-218 243,-147 381,-423 412,-829l782 0 0 6760 1332 0 0 765z"/>
   </g>
   <path class="fil1" d="M40416 29551l0 2727 -1989 0 -14880 0 -1404 0 0 -2727 1017 0 0 -24616 0 -1 4 0c0,-807 327,-1537 853,-2063l4 0c526,-525 1254,-851 2057,-852l0 -5 2 0 9814 0 1 0 0 5c807,0 1537,327 2063,853l0 4c525,526 851,1253 852,2057l5 0 0 2 0 7850 1034 0 0 4c68,-1 129,0 180,2 1011,34 1748,412 2256,1011 480,567 711,1301 743,2102 1,34 2,88 3,160l4 4 0 9772c0,644 442,1071 1011,1266 319,108 672,154 1022,136 346,-18 683,-97 976,-238 542,-262 926,-783 842,-1572 -567,-5285 -1280,-10570 -1353,-15855 -927,-2218 -2795,-4073 -5033,-5787l-1 -1556c3847,1190 7253,4326 9082,8444l-1716 1686c20,4202 760,8557 1215,12835 201,1889 -745,3149 -2077,3792 -561,271 -1191,422 -1823,455 -627,32 -1263,-52 -1842,-250 -1415,-484 -2515,-1606 -2515,-3356l0 -9772 4 0 -2 -78c-13,-325 -84,-595 -225,-763 -115,-135 -321,-222 -640,-233 -41,-1 -75,-2 -102,-2l-9 5 -1034 0 0 14554 1601 0zm-15044 0l11231 0 0 -14505 -11231 0 0 14505zm0 -16815l11231 0 0 -7801 0 -2 4 0c0,-191 -81,-369 -211,-499l-2 2c-131,-132 -309,-214 -499,-214l0 4 -1 0 -9814 0 -2 0 0 -4c-191,0 -368,81 -499,211l2 2c-132,131 -214,309 -214,499l5 0 0 1 0 7801z"/>
   <polygon class="fil0" points="29475,64997 70935,14978 73926,14975 32921,64997 "/>
   <g>
    <path class="fil0" d="M86580 54421c0,3592 -2135,5482 -4356,6398 -1287,530 -5472,435 -7402,426l17 8819 -3257 0 0 -21786c2731,-40 7657,-499 10724,586 1877,664 4274,1965 4274,5557zm-2643 293c-65,-5028 -7124,-4133 -9080,-4117l1 8204c1665,-21 9144,942 9079,-4087z"/>
    <path class="fil1" d="M88077 75473c4690,-3881 8875,-8342 8902,-16580 27,-8239 -4777,-13803 -8902,-17005l1734 -2298c5961,4357 9847,10078 10037,19252 190,9175 -5885,16415 -10325,19117l-1446 -2486z"/>
    <path class="fil0" d="M77127 75975l0 4 -2 0 -4 0 0 -4c-4712,-1 -8976,-1909 -12059,-4992 -3084,-3084 -4992,-7349 -4993,-12063l-5 0 0 -1c0,-3942 1339,-7574 3587,-10464 427,-549 899,-1082 1409,-1593l0 -6c3065,-3065 7296,-4968 11975,-4992l548 0 0 0c3765,100 7228,1421 10005,3581 550,428 1083,899 1594,1410l5 0c3085,3084 4993,7348 4993,12062l6 0 0 2 0 4 -6 0c-1,4711 -1908,8975 -4991,12059 -3085,3084 -7349,4993 -12062,4993zm-98 -31251c-3885,27 -7399,1610 -9946,4155l0 4c-425,427 -817,869 -1173,1327 -1871,2406 -2984,5429 -2984,8709l0 1 4 0c0,3923 1588,7472 4154,10040 2567,2565 6116,4154 10038,4155l0 3 3 0 1 0 0 -3c3923,-1 7473,-1590 10039,-4156 2566,-2567 4154,-6115 4155,-10037l4 0 0 -3 0 -2 -4 0c0,-3922 -1589,-7473 -4156,-10039l-4 0c-425,-425 -870,-817 -1326,-1173 -2286,-1779 -5130,-2872 -8223,-2977l-582 0 0 -4z"/>
    <path class="fil1" d="M66173 75473c-4691,-3881 -8876,-8342 -8903,-16580 -27,-8239 4777,-13803 8902,-17005l-1733 -2298c-5961,4357 -9848,10078 -10038,19252 -190,9175 5885,16415 10325,19117l1447 -2486z"/>
   </g>
  </g>
 </g>
 <g id="Направляющие">
  <metadata id="CorelCorpID_1Corel-Layer"/>
 </g>
</svg>
