<?xml version="1.0" encoding="UTF-8"?>
<!DOCTYPE svg PUBLIC "-//W3C//DTD SVG 1.1//EN" "http://www.w3.org/Graphics/SVG/1.1/DTD/svg11.dtd">
<!-- Creator: CorelDRAW X5 -->
<svg xmlns="http://www.w3.org/2000/svg" xml:space="preserve" width="12mm" height="8mm" style="shape-rendering:geometricPrecision; text-rendering:geometricPrecision; image-rendering:optimizeQuality; fill-rule:evenodd; clip-rule:evenodd"
viewBox="0 0 120000 80000"
 xmlns:xlink="http://www.w3.org/1999/xlink">
 <defs>
  <style type="text/css">
   <![CDATA[
    .fil0 {fill:none}
    .fil1 {fill:none;fill-rule:nonzero}
    .fil3 {fill:black}
    .fil2 {fill:black;fill-rule:nonzero}
   ]]>
  </style>
 </defs>
 <g id="Слой_x0020_1">
  <metadata id="CorelCorpID_0Corel-Layer"/>
  <g id="_271533576">
   <path class="fil0" d="M57057 68415l-11875 0 11875 -11876 0 11876zm-24728 0l-12851 0 37579 -37580 0 12852 -24728 24728zm-25703 0l-6630 0 0 -6223 50838 -50838 6223 0 0 6629 -50431 50432zm-6630 -19075l0 -12852 25134 -25134 12852 0 -37986 37986zm0 -25704l0 -12282 12282 0 -12282 12282z"/>
   <polygon class="fil1" points="59862,67030 76478,11190 81931,12815 65316,68655 "/>
   <path class="fil0" d="M85964 11190l33891 0 0 57225 -33891 0 0 -57225zm3306 54194c1023,-11327 4867,-18964 10352,-24457l0 -1513c-5485,-5494 -9329,-13132 -10352,-24459l13639 131 13639 -131c-1022,11326 -4867,18963 -10351,24456l0 1519c5484,5493 9329,13128 10351,24454l-13639 -131 -13639 131z"/>
  </g>
  <g id="_271550096">
   <polygon class="fil2" points="45034,64501 60123,13792 65076,15268 49987,65977 "/>
   <path class="fil3" d="M68535 13792l30776 0 0 51967 -30776 0 0 -51967zm3002 49214c929,-10285 4420,-17221 9400,-22209l0 -1375c-4980,-4988 -8471,-11925 -9400,-22211l12386 119 12386 -119c-929,10285 -4421,17221 -9401,22209l0 1379c4980,4989 8472,11923 9401,22207l-12386 -118 -12386 118z"/>
   <path class="fil3" d="M31374 61077l0 4682 -3416 0 -25551 0 -2411 0 0 -4682 1746 0 0 -42270 0 -2 7 0c1,-1386 563,-2639 1465,-3542l8 0c902,-902 2152,-1462 3531,-1464l0 -7 4 0 16852 0 2 0 0 7c1386,1 2639,563 3542,1465l0 8c902,902 1462,2152 1464,3531l7 0 0 4 0 13479 1777 0 0 8c115,-2 220,-1 309,2 1735,59 3002,709 3872,1737 825,974 1222,2235 1277,3609 2,58 4,151 5,276l7 7 0 16779c0,1107 760,1839 1737,2173 547,187 1153,266 1755,235 593,-30 1173,-167 1675,-410 930,-449 1590,-1344 1445,-2698 -972,-9076 -2198,-18151 -2323,-27225 -1591,-3809 -4798,-6996 -8642,-9938l-2 -2672c6606,2043 12454,7429 15596,14499l-2948 2895c36,7217 1305,14694 2088,22040 345,3244 -1280,5408 -3567,6512 -963,465 -2045,725 -3130,781 -1077,55 -2169,-88 -3164,-428 -2430,-832 -4318,-2759 -4318,-5764l0 -16779 7 0 -4 -135c-23,-557 -144,-1022 -387,-1309 -197,-233 -550,-382 -1098,-401 -70,-2 -129,-3 -176,-3l-14 7 -1777 0 0 24993 2750 0zm-25834 0l19286 0 0 -24908 -19286 0 0 24908zm0 -28875l19286 0 0 -13395 0 -4 7 0c0,-328 -139,-633 -362,-857l-3 4c-226,-226 -530,-367 -857,-367l0 7 -2 0 -16852 0 -4 0 0 -7c-328,0 -632,139 -857,362l4 3c-226,226 -367,530 -367,857l7 0 0 2 0 13395z"/>
  </g>
  <g id="_271539120">
   <path class="fil0" d="M120109 65497l-10761 0 10761 -10760 0 10760zm-22406 0l-11646 0 34052 -34051 0 11645 -22406 22406zm-23292 0l-6007 0 0 -5638 46066 -46067 5639 0 0 6008 -45698 45697zm-6007 -17284l0 -11645 22775 -22776 11646 0 -34421 34421zm0 -23291l0 -11130 11129 0 -11129 11130z"/>
   <polygon class="fil1" points="45054,64642 60133,13965 65083,15440 50003,66117 "/>
   <path class="fil0" d="M31179 60795l0 4637 -3382 0 -25306 0 -2388 0 0 -4637 1730 0 0 -41863 0 -2 7 0c1,-1373 557,-2615 1451,-3509l7 0c894,-893 2132,-1448 3498,-1449l0 -8 4 0 16689 0 2 0 0 8c1373,1 2614,557 3508,1451l0 7c893,894 1448,2131 1450,3498l7 0 0 4 0 13349 1760 0 0 7c114,-1 218,0 306,3 1718,59 2973,702 3835,1720 817,964 1210,2213 1265,3575 2,57 4,149 5,272l7 8 0 16618c0,1095 752,1821 1720,2152 541,185 1142,263 1737,232 588,-30 1162,-165 1660,-406 921,-444 1574,-1330 1431,-2672 -963,-8988 -2177,-17976 -2301,-26963 -1575,-3773 -4752,-6929 -8558,-9843l-3 -2646c6543,2023 12335,7357 15447,14360l-2920 2867c35,7148 1293,14552 2067,21828 343,3213 -1267,5355 -3532,6449 -954,461 -2025,718 -3100,774 -1066,55 -2149,-88 -3133,-424 -2407,-824 -4277,-2732 -4277,-5708l0 -16618 7 0 -4 -134c-22,-552 -142,-1012 -383,-1297 -195,-230 -546,-378 -1088,-397 -69,-2 -127,-3 -174,-2l-14 7 -1760 0 0 24752 2723 0zm-25585 0l19100 0 0 -24668 -19100 0 0 24668zm0 -28597l19100 0 0 -13266 0 -4 8 0c-1,-326 -138,-627 -359,-849l-3 3c-224,-223 -525,-363 -849,-363l0 7 -2 0 -16689 0 -4 0 0 -7c-325,0 -627,138 -849,358l3 4c-223,223 -363,525 -363,849l7 0 0 2 0 13266z"/>
  </g>
 </g>
 <g id="Направляющие">
  <metadata id="CorelCorpID_1Corel-Layer"/>
 </g>
</svg>
