<?xml version="1.0" encoding="UTF-8"?>
<!DOCTYPE svg PUBLIC "-//W3C//DTD SVG 1.1//EN" "http://www.w3.org/Graphics/SVG/1.1/DTD/svg11.dtd">
<!-- Creator: CorelDRAW X5 -->
<svg xmlns="http://www.w3.org/2000/svg" xml:space="preserve" width="12mm" height="8mm" style="shape-rendering:geometricPrecision; text-rendering:geometricPrecision; image-rendering:optimizeQuality; fill-rule:evenodd; clip-rule:evenodd"
viewBox="0 0 120000 80000"
 xmlns:xlink="http://www.w3.org/1999/xlink">
 <defs>
  <style type="text/css">
   <![CDATA[
    .fil1 {fill:black}
    .fil0 {fill:black;fill-rule:nonzero}
   ]]>
  </style>
 </defs>
 <g id="Слой_x0020_1">
  <metadata id="CorelCorpID_0Corel-Layer"/>
  <g id="_297675304">
   <g>
    <path class="fil0" d="M64408 49165l36829 0 775 0 0 773 0 18237 0 774 -775 0 -36830 0 -771 0 0 -774 0 -18237 0 -773 772 0zm26027 1546l0 16691 10027 0 0 -16691 -10027 0zm-1550 16691l0 -16691 -10968 0 0 16691 10968 0zm-12517 0l0 -16691 -11188 0 -1 16691 11189 0z"/>
    <path class="fil0" d="M87226 65733l-7498 0 0 -1701c537,-511 1047,-1000 1526,-1467 479,-467 946,-950 1403,-1456 924,-1015 1554,-1829 1890,-2438 337,-611 507,-1242 507,-1892 0,-339 -52,-634 -159,-889 -105,-256 -250,-467 -437,-634 -189,-164 -409,-286 -659,-367 -251,-80 -527,-122 -825,-122 -286,0 -579,36 -877,111 -295,72 -579,164 -852,272 -228,92 -448,203 -660,334 -211,130 -384,242 -515,333l-89 0 0 -1725c337,-170 808,-334 1406,-495 602,-158 1173,-239 1710,-239 1130,0 2019,300 2659,900 643,601 963,1412 963,2437 0,473 -55,909 -167,1312 -111,401 -264,773 -462,1115 -200,353 -443,703 -724,1050 -284,348 -582,689 -899,1026 -510,553 -1080,1128 -1710,1726 -626,597 -1127,1069 -1503,1417l5972 0 0 1392z"/>
    <path class="fil0" d="M95177 54869c-286,0 -573,35 -862,103 -286,71 -570,161 -846,272 -256,107 -480,219 -668,336 -189,117 -357,226 -508,326l-95 0 0 -1683c346,-188 816,-357 1410,-506 595,-153 1160,-229 1700,-229 538,0 1007,55 1411,163 401,109 764,278 1089,507 352,256 616,564 797,926 177,362 267,784 267,1269 0,654 -216,1228 -647,1724 -431,493 -949,809 -1550,939l0 112c249,49 516,131 802,248 284,117 552,291 795,520 245,229 444,523 600,880 155,359 232,798 232,1313 0,539 -93,1032 -276,1481 -183,449 -444,847 -780,1193 -347,362 -764,634 -1255,819 -489,189 -1045,281 -1670,281 -595,0 -1187,-71 -1774,-215 -586,-144 -1080,-316 -1479,-520l0 -1683 112 0c336,245 786,479 1351,702 565,224 1129,335 1694,335 325,0 652,-51 980,-155 327,-103 600,-272 819,-506 212,-235 373,-493 485,-774 112,-283 169,-640 169,-1070 0,-430 -62,-785 -188,-1062 -125,-275 -300,-493 -524,-654 -221,-158 -488,-270 -794,-329 -306,-63 -636,-93 -993,-93l-679 0 0 -1324 526 0c721,0 1305,-171 1755,-511 450,-341 673,-834 673,-1485 0,-297 -57,-553 -174,-768 -117,-215 -268,-386 -448,-515 -204,-138 -428,-234 -671,-288 -245,-52 -507,-79 -786,-79z"/>
    <path class="fil0" d="M74015 65733l-5922 0 0 -1236 2202 0 0 -8129 -2202 0 0 -1107c832,0 1445,-116 1840,-352 393,-237 616,-684 666,-1340l1264 0 0 10928 2152 0 0 1236z"/>
   </g>
   <path class="fil1" d="M92254 46002l0 3441 -2511 0 -18779 0 -1773 0 0 -3441 1284 0 0 -31068 0 -1 5 0c1,-1019 414,-1940 1077,-2604l6 0c663,-662 1581,-1074 2595,-1075l0 -6 3 0 12386 0 1 0 0 6c1019,0 1940,413 2604,1076l0 6c662,663 1074,1581 1076,2595l5 0 0 3 0 9907 1306 0 0 6c85,-1 162,0 227,2 1275,43 2206,520 2846,1276 607,716 898,1643 939,2653 1,43 3,111 3,202l6 6 0 12333c0,813 558,1351 1276,1597 402,137 848,195 1290,172 436,-22 862,-123 1231,-301 684,-330 1169,-988 1062,-1983 -714,-6671 -1615,-13341 -1707,-20010 -1170,-2800 -3527,-5142 -6352,-7305l-2 -1963c4856,1501 9154,5460 11464,10656l-2167 2128c26,5304 959,10800 1534,16199 254,2384 -941,3975 -2621,4786 -708,342 -1503,533 -2301,574 -791,41 -1594,-65 -2325,-314 -1786,-612 -3174,-2028 -3174,-4236l0 -12333 5 0 -3 -99c-17,-410 -105,-752 -284,-963 -145,-171 -405,-281 -808,-294 -51,-2 -94,-3 -128,-2l-11 5 -1306 0 0 18369 2021 0zm-18987 0l14174 0 0 -18307 -14174 0 0 18307zm0 -21222l14174 0 0 -9846 0 -3 6 0c-1,-241 -103,-465 -266,-629l-3 2c-166,-166 -390,-269 -630,-269l0 5 -1 0 -12386 0 -3 0 0 -5c-241,0 -465,102 -630,266l3 2c-166,166 -270,390 -270,630l6 0 0 1 0 9846z"/>
   <path class="fil0" d="M59266 68948l-42378 0 0 -1532 21728 -26054 -21728 -27260 0 -1504 41103 0 1275 14056 -1701 0c-411,-3829 -1476,-6552 -3177,-8197 -1703,-1631 -4156,-2440 -7375,-2440l-19360 0 17743 22310 -19984 24054 22012 0c3687,0 6453,-695 8297,-2071 1844,-1390 3376,-3999 4595,-7814l1532 326 -2582 16126z"/>
  </g>
 </g>
 <g id="Направляющие">
  <metadata id="CorelCorpID_1Corel-Layer"/>
 </g>
</svg>
