<?xml version="1.0" encoding="UTF-8"?>
<!DOCTYPE svg PUBLIC "-//W3C//DTD SVG 1.1//EN" "http://www.w3.org/Graphics/SVG/1.1/DTD/svg11.dtd">
<!-- Creator: CorelDRAW X5 -->
<svg xmlns="http://www.w3.org/2000/svg" xml:space="preserve" width="42px" height="28px" style="shape-rendering:geometricPrecision; text-rendering:geometricPrecision; image-rendering:optimizeQuality; fill-rule:evenodd; clip-rule:evenodd"
viewBox="0 0 42000 28000"
 xmlns:xlink="http://www.w3.org/1999/xlink">
 <defs>
  <style type="text/css">
   <![CDATA[
    .str0 {stroke:black;stroke-width:266.7}
    .fil1 {fill:black}
    .fil0 {fill:black;fill-rule:nonzero}
   ]]>
  </style>
 </defs>
 <g id="Слой_x0020_1">
  <metadata id="CorelCorpID_0Corel-Layer"/>
  <g id="_432770232">
   <g>
    <path class="fil0" d="M7812 11305l7975 0 168 0 0 167 0 3949 0 168 -168 0 -7975 0 -167 0 0 -168 0 -3949 0 -167 167 0zm5636 335l0 3614 2171 0 0 -3614 -2171 0zm-336 3614l0 -3614 -2375 0 0 3614 2375 0zm-2710 0l0 -3614 -2423 0 0 3614 2423 0z"/>
    <path class="fil0" d="M12753 14892l-1624 0 0 -368c116,-111 227,-217 330,-318 104,-101 205,-206 304,-315 200,-219 336,-396 410,-527 73,-133 110,-269 110,-410 0,-74 -12,-137 -34,-193 -23,-55 -54,-101 -95,-137 -41,-35 -89,-62 -143,-79 -54,-18 -114,-27 -179,-27 -62,0 -125,8 -190,24 -64,15 -126,35 -184,59 -50,20 -97,44 -143,72 -46,28 -83,52 -111,72l-19 0 0 -374c73,-37 175,-72 304,-107 130,-34 254,-52 370,-52 245,0 437,65 576,195 139,130 209,306 209,528 0,102 -12,197 -36,284 -24,86 -57,167 -100,241 -43,76 -96,152 -157,228 -62,75 -126,149 -195,222 -111,120 -234,244 -370,374 -135,130 -244,232 -326,307l1293 0 0 301z"/>
    <path class="fil0" d="M14474 12540c-62,0 -124,8 -187,22 -62,15 -124,35 -183,59 -55,23 -104,47 -145,73 -41,25 -77,49 -110,71l-21 0 0 -364c75,-41 176,-77 305,-110 129,-33 251,-49 368,-49 116,0 218,12 306,35 87,23 165,60 236,110 76,56 134,122 173,201 39,78 58,170 58,275 0,142 -47,266 -140,373 -93,107 -205,175 -335,203l0 24c54,11 112,28 174,54 62,26 119,63 172,113 53,50 96,113 130,190 34,78 50,173 50,285 0,117 -20,223 -60,321 -40,97 -97,183 -169,258 -75,78 -166,138 -272,177 -106,41 -226,61 -362,61 -129,0 -257,-15 -384,-47 -127,-32 -234,-69 -320,-113l0 -364 24 0c73,53 170,104 293,152 122,48 245,72 367,72 70,0 141,-11 212,-34 71,-22 130,-59 177,-110 46,-51 81,-107 105,-167 24,-62 37,-139 37,-232 0,-93 -14,-170 -41,-230 -27,-60 -65,-107 -113,-141 -48,-34 -106,-58 -172,-71 -66,-14 -138,-20 -215,-20l-147 0 0 -287 114 0c156,0 282,-37 380,-111 98,-74 146,-180 146,-321 0,-64 -12,-120 -38,-166 -25,-47 -58,-84 -97,-112 -44,-30 -93,-51 -145,-62 -53,-11 -110,-17 -170,-17z"/>
    <path class="fil0" d="M9892 14892l-1282 0 0 -268 477 0 0 -1760 -477 0 0 -239c180,0 313,-25 398,-76 85,-51 133,-148 144,-290l274 0 0 2366 466 0 0 268z"/>
   </g>
   <path class="fil1" d="M14806 10365l0 954 -696 0 -5208 0 -491 0 0 -954 356 0 0 -8616 0 0 1 0c0,-282 114,-538 299,-722l1 0c184,-184 439,-298 720,-298l0 -2 1 0 3435 0 0 0 0 2c282,0 538,114 722,299l0 1c184,184 298,439 298,720l2 0 0 1 0 2748 362 0 0 1c24,0 45,0 63,1 354,12 612,144 790,354 168,198 249,455 260,736 0,12 1,31 1,56l1 1 0 3420c0,225 155,375 354,443 112,38 235,54 358,48 121,-6 239,-34 342,-83 190,-92 324,-274 295,-550 -198,-1850 -448,-3700 -474,-5549 -324,-776 -978,-1426 -1762,-2025l0 -545c1346,417 2539,1514 3179,2955l-601 590c7,1471 266,2995 425,4492 70,661 -261,1102 -727,1327 -196,95 -417,148 -638,159 -219,11 -442,-18 -645,-88 -495,-169 -880,-562 -880,-1175l0 -3420 1 0 -1 -27c-5,-114 -29,-208 -79,-267 -40,-47 -112,-78 -224,-82 -14,0 -26,-1 -36,-1l-3 2 -362 0 0 5094 560 0zm-5265 0l3931 0 0 -5077 -3931 0 0 5077zm0 -5885l3931 0 0 -2730 0 -1 1 0c0,-67 -28,-129 -74,-175l-1 1c-46,-46 -108,-75 -175,-75l0 1 0 0 -3435 0 -1 0 0 -1c-67,0 -129,28 -175,74l1 1c-46,46 -75,108 -75,175l2 0 0 0 0 2730z"/>
   <polygon class="fil0" points="10807,22771 25318,5264 26365,5263 12013,22771 "/>
   <g>
    <g>
     <ellipse class="fil1 str0" cx="24902" cy="23968" rx="870" ry="868"/>
     <path class="fil0 str0" d="M23736 22401c864,-464 1804,-474 2625,167l224 -281c-976,-783 -2052,-698 -3074,-160l460 -1015 -164 -74 -164 -74 -699 1540 -114 253 278 1 1693 8 2 -359 -1068 -5z"/>
    </g>
    <path class="fil0 str0" d="M28870 17689c-1302,134 -2364,1029 -2753,2218l7345 0 904 1938 -2852 1735 0 714c17,11 34,22 50,34 66,47 131,100 190,158 305,293 496,705 496,1160l0 1 -1 0c0,445 -181,847 -473,1139 -291,291 -694,471 -1139,471l0 2 -2 0 -1 0 0 -2c-446,0 -849,-181 -1141,-472 -292,-291 -471,-692 -471,-1136l-1 0 0 -2 0 -1 1 0c0,-232 49,-453 136,-650 12,-26 27,-58 47,-96 44,-83 94,-161 151,-235l-268 -372 -1892 0 0 601c1,23 1,46 1,69l0 0 -1 0c0,648 -264,1235 -689,1659 -424,424 -1011,686 -1660,686l0 1 -1 0 -1 0 0 -1c-312,-1 -610,-61 -881,-170 -85,-34 -171,-76 -258,-123 -369,-205 -679,-508 -891,-873l-1717 0 0 126 0 1 0 0 0 3 0 0c-1,481 -394,871 -877,871l-3 0 0 0 -3468 0 0 -226 4341 -3201 724 -4 -3 -528 -1639 0 -244 0 -53 -228 -1651 -7151 525 0 4697 0 1 4104 665 0c200,-977 685,-1850 1363,-2529 453,-453 992,-819 1590,-1072 598,-253 1256,-393 1947,-393 1687,0 3375,0 5062,0l-528 1775 -4679 1zm4407 -1184c-1421,1 -2841,2 -4262,3 -2087,0 -3835,1451 -4290,3399 -44,191 -77,386 -96,586l-1766 0 0 -4101 -3900 0 1439 6201 1994 24 1 288 6 1095 2 293 -1154 -1 -2907 2202 1825 0c319,0 447,-158 446,-469l-1 -468 878 0 0 -1 1500 0 184 0 80 166c158,330 418,603 737,780 60,33 124,64 193,92 205,82 428,129 660,129l0 -2 1 0 1 0 0 2c487,0 927,-198 1246,-517 319,-318 516,-758 516,-1244l-1 0 0 0 0 -1257 55 0 2727 0 731 1017 -188 177c-84,78 -155,170 -208,271 -7,14 -17,34 -29,62 -56,127 -88,268 -88,413l1 0 0 1 0 2 -1 0c0,282 116,538 301,723 186,185 442,300 725,301l0 -2 1 0 2 0 0 2c282,-1 539,-116 725,-301 186,-186 301,-441 301,-724l-1 0 0 -1c0,-291 -121,-553 -314,-739 -37,-36 -78,-69 -121,-99 -43,-31 -89,-58 -136,-81l-1 -1 -1 0 -163 -82 0 -1227 0 -164 142 -86 2593 -1577 -568 -1095 -7697 -1c22,-200 59,-396 111,-586 410,-1515 1722,-2671 3354,-2813l4242 2 176 -591z"/>
   </g>
  </g>
 </g>
 <g id="Направляющие">
  <metadata id="CorelCorpID_1Corel-Layer"/>
 </g>
</svg>
