<?xml version="1.0" encoding="UTF-8"?>
<!DOCTYPE svg PUBLIC "-//W3C//DTD SVG 1.1//EN" "http://www.w3.org/Graphics/SVG/1.1/DTD/svg11.dtd">
<!-- Creator: CorelDRAW X5 -->
<svg xmlns="http://www.w3.org/2000/svg" xml:space="preserve" width="12mm" height="8mm" style="shape-rendering:geometricPrecision; text-rendering:geometricPrecision; image-rendering:optimizeQuality; fill-rule:evenodd; clip-rule:evenodd"
viewBox="0 0 120000 80000"
 xmlns:xlink="http://www.w3.org/1999/xlink">
 <defs>
  <style type="text/css">
   <![CDATA[
    .fil0 {fill:black}
    .fil1 {fill:black;fill-rule:nonzero}
   ]]>
  </style>
 </defs>
 <g id="Слой_x0020_1">
  <metadata id="CorelCorpID_0Corel-Layer"/>
  <g id="_395180192">
   <path class="fil0" d="M99870 78024l-8303 0 8303 -8302 0 8302zm-17288 0l-8986 0 26274 -26273 0 8985 -17288 17288zm-17971 0l-4635 0 0 -4350 35543 -35544 4351 0 0 4635 -35259 35259zm-4635 -13336l0 -8985 17573 -17573 8985 0 -26558 26558zm0 -17971l0 -8587 8587 0 -8587 8587z"/>
   <g>
    <path class="fil1" d="M20448 32302l22785 0 479 0 0 478 0 11283 0 479 -479 0 -22785 0 -478 0 0 -479 0 -11283 1 -478 477 0zm16102 957l0 10326 6204 0 0 -10326 -6204 0zm-959 10326l0 -10326 -6785 0 0 10326 6785 0zm-7744 0l0 -10326 -6922 0 0 10326 6922 0z"/>
    <path class="fil1" d="M34565 42552l-4639 0 0 -1052c332,-316 648,-619 944,-908 296,-288 585,-588 868,-901 572,-627 961,-1131 1170,-1507 208,-379 313,-769 313,-1171 0,-210 -33,-392 -98,-551 -66,-158 -155,-288 -271,-392 -117,-101 -253,-177 -408,-226 -155,-50 -325,-76 -510,-76 -177,0 -358,22 -542,69 -183,44 -359,101 -527,168 -142,57 -278,126 -409,207 -131,80 -237,149 -318,206l-55 0 0 -1068c208,-105 499,-206 869,-306 372,-98 726,-148 1058,-148 699,0 1249,186 1645,557 398,372 596,874 596,1508 0,292 -34,562 -103,812 -69,247 -164,478 -286,689 -124,218 -274,435 -448,650 -176,215 -360,426 -556,634 -316,343 -669,698 -1058,1068 -387,370 -698,662 -930,877l3695 0 0 861z"/>
    <path class="fil1" d="M39484 35831c-177,0 -355,22 -533,64 -178,44 -353,99 -524,168 -158,66 -297,135 -413,208 -117,72 -221,140 -314,202l-59 0 0 -1041c214,-117 504,-221 872,-314 368,-94 718,-141 1052,-141 332,0 623,33 873,101 248,67 472,172 673,313 218,159 382,349 493,573 110,224 166,485 166,785 0,405 -134,760 -401,1067 -266,305 -587,500 -958,581l0 69c153,30 319,81 496,153 176,73 341,181 491,322 152,142 275,324 372,544 96,223 143,494 143,813 0,333 -57,638 -170,916 -113,278 -276,524 -483,738 -215,224 -473,393 -777,507 -302,116 -646,174 -1033,174 -368,0 -734,-44 -1097,-133 -363,-90 -669,-196 -915,-322l0 -1041 69 0c208,151 486,296 836,434 349,138 699,207 1048,207 201,0 403,-31 606,-96 203,-64 371,-168 507,-313 131,-145 231,-305 300,-478 69,-176 105,-396 105,-663 0,-266 -39,-485 -117,-657 -77,-170 -185,-305 -324,-404 -137,-98 -302,-167 -491,-204 -189,-39 -393,-57 -615,-57l-420 0 0 -819 326 0c446,0 807,-106 1085,-317 279,-210 417,-515 417,-918 0,-184 -35,-342 -108,-475 -72,-133 -165,-239 -277,-319 -126,-86 -265,-145 -415,-178 -152,-32 -314,-49 -486,-49z"/>
    <path class="fil1" d="M26392 42552l-3664 0 0 -765 1362 0 0 -5029 -1362 0 0 -684c515,0 894,-72 1138,-218 243,-147 381,-423 412,-829l782 0 0 6760 1332 0 0 765z"/>
   </g>
   <path class="fil0" d="M40433 29616l0 2727 -1989 0 -14880 0 -1404 0 0 -2727 1017 0 0 -24616 0 -1 4 0c0,-807 327,-1537 853,-2063l4 0c526,-525 1254,-851 2057,-852l0 -5 2 0 9814 0 1 0 0 5c807,0 1537,327 2063,853l0 4c525,526 851,1253 852,2057l5 0 0 2 0 7850 1034 0 0 4c68,-1 129,0 180,2 1011,34 1748,412 2256,1011 480,567 711,1301 743,2102 1,34 2,88 3,160l4 4 0 9772c0,644 442,1071 1011,1266 319,108 672,154 1022,136 346,-18 683,-97 976,-238 542,-262 926,-783 842,-1572 -567,-5285 -1280,-10570 -1353,-15855 -927,-2218 -2795,-4073 -5033,-5787l-1 -1556c3847,1190 7253,4326 9082,8444l-1716 1686c20,4202 760,8557 1215,12835 201,1889 -745,3149 -2077,3792 -561,271 -1191,422 -1823,455 -627,32 -1263,-52 -1842,-250 -1415,-484 -2515,-1606 -2515,-3356l0 -9772 4 0 -2 -78c-13,-325 -84,-595 -225,-763 -115,-135 -321,-222 -640,-233 -41,-1 -75,-2 -102,-2l-9 5 -1034 0 0 14554 1601 0zm-15044 0l11231 0 0 -14505 -11231 0 0 14505zm0 -16815l11231 0 0 -7801 0 -2 4 0c0,-191 -81,-369 -211,-499l-2 2c-131,-132 -309,-214 -499,-214l0 4 -1 0 -9814 0 -2 0 0 -4c-191,0 -368,81 -499,211l2 2c-132,131 -214,309 -214,499l5 0 0 1 0 7801z"/>
   <polygon class="fil1" points="30129,65062 71589,15043 74580,15040 33575,65062 "/>
  </g>
 </g>
 <g id="Направляющие">
  <metadata id="CorelCorpID_1Corel-Layer"/>
 </g>
</svg>
