<?xml version="1.0" encoding="UTF-8" standalone="no"?>
<svg
   xmlns:dc="http://purl.org/dc/elements/1.1/"
   xmlns:cc="http://creativecommons.org/ns#"
   xmlns:rdf="http://www.w3.org/1999/02/22-rdf-syntax-ns#"
   xmlns:svg="http://www.w3.org/2000/svg"
   xmlns="http://www.w3.org/2000/svg"
   width="2.6599479mm"
   height="5.0002122mm"
   viewBox="0 0 2.6599479 5.0002122"
   version="1.1"
   id="svg909">
  <defs
     id="defs903" />
  <metadata
     id="metadata906">
    <rdf:RDF>
      <cc:Work
         rdf:about="">
        <dc:format>image/svg+xml</dc:format>
        <dc:type
           rdf:resource="http://purl.org/dc/dcmitype/StillImage" />
        <dc:title></dc:title>
      </cc:Work>
    </rdf:RDF>
  </metadata>
  <g
     id="g861">
    <path
       style="fill:#34a817;fill-opacity:1;stroke-width:0.00635847"
       d="m 0.92500818,0 -0.0191203,0.01756999 -0.0191203,0.01756999 -0.00155,0.1462443 -0.002067,0.1462443 h -0.3632853 c -0.32590586,0 -0.36689486,0.001201 -0.39274091,0.0108521 -0.03073616,0.0114775 -0.06784363,0.0359735 -0.08113201,0.0537435 -0.0044494,0.00595 -0.01249893,0.0150826 -0.01756998,0.0201538 -0.0050711,0.005071 -0.01113132,0.021244 -0.01343587,0.0356567 -0.0023047,0.0144127 -0.006264,0.0275782 -0.0093018,0.0294556 C 0.00205991,0.47973128 5.0085673e-6,1.5766955 0,2.6737387 c -4.8514327e-6,1.097043 0.00205821,2.1940074 0.00568441,2.1962484 0.0030259,0.00187 0.0067829,0.013501 0.008785,0.025838 0.0039523,0.024356 0.03374157,0.070352 0.04909261,0.075964 0.0052457,0.00192 0.01793063,0.00924 0.02842204,0.01602 0.01870423,0.012087 0.04267793,0.012402 1.23351644,0.012403 1.1858205,0 1.214891,-5.059e-4 1.2335165,-0.012403 0.010492,-0.0067 0.023253,-0.014068 0.028422,-0.016536 0.010881,-0.00519 0.03593,-0.033819 0.05426,-0.062011 0.012048,-0.018533 0.013008,-0.033096 0.01602,-0.2800863 0.00443,-0.3636717 0.00166,-4.13819627 -0.0031,-4.17907326 -0.00214,-0.01836 -0.00657,-0.0335897 -0.00982,-0.0335897 -0.00325,0 -0.0062,-0.004108 -0.0062,-0.008785 0,-0.0152914 -0.05322,-0.058845 -0.085266,-0.0697632 C 2.525612,0.32851864 2.484719,0.32762934 2.1988327,0.32762934 H 1.8758546 V 0.1839681 0.04082438 L 1.855184,0.02067057 1.8345134,0 H 1.3797608 Z M 2.4985556,0.48627523 V 2.6603029 c 0,2.0367218 -2.497e-4,2.1742909 -0.010335,2.1781614 -0.016571,0.00636 -2.31131874,0.00534 -2.31768806,-0.00103 -0.002371,-0.00237 -0.003888,-0.5312048 -0.004134,-1.3161987 -9.053e-5,-0.2616681 2.9285e-4,-0.5518798 5.1635e-4,-0.860416 l 0.00155,-2.17144377 1.16530351,-0.00155 z"
       id="path837-0" />
    <rect
       y="0.97229779"
       x="0.66331983"
       height="3.4531338"
       width="1.3333083"
       id="rect827-4"
       style="opacity:1;vector-effect:none;fill:#34a817;fill-opacity:1;fill-rule:nonzero;stroke:#34a817;stroke-width:0;stroke-linecap:square;stroke-linejoin:round;stroke-miterlimit:4;stroke-dasharray:none;stroke-dashoffset:0;stroke-opacity:1;paint-order:stroke fill markers" />
  </g>
</svg>
