<svg width="57" height="57" viewBox="0 0 57 57" fill="none" xmlns="http://www.w3.org/2000/svg">
<path fill-rule="evenodd" clip-rule="evenodd" d="M3.21777 16.7018L12.5286 19.7258L13.2853 17.3981L3.97449 14.377L3.21777 16.7018ZM13.2853 39.6018L12.5286 37.277V37.2741L3.21777 40.2952L3.97449 42.6229L13.2853 39.6018ZM53.0316 42.6229L43.7208 39.5989L44.4804 37.2741L53.7883 40.2952L53.0316 42.6229ZM53.7883 16.7018L44.4804 19.7258L43.7208 17.3981L53.0345 14.377L53.7883 16.7018ZM11.3661 27.2757H1.5835V29.7213H11.3661V27.2757ZM55.4168 29.7213H45.6342V27.2757H55.4168V29.7213ZM17.2238 21.0192C17.2238 21.0192 17.2238 21.0192 17.2238 21.0192C18.8274 21.4985 20.2348 22.48 21.2387 23.8193C22.2438 25.1601 22.7913 26.7884 22.8004 28.464V28.4985C22.7999 30.1677 22.2646 31.7928 21.273 33.1355C20.2814 34.4782 18.8856 35.4678 17.2904 35.9592C17.2904 35.9592 17.2904 35.9592 17.2904 35.9592C15.8749 31.0829 15.8518 25.9079 17.2238 21.0192ZM17.2238 21.0192C17.2238 21.0192 17.2238 21.0192 17.2238 21.0192C17.2238 21.0192 17.2238 21.0192 17.2238 21.0192C17.224 21.0187 17.2241 21.0182 17.2243 21.0176L17.2242 21.0176H17.2185C17.2202 21.0182 17.222 21.0187 17.2238 21.0192ZM22.4166 21.4284C20.6118 19.5337 18.1511 18.4007 15.5382 18.2612C13.1437 24.8807 13.1763 32.1352 15.6302 38.7329C18.2337 38.569 20.6771 37.4196 22.4633 35.5185C24.2495 33.6173 25.2446 31.1071 25.246 28.4985V28.4525C25.2336 25.8359 24.2213 23.323 22.4166 21.4284ZM38.084 21.7609C38.6198 21.4474 39.1942 21.1971 39.7962 21.0176C39.7963 21.0176 39.7963 21.0177 39.7963 21.0176C41.1649 25.9073 41.142 31.0819 39.7301 35.9592C39.7301 35.9592 39.7301 35.9592 39.7301 35.9592C38.5672 35.6013 37.5103 34.9786 36.6387 34.1473C36.3144 33.8381 36.0158 33.5 35.747 33.1359C34.7553 31.7931 34.2202 30.1678 34.2202 28.4985V28.464C34.2276 26.7888 34.7737 25.1604 35.7778 23.8194C36.4054 22.9814 37.1911 22.2833 38.084 21.7609ZM34.6021 21.4286C36.4063 19.5339 38.8668 18.4007 41.4794 18.2612C43.8739 24.8807 43.8413 32.1352 41.3874 38.7329C38.7841 38.569 36.3411 37.4195 34.5553 35.5183C32.7696 33.617 31.7752 31.1069 31.7745 28.4985V28.4525C31.7862 25.8361 32.7978 23.3233 34.6021 21.4286Z" fill="#2FAB24"/>
</svg>
