<?xml version="1.0" encoding="UTF-8"?>
<!DOCTYPE svg PUBLIC "-//W3C//DTD SVG 1.1//EN" "http://www.w3.org/Graphics/SVG/1.1/DTD/svg11.dtd">
<!-- Creator: CorelDRAW X5 -->
<svg xmlns="http://www.w3.org/2000/svg" xml:space="preserve" width="42px" height="28px" style="shape-rendering:geometricPrecision; text-rendering:geometricPrecision; image-rendering:optimizeQuality; fill-rule:evenodd; clip-rule:evenodd"
viewBox="0 0 42000 28000"
 xmlns:xlink="http://www.w3.org/1999/xlink">
 <defs>
  <style type="text/css">
   <![CDATA[
    .str0 {stroke:black;stroke-width:266.7}
    .fil0 {fill:black;fill-rule:nonzero}
   ]]>
  </style>
 </defs>
 <g id="Слой_x0020_1">
  <metadata id="CorelCorpID_0Corel-Layer"/>
  <g id="_271524864">
   <path class="fil0" d="M7058 23084l0 1454 0 218c1660,7 2896,-459 3794,-1304 335,-315 618,-678 853,-1081 445,783 999,1396 1625,1843 809,579 1728,874 2665,895 927,21 1864,-234 2718,-756 813,-495 1553,-1232 2133,-2206l69 0c580,973 1320,1711 2133,2206 853,522 1791,776 2718,756 936,-21 1855,-315 2664,-895 626,-447 1181,-1060 1625,-1843 235,403 518,766 853,1081 898,845 2134,1311 3794,1304l0 -218 0 -1454 0 -218c-1199,6 -2060,-299 -2647,-850 -574,-541 -930,-1344 -1121,-2349 -150,-638 -1594,-629 -1707,0 -328,1415 -975,2400 -1771,2965 -529,380 -1122,575 -1722,589 -612,11 -1237,-161 -1817,-513 -919,-561 -1706,-1640 -2174,-3103 -84,-307 -475,-441 -865,-437 -388,-4 -779,130 -864,437 -468,1463 -1254,2543 -2174,3103 -581,352 -1205,524 -1818,513 -600,-15 -1192,-210 -1722,-589 -795,-565 -1443,-1550 -1771,-2965 -113,-629 -1556,-638 -1707,0 -191,1005 -547,1808 -1120,2349 -587,551 -1449,856 -2647,850l0 218z"/>
   <path class="fil0 str0" d="M15802 6087c0,-899 226,-1665 678,-2296 453,-631 1110,-945 1970,-945 793,0 1448,282 1965,846 520,567 781,1398 781,2493 0,1066 -264,1888 -790,2464 -523,575 -1169,863 -1938,863 -763,0 -1398,-282 -1906,-852 -508,-567 -761,-1424 -761,-2572zm2693 -2176c-385,0 -705,167 -960,499 -256,332 -382,942 -382,1832 0,808 130,1377 385,1709 259,329 579,494 958,494 387,0 710,-168 966,-499 256,-332 385,-940 385,-1824 0,-813 -129,-1386 -387,-1715 -258,-332 -581,-496 -963,-496zm9 12223l6897 -13290 1257 0 -6874 13290 -1280 0zm5453 -3424c0,-904 226,-1674 678,-2302 455,-625 1113,-939 1979,-939 792,0 1447,282 1967,846 517,567 778,1395 778,2490 0,1069 -265,1888 -786,2466 -526,575 -1175,863 -1950,863 -763,0 -1398,-285 -1906,-855 -508,-573 -760,-1427 -760,-2569zm2701 -2176c-390,0 -713,168 -969,499 -256,332 -382,942 -382,1832 0,802 130,1371 388,1703 258,332 575,499 954,499 397,0 722,-167 975,-499 256,-332 385,-939 385,-1823 0,-813 -130,-1386 -388,-1718 -258,-329 -579,-494 -963,-494z"/>
  </g>
 </g>
</svg>
