<?xml version="1.0" encoding="UTF-8"?>
<!DOCTYPE svg PUBLIC "-//W3C//DTD SVG 1.1//EN" "http://www.w3.org/Graphics/SVG/1.1/DTD/svg11.dtd">
<!-- Creator: CorelDRAW X5 -->
<svg xmlns="http://www.w3.org/2000/svg" xml:space="preserve" width="42px" height="28px" style="shape-rendering:geometricPrecision; text-rendering:geometricPrecision; image-rendering:optimizeQuality; fill-rule:evenodd; clip-rule:evenodd"
viewBox="0 0 42000 28000"
 xmlns:xlink="http://www.w3.org/1999/xlink">
 <defs>
  <style type="text/css">
   <![CDATA[
    .str0 {stroke:black;stroke-width:266.7}
    .fil1 {fill:black}
    .fil0 {fill:black;fill-rule:nonzero}
   ]]>
  </style>
 </defs>
 <g id="Слой_x0020_1">
  <metadata id="CorelCorpID_0Corel-Layer"/>
  <g id="_271524864">
   <path class="fil0" d="M19339 22285l0 1173 0 176c1339,6 2337,-370 3062,-1052 270,-254 499,-547 688,-873 359,632 806,1127 1311,1488 653,467 1395,705 2150,722 748,16 1505,-189 2193,-610 656,-399 1253,-995 1722,-1780l56 0c469,786 1066,1381 1722,1780 688,421 1445,627 2193,610 756,-17 1497,-255 2150,-722 505,-361 953,-856 1311,-1488 189,326 418,618 689,873 725,682 1722,1058 3062,1052l0 -176 0 -1173 0 -176c-967,5 -1663,-241 -2136,-686 -463,-436 -750,-1084 -904,-1896 -121,-515 -1286,-508 -1378,0 -265,1142 -788,1937 -1429,2393 -427,307 -906,464 -1390,476 -494,9 -998,-130 -1467,-414 -742,-453 -1377,-1324 -1755,-2505 -68,-247 -384,-356 -698,-352 -313,-4 -629,105 -697,352 -378,1181 -1013,2052 -1754,2505 -469,285 -973,423 -1467,414 -484,-12 -962,-169 -1390,-476 -642,-456 -1164,-1251 -1429,-2393 -91,-508 -1256,-515 -1378,0 -154,811 -441,1460 -904,1896 -474,445 -1169,691 -2136,686l0 176z"/>
   <path class="fil0 str0" d="M26396 8567c0,-725 183,-1344 547,-1853 365,-510 896,-763 1590,-763 640,0 1169,228 1586,683 420,457 630,1128 630,2012 0,861 -213,1524 -637,1988 -422,464 -943,697 -1564,697 -616,0 -1128,-228 -1538,-687 -410,-457 -614,-1149 -614,-2076zm2174 -1756c-311,0 -569,135 -775,403 -206,268 -308,761 -308,1478 0,652 104,1112 310,1379 209,266 467,398 773,398 312,0 573,-135 779,-403 206,-268 310,-758 310,-1472 0,-656 -104,-1119 -313,-1384 -208,-268 -469,-400 -777,-400zm7 9865l5567 -10726 1014 0 -5548 10726 -1033 0zm4401 -2763c0,-730 183,-1351 547,-1858 367,-505 898,-758 1597,-758 639,0 1168,228 1588,683 417,457 628,1126 628,2010 0,863 -214,1524 -635,1990 -425,464 -948,697 -1574,697 -616,0 -1128,-230 -1538,-690 -410,-462 -614,-1152 -614,-2073zm2180 -1756c-315,0 -576,135 -782,403 -206,268 -308,761 -308,1478 0,647 105,1107 313,1374 209,268 464,403 770,403 320,0 583,-135 786,-403 207,-268 311,-758 311,-1471 0,-656 -104,-1119 -313,-1386 -209,-265 -467,-398 -777,-398z"/>
   <path class="fil1" d="M9288 4184l0 0 8771 19734 -17542 1 8771 -19735zm0 3718l0 0 6446 14506 -12893 0 6447 -14506z"/>
  </g>
 </g>
</svg>
