<?xml version="1.0" encoding="UTF-8"?>
<!DOCTYPE svg PUBLIC "-//W3C//DTD SVG 1.1//EN" "http://www.w3.org/Graphics/SVG/1.1/DTD/svg11.dtd">
<!-- Creator: CorelDRAW X5 -->
<svg xmlns="http://www.w3.org/2000/svg" xml:space="preserve" width="42px" height="28px" style="shape-rendering:geometricPrecision; text-rendering:geometricPrecision; image-rendering:optimizeQuality; fill-rule:evenodd; clip-rule:evenodd"
viewBox="0 0 420000 280000"
 xmlns:xlink="http://www.w3.org/1999/xlink">
 <defs>
  <style type="text/css">
   <![CDATA[
    .fil0 {fill:black}
   ]]>
  </style>
 </defs>
 <g id="Слой_x0020_1">
  <metadata id="CorelCorpID_0Corel-Layer"/>
  <g id="_391588960">
   <path class="fil0" d="M299894 212272l0 -188024c0,-4848 4151,-8810 9233,-8810l7921 0c5079,0 9237,3966 9237,8810l0 188024c9636,4617 16254,14126 16254,25109 0,15512 -13188,28095 -29449,28095 -16261,0 -29449,-12583 -29449,-28095 0,-10987 6615,-20493 16254,-25109zm4949 -79982l0 -105329c0,-4064 1379,-6405 5282,-6405l6083 0c3903,0 4750,2342 4750,6395l0 105329 -16114 11z"/>
   <path class="fil0" d="M137799 195920c15932,8260 37667,11505 46435,7970l-777 51909c-81,5264 4123,9597 9387,9674 49,4 98,4 147,4 5198,0 9450,-4176 9527,-9391l1453 -97265c10416,-2209 25592,-24969 32403,-45133 14767,-43705 9086,-99362 9086,-99362 0,0 -41944,50813 -51475,87360 -518,1985 -959,4025 -1337,6090 -382,-1453 -784,-2877 -1215,-4270 -13587,-44086 -57768,-89208 -57768,-89208 0,0 2716,69052 16366,104269 7676,19800 24710,39676 34843,42364l-410 27503c-5768,-8894 -17168,-19443 -28273,-26240 -34311,-20997 -78127,-20808 -78127,-20808 0,0 30496,39372 59735,54534z"/>
  </g>
 </g>
 <g id="Направляющие">
  <metadata id="CorelCorpID_1Corel-Layer"/>
 </g>
</svg>
