<?xml version="1.0" encoding="UTF-8"?>
<!DOCTYPE svg PUBLIC "-//W3C//DTD SVG 1.1//EN" "http://www.w3.org/Graphics/SVG/1.1/DTD/svg11.dtd">
<!-- Creator: CorelDRAW X5 -->
<svg xmlns="http://www.w3.org/2000/svg" xml:space="preserve" width="42px" height="28px" style="shape-rendering:geometricPrecision; text-rendering:geometricPrecision; image-rendering:optimizeQuality; fill-rule:evenodd; clip-rule:evenodd"
viewBox="0 0 42000 28000"
 xmlns:xlink="http://www.w3.org/1999/xlink">
 <defs>
  <style type="text/css">
   <![CDATA[
    .fil0 {fill:#B3B3B3}
   ]]>
  </style>
 </defs>
 <g id="Слой_x0020_1">
  <metadata id="CorelCorpID_0Corel-Layer"/>
  <polygon class="fil0" points="11065,5160 11558,3678 31423,10290 30930,11772 "/>
  <path class="fil0" d="M32053 27617c447,-870 804,-1811 1047,-2901l-904 -1566 -627 362c431,998 506,2216 -2922,1228l-1520 -2456c-1050,-2762 -1920,-4963 -4132,-6996l-1809 0 0 723c1080,126 2218,706 -351,3181l-2915 -1c-2917,-471 -5308,-791 -8175,107l-904 1567 626 362c648,-872 1726,-1528 2585,1934l-1453 2534c-524,643 -1019,1252 -1470,1860l-47 63 2491 0c556,-4034 4050,-7142 8281,-7142 4229,0 7724,3108 8280,7142l3920 0z"/>
  <path class="fil0" d="M19853 26598c771,0 1447,407 1825,1019l-3651 0c378,-611 1055,-1019 1826,-1019z"/>
  <rect class="fil0" x="30891" y="11705" width="1562" height="5930"/>
  <rect class="fil0" x="10011" y="11705" width="1562" height="5930"/>
  <rect class="fil0" x="15146" y="9976" width="7249" height="4422"/>
 </g>
</svg>
