<?xml version="1.0" encoding="UTF-8"?>
<!DOCTYPE svg PUBLIC "-//W3C//DTD SVG 1.1//EN" "http://www.w3.org/Graphics/SVG/1.1/DTD/svg11.dtd">
<!-- Creator: CorelDRAW X5 -->
<svg xmlns="http://www.w3.org/2000/svg" xml:space="preserve" width="42px" height="28px" style="shape-rendering:geometricPrecision; text-rendering:geometricPrecision; image-rendering:optimizeQuality; fill-rule:evenodd; clip-rule:evenodd"
viewBox="0 0 42000 28000"
 xmlns:xlink="http://www.w3.org/1999/xlink">
 <defs>
  <style type="text/css">
   <![CDATA[
    .fil0 {fill:black}
   ]]>
  </style>
 </defs>
 <g id="Слой_x0020_1">
  <metadata id="CorelCorpID_0Corel-Layer"/>
  <path class="fil0" d="M20599 23378l5 4250 2437 0 0 -4250 489 0 1429 -3653 0 -2082 -1720 0 0 -7872 2811 -4863 -4113 -4558 -6397 1665 -1960 4755c-52,180 -15,65 -19,161 14,13 287,305 287,305 1,1 3024,3071 3051,3084 85,45 1073,866 1075,875 44,16 654,190 655,190l0 19 -1 6686 12 0 1 1635 1428 3653 533 0zm1068 -5735l0 -8280 2412 -4293 -2592 -3055 -4786 1216 -1222 3093c2,0 2066,2096 2118,2175 129,193 2302,1763 2593,1795l0 7349 1477 0zm1724 1534l0 226 -852 2441 -1483 0 -852 -2441 0 -226 3187 0z"/>
 </g>
</svg>
