<?xml version="1.0" encoding="UTF-8" standalone="no"?>
<!-- Creator: CorelDRAW X5 -->

<svg xmlns:dc="http://purl.org/dc/elements/1.1/" xmlns:cc="http://creativecommons.org/ns#" xmlns:rdf="http://www.w3.org/1999/02/22-rdf-syntax-ns#" xmlns:svg="http://www.w3.org/2000/svg" xmlns="http://www.w3.org/2000/svg" xmlns:sodipodi="http://sodipodi.sourceforge.net/DTD/sodipodi-0.dtd" xmlns:inkscape="http://www.inkscape.org/namespaces/inkscape" xml:space="preserve" width="42px" height="28px" style="shape-rendering:geometricPrecision; text-rendering:geometricPrecision; image-rendering:optimizeQuality; fill-rule:evenodd; clip-rule:evenodd" viewBox="0 0 42000 28000" id="svg2" version="1.1" inkscape:version="0.48.4 r9939" sodipodi:docname="HandleHST_DR.svg"><metadata id="metadata14"><rdf:RDF><cc:Work rdf:about=""><dc:format>image/svg+xml</dc:format><dc:type rdf:resource="http://purl.org/dc/dcmitype/StillImage" /><dc:title></dc:title></cc:Work></rdf:RDF></metadata><sodipodi:namedview pagecolor="#ffffff" bordercolor="#666666" borderopacity="1" objecttolerance="10" gridtolerance="10" guidetolerance="10" inkscape:pageopacity="0" inkscape:pageshadow="2" inkscape:window-width="1920" inkscape:window-height="1058" id="namedview12" showgrid="false" inkscape:zoom="8.4285714286" inkscape:cx="21" inkscape:cy="14" inkscape:window-x="1912" inkscape:window-y="-8" inkscape:window-maximized="1" inkscape:current-layer="svg2" />
 <defs id="defs4">
  <style type="text/css" id="style6">
   
    .fil0 {fill:black}
   
  </style>
 </defs>
 <g id="Слой_x0020_1">
  <metadata id="CorelCorpID_0Corel-Layer" />
  <path class="fil0" d="M20599 23378l5 4250 2437 0 0 -4250 489 0 1429 -3653 0 -2082 -1720 0 0 -7872 2811 -4863 -4113 -4558 -6397 1665 -1960 4755c-52,180 -15,65 -19,161 14,13 287,305 287,305 1,1 3024,3071 3051,3084 85,45 1073,866 1075,875 44,16 654,190 655,190l0 19 -1 6686 12 0 1 1635 1428 3653 533 0zm1068 -5735l0 -8280 2412 -4293 -2592 -3055 -4786 1216 -1222 3093c2,0 2066,2096 2118,2175 129,193 2302,1763 2593,1795l0 7349 1477 0zm1724 1534l0 226 -852 2441 -1483 0 -852 -2441 0 -226 3187 0z" id="path10" />
 </g>

<text xml:space="preserve" style="font-size:8807.69921875px;font-style:normal;font-variant:normal;font-weight:normal;font-stretch:normal;text-align:center;line-height:100%;letter-spacing:0px;word-spacing:0px;writing-mode:lr-tb;text-anchor:middle;fill:#000000;fill-opacity:1;stroke:none;font-family:Sans;-inkscape-font-specification:Sans" x="29545.328" y="21237.639" id="text2995" sodipodi:linespacing="100%" transform="scale(0.98353266701,1.0167430463)"><tspan sodipodi:role="line" id="tspan2997" x="29545.328" y="21237.639" style="font-weight:bold;-inkscape-font-specification:Sans Bold">N</tspan></text>

</svg>