<?xml version="1.0" encoding="UTF-8" standalone="no"?>
<!-- Created with Inkscape (http://www.inkscape.org/) -->

<svg
   xmlns:dc="http://purl.org/dc/elements/1.1/"
   xmlns:cc="http://creativecommons.org/ns#"
   xmlns:rdf="http://www.w3.org/1999/02/22-rdf-syntax-ns#"
   xmlns:svg="http://www.w3.org/2000/svg"
   xmlns="http://www.w3.org/2000/svg"
   xmlns:sodipodi="http://sodipodi.sourceforge.net/DTD/sodipodi-0.dtd"
   xmlns:inkscape="http://www.inkscape.org/namespaces/inkscape"
   width="6.1127257mm"
   height="5.5562501mm"
   viewBox="0 0 6.1127258 5.5562501"
   version="1.1"
   id="svg994"
   sodipodi:docname="harvestedDryMass.svg"
   inkscape:version="0.92.2 (unknown)">
  <defs
     id="defs988" />
  <sodipodi:namedview
     id="base"
     pagecolor="#ffffff"
     bordercolor="#666666"
     borderopacity="1.0"
     inkscape:pageopacity="0.0"
     inkscape:pageshadow="2"
     inkscape:zoom="5.6"
     inkscape:cx="10.973239"
     inkscape:cy="-22.419529"
     inkscape:document-units="mm"
     inkscape:current-layer="layer1"
     showgrid="false"
     inkscape:window-width="1613"
     inkscape:window-height="1026"
     inkscape:window-x="67"
     inkscape:window-y="24"
     inkscape:window-maximized="1" />
  <metadata
     id="metadata991">
    <rdf:RDF>
      <cc:Work
         rdf:about="">
        <dc:format>image/svg+xml</dc:format>
        <dc:type
           rdf:resource="http://purl.org/dc/dcmitype/StillImage" />
        <dc:title></dc:title>
      </cc:Work>
    </rdf:RDF>
  </metadata>
  <g
     inkscape:label="Layer 1"
     inkscape:groupmode="layer"
     id="layer1"
     transform="translate(260.39949,133.28811)">
    <g
       id="g1232"
       transform="matrix(0.87526052,0,0,0.79806383,-284.03367,-177.34337)">
      <g
         transform="matrix(0.06218283,0,0,0.06588596,27.60097,55.406904)"
         id="g1038">
        <path
           inkscape:connector-curvature="0"
           style="fill:#000000;fill-opacity:1;stroke:none;stroke-width:0.22255909;stroke-opacity:1"
           d="M 66.453582,27.990676 A 36.233548,37.289737 0 0 0 30.219988,65.280463 36.233548,37.289737 0 0 0 66.453582,102.57025 36.233548,37.289737 0 0 0 102.68718,65.280463 36.233548,37.289737 0 0 0 66.453582,27.990676 Z m 0,7.161445 A 28.610048,30.128231 0 0 1 86.27404,43.599893 L 40.330963,77.474764 A 28.610048,30.128231 0 0 1 37.843604,65.280463 28.610048,30.128231 0 0 1 66.453582,35.152121 Z M 90.632593,49.193669 A 28.610048,30.128231 0 0 1 95.063563,65.280463 28.610048,30.128231 0 0 1 66.453582,95.408805 28.610048,30.128231 0 0 1 43.832975,83.700017 Z"
           id="path817" />
        <g
           id="g1006"
           transform="translate(-1.974439,-0.54205995)">
          <path
             inkscape:connector-curvature="0"
             id="path887"
             d="m 68.487808,38.539543 -7.11584,14.06477 h 0.0212 a 7.9011554,7.7508163 0 0 0 -0.85628,3.50831 7.9011554,7.7508163 0 0 0 7.90081,7.75043 7.9011554,7.7508163 0 0 0 7.90133,-7.75043 7.9011554,7.7508163 0 0 0 -0.86507,-3.50831 h 0.03 z"
             style="fill:#000000;fill-opacity:1;stroke:none;stroke-width:0.26755768;stroke-miterlimit:4;stroke-dasharray:none;stroke-opacity:1" />
          <path
             inkscape:connector-curvature="0"
             id="path887-5"
             d="m 55.155934,59.277519 -7.11584,14.06478 h 0.0212 a 7.9011555,7.7508163 0 0 0 -0.85628,3.50831 7.9011555,7.7508163 0 0 0 7.90081,7.75043 7.9011555,7.7508163 0 0 0 7.90133,-7.75043 7.9011555,7.7508163 0 0 0 -0.86507,-3.50831 h 0.03 z"
             style="fill:#000000;fill-opacity:1;stroke:none;stroke-width:0.26755768;stroke-miterlimit:4;stroke-dasharray:none;stroke-opacity:1" />
          <path
             inkscape:connector-curvature="0"
             id="path887-3"
             d="m 81.610834,59.277519 -7.11584,14.06478 h 0.0212 a 7.9011555,7.7508163 0 0 0 -0.85628,3.50831 7.9011555,7.7508163 0 0 0 7.90081,7.75043 7.9011555,7.7508163 0 0 0 7.90132,-7.75043 7.9011555,7.7508163 0 0 0 -0.86506,-3.50831 h 0.03 z"
             style="fill:#000000;fill-opacity:1;stroke:none;stroke-width:0.26755768;stroke-miterlimit:4;stroke-dasharray:none;stroke-opacity:1" />
        </g>
      </g>
      <g
         transform="matrix(0.63610166,0,0,0.67398294,0.35438624,17.958134)"
         id="g1174">
        <polygon
           id="polygon1077"
           points="306387,600260 179132,106782 33126,600260 "
           class="fil0 str0"
           style="clip-rule:evenodd;fill:none;fill-rule:evenodd;stroke:#000000;stroke-width:49500.30078125;image-rendering:optimizeQuality;shape-rendering:geometricPrecision;text-rendering:geometricPrecision"
           transform="matrix(1.0100957e-5,0,0,1.0100957e-5,41.892862,55.260372)" />
        <polygon
           id="polygon1079"
           points="397467,259560 355947,103713 305644,259560 "
           class="fil1 str0"
           style="clip-rule:evenodd;fill:#000000;fill-rule:evenodd;stroke:#000000;stroke-width:49500.30078125;image-rendering:optimizeQuality;shape-rendering:geometricPrecision;text-rendering:geometricPrecision"
           transform="matrix(1.0100957e-5,0,0,1.0100957e-5,41.892862,55.260372)" />
        <line
           id="line1081"
           y2="55.546268"
           x2="45.48827"
           y1="56.307972"
           x1="45.48827"
           class="fil0 str0"
           style="clip-rule:evenodd;fill:none;fill-rule:evenodd;stroke:#000000;stroke-width:0.50000042;image-rendering:optimizeQuality;shape-rendering:geometricPrecision;text-rendering:geometricPrecision" />
        <polygon
           id="polygon1083"
           points="670244,600260 542988,106782 396982,600260 "
           class="fil0 str0"
           style="clip-rule:evenodd;fill:none;fill-rule:evenodd;stroke:#000000;stroke-width:49500.30078125;image-rendering:optimizeQuality;shape-rendering:geometricPrecision;text-rendering:geometricPrecision"
           transform="matrix(1.0100957e-5,0,0,1.0100957e-5,41.892862,55.260372)" />
        <polyline
           id="polyline1085"
           points="179132,154649 179132,24750 542988,24750 542988,150699 "
           class="fil0 str0"
           style="clip-rule:evenodd;fill:none;fill-rule:evenodd;stroke:#000000;stroke-width:49500.30078125;image-rendering:optimizeQuality;shape-rendering:geometricPrecision;text-rendering:geometricPrecision"
           transform="matrix(1.0100957e-5,0,0,1.0100957e-5,41.892862,55.260372)" />
      </g>
    </g>
  </g>
</svg>
