<?xml version="1.0" encoding="UTF-8"?>
<!DOCTYPE svg PUBLIC "-//W3C//DTD SVG 1.1//EN" "http://www.w3.org/Graphics/SVG/1.1/DTD/svg11.dtd">
<!-- Creator: CorelDRAW X5 -->
<svg xmlns="http://www.w3.org/2000/svg" xml:space="preserve" width="42px" height="28px" style="shape-rendering:geometricPrecision; text-rendering:geometricPrecision; image-rendering:optimizeQuality; fill-rule:evenodd; clip-rule:evenodd"
viewBox="0 0 420000 280000"
 xmlns:xlink="http://www.w3.org/1999/xlink">
 <defs>
  <style type="text/css">
   <![CDATA[
    .fil0 {fill:black}
    .fil1 {fill:black;fill-rule:nonzero}
   ]]>
  </style>
 </defs>
 <g id="Слой_x0020_1">
  <metadata id="CorelCorpID_0Corel-Layer"/>
  <path class="fil0" d="M66773 238546l0 13451 228757 -105c45234,431 75614,-33086 74865,-81680l7 -137760 -303629 206094zm284421 -169120l0 100030c7,40807 -23755,63350 -55822,63340l-186386 0 242207 -163370z"/>
  <path class="fil1" d="M122469 52528c5730,0 10633,1159 14746,3483 4095,2324 7203,5611 9310,9888 2107,4277 3161,9300 3161,15078 0,4263 -581,8131 -1736,11624 -1155,3479 -2877,6510 -5187,9065 -2314,2555 -5152,4508 -8502,5870 -3367,1348 -7217,2030 -11561,2030 -4316,0 -8180,-693 -11596,-2093 -3402,-1390 -6255,-3353 -8540,-5884 -2286,-2531 -4008,-5586 -5177,-9142 -1169,-3560 -1747,-7413 -1747,-11547 0,-4239 606,-8131 1824,-11662 1222,-3546 2979,-6549 5292,-9027 2310,-2492 5110,-4393 8425,-5705 3315,-1323 7077,-1978 11288,-1978zm15887 28371c0,-4046 -655,-7539 -1950,-10507 -1313,-2954 -3175,-5201 -5600,-6717 -2415,-1516 -5191,-2272 -8337,-2272 -2233,0 -4288,424 -6188,1257 -1890,851 -3521,2069 -4893,3675 -1362,1607 -2443,3661 -3238,6150 -784,2492 -1183,5306 -1183,8414 0,3133 399,5971 1183,8502 795,2531 1915,4638 3353,6307 1439,1670 3094,2916 4970,3735 1862,837 3917,1246 6150,1246 2867,0 5485,-718 7886,-2142 2401,-1428 4305,-3637 5716,-6629 1425,-2979 2132,-6654 2132,-11018z"/>
  <path id="1" class="fil1" d="M192192 62083l-22012 0 0 14116 18403 0c1698,0 2982,385 3815,1145 837,770 1260,1785 1260,3066 0,1285 -424,2300 -1274,3045 -858,760 -2132,1131 -3801,1131l-18403 0 0 18172c0,2300 -525,4022 -1565,5138 -1043,1117 -2377,1670 -4008,1670 -1645,0 -2993,-567 -4032,-1694 -1043,-1131 -1568,-2839 -1568,-5114l0 -42445c0,-1607 245,-2916 718,-3931 476,-1015 1222,-1761 2237,-2223 1015,-462 2310,-693 3892,-693l26338 0c1785,0 3108,399 3969,1183 861,795 1299,1824 1299,3108 0,1309 -438,2349 -1299,3147 -861,784 -2184,1180 -3969,1180z"/>
  <path id="12" class="fil1" d="M238735 62083l-22012 0 0 14116 18403 0c1698,0 2982,385 3815,1145 837,770 1260,1785 1260,3066 0,1285 -424,2300 -1274,3045 -858,760 -2132,1131 -3801,1131l-18403 0 0 18172c0,2300 -525,4022 -1565,5138 -1043,1117 -2377,1670 -4008,1670 -1645,0 -2993,-567 -4032,-1694 -1043,-1131 -1568,-2839 -1568,-5114l0 -42445c0,-1607 245,-2916 718,-3931 476,-1015 1222,-1761 2237,-2223 1015,-462 2310,-693 3892,-693l26338 0c1785,0 3108,399 3969,1183 861,795 1299,1824 1299,3108 0,1309 -438,2349 -1299,3147 -861,784 -2184,1180 -3969,1180z"/>
 </g>
 <g id="Направляющие">
  <metadata id="CorelCorpID_1Corel-Layer"/>
 </g>
</svg>
