<?xml version="1.0" encoding="UTF-8" standalone="no"?>
<svg
   xmlns:dc="http://purl.org/dc/elements/1.1/"
   xmlns:cc="http://creativecommons.org/ns#"
   xmlns:rdf="http://www.w3.org/1999/02/22-rdf-syntax-ns#"
   xmlns:svg="http://www.w3.org/2000/svg"
   xmlns="http://www.w3.org/2000/svg"
   version="1.1"
   id="svg7672"
   viewBox="0 0 46.237644 21.9545"
   height="6.1960478mm"
   width="13.049291mm">
  <defs
     id="defs7674" />
  <metadata
     id="metadata7677">
    <rdf:RDF>
      <cc:Work
         rdf:about="">
        <dc:format>image/svg+xml</dc:format>
        <dc:type
           rdf:resource="http://purl.org/dc/dcmitype/StillImage" />
        <dc:title></dc:title>
      </cc:Work>
    </rdf:RDF>
  </metadata>
  <g
     transform="translate(51.69025,-409.95638)"
     id="layer1">
    <g
       transform="translate(613.84867,-208.31438)"
       id="g4529">
      <g
         style="clip-rule:evenodd;fill-rule:evenodd;image-rendering:optimizeQuality;shape-rendering:geometricPrecision;text-rendering:geometricPrecision"
         id="g4378"
         transform="matrix(9.9999997e-5,0,0,9.9999997e-5,-672.21622,615.02556)">
        <g
           id="Слой_x0020_1-6">
          <metadata
             id="CorelCorpID_0Corel-Layer-06" />
          <path
             id="path4366"
             d="m 66773,238546 0,13451 228757,-105 c 45234,431 75614,-33086 74865,-81680 l 7,-137760 -303629,206094 z m 284421,-169120 0,100030 c 7,40807 -23755,63350 -55822,63340 l -186386,0 242207,-163370 z"
             class="fil0"
             style="fill:#000000" />
          <path
             id="path4368"
             d="m 141694,52525 c 5730,0 10633,1159 14746,3483 4095,2324 7203,5611 9310,9888 2107,4277 3161,9300 3161,15078 0,4263 -581,8131 -1736,11624 -1155,3479 -2877,6510 -5187,9065 -2314,2555 -5152,4508 -8502,5870 -3367,1348 -7217,2030 -11561,2030 -4316,0 -8180,-693 -11596,-2093 -3402,-1390 -6255,-3353 -8540,-5884 -2286,-2531 -4008,-5586 -5177,-9142 -1169,-3560 -1747,-7413 -1747,-11547 0,-4239 606,-8131 1824,-11662 1222,-3546 2979,-6549 5292,-9027 2310,-2492 5110,-4393 8425,-5705 3315,-1323 7077,-1978 11288,-1978 z m 15887,28371 c 0,-4046 -655,-7539 -1950,-10507 -1313,-2954 -3175,-5201 -5600,-6717 -2415,-1516 -5191,-2272 -8337,-2272 -2233,0 -4288,424 -6188,1257 -1890,851 -3521,2069 -4893,3675 -1362,1607 -2443,3661 -3238,6150 -784,2492 -1183,5306 -1183,8414 0,3133 399,5971 1183,8502 795,2531 1915,4638 3353,6307 1439,1670 3094,2916 4970,3735 1862,837 3917,1246 6150,1246 2867,0 5485,-718 7886,-2142 2401,-1428 4305,-3637 5716,-6629 1425,-2979 2132,-6654 2132,-11018 z"
             class="fil1"
             style="fill:#000000;fill-rule:nonzero" />
          <path
             d="m 193029,59231 21473,32505 0,-32813 c 0,-2132 462,-3724 1376,-4792 910,-1068 2142,-1607 3710,-1607 1607,0 2863,529 3801,1593 924,1068 1390,2674 1390,4806 l 0,43383 c 0,4841 -2006,7256 -6024,7256 -1005,0 -1901,-144 -2713,-438 -795,-284 -1554,-746 -2258,-1376 -697,-616 -1351,-1358 -1953,-2195 -606,-833 -1208,-1694 -1813,-2583 l -20944,-32120 0,32316 c 0,2104 -490,3696 -1467,4778 -973,1078 -2233,1617 -3763,1617 -1579,0 -2849,-539 -3801,-1631 -949,-1092 -1425,-2685 -1425,-4764 l 0,-42550 c 0,-1810 207,-3224 602,-4253 476,-1127 1260,-2055 2366,-2772 1103,-707 2296,-1068 3581,-1068 1005,0 1852,168 2569,490 721,322 1348,770 1890,1323 539,553 1078,1257 1642,2146 567,872 1155,1785 1761,2748 z"
             class="fil1"
             id="1-2"
             style="fill:#000000;fill-rule:nonzero" />
        </g>
        <g
           id="Направляющие-6">
          <metadata
             id="CorelCorpID_1Corel-Layer-1" />
        </g>
      </g>
      <g
         id="g4488"
         transform="translate(-2.3991116,-10.501918)">
        <path
           id="path4155-5"
           d="m -632.90908,639.43231 4.54896,0"
           style="fill:none;fill-rule:evenodd;stroke:#000000;stroke-width:2.05788374;stroke-linecap:butt;stroke-linejoin:miter;stroke-miterlimit:4;stroke-dasharray:none;stroke-opacity:1" />
        <path
           id="path4157-9"
           d="m -626.27418,628.77359 -0.0129,14.55899"
           style="fill:none;fill-rule:evenodd;stroke:#000000;stroke-width:2.05788374;stroke-linecap:butt;stroke-linejoin:miter;stroke-miterlimit:4;stroke-dasharray:none;stroke-opacity:1" />
        <path
           id="path4159-2"
           d="m -623.42125,639.43231 6.49851,0.12998"
           style="fill:none;fill-rule:evenodd;stroke:#000000;stroke-width:2.05788374;stroke-linecap:butt;stroke-linejoin:miter;stroke-miterlimit:4;stroke-dasharray:none;stroke-opacity:1" />
      </g>
    </g>
  </g>
</svg>
