<?xml version="1.0" encoding="UTF-8"?>
<!DOCTYPE svg PUBLIC "-//W3C//DTD SVG 1.1//EN" "http://www.w3.org/Graphics/SVG/1.1/DTD/svg11.dtd">
<!-- Creator: CorelDRAW X5 -->
<svg xmlns="http://www.w3.org/2000/svg" xml:space="preserve" width="42px" height="28px" style="shape-rendering:geometricPrecision; text-rendering:geometricPrecision; image-rendering:optimizeQuality; fill-rule:evenodd; clip-rule:evenodd"
viewBox="0 0 420000 280000"
 xmlns:xlink="http://www.w3.org/1999/xlink">
 <defs>
  <style type="text/css">
   <![CDATA[
    .str0 {stroke:black;stroke-width:2667}
    .fil0 {fill:black}
   ]]>
  </style>
 </defs>
 <g id="Слой_x0020_1">
  <metadata id="CorelCorpID_0Corel-Layer"/>
  <g id="_359039160">
   <path class="fil0" d="M114601 208674l0 11697 198944 -91c39340,378 65758,-28774 65111,-71033l7 -119809 -264061 179235zm247356 -147077l0 86993c4,35490 -20661,55094 -48549,55083l-162096 0 210644 -142076z"/>
   <path class="fil0 str0" d="M137116 101556l0 0c6874,-18 13269,-1915 18025,-6146 1628,-1449 3049,-3157 4221,-5138 1152,-1946 2062,-4158 2685,-6643 595,-2391 928,-5089 945,-8099 81,-13073 -5873,-22642 -11701,-32008 -1253,-2013 -2503,-4022 -3675,-6048l-7 4 -364 -641c-3682,-6454 -7126,-14424 -10129,-21249l-63 0 -60 0c-3003,6825 -6447,14795 -10129,21249l-364 641 -7 -4c-1173,2027 -2422,4036 -3675,6048 -5828,9366 -11785,18935 -11701,32008 18,3010 347,5709 949,8099 620,2485 1530,4697 2681,6643 1173,1981 2594,3689 4221,5138 4757,4232 11151,6129 18025,6146l4 0 119 0zm0 -7889l-4 0 -116 0 0 0c-5058,-14 -9688,-1348 -13017,-4309 -1092,-970 -2055,-2128 -2856,-3486 -819,-1386 -1477,-2993 -1936,-4823 -480,-1922 -742,-4050 -756,-6391 -70,-10815 5166,-19229 10287,-27461 1225,-1964 2443,-3920 3588,-5901l0 -11 354 -616c1789,-3133 3126,-6409 4396,-9706 1267,3297 2608,6573 4393,9706l354 616 0 11c1145,1981 2363,3938 3588,5901 5121,8232 10357,16646 10290,27461 -18,2342 -280,4470 -760,6391 -459,1831 -1117,3437 -1936,4823 -802,1358 -1764,2517 -2853,3486 -3332,2961 -7963,4295 -13017,4309z"/>
   <path class="fil0 str0" d="M60393 213899l0 -178934c0,-4613 3987,-8383 8862,-8383l7595 0c4872,0 8862,3773 8862,8383l0 178934c9240,4396 15593,13444 15593,23902 0,14763 -12653,26733 -28252,26733 -15596,0 -28249,-11970 -28249,-26733 0,-10458 6346,-19506 15589,-23902zm4753 -141295l0 -38791c0,-1498 1320,-2359 5065,-2359l5835 0c3742,0 4557,861 4557,2352l0 38798 -15456 0z"/>
  </g>
 </g>
 <g id="Направляющие">
  <metadata id="CorelCorpID_1Corel-Layer"/>
 </g>
</svg>
