<?xml version="1.0" encoding="UTF-8"?>
<!DOCTYPE svg PUBLIC "-//W3C//DTD SVG 1.1//EN" "http://www.w3.org/Graphics/SVG/1.1/DTD/svg11.dtd">
<!-- Creator: CorelDRAW X5 -->
<svg xmlns="http://www.w3.org/2000/svg" xml:space="preserve" width="42px" height="28px" style="shape-rendering:geometricPrecision; text-rendering:geometricPrecision; image-rendering:optimizeQuality; fill-rule:evenodd; clip-rule:evenodd"
viewBox="0 0 420000 280000"
 xmlns:xlink="http://www.w3.org/1999/xlink">
 <defs>
  <style type="text/css">
   <![CDATA[
    .fil0 {fill:black}
    .fil1 {fill:black;fill-rule:nonzero}
   ]]>
  </style>
 </defs>
 <g id="Слой_x0020_1">
  <metadata id="CorelCorpID_0Corel-Layer"/>
  <g id="_517487120">
   <path class="fil0" d="M66773 238546l0 13451 228757 -105c45234,431 75614,-33086 74865,-81680l7 -137760 -303629 206094zm284421 -169120l0 100030c7,40807 -23755,63350 -55822,63340l-186386 0 242207 -163370z"/>
   <path class="fil1" d="M162040 85404l-4851 0 0 21956c0,2881 -637,5012 -1911,6381 -1271,1369 -2944,2055 -4995,2055 -2195,0 -3913,-718 -5124,-2149 -1208,-1432 -1813,-3518 -1813,-6286l0 -52584c0,-2975 669,-5138 2006,-6475 1334,-1337 3500,-2006 6475,-2006l22512 0c3105,0 5761,126 7973,399 2212,252 4200,795 5968,1607 2146,907 4039,2195 5695,3864 1638,1687 2898,3630 3738,5856 861,2212 1292,4568 1292,7067 0,5089 -1432,9163 -4312,12205 -2881,3052 -7242,5201 -13080,6475 2450,1306 4806,3245 7049,5793 2226,2545 4232,5250 5982,8131 1750,2877 3119,5471 4106,7781 970,2321 1463,3913 1463,4771 0,907 -287,1799 -858,2692 -574,875 -1355,1575 -2356,2100 -1001,508 -2149,763 -3455,763 -1544,0 -2863,-368 -3913,-1099 -1050,-732 -1957,-1656 -2720,-2769 -763,-1113 -1799,-2769 -3105,-4949l-5551 -9226c-1992,-3392 -3773,-5968 -5331,-7735 -1575,-1764 -3168,-2975 -4792,-3626 -1607,-655 -3644,-987 -6094,-987zm7924 -28721l-12775 0 0 18792 12394 0c3325,0 6125,-287 8400,-858 2261,-574 3994,-1561 5187,-2944 1194,-1386 1799,-3280 1799,-5712 0,-1894 -476,-3567 -1449,-5012 -952,-1449 -2289,-2531 -4008,-3248 -1607,-683 -4788,-1019 -9548,-1019z"/>
  </g>
 </g>
 <g id="Направляющие">
  <metadata id="CorelCorpID_1Corel-Layer"/>
 </g>
</svg>
