<?xml version="1.0" encoding="UTF-8"?>
<!DOCTYPE svg PUBLIC "-//W3C//DTD SVG 1.1//EN" "http://www.w3.org/Graphics/SVG/1.1/DTD/svg11.dtd">
<!-- Creator: CorelDRAW X5 -->
<svg xmlns="http://www.w3.org/2000/svg" xml:space="preserve" width="42px" height="28px" style="shape-rendering:geometricPrecision; text-rendering:geometricPrecision; image-rendering:optimizeQuality; fill-rule:evenodd; clip-rule:evenodd"
viewBox="0 0 42000 28000"
 xmlns:xlink="http://www.w3.org/1999/xlink">
 <defs>
  <style type="text/css">
   <![CDATA[
    .str0 {stroke:black;stroke-width:266.7}
    .fil0 {fill:black}
   ]]>
  </style>
 </defs>
 <g id="Слой_x0020_1">
  <metadata id="CorelCorpID_0Corel-Layer"/>
  <g id="_247074592">
   <path class="fil0" d="M30133 14172c0,1207 -979,2186 -2186,2186 -1207,0 -2186,-979 -2186,-2186m7710 0l-11048 0 0 -5044 2763 0 0 -1861 -5230 3 0 -1227 13515 0 0 1229 -2763 -5 0 1861 2763 0m-7078 -1864l3096 11 0 1854 -3096 0 0 -1865zm-2751 3088l8610 0 0 2606 -8610 0 0 -2606zm5590 3820c0,711 -577,1288 -1288,1288 -711,0 -1288,-577 -1288,-1288"/>
   <path class="fil0 str0" d="M2277 15203l0 -10666 11605 0 0 -1667 2584 0 0 1667 2030 0 0 10666 -16219 0zm15546 -12019l0 -1667 -5284 0 0 1666 -11615 0 0 13372 18925 0 0 -13372 -2025 0z"/>
   <path class="fil0" d="M27942 22879l0 0c-200,-1 -385,-56 -523,-179 -47,-42 -89,-92 -123,-149 -34,-57 -60,-121 -78,-193 -18,-70 -27,-148 -28,-235 -2,-380 171,-658 340,-930 36,-58 73,-117 107,-175l0 0 11 -19c107,-188 207,-419 294,-617l2 0 2 0c87,198 187,429 294,617l11 19 0 0c34,59 70,117 107,175 169,272 342,550 340,930 -1,87 -10,166 -28,235 -18,72 -44,136 -78,193 -34,57 -76,107 -123,149 -138,123 -324,178 -524,179l0 0 -4 0z"/>
   <path class="fil0" d="M27942 19353l0 0c-200,-1 -385,-56 -523,-179 -47,-42 -89,-92 -123,-149 -34,-57 -60,-121 -78,-193 -18,-70 -27,-148 -28,-235 -2,-380 171,-658 340,-930 36,-58 73,-117 107,-175l0 0 11 -19c107,-188 207,-419 294,-617l2 0 2 0c87,198 187,429 294,617l11 19 0 0c34,59 70,117 107,175 169,272 342,550 340,930 -1,87 -10,166 -28,235 -18,72 -44,136 -78,193 -34,57 -76,107 -123,149 -138,123 -324,178 -524,179l0 0 -4 0z"/>
   <path class="fil0" d="M27956 26334l0 0c-200,-1 -385,-56 -523,-179 -47,-42 -89,-92 -123,-149 -34,-57 -60,-121 -78,-193 -18,-70 -27,-148 -28,-235 -2,-380 171,-658 340,-930 36,-58 73,-117 107,-175l0 0 11 -19c107,-188 207,-419 294,-617l2 0 2 0c87,198 187,429 294,617l11 19 0 0c34,59 70,117 107,175 169,272 342,550 340,930 -1,87 -10,166 -28,235 -18,72 -44,136 -78,193 -34,57 -76,107 -123,149 -138,123 -324,178 -524,179l0 0 -4 0z"/>
   <path class="fil0" d="M32487 21945l0 0c-181,83 -373,111 -550,57 -61,-19 -119,-46 -174,-84 -54,-37 -105,-85 -151,-142 -45,-56 -86,-123 -123,-202 -161,-344 -120,-669 -80,-986 9,-68 18,-137 24,-204l0 0 2 -21c19,-215 13,-467 9,-684l2 -1 1 -1c162,144 350,312 525,438l18 13 0 0c55,39 113,77 170,115 267,176 541,356 697,702 36,79 60,155 74,225 14,73 16,142 10,208 -7,67 -24,129 -49,187 -74,169 -220,297 -401,381l0 0 -3 1z"/>
   <path class="fil0" d="M31052 18728l0 0c-184,76 -377,96 -552,36 -60,-21 -117,-51 -170,-91 -53,-40 -102,-89 -146,-148 -43,-57 -82,-126 -116,-207 -147,-350 -94,-673 -42,-988 11,-68 22,-136 31,-203l0 0 3 -21c27,-214 31,-466 35,-683l2 -1 2 -1c156,149 337,325 508,457l17 13 0 0c54,41 110,81 166,121 260,186 526,377 670,728 33,81 54,157 65,228 11,74 11,143 2,208 -9,66 -29,128 -56,184 -81,166 -231,288 -415,365l0 0 -3 1z"/>
   <path class="fil0" d="M33833 25445l0 0c-184,76 -377,96 -552,36 -60,-21 -117,-51 -170,-91 -53,-40 -102,-89 -146,-148 -43,-57 -82,-126 -116,-207 -147,-350 -94,-673 -42,-988 11,-68 22,-136 31,-203l0 0 3 -21c27,-214 31,-466 35,-683l2 -1 2 -1c156,150 337,325 508,457l17 13 0 0c54,41 110,81 166,121 260,186 526,377 670,729 33,81 54,157 64,228 11,74 11,143 2,208 -9,66 -29,128 -56,184 -81,166 -231,288 -415,365l0 0 -3 1z"/>
   <path class="fil0" d="M36171 19466l0 0c-141,141 -312,233 -496,244 -63,4 -127,-2 -192,-19 -64,-16 -128,-43 -191,-82 -61,-37 -124,-85 -186,-147 -270,-267 -344,-586 -417,-897 -15,-67 -31,-134 -49,-200l0 0 -6 -21c-57,-208 -150,-442 -228,-644l1 -1 1 -1c202,78 436,172 644,229l21 6 0 0c66,18 133,33 200,49 312,73 631,147 897,417 62,62 110,124 147,186 38,64 65,128 81,191 17,65 22,129 19,192 -11,184 -103,355 -244,496l0 0 -2 2z"/>
   <path class="fil0" d="M33680 16975l0 0c-141,141 -312,233 -496,244 -63,4 -127,-2 -192,-19 -64,-16 -128,-43 -191,-81 -61,-37 -124,-85 -186,-147 -270,-267 -344,-586 -417,-898 -15,-67 -31,-134 -49,-200l0 0 -6 -21c-57,-208 -150,-442 -228,-644l1 -1 1 -1c202,78 436,172 644,228l21 6 0 0c66,18 133,33 200,49 312,73 631,147 898,417 61,62 110,124 147,186 38,64 65,128 81,191 17,65 22,129 19,192 -11,184 -103,355 -244,496l0 0 -2 2z"/>
   <path class="fil0" d="M39015 22315l0 0c-141,141 -312,233 -496,244 -63,4 -127,-2 -192,-19 -64,-16 -128,-43 -191,-81 -62,-37 -124,-85 -186,-147 -270,-267 -344,-586 -417,-897 -16,-67 -31,-134 -49,-200l0 0 -6 -21c-57,-208 -150,-442 -228,-644l1 -1 1 -1c202,78 436,172 644,228l21 6 0 0c65,18 132,33 200,49 312,72 631,147 897,417 62,62 110,124 147,186 38,64 65,128 81,191 16,65 22,129 19,192 -11,184 -103,355 -244,496l0 0 -2 2z"/>
   <path class="fil0" d="M23404 21956l0 0c181,83 373,111 550,57 61,-19 119,-46 174,-84 54,-37 105,-85 151,-142 45,-56 86,-123 123,-202 161,-344 120,-669 80,-986 -9,-68 -18,-137 -24,-204l0 0 -2 -21c-19,-215 -13,-467 -9,-684l-2 -1 -1 -1c-162,144 -350,312 -525,438l-18 13 0 0c-55,39 -113,77 -170,115 -267,176 -541,356 -697,702 -36,79 -60,155 -74,225 -14,73 -16,142 -10,208 7,67 24,129 49,187 74,169 220,297 401,381l0 0 3 1z"/>
   <path class="fil0" d="M24841 18736l0 0c184,76 377,96 552,36 60,-21 117,-51 170,-91 53,-40 102,-89 146,-148 43,-57 82,-126 116,-207 147,-350 94,-673 42,-988 -11,-68 -22,-136 -31,-203l0 0 -3 -21c-27,-214 -31,-466 -35,-683l-2 -1 -2 -1c-156,149 -337,325 -508,457l-17 13 0 0c-54,41 -110,81 -166,121 -260,186 -526,377 -670,728 -33,81 -54,157 -65,228 -11,74 -11,143 -2,208 9,66 29,128 56,184 81,166 231,288 415,365l0 0 3 1z"/>
   <path class="fil0" d="M22220 25051l0 0c184,76 377,96 552,36 60,-21 117,-51 170,-91 53,-40 102,-89 146,-148 43,-57 82,-126 116,-207 147,-350 94,-673 42,-988 -11,-68 -22,-136 -31,-203l0 0 -3 -21c-27,-214 -31,-466 -35,-683l-2 -1 -2 -1c-156,150 -337,325 -508,457l-17 13 0 0c-54,41 -110,81 -166,121 -260,186 -526,377 -670,729 -33,81 -54,157 -64,228 -11,74 -11,143 -2,208 9,66 29,128 56,184 81,166 231,288 415,365l0 0 3 1z"/>
   <path class="fil0" d="M19721 19459l0 0c141,141 312,233 496,244 63,4 127,-2 192,-19 64,-16 128,-43 191,-82 61,-37 124,-85 186,-147 270,-267 344,-586 417,-897 15,-67 31,-134 49,-200l0 0 6 -21c57,-208 150,-442 228,-644l-1 -1 -1 -1c-202,78 -436,172 -644,229l-21 6 0 0c-66,18 -133,33 -200,49 -312,73 -631,147 -897,417 -62,62 -110,124 -147,186 -38,64 -65,128 -81,191 -17,65 -22,129 -19,192 11,184 103,355 244,496l0 0 2 2z"/>
   <path class="fil0" d="M22211 16969l0 0c141,141 312,233 496,244 63,4 127,-2 192,-19 64,-16 128,-43 191,-81 61,-37 124,-85 186,-147 270,-267 344,-586 417,-898 15,-67 31,-134 49,-200l0 0 6 -21c57,-208 150,-442 228,-644l-1 -1 -1 -1c-202,78 -436,172 -644,228l-21 6 0 0c-66,18 -133,33 -200,49 -312,73 -631,147 -898,417 -61,62 -110,124 -147,186 -38,64 -65,128 -81,191 -17,65 -22,129 -19,192 11,184 103,355 244,496l0 0 2 2z"/>
   <path class="fil0" d="M17430 21750l0 0c141,141 312,233 496,244 63,4 127,-2 192,-19 64,-16 128,-43 191,-81 62,-37 124,-85 186,-147 270,-267 344,-586 417,-897 16,-67 31,-134 49,-200l0 0 6 -21c57,-208 150,-442 228,-644l-1 -1 -1 -1c-202,78 -436,172 -644,228l-21 6 0 0c-65,18 -132,33 -200,49 -312,72 -631,147 -897,417 -62,62 -110,124 -147,186 -38,64 -65,128 -81,191 -16,65 -22,129 -19,192 11,184 103,355 244,496l0 0 2 2z"/>
  </g>
 </g>
</svg>
