<?xml version="1.0" encoding="UTF-8"?>
<!DOCTYPE svg PUBLIC "-//W3C//DTD SVG 1.1//EN" "http://www.w3.org/Graphics/SVG/1.1/DTD/svg11.dtd">
<!-- Creator: CorelDRAW X5 -->
<svg xmlns="http://www.w3.org/2000/svg" xml:space="preserve" width="42px" height="28px" style="shape-rendering:geometricPrecision; text-rendering:geometricPrecision; image-rendering:optimizeQuality; fill-rule:evenodd; clip-rule:evenodd"
viewBox="0 0 42000 28000"
 xmlns:xlink="http://www.w3.org/1999/xlink">
 <defs>
  <style type="text/css">
   <![CDATA[
    .str0 {stroke:black;stroke-width:266.7}
    .fil0 {fill:black}
   ]]>
  </style>
 </defs>
 <g id="Слой_x0020_1">
  <metadata id="CorelCorpID_0Corel-Layer"/>
  <g id="_247073656">
   <path class="fil0" d="M31682 14123c0,1207 -979,2186 -2186,2186 -1207,0 -2186,-979 -2186,-2186m7710 0l-11048 0 0 -5044 2763 0 0 -1861 -5230 3 0 -1227 13515 0 0 1229 -2763 -5 0 1861 2763 0m-7078 -1864l3096 11 0 1854 -3096 0 0 -1865zm-2751 3088l8610 0 0 2606 -8610 0 0 -2606zm5590 3820c0,711 -577,1288 -1288,1288 -711,0 -1288,-577 -1288,-1288"/>
   <path class="fil0 str0" d="M3826 15154l0 -10666 11605 0 0 -1667 2584 0 0 1667 2030 0 0 10666 -16219 0zm15546 -12019l0 -1667 -5284 0 0 1666 -11615 0 0 13372 18925 0 0 -13372 -2025 0z"/>
  </g>
 </g>
</svg>
