<?xml version="1.0" encoding="UTF-8"?>
<!DOCTYPE svg PUBLIC "-//W3C//DTD SVG 1.1//EN" "http://www.w3.org/Graphics/SVG/1.1/DTD/svg11.dtd">
<!-- Creator: CorelDRAW X5 -->
<svg xmlns="http://www.w3.org/2000/svg" xml:space="preserve" width="42px" height="28px" style="shape-rendering:geometricPrecision; text-rendering:geometricPrecision; image-rendering:optimizeQuality; fill-rule:evenodd; clip-rule:evenodd"
viewBox="0 0 42000 28000"
 xmlns:xlink="http://www.w3.org/1999/xlink">
 <defs>
  <style type="text/css">
   <![CDATA[
    .fil0 {fill:black}
    .fil1 {fill:black;fill-rule:nonzero}
   ]]>
  </style>
 </defs>
 <g id="Слой_x0020_1">
  <metadata id="CorelCorpID_0Corel-Layer"/>
  <g id="_326067104">
   <path class="fil0" d="M15478 20373l0 -11048 12020 0 0 -1727 2677 0 0 1727 2102 0 0 11048 -16800 0zm16103 -12450l0 -1727 -5473 0 0 1726 -12031 0 0 13851 19602 0 0 -13851 -2098 0z"/>
   <path class="fil1" d="M8952 12511l5106 2918 -2737 1600c-1008,579 -1995,1167 -2987,1747l-51 0 0 -7985 669 0 0 1721zm0 5277l4078 -2343 -4078 -2330 0 4673z"/>
  </g>
 </g>
</svg>
