<?xml version="1.0" encoding="UTF-8" standalone="no"?>
<svg
   xmlns:dc="http://purl.org/dc/elements/1.1/"
   xmlns:cc="http://creativecommons.org/ns#"
   xmlns:rdf="http://www.w3.org/1999/02/22-rdf-syntax-ns#"
   xmlns:svg="http://www.w3.org/2000/svg"
   xmlns="http://www.w3.org/2000/svg"
   xmlns:sodipodi="http://sodipodi.sourceforge.net/DTD/sodipodi-0.dtd"
   xmlns:inkscape="http://www.inkscape.org/namespaces/inkscape"
   id="svg8"
   version="1.1"
   viewBox="0 0 7.9206598 7.6499982"
   height="7.6499982mm"
   width="7.9206595mm"
   inkscape:version="0.91 r13725"
   sodipodi:docname="InoculantDosingSettingsTank.svg">
  <sodipodi:namedview
     pagecolor="#ffffff"
     bordercolor="#666666"
     borderopacity="1"
     objecttolerance="10"
     gridtolerance="10"
     guidetolerance="10"
     inkscape:pageopacity="0"
     inkscape:pageshadow="2"
     inkscape:window-width="1920"
     inkscape:window-height="1056"
     id="namedview16"
     showgrid="false"
     fit-margin-top="0"
     fit-margin-left="0"
     fit-margin-right="0"
     fit-margin-bottom="0"
     inkscape:zoom="6.3185579"
     inkscape:cx="24.847442"
     inkscape:cy="13.553145"
     inkscape:window-x="0"
     inkscape:window-y="24"
     inkscape:window-maximized="1"
     inkscape:current-layer="svg8" />
  <defs
     id="defs2">
    <style
       type="text/css"
       id="style3699"><![CDATA[
    .fil0 {fill:black}
   ]]></style>
    <style
       type="text/css"
       id="style3719"><![CDATA[
    .fil0 {fill:black}
   ]]></style>
  </defs>
  <metadata
     id="metadata5">
    <rdf:RDF>
      <cc:Work
         rdf:about="">
        <dc:format>image/svg+xml</dc:format>
        <dc:type
           rdf:resource="http://purl.org/dc/dcmitype/StillImage" />
        <dc:title></dc:title>
      </cc:Work>
    </rdf:RDF>
  </metadata>
  <g
     style="clip-rule:evenodd;fill-rule:evenodd;image-rendering:optimizeQuality;shape-rendering:geometricPrecision;text-rendering:geometricPrecision"
     id="g3737"
     transform="matrix(3.7173978e-4,0,0,3.433726e-4,-3.8367263,-0.97723842)">
    <g
       id="Слой_x0020_1-3">
      <metadata
         id="CorelCorpID_0Corel-Layer-6" />
      <path
         inkscape:connector-curvature="0"
         id="path3724"
         d="m 19174,18063 -7138,0 0,-11268 12691,0 0,-2233 2667,0 0,2233 2464,0 0,11268 -7035,0 0,-2963 -3649,0 z m 9935,-12984 0,-2233 -6097,0 0,2233 -12691,0 0,14699 8853,0 0,994 -1534,0 3359,4353 3359,-4353 -1535,0 0,-995 8805,0 -3,-14699 -2515,0 z m -8816,17660 0,-6346 1411,0 0,6346 z"
         class="fil0"
         style="fill:#000000" />
    </g>
  </g>
</svg>
