<?xml version="1.0" encoding="UTF-8"?>
<svg xmlns="http://www.w3.org/2000/svg" xmlns:xlink="http://www.w3.org/1999/xlink" width="25pt" height="25pt" viewBox="0 0 25 25" version="1.1">
<g id="surface1">
<path style=" stroke:none;fill-rule:evenodd;fill:rgb(12.54902%,12.54902%,12.54902%);fill-opacity:1;" d="M 21.96875 14.214844 L 21.96875 21.390625 L 17.511719 19.125 L 17.511719 21.320312 L 8.25 21.320312 L 10.4375 20.1875 L 16.398438 20.1875 L 16.398438 17.101562 L 17.511719 16.523438 L 17.511719 17.847656 L 20.855469 19.558594 L 20.855469 14.792969 Z M 21.96875 14.214844 "/>
<path style=" stroke:none;fill-rule:evenodd;fill:rgb(12.54902%,12.54902%,12.54902%);fill-opacity:1;" d="M 24.304688 11.546875 L 1.261719 23.46875 L 0.695312 22.335938 L 23.738281 10.417969 Z M 24.304688 11.546875 "/>
<path style=" stroke:none;fill-rule:nonzero;fill:rgb(12.54902%,12.54902%,12.54902%);fill-opacity:1;" d="M 4.132812 12.25 L 4.132812 20.601562 L 5.25 20.023438 L 5.25 13.382812 L 16.398438 13.382812 L 16.398438 14.273438 L 17.511719 13.699219 L 17.511719 12.25 Z M 4.132812 12.25 "/>
<path style=" stroke:none;fill-rule:nonzero;fill:rgb(12.54902%,12.54902%,12.54902%);fill-opacity:1;" d="M 14.429688 5.902344 C 14.429688 6.101562 14.40625 6.292969 14.359375 6.472656 C 14.101562 7.453125 13.210938 8.175781 12.152344 8.171875 C 10.898438 8.171875 9.878906 7.148438 9.882812 5.894531 C 9.882812 5.753906 9.894531 5.617188 9.921875 5.484375 C 10.117188 4.421875 11.046875 3.621094 12.160156 3.625 C 12.375 3.625 12.589844 3.65625 12.796875 3.714844 L 12.976562 3.089844 C 11.425781 2.636719 9.796875 3.523438 9.339844 5.078125 C 8.886719 6.628906 9.773438 8.257812 11.328125 8.710938 C 12.878906 9.167969 14.507812 8.28125 14.964844 6.726562 C 15.042969 6.460938 15.082031 6.183594 15.082031 5.902344 C 15.082031 5.867188 15.082031 5.832031 15.082031 5.796875 L 14.429688 5.820312 Z M 14.429688 5.902344 "/>
<path style=" stroke:none;fill-rule:nonzero;fill:rgb(12.54902%,12.54902%,12.54902%);fill-opacity:1;" d="M 12.152344 8.179688 C 10.894531 8.179688 9.878906 7.15625 9.882812 5.902344 C 9.882812 5.757812 9.894531 5.617188 9.921875 5.484375 C 10.117188 4.425781 11.046875 3.628906 12.160156 3.632812 C 13.414062 3.632812 14.433594 4.65625 14.429688 5.910156 C 14.429688 6.101562 14.40625 6.289062 14.359375 6.472656 C 14.351562 6.496094 14.34375 6.519531 14.339844 6.546875 L 14.964844 6.726562 C 15.417969 5.175781 14.53125 3.546875 12.976562 3.089844 C 11.425781 2.636719 9.796875 3.523438 9.339844 5.078125 C 8.886719 6.628906 9.773438 8.257812 11.328125 8.710938 C 11.59375 8.792969 11.871094 8.832031 12.152344 8.832031 C 12.1875 8.832031 12.222656 8.832031 12.257812 8.832031 L 12.234375 8.179688 Z M 12.152344 8.179688 "/>
<path style=" stroke:none;fill-rule:nonzero;fill:rgb(12.54902%,12.54902%,12.54902%);fill-opacity:1;" d="M 12.476562 0.695312 L 11.828125 0.695312 L 11.828125 1.996094 L 12.476562 1.996094 Z M 12.476562 0.695312 "/>
<path style=" stroke:none;fill-rule:nonzero;fill:rgb(12.54902%,12.54902%,12.54902%);fill-opacity:1;" d="M 12.476562 9.808594 L 11.828125 9.808594 L 11.828125 11.109375 L 12.476562 11.109375 Z M 12.476562 9.808594 "/>
<path style=" stroke:none;fill-rule:nonzero;fill:rgb(12.54902%,12.54902%,12.54902%);fill-opacity:1;" d="M 9.128906 3.070312 L 8.152344 2.09375 L 7.691406 2.550781 L 8.667969 3.527344 Z M 9.128906 3.070312 "/>
<path style=" stroke:none;fill-rule:nonzero;fill:rgb(12.54902%,12.54902%,12.54902%);fill-opacity:1;" d="M 7.691406 9.253906 L 8.152344 9.714844 L 9.128906 8.738281 L 8.667969 8.277344 Z M 7.691406 9.253906 "/>
<path style=" stroke:none;fill-rule:nonzero;fill:rgb(12.54902%,12.54902%,12.54902%);fill-opacity:1;" d="M 16.613281 2.550781 L 16.15625 2.089844 L 15.179688 3.066406 L 15.636719 3.527344 Z M 16.613281 2.550781 "/>
<path style=" stroke:none;fill-rule:nonzero;fill:rgb(12.54902%,12.54902%,12.54902%);fill-opacity:1;" d="M 15.179688 8.738281 L 16.15625 9.714844 L 16.613281 9.253906 L 15.636719 8.277344 Z M 15.179688 8.738281 "/>
<path style=" stroke:none;fill-rule:nonzero;fill:rgb(12.54902%,12.54902%,12.54902%);fill-opacity:1;" d="M 8.246094 5.578125 L 6.945312 5.578125 L 6.945312 6.226562 L 8.246094 6.226562 Z M 8.246094 5.578125 "/>
<path style=" stroke:none;fill-rule:nonzero;fill:rgb(12.54902%,12.54902%,12.54902%);fill-opacity:1;" d="M 17.359375 5.578125 L 16.058594 5.578125 L 16.058594 6.226562 L 17.359375 6.226562 Z M 17.359375 5.578125 "/>
<path style=" stroke:none;fill-rule:evenodd;fill:rgb(12.54902%,12.54902%,12.54902%);fill-opacity:1;" d="M 12.152344 8.171875 C 13.210938 8.175781 14.101562 7.453125 14.359375 6.472656 C 14.40625 6.289062 14.429688 6.101562 14.429688 5.910156 C 14.433594 4.65625 13.414062 3.632812 12.160156 3.632812 C 11.046875 3.628906 10.117188 4.425781 9.921875 5.484375 C 9.894531 5.617188 9.882812 5.753906 9.882812 5.894531 C 9.878906 7.148438 10.898438 8.171875 12.152344 8.171875 Z M 12.152344 8.171875 "/>
</g>
</svg>
