<?xml version="1.0" encoding="UTF-8"?>
<svg xmlns="http://www.w3.org/2000/svg" xmlns:xlink="http://www.w3.org/1999/xlink" width="25pt" height="25pt" viewBox="0 0 25 25" version="1.1">
<g id="surface1">
<path style=" stroke:none;fill-rule:nonzero;fill:rgb(12.54902%,12.54902%,12.54902%);fill-opacity:1;" d="M 10.921875 0.695312 L 10.921875 1.523438 C 9.742188 1.527344 8.585938 1.855469 7.578125 2.472656 C 6.570312 3.085938 5.75 3.964844 5.207031 5.007812 C 3.8125 7.675781 3.058594 10.632812 3.011719 13.640625 L 3.011719 22.675781 L 1.390625 22.675781 L 1.390625 24.304688 L 9.5 24.304688 L 9.5 22.675781 L 7.878906 22.675781 L 7.878906 13.683594 C 7.921875 11.453125 8.480469 9.261719 9.515625 7.28125 C 9.652344 7.027344 9.855469 6.8125 10.101562 6.660156 C 10.347656 6.507812 10.628906 6.421875 10.921875 6.410156 L 10.921875 7.210938 L 17.507812 4.539062 L 19.03125 0.695312 Z M 10.921875 4.777344 C 10.332031 4.785156 9.757812 4.949219 9.257812 5.257812 C 8.757812 5.566406 8.347656 6 8.078125 6.523438 C 6.921875 8.730469 6.300781 11.175781 6.257812 13.667969 L 6.257812 22.675781 L 4.632812 22.675781 L 4.632812 13.667969 C 4.675781 10.914062 5.363281 8.207031 6.636719 5.765625 C 7.046875 4.980469 7.660156 4.324219 8.414062 3.863281 C 9.171875 3.402344 10.035156 3.15625 10.921875 3.148438 Z M 16.25 3.289062 L 12.542969 4.792969 L 12.542969 2.324219 L 16.636719 2.324219 Z M 16.25 3.289062 "/>
<path style=" stroke:none;fill-rule:nonzero;fill:rgb(12.54902%,12.54902%,12.54902%);fill-opacity:1;" d="M 19.445312 18.75 L 22.917969 19.445312 L 22.917969 14.582031 L 19.445312 15.277344 L 19.445312 13.941406 L 15.277344 13.890625 L 14.582031 9.722656 L 12.5 9.722656 L 13.195312 13.890625 L 9.027344 13.890625 L 9.027344 20.140625 L 19.445312 20.140625 Z M 19.445312 18.75 "/>
</g>
</svg>
