<?xml version="1.0" encoding="UTF-8"?>
<svg xmlns="http://www.w3.org/2000/svg" xmlns:xlink="http://www.w3.org/1999/xlink" width="25pt" height="25pt" viewBox="0 0 25 25" version="1.1">
<g id="surface1">
<path style=" stroke:none;fill-rule:evenodd;fill:rgb(12.54902%,12.54902%,12.54902%);fill-opacity:1;" d="M 21.96875 14.214844 L 21.96875 21.390625 L 17.511719 19.125 L 17.511719 21.320312 L 8.25 21.320312 L 10.4375 20.1875 L 16.398438 20.1875 L 16.398438 17.101562 L 17.511719 16.523438 L 17.511719 17.847656 L 20.855469 19.558594 L 20.855469 14.792969 Z M 21.96875 14.214844 "/>
<path style=" stroke:none;fill-rule:evenodd;fill:rgb(12.54902%,12.54902%,12.54902%);fill-opacity:1;" d="M 24.304688 11.546875 L 1.261719 23.46875 L 0.695312 22.335938 L 23.738281 10.417969 Z M 24.304688 11.546875 "/>
<path style=" stroke:none;fill-rule:nonzero;fill:rgb(12.54902%,12.54902%,12.54902%);fill-opacity:1;" d="M 4.132812 12.25 L 4.132812 20.601562 L 5.25 20.023438 L 5.25 13.382812 L 16.398438 13.382812 L 16.398438 14.273438 L 17.511719 13.699219 L 17.511719 12.25 Z M 4.132812 12.25 "/>
<path style=" stroke:none;fill-rule:nonzero;fill:rgb(12.54902%,12.54902%,12.54902%);fill-opacity:1;" d="M 9.339844 6.601562 C 9.59375 6.601562 9.84375 6.597656 10.097656 6.601562 C 10.359375 6.609375 10.554688 6.511719 10.621094 6.25 C 10.679688 6.007812 10.53125 5.859375 10.335938 5.746094 C 9.820312 5.441406 9.292969 5.152344 8.796875 4.828125 C 8.363281 4.542969 8.183594 4.105469 8.261719 3.597656 C 8.34375 3.066406 8.652344 2.691406 9.175781 2.542969 C 9.648438 2.40625 10.113281 2.480469 10.449219 2.859375 C 10.710938 3.152344 10.917969 3.5 11.136719 3.832031 C 11.3125 4.101562 11.449219 4.402344 11.640625 4.664062 C 11.828125 4.925781 12.070312 4.933594 12.261719 4.675781 C 12.441406 4.433594 12.574219 4.15625 12.714844 3.890625 C 13.023438 3.304688 13.261719 2.679688 13.632812 2.140625 C 14.320312 1.144531 15.769531 1.148438 16.527344 2.097656 C 17.273438 3.03125 16.949219 4.375 15.871094 4.878906 C 15.453125 5.074219 15.03125 5.265625 14.644531 5.511719 C 14.347656 5.699219 14.273438 6.03125 14.359375 6.378906 C 14.441406 6.714844 14.664062 6.925781 14.996094 7.003906 C 15.136719 7.035156 15.285156 7.03125 15.433594 7.039062 C 16.167969 7.058594 16.710938 7.625 16.703125 8.359375 C 16.695312 8.90625 16.359375 9.375 15.84375 9.558594 C 15.328125 9.742188 14.765625 9.589844 14.417969 9.167969 C 14.328125 9.054688 14.257812 8.921875 14.175781 8.800781 C 13.929688 8.429688 13.539062 8.269531 13.109375 8.367188 C 12.730469 8.449219 12.433594 8.789062 12.382812 9.21875 C 12.339844 9.570312 12.339844 9.933594 12.261719 10.277344 C 12.101562 10.972656 11.613281 11.347656 10.910156 11.375 C 10.324219 11.394531 9.789062 11.027344 9.617188 10.464844 C 9.476562 10 9.554688 9.570312 9.886719 9.203125 C 9.992188 9.085938 10.125 8.996094 10.21875 8.871094 C 10.296875 8.761719 10.335938 8.621094 10.390625 8.496094 C 10.253906 8.445312 10.113281 8.34375 9.980469 8.355469 C 9.585938 8.390625 9.195312 8.476562 8.800781 8.539062 C 8.238281 8.625 7.726562 8.300781 7.617188 7.792969 C 7.507812 7.269531 7.8125 6.769531 8.335938 6.632812 C 8.425781 6.609375 8.523438 6.601562 8.613281 6.601562 C 8.855469 6.597656 9.097656 6.601562 9.339844 6.601562 Z M 9.339844 6.601562 "/>
<path style=" stroke:none;fill-rule:nonzero;fill:rgb(12.54902%,12.54902%,12.54902%);fill-opacity:1;" d="M 8.464844 11.039062 C 8.46875 11.449219 8.125 11.800781 7.710938 11.804688 C 7.300781 11.8125 6.949219 11.464844 6.945312 11.054688 C 6.9375 10.640625 7.28125 10.292969 7.695312 10.289062 C 8.113281 10.28125 8.457031 10.621094 8.464844 11.039062 Z M 8.464844 11.039062 "/>
<path style=" stroke:none;fill-rule:nonzero;fill:rgb(12.54902%,12.54902%,12.54902%);fill-opacity:1;" d="M 16.722656 5.296875 C 17.078125 5.304688 17.378906 5.625 17.359375 5.980469 C 17.34375 6.332031 17.050781 6.605469 16.699219 6.601562 C 16.335938 6.59375 16.050781 6.289062 16.0625 5.921875 C 16.074219 5.574219 16.378906 5.289062 16.722656 5.296875 Z M 16.722656 5.296875 "/>
<path style=" stroke:none;fill-rule:nonzero;fill:rgb(12.54902%,12.54902%,12.54902%);fill-opacity:1;" d="M 13.890625 11.582031 C 13.53125 11.582031 13.222656 11.277344 13.234375 10.925781 C 13.242188 10.578125 13.539062 10.289062 13.886719 10.289062 C 14.246094 10.285156 14.550781 10.59375 14.542969 10.949219 C 14.535156 11.292969 14.242188 11.582031 13.890625 11.582031 Z M 13.890625 11.582031 "/>
<path style=" stroke:none;fill-rule:nonzero;fill:rgb(12.54902%,12.54902%,12.54902%);fill-opacity:1;" d="M 11.726562 2.695312 C 11.355469 2.699219 11.074219 2.417969 11.074219 2.042969 C 11.078125 1.6875 11.355469 1.40625 11.707031 1.398438 C 12.070312 1.390625 12.367188 1.6875 12.363281 2.054688 C 12.359375 2.414062 12.085938 2.691406 11.726562 2.695312 Z M 11.726562 2.695312 "/>
</g>
</svg>
