<?xml version="1.0" encoding="UTF-8"?>
<svg xmlns="http://www.w3.org/2000/svg" xmlns:xlink="http://www.w3.org/1999/xlink" width="25pt" height="25pt" viewBox="0 0 25 25" version="1.1">
<g id="surface1">
<path style=" stroke:none;fill-rule:nonzero;fill:rgb(12.54902%,12.54902%,12.54902%);fill-opacity:1;" d="M 11.613281 0.695312 L 11.613281 1.523438 C 10.433594 1.527344 9.28125 1.855469 8.273438 2.472656 C 7.265625 3.085938 6.445312 3.964844 5.898438 5.007812 C 4.507812 7.675781 3.753906 10.632812 3.707031 13.640625 L 3.707031 22.675781 L 2.082031 22.675781 L 2.082031 24.304688 L 10.195312 24.304688 L 10.195312 22.675781 L 8.570312 22.675781 L 8.570312 13.683594 C 8.613281 11.453125 9.175781 9.261719 10.207031 7.28125 C 10.347656 7.027344 10.550781 6.8125 10.796875 6.660156 C 11.042969 6.507812 11.324219 6.421875 11.613281 6.410156 L 11.613281 7.210938 L 18.203125 4.539062 L 19.726562 0.695312 Z M 11.613281 4.777344 C 11.027344 4.785156 10.453125 4.949219 9.953125 5.257812 C 9.453125 5.566406 9.042969 6 8.773438 6.523438 C 7.617188 8.730469 6.996094 11.175781 6.953125 13.667969 L 6.953125 22.675781 L 5.328125 22.675781 L 5.328125 13.667969 C 5.371094 10.914062 6.058594 8.207031 7.332031 5.765625 C 7.742188 4.980469 8.355469 4.324219 9.109375 3.863281 C 9.863281 3.402344 10.730469 3.15625 11.613281 3.148438 Z M 16.945312 3.289062 L 13.238281 4.792969 L 13.238281 2.324219 L 17.332031 2.324219 Z M 16.945312 3.289062 "/>
<path style=" stroke:none;fill-rule:evenodd;fill:rgb(12.54902%,12.54902%,12.54902%);fill-opacity:1;" d="M 23.609375 20.140625 L 20.136719 19.445312 L 20.136719 20.832031 L 9.722656 20.832031 L 9.722656 14.582031 L 13.886719 14.582031 L 13.195312 10.417969 L 15.277344 10.417969 L 15.972656 14.582031 L 20.136719 14.636719 L 20.136719 15.972656 L 23.609375 15.277344 Z M 14.148438 15.558594 L 13.09375 19.660156 L 13.621094 19.660156 L 13.945312 18.460938 L 15.964844 18.460938 L 16.289062 19.660156 L 16.816406 19.660156 L 15.761719 15.558594 Z M 14.148438 15.558594 "/>
<path style=" stroke:none;fill-rule:nonzero;fill:rgb(12.54902%,12.54902%,12.54902%);fill-opacity:1;" d="M 14.0625 17.960938 L 15.847656 17.960938 L 15.351562 16.058594 L 14.558594 16.058594 Z M 14.0625 17.960938 "/>
</g>
</svg>
