<?xml version="1.0" encoding="UTF-8"?>
<svg xmlns="http://www.w3.org/2000/svg" xmlns:xlink="http://www.w3.org/1999/xlink" width="25pt" height="25pt" viewBox="0 0 25 25" version="1.1">
<g id="surface1">
<path style=" stroke:none;fill-rule:nonzero;fill:rgb(12.54902%,12.54902%,12.54902%);fill-opacity:1;" d="M 24.304688 4.167969 L 5.988281 4.167969 L 5.984375 14.875 L 6.925781 13.925781 L 6.925781 5.097656 L 23.390625 5.097656 Z M 24.304688 4.167969 "/>
<path style=" stroke:none;fill-rule:nonzero;fill:rgb(12.54902%,12.54902%,12.54902%);fill-opacity:1;" d="M 6.925781 13.925781 L 23.390625 13.925781 L 23.390625 5.097656 L 24.304688 4.167969 L 24.304688 14.875 L 5.984375 14.875 Z M 6.925781 13.925781 "/>
<path style=" stroke:none;fill-rule:nonzero;fill:rgb(12.54902%,12.54902%,12.54902%);fill-opacity:1;" d="M 0.695312 12.992188 L 4.722656 12.992188 L 4.722656 14.113281 L 0.695312 14.113281 Z M 0.695312 12.992188 "/>
<path style=" stroke:none;fill-rule:evenodd;fill:rgb(12.54902%,12.54902%,12.54902%);fill-opacity:1;" d="M 9.136719 15.449219 C 7.746094 15.449219 6.613281 16.582031 6.613281 17.972656 C 6.613281 19.363281 7.746094 20.492188 9.136719 20.492188 C 10.53125 20.492188 11.660156 19.363281 11.660156 17.972656 C 11.660156 16.582031 10.53125 15.449219 9.136719 15.449219 Z M 10.605469 17.972656 C 10.605469 18.785156 9.949219 19.4375 9.136719 19.4375 C 8.324219 19.4375 7.667969 18.785156 7.667969 17.972656 C 7.667969 17.160156 8.324219 16.503906 9.136719 16.503906 C 9.949219 16.503906 10.605469 17.160156 10.605469 17.972656 Z M 10.605469 17.972656 "/>
<path style=" stroke:none;fill-rule:evenodd;fill:rgb(12.54902%,12.54902%,12.54902%);fill-opacity:1;" d="M 18.210938 17.972656 C 18.210938 16.582031 19.34375 15.449219 20.734375 15.449219 C 22.128906 15.449219 23.257812 16.582031 23.257812 17.972656 C 23.257812 19.363281 22.128906 20.492188 20.734375 20.492188 C 19.34375 20.492188 18.210938 19.363281 18.210938 17.972656 Z M 20.734375 19.4375 C 21.546875 19.4375 22.203125 18.785156 22.203125 17.972656 C 22.203125 17.160156 21.546875 16.503906 20.734375 16.503906 C 19.925781 16.503906 19.265625 17.160156 19.265625 17.972656 C 19.265625 18.785156 19.921875 19.4375 20.734375 19.4375 Z M 20.734375 19.4375 "/>
<path style=" stroke:none;fill-rule:nonzero;fill:rgb(12.54902%,12.54902%,12.54902%);fill-opacity:1;" d="M 10.539062 11.695312 C 9.996094 11.15625 9.722656 10.496094 9.722656 9.722656 C 9.722656 8.945312 9.996094 8.289062 10.539062 7.753906 C 11.089844 7.214844 11.769531 6.945312 12.585938 6.945312 C 13.398438 6.945312 14.074219 7.214844 14.621094 7.753906 C 15.171875 8.289062 15.445312 8.945312 15.445312 9.722656 C 15.445312 10.496094 15.171875 11.15625 14.621094 11.695312 C 14.074219 12.230469 13.398438 12.5 12.585938 12.5 C 11.769531 12.5 11.089844 12.230469 10.539062 11.695312 Z M 11.378906 8.484375 C 11.066406 8.804688 10.910156 9.214844 10.910156 9.722656 C 10.910156 10.226562 11.066406 10.644531 11.378906 10.96875 C 11.695312 11.289062 12.097656 11.449219 12.585938 11.449219 C 13.070312 11.449219 13.46875 11.289062 13.78125 10.96875 C 14.097656 10.644531 14.257812 10.226562 14.257812 9.722656 C 14.257812 9.214844 14.097656 8.804688 13.78125 8.484375 C 13.46875 8.15625 13.070312 7.996094 12.585938 7.996094 C 12.097656 7.996094 11.695312 8.15625 11.378906 8.484375 Z M 11.378906 8.484375 "/>
<path style=" stroke:none;fill-rule:nonzero;fill:rgb(12.54902%,12.54902%,12.54902%);fill-opacity:1;" d="M 16.1875 12.351562 L 16.1875 7.09375 L 17.304688 7.09375 L 17.304688 9.160156 L 18.046875 9.160156 L 19.457031 7.09375 L 20.722656 7.09375 L 19.011719 9.609375 L 20.832031 12.351562 L 19.53125 12.351562 L 18.082031 10.210938 L 17.304688 10.210938 L 17.304688 12.351562 Z M 16.1875 12.351562 "/>
</g>
</svg>
