<?xml version="1.0" encoding="UTF-8" standalone="no"?>
<svg
   xmlns:dc="http://purl.org/dc/elements/1.1/"
   xmlns:cc="http://creativecommons.org/ns#"
   xmlns:rdf="http://www.w3.org/1999/02/22-rdf-syntax-ns#"
   xmlns:svg="http://www.w3.org/2000/svg"
   xmlns="http://www.w3.org/2000/svg"
   id="svg1109"
   version="1.1"
   viewBox="0 0 7.2881775 5.4364648"
   height="5.4364648mm"
   width="7.2881775mm">
  <defs
     id="defs1103" />
  <metadata
     id="metadata1106">
    <rdf:RDF>
      <cc:Work
         rdf:about="">
        <dc:format>image/svg+xml</dc:format>
        <dc:type
           rdf:resource="http://purl.org/dc/dcmitype/StillImage" />
        <dc:title></dc:title>
      </cc:Work>
    </rdf:RDF>
  </metadata>
  <g
     transform="translate(245.54885,-2.4841486)"
     id="layer1">
    <g
       transform="matrix(0.81702476,0,0,0.81702476,-387.30512,-25.351547)"
       id="g1058">
      <g
         transform="matrix(0.39294082,0,0,0.39294082,131.07824,-17.63856)"
         id="g5056">
        <path
           transform="matrix(0.82972695,0,0,0.82972695,25.71326,14.920084)"
           style="fill:none;stroke:#000000;stroke-width:0.60260791;stroke-linecap:butt;stroke-linejoin:miter;stroke-miterlimit:4;stroke-dasharray:none;stroke-opacity:1"
           d="m 100.2081,147.00319 c 0.85902,0.092 2.57678,0.092 3.43553,2e-5 0.85875,-0.092 0.85875,-0.27577 0.68641,-0.48981 -0.17233,-0.21405 -0.51806,-0.4594 -0.69069,-0.9691 -0.17264,-0.50969 -0.17264,-1.28354 -0.25612,-1.73996 -0.0835,-0.45641 -0.25058,-0.59566 -0.68483,-0.66528 -0.43425,-0.0696 -1.13572,-0.0696 -1.56448,-1.1e-4 -0.42877,0.0695 -0.58462,0.20866 -0.66272,0.66593 -0.0781,0.45727 -0.0781,1.22985 -0.252,1.7394 -0.17391,0.50955 -0.5218,0.75447 -0.695955,0.96889 -0.174155,0.21443 -0.174155,0.39802 0.684855,0.49002 z"
           id="path4874-7" />
        <path
           style="fill:none;stroke:#000000;stroke-width:0.5;stroke-linecap:butt;stroke-linejoin:miter;stroke-miterlimit:4;stroke-dasharray:none;stroke-opacity:1"
           d="m 110.02674,136.94928 c -0.0363,0.34941 0.0989,0.8816 0.24483,0.88156 0.1459,-4e-5 0.29942,-0.53219 0.27527,-0.88156 z"
           id="path4916-4" />
        <path
           transform="matrix(0.82972695,0,0,0.82972695,25.71326,14.973443)"
           style="fill:none;stroke:#000000;stroke-width:0.60260791;stroke-linecap:butt;stroke-linejoin:miter;stroke-miterlimit:4;stroke-dasharray:none;stroke-opacity:1"
           d="m 101.52919,142.87733 c -0.19614,-0.19211 -0.19614,-0.57608 -2.6e-4,-0.76793 0.19587,-0.19185 0.5879,-0.19185 0.78364,-1.3e-4 0.19575,0.19172 0.19575,0.57595 1e-5,0.76807 -0.19575,0.19211 -0.58724,0.19211 -0.78339,-1e-5 z"
           id="path4922-8" />
      </g>
      <g
         transform="matrix(0.76327849,0,0,0.76327849,84.872513,-66.832966)"
         id="g5048">
        <rect
           id="rect4980"
           height="2.0251207"
           width="0.22489583"
           y="135.75969"
           x="119.61154"
           class="fil0 str0"
           style="clip-rule:evenodd;fill:#000000;fill-rule:evenodd;stroke:#000000;stroke-width:0.07056437;image-rendering:optimizeQuality;shape-rendering:geometricPrecision;text-rendering:geometricPrecision" />
        <rect
           id="rect4982"
           height="2.0251207"
           width="0.22489583"
           y="135.75969"
           x="118.89478"
           class="fil0 str0"
           style="clip-rule:evenodd;fill:#000000;fill-rule:evenodd;stroke:#000000;stroke-width:0.07056437;image-rendering:optimizeQuality;shape-rendering:geometricPrecision;text-rendering:geometricPrecision" />
        <polygon
           id="polygon4984"
           points="19231,10336 19231,9040 15041,9040 15041,8046 13485,9645 15041,11373 15041,10336 "
           class="fil0 str0"
           style="clip-rule:evenodd;fill:#000000;fill-rule:evenodd;stroke:#000000;stroke-width:266.70001221;image-rendering:optimizeQuality;shape-rendering:geometricPrecision;text-rendering:geometricPrecision"
           transform="matrix(2.6458333e-4,0,0,2.6458333e-4,116.32674,134.11531)" />
        <polygon
           id="polygon4986"
           points="3729,10336 3729,9040 7919,9040 7919,8046 9475,9645 7919,11373 7919,10336 "
           class="fil0 str0"
           style="clip-rule:evenodd;fill:#000000;fill-rule:evenodd;stroke:#000000;stroke-width:266.70001221;image-rendering:optimizeQuality;shape-rendering:geometricPrecision;text-rendering:geometricPrecision"
           transform="matrix(2.6458333e-4,0,0,2.6458333e-4,116.32674,134.11531)" />
      </g>
      <path
         style="clip-rule:evenodd;fill:#000000;fill-rule:evenodd;stroke-width:0.00026458;image-rendering:optimizeQuality;shape-rendering:geometricPrecision;text-rendering:geometricPrecision"
         class="fil0"
         d="m 179.11216,40.723564 h -0.4826 l -0.28734,-0.50403 c -0.95541,-0.27517 -0.9472,0.0762 -0.82708,0.35428 l -0.17436,0.10107 -0.25215,-0.43683 c 0.18256,-0.8173 0.5924,-1.33376 1.11257,-1.9722 l 0.40481,-0.70618 c -0.23944,-0.96493 -0.53975,-0.78211 -0.72019,-0.53895 l -0.17463,-0.10107 0.25215,-0.43657 c 0.79878,-0.25056 1.46553,-0.16139 2.27833,-0.0302 l 0.81253,2.7e-4 c 0.71597,-0.68977 0.39873,-0.85143 0.0979,-0.88636 v -0.20161 h 0.50403 c 0.35084,0.32226 0.5805,0.65987 0.76729,1.03267 v 1.084 c -0.42121,-0.41461 -1.00171,-0.67099 -1.6428,-0.67099 -1.28693,0 -2.32939,1.03161 -2.32939,2.30505 0,0.62521 0.25215,1.19248 0.66093,1.60761 z"
         id="path4988" />
      <path
         style="clip-rule:evenodd;fill:#000000;fill-rule:evenodd;stroke-width:0.00026458;image-rendering:optimizeQuality;shape-rendering:geometricPrecision;text-rendering:geometricPrecision"
         class="fil0"
         d="m 180.81343,38.561914 c 0.32359,0 0.58579,0.26247 0.58579,0.58579 0,0.32359 -0.26247,0.58579 -0.58579,0.58579 -0.32358,0 -0.58578,-0.26247 -0.58578,-0.58579 0,-0.32358 0.26246,-0.58579 0.58578,-0.58579 z"
         id="path4990" />
      <rect
         style="clip-rule:evenodd;fill:#000000;fill-rule:evenodd;stroke-width:0.00026458;image-rendering:optimizeQuality;shape-rendering:geometricPrecision;text-rendering:geometricPrecision"
         class="fil0"
         x="173.55618"
         y="38.240719"
         width="1.4755813"
         height="2.2248812"
         id="rect4992" />
      <rect
         style="clip-rule:evenodd;fill:#000000;fill-rule:evenodd;stroke-width:0.00008371;image-rendering:optimizeQuality;shape-rendering:geometricPrecision;text-rendering:geometricPrecision"
         y="180.64845"
         x="-35.1367"
         class="fil0"
         transform="rotate(-90)"
         width="1.0671134"
         height="1.6089047"
         id="rect853-3" />
    </g>
  </g>
</svg>
