<?xml version="1.0" encoding="UTF-8" standalone="no"?>
<svg
   xmlns:dc="http://purl.org/dc/elements/1.1/"
   xmlns:cc="http://creativecommons.org/ns#"
   xmlns:rdf="http://www.w3.org/1999/02/22-rdf-syntax-ns#"
   xmlns:svg="http://www.w3.org/2000/svg"
   xmlns="http://www.w3.org/2000/svg"
   id="svg8"
   version="1.1"
   viewBox="0 0 6.5272403 6.1504021"
   height="6.1504021mm"
   width="6.5272403mm">
  <defs
     id="defs2" />
  <metadata
     id="metadata5">
    <rdf:RDF>
      <cc:Work
         rdf:about="">
        <dc:format>image/svg+xml</dc:format>
        <dc:type
           rdf:resource="http://purl.org/dc/dcmitype/StillImage" />
        <dc:title></dc:title>
      </cc:Work>
    </rdf:RDF>
  </metadata>
  <g
     transform="translate(-38.313774,-169.9486)"
     id="layer1">
    <g
       id="layer1-0"
       transform="matrix(1.1604629,0,0,1.1604629,478.45023,4.6945186)">
      <g
         transform="translate(-574.95625,106.95925)"
         id="g1079">
        <g
           id="g5221"
           transform="matrix(0,-0.74341724,0.74341724,0,98.464163,97.695567)">
          <rect
             style="clip-rule:evenodd;fill:#000000;fill-rule:evenodd;stroke:#000000;stroke-width:0.07056437;image-rendering:optimizeQuality;shape-rendering:geometricPrecision;text-rendering:geometricPrecision"
             class="fil0 str0"
             x="80.496155"
             y="130.80365"
             width="0.22489583"
             height="2.0251207"
             id="rect5168" />
          <rect
             style="clip-rule:evenodd;fill:#000000;fill-rule:evenodd;stroke:#000000;stroke-width:0.07056437;image-rendering:optimizeQuality;shape-rendering:geometricPrecision;text-rendering:geometricPrecision"
             class="fil0 str0"
             x="79.779396"
             y="130.80365"
             width="0.22489583"
             height="2.0251207"
             id="rect5170" />
          <polygon
             transform="matrix(2.6458333e-4,0,0,2.6458333e-4,77.21135,129.15927)"
             style="clip-rule:evenodd;fill:#000000;fill-rule:evenodd;stroke:#000000;stroke-width:266.70001221;image-rendering:optimizeQuality;shape-rendering:geometricPrecision;text-rendering:geometricPrecision"
             class="fil0 str0"
             points="19231,9040 15041,9040 15041,8046 13485,9645 15041,11373 15041,10336 19231,10336 "
             id="polygon5172" />
          <polygon
             transform="matrix(2.6458333e-4,0,0,2.6458333e-4,77.21135,129.15927)"
             style="clip-rule:evenodd;fill:#000000;fill-rule:evenodd;stroke:#000000;stroke-width:266.70001221;image-rendering:optimizeQuality;shape-rendering:geometricPrecision;text-rendering:geometricPrecision"
             class="fil0 str0"
             points="3729,9040 7919,9040 7919,8046 9475,9645 7919,11373 7919,10336 3729,10336 "
             id="polygon5174" />
        </g>
        <path
           id="path5176"
           d="m 198.77689,40.744298 h -0.35878 l -0.21361,-0.374705 c -0.71027,-0.204566 -0.70417,0.05665 -0.61487,0.263378 l -0.12962,0.07514 -0.18745,-0.324747 c 0.13572,-0.607595 0.4404,-0.99154 0.8271,-1.466167 l 0.30095,-0.524987 c -0.17801,-0.717345 -0.40126,-0.581434 -0.53541,-0.400664 l -0.12982,-0.07514 0.18745,-0.324554 c 0.59383,-0.186271 1.0895,-0.11998 1.69375,-0.02245 l 0.60405,2e-4 c 0.53226,-0.512786 0.29643,-0.632967 0.0728,-0.658935 v -0.14988 h 0.3747 c 0.26082,0.239573 0.43155,0.490559 0.57042,0.767704 v 0.805865 c -0.31314,-0.308228 -0.74469,-0.498826 -1.22129,-0.498826 -0.95672,0 -1.73171,0.766917 -1.73171,1.713614 0,0.464792 0.18746,0.88651 0.49135,1.195125 z"
           class="fil0"
           style="clip-rule:evenodd;fill:#000000;fill-rule:evenodd;stroke-width:0.00019669;image-rendering:optimizeQuality;shape-rendering:geometricPrecision;text-rendering:geometricPrecision" />
        <path
           id="path5178"
           d="m 200.04164,39.13729 c 0.24056,0 0.43549,0.195125 0.43549,0.435486 0,0.240563 -0.19513,0.435487 -0.43549,0.435487 -0.24056,0 -0.43548,-0.195125 -0.43548,-0.435487 0,-0.240555 0.19512,-0.435486 0.43548,-0.435486 z"
           class="fil0"
           style="clip-rule:evenodd;fill:#000000;fill-rule:evenodd;stroke-width:0.00019669;image-rendering:optimizeQuality;shape-rendering:geometricPrecision;text-rendering:geometricPrecision" />
        <rect
           id="rect853-2"
           height="1.6089047"
           width="1.0671134"
           transform="rotate(-90)"
           class="fil0"
           x="-36.511456"
           y="199.6954"
           style="clip-rule:evenodd;fill:#000000;fill-rule:evenodd;stroke-width:0.00008371;image-rendering:optimizeQuality;shape-rendering:geometricPrecision;text-rendering:geometricPrecision" />
      </g>
    </g>
  </g>
</svg>
