<?xml version="1.0" encoding="UTF-8"?>
<!DOCTYPE svg PUBLIC "-//W3C//DTD SVG 1.1//EN" "http://www.w3.org/Graphics/SVG/1.1/DTD/svg11.dtd">
<!-- Creator: CorelDRAW X5 -->
<svg xmlns="http://www.w3.org/2000/svg" xml:space="preserve" width="42px" height="28px" style="shape-rendering:geometricPrecision; text-rendering:geometricPrecision; image-rendering:optimizeQuality; fill-rule:evenodd; clip-rule:evenodd"
viewBox="0 0 42000 28000"
 xmlns:xlink="http://www.w3.org/1999/xlink">
 <defs>
  <style type="text/css">
   <![CDATA[
    .fil0 {fill:black}
   ]]>
  </style>
 </defs>
 <g id="Слой_x0020_1">
  <metadata id="CorelCorpID_0Corel-Layer"/>
  <g id="_300584504">
   <g>
    <path class="fil0" d="M31543 18831l997 -1757c1891,-2321 3381,-4199 4045,-7170l-916 -1587 -635 366c437,1010 513,2245 -2960,1244l-1540 -2489c-1064,-2798 -1946,-5028 -4187,-7088l-1833 0 0 733c1094,127 2247,715 -356,3222l-2953 -1c-2956,-478 -5378,-802 -8283,109l-916 1587 635 367c657,-884 1749,-1548 2619,1960l-1472 2567c-1891,2321 -3381,4199 -4045,7170l916 1587 635 -366c-437,-1010 -467,-2288 3007,-1288l1493 2533c1064,2798 1946,5028 4187,7088l1833 0 0 -733c-1093,-127 -2220,-740 383,-3248l2979 -1c2955,478 5327,829 8231,-82l916 -1587 -635 -367c-656,884 -1748,1548 -2618,-1960l492 -839m-8397 3559c4676,0 8468,-3751 8468,-8376 0,-4629 -3792,-8379 -8468,-8379 -4678,0 -8468,3750 -8468,8379 0,4625 3790,8376 8468,8376z"/>
    <path class="fil0" d="M23163 11811c1200,0 2173,973 2173,2173 0,1200 -973,2173 -2173,2173 -1200,0 -2173,-973 -2173,-2173 0,-1200 973,-2173 2173,-2173z"/>
   </g>
   <rect class="fil0" transform="matrix(-1.40765E-014 -0.339249 -0.379653 6.41793E-015 9575.91 27617.2)" width="22225" height="10372"/>
  </g>
 </g>
</svg>
