<svg width="52" height="47" viewBox="0 0 52 47" fill="none" xmlns="http://www.w3.org/2000/svg">
<path d="M10.2972 28.6759V27.1394H0.311035V28.6759H5.39218H10.2972Z" fill="black"/>
<path d="M5.28212 42.6998L1.52343 38.9411L0.439453 40.0278L5.21979 44.8081L5.82682 44.3285L10.1709 39.9844L9.08688 38.8977L5.28212 42.6998Z" fill="black"/>
<path d="M0.439453 33.4995L1.52343 34.5862L5.32819 30.7841L9.08688 34.5428L10.1709 33.4562L5.39323 28.6758L4.78349 29.1528L0.439453 33.4995Z" fill="black"/>
<path d="M36.7029 20.5023L26.9905 24.4208L21.95 26.4587V26.4533L16.4434 28.6754H51.6889V20.5023H36.7029Z" fill="black"/>
<path d="M43.3287 30.9791H40.2556V44.8187H34.1094V30.9791H31.0391V44.8187H24.8929V30.9791H21.8198V44.8187H15.6737V26.3559C15.6737 23.6758 17.2671 21.413 19.1506 21.413V18.3507C17.8872 18.3635 16.6639 18.7964 15.6737 19.581V14.8495C15.6737 12.1666 17.2671 9.90114 19.1506 9.90114V6.82806C17.1398 6.82806 15.3404 7.94456 14.1372 9.69518C12.9367 7.94456 11.1345 6.82806 9.12648 6.82806V9.90114C11.0099 9.90114 12.6006 12.1666 12.6006 14.8495V19.581C11.6115 18.7966 10.3889 18.3646 9.12648 18.3534V21.4238C11.0099 21.4238 12.6006 23.6893 12.6006 26.3722V44.8187H0.311035V46.3309H47.9383V44.8187H43.3314L43.3287 30.9791Z" fill="black"/>
<path d="M21.8201 8.08823V13.5867C20.8295 12.803 19.6063 12.3711 18.3433 12.3591V15.4322C20.2267 15.4322 21.8174 17.695 21.8201 20.3751V23.7761L24.8932 22.5349V20.3941C24.8932 17.7112 26.4839 15.4457 28.3673 15.4457V12.3591C27.1049 12.3703 25.8824 12.8023 24.8932 13.5867V8.08823C24.8932 5.4081 26.4839 3.14259 28.3673 3.14259V0.069519C26.3593 0.069519 24.5599 1.18601 23.3458 2.93664C22.1534 1.18601 20.3649 0.069519 18.3433 0.069519V3.14259C20.2294 3.14259 21.8201 5.4081 21.8201 8.08823Z" fill="black"/>
</svg>
