<?xml version="1.0" encoding="UTF-8" standalone="no"?>
<svg
   xmlns:dc="http://purl.org/dc/elements/1.1/"
   xmlns:cc="http://creativecommons.org/ns#"
   xmlns:rdf="http://www.w3.org/1999/02/22-rdf-syntax-ns#"
   xmlns:svg="http://www.w3.org/2000/svg"
   xmlns="http://www.w3.org/2000/svg"
   width="2.6595798mm"
   height="4.9996963mm"
   viewBox="0 0 2.6595798 4.9996963"
   version="1.1"
   id="svg8">
  <defs
     id="defs2">
    <clipPath
       clipPathUnits="userSpaceOnUse"
       id="clipPath846">
      <g
         id="use848">
        <path
           id="path854"
           d="m -297.34578,-37.23351 c -13.70346,-0.16711 -14.52094,-0.21348 -15.54912,-0.88194 -1.56421,-1.01696 -3.14797,-2.4026 -3.43611,-3.006269 -0.13691,-0.28683 -0.55307,-0.99776 -0.92481,-1.57985 -0.65995,-1.03337 -0.67589,-2.6477 -0.67589,-68.438881 0,-66.0696 0.0133,-67.40115 0.68388,-68.43889 0.37614,-0.58208 0.77094,-1.29646 0.87733,-1.5875 0.31135,-0.8517 2.86411,-2.49608 4.21537,-2.71536 0.6845,-0.11108 1.32943,-0.33931 1.43318,-0.50719 0.2487,-0.40239 243.462736,-0.40118 243.711426,0.001 0.10417,0.16854 0.84364,0.41106 1.64328,0.53893 0.79964,0.12786 1.68408,0.46268 1.96543,0.74403 0.28136,0.28135 0.78165,0.71352 1.11176,0.96038 0.98591,0.73726 2.364446,2.81228 3.001239,4.51757 0.535477,1.43398 0.59721,3.68382 0.59721,21.76559 v 20.1663 l 8.111194,0.10663 8.111194,0.10663 0.972834,1.04986 0.972834,1.04985 v 25.23209 25.23209 l -1.134639,1.14653 -1.134636,1.146521 h -7.949392 -7.949389 v 17.92883 c 0,15.86143 -0.06831,18.12929 -0.592363,19.66731 -0.605766,1.77797 -3.026356,4.737349 -3.874746,4.737349 -0.25948,0 -0.47178,0.14732 -0.47178,0.32739 0,0.18007 -0.83344,0.4245 -1.85208,0.54318 -2.26792,0.26424 -211.686126,0.43382 -231.863206,0.18776 z m 229.747476,-73.46597 -0.0891,-64.64653 -120.455456,-0.0887 c -68.47234,-0.0504 -120.58865,0.0445 -120.76407,0.21989 -0.35338,0.35338 -0.41062,127.645171 -0.0578,128.564571 0.21474,0.5596 7.84186,0.5973 120.84241,0.5973 h 120.613196 z m -233.214136,57.135711 -1.64861,-1.51358 v -55.283641 c 0,-36.62056 0.11909,-55.28363 0.35277,-55.28363 0.19403,0 0.35806,-0.19843 0.36452,-0.44097 0.0199,-0.74829 1.25816,-1.97959 2.2381,-2.22554 0.51251,-0.12863 1.01907,-0.37503 1.1257,-0.54757 0.25476,-0.4122 31.79972,-0.4122 32.05447,0 0.10664,0.17254 0.62254,0.42129 1.14645,0.55278 1.03729,0.26034 2.2291,1.42917 2.2291,2.18611 0,0.26136 0.15875,0.47519 0.35278,0.47519 0.23368,0 0.35277,18.63753 0.35277,55.20704 v 55.207041 l -0.78899,0.90742 c -0.43395,0.49909 -1.28612,1.21467 -1.89372,1.59018 -1.05138,0.64979 -1.90482,0.68276 -17.67073,0.68276 h -16.566 z m 48.09305,0.98443 c -0.24154,-0.29104 -0.65785,-0.52917 -0.92513,-0.52917 -0.26729,0 -0.48598,-0.18594 -0.48598,-0.41319 0,-0.22726 -0.27781,-0.72015 -0.61736,-1.09532 -0.58126,-0.64223 -0.62354,-3.81068 -0.72307,-54.179161 -0.0581,-29.42338 -0.01,-54.30632 0.10687,-55.29544 0.16537,-1.39896 0.48249,-2.08453 1.42786,-3.0868 0.6684,-0.70863 1.53312,-1.28842 1.9216,-1.28842 0.38848,0 0.70633,-0.15875 0.70633,-0.35278 0,-0.4852 31.62652,-0.4852 31.92638,0 0.11992,0.19403 0.52761,0.35278 0.90598,0.35278 0.83356,0 2.48687,1.57377 3.07495,2.92702 0.63048,1.45084 0.62264,108.785271 -0.008,110.209851 -0.51341,1.15965 -1.09464,1.8174 -2.35064,2.66011 -0.83961,0.56333 -2.329,0.61523 -17.71861,0.61736 -14.50664,0.002 -16.86195,-0.07 -17.24113,-0.52684 z m 47.14624,0 c -0.29105,-0.29104 -0.68773,-0.52917 -0.88153,-0.52917 -0.19379,0 -0.76076,-0.86329 -1.25992,-1.91843 l -0.90756,-1.91843 v -53.623251 c 0,-35.36829 0.12009,-53.69747 0.35277,-53.84128 0.19403,-0.11991 0.35278,-0.52081 0.35278,-0.89089 0,-0.97324 2.13623,-3.16605 3.08437,-3.16605 0.4379,0 0.79619,-0.15875 0.79619,-0.35278 0,-0.44946 31.62467,-0.4882 31.90224,-0.0391 0.10663,0.17254 0.62262,0.42131 1.14663,0.55283 1.05469,0.26471 2.50285,1.74466 2.7767,2.83764 0.0972,0.38806 0.13281,25.47057 0.0791,55.73892 l -0.0977,55.033361 -0.72697,0.72694 c -2.02127,2.02119 -0.994,1.91883 -19.25827,1.91883 -14.48932,0 -16.90323,-0.0736 -17.35881,-0.52916 z"
           style="fill:#000000;stroke-width:0.35277778" />
      </g>
    </clipPath>
  </defs>
  <metadata
     id="metadata5">
    <rdf:RDF>
      <cc:Work
         rdf:about="">
        <dc:format>image/svg+xml</dc:format>
        <dc:type
           rdf:resource="http://purl.org/dc/dcmitype/StillImage" />
        <dc:title></dc:title>
      </cc:Work>
    </rdf:RDF>
  </metadata>
  <path
     id="path837"
     d="m 0.9244967,6e-7 -0.01912,0.01757 -0.018604,0.01757 -0.00207,0.1462443 -0.00207,0.1462443 H 0.5193472 c -0.3259,0 -0.3663741,6.653e-4 -0.3922242,0.010335 -0.0307,0.01148 -0.068349,0.03649 -0.081649,0.05426 -0.004,0.0059 -0.011953,0.015084 -0.017053,0.020154 -0.005,0.0051 -0.011136,0.02073 -0.013436,0.03514 -0.002,0.01441 -0.00734,0.028092 -0.010335,0.029972 C 6.5e-4,0.4796902 0,1.5766957 0,2.6737386 h 5.167e-4 c -1e-5,1.097043 0.00165,2.1940073 0.00465,2.1962483 0.003,0.0019 0.0073,0.013498 0.0093,0.025838 0.004,0.02436 0.033276,0.070345 0.048576,0.075965 0.005,0.0019 0.018439,0.0092 0.028939,0.01602 0.0187,0.01209 0.042677,0.011885 1.2335163,0.011886 1.1858201,0 1.2148965,3e-7 1.2335166,-0.011886 0.0105,-0.0067 0.023222,-0.014077 0.028422,-0.016536 0.0109,-0.0052 0.03596,-0.033822 0.05426,-0.062012 0.012,-0.01853 0.01302,-0.033609 0.01602,-0.280603 0.004,-0.3636711 8.993e-4,-4.1381952 -0.0031,-4.1790732 -0.002,-0.01836 -0.00734,-0.033073 -0.010335,-0.033073 -0.003,0 -0.00568,-0.00408 -0.00568,-0.00879 0,-0.01529 -0.053166,-0.058843 -0.085266,-0.069763 -0.0277,-0.0094 -0.06862,-0.010335 -0.3545004,-0.010335 h -0.3235 V 0.1839687 0.040825 L 1.8546642,0.020154 1.8339932,0 H 1.3792407 Z m 1.5750976,0.4862753 v 2.1740275 c 0,2.036722 -8.819e-4,2.1742905 -0.010852,2.1781614 -0.0166,0.0064 -2.3108012,0.00527 -2.3171713,-0.00103 -0.002,-0.0024 -0.00413,-0.5312047 -0.00413,-1.3161986 l -5.167e-4,-5.167e-4 c -9e-5,-0.2616642 -2.101e-4,-0.5513599 0,-0.8598958 l 0.00207,-2.1714438 1.1653032,-0.00155 z"
     style="fill:#eb2a2a;fill-opacity:1;stroke-width:0.00635847" />
  <rect
     y="3.9245589"
     x="0.66313487"
     height="0.50935435"
     width="1.3333099"
     id="rect827"
     style="opacity:1;vector-effect:none;fill:#eb2a2a;fill-opacity:1;fill-rule:nonzero;stroke:#34a817;stroke-width:0;stroke-linecap:square;stroke-linejoin:round;stroke-miterlimit:4;stroke-dasharray:none;stroke-dashoffset:0;stroke-opacity:1;paint-order:stroke fill markers" />
</svg>
