<?xml version="1.0" encoding="UTF-8"?>
<!DOCTYPE svg PUBLIC "-//W3C//DTD SVG 1.1//EN" "http://www.w3.org/Graphics/SVG/1.1/DTD/svg11.dtd">
<!-- Creator: CorelDRAW X5 -->
<svg xmlns="http://www.w3.org/2000/svg" xml:space="preserve" width="42px" height="28px" style="shape-rendering:geometricPrecision; text-rendering:geometricPrecision; image-rendering:optimizeQuality; fill-rule:evenodd; clip-rule:evenodd"
viewBox="0 0 42000 28000"
 xmlns:xlink="http://www.w3.org/1999/xlink">
 <defs>
  <style type="text/css">
   <![CDATA[
    .fil0 {fill:#FEBE12}
    .fil1 {fill:#FEBE12;fill-rule:nonzero}
   ]]>
  </style>
 </defs>
 <g id="Слой_x0020_1">
  <metadata id="CorelCorpID_0Corel-Layer"/>
  <g id="_239204112">
   <path class="fil0" d="M20059 6082c-545,630 -2345,2993 -2787,3369l0 12317 12152 0 0 -11763 1243 -753 -1798 -2498 -1356 632 -1126 -1305 -6328 0zm647 1309c-455,527 -1812,2369 -2181,2684l0 10408 9665 0 -11 -10995 827 -396 -755 -1052 -1329 622 -1101 -1270 -5116 0z"/>
   <path class="fil1" d="M12107 12441l5142 2938 -2756 1611c-1015,583 -2009,1175 -3008,1759l-51 0 0 -8041 673 0 0 1733zm0 5313l4106 -2359 -4106 -2346 0 4705z"/>
  </g>
 </g>
</svg>
