<?xml version="1.0" encoding="UTF-8"?>
<!DOCTYPE svg PUBLIC "-//W3C//DTD SVG 1.1//EN" "http://www.w3.org/Graphics/SVG/1.1/DTD/svg11.dtd">
<!-- Creator: CorelDRAW X5 -->
<svg xmlns="http://www.w3.org/2000/svg" xml:space="preserve" width="42px" height="28px" style="shape-rendering:geometricPrecision; text-rendering:geometricPrecision; image-rendering:optimizeQuality; fill-rule:evenodd; clip-rule:evenodd"
viewBox="0 0 42000 28000"
 xmlns:xlink="http://www.w3.org/1999/xlink">
 <defs>
  <style type="text/css">
   <![CDATA[
    .str0 {stroke:black;stroke-width:266.7}
    .fil0 {fill:black}
   ]]>
  </style>
 </defs>
 <g id="Слой_x0020_1">
  <metadata id="CorelCorpID_0Corel-Layer"/>
  <g id="_251040592">
   <path class="fil0 str0" d="M12818 1490c-523,605 -2245,2852 -2669,3213l0 11826 11668 0 0 -11295 1193 -722 -1727 -2398 -1302 607 -1081 -1253 -6082 21zm628 1235c-437,505 -1739,2275 -2094,2577l0 9993 9280 0 -11 -10557 795 -380 -725 -1010 -1276 597 -1057 -1219 -4912 0z"/>
   <path class="fil0" d="M31683 14135c0,1212 -983,2195 -2195,2195 -1212,0 -2195,-983 -2195,-2195m7740 0l-11091 0 0 -5064 2774 0 0 -1868 -5250 3 0 -1232 13568 0 0 1234 -2773 -5 0 1868 2773 0m-7105 -1871l3108 11 0 1861 -3108 0 0 -1872zm-2762 3100l8643 0 0 2617 -8643 0 0 -2617zm5612 3835c0,714 -579,1293 -1293,1293 -714,0 -1293,-579 -1293,-1293"/>
  </g>
 </g>
</svg>
