<?xml version="1.0" encoding="UTF-8" standalone="no"?>
<!-- Creator: CorelDRAW X5 -->

<svg
   xmlns:dc="http://purl.org/dc/elements/1.1/"
   xmlns:cc="http://creativecommons.org/ns#"
   xmlns:rdf="http://www.w3.org/1999/02/22-rdf-syntax-ns#"
   xmlns:svg="http://www.w3.org/2000/svg"
   xmlns="http://www.w3.org/2000/svg"
   xmlns:sodipodi="http://sodipodi.sourceforge.net/DTD/sodipodi-0.dtd"
   xmlns:inkscape="http://www.inkscape.org/namespaces/inkscape"
   xml:space="preserve"
   width="8mm"
   height="8mm"
   style="clip-rule:evenodd;fill-rule:evenodd;image-rendering:optimizeQuality;shape-rendering:geometricPrecision;text-rendering:geometricPrecision"
   viewBox="0 0 80000 80000"
   id="svg2"
   version="1.1"
   inkscape:version="0.91 r13725"
   sodipodi:docname="MetalDetectorFailure_off.svg"><metadata
     id="metadata43"><rdf:RDF><cc:Work
         rdf:about=""><dc:format>image/svg+xml</dc:format><dc:type
           rdf:resource="http://purl.org/dc/dcmitype/StillImage" /><dc:title></dc:title></cc:Work></rdf:RDF></metadata><sodipodi:namedview
     pagecolor="#ffffff"
     bordercolor="#666666"
     borderopacity="1"
     objecttolerance="10"
     gridtolerance="10"
     guidetolerance="10"
     inkscape:pageopacity="0"
     inkscape:pageshadow="2"
     inkscape:window-width="1920"
     inkscape:window-height="1018"
     id="namedview41"
     showgrid="true"
     showguides="true"
     inkscape:zoom="16.651111"
     inkscape:cx="8.5914191"
     inkscape:cy="5.7264838"
     inkscape:window-x="1912"
     inkscape:window-y="-8"
     inkscape:window-maximized="1"
     inkscape:current-layer="svg2"><inkscape:grid
       type="xygrid"
       id="grid3426" /></sodipodi:namedview><defs
     id="defs4"><style
       type="text/css"
       id="style6"><![CDATA[
    .str0 {stroke:black;stroke-width:762}
    .str1 {stroke:black;stroke-width:2646}
    .fil0 {fill:black}
   ]]></style></defs><path
     inkscape:connector-curvature="0"
     class="fil0"
     d="m 79384.849,12973.693 c 0,1351.56 -236.71,3146.001 -710.12,5378.237 -491.27,2216.962 -1081.77,4841.174 -1809.73,7852.274 -694.84,2843.109 -1489.01,6378.542 -2384.93,10626.66 -898.52,4245.574 -1827.55,9491.454 -2827.84,15735.094 l -3805.261,0 C 66846.658,46253.595 65899.811,41010.26 65021.676,36813.047 64123.184,32615.834 63329.049,29098.219 62634.182,26255.11 c -626.145,-2606.396 -1201.386,-5161.884 -1743.54,-7663.921 -524.337,-2489.312 -776.318,-4367.749 -776.318,-5617.496 0,-2555.488 929.039,-4721.5441 2825.291,-6531.258 1878.436,-1794.4426 4146.3,-2690.3908 6785.789,-2690.3908 2603.845,0 4871.735,895.9482 6783.245,2690.3908 1929.35,1809.7139 2876.2,3975.77 2876.2,6531.258 z m -101.79,54769.936 c 0,2504.582 -946.85,4670.64 -2840.56,6462.536 -1896.25,1812.259 -4128.51,2708.21 -6666.187,2708.21 -2573.305,0 -4823.358,-895.951 -6719.611,-2708.21 -1893.712,-1791.896 -2858.386,-3957.954 -2858.386,-6462.536 0,-2504.583 964.674,-4685.913 2858.386,-6513.443 1896.253,-1845.349 4146.306,-2759.115 6719.611,-2759.115 2537.677,0 4769.937,913.766 6666.167,2759.115 1893.71,1827.53 2840.56,4008.86 2840.56,6513.443 z"
     id="path11-0"
     style="clip-rule:evenodd;opacity:1;fill:#b3b3b3;fill-opacity:1;fill-rule:evenodd;stroke:#b3b3b3;stroke-width:0;stroke-miterlimit:4;stroke-dasharray:none;stroke-opacity:1;image-rendering:optimizeQuality;shape-rendering:geometricPrecision;text-rendering:geometricPrecision" /><g
     transform="translate(-30365.859,216.57138)"
     style="clip-rule:evenodd;fill:#b3b3b3;fill-opacity:1;fill-rule:evenodd;stroke:#b3b3b3;stroke-opacity:1;image-rendering:optimizeQuality;shape-rendering:geometricPrecision;text-rendering:geometricPrecision"
     id="Слой_x0020_1"><metadata
       id="CorelCorpID_0Corel-Layer" /><g
       id="_306378184"
       style="fill:#b3b3b3;fill-opacity:1;stroke:#b3b3b3;stroke-opacity:1"><path
         inkscape:connector-curvature="0"
         class="fil0 str0"
         d="m 61063,28018 c -5240,-5227 -5234,-13720 0,-18954 5234,-5234 13762,-5227 18991,12 5229,5239 5128,13797 -37,18942 -5165,5146 -13715,5228 -18954,0 z m -1285,5672 -4388,-4388 3734,-3733 c 1132,1847 2677,3358 4389,4389 l -3735,3732 z m 25999,-4428 -4387,4388 -3751,-3751 c 1796,-1121 3254,-2561 4382,-4394 l 3756,3757 z M 55449,7720 59836,3332 63585,7081 c -1854,1136 -3315,2600 -4416,4359 L 55449,7720 Z m 25884,-4339 4388,4388 -3747,3743 C 80843,9740 79422,8189 77583,7132 L 81333,3381 Z M 67429,185 l 6205,0 9,5318 c -2157,-503 -4152,-525 -6185,-8 l -29,-5310 z m 6212,36717 -6205,0 0,-5313 c 2128,460 4188,373 6206,-7 l -1,5320 z m 15272,-21454 0,6206 -5344,-10 c 426,-2005 543,-4086 14,-6196 l 5330,0 z m -36724,6181 -1,-6205 5313,0 c -474,2137 -562,4206 0,6206 l -5312,-1 z m 11649,3617 c -3645,-3697 -3908,-9712 1,-13414 3908,-3703 9848,-3661 13414,0 3567,3660 3960,9730 1,13415 -3959,3685 -9770,3697 -13416,-1 z"
         id="path11"
         style="fill:#b3b3b3;fill-opacity:1;stroke:#b3b3b3;stroke-width:762;stroke-opacity:1" /><path
         inkscape:connector-curvature="0"
         class="fil0 str0"
         d="m 61063,70618 c -5240,-5227 -5234,-13720 0,-18954 5234,-5234 13762,-5228 18991,11 5229,5240 5128,13797 -37,18943 -5165,5146 -13715,5227 -18954,0 z m -1285,5672 -4388,-4388 3734,-3734 c 1132,1848 2677,3359 4389,4389 l -3735,3733 z m 25999,-4428 -4387,4387 -3751,-3750 c 1796,-1121 3254,-2561 4382,-4394 l 3756,3757 z m -30328,-21542 4387,-4388 3749,3748 c -1854,1137 -3315,2600 -4416,4360 l -3720,-3720 z m 25884,-4339 4388,4388 -3747,3742 c -1131,-1771 -2552,-3322 -4391,-4379 l 3750,-3751 z m -13904,-3196 6205,0 9,5317 c -2157,-502 -4152,-525 -6185,-7 l -29,-5310 z m 6212,36717 -6205,0 0,-5313 c 2128,460 4188,373 6206,-8 l -1,5321 z m 15272,-21454 0,6205 -5344,-9 c 426,-2006 543,-4087 14,-6196 l 5330,0 z m -36724,6181 -1,-6205 5313,0 c -474,2137 -562,4206 0,6205 l -5312,0 z m 11649,3617 c -3645,-3697 -3908,-9712 1,-13415 3908,-3702 9848,-3660 13414,0 3567,3660 3960,9730 1,13416 -3959,3685 -9770,3697 -13416,-1 z"
         id="path13"
         style="fill:#b3b3b3;fill-opacity:1;stroke:#b3b3b3;stroke-width:762;stroke-opacity:1" /></g></g><path
     inkscape:connector-curvature="0"
     class="fil0 str1"
     d="m 22353.374,27146.234 c 7.987,310 -11.994,2504 -20.997,2816 -221,8281 936,14669 -2807,18863 -2139,2396 -4670,2618 -7457,2618 -2802.0001,0 -5317.0001,-208.001 -7473.0001,-2618 -3724.001,-4164 -2580,-10545 -2796,-18863 -8.001,-313 14.001,-2506 21,-2816 l 5650,0 c -1,927 2,7842 6.012,7982 99,3701 -418,6556 1255,8431 956,1071 2087.0001,1170 3332.9991,1170 1252,0 2377.001,-93.001 3340,-1170 1664.986,-1861 1250.986,-4712 1249.986,-8431 l -2,-4180 -6.011,-3812 5707,9.999 z m 0,0 c 7.987,310 -11.994,2504 -20.997,2816 -221,8281 936,14669 -2807,18863 -2133.003,2390 -4656.003,2617 -7434.003,2618 l 0,-6714 c 1242,-1 2357,-101 3313,-1170 1665,-1861 1251,-4712 1250,-8431 l -2,-4180 -6.011,-3812 5707,9.999 z"
     id="path15-1"
     style="clip-rule:evenodd;fill:#b3b3b3;fill-opacity:1;fill-rule:evenodd;stroke:#b3b3b3;stroke-width:2646;stroke-opacity:1;image-rendering:optimizeQuality;shape-rendering:geometricPrecision;text-rendering:geometricPrecision"
     inkscape:transform-center-x="-13220.365"
     inkscape:transform-center-y="3899.2292" /></svg>