<?xml version="1.0" encoding="UTF-8" standalone="no"?>
<!-- Creator: CorelDRAW X5 -->

<svg
   xmlns:dc="http://purl.org/dc/elements/1.1/"
   xmlns:cc="http://creativecommons.org/ns#"
   xmlns:rdf="http://www.w3.org/1999/02/22-rdf-syntax-ns#"
   xmlns:svg="http://www.w3.org/2000/svg"
   xmlns="http://www.w3.org/2000/svg"
   xmlns:sodipodi="http://sodipodi.sourceforge.net/DTD/sodipodi-0.dtd"
   xmlns:inkscape="http://www.inkscape.org/namespaces/inkscape"
   xml:space="preserve"
   width="8mm"
   height="8mm"
   style="clip-rule:evenodd;fill-rule:evenodd;image-rendering:optimizeQuality;shape-rendering:geometricPrecision;text-rendering:geometricPrecision"
   viewBox="0 0 80000 80000"
   id="svg2"
   version="1.1"
   inkscape:version="0.91 r13725"
   sodipodi:docname="MetalDetectorNonActivate_off.svg"><metadata
     id="metadata43"><rdf:RDF><cc:Work
         rdf:about=""><dc:format>image/svg+xml</dc:format><dc:type
           rdf:resource="http://purl.org/dc/dcmitype/StillImage" /><dc:title></dc:title></cc:Work></rdf:RDF></metadata><sodipodi:namedview
     pagecolor="#ffffff"
     bordercolor="#666666"
     borderopacity="1"
     objecttolerance="10"
     gridtolerance="10"
     guidetolerance="10"
     inkscape:pageopacity="0"
     inkscape:pageshadow="2"
     inkscape:window-width="1920"
     inkscape:window-height="1058"
     id="namedview41"
     showgrid="true"
     inkscape:zoom="16"
     inkscape:cx="14.122293"
     inkscape:cy="11.622425"
     inkscape:window-x="-8"
     inkscape:window-y="-8"
     inkscape:window-maximized="1"
     inkscape:current-layer="svg2"
     showguides="true"><inkscape:grid
       type="xygrid"
       id="grid4139" /></sodipodi:namedview><defs
     id="defs4"><style
       type="text/css"
       id="style6"><![CDATA[
    .str2 {stroke:black;stroke-width:762}
    .str0 {stroke:#B3B3B3;stroke-width:762}
    .str1 {stroke:#B3B3B3;stroke-width:1764}
    .str3 {stroke:black;stroke-width:2646}
    .fil1 {fill:black}
    .fil0 {fill:#B3B3B3}
   ]]></style><filter
       inkscape:collect="always"
       style="color-interpolation-filters:sRGB"
       id="filter4185"
       x="-0.0098999999"
       width="1.0197999"
       y="-0.015230769"
       height="1.0304615"><feGaussianBlur
         inkscape:collect="always"
         stdDeviation="465.66667"
         id="feGaussianBlur4187" /></filter><filter
       inkscape:collect="always"
       style="color-interpolation-filters:sRGB"
       id="filter4189"
       x="-0.0098999999"
       width="1.0197999"
       y="-0.015230769"
       height="1.0304615"><feGaussianBlur
         inkscape:collect="always"
         stdDeviation="465.66667"
         id="feGaussianBlur4191" /></filter></defs><g
     id="Слой_x0020_1"
     transform="matrix(0.98220336,0,0,0.98237959,-20812.299,1118.1449)"
     style="opacity:0.9;fill:#b3b3b3;stroke:#b3b3b3"><metadata
       id="CorelCorpID_0Corel-Layer" /><g
       id="_306378184"
       style="fill:#b3b3b3;stroke:#b3b3b3"><path
         class="fil0 str0"
         d="m 61063,28018 c -5240,-5227 -5234,-13720 0,-18954 5234,-5234 13762,-5227 18991,12 5229,5239 5128,13797 -37,18942 -5165,5146 -13715,5228 -18954,0 z m -1285,5672 -4388,-4388 3734,-3733 c 1132,1847 2677,3358 4389,4389 l -3735,3732 z m 25999,-4428 -4387,4388 -3751,-3751 c 1796,-1121 3254,-2561 4382,-4394 l 3756,3757 z M 55449,7720 59836,3332 63585,7081 c -1854,1136 -3315,2600 -4416,4359 L 55449,7720 Z m 25884,-4339 4388,4388 -3747,3743 C 80843,9740 79422,8189 77583,7132 L 81333,3381 Z M 67429,185 l 6205,0 9,5318 c -2157,-503 -4152,-525 -6185,-8 l -29,-5310 z m 6212,36717 -6205,0 0,-5313 c 2128,460 4188,373 6206,-7 l -1,5320 z m 15272,-21454 0,6206 -5344,-10 c 426,-2005 543,-4086 14,-6196 l 5330,0 z m -36724,6181 -1,-6205 5313,0 c -474,2137 -562,4206 0,6206 l -5312,-1 z m 11649,3617 c -3645,-3697 -3908,-9712 1,-13414 3908,-3703 9848,-3661 13414,0 3567,3660 3960,9730 1,13415 -3959,3685 -9770,3697 -13416,-1 z"
         id="path11"
         inkscape:connector-curvature="0"
         style="fill:#b3b3b3;stroke:#b3b3b3;stroke-width:762" /><path
         class="fil0 str0"
         d="m 61063,70618 c -5240,-5227 -5234,-13720 0,-18954 5234,-5234 13762,-5228 18991,11 5229,5240 5128,13797 -37,18943 -5165,5146 -13715,5227 -18954,0 z m -1285,5672 -4388,-4388 3734,-3734 c 1132,1848 2677,3359 4389,4389 l -3735,3733 z m 25999,-4428 -4387,4387 -3751,-3750 c 1796,-1121 3254,-2561 4382,-4394 l 3756,3757 z m -30328,-21542 4387,-4388 3749,3748 c -1854,1137 -3315,2600 -4416,4360 l -3720,-3720 z m 25884,-4339 4388,4388 -3747,3742 c -1131,-1771 -2552,-3322 -4391,-4379 l 3750,-3751 z m -13904,-3196 6205,0 9,5317 c -2157,-502 -4152,-525 -6185,-7 l -29,-5310 z m 6212,36717 -6205,0 0,-5313 c 2128,460 4188,373 6206,-8 l -1,5321 z m 15272,-21454 0,6205 -5344,-9 c 426,-2006 543,-4087 14,-6196 l 5330,0 z m -36724,6181 -1,-6205 5313,0 c -474,2137 -562,4206 0,6205 l -5312,0 z m 11649,3617 c -3645,-3697 -3908,-9712 1,-13415 3908,-3702 9848,-3660 13414,0 3567,3660 3960,9730 1,13416 -3959,3685 -9770,3697 -13416,-1 z"
         id="path13"
         inkscape:connector-curvature="0"
         style="fill:#b3b3b3;stroke:#b3b3b3;stroke-width:762" /><path
         class="fil0 str1"
         d="m 51265,27521 c 8,310 -12,2504 -21,2816 -221,8281 936,14669 -2807,18863 -2139,2396 -4670,2618 -7457,2618 -2802,0 -5317,-208 -7473,-2618 -3724,-4164 -2580,-10545 -2796,-18863 -8,-313 14,-2506 21,-2816 l 5650,0 c -1,927 2,7842 6,7982 99,3701 -418,6556 1255,8431 956,1071 2087,1170 3333,1170 1252,0 2377,-93 3340,-1170 1665,-1861 1251,-4712 1250,-8431 l -2,-4180 -6,-3812 5707,10 z m 0,0 c 8,310 -12,2504 -21,2816 -221,8281 936,14669 -2807,18863 -2133,2390 -4656,2617 -7434,2618 l 0,-6714 c 1242,-1 2357,-101 3313,-1170 1665,-1861 1251,-4712 1250,-8431 l -2,-4180 -6,-3812 5707,10 z"
         id="path15"
         inkscape:connector-curvature="0"
         style="fill:#b3b3b3;stroke:#b3b3b3;stroke-width:1764" /></g></g><path
     style="fill:#b3b3b3;fill-rule:evenodd;stroke:#b3b3b3;stroke-width:2822.22241211px;stroke-linecap:round;stroke-linejoin:round;stroke-opacity:1;filter:url(#filter4189)"
     d="M 25576.39,2565.2778 138465.28,75943.059"
     id="path4141"
     inkscape:connector-curvature="0"
     transform="matrix(0.67373061,0,0,1.0196378,-15131.476,-241.69882)" /><path
     style="fill:#b3b3b3;fill-rule:evenodd;stroke:#b3b3b3;stroke-width:2822.22241211px;stroke-linecap:round;stroke-linejoin:round;stroke-opacity:1;filter:url(#filter4185)"
     d="M 115711.11,3800.0001 2822.2223,77177.781"
     id="path4143"
     inkscape:connector-curvature="0"
     transform="matrix(0.66719572,0,0,1.0197559,586.00435,-1505.4505)" /></svg>