<?xml version="1.0" encoding="UTF-8"?>
<!DOCTYPE svg PUBLIC "-//W3C//DTD SVG 1.1//EN" "http://www.w3.org/Graphics/SVG/1.1/DTD/svg11.dtd">
<!-- Creator: CorelDRAW X5 -->
<svg xmlns="http://www.w3.org/2000/svg" xml:space="preserve" width="12mm" height="8mm" style="shape-rendering:geometricPrecision; text-rendering:geometricPrecision; image-rendering:optimizeQuality; fill-rule:evenodd; clip-rule:evenodd"
viewBox="0 0 120000 80000"
 xmlns:xlink="http://www.w3.org/1999/xlink">
 <defs>
  <style type="text/css">
   <![CDATA[
    .fil0 {fill:black}
    .fil1 {fill:black;fill-rule:nonzero}
   ]]>
  </style>
 </defs>
 <g id="Слой_x0020_1">
  <metadata id="CorelCorpID_0Corel-Layer"/>
  <g id="_292546856">
   <path class="fil0" d="M102257 42283l-8823 0 8823 -8806 0 8806zm-18372 0l-9548 0 27920 -27867 0 9531 -18372 18336zm-19097 0l-4925 0 0 -4614 37771 -37700 4623 0 0 4917 -37469 37397zm-4925 -14145l0 -9530 18674 -18639 9548 0 -28222 28169zm0 -19061l0 -9108 9125 0 -9125 9108z"/>
   <path class="fil0" d="M23024 660l24940 0 0 42031 -24940 0 0 -42031zm2433 39805c753,-8319 3582,-13928 7618,-17963l0 -1112c-4036,-4035 -6865,-9645 -7618,-17965l10037 96 10037 -96c-752,8319 -3582,13929 -7618,17963l0 1116c4036,4034 6866,9643 7618,17961l-10037 -96 -10037 96z"/>
   <polygon class="fil0" points="77505,59734 81132,49321 84760,59738 "/>
   <g>
    <path class="fil1" d="M57090 78003l9064 -26023 1068 -3063 1066 3063 9067 26033 522 1499 -1589 -1 -18131 -10 -1588 0 521 -1498zm10131 -22217l-7475 21462 14953 9 -7478 -21471z"/>
    <path class="fil1" d="M85402 78003l9064 -26023 1067 -3063 1067 3063 9067 26033 522 1499 -1589 -1 -18131 -10 -1589 0 522 -1498zm10131 -22217l-7476 21462 14954 9 -7478 -21471z"/>
    <polygon class="fil1" points="67241,47780 95535,47780 95535,50042 67241,50042 "/>
   </g>
   <path class="fil1" d="M18538 53618l35913 0 756 0 0 754 0 17784 0 754 -756 0 -35914 0 -752 0 0 -754 0 -17784 0 -754 753 0zm25380 1509l0 16275 9778 0 0 -16275 -9778 0zm-1512 16275l0 -16275 -10695 0 0 16275 10695 0zm-12206 0l0 -16275 -10910 0 0 16275 10910 0z"/>
   <path class="fil1" d="M40789 69775l-7312 0 0 -1659c524,-498 1021,-975 1488,-1431 467,-455 923,-926 1368,-1420 901,-989 1515,-1783 1843,-2376 329,-596 495,-1212 495,-1846 0,-330 -52,-618 -155,-867 -103,-249 -244,-455 -426,-618 -185,-160 -399,-279 -644,-357 -244,-79 -513,-120 -804,-120 -279,0 -564,35 -855,109 -287,70 -565,160 -831,265 -222,89 -437,198 -643,325 -207,128 -375,236 -502,326l-87 0 0 -1683c328,-166 787,-325 1371,-483 586,-154 1143,-233 1667,-233 1102,0 1968,293 2593,878 627,586 939,1377 939,2377 0,460 -54,886 -163,1279 -108,390 -257,753 -450,1087 -196,344 -432,685 -706,1024 -277,339 -568,672 -877,1000 -497,539 -1054,1100 -1667,1683 -611,583 -1100,1043 -1466,1382l5824 0 0 1358z"/>
   <path class="fil1" d="M48542 59181c-279,0 -559,34 -841,100 -279,70 -556,157 -825,266 -250,104 -468,213 -651,327 -184,114 -349,220 -495,318l-93 0 0 -1641c337,-183 795,-348 1375,-494 580,-149 1131,-223 1658,-223 524,0 982,53 1375,160 391,106 745,270 1062,493 343,250 601,550 777,903 173,354 261,765 261,1238 0,637 -211,1198 -631,1681 -420,481 -926,789 -1511,916l0 109c242,48 503,128 782,242 277,114 538,284 774,507 240,223 434,510 586,858 151,350 226,778 226,1280 0,525 -90,1006 -269,1444 -178,439 -434,826 -761,1164 -338,353 -745,618 -1224,799 -476,183 -1019,273 -1628,273 -580,0 -1157,-69 -1730,-209 -572,-141 -1053,-308 -1442,-508l0 -1641 109 0c328,239 767,468 1317,685 551,218 1102,327 1653,327 316,0 636,-50 955,-151 319,-101 585,-266 798,-494 208,-229 365,-481 474,-755 109,-276 165,-624 165,-1043 0,-420 -61,-765 -184,-1036 -122,-268 -292,-481 -511,-637 -215,-154 -476,-263 -774,-322 -298,-61 -620,-90 -968,-90l-663 0 0 -1291 514 0c702,0 1271,-167 1710,-499 440,-332 657,-812 657,-1447 0,-289 -55,-539 -170,-749 -114,-210 -261,-377 -436,-502 -200,-135 -418,-228 -655,-281 -239,-51 -494,-77 -766,-77z"/>
   <path class="fil1" d="M27906 69775l-5775 0 0 -1206 2148 0 0 -7927 -2148 0 0 -1079c812,0 1409,-113 1795,-343 383,-231 600,-667 649,-1307l1232 0 0 10656 2099 0 0 1206z"/>
  </g>
 </g>
 <g id="Направляющие">
  <metadata id="CorelCorpID_1Corel-Layer"/>
 </g>
</svg>
