<svg width="57" height="57" viewBox="0 0 57 57" fill="none" xmlns="http://www.w3.org/2000/svg">
<path fill-rule="evenodd" clip-rule="evenodd" d="M16.6516 46.2318C20.1586 48.5751 24.2817 49.8259 28.4996 49.8259C34.1533 49.8187 39.5734 47.5695 43.5712 43.5717C47.569 39.5739 49.8181 34.1538 49.8253 28.5001C49.8253 24.2823 48.5746 20.1591 46.2313 16.6521C43.888 13.1451 40.5574 10.4118 36.6606 8.79765C32.7638 7.18356 28.4759 6.76124 24.3391 7.58409C20.2023 8.40695 16.4024 10.438 13.42 13.4205C10.4375 16.403 8.40642 20.2029 7.58356 24.3396C6.7607 28.4764 7.18302 32.7643 8.79712 36.6611C10.4112 40.5579 13.1446 43.8885 16.6516 46.2318ZM17.6024 12.1904C20.8286 10.0372 24.6209 8.88926 28.4996 8.89166C33.6962 8.90047 38.6773 10.9696 42.3508 14.6453C46.0243 18.321 48.0903 23.3034 48.0959 28.5001C48.0959 32.3788 46.9456 36.1704 44.7904 39.3952C42.6353 42.6201 39.5722 45.1333 35.9885 46.6171C32.4048 48.1009 28.4616 48.4885 24.6576 47.7309C20.8536 46.9733 17.3597 45.1046 14.6179 42.3611C11.8761 39.6176 10.0095 36.1225 9.2543 32.3181C8.49907 28.5136 8.88911 24.5706 10.3751 20.9879C11.8611 17.4051 14.3762 14.3435 17.6024 12.1904ZM3.63183 38.799C4.98446 42.0644 6.96704 45.0315 9.46636 47.5307L11.8894 45.0895C7.48728 40.6869 5.01424 34.716 5.01424 28.4901C5.01424 22.2643 7.48728 16.2934 11.8894 11.8908L9.46636 9.46775C6.96704 11.967 4.98446 14.934 3.63183 18.1994C2.2792 21.4648 1.58301 24.9647 1.58301 28.4992C1.58301 32.0337 2.2792 35.5336 3.63183 38.799ZM53.3668 38.7997C52.0134 42.0652 50.0299 45.0321 47.5295 47.5307L45.1065 45.0895C49.5086 40.6869 51.9816 34.716 51.9816 28.4901C51.9816 22.2643 49.5086 16.2934 45.1065 11.8908L47.5295 9.46775C50.0299 11.9663 52.0134 14.9332 53.3668 18.1987C54.7201 21.4642 55.4166 24.9644 55.4166 28.4992C55.4166 32.034 54.7201 35.5342 53.3668 38.7997ZM30.5651 31.2987H24.88V40.5789H21.936V16.4182H30.971C34.6933 16.4182 38.4854 18.7988 38.4975 23.7418C38.5096 28.6848 34.5086 31.2926 30.9255 31.2926L30.5651 31.2987ZM30.868 28.3395C32.8488 28.3395 35.2082 26.1436 35.1265 23.6933C35.0235 20.6009 32.9518 19.3773 30.9679 19.3773L30.765 19.3622H24.88V28.3547H30.5651L30.868 28.3395Z" fill="#F70606"/>
</svg>
