<?xml version="1.0" encoding="UTF-8"?>
<!DOCTYPE svg PUBLIC "-//W3C//DTD SVG 1.1//EN" "http://www.w3.org/Graphics/SVG/1.1/DTD/svg11.dtd">
<!-- Creator: CorelDRAW X5 -->
<svg xmlns="http://www.w3.org/2000/svg" xml:space="preserve" width="12mm" height="8mm" style="shape-rendering:geometricPrecision; text-rendering:geometricPrecision; image-rendering:optimizeQuality; fill-rule:evenodd; clip-rule:evenodd"
viewBox="0 0 120000 80000"
 xmlns:xlink="http://www.w3.org/1999/xlink">
 <defs>
  <style type="text/css">
   <![CDATA[
    .fil0 {fill:black}
   ]]>
  </style>
 </defs>
 <g id="Слой_x0020_1">
  <metadata id="CorelCorpID_0Corel-Layer"/>
  <g id="_298215320">
   <path class="fil0" d="M62298 50831l6968 0 0 2731 -6968 0 0 -2731zm18932 0l6968 0 0 2731 -6968 0 0 -2731zm-9319 0l6968 0 0 2731 -6968 0 0 -2731z"/>
   <path class="fil0" d="M64362 56811l6969 0 0 2731 -6969 0 0 -2731zm18933 0l6968 0 0 2731 -6968 0 0 -2731zm-9319 0l6968 0 0 2731 -6968 0 0 -2731z"/>
   <path class="fil0" d="M66375 62792l6968 0 0 2731 -6968 0 0 -2731zm18932 0l6969 0 0 2731 -6969 0 0 -2731zm-9319 0l6969 0 0 2731 -6969 0 0 -2731z"/>
   <path class="fil0" d="M50533 65523l-3578 0 1790 -1788 1788 1788zm10675 -14225l17 -18 5 18 -22 0zm3626 -3620l19220 -19184 0 12664 -6533 6520 -12687 0zm-37112 16838l0 -5124 8348 -8332 2555 2554 -10903 10902zm17603 -22693l32587 -32525 6142 0 0 6533 -20750 20710 -3805 -3801 -11629 11628 -2545 -2545zm-17603 4905l0 -4016 2010 2009 -2010 2007zm0 -5469l0 -7195 24814 -24766 12687 0 -26236 26187 -2750 -2750 -8515 8524zm0 -19858l0 -12103 12126 0 -12126 12103z"/>
   <path class="fil0" d="M30753 41770l10518 10521 0 2729 -10518 10513 696 704 4520 4514 10517 -10517 2728 0 10516 10517 702 -695 4515 -4523 -10518 -10513 0 -2729 187 -193 10331 -10328 -697 -697 -4520 -4516 -10516 10519 -2728 0 -10517 -10519 -5216 5213zm25475 6346l6402 -6399 -1603 -1604 -4814 4806 15 3197zm-13916 -2842l-6396 -6399 -1607 1605 4809 4805 3194 -11zm-2844 13913l-6399 6399 1607 1609 4808 -4809 -16 -3199zm13915 2846l6398 6402 1609 -1608 -4809 -4808 -3198 14zm-3659 -10253c1030,1033 1030,2718 0,3744 -1032,1036 -2710,1036 -3748,0 -1031,-1026 -1031,-2711 0,-3744 1038,-1029 2716,-1029 3748,0z"/>
  </g>
 </g>
 <g id="Направляющие">
  <metadata id="CorelCorpID_1Corel-Layer"/>
 </g>
</svg>
