<?xml version="1.0" encoding="UTF-8" standalone="no"?>
<!-- Creator: CorelDRAW X5 -->

<svg
   xmlns:dc="http://purl.org/dc/elements/1.1/"
   xmlns:cc="http://creativecommons.org/ns#"
   xmlns:rdf="http://www.w3.org/1999/02/22-rdf-syntax-ns#"
   xmlns:svg="http://www.w3.org/2000/svg"
   xmlns="http://www.w3.org/2000/svg"
   xmlns:sodipodi="http://sodipodi.sourceforge.net/DTD/sodipodi-0.dtd"
   xmlns:inkscape="http://www.inkscape.org/namespaces/inkscape"
   xml:space="preserve"
   width="12mm"
   height="8mm"
   style="shape-rendering:geometricPrecision; text-rendering:geometricPrecision; image-rendering:optimizeQuality; fill-rule:evenodd; clip-rule:evenodd"
   viewBox="0 0 120000 80000"
   id="svg2"
   version="1.1"
   inkscape:version="0.91 r13725"
   sodipodi:docname="PerformanceNumberMetalDetector.svg"><metadata
     id="metadata23"><rdf:RDF><cc:Work
         rdf:about=""><dc:format>image/svg+xml</dc:format><dc:type
           rdf:resource="http://purl.org/dc/dcmitype/StillImage" /></cc:Work></rdf:RDF></metadata><sodipodi:namedview
     pagecolor="#ffffff"
     bordercolor="#666666"
     borderopacity="1"
     objecttolerance="10"
     gridtolerance="10"
     guidetolerance="10"
     inkscape:pageopacity="0"
     inkscape:pageshadow="2"
     inkscape:window-width="1920"
     inkscape:window-height="1018"
     id="namedview21"
     showgrid="false"
     inkscape:zoom="8.3255556"
     inkscape:cx="3.2430265"
     inkscape:cy="14.173228"
     inkscape:window-x="1912"
     inkscape:window-y="-8"
     inkscape:window-maximized="1"
     inkscape:current-layer="svg2" /><defs
     id="defs4"><style
       type="text/css"
       id="style6"><![CDATA[
    .str0 {stroke:black;stroke-width:2646}
    .fil1 {fill:black}
    .fil0 {fill:#2B2A29;fill-rule:nonzero}
   ]]></style></defs><g
     id="Слой_x0020_1"
     style="fill:#000000;stroke:#000000"><metadata
       id="CorelCorpID_0Corel-Layer" /><g
       id="_330362536"
       style="fill:#000000;stroke:#000000"><path
         class="fil0"
         d="M22589 9175l72317 0 1522 0 0 1519 0 22804 -3044 0 0 -21285 -19689 0 0 21285 -3043 0 0 -21285 -21536 0 0 32771 9037 0 0 3038 -35565 0 -1515 0 0 -1519 1 -35809 0 -1519 1515 0zm23484 35809l0 -32771 -21968 0 -1 32771 21969 0z"
         id="path11"
         style="fill:#000000;stroke:#000000" /><path
         class="fil0"
         d="M58153 41709l-5482 0 0 -3340c1055,-1004 2055,-1964 2996,-2881 940,-917 1859,-1866 2755,-2860 1815,-1992 3051,-3590 3712,-4785 662,-1201 996,-2440 996,-3717 0,-665 -103,-1244 -312,-1746 -208,-502 -492,-916 -858,-1244 -372,-322 -804,-562 -1296,-720 -492,-158 -1033,-241 -1618,-241 -563,0 -1137,72 -1722,219 -580,142 -1138,322 -1674,535 -448,179 -880,398 -1295,655 -416,256 -754,474 -1012,655l-174 0 0 -3389c661,-333 1585,-655 2760,-971 1181,-311 2302,-470 3357,-470 2220,0 3964,589 5221,1768 1264,1179 1892,2773 1892,4785 0,928 -109,1785 -328,2576 -218,786 -519,1517 -907,2189 -394,693 -870,1380 -1422,2063 -558,682 -1143,1352 -1766,2013 -212,230 -429,462 -651,695l-3172 0 0 3138c-1015,965 -1843,1745 -2486,2339l2486 0 0 2734z"
         id="path13"
         style="fill:#000000;stroke:#000000" /><path
         class="fil0"
         d="M83007 20376c-562,0 -1125,69 -1693,203 -562,139 -1120,316 -1661,534 -503,210 -942,429 -1312,659 -370,230 -702,443 -997,641l-187 0 0 -3305c680,-368 1602,-701 2769,-995 1168,-299 2278,-449 3338,-449 1055,0 1978,108 2770,322 788,213 1501,545 2138,994 691,503 1211,1107 1565,1818 348,711 525,1540 525,2492 0,1284 -424,2412 -1271,3385 -846,968 -1864,1589 -3043,1845l0 219c488,96 1013,257 1576,487 557,230 1082,572 1559,1021 482,450 873,1027 1179,1728 192,446 324,954 394,1523l-3173 0c-56,-480 -163,-897 -323,-1251 -247,-540 -590,-968 -1029,-1283 -434,-311 -959,-530 -1560,-647 -600,-123 -1248,-182 -1950,-182l-1334 0 0 -2599 1034 0c1415,0 2562,-337 3445,-1005 885,-669 1323,-1637 1323,-2915 0,-582 -112,-1086 -342,-1507 -230,-423 -525,-760 -879,-1012 -402,-272 -841,-459 -1318,-566 -482,-102 -996,-155 -1543,-155z"
         id="path15"
         style="fill:#000000;stroke:#000000" /><path
         class="fil0"
         d="M41454 41709l-11629 0 0 -2429 4325 0 0 -15961 -4325 0 0 -2172c1634,0 2837,-229 3614,-693 771,-464 1208,-1342 1307,-2630l2482 0 0 21456 4226 0 0 2429z"
         id="path17"
         style="fill:#000000;stroke:#000000" /></g><path
       class="fil1 str0"
       d="M98817 36076c13,457 -23,3695 -38,4156 -408,12224 1720,21655 -5162,27846 -3933,3538 -8585,3866 -13710,3866 -5152,0 -9776,-308 -13740,-3866 -6847,-6147 -4743,-15567 -5140,-27846 -14,-462 25,-3699 39,-4156l10387 0c-2,1368 5,11576 11,11782 183,5464 -769,9679 2308,12446 1757,1581 3837,1728 6128,1728 2302,0 4369,-138 6140,-1728 3061,-2747 2300,-6956 2298,-12446l-3 -6170 -12 -5627 10494 15zm0 0c13,457 -23,3695 -38,4156 -408,12224 1720,21655 -5162,27846 -3922,3528 -8560,3864 -13667,3866l0 -9912c2282,-2 4332,-149 6090,-1728 3061,-2747 2300,-6956 2298,-12446l-3 -6170 -12 -5627 10494 15z"
       id="path19"
       style="fill:#000000;stroke:#000000" /></g></svg>