<?xml version="1.0" encoding="UTF-8"?>
<!DOCTYPE svg PUBLIC "-//W3C//DTD SVG 1.1//EN" "http://www.w3.org/Graphics/SVG/1.1/DTD/svg11.dtd">
<!-- Creator: CorelDRAW X5 -->
<svg xmlns="http://www.w3.org/2000/svg" xml:space="preserve" width="12mm" height="8mm" style="shape-rendering:geometricPrecision; text-rendering:geometricPrecision; image-rendering:optimizeQuality; fill-rule:evenodd; clip-rule:evenodd"
viewBox="0 0 120000 80000"
 xmlns:xlink="http://www.w3.org/1999/xlink">
 <defs>
  <style type="text/css">
   <![CDATA[
    .fil0 {fill:black}
   ]]>
  </style>
 </defs>
 <g id="Слой_x0020_1">
  <metadata id="CorelCorpID_0Corel-Layer"/>
  <g id="_298372568">
   <path class="fil0" d="M35670 68201c1171,-12660 5575,-21196 11858,-27335l0 -1693c-6283,-6139 -10687,-14677 -11858,-27337l2548 24c1174,12647 5576,21178 11856,27313l0 1693c-6280,6135 -10682,14664 -11856,27311l-2548 24zm28700 -56341l2548 -24c-1171,12658 -5576,21195 -11858,27334l0 1698c779,763 1530,1561 2249,2400 -617,263 -1165,653 -1612,1135 -996,-1261 -2059,-2436 -3183,-3535l0 -1698c6278,-6135 10682,-14665 11856,-27310zm-31393 -2647l36525 0 0 34048c-882,26 -1745,124 -2584,290l0 -31715 -31248 0 0 56365 21283 0c646,1264 1856,2199 3302,2480l112 87 -27390 0 0 -61555z"/>
   <path class="fil0" d="M54127 42929l10104 10106 0 2621 -10104 10100 669 676 4342 4336 10102 -10102 2621 0 10102 10102 674 -667 4337 -4345 -10104 -10100 0 -2621 180 -185 9924 -9921 -669 -669 -4342 -4339 -10102 10105 -2621 0 -10102 -10105 -5011 5008zm24472 6096l6150 -6147 -1540 -1541 -4624 4617 14 3071zm-13368 -2730l-6144 -6147 -1544 1541 4620 4616 3068 -10zm-2732 13365l-6147 6147 1544 1545 4618 -4619 -15 -3073zm13367 2734l6146 6149 1545 -1544 -4619 -4618 -3072 13zm-3515 -9850c989,993 989,2611 0,3597 -991,995 -2603,995 -3600,0 -991,-986 -991,-2604 0,-3597 997,-988 2609,-988 3600,0z"/>
  </g>
 </g>
 <g id="Направляющие">
  <metadata id="CorelCorpID_1Corel-Layer"/>
 </g>
</svg>
