<?xml version="1.0" encoding="UTF-8"?>
<!DOCTYPE svg PUBLIC "-//W3C//DTD SVG 1.1//EN" "http://www.w3.org/Graphics/SVG/1.1/DTD/svg11.dtd">
<!-- Creator: CorelDRAW X5 -->
<svg xmlns="http://www.w3.org/2000/svg" xml:space="preserve" width="12mm" height="8mm" style="shape-rendering:geometricPrecision; text-rendering:geometricPrecision; image-rendering:optimizeQuality; fill-rule:evenodd; clip-rule:evenodd"
viewBox="0 0 120000 80000"
 xmlns:xlink="http://www.w3.org/1999/xlink">
 <defs>
  <style type="text/css">
   <![CDATA[
    .fil0 {fill:none}
    .fil1 {fill:black}
   ]]>
  </style>
 </defs>
 <g id="Слой_x0020_1">
  <metadata id="CorelCorpID_0Corel-Layer"/>
  <g id="_298376456">
   <path class="fil0" d="M66376 62772l6983 0 0 2736 -6983 0 0 -2736zm18972 0l6983 0 0 2736 -6983 0 0 -2736zm-9339 0l6983 0 0 2736 -6983 0 0 -2736z"/>
   <path class="fil0" d="M30882 41741l10540 10543 0 2734 -10540 10536 697 705 4530 4524 10538 -10539 2735 0 10538 10539 703 -697 4524 -4532 -10540 -10536 0 -2734 187 -194 10353 -10349 -698 -699 -4529 -4526 -10538 10542 -2735 0 -10538 -10542 -5227 5225zm25528 6359l6416 -6413 -1606 -1607 -4824 4817 14 3203zm-13945 -2848l-6410 -6413 -1610 1609 4819 4815 3201 -11zm-2850 13943l-6413 6412 1611 1612 4818 -4818 -16 -3206zm13944 2851l6412 6416 1612 -1611 -4819 -4818 -3205 13zm-3667 -10275c1033,1036 1033,2724 0,3753 -1033,1038 -2715,1038 -3755,0 -1034,-1029 -1034,-2717 0,-3753 1040,-1030 2722,-1030 3755,0z"/>
   <path class="fil1" d="M84092 65519l-11748 0 11748 -11726 0 11726zm-24463 0l-12714 0 37177 -37107 0 12690 -24463 24417zm-25429 0l-6558 0 0 -6145 50294 -50199 6156 0 0 6546 -49892 49798zm-6558 -18835l0 -12690 24865 -24819 12714 0 -37579 37509zm0 -25381l0 -12128 12150 0 -12150 12128z"/>
  </g>
 </g>
 <g id="Направляющие">
  <metadata id="CorelCorpID_1Corel-Layer"/>
 </g>
</svg>
