<?xml version="1.0" encoding="UTF-8" standalone="no"?>
<!-- Creator: CorelDRAW X5 -->

<svg
   xmlns:dc="http://purl.org/dc/elements/1.1/"
   xmlns:cc="http://creativecommons.org/ns#"
   xmlns:rdf="http://www.w3.org/1999/02/22-rdf-syntax-ns#"
   xmlns:svg="http://www.w3.org/2000/svg"
   xmlns="http://www.w3.org/2000/svg"
   xmlns:sodipodi="http://sodipodi.sourceforge.net/DTD/sodipodi-0.dtd"
   xmlns:inkscape="http://www.inkscape.org/namespaces/inkscape"
   xml:space="preserve"
   width="12mm"
   height="8mm"
   style="shape-rendering:geometricPrecision; text-rendering:geometricPrecision; image-rendering:optimizeQuality; fill-rule:evenodd; clip-rule:evenodd"
   viewBox="0 0 120000 80000"
   id="svg2"
   version="1.1"
   inkscape:version="0.91 r13725"
   sodipodi:docname="PerformanceNumberStoneDetector.svg"><metadata
     id="metadata29"><rdf:RDF><cc:Work
         rdf:about=""><dc:format>image/svg+xml</dc:format><dc:type
           rdf:resource="http://purl.org/dc/dcmitype/StillImage" /></cc:Work></rdf:RDF></metadata><sodipodi:namedview
     pagecolor="#ffffff"
     bordercolor="#666666"
     borderopacity="1"
     objecttolerance="10"
     gridtolerance="10"
     guidetolerance="10"
     inkscape:pageopacity="0"
     inkscape:pageshadow="2"
     inkscape:window-width="1920"
     inkscape:window-height="1018"
     id="namedview27"
     showgrid="false"
     inkscape:zoom="8.3255556"
     inkscape:cx="3.2430265"
     inkscape:cy="10.9711"
     inkscape:window-x="1912"
     inkscape:window-y="-8"
     inkscape:window-maximized="1"
     inkscape:current-layer="svg2" /><defs
     id="defs4"><style
       type="text/css"
       id="style6"><![CDATA[
    .fil0 {fill:#2B2A29}
    .fil1 {fill:#2B2A29;fill-rule:nonzero}
   ]]></style></defs><g
     id="Слой_x0020_1"
     style="fill:#000000;stroke:#000000"><metadata
       id="CorelCorpID_0Corel-Layer" /><g
       id="_254442480"
       style="fill:#000000;stroke:#000000"><path
         class="fil0"
         d="M59184 61827l0 0c-512,1930 -461,3868 369,5521 284,564 656,1092 1124,1570 460,469 1012,891 1662,1252 627,348 1358,644 2202,875 3663,1006 6111,367 9176,-564 166,-50 888,-177 2219,-1695 1331,-1519 1746,-2088 443,-6429 -1302,-4340 -4263,-4909 -7938,-5869 -846,-221 -1627,-331 -2344,-343 -743,-12 -1432,77 -2065,254 -645,179 -1231,450 -1759,798 -1545,1016 -2558,2669 -3080,4595l0 1 -9 34z"
         id="path11"
         style="fill:#000000;stroke:#000000" /><path
         class="fil0"
         d="M62942 39551l0 0c-1072,1684 -1609,3547 -1319,5373 100,624 295,1240 596,1837 297,587 695,1156 1206,1697 491,521 1099,1024 1833,1500 3187,2067 5477,1632 8681,1672 174,2 2645,-879 2645,-880 2759,-3857 1767,-1403 2797,-5610 1029,-4207 -2788,-5848 -6000,-7876 -739,-467 -1451,-808 -2130,-1036 -705,-237 -1389,-360 -2045,-384 -669,-23 -1309,57 -1918,229 -1780,501 -3246,1769 -4327,3448l0 0 -19 30z"
         id="path13"
         style="fill:#000000;stroke:#000000" /><path
         class="fil0"
         d="M80513 55793l0 1c63,1995 668,3837 1937,5182 434,460 942,859 1527,1182 576,317 1225,563 1952,723 700,153 1486,227 2360,207 3797,-88 7043,-2702 8451,-3636 1407,-934 1600,-1798 1600,-1799 184,-4255 972,-2300 -1097,-6502 -2068,-4203 -5597,-3262 -9394,-3127 -873,30 -1654,149 -2343,343 -716,202 -1350,485 -1906,836 -566,357 -1050,784 -1456,1269 -1189,1416 -1685,3290 -1632,5286l0 0 1 35z"
         id="path15"
         style="fill:#000000;stroke:#000000" /><g
         id="g17"
         style="fill:#000000;stroke:#000000"><path
           class="fil1"
           d="M22726 9175l71979 0 1514 0 0 1512 0 22697 -3029 0 0 -21186 -19597 0 0 21186 -3029 0 0 -21186 -21435 0 0 32619 8994 0 0 3023 -35398 0 -1508 0 0 -1511 1 -35642 0 -1512 1508 0zm23374 35642l0 -32619 -21865 0 -1 32619 21866 0z"
           id="path19"
           style="fill:#000000;stroke:#000000" /><path
           class="fil1"
           d="M58123 41556l-5456 0 0 -3323c1051,-1000 2046,-1956 2982,-2868 936,-912 1850,-1858 2743,-2846 1806,-1983 3036,-3574 3694,-4763 659,-1196 991,-2429 991,-3700 0,-662 -103,-1238 -310,-1738 -207,-499 -490,-912 -854,-1238 -371,-320 -800,-559 -1290,-716 -490,-158 -1029,-240 -1611,-240 -560,0 -1132,71 -1714,218 -577,141 -1132,320 -1665,532 -447,179 -876,396 -1290,652 -413,255 -751,472 -1007,652l-173 0 0 -3373c658,-331 1578,-652 2747,-967 1175,-310 2292,-468 3341,-468 2209,0 3946,587 5197,1761 1258,1172 1883,2759 1883,4762 0,923 -109,1777 -326,2564 -218,782 -517,1510 -904,2178 -391,690 -865,1375 -1414,2054 -556,678 -1138,1346 -1758,2003 -211,229 -427,460 -649,692l-3157 0 0 3124c-1010,960 -1834,1737 -2474,2327l2474 0 0 2721z"
           id="path21"
           style="fill:#000000;stroke:#000000" /><path
           class="fil1"
           d="M82862 20324c-561,0 -1121,68 -1686,201 -560,139 -1115,315 -1653,532 -501,209 -938,427 -1306,656 -368,229 -698,441 -993,638l-186 0 0 -3289c677,-367 1595,-698 2757,-990 1162,-298 2266,-447 3322,-447 1050,0 1968,106 2757,320 784,212 1494,542 2128,989 688,501 1205,1102 1557,1810 347,708 523,1532 523,2480 0,1278 -422,2401 -1264,3369 -843,964 -1856,1581 -3029,1836l0 219c485,95 1007,255 1568,484 554,229 1077,569 1552,1016 479,448 869,1023 1173,1720 192,444 322,950 392,1516l-3158 0c-55,-478 -162,-893 -322,-1245 -245,-537 -586,-963 -1024,-1277 -431,-309 -954,-527 -1552,-644 -597,-123 -1242,-181 -1941,-181l-1328 0 0 -2587 1030 0c1407,0 2549,-335 3429,-1000 880,-666 1316,-1629 1316,-2901 0,-580 -111,-1081 -340,-1501 -230,-421 -523,-756 -876,-1006 -399,-271 -837,-458 -1311,-564 -480,-101 -992,-154 -1535,-154z"
           id="path23"
           style="fill:#000000;stroke:#000000" /><path
           class="fil1"
           d="M41503 41556l-11575 0 0 -2417 4305 0 0 -15886 -4305 0 0 -2162c1627,0 2824,-228 3597,-689 767,-462 1202,-1337 1301,-2619l2470 0 0 21356 4207 0 0 2417z"
           id="path25"
           style="fill:#000000;stroke:#000000" /></g></g></g></svg>