<?xml version="1.0" encoding="UTF-8"?>
<!DOCTYPE svg PUBLIC "-//W3C//DTD SVG 1.1//EN" "http://www.w3.org/Graphics/SVG/1.1/DTD/svg11.dtd">
<!-- Creator: CorelDRAW X5 -->
<svg xmlns="http://www.w3.org/2000/svg" xml:space="preserve" width="12mm" height="8mm" style="shape-rendering:geometricPrecision; text-rendering:geometricPrecision; image-rendering:optimizeQuality; fill-rule:evenodd; clip-rule:evenodd"
viewBox="0 0 120000 80000"
 xmlns:xlink="http://www.w3.org/1999/xlink">
 <defs>
  <style type="text/css">
   <![CDATA[
    .fil1 {fill:black}
    .fil0 {fill:black;fill-rule:nonzero}
   ]]>
  </style>
 </defs>
 <g id="Слой_x0020_1">
  <metadata id="CorelCorpID_0Corel-Layer"/>
  <g id="_297674632">
   <path class="fil0" d="M79616 48035l-2 -2 -582 -387 0 -709 0 -6314 -11242 0 0 6630 0 673 -555 398c-1173,837 -2175,1899 -2945,3123 -146,232 -286,476 -421,731 -808,1535 -1266,3281 -1266,5130l4 0 0 4 0 4 -4 0c0,3040 1237,5797 3236,7797 1999,1999 4758,3237 7800,3238l0 -6 1 0 5 0 0 6c3041,-1 5798,-1239 7797,-3237 2000,-2000 3238,-4758 3238,-7800l-5 0 0 -2c0,-2802 -1040,-5356 -2752,-7297 -331,-375 -692,-731 -1079,-1066 -383,-330 -788,-634 -1213,-909l-15 -5zm2040 -1791c312,227 615,467 907,719 466,402 910,842 1325,1313 2129,2413 3421,5576 3421,9036l0 2 -6 0c0,3777 -1528,7192 -3999,9662 -2469,2469 -5884,3998 -9659,3998l0 5 -5 0 -1 0 0 -5c-3777,0 -7192,-1529 -9662,-3999 -2470,-2470 -3997,-5884 -3999,-9659l-5 0 0 -4 0 -4 5 0c1,-2295 567,-4458 1566,-6354 159,-303 334,-606 522,-907 829,-1316 1877,-2482 3090,-3445l0 -7296 0 -1317 1317 0 13871 0 1312 0 0 1317 0 6938z"/>
   <path class="fil1" d="M35798 68401c1176,-12711 5597,-21281 11906,-27445l0 -1700c-6309,-6164 -10730,-14736 -11906,-27447l2558 24c1179,12698 5599,21263 11904,27423l0 1700c-6305,6160 -10725,14724 -11904,27421l-2558 24zm28816 -56568l2558 -24c-1176,12709 -5599,21281 -11906,27444l0 1705c2628,2569 4928,5555 6804,9084l-4 5c-188,301 -363,604 -522,907 -290,551 -544,1125 -758,1717 -2065,-4705 -4819,-8530 -8077,-11713l0 -1705c6304,-6159 10726,-14724 11905,-27420zm1020 56553l-1020 -9c-27,-297 -58,-591 -89,-884 354,317 724,615 1109,893zm-32540 -59211l36672 0 0 28814 -2594 0 0 -26180 -31374 0 0 56592 29855 0c1232,889 2619,1577 4113,2017l0 561 -36672 0 0 -61804z"/>
  </g>
 </g>
 <g id="Направляющие">
  <metadata id="CorelCorpID_1Corel-Layer"/>
 </g>
</svg>
