<?xml version="1.0" encoding="UTF-8" standalone="no"?>
<!-- Creator: CorelDRAW X5 -->

<svg
   xmlns:dc="http://purl.org/dc/elements/1.1/"
   xmlns:cc="http://creativecommons.org/ns#"
   xmlns:rdf="http://www.w3.org/1999/02/22-rdf-syntax-ns#"
   xmlns:svg="http://www.w3.org/2000/svg"
   xmlns="http://www.w3.org/2000/svg"
   xmlns:sodipodi="http://sodipodi.sourceforge.net/DTD/sodipodi-0.dtd"
   xmlns:inkscape="http://www.inkscape.org/namespaces/inkscape"
   xml:space="preserve"
   width="12mm"
   height="8mm"
   style="shape-rendering:geometricPrecision; text-rendering:geometricPrecision; image-rendering:optimizeQuality; fill-rule:evenodd; clip-rule:evenodd"
   viewBox="0 0 120000 80000"
   id="svg2"
   version="1.1"
   inkscape:version="0.91 r13725"
   sodipodi:docname="PerformanceNumberStoneMetalDetector.svg"><metadata
     id="metadata35"><rdf:RDF><cc:Work
         rdf:about=""><dc:format>image/svg+xml</dc:format><dc:type
           rdf:resource="http://purl.org/dc/dcmitype/StillImage" /></cc:Work></rdf:RDF></metadata><sodipodi:namedview
     pagecolor="#ffffff"
     bordercolor="#666666"
     borderopacity="1"
     objecttolerance="10"
     gridtolerance="10"
     guidetolerance="10"
     inkscape:pageopacity="0"
     inkscape:pageshadow="2"
     inkscape:window-width="1920"
     inkscape:window-height="1018"
     id="namedview33"
     showgrid="false"
     inkscape:zoom="8.3255556"
     inkscape:cx="3.3631395"
     inkscape:cy="-0.57127428"
     inkscape:window-x="1912"
     inkscape:window-y="-8"
     inkscape:window-maximized="1"
     inkscape:current-layer="svg2" /><defs
     id="defs4"><style
       type="text/css"
       id="style6"><![CDATA[
    .str1 {stroke:#2B2A29;stroke-width:1764}
    .str0 {stroke:black;stroke-width:1764}
    .fil2 {fill:none}
    .fil1 {fill:black}
    .fil0 {fill:black;fill-rule:nonzero}
   ]]></style></defs><g
     id="Слой_x0020_1"
     style="fill:#000000;stroke:#000000"><metadata
       id="CorelCorpID_0Corel-Layer" /><g
       id="_330356104"
       style="fill:#000000;stroke:#000000"><g
         id="g11"
         style="fill:#000000;stroke:#000000"><path
           class="fil0"
           d="M22817 9175l71881 0 1512 0 0 1509 0 22667 -3025 0 0 -21157 -19570 0 0 21157 -3025 0 0 -21157 -21406 0 0 32574 8982 0 0 3019 -35350 0 -1506 0 0 -1509 1 -35594 0 -1509 1506 0zm23342 35593l0 -32574 -21836 0 0 32574 21836 0z"
           id="path13"
           style="fill:#000000;stroke:#000000" /><path
           class="fil0"
           d="M58166 41512l-5449 0 0 -3319c1049,-999 2043,-1953 2978,-2864 935,-911 1848,-1855 2739,-2843 1804,-1980 3033,-3569 3689,-4756 658,-1194 990,-2425 990,-3694 0,-662 -103,-1237 -310,-1736 -206,-499 -489,-911 -853,-1237 -369,-320 -799,-558 -1288,-715 -489,-158 -1027,-239 -1608,-239 -560,0 -1130,70 -1712,217 -576,141 -1131,320 -1663,532 -446,178 -875,395 -1288,650 -413,255 -750,472 -1006,651l-173 0 0 -3368c658,-331 1576,-651 2744,-965 1174,-310 2288,-467 3336,-467 2207,0 3941,585 5190,1758 1256,1171 1881,2755 1881,4756 0,922 -109,1774 -326,2560 -217,781 -516,1508 -902,2175 -392,689 -864,1373 -1413,2051 -555,678 -1136,1344 -1756,2001 -210,228 -426,459 -647,691l-3153 0 0 3119c-1009,959 -1832,1735 -2471,2325l2471 0 0 2717z"
           id="path15"
           style="fill:#000000;stroke:#000000" /><path
           class="fil0"
           d="M82871 20308c-560,0 -1119,69 -1684,201 -558,139 -1112,315 -1650,532 -501,208 -937,426 -1305,654 -367,229 -697,441 -991,638l-186 0 0 -3285c676,-367 1593,-697 2753,-989 1161,-298 2264,-446 3318,-446 1049,0 1966,106 2753,319 783,212 1492,542 2126,988 686,500 1203,1100 1554,1807 346,707 522,1531 522,2477 0,1276 -421,2398 -1262,3365 -841,963 -1853,1579 -3025,1834l0 218c484,95 1006,255 1566,483 554,229 1076,569 1550,1015 479,448 868,1021 1171,1718 192,443 322,948 392,1514l-3153 0c-56,-477 -163,-892 -322,-1243 -245,-537 -586,-962 -1023,-1276 -431,-309 -953,-527 -1550,-643 -596,-123 -1240,-181 -1938,-181l-1326 0 0 -2583 1028 0c1406,0 2546,-335 3424,-999 879,-665 1315,-1627 1315,-2897 0,-579 -111,-1080 -340,-1499 -229,-420 -522,-755 -874,-1005 -399,-271 -836,-457 -1310,-563 -479,-101 -990,-154 -1533,-154z"
           id="path17"
           style="fill:#000000;stroke:#000000" /><path
           class="fil0"
           d="M41568 41512l-11559 0 0 -2414 4299 0 0 -15865 -4299 0 0 -2159c1624,0 2820,-227 3592,-688 766,-461 1201,-1335 1299,-2615l2467 0 0 21327 4201 0 0 2414z"
           id="path19"
           style="fill:#000000;stroke:#000000" /></g><g
         id="g21"
         style="fill:#000000;stroke:#000000"><path
           class="fil1 str0"
           d="M78759 52529c253,-6 2040,12 2294,19 6746,197 11950,-830 15366,2490 1953,1897 2134,4141 2134,6613 0,2485 -170,4716 -2134,6628 -3392,3303 -8590,2288 -15366,2479 -255,7 -2041,-12 -2294,-19l0 -5010c755,1 6389,-2 6502,-6 3015,-87 5341,372 6868,-1112 873,-848 954,-1851 954,-2956 0,-1111 -76,-2108 -954,-2962 -1516,-1477 -3838,-1110 -6868,-1109l-3405 2 -3105 5 8 -5062zm0 0c253,-6 2040,12 2294,19 6746,197 11950,-830 15366,2490 1947,1892 2133,4129 2134,6593l-5470 0c-1,-1101 -82,-2090 -954,-2938 -1516,-1477 -3838,-1110 -6868,-1109l-3405 2 -3105 5 8 -5062z"
           id="path23"
           style="fill:#000000;stroke:#000000" /><path
           class="fil1"
           d="M59914 49727l0 0c-272,1027 -245,2058 197,2938 151,300 349,581 598,836 245,249 539,474 885,666 333,185 722,342 1171,465 1949,536 3252,196 4883,-300 88,-26 473,-94 1181,-902 708,-808 929,-1111 236,-3421 -693,-2310 -2269,-2612 -4224,-3123 -451,-118 -866,-176 -1248,-182 -395,-7 -762,41 -1099,134 -343,96 -655,240 -936,425 -822,541 -1361,1420 -1639,2446l0 0 -5 18z"
           id="path25"
           style="fill:#000000;stroke:#000000" /><path
           class="fil1"
           d="M61914 37873l0 0c-570,897 -856,1887 -702,2859 53,333 157,660 318,978 157,312 369,615 641,903 262,277 585,545 975,798 1696,1100 2915,868 4620,890 93,1 1408,-468 1408,-468 1468,-2053 940,-747 1488,-2986 548,-2239 -1483,-3112 -3193,-4191 -393,-248 -772,-430 -1133,-551 -375,-126 -739,-192 -1089,-204 -355,-13 -696,30 -1020,121 -947,267 -1728,942 -2302,1835l-1 0 -10 16z"
           id="path27"
           style="fill:#000000;stroke:#000000" /><path
           class="fil1"
           d="M70462 45457l0 0c34,1062 356,2042 1031,2758 231,244 501,456 813,629 306,168 652,299 1038,384 372,82 791,121 1256,110 2021,-46 3748,-1438 4497,-1934 749,-497 851,-957 851,-958 99,-2264 518,-1224 -583,-3460 -1101,-2236 -2979,-1736 -4999,-1664 -465,16 -880,80 -1247,183 -381,107 -719,258 -1014,444 -301,190 -559,418 -775,676 -632,754 -897,1751 -869,2813l0 0 1 19z"
           id="path29"
           style="fill:#000000;stroke:#000000" /><line
           class="fil2 str1"
           x1="88264"
           y1="42640"
           x2="67818"
           y2="57367"
           id="line31"
           style="fill:#000000;stroke:#000000" /></g></g></g></svg>