<?xml version="1.0" encoding="UTF-8"?>
<!DOCTYPE svg PUBLIC "-//W3C//DTD SVG 1.1//EN" "http://www.w3.org/Graphics/SVG/1.1/DTD/svg11.dtd">
<!-- Creator: CorelDRAW X5 -->
<svg xmlns="http://www.w3.org/2000/svg" xml:space="preserve" width="12mm" height="8mm" style="shape-rendering:geometricPrecision; text-rendering:geometricPrecision; image-rendering:optimizeQuality; fill-rule:evenodd; clip-rule:evenodd"
viewBox="0 0 120000 80000"
 xmlns:xlink="http://www.w3.org/1999/xlink">
 <defs>
  <style type="text/css">
   <![CDATA[
    .fil0 {fill:black}
   ]]>
  </style>
 </defs>
 <g id="Слой_x0020_1">
  <metadata id="CorelCorpID_0Corel-Layer"/>
  <g id="_297669376">
   <polygon class="fil0" points="39152,70685 39152,44729 41889,44729 41889,70685 "/>
   <polygon class="fil0" points="45147,68616 45147,42660 47884,42660 47884,68616 "/>
   <polygon class="fil0" points="51141,66599 51141,40643 53878,40643 53878,66599 "/>
   <path class="fil0" d="M77845 65542l-5371 0 2686 -2685 2685 2685zm-22137 -1765l0 -7030 6677 -6665 3509 3509 -10186 10186zm15952 -22952l12415 -12392 0 6977 -8916 8915 -3499 -3500zm-37479 24717l-6559 0 0 -6145 9758 -9739 0 12691 -3199 3193zm15306 -27967l28432 -28379 6156 0 0 6547 -18766 18731 -1807 -1807 -4903 4908 -9112 0zm-21865 9131l0 -12691 24867 -24819 12714 0 -37581 37510zm0 -25381l0 -12129 12152 0 -12152 12129z"/>
   <path class="fil0" d="M58006 41722l10540 10543 0 2734 -10540 10536 697 706 4530 4524 10539 -10540 2735 0 10538 10540 703 -697 4525 -4533 -10541 -10536 0 -2734 187 -194 10354 -10349 -699 -699 -4529 -4526 -10538 10542 -2735 0 -10539 -10542 -5227 5225zm25529 6359l6417 -6413 -1607 -1607 -4824 4817 14 3203zm-13945 -2848l-6410 -6413 -1610 1608 4818 4816 3202 -11zm-2850 13943l-6414 6413 1611 1612 4818 -4819 -15 -3206zm13944 2852l6412 6415 1612 -1611 -4819 -4818 -3205 14zm-3667 -10275c1033,1035 1033,2723 0,3752 -1034,1038 -2715,1038 -3755,0 -1034,-1029 -1034,-2717 0,-3752 1040,-1031 2721,-1031 3755,0z"/>
  </g>
 </g>
 <g id="Направляющие">
  <metadata id="CorelCorpID_1Corel-Layer"/>
 </g>
</svg>
