<?xml version="1.0" encoding="UTF-8"?>
<!DOCTYPE svg PUBLIC "-//W3C//DTD SVG 1.1//EN" "http://www.w3.org/Graphics/SVG/1.1/DTD/svg11.dtd">
<!-- Creator: CorelDRAW X5 -->
<svg xmlns="http://www.w3.org/2000/svg" xml:space="preserve" width="12mm" height="8mm" style="shape-rendering:geometricPrecision; text-rendering:geometricPrecision; image-rendering:optimizeQuality; fill-rule:evenodd; clip-rule:evenodd"
viewBox="0 0 120000 80000"
 xmlns:xlink="http://www.w3.org/1999/xlink">
 <defs>
  <style type="text/css">
   <![CDATA[
    .str0 {stroke:black;stroke-width:762}
    .fil0 {fill:black}
   ]]>
  </style>
 </defs>
 <g id="Слой_x0020_1">
  <metadata id="CorelCorpID_0Corel-Layer"/>
  <g id="_297673072">
   <path class="fil0" d="M35599 68253c1172,-12679 5583,-21228 11876,-27377l0 -1695c-6293,-6149 -10704,-14700 -11876,-27379l2551 24c1176,12666 5585,21210 11874,27355l0 1695c-6289,6145 -10698,14687 -11874,27353l-2551 24zm28743 -56427l2552 -24c-1173,12678 -5585,21228 -11876,27376l0 1701c822,803 1612,1647 2366,2535 -611,288 -1128,743 -1492,1307 -1065,-1378 -2209,-2655 -3424,-3842l0 -1701c6288,-6144 10698,-14688 11874,-27352zm-31441 -2651l36581 0 0 27370c-361,-121 -747,-186 -1149,-186 -512,0 -998,106 -1439,299l0 -24856 -31295 0 0 56451 25069 0c443,1487 1820,2571 3451,2571l-31218 0 0 -61649zm31675 61620l52 29 -509 0c155,0 308,-10 457,-29z"/>
   <path class="fil0 str0" d="M70541 40712c7545,0 13661,6116 13661,13660 0,7545 -6116,13661 -13661,13661 -7544,0 -13660,-6116 -13660,-13661 0,-7544 6116,-13660 13660,-13660zm-1283 -2780l2567 0 851 2955 -4270 0 852 -2955zm-15162 17723l0 -2566 2956 -852 0 4270 -2956 -852zm32885 -2566l0 2567 -2955 851 0 -4270 2955 852zm-15157 17735l-2566 0 -852 -2955 4270 0 -852 2955zm13600 -9334l-1284 2223 -2985 -740 2135 -3698 2134 2215zm-24201 -20727l2223 -1283 2215 2134 -3698 2134 -740 -2985zm-5556 6498l1283 -2223 2986 740 -2135 3698 -2134 -2215zm1257 16416l-1283 -2222 2133 -2216 2135 3698 -2985 740zm22921 4320l-2223 1283 -2215 -2133 3698 -2135 740 2985zm-2171 -28512l2223 1283 -740 2986 -3698 -2135 2215 -2134zm6469 5550l1283 2223 -2134 2215 -2135 -3698 2986 -740zm-13602 -2002c6263,0 11340,5077 11340,11339 0,6263 -5077,11340 -11340,11340 -6262,0 -11339,-5077 -11339,-11340 0,-6262 5077,-11339 11339,-11339zm-7099 26225l-2222 -1283 740 -2986 3698 2135 -2216 2134z"/>
  </g>
 </g>
 <g id="Направляющие">
  <metadata id="CorelCorpID_1Corel-Layer"/>
 </g>
</svg>
