<?xml version="1.0" encoding="UTF-8"?>
<!DOCTYPE svg PUBLIC "-//W3C//DTD SVG 1.1//EN" "http://www.w3.org/Graphics/SVG/1.1/DTD/svg11.dtd">
<!-- Creator: CorelDRAW X5 -->
<svg xmlns="http://www.w3.org/2000/svg" xml:space="preserve" width="12mm" height="8mm" style="shape-rendering:geometricPrecision; text-rendering:geometricPrecision; image-rendering:optimizeQuality; fill-rule:evenodd; clip-rule:evenodd"
viewBox="0 0 120000 80000"
 xmlns:xlink="http://www.w3.org/1999/xlink">
 <defs>
  <style type="text/css">
   <![CDATA[
    .fil0 {fill:black}
    .fil1 {fill:black;fill-rule:nonzero}
   ]]>
  </style>
 </defs>
 <g id="Слой_x0020_1">
  <metadata id="CorelCorpID_0Corel-Layer"/>
  <g id="_298217000">
   <g>
    <g>
     <path class="fil0" d="M31997 33458c1896,0 3435,-1538 3435,-3435 0,-1898 -1539,-3435 -3435,-3435 -1898,0 -3436,1537 -3436,3435 0,1897 1538,3435 3436,3435z"/>
     <path class="fil0" d="M43108 33458c1897,0 3435,-1538 3435,-3435 0,-1898 -1538,-3435 -3435,-3435 -1897,0 -3435,1537 -3435,3435 0,1897 1538,3435 3435,3435z"/>
     <path class="fil0" d="M54235 33458c1898,0 3436,-1538 3436,-3435 0,-1898 -1538,-3435 -3436,-3435 -1897,0 -3435,1537 -3435,3435 0,1897 1538,3435 3435,3435z"/>
     <path class="fil0" d="M65363 33458c1896,0 3435,-1538 3435,-3435 0,-1898 -1539,-3435 -3435,-3435 -1898,0 -3436,1537 -3436,3435 0,1897 1538,3435 3436,3435z"/>
     <path class="fil0" d="M76474 33458c1898,0 3436,-1538 3436,-3435 0,-1898 -1538,-3435 -3436,-3435 -1897,0 -3435,1537 -3435,3435 0,1897 1538,3435 3435,3435z"/>
    </g>
    <g>
     <path class="fil0" d="M37552 42668c1897,0 3435,-1539 3435,-3437 0,-1896 -1538,-3435 -3435,-3435 -1898,0 -3436,1539 -3436,3435 0,1898 1538,3437 3436,3437z"/>
     <path class="fil0" d="M51234 36953c-629,-709 -1547,-1157 -2570,-1157 -1898,0 -3435,1539 -3435,3435 0,1058 478,2005 1229,2636l0 -3776 0 -1138 1135 0 3641 0z"/>
     <path class="fil0" d="M62362 36953c-630,-709 -1548,-1157 -2571,-1157 -1023,0 -1941,448 -2571,1157l5142 0z"/>
     <path class="fil0" d="M73489 36953c-629,-709 -1547,-1157 -2571,-1157 -1023,0 -1942,448 -2571,1157l5142 0z"/>
    </g>
    <path class="fil0" d="M43116 51807c1623,0 2983,-1126 3342,-2640l0 -1590c-358,-1514 -1719,-2641 -3342,-2641 -1898,0 -3435,1539 -3435,3435 0,1898 1537,3436 3435,3436z"/>
    <polygon class="fil1" points="22213,23405 54091,18207 54331,18168 54572,18207 86536,23431 86536,13836 91775,13836 91775,36953 86536,36953 86536,26441 86534,26456 54331,21194 22213,26432 22213,39506 38870,53904 46457,53923 46457,59143 37893,59120 36914,59118 36182,58485 17883,42668 16973,41881 16973,40692 16973,13837 22213,13837 "/>
   </g>
   <g>
    <path class="fil1" d="M49111 37754l52657 0 1108 0 0 1105 0 26075 0 1105 -1108 0 -52657 0 -1104 0 0 -1105 0 -26075 1 -1105 1103 0zm37212 2211l0 23863 14337 0 0 -23863 -14337 0zm-2216 23863l0 -23863 -15681 0 0 23863 15681 0zm-17897 0l0 -23863 -15996 0 0 23863 15996 0z"/>
    <path class="fil1" d="M81735 61442l-10721 0 0 -2431c769,-731 1497,-1431 2182,-2098 685,-668 1354,-1359 2006,-2082 1322,-1451 2222,-2615 2703,-3485 482,-874 725,-1776 725,-2706 0,-485 -75,-906 -227,-1271 -151,-366 -358,-668 -625,-906 -271,-235 -585,-410 -943,-525 -358,-115 -753,-175 -1179,-175 -410,0 -828,52 -1253,160 -422,103 -829,234 -1219,389 -326,131 -641,290 -943,477 -303,186 -549,345 -737,476l-127 0 0 -2467c482,-242 1154,-477 2010,-707 860,-227 1676,-342 2444,-342 1617,0 2887,429 3802,1288 920,858 1378,2018 1378,3484 0,675 -80,1299 -239,1875 -159,573 -378,1105 -661,1594 -287,504 -633,1005 -1035,1502 -406,496 -832,985 -1286,1466 -728,791 -1544,1613 -2444,2467 -896,855 -1612,1530 -2150,2027l8539 0 0 1990z"/>
    <path class="fil1" d="M93104 45909c-410,0 -820,51 -1233,148 -410,101 -816,230 -1210,389 -366,152 -686,312 -955,479 -270,168 -511,324 -726,467l-137 0 0 -2406c496,-268 1167,-510 2017,-724 851,-218 1658,-327 2431,-327 768,0 1440,78 2017,234 573,155 1092,397 1556,724 503,366 882,806 1139,1324 254,518 383,1121 383,1814 0,935 -309,1756 -925,2465 -616,705 -1358,1157 -2216,1343l0 160c355,70 737,187 1147,354 406,168 788,417 1135,744 351,327 636,748 859,1258 222,514 331,1141 331,1877 0,770 -132,1475 -394,2117 -261,643 -636,1212 -1116,1706 -495,518 -1092,907 -1794,1172 -698,269 -1494,401 -2387,401 -851,0 -1697,-101 -2536,-307 -839,-207 -1545,-452 -2115,-744l0 -2407 160 0c480,351 1124,686 1931,1005 808,319 1615,479 2423,479 464,0 932,-74 1401,-222 468,-148 858,-389 1170,-724 304,-335 534,-705 694,-1106 160,-405 242,-915 242,-1530 0,-615 -90,-1122 -269,-1519 -180,-393 -429,-705 -749,-934 -316,-226 -698,-386 -1135,-471 -437,-90 -909,-133 -1420,-133l-972 0 0 -1892 753 0c1030,0 1865,-245 2509,-732 643,-487 963,-1192 963,-2122 0,-425 -82,-791 -250,-1098 -167,-308 -382,-553 -639,-736 -293,-199 -613,-335 -960,-413 -351,-74 -725,-113 -1123,-113z"/>
    <path class="fil1" d="M62847 61442l-8467 0 0 -1768 3149 0 0 -11622 -3149 0 0 -1581c1190,0 2066,-167 2631,-505 562,-338 880,-977 952,-1915l1807 0 0 15623 3077 0 0 1768z"/>
   </g>
  </g>
 </g>
 <g id="Направляющие">
  <metadata id="CorelCorpID_1Corel-Layer"/>
 </g>
</svg>
