<?xml version="1.0" encoding="UTF-8" standalone="no"?>
<!-- Creator: CorelDRAW X5 -->

<svg
   xmlns:dc="http://purl.org/dc/elements/1.1/"
   xmlns:cc="http://creativecommons.org/ns#"
   xmlns:rdf="http://www.w3.org/1999/02/22-rdf-syntax-ns#"
   xmlns:svg="http://www.w3.org/2000/svg"
   xmlns="http://www.w3.org/2000/svg"
   xmlns:sodipodi="http://sodipodi.sourceforge.net/DTD/sodipodi-0.dtd"
   xmlns:inkscape="http://www.inkscape.org/namespaces/inkscape"
   xml:space="preserve"
   width="12mm"
   height="8mm"
   style="shape-rendering:geometricPrecision; text-rendering:geometricPrecision; image-rendering:optimizeQuality; fill-rule:evenodd; clip-rule:evenodd"
   viewBox="0 0 120000 80000"
   id="svg2"
   version="1.1"
   inkscape:version="0.91 r13725"
   sodipodi:docname="PerformanceNumberShredding.svg"><metadata
     id="metadata42"><rdf:RDF><cc:Work
         rdf:about=""><dc:format>image/svg+xml</dc:format><dc:type
           rdf:resource="http://purl.org/dc/dcmitype/StillImage" /></cc:Work></rdf:RDF></metadata><sodipodi:namedview
     pagecolor="#ffffff"
     bordercolor="#666666"
     borderopacity="1"
     objecttolerance="10"
     gridtolerance="10"
     guidetolerance="10"
     inkscape:pageopacity="0"
     inkscape:pageshadow="2"
     inkscape:window-width="1920"
     inkscape:window-height="1018"
     id="namedview40"
     showgrid="false"
     inkscape:zoom="11.774114"
     inkscape:cx="5.330816"
     inkscape:cy="18.438378"
     inkscape:window-x="1912"
     inkscape:window-y="-8"
     inkscape:window-maximized="1"
     inkscape:current-layer="svg2" /><defs
     id="defs4"><style
       type="text/css"
       id="style6"><![CDATA[
    .fil0 {fill:#2B2A29}
    .fil1 {fill:#2B2A29;fill-rule:nonzero}
   ]]></style></defs><g
     id="Слой_x0020_1"
     style="fill:#000000;stroke:#000000"><metadata
       id="CorelCorpID_0Corel-Layer" /><g
       id="_331178048"
       style="fill:#000000;stroke:#000000"><path
         class="fil0"
         d="M81916 35610c3772,1482 6853,4422 8797,7453l589 955c194,315 374,779 547,1067 370,538 936,1644 1200,2028l782 -452 1093 -650c277,-355 145,-473 303,-919 127,-831 43,-1168 57,-1998l1370 2357c602,4008 -403,8147 -2056,11345l-533 988c-175,325 -347,662 -509,956 -281,589 -898,1516 -1099,1937l783 452 1109 620c446,63 482,-111 947,-197 784,-305 1033,-546 1759,-950l-1356 2366c-3170,2525 -7256,3724 -10853,3892l-1122 33c-369,10 -764,22 -1099,29 -651,52 -1762,-20 -2227,17l0 903 17 1271c169,418 337,362 645,722 656,526 989,621 1702,1049l-2727 8c-3772,-1483 -6854,-4422 -8797,-7453l-590 -955c-193,-315 -373,-780 -547,-1067 -370,-538 -1300,-1644 -1564,-2028l-783 451 -1092 651c-278,355 -145,473 -303,919 -127,831 -43,1167 -57,1998l-1370 -2357c-603,-4008 403,-8147 2056,-11345l532 -989c176,-325 477,-706 640,-1000 280,-589 898,-1516 1099,-1936l-783 -452 -1109 -621c-446,-63 -482,111 -948,197 -783,305 -1033,547 -1759,950l1357 -2366c3170,-2525 7256,-3724 10853,-3892l1122 -32c369,-10 998,21 1334,15 651,-52 1762,19 2226,-17l1 -904 -17 -1270c-169,-419 -338,-363 -645,-723 -656,-525 -990,-621 -1702,-1048l2727 -8zm-1058 6629c6082,0 11012,4930 11012,11012 0,6082 -4930,11012 -11012,11012 -6082,0 -11012,-4930 -11012,-11012 0,-6082 4930,-11012 11012,-11012z"
         id="path11"
         style="fill:#000000;stroke:#000000" /><g
         id="g13"
         style="fill:#000000;stroke:#000000"><path
           class="fil1"
           d="M24491 9175l71104 0 1497 0 0 1493 0 23766 -2993 0 0 -22273 -19359 0 0 22273 -2993 0 0 -22273 -21174 0 0 32223 11791 0 0 2987 -37874 0 -1490 0 0 -1493 1 -35210 0 -1493 1490 0zm23090 35209l0 -32223 -21600 0 -1 32223 21601 0z"
           id="path15"
           style="fill:#000000;stroke:#000000" /><path
           class="fil1"
           d="M64343 41163l-10275 0 0 -3284c1038,-987 2021,-1931 2947,-2832 923,-902 1827,-1835 2708,-2812 1784,-1959 3000,-3530 3650,-4705 651,-1181 979,-2399 979,-3654 0,-655 -102,-1223 -307,-1717 -204,-494 -483,-902 -844,-1224 -365,-316 -790,-552 -1274,-707 -483,-156 -1016,-237 -1591,-237 -554,0 -1118,70 -1693,215 -570,139 -1118,316 -1645,526 -441,176 -866,391 -1274,643 -409,252 -742,467 -995,644l-171 0 0 -3331c650,-328 1558,-644 2714,-955 1161,-306 2263,-462 3300,-462 2183,0 3898,579 5134,1739 1242,1158 1860,2725 1860,4705 0,911 -108,1754 -322,2532 -215,773 -511,1492 -892,2152 -388,681 -855,1357 -1398,2028 -549,671 -1124,1330 -1737,1979 -983,1069 -2085,2179 -3300,3333 -1210,1153 -2177,2065 -2902,2736l9989 0 -2661 2688z"
           id="path17"
           style="fill:#000000;stroke:#000000" /><path
           class="fil1"
           d="M83896 20188c-553,0 -1106,68 -1665,199 -553,137 -1101,311 -1633,526 -495,206 -927,421 -1290,647 -364,227 -690,437 -981,631l-184 0 0 -3249c669,-363 1575,-690 2724,-979 1148,-294 2239,-441 3282,-441 1037,0 1944,105 2723,316 774,210 1475,536 2103,978 679,494 1190,1088 1537,1787 343,700 517,1514 517,2450 0,1262 -416,2372 -1249,3328 -832,953 -1833,1562 -2993,1814l0 216c480,94 996,252 1550,478 548,226 1064,563 1533,1004 473,443 858,1010 1159,1699 299,694 447,1541 447,2534 0,104 -1,206 -5,308l-3145 0c10,-168 16,-342 16,-523 0,-831 -121,-1515 -363,-2051 -243,-531 -580,-951 -1012,-1261 -427,-306 -943,-521 -1533,-637 -590,-121 -1227,-178 -1917,-178l-1312 0 0 -2556 1017 0c1390,0 2518,-331 3387,-988 869,-658 1301,-1610 1301,-2866 0,-573 -110,-1068 -337,-1482 -227,-416 -516,-747 -864,-995 -395,-267 -827,-452 -1296,-557 -474,-100 -979,-152 -1517,-152z"
           id="path19"
           style="fill:#000000;stroke:#000000" /><path
           class="fil1"
           d="M43039 41163l-11434 0 0 -2388 4252 0 0 -15694 -4252 0 0 -2135c1607,0 2790,-225 3553,-681 759,-456 1188,-1320 1285,-2586l2441 0 0 21096 4155 0 0 2388z"
           id="path21"
           style="fill:#000000;stroke:#000000" /></g></g></g></svg>