<?xml version="1.0" encoding="UTF-8" standalone="no"?>
<!-- Creator: CorelDRAW X5 -->

<svg
   xmlns:dc="http://purl.org/dc/elements/1.1/"
   xmlns:cc="http://creativecommons.org/ns#"
   xmlns:rdf="http://www.w3.org/1999/02/22-rdf-syntax-ns#"
   xmlns:svg="http://www.w3.org/2000/svg"
   xmlns="http://www.w3.org/2000/svg"
   xmlns:sodipodi="http://sodipodi.sourceforge.net/DTD/sodipodi-0.dtd"
   xmlns:inkscape="http://www.inkscape.org/namespaces/inkscape"
   xml:space="preserve"
   width="12mm"
   height="8mm"
   style="shape-rendering:geometricPrecision; text-rendering:geometricPrecision; image-rendering:optimizeQuality; fill-rule:evenodd; clip-rule:evenodd"
   viewBox="0 0 120000 80000"
   id="svg2"
   version="1.1"
   inkscape:version="0.91 r13725"
   sodipodi:docname="PerformanceMainTime.svg"><metadata
     id="metadata25"><rdf:RDF><cc:Work
         rdf:about=""><dc:format>image/svg+xml</dc:format><dc:type
           rdf:resource="http://purl.org/dc/dcmitype/StillImage" /></cc:Work></rdf:RDF></metadata><sodipodi:namedview
     pagecolor="#ffffff"
     bordercolor="#666666"
     borderopacity="1"
     objecttolerance="10"
     gridtolerance="10"
     guidetolerance="10"
     inkscape:pageopacity="0"
     inkscape:pageshadow="2"
     inkscape:window-width="1920"
     inkscape:window-height="1018"
     id="namedview23"
     showgrid="false"
     inkscape:zoom="8.3255556"
     inkscape:cx="21.13973"
     inkscape:cy="14.173228"
     inkscape:window-x="1912"
     inkscape:window-y="-8"
     inkscape:window-maximized="1"
     inkscape:current-layer="svg2" /><defs
     id="defs4"><style
       type="text/css"
       id="style6"><![CDATA[
    .fil0 {fill:black}
    .fil1 {fill:black;fill-rule:nonzero}
   ]]></style></defs><g
     id="Слой_x0020_1"
     style="fill:#000000;stroke:#000000"><metadata
       id="CorelCorpID_0Corel-Layer" /><g
       id="_330358864"
       style="fill:#000000;stroke:#000000"><path
         class="fil0"
         d="M30601 68272c1174,-12683 5585,-21234 11881,-27385l0 -1696c-6296,-6151 -10707,-14705 -11881,-27388l2553 24c1177,12670 5586,21217 11878,27364l0 1696c-6292,6146 -10701,14691 -11878,27361l-2553 24zm28754 -56445l2552 -24c-1013,10957 -4446,18831 -9420,24737l-2550 0c4971,-5901 8401,-13768 9418,-24713zm5044 24713l-2492 0 0 -24737 -31306 0 0 56469 10682 0 -3001 2573 -10379 0 0 -61670 36593 0"
         id="path11"
         style="fill:#000000;stroke:#000000" /><g
         id="g13"
         style="fill:#000000;stroke:#000000"><path
           class="fil1"
           d="M54520 60564l2072 -9 -8 -1511 -4689 0 -697 0 -150 -652 -3927 -16984 -797 -3472 1502 0 11761 0 1676 0 0 1599 75 10137 27508 4 1061 0 782 1677 1387 2975 415 891 -574 350 -7583 4612 0 2041c48,31 97,64 144,98 190,134 374,287 543,450 874,840 1419,2017 1419,3320l0 1 -4 0c0,1273 -517,2424 -1353,3258 -833,831 -1985,1346 -3258,1346l0 5 -4 0 -2 0 0 -5c-1275,0 -2428,-516 -3263,-1350 -834,-832 -1348,-1981 -1349,-3250l-4 0 0 -5 0 -5 4 0c0,-664 141,-1294 389,-1858 34,-72 78,-164 134,-272 126,-237 269,-463 432,-672l-767 -1066 -5413 0 0 1718c2,65 3,132 3,197l0 1 -3 0c0,1854 -754,3533 -1971,4745 -1213,1213 -2893,1961 -4747,1963l0 3 -4 0 -2 0 0 -3c-893,-1 -1745,-173 -2519,-486 -243,-98 -490,-217 -737,-353 -1056,-586 -1942,-1451 -2550,-2497l-4910 0 0 361 0 1 0 2 0 9 -1 0c-5,1375 -1127,2492 -2509,2492l-8 0 0 0 -9921 0 0 -648 12417 -9158zm1144 5268l4291 1 527 0 228 475c452,943 1194,1725 2108,2230 169,94 353,182 552,263 587,235 1225,368 1888,368l0 -5 2 0 4 0 0 5c1391,0 2651,-567 3564,-1477 913,-911 1477,-2168 1477,-3559l-2 0 0 -1 0 -3593 155 0 1524 0 5845 0 430 0 254 350 1410 1963 428 595 -536 505c-242,224 -444,487 -596,775 -19,40 -48,97 -82,177 -161,363 -253,765 -253,1181l3 0 0 5 0 5 -3 0c0,806 331,1537 863,2070 532,529 1265,858 2074,859l0 -4 2 0 4 0 0 4c809,-2 1544,-330 2075,-862 531,-530 860,-1261 860,-2071l-3 0 0 -1c0,-831 -345,-1581 -898,-2113 -107,-102 -223,-198 -347,-284 -124,-89 -254,-165 -389,-232l-3 -4 -4 -1 -466 -234 0 -515 0 -2996 0 -469 405 -246 7417 -4509 -1626 -3134 -11587 -4 -10431 3c63,-573 169,-1132 317,-1676l-2233 0c-128,546 -221,1105 -275,1676l-5050 1 -1 -3356 1 -8375 -11156 0 4116 17737 4880 60 824 8 3 824 17 3134 6 837 -3301 -4 -8315 6297 5220 0c911,2 1279,-450 1275,-1341l-3 -1339 2511 0 0 -3zm7504 -16156c572,-2794 1958,-5292 3900,-7234 1294,-1294 2836,-2342 4547,-3066 1712,-724 3594,-1124 5569,-1124l0 11424 0 -9722c-5969,0 -10968,4150 -12272,9722l-1744 0zm5729 0l-1752 0c1172,-4333 4926,-7639 9593,-8048l24 1702c-3725,385 -6754,2944 -7865,6346zm8287 -11424c4225,0 8471,0 12696,0 -168,564 -336,1129 -504,1693 -2029,1 -4077,3 -6105,4 -2029,2 -4058,3 -6087,5 0,-568 0,-1135 0,-1702zm-446 3376l12136 0 -507 1702 -11605 0 -24 -1702zm11629 1702l1513 -5078 1785 0 -1510 5078 -1788 0z"
           id="path15"
           style="fill:#000000;stroke:#000000" /><g
           id="g17"
           style="fill:#000000;stroke:#000000"><ellipse
             class="fil0"
             cx="65456"
             cy="61050"
             rx="2472"
             ry="2467"
             id="ellipse19"
             style="fill:#000000;stroke:#000000" /><path
             class="fil1"
             d="M62143 56599c2455,-1317 5124,-1346 7460,474l637 -800c-2773,-2225 -5830,-1983 -8735,-455l1308 -2883 -467 -210 -466 -211 -1985 4376 -326 718 789 4 4813 24 5 -1021 -3033 -16z"
             id="path21"
             style="fill:#000000;stroke:#000000" /></g></g></g></g></svg>