<?xml version="1.0" encoding="UTF-8"?>
<!DOCTYPE svg PUBLIC "-//W3C//DTD SVG 1.1//EN" "http://www.w3.org/Graphics/SVG/1.1/DTD/svg11.dtd">
<!-- Creator: CorelDRAW X5 -->
<svg xmlns="http://www.w3.org/2000/svg" xml:space="preserve" width="12mm" height="8mm" style="shape-rendering:geometricPrecision; text-rendering:geometricPrecision; image-rendering:optimizeQuality; fill-rule:evenodd; clip-rule:evenodd"
viewBox="0 0 120000 80000"
 xmlns:xlink="http://www.w3.org/1999/xlink">
 <defs>
  <style type="text/css">
   <![CDATA[
    .fil0 {fill:black}
   ]]>
  </style>
 </defs>
 <g id="Слой_x0020_1">
  <metadata id="CorelCorpID_0Corel-Layer"/>
  <g id="_297676168">
   <g>
    <path class="fil0" d="M70414 52306c1134,0 2051,906 2051,2029 0,1120 -917,2030 -2051,2030 -1134,0 -2054,-910 -2054,-2030 0,-1123 920,-2029 2054,-2029z"/>
    <path class="fil0" d="M54083 47640c2613,-3593 6487,-6101 10867,-7026l-1016 -2550c4252,-580 8570,362 12184,2648l1060 -2536c3637,2590 6168,6423 7104,10754l2578 -1006c587,4203 -364,8480 -2677,12054l2563 1049c-2616,3597 -6490,6099 -10868,7026l1012 2551c-4247,582 -8566,-359 -12178,-2645l-1062 2531c-3636,-2586 -6170,-6418 -7105,-10749l-2575 1001c-585,-4202 358,-8476 2672,-12051l-2559 -1051m16331 18694c6698,0 12130,-5374 12130,-11999 0,-6630 -5432,-12002 -12130,-12002 -6701,0 -12131,5372 -12131,12002 0,6625 5430,11999 12131,11999z"/>
   </g>
   <path class="fil0" d="M35643 68203c1171,-12667 5577,-21208 11864,-27350l0 -1694c-6287,-6143 -10693,-14685 -11864,-27352l2549 24c1175,12653 5579,21189 11862,27328l0 1694c-6283,6138 -10687,14673 -11862,27326l-2549 24zm28716 -56372l2549 -24c-1172,12665 -5579,21207 -11864,27349l0 1699c906,886 1773,1823 2597,2814 -505,436 -989,898 -1451,1385 -1140,-1516 -2376,-2910 -3694,-4199l0 -1699c6282,-6138 10688,-14673 11863,-27325zm-6718 31838l61 73c-457,521 -878,1072 -1258,1652l-254 -340c462,-487 946,-949 1451,-1385zm-24693 -34487l36545 0 0 26976c-858,-49 -1721,-44 -2585,16l0 -24367 -31265 0 0 56396 25058 0c672,915 1423,1775 2246,2569l-29999 0 0 -61590zm36545 26976l0 2511c-173,-5 -345,-10 -519,-10 -701,0 -1391,49 -2066,142l0 -2627c864,-60 1727,-65 2585,-16zm-8792 32045l2242 0c302,910 710,1770 1212,2569l-1208 0c-823,-794 -1574,-1654 -2246,-2569z"/>
  </g>
 </g>
 <g id="Направляющие">
  <metadata id="CorelCorpID_1Corel-Layer"/>
 </g>
</svg>
