<?xml version="1.0" encoding="UTF-8"?>
<!DOCTYPE svg PUBLIC "-//W3C//DTD SVG 1.1//EN" "http://www.w3.org/Graphics/SVG/1.1/DTD/svg11.dtd">
<!-- Creator: CorelDRAW X5 -->
<svg xmlns="http://www.w3.org/2000/svg" xml:space="preserve" width="12mm" height="8mm" style="shape-rendering:geometricPrecision; text-rendering:geometricPrecision; image-rendering:optimizeQuality; fill-rule:evenodd; clip-rule:evenodd"
viewBox="0 0 120000 80000"
 xmlns:xlink="http://www.w3.org/1999/xlink">
 <defs>
  <style type="text/css">
   <![CDATA[
    .fil0 {fill:none}
    .fil1 {fill:black}
    .fil2 {fill:black;fill-rule:nonzero}
   ]]>
  </style>
 </defs>
 <g id="Слой_x0020_1">
  <metadata id="CorelCorpID_0Corel-Layer"/>
  <g id="_297676264">
   <path class="fil0" d="M103138 58591l-7734 0 7734 -7734 0 7734zm-16104 0l-8370 0 24474 -24474 0 8370 -16104 16104zm-16740 0l-4317 0 0 -4053 33108 -33108 4053 0 0 4317 -32844 32844zm-4317 -12423l0 -8370 16368 -16368 8370 0 -24738 24738zm0 -16740l0 -7998 7998 0 -7998 7998z"/>
   <g>
    <path class="fil1" d="M54107 58673l-7746 0 7746 -7746 0 7746zm-16129 0l-8383 0 24512 -24512 0 8383 -16129 16129zm-16766 0l-4324 0 0 -4059 33160 -33160 4059 0 0 4324 -32895 32895zm-4324 -12442l0 -8382 16394 -16395 8383 0 -24777 24777zm0 -16766l0 -8011 8011 0 -8011 8011z"/>
    <polygon class="fil2" points="55937,57770 66775,21348 70332,22408 59494,58830 "/>
    <path class="fil1" d="M72962 21348l22106 0 0 37325 -22106 0 0 -37325zm2157 35348c667,-7388 3174,-12369 6752,-15952l0 -987c-3578,-3583 -6085,-8566 -6752,-15954l8896 86 8896 -86c-667,7388 -3175,12369 -6752,15952l0 991c3577,3583 6085,8563 6752,15950l-8896 -85 -8896 85z"/>
   </g>
  </g>
 </g>
 <g id="Направляющие">
  <metadata id="CorelCorpID_1Corel-Layer"/>
 </g>
</svg>
