<?xml version="1.0" encoding="UTF-8" standalone="no"?>
<!-- Creator: CorelDRAW X5 -->

<svg
   xmlns:dc="http://purl.org/dc/elements/1.1/"
   xmlns:cc="http://creativecommons.org/ns#"
   xmlns:rdf="http://www.w3.org/1999/02/22-rdf-syntax-ns#"
   xmlns:svg="http://www.w3.org/2000/svg"
   xmlns="http://www.w3.org/2000/svg"
   xmlns:sodipodi="http://sodipodi.sourceforge.net/DTD/sodipodi-0.dtd"
   xmlns:inkscape="http://www.inkscape.org/namespaces/inkscape"
   xml:space="preserve"
   width="12mm"
   height="8mm"
   style="shape-rendering:geometricPrecision; text-rendering:geometricPrecision; image-rendering:optimizeQuality; fill-rule:evenodd; clip-rule:evenodd"
   viewBox="0 0 120000 80000"
   id="svg2"
   version="1.1"
   inkscape:version="0.91 r13725"
   sodipodi:docname="PerformanceShredding.svg"><metadata
     id="metadata17"><rdf:RDF><cc:Work
         rdf:about=""><dc:format>image/svg+xml</dc:format><dc:type
           rdf:resource="http://purl.org/dc/dcmitype/StillImage" /></cc:Work></rdf:RDF></metadata><sodipodi:namedview
     pagecolor="#ffffff"
     bordercolor="#666666"
     borderopacity="1"
     objecttolerance="10"
     gridtolerance="10"
     guidetolerance="10"
     inkscape:pageopacity="0"
     inkscape:pageshadow="2"
     inkscape:window-width="1920"
     inkscape:window-height="1018"
     id="namedview15"
     showgrid="false"
     inkscape:zoom="8.3255556"
     inkscape:cx="21.13973"
     inkscape:cy="14.173228"
     inkscape:window-x="1912"
     inkscape:window-y="-8"
     inkscape:window-maximized="1"
     inkscape:current-layer="svg2" /><defs
     id="defs4"><style
       type="text/css"
       id="style6"><![CDATA[
    .fil0 {fill:black}
   ]]></style></defs><g
     id="Слой_x0020_1"
     style="fill:#000000;stroke:#000000"><metadata
       id="CorelCorpID_0Corel-Layer" /><g
       id="_330359920"
       style="fill:#000000;stroke:#000000"><path
         class="fil0"
         d="M36392 68162c1171,-12660 5575,-21196 11858,-27335l0 -1692c-6283,-6140 -10687,-14677 -11858,-27337l2548 24c1174,12646 5576,21177 11855,27313l0 1692c-6279,6135 -10681,14664 -11855,27311l-2548 24zm28699 -56340l2548 -24c-1171,12658 -5576,21195 -11857,27334l0 1698c874,855 1713,1757 2512,2709 -567,342 -1114,718 -1636,1132 -1064,-1378 -2208,-2655 -3423,-3841l0 -1698c6279,-6135 10682,-14665 11856,-27310zm129 56317l-129 -1 -12 -125 141 126zm-31521 -58964l36524 0 0 28329c-512,2 -1197,310 -1201,397 -4,103 738,513 1201,770l0 2216c-866,-3 -1718,-3 -2584,22l0 -29111 -31247 0 0 56364 28855 0c1136,999 2412,1883 3799,2567l-35347 0 0 -61554z"
         id="path11"
         style="fill:#000000;stroke:#000000" /><path
         class="fil0"
         d="M72073 37901c3509,1379 6376,4114 8185,6935l548 888c180,293 347,725 509,993 344,500 871,1530 1116,1887l728 -420 1016 -605c259,-331 135,-440 283,-855 118,-774 40,-1087 53,-1860l1275 2194c560,3729 -375,7580 -1913,10556l-496 919c-164,302 -323,616 -474,889 -261,549 -836,1411 -1022,1802l728 421 1032 577c415,59 448,-103 881,-183 729,-284 961,-509 1637,-884l-1262 2201c-2949,2350 -6752,3465 -10098,3621l-1044 31c-344,9 -711,21 -1023,27 -605,48 -1639,-18 -2072,16l0 841 16 1182c157,389 314,337 600,672 610,489 921,578 1583,975l-2537 8c-3509,-1379 -6376,-4114 -8185,-6935l-548 -888c-180,-293 -348,-726 -509,-993 -345,-501 -1210,-1530 -1456,-1887l-728 420 -1016 605c-259,330 -135,440 -282,855 -119,773 -40,1087 -53,1859l-1275 -2193c-561,-3729 375,-7580 1913,-10556l495 -919c164,-302 444,-657 595,-931 261,-548 836,-1410 1023,-1802l-728 -420 -1032 -578c-416,-58 -449,104 -882,184 -729,284 -961,508 -1637,883l1262 -2201c2950,-2350 6752,-3465 10098,-3621l1044 -30c344,-10 929,20 1242,14 605,-48 1639,18 2071,-16l1 -841 -16 -1182c-157,-389 -314,-337 -600,-672 -610,-489 -921,-578 -1583,-975l2537 -8zm-985 6168c5659,0 10246,4587 10246,10246 0,5659 -4587,10246 -10246,10246 -5659,0 -10246,-4587 -10246,-10246 0,-5659 4587,-10246 10246,-10246z"
         id="path13"
         style="fill:#000000;stroke:#000000" /></g></g></svg>