<?xml version="1.0" encoding="UTF-8" standalone="no"?>
<!-- Creator: CorelDRAW X5 -->

<svg
   xmlns:dc="http://purl.org/dc/elements/1.1/"
   xmlns:cc="http://creativecommons.org/ns#"
   xmlns:rdf="http://www.w3.org/1999/02/22-rdf-syntax-ns#"
   xmlns:svg="http://www.w3.org/2000/svg"
   xmlns="http://www.w3.org/2000/svg"
   xmlns:sodipodi="http://sodipodi.sourceforge.net/DTD/sodipodi-0.dtd"
   xmlns:inkscape="http://www.inkscape.org/namespaces/inkscape"
   xml:space="preserve"
   width="42px"
   height="28px"
   style="shape-rendering:geometricPrecision; text-rendering:geometricPrecision; image-rendering:optimizeQuality; fill-rule:evenodd; clip-rule:evenodd"
   viewBox="0 0 42000 28000"
   id="svg2"
   version="1.1"
   inkscape:version="0.91 r13725"
   sodipodi:docname="Productivity - копия.svg"><metadata
     id="metadata27"><rdf:RDF><cc:Work
         rdf:about=""><dc:format>image/svg+xml</dc:format><dc:type
           rdf:resource="http://purl.org/dc/dcmitype/StillImage" /></cc:Work></rdf:RDF></metadata><sodipodi:namedview
     pagecolor="#ffffff"
     bordercolor="#666666"
     borderopacity="1"
     objecttolerance="10"
     gridtolerance="10"
     guidetolerance="10"
     inkscape:pageopacity="0"
     inkscape:pageshadow="2"
     inkscape:window-width="1920"
     inkscape:window-height="1058"
     id="namedview25"
     showgrid="false"
     inkscape:zoom="16.857143"
     inkscape:cx="7.1961265"
     inkscape:cy="11.728424"
     inkscape:window-x="-8"
     inkscape:window-y="-8"
     inkscape:window-maximized="1"
     inkscape:current-layer="svg2" /><defs
     id="defs4"><style
       type="text/css"
       id="style6"><![CDATA[
    .fil0 {fill:black}
    .fil1 {fill:black;fill-rule:nonzero}
   ]]></style></defs><g
     id="Слой_x0020_1"
     style="fill:#b3b3b3"><metadata
       id="CorelCorpID_0Corel-Layer" /><g
       id="_361542888"
       style="fill:#b3b3b3"><path
         class="fil0"
         d="M8169 6635l0 0 3669 11817 -7339 0 3670 -11818zm-625 5485l625 -2011 2149 6934 -4303 0 1529 -4923z"
         id="path11"
         style="fill:#b3b3b3" /><path
         class="fil1"
         d="M12527 6635l0 0 1177 2299 -2353 0 1176 -2299zm0 0m588 1150m-588 1149m-588 -1149"
         id="path13"
         style="fill:#b3b3b3" /><polygon
         class="fil0"
         points="17335,5225 8162,5225 8162,6635 17336,6635 "
         id="polygon15"
         style="fill:#b3b3b3" /><path
         class="fil0"
         d="M17338 6635l0 0 3669 11817 -7339 0 3670 -11818zm-625 5485l625 -2011 2149 6934 -4302 0 1529 -4923z"
         id="path17"
         style="fill:#b3b3b3" /></g><path
       class="fil0"
       d="M30704 22100c237,-2619 1125,-4384 2393,-5654l0 -350c-1268,-1269 -2156,-3035 -2393,-5653l3153 30 3152 -30c-236,2618 -1125,4383 -2393,5653l0 351c1268,1269 2156,3034 2393,5653l-3152 -30 -3153 30zm-764 -12527l7834 0 0 13227 -7834 0 0 -13227z"
       id="path19"
       style="fill:#b3b3b3" /><polygon
       class="fil0"
       points="22118,22800 27504,4698 29272,5225 23886,23328 "
       id="polygon21"
       style="fill:#b3b3b3" /></g><g
     id="Направляющие"><metadata
       id="CorelCorpID_1Corel-Layer" /></g></svg>