<?xml version="1.0" encoding="UTF-8"?>
<!DOCTYPE svg PUBLIC "-//W3C//DTD SVG 1.1//EN" "http://www.w3.org/Graphics/SVG/1.1/DTD/svg11.dtd">
<!-- Creator: CorelDRAW X5 -->
<svg xmlns="http://www.w3.org/2000/svg" xml:space="preserve" width="42px" height="28px" style="shape-rendering:geometricPrecision; text-rendering:geometricPrecision; image-rendering:optimizeQuality; fill-rule:evenodd; clip-rule:evenodd"
viewBox="0 0 42000 28000"
 xmlns:xlink="http://www.w3.org/1999/xlink">
 <defs>
  <style type="text/css">
   <![CDATA[
    .fil0 {fill:black}
    .fil1 {fill:black;fill-rule:nonzero}
   ]]>
  </style>
 </defs>
 <g id="Слой_x0020_1">
  <metadata id="CorelCorpID_0Corel-Layer"/>
  <g id="_361542888">
   <path class="fil0" d="M8169 6635l0 0 3669 11817 -7339 0 3670 -11818zm-625 5485l625 -2011 2149 6934 -4303 0 1529 -4923z"/>
   <path class="fil1" d="M12527 6635l0 0 1177 2299 -2353 0 1176 -2299zm0 0m588 1150m-588 1149m-588 -1149"/>
   <polygon class="fil0" points="17335,5225 8162,5225 8162,6635 17336,6635 "/>
   <path class="fil0" d="M17338 6635l0 0 3669 11817 -7339 0 3670 -11818zm-625 5485l625 -2011 2149 6934 -4302 0 1529 -4923z"/>
  </g>
  <path class="fil0" d="M30704 22100c237,-2619 1125,-4384 2393,-5654l0 -350c-1268,-1269 -2156,-3035 -2393,-5653l3153 30 3152 -30c-236,2618 -1125,4383 -2393,5653l0 351c1268,1269 2156,3034 2393,5653l-3152 -30 -3153 30zm-764 -12527l7834 0 0 13227 -7834 0 0 -13227z"/>
  <polygon class="fil0" points="22118,22800 27504,4698 29272,5225 23886,23328 "/>
 </g>
 <g id="Направляющие">
  <metadata id="CorelCorpID_1Corel-Layer"/>
 </g>
</svg>
