<?xml version="1.0" encoding="UTF-8"?>
<!DOCTYPE svg PUBLIC "-//W3C//DTD SVG 1.1//EN" "http://www.w3.org/Graphics/SVG/1.1/DTD/svg11.dtd">
<!-- Creator: CorelDRAW X5 -->
<svg xmlns="http://www.w3.org/2000/svg" xml:space="preserve" width="12mm" height="8mm" style="shape-rendering:geometricPrecision; text-rendering:geometricPrecision; image-rendering:optimizeQuality; fill-rule:evenodd; clip-rule:evenodd"
viewBox="0 0 120000 80000"
 xmlns:xlink="http://www.w3.org/1999/xlink">
 <defs>
  <style type="text/css">
   <![CDATA[
    .str0 {stroke:#B3B3B3;stroke-width:762}
    .fil0 {fill:#B3B3B3}
   ]]>
  </style>
 </defs>
 <g id="Слой_x0020_1">
  <metadata id="CorelCorpID_0Corel-Layer"/>
  <path class="fil0 str0" d="M94251 44847c6264,2369 9792,9021 8239,15534 -1554,6513 -7704,10859 -14362,10147 -6658,-713 -11749,-6262 -11889,-12956l4509 0c152,4822 4157,8623 8981,8522 4824,-102 8667,-4068 8616,-8892 -51,-4824 -3976,-8708 -8801,-8708l-28534 0 13237 8090 -2293 3752 -2210 -1350c-3116,4225 -7965,6827 -13208,7088 -5244,260 -10327,-1848 -13847,-5745l-2694 0 0 388c0,2971 -2407,5378 -5378,5378l-21539 0 20702 -15481 5260 0 0 -5588 -10587 0 -9647 -35287 62624 0 0 14898 19269 0 5436 11003 -11884 9207zm-45412 1360l23115 -14130 2293 3752 -13345 8158 29517 28 11934 -9246 -3522 -7126 -20405 0 0 -14899 -55387 0 8004 29276 11363 0 0 11548 -7443 -87 -12935 9674 11661 -1c1756,0 3189,-1402 3227,-3157l55 -2584 7065 0c2737,3631 7020,5766 11567,5766 4548,0 8831,-2135 11567,-5766l-18331 -11206zm40705 9262c1008,0 1826,817 1826,1825 0,1009 -818,1827 -1826,1827 -1008,0 -1825,-818 -1825,-1827 0,-1008 817,-1825 1825,-1825z"/>
 </g>
 <g id="Направляющие">
  <metadata id="CorelCorpID_1Corel-Layer"/>
 </g>
</svg>
