<?xml version="1.0" encoding="UTF-8"?>
<!DOCTYPE svg PUBLIC "-//W3C//DTD SVG 1.1//EN" "http://www.w3.org/Graphics/SVG/1.1/DTD/svg11.dtd">
<!-- Creator: CorelDRAW X5 -->
<svg xmlns="http://www.w3.org/2000/svg" xml:space="preserve" width="42px" height="28px" style="shape-rendering:geometricPrecision; text-rendering:geometricPrecision; image-rendering:optimizeQuality; fill-rule:evenodd; clip-rule:evenodd"
viewBox="0 0 42000 28000"
 xmlns:xlink="http://www.w3.org/1999/xlink">
 <defs>
  <style type="text/css">
   <![CDATA[
    .str0 {stroke:black;stroke-width:266.7}
    .fil1 {fill:black}
    .fil0 {fill:black;fill-rule:nonzero}
   ]]>
  </style>
 </defs>
 <g id="Слой_x0020_1">
  <metadata id="CorelCorpID_0Corel-Layer"/>
  <g id="_313336512">
   <polygon class="fil0 str0" points="18528,15679 18412,15679 18291,15679 18170,15679 18049,15679 17928,15679 17807,15679 17686,15679 17565,15679 17444,15679 17323,15679 17202,15679 17081,15679 16960,15679 16839,15679 16718,15679 16597,15679 16476,15679 16354,15679 16233,15679 16112,15679 15992,15679 15870,15679 15749,15679 15628,15679 15507,15679 15386,15679 15265,15679 15144,15679 15023,15679 14902,15679 14781,15679 14660,15679 14539,15679 14418,15679 14296,15679 14175,15679 14054,15679 13933,15679 13812,15679 13691,15679 13570,15679 13449,15679 13327,15679 13206,15679 13085,15679 12964,15679 12843,15679 12722,15679 12601,15679 12479,15679 12358,15679 12237,15679 12116,15679 12116,14932 18528,14932 "/>
   <polygon class="fil0 str0" points="18528,12868 18412,12868 18291,12868 18170,12868 18049,12868 17928,12868 17807,12868 17686,12868 17565,12868 17444,12868 17323,12868 17202,12868 17081,12868 16960,12868 16839,12868 16718,12868 16597,12868 16476,12868 16354,12868 16233,12868 16112,12868 15992,12868 15870,12868 15749,12868 15628,12868 15507,12868 15386,12868 15265,12868 15144,12868 15023,12868 14902,12868 14781,12868 14660,12868 14539,12868 14418,12868 14296,12868 14175,12868 14054,12868 13933,12868 13812,12868 13691,12868 13570,12868 13449,12868 13327,12868 13206,12868 13085,12868 12964,12868 12843,12868 12722,12868 12601,12868 12479,12868 12358,12868 12237,12868 12116,12868 12116,12122 18528,12122 "/>
   <polygon class="fil0 str0" points="13622,11729 12085,9353 12085,9353 12565,9041 13503,10486 13874,11059 14374,10290 15184,9042 15412,9190 15664,9353 14126,11729 13874,12118 "/>
   <polygon class="fil0 str0" points="13622,16086 12085,18461 12085,18461 12565,18774 13503,17329 13874,16756 14374,17525 15184,18773 15412,18625 15664,18461 14126,16086 13874,15696 "/>
   <path class="fil1 str0" d="M20643 9930c-1803,-1799 -1802,-4722 0,-6524 1801,-1801 4737,-1799 6536,4 1800,1803 1765,4749 -13,6520 -1778,1771 -4720,1799 -6524,0zm-442 1952l-1510 -1510 1285 -1285c390,636 922,1156 1511,1511l-1286 1285zm8949 -1524l-1510 1510 -1291 -1291c618,-386 1120,-881 1508,-1512l1293 1293zm-10439 -7414l1510 -1510 1290 1290c-638,391 -1141,895 -1520,1500l-1281 -1281zm8909 -1493l1510 1510 -1290 1288c-389,-610 -878,-1144 -1511,-1507l1291 -1291zm-4786 -1100l2136 0 3 1830c-742,-173 -1429,-181 -2129,-3l-10 -1828zm2138 12637l-2136 0 0 -1829c733,159 1442,128 2136,-2l0 1831zm5256 -7384l0 2136 -1839 -3c147,-690 187,-1407 5,-2133l1835 0zm-12640 2127l0 -2135 1828 0c-163,735 -194,1447 0,2136l-1828 0zm4010 1245c-1255,-1273 -1345,-3343 0,-4617 1345,-1274 3390,-1260 4617,0 1227,1260 1363,3349 0,4618 -1363,1268 -3363,1273 -4618,0z"/>
   <path class="fil1 str0" d="M20643 24592c-1803,-1799 -1802,-4722 0,-6524 1801,-1801 4737,-1799 6536,4 1800,1803 1765,4749 -13,6520 -1778,1771 -4720,1799 -6524,0zm-442 1952l-1510 -1510 1285 -1285c390,636 922,1156 1511,1511l-1286 1285zm8949 -1524l-1510 1510 -1291 -1291c618,-386 1120,-881 1508,-1512l1293 1293zm-10439 -7414l1510 -1510 1290 1290c-638,391 -1141,895 -1520,1500l-1281 -1280zm8909 -1493l1510 1510 -1290 1288c-389,-609 -878,-1143 -1511,-1507l1291 -1291zm-4786 -1100l2136 0 3 1831c-742,-173 -1429,-181 -2129,-3l-10 -1828zm2138 12637l-2136 0 0 -1829c733,159 1442,128 2136,-2l0 1831zm5256 -7384l0 2136 -1839 -4c147,-690 187,-1406 5,-2132l1835 0zm-12640 2127l0 -2136 1828 0c-163,735 -194,1448 0,2136l-1828 0zm4010 1245c-1255,-1273 -1345,-3343 0,-4617 1345,-1274 3390,-1260 4617,0 1227,1260 1363,3349 0,4618 -1363,1268 -3363,1272 -4618,0z"/>
  </g>
 </g>
</svg>
