<svg width="55" height="25" viewBox="0 0 55 25" fill="none" xmlns="http://www.w3.org/2000/svg">
<path d="M52.3678 4.46543H51.9271C50.5654 4.46384 49.2071 4.3296 47.8715 4.06464C46.535 3.80392 45.2272 3.41276 43.9671 2.89677C40.8409 1.6212 37.3942 1.35486 34.1092 2.135C33.5846 2.30139 33.086 2.54086 32.6282 2.84634C32.4075 2.99377 32.1422 3.05911 31.8783 3.03098C31.6145 3.00285 31.3688 2.88302 31.1842 2.69239C30.8026 2.29198 30.3644 1.94951 29.8837 1.67582C27.6931 0.62365 25.2934 0.0792856 22.8632 0.0832737C21.9371 0.0835747 21.0128 0.162602 20.1001 0.319501C18.9142 0.525906 17.7127 0.629805 16.5089 0.630048C15.0959 0.629916 13.6865 0.487641 12.302 0.205369L1.03206 13.7818L0.583496 17.4632C2.35379 17.9044 4.17108 18.129 5.99549 18.1321C7.02545 18.1318 8.05417 18.0608 9.07442 17.9198C11.061 17.6455 13.0827 17.7819 15.0144 18.3207C16.9461 18.8594 18.7466 19.789 20.3045 21.0518L24.5194 21.7976C25.7525 21.2762 27.0771 21.0055 28.4159 21.0014H28.5194C28.7848 21.0014 29.0715 20.9801 29.3475 20.9801C32.1093 20.9786 34.83 21.6481 37.2757 22.931C39.2758 24.0784 41.5418 24.6815 43.8476 24.6801C44.1131 24.6801 44.3785 24.6801 44.6439 24.6562L54.4168 7.7328L52.3678 4.46543ZM32.6228 5.02813C32.8958 4.63712 33.2311 4.29368 33.6155 4.01155C33.8989 3.83837 34.2019 3.69938 34.518 3.59749C35.6115 3.34092 36.7311 3.21178 37.8544 3.21262C38.8021 3.21036 39.7478 3.29925 40.6785 3.47805C41.6088 3.6605 42.5191 3.93342 43.3964 4.2929C44.4779 4.73179 45.5915 5.08674 46.7275 5.3546C47.8623 5.62001 49.0159 5.79748 50.178 5.88545C50.2512 5.8945 50.3186 5.92998 50.3674 5.98521C50.4163 6.04044 50.4433 6.11162 50.4434 6.18538C50.4438 6.23844 50.43 6.29065 50.4036 6.33667L42.3984 20.2555C41.3677 20.0221 40.3945 19.5834 39.5371 18.9655C36.951 17.0035 33.8343 15.865 30.5924 15.6982C30.3959 15.6849 30.1969 15.6796 29.9978 15.6796C28.3895 15.6803 26.8013 16.0374 25.3476 16.7254C25.3138 16.7464 25.2751 16.7582 25.2353 16.7595C25.1955 16.7608 25.1561 16.7515 25.1211 16.7327C25.0861 16.7138 25.0566 16.686 25.0358 16.6521C25.015 16.6182 25.0035 16.5794 25.0025 16.5396C25.0023 16.4948 25.0163 16.4512 25.0423 16.4148L28.952 10.5489H37.7429C38.0254 10.884 38.3729 11.1583 38.7644 11.3553C39.1559 11.5522 39.5833 11.6677 40.0207 11.6947C40.4581 11.7218 40.8965 11.6598 41.3093 11.5126C41.7221 11.3654 42.1007 11.136 42.4223 10.8383L40.2432 10.2543L39.4469 8.87147L40.8298 8.0752L43.0089 8.65913C42.8418 8.11016 42.5295 7.61653 42.105 7.23042C41.6805 6.8443 41.1595 6.58004 40.5972 6.46557C40.0349 6.3511 39.4521 6.39066 38.9105 6.58008C38.3688 6.76951 37.8884 7.10175 37.5199 7.54169H30.9533L32.6228 5.02813ZM12.8992 1.84304C14.0926 2.03738 15.2998 2.13502 16.5089 2.135C17.7981 2.13449 19.0848 2.02349 20.3549 1.80322C22.2606 1.46751 24.214 1.51443 26.1014 1.94124C27.164 2.17953 28.1967 2.53564 29.1803 3.00294C29.9306 3.4444 30.528 4.10475 30.8923 4.89541L29.1431 7.5178H17.1566C16.8722 7.18486 16.5233 6.9129 16.1311 6.7183C15.7388 6.52369 15.3112 6.41046 14.8741 6.38541C14.4369 6.36037 13.9992 6.42403 13.5873 6.57257C13.1753 6.7211 12.7977 6.95144 12.4772 7.24973L14.651 7.8257L15.4472 9.20856L14.0644 10.0048L11.8826 9.4209C12.0482 9.97235 12.3603 10.4686 12.7855 10.8568C13.2107 11.2451 13.7332 11.5108 14.2974 11.6257C14.8616 11.7406 15.4464 11.7004 15.9896 11.5094C16.5328 11.3184 17.0141 10.9837 17.3822 10.541H27.1259L22.8128 17.0226C22.7779 17.0755 22.7322 17.1203 22.6787 17.1542C22.6252 17.1881 22.5651 17.2103 22.5024 17.2194C22.4398 17.2284 22.3759 17.224 22.315 17.2066C22.2541 17.1892 22.1976 17.159 22.1492 17.1182C20.8331 15.9996 19.3347 15.1153 17.7193 14.5038C14.9662 13.4202 11.9683 13.1144 9.05318 13.6199C7.86642 13.8268 6.664 13.9307 5.45934 13.9305C5.25496 13.9305 5.05058 13.9305 4.84355 13.9305C4.77637 13.9344 4.70901 13.9344 4.64183 13.9305C4.14047 13.93 3.65366 13.7619 3.25897 13.4527L12.8992 1.84304ZM42.3029 22.7903C42.2534 22.8562 42.1893 22.9098 42.1156 22.9466C42.0419 22.9835 41.9606 23.0026 41.8782 23.0026C41.8482 23.0052 41.818 23.0052 41.7879 23.0026C40.9881 22.8722 40.2089 22.6366 39.4708 22.3019C38.5135 21.8224 37.5668 21.3172 36.6308 20.7864C35.5802 20.2527 34.4773 19.8293 33.3395 19.5229C30.3731 18.6321 27.1805 18.886 24.392 20.2343L20.9415 19.6265C19.2427 18.318 17.3004 17.3607 15.228 16.8103C13.1555 16.2598 10.9943 16.1272 8.87004 16.4201C7.9176 16.5527 6.95712 16.6192 5.99549 16.6192H5.82562C4.80615 16.6091 3.78872 16.5257 2.78121 16.3697C2.64981 16.3565 2.52805 16.2948 2.43971 16.1966C2.35137 16.0985 2.30278 15.9709 2.30344 15.8389C2.30167 15.768 2.3141 15.6976 2.33998 15.6316C2.36586 15.5657 2.40468 15.5056 2.45416 15.4549C2.50363 15.4042 2.56275 15.3639 2.62803 15.3364C2.69332 15.3089 2.76345 15.2947 2.83429 15.2947H2.91657C3.75647 15.3889 4.60091 15.4368 5.44607 15.4381C5.66902 15.4381 5.89198 15.4381 6.11494 15.4381C7.18282 15.4054 8.24711 15.2981 9.30003 15.1169C11.3729 14.7545 13.4995 14.8426 15.5353 15.3752C17.5711 15.9079 19.4684 16.8726 21.0981 18.2038L24.3151 18.7718C25.7554 18.0165 27.3575 17.6222 28.9839 17.6225C29.1378 17.6225 29.2891 17.6225 29.4404 17.6225H29.6713C32.9147 17.6196 36.0918 18.5403 38.8311 20.2767C39.7231 20.8796 40.7101 21.3282 41.7508 21.6039C41.8703 21.6409 41.98 21.7043 42.0718 21.7892C42.1637 21.8742 42.2354 21.9786 42.2816 22.0949C42.349 22.1924 42.3851 22.3081 42.3851 22.4267C42.3967 22.5535 42.3679 22.6808 42.3029 22.7903ZM44.129 22.5249L43.5185 21.3172L51.7254 7.1064C51.752 7.06186 51.7898 7.02499 51.8349 6.99938C51.88 6.97378 51.931 6.96032 51.9829 6.96032C52.0348 6.96032 52.0858 6.97378 52.1309 6.99938C52.176 7.02499 52.2137 7.06186 52.2403 7.1064L52.5562 7.6107C52.5855 7.65867 52.6011 7.71375 52.6013 7.76996C52.6017 7.82302 52.5879 7.87523 52.5615 7.92125L44.129 22.5249Z" fill="#F8B000"/>
</svg>
