<svg width="48" height="48" viewBox="0 0 48 48" fill="none" xmlns="http://www.w3.org/2000/svg">
<path d="M41.1341 23.9851L37.8939 23.1366C37.0991 21.3194 35.9175 19.6974 34.4315 18.3838L33.5405 14.5669L29.5652 10.672L27.0435 10.4238L29.3478 12.6903L27.0222 15.0727C26.5074 15.0152 25.9898 14.9876 25.4718 14.9899C23.9791 14.9841 22.4956 15.2237 21.0806 15.699L17.4031 14.5669L12.0358 16.0535L10.5587 18.112L13.6736 17.2517L14.5765 20.5156C13.3865 22.1021 12.5632 23.9328 12.1658 25.8758L9.32968 28.5323L7.93054 33.9256L8.97281 36.2323L9.78582 33.1055L13.0119 33.9469C13.812 35.7739 15.0046 37.4022 16.505 38.7162L17.3795 42.5143L21.35 46.4163L23.8694 46.6668L21.5674 44.3979L23.9167 42.0345C24.4277 42.0883 24.9414 42.1136 25.4553 42.1101C26.9321 42.111 28.3993 41.8716 29.7992 41.4011L33.5121 42.5379L38.8794 41.0489L40.3566 38.988L37.2416 39.8507L36.3506 36.6246C37.5335 35.0264 38.3457 33.1849 38.7282 31.2337L41.5926 28.5701L42.9847 23.1744L41.9401 20.8677L41.1341 23.9851ZM25.46 40.503C23.0947 40.503 20.7826 39.8016 18.816 38.4876C16.8494 37.1735 15.3166 35.3058 14.4114 33.1206C13.5063 30.9354 13.2695 28.5309 13.7309 26.2111C14.1923 23.8913 15.3313 21.7604 17.0038 20.0879C18.6763 18.4154 20.8071 17.2765 23.1269 16.815C25.4467 16.3536 27.8512 16.5904 30.0364 17.4956C32.2216 18.4007 34.0894 19.9335 35.4034 21.9001C36.7175 23.8668 37.4189 26.1789 37.4189 28.5441C37.4192 30.1147 37.11 31.6699 36.5092 33.1209C35.9083 34.572 35.0274 35.8905 33.9169 37.001C32.8063 38.1116 31.4879 38.9924 30.0368 39.5933C28.5858 40.1942 27.0305 40.5033 25.46 40.503Z" fill="black"/>
<path d="M26.0461 26.9274C25.7281 26.812 25.3831 26.7934 25.0545 26.874C24.726 26.9546 24.4287 27.1308 24.2003 27.3802C23.9718 27.6297 23.8224 27.9413 23.771 28.2757C23.7196 28.61 23.7684 28.9521 23.9113 29.2587C24.0542 29.5653 24.2848 29.8227 24.5739 29.9983C24.863 30.1739 25.1977 30.2599 25.5357 30.2454C25.8736 30.2308 26.1997 30.1165 26.4727 29.9167C26.7457 29.7169 26.9534 29.4407 27.0694 29.123C27.2247 28.6961 27.2042 28.2251 27.0123 27.8134C26.8204 27.4016 26.4728 27.083 26.0461 26.9274Z" fill="black"/>
<path d="M36.414 4.18604H26.0269V8.57564H36.414V4.18604Z" fill="black"/>
</svg>
