<?xml version="1.0" encoding="UTF-8" standalone="no"?>
<svg
   xmlns:dc="http://purl.org/dc/elements/1.1/"
   xmlns:cc="http://creativecommons.org/ns#"
   xmlns:rdf="http://www.w3.org/1999/02/22-rdf-syntax-ns#"
   xmlns:svg="http://www.w3.org/2000/svg"
   xmlns="http://www.w3.org/2000/svg"
   xmlns:sodipodi="http://sodipodi.sourceforge.net/DTD/sodipodi-0.dtd"
   xmlns:inkscape="http://www.inkscape.org/namespaces/inkscape"
   id="svg5413"
   version="1.1"
   viewBox="0 0 7.2491679 5.223001"
   height="5.223001mm"
   width="7.2491679mm"
   inkscape:version="0.91 r13725"
   sodipodi:docname="_Knife.svg">
  <sodipodi:namedview
     pagecolor="#ffffff"
     bordercolor="#666666"
     borderopacity="1"
     objecttolerance="10"
     gridtolerance="10"
     guidetolerance="10"
     inkscape:pageopacity="0"
     inkscape:pageshadow="2"
     inkscape:window-width="1920"
     inkscape:window-height="1031"
     id="namedview16"
     showgrid="false"
     inkscape:zoom="9.6161228"
     inkscape:cx="13.050998"
     inkscape:cy="9.2533482"
     inkscape:window-x="0"
     inkscape:window-y="25"
     inkscape:window-maximized="1"
     inkscape:current-layer="svg5413" />
  <defs
     id="defs5407" />
  <metadata
     id="metadata5410">
    <rdf:RDF>
      <cc:Work
         rdf:about="">
        <dc:format>image/svg+xml</dc:format>
        <dc:type
           rdf:resource="http://purl.org/dc/dcmitype/StillImage" />
        <dc:title></dc:title>
      </cc:Work>
    </rdf:RDF>
  </metadata>
  <rect
     style="clip-rule:evenodd;fill:#000000;fill-rule:evenodd;stroke-width:0.00008371;image-rendering:optimizeQuality;shape-rendering:geometricPrecision;text-rendering:geometricPrecision"
     y="1.0116513"
     x="-4.8237672"
     class="fil0"
     transform="matrix(0,-1,1,0,0,0)"
     width="1.0671134"
     height="1.6089047"
     id="rect853" />
  <path
     style="clip-rule:evenodd;fill:#000000;fill-rule:evenodd;stroke-width:0.00019133;image-rendering:optimizeQuality;shape-rendering:geometricPrecision;text-rendering:geometricPrecision"
     d="m 5.1720797,0.42747414 c -0.3694241,-0.007401 -0.7369251,0.0330305 -1.1377083,0.15875 L 3.7813637,1.0244402 3.9566499,1.1258639 C 4.1377209,0.88186072 4.4390078,0.69829136 4.6792932,1.666606 L 4.2730476,2.3749177 C 3.751053,3.0155938 3.3400449,3.5341709 3.1568367,4.3543318 L 3.4098444,4.7925478 3.5845797,4.6911242 C 3.4640415,4.4120699 3.4559553,4.0594601 4.4147099,4.3355903 l 0.2882857,0.5060157 0.4845183,0 C 4.7773008,4.4250208 4.5238506,3.8556 4.5238506,3.2281988 c 0,-1.2779005 1.046255,-2.31289912 2.3377039,-2.31289912 0.091529,0 0.1813131,0.006404 0.2700954,0.0165364 l 0,-0.3759288 -0.8108374,0 C 5.9129932,0.49005954 5.5415038,0.43487539 5.1720797,0.42747414 Z"
     id="path855"
     inkscape:connector-curvature="0" />
</svg>
