<?xml version="1.0" encoding="UTF-8" standalone="no"?>
<!-- Generator: Adobe Illustrator 16.0.0, SVG Export Plug-In . SVG Version: 6.00 Build 0)  -->

<svg
   xmlns:osb="http://www.openswatchbook.org/uri/2009/osb"
   xmlns:dc="http://purl.org/dc/elements/1.1/"
   xmlns:cc="http://creativecommons.org/ns#"
   xmlns:rdf="http://www.w3.org/1999/02/22-rdf-syntax-ns#"
   xmlns:svg="http://www.w3.org/2000/svg"
   xmlns="http://www.w3.org/2000/svg"
   xmlns:sodipodi="http://sodipodi.sourceforge.net/DTD/sodipodi-0.dtd"
   xmlns:inkscape="http://www.inkscape.org/namespaces/inkscape"
   version="1.1"
   id="Capa_1"
   x="0px"
   y="0px"
   width="12mm"
   height="12mm"
   viewBox="0 0 42.519682 42.519683"
   xml:space="preserve"
   inkscape:version="0.91 r13725"
   sodipodi:docname="StopEngine_on.svg"><metadata
     id="metadata47"><rdf:RDF><cc:Work
         rdf:about=""><dc:format>image/svg+xml</dc:format><dc:type
           rdf:resource="http://purl.org/dc/dcmitype/StillImage" /><dc:title></dc:title></cc:Work></rdf:RDF></metadata><defs
     id="defs45"><linearGradient
       id="linearGradient15440"
       osb:paint="solid"><stop
         style="stop-color:#ffbf00;stop-opacity:1;"
         offset="0"
         id="stop15442" /></linearGradient><linearGradient
       id="linearGradient9633"
       osb:paint="solid"><stop
         style="stop-color:#000000;stop-opacity:1;"
         offset="0"
         id="stop9635" /></linearGradient><filter
       inkscape:collect="always"
       style="color-interpolation-filters:sRGB"
       id="filter9699"
       x="-0.043244501"
       width="1.086489"
       y="-0.071876725"
       height="1.1437534"><feGaussianBlur
         inkscape:collect="always"
         stdDeviation="1.6205516"
         id="feGaussianBlur9701" /></filter></defs><sodipodi:namedview
     pagecolor="#ffffff"
     bordercolor="#666666"
     borderopacity="1"
     objecttolerance="10"
     gridtolerance="10"
     guidetolerance="10"
     inkscape:pageopacity="0"
     inkscape:pageshadow="2"
     inkscape:window-width="1920"
     inkscape:window-height="1018"
     id="namedview43"
     showgrid="false"
     inkscape:zoom="11.313708"
     inkscape:cx="22.34682"
     inkscape:cy="15.666136"
     inkscape:window-x="1272"
     inkscape:window-y="-8"
     inkscape:window-maximized="1"
     inkscape:current-layer="Capa_1"
     units="mm"
     inkscape:document-units="mm" /><g
     style="opacity:1;fill-opacity:1;stroke:#000000;stroke-width:7.08701797;stroke-linejoin:round;stroke-miterlimit:4;stroke-dasharray:none;stroke-opacity:1;filter:url(#filter9699);fill:#ffbf00"
     transform="matrix(-0.36659514,0,0,0.36936815,37.835049,3.7223582)"
     id="use8694"><path
       style="fill-opacity:1"
       inkscape:connector-curvature="0"
       id="path9657"
       d="m 57.617,71.781 c 3.294,-1.278 6.568,-2.595 9.855,-3.872 0.293,-0.113 0.634,-0.152 0.947,-0.16 2.432,-0.01 4.864,-0.01 7.288,-0.01 2.519,0 4.138,-1.62 4.138,-4.166 l 0,-8.331 c 0,-0.597 0.481,-1.069 1.069,-1.069 l 1.05,-0.027 c 0.834,0 0.883,-0.323 0.909,-0.9 l 0.021,-4.837 c 0,-0.481 -0.389,-0.871 -0.872,-0.871 l -1.126,0 c -0.598,0 -1.079,-0.483 -1.079,-1.08 l 0.036,-10.101 c 0.029,-1.496 -0.576,-2.527 -1.723,-3.352 -1.969,-1.42 -7.771,-5.538 -8.719,-6.144 -0.652,-0.427 -1.363,-0.597 -2.158,-0.587 l -10.007,-0.01 c -0.853,0 -1.543,-0.691 -1.543,-1.543 l 0,-0.312 c 0,-0.861 0.7,-1.562 1.562,-1.562 l 9.07,0 c 0.86,0 1.562,-0.7 1.562,-1.562 l 0,-1.809 c 0,-0.861 -0.701,-1.562 -1.562,-1.562 l -30.113,0 c -0.862,0 -1.562,0.7 -1.562,1.562 l 0,1.809 c 0,0.861 0.7,1.562 1.562,1.562 l 9.816,0 c 0.862,0 1.563,0.701 1.563,1.562 l 0,0.36 c 0,0.852 -0.691,1.552 -1.555,1.542 l -9.911,-0.037 c -1.895,-0.057 -3.446,0.587 -4.886,1.628 -2.102,1.524 -4.165,3.096 -6.229,4.668 -0.521,0.397 -1.174,0.615 -1.827,0.605 -1.987,-0.02 -3.976,-0.02 -5.964,0 -2.471,0.019 -4.07,1.609 -4.09,4.09 l 0.028,6.901 c 0,0.586 -0.474,1.069 -1.07,1.069 l -0.927,0 c -1.127,0 -2.036,0.909 -2.036,2.036 l 0,10.935 c 0,1.126 0.909,2.034 2.036,2.034 l 0.899,0 c 0.587,0 1.069,0.475 1.069,1.07 0,1.57 -0.01,4.496 0,6.189 0,1.573 -0.028,4.526 2.85,4.526 l 40.37,0 c 0.426,0.002 0.871,-0.083 1.259,-0.244 z" /><path
       style="fill-opacity:1"
       inkscape:connector-curvature="0"
       id="path9659"
       d="M 1.477,36.157 C 0.664,36.157 0,36.819 0,37.634 l 0,28.164 c 0,0.813 0.663,1.478 1.477,1.478 l 4.015,0 c 0.814,0 1.477,-0.663 1.477,-1.478 l 0,-28.156 c 0,-0.813 -0.662,-1.477 -1.477,-1.477 l -4.015,0 0,-0.008 z" /><path
       style="fill-opacity:1"
       inkscape:connector-curvature="0"
       id="path9661"
       d="m 88.461,37.406 -1.969,0 c -0.814,0 -1.479,0.663 -1.479,1.477 l 0,25.655 c 0,0.814 0.662,1.479 1.479,1.479 l 1.969,0 c 0.813,0 1.477,-0.664 1.477,-1.479 l 0,-25.656 c 0,-0.813 -0.663,-1.476 -1.477,-1.476 z" /></g><g
     id="g3"
     transform="matrix(-0.36659514,0,0,0.36936815,37.835049,3.7223582)"
     style="opacity:1;fill-opacity:1;fill:#ff0000"><path
       d="m 57.617,71.781 c 3.294,-1.278 6.568,-2.595 9.855,-3.872 0.293,-0.113 0.634,-0.152 0.947,-0.16 2.432,-0.01 4.864,-0.01 7.288,-0.01 2.519,0 4.138,-1.62 4.138,-4.166 l 0,-8.331 c 0,-0.597 0.481,-1.069 1.069,-1.069 l 1.05,-0.027 c 0.834,0 0.883,-0.323 0.909,-0.9 l 0.021,-4.837 c 0,-0.481 -0.389,-0.871 -0.872,-0.871 l -1.126,0 c -0.598,0 -1.079,-0.483 -1.079,-1.08 l 0.036,-10.101 c 0.029,-1.496 -0.576,-2.527 -1.723,-3.352 -1.969,-1.42 -7.771,-5.538 -8.719,-6.144 -0.652,-0.427 -1.363,-0.597 -2.158,-0.587 l -10.007,-0.01 c -0.853,0 -1.543,-0.691 -1.543,-1.543 l 0,-0.312 c 0,-0.861 0.7,-1.562 1.562,-1.562 l 9.07,0 c 0.86,0 1.562,-0.7 1.562,-1.562 l 0,-1.809 c 0,-0.861 -0.701,-1.562 -1.562,-1.562 l -30.113,0 c -0.862,0 -1.562,0.7 -1.562,1.562 l 0,1.809 c 0,0.861 0.7,1.562 1.562,1.562 l 9.816,0 c 0.862,0 1.563,0.701 1.563,1.562 l 0,0.36 c 0,0.852 -0.691,1.552 -1.555,1.542 l -9.911,-0.037 c -1.895,-0.057 -3.446,0.587 -4.886,1.628 -2.102,1.524 -4.165,3.096 -6.229,4.668 -0.521,0.397 -1.174,0.615 -1.827,0.605 -1.987,-0.02 -3.976,-0.02 -5.964,0 -2.471,0.019 -4.07,1.609 -4.09,4.09 l 0.028,6.901 c 0,0.586 -0.474,1.069 -1.07,1.069 l -0.927,0 c -1.127,0 -2.036,0.909 -2.036,2.036 l 0,10.935 c 0,1.126 0.909,2.034 2.036,2.034 l 0.899,0 c 0.587,0 1.069,0.475 1.069,1.07 0,1.57 -0.01,4.496 0,6.189 0,1.573 -0.028,4.526 2.85,4.526 l 40.37,0 c 0.426,0.002 0.871,-0.083 1.259,-0.244 z"
       id="path11"
       inkscape:connector-curvature="0"
       style="fill-opacity:1;fill:#ff0000" /><path
       d="M 1.477,36.157 C 0.664,36.157 0,36.819 0,37.634 l 0,28.164 c 0,0.813 0.663,1.478 1.477,1.478 l 4.015,0 c 0.814,0 1.477,-0.663 1.477,-1.478 l 0,-28.156 c 0,-0.813 -0.662,-1.477 -1.477,-1.477 l -4.015,0 0,-0.008 z"
       id="path9"
       inkscape:connector-curvature="0"
       style="fill-opacity:1;fill:#ff0000" /><path
       d="m 88.461,37.406 -1.969,0 c -0.814,0 -1.479,0.663 -1.479,1.477 l 0,25.655 c 0,0.814 0.662,1.479 1.479,1.479 l 1.969,0 c 0.813,0 1.477,-0.664 1.477,-1.479 l 0,-25.656 c 0,-0.813 -0.663,-1.476 -1.477,-1.476 z"
       id="path7"
       inkscape:connector-curvature="0"
       style="fill-opacity:1;fill:#ff0000" /></g><text
     xml:space="preserve"
     style="font-style:normal;font-variant:normal;font-weight:bold;font-stretch:normal;font-size:6.63474989px;line-height:100%;font-family:sans-serif;-inkscape-font-specification:'sans-serif, Bold';text-align:center;letter-spacing:0px;word-spacing:0px;writing-mode:lr-tb;text-anchor:middle;fill:#000000;fill-opacity:1;stroke:none;stroke-width:1px;stroke-linecap:butt;stroke-linejoin:miter;stroke-opacity:1"
     x="23.807417"
     y="21.633511"
     id="text7649"
     sodipodi:linespacing="100%"
     transform="scale(0.87713858,1.1400707)"><tspan
       sodipodi:role="line"
       id="tspan7651"
       x="23.807417"
       y="21.633511">STOP</tspan></text>
</svg>