<?xml version="1.0" encoding="UTF-8" standalone="no"?>
<svg
   xmlns:dc="http://purl.org/dc/elements/1.1/"
   xmlns:cc="http://creativecommons.org/ns#"
   xmlns:rdf="http://www.w3.org/1999/02/22-rdf-syntax-ns#"
   xmlns:svg="http://www.w3.org/2000/svg"
   xmlns="http://www.w3.org/2000/svg"
   id="svg2494"
   version="1.1"
   viewBox="0 0 11.764264 6.4015489"
   height="6.4015489mm"
   width="11.764264mm">
  <defs
     id="defs2488" />
  <metadata
     id="metadata2491">
    <rdf:RDF>
      <cc:Work
         rdf:about="">
        <dc:format>image/svg+xml</dc:format>
        <dc:type
           rdf:resource="http://purl.org/dc/dcmitype/StillImage" />
        <dc:title></dc:title>
      </cc:Work>
    </rdf:RDF>
  </metadata>
  <g
     transform="translate(0.498924,-276.22121)"
     id="layer1">
    <rect
       y="166.27573"
       x="59.84866"
       height="1.400939"
       width="1.255059"
       id="rect1976"
       style="fill:none;fill-opacity:1;stroke:#000000;stroke-width:0.065;stroke-miterlimit:4;stroke-dasharray:none;stroke-opacity:1" />
    <g
       id="g3123"
       transform="translate(-73.832606,178.89626)">
      <line
         id="line1087-0"
         y2="103.28707"
         x2="78.714111"
         y1="97.36618"
         x1="79.969147"
         class="fil0 str0"
         style="clip-rule:evenodd;fill:none;fill-rule:evenodd;stroke:#000000;stroke-width:0.39768413;image-rendering:optimizeQuality;shape-rendering:geometricPrecision;text-rendering:geometricPrecision" />
      <path
         style="clip-rule:evenodd;fill:#000000;fill-rule:evenodd;stroke-width:0.00026458;image-rendering:optimizeQuality;shape-rendering:geometricPrecision;text-rendering:geometricPrecision"
         class="fil0"
         d="m 73.704363,101.22105 v -2.923116 h 3.180291 v -0.456936 h 0.70829 v 0.456936 h 0.556154 v 2.923116 h -4.445 z m 4.260585,-3.294062 v -0.456936 h -1.448064 v 0.456671 h -3.183202 v 3.664747 h 5.186362 v -3.664747 h -0.555096 z"
         id="path1399-8-8" />
      <rect
         style="fill:none;fill-opacity:1;stroke:#000000;stroke-width:0.08669493;stroke-miterlimit:4;stroke-dasharray:none;stroke-opacity:1"
         id="rect1429-5-8"
         width="3.9881456"
         height="1.4084587"
         x="73.932793"
         y="101.81605" />
      <g
         aria-label="1 2 3"
         transform="matrix(0.28259888,0,0,0.25350224,-9.8503366,26.453258)"
         style="font-style:normal;font-weight:normal;font-size:5.33333349px;line-height:1.25;font-family:sans-serif;letter-spacing:0px;word-spacing:0px;fill:#000000;fill-opacity:1;stroke:none"
         id="flowRoot1461-0-8">
        <path
           d="m 297.35091,301.56315 h 0.85938 v -2.96614 l -0.9349,0.1875 v -0.47917 l 0.92969,-0.1875 h 0.52604 v 3.44531 h 0.85937 v 0.44271 h -2.23958 z"
           id="path2271" />
        <path
           d="m 302.80664,301.56315 h 1.83594 v 0.44271 h -2.46875 v -0.44271 q 0.29948,-0.30989 0.8151,-0.83073 0.51823,-0.52344 0.65104,-0.67448 0.25261,-0.28385 0.35157,-0.47916 0.10156,-0.19792 0.10156,-0.38802 0,-0.3099 -0.21875,-0.50521 -0.21615,-0.19532 -0.56511,-0.19532 -0.24739,0 -0.52343,0.0859 -0.27344,0.0859 -0.58594,0.26042 v -0.53125 q 0.31771,-0.12761 0.59375,-0.19271 0.27604,-0.0651 0.50521,-0.0651 0.60416,0 0.96354,0.30208 0.35937,0.30208 0.35937,0.80729 0,0.23958 -0.0911,0.45573 -0.0885,0.21354 -0.32552,0.50521 -0.0651,0.0755 -0.41406,0.4375 -0.34896,0.35937 -0.98438,1.00781 z"
           id="path2273" />
        <path
           d="m 309.04102,299.90951 q 0.3776,0.0807 0.58854,0.33593 0.21354,0.25521 0.21354,0.63021 0,0.57552 -0.39583,0.89063 -0.39584,0.3151 -1.125,0.3151 -0.2448,0 -0.50521,-0.0495 -0.25782,-0.0469 -0.53386,-0.14323 v -0.50781 q 0.21875,0.1276 0.47917,0.19271 0.26042,0.0651 0.54427,0.0651 0.49479,0 0.7526,-0.19531 0.26042,-0.19531 0.26042,-0.56771 0,-0.34375 -0.24219,-0.53646 -0.23958,-0.19531 -0.66927,-0.19531 h -0.45312 v -0.43229 h 0.47396 q 0.38802,0 0.59375,-0.15365 0.20573,-0.15625 0.20573,-0.44791 0,-0.29948 -0.21355,-0.45834 -0.21093,-0.16146 -0.60677,-0.16146 -0.21614,0 -0.46354,0.0469 -0.24739,0.0469 -0.54427,0.14583 v -0.46875 q 0.29948,-0.0833 0.5599,-0.125 0.26302,-0.0417 0.49479,-0.0417 0.59896,0 0.94791,0.27343 0.34896,0.27084 0.34896,0.73438 0,0.32292 -0.18489,0.54687 -0.1849,0.22136 -0.52604,0.3073 z"
           id="path2275" />
      </g>
      <path
         style="fill:none;stroke:#000000;stroke-width:0.0563517;stroke-linecap:butt;stroke-linejoin:miter;stroke-miterlimit:4;stroke-dasharray:none;stroke-opacity:1"
         d="m 75.187852,101.82324 c 0,1.39374 0,1.39374 0,1.39374 z"
         id="path1469-6-4" />
      <path
         style="fill:none;stroke:#000000;stroke-width:0.0563517;stroke-linecap:butt;stroke-linejoin:miter;stroke-miterlimit:4;stroke-dasharray:none;stroke-opacity:1"
         d="m 76.615601,101.82887 c 0,1.39374 0,1.39374 0,1.39374 z"
         id="path1469-3-3-9" />
      <g
         style="clip-rule:evenodd;fill-rule:evenodd;image-rendering:optimizeQuality;shape-rendering:geometricPrecision;text-rendering:geometricPrecision"
         id="g1853"
         transform="matrix(7.6482027e-5,0,0,7.5305899e-5,78.036284,98.39612)">
        <g
           id="Слой_x0020_1">
          <metadata
             id="CorelCorpID_0Corel-Layer" />
          <g
             id="_298376456">
            <path
               id="path1828"
               d="m 66376,62772 h 6983 v 2736 h -6983 z m 18972,0 h 6983 v 2736 h -6983 z m -9339,0 h 6983 v 2736 h -6983 z"
               class="fil0"
               style="fill:none" />
            <path
               id="path1830"
               d="m 30882,41741 10540,10543 v 2734 l -10540,10536 697,705 4530,4524 10538,-10539 h 2735 l 10538,10539 703,-697 4524,-4532 -10540,-10536 v -2734 l 187,-194 10353,-10349 -698,-699 -4529,-4526 -10538,10542 H 46647 L 36109,36516 Z m 25528,6359 6416,-6413 -1606,-1607 -4824,4817 z m -13945,-2848 -6410,-6413 -1610,1609 4819,4815 z m -2850,13943 -6413,6412 1611,1612 4818,-4818 z m 13944,2851 6412,6416 1612,-1611 -4819,-4818 z M 49892,51771 c 1033,1036 1033,2724 0,3753 -1033,1038 -2715,1038 -3755,0 -1034,-1029 -1034,-2717 0,-3753 1040,-1030 2722,-1030 3755,0 z"
               class="fil0"
               style="fill:none" />
            <path
               id="path1832"
               d="M 84092,65519 H 72344 L 84092,53793 Z m -24463,0 H 46915 L 84092,28412 v 12690 z m -25429,0 H 27642 V 59374 L 77936,9175 h 6156 v 6546 z M 27642,46684 V 33994 L 52507,9175 h 12714 z m 0,-25381 V 9175 h 12150 z"
               class="fil1"
               style="fill:#000000" />
          </g>
        </g>
        <g
           id="Направляющие">
          <metadata
             id="CorelCorpID_1Corel-Layer" />
        </g>
      </g>
    </g>
  </g>
</svg>
