<?xml version="1.0" encoding="UTF-8"?>
<!DOCTYPE svg PUBLIC "-//W3C//DTD SVG 1.1//EN" "http://www.w3.org/Graphics/SVG/1.1/DTD/svg11.dtd">
<!-- Creator: CorelDRAW X5 -->
<svg xmlns="http://www.w3.org/2000/svg" xml:space="preserve" width="8.4216mm" height="5.6952mm" style="shape-rendering:geometricPrecision; text-rendering:geometricPrecision; image-rendering:optimizeQuality; fill-rule:evenodd; clip-rule:evenodd"
viewBox="0 0 459 311"
 xmlns:xlink="http://www.w3.org/1999/xlink">
 <defs>
  <style type="text/css">
   <![CDATA[
    .fil0 {fill:black}
    .fil1 {fill:black;fill-rule:nonzero}
   ]]>
  </style>
 </defs>
 <g id="Слой_x0020_1">
  <metadata id="CorelCorpID_0Corel-Layer"/>
  <g id="_375863128">
   <polygon class="fil0" points="104,205 104,45 277,45 277,20 316,20 316,45 346,45 346,110 367,110 367,25 336,25 336,25 336,0 257,0 257,25 84,25 84,225 258,225 258,205 104,205 "/>
   <path class="fil1" d="M10 91l74 42 -40 23c-15,8 -29,17 -43,25l-1 0 0 -115 10 0 0 25 0 0zm0 76l59 -34 -59 -34 0 67z"/>
   <path class="fil0" d="M257 243l0 -45 89 -89 45 0 -134 134zm23 67l-23 0 0 -22 180 -180 22 0 0 23 -178 178zm91 0l-45 0 133 -133 0 45 -88 87z"/>
  </g>
 </g>
</svg>
