<?xml version="1.0" encoding="UTF-8" standalone="no"?>
<svg
   xmlns:dc="http://purl.org/dc/elements/1.1/"
   xmlns:cc="http://creativecommons.org/ns#"
   xmlns:rdf="http://www.w3.org/1999/02/22-rdf-syntax-ns#"
   xmlns:svg="http://www.w3.org/2000/svg"
   xmlns="http://www.w3.org/2000/svg"
   id="svg2494"
   version="1.1"
   viewBox="0 0 5.1863618 5.7977977"
   height="5.7977977mm"
   width="5.1863618mm">
  <defs
     id="defs2488" />
  <metadata
     id="metadata2491">
    <rdf:RDF>
      <cc:Work
         rdf:about="">
        <dc:format>image/svg+xml</dc:format>
        <dc:type
           rdf:resource="http://purl.org/dc/dcmitype/StillImage" />
        <dc:title></dc:title>
      </cc:Work>
    </rdf:RDF>
  </metadata>
  <g
     transform="translate(-7.139706,-257.24843)"
     id="layer1">
    <rect
       y="166.27573"
       x="59.84866"
       height="1.400939"
       width="1.255059"
       id="rect1976"
       style="fill:none;fill-opacity:1;stroke:#000000;stroke-width:0.065;stroke-miterlimit:4;stroke-dasharray:none;stroke-opacity:1" />
    <g
       id="g3059"
       transform="translate(-67.00776,176.66364)">
      <path
         style="clip-rule:evenodd;fill:#000000;fill-rule:evenodd;stroke-width:0.00026458;image-rendering:optimizeQuality;shape-rendering:geometricPrecision;text-rendering:geometricPrecision"
         class="fil0"
         d="m 74.518147,84.335785 v -2.923116 h 3.180291 v -0.456936 h 0.70829 v 0.456936 h 0.556154 v 2.923116 h -4.445 z m 4.260585,-3.294062 v -0.456936 h -1.448064 v 0.456671 h -3.183202 v 3.664744 h 5.186362 v -3.664744 h -0.555096 z"
         id="path1399" />
      <rect
         style="fill:none;fill-opacity:1;stroke:#000000;stroke-width:0.08669493;stroke-miterlimit:4;stroke-dasharray:none;stroke-opacity:1"
         id="rect1429"
         width="3.9881456"
         height="1.4084587"
         x="74.746574"
         y="84.930779" />
      <g
         aria-label="1 2 3"
         transform="matrix(0.28259888,0,0,0.25350224,-9.0365527,9.5679933)"
         style="font-style:normal;font-weight:normal;font-size:5.33333349px;line-height:1.25;font-family:sans-serif;letter-spacing:0px;word-spacing:0px;fill:#000000;fill-opacity:1;stroke:none"
         id="flowRoot1461">
        <path
           d="m 297.35091,301.56315 h 0.85938 v -2.96614 l -0.9349,0.1875 v -0.47917 l 0.92969,-0.1875 h 0.52604 v 3.44531 h 0.85937 v 0.44271 h -2.23958 z"
           id="path2299" />
        <path
           d="m 302.80664,301.56315 h 1.83594 v 0.44271 h -2.46875 v -0.44271 q 0.29948,-0.30989 0.8151,-0.83073 0.51823,-0.52344 0.65104,-0.67448 0.25261,-0.28385 0.35157,-0.47916 0.10156,-0.19792 0.10156,-0.38802 0,-0.3099 -0.21875,-0.50521 -0.21615,-0.19532 -0.56511,-0.19532 -0.24739,0 -0.52343,0.0859 -0.27344,0.0859 -0.58594,0.26042 v -0.53125 q 0.31771,-0.12761 0.59375,-0.19271 0.27604,-0.0651 0.50521,-0.0651 0.60416,0 0.96354,0.30208 0.35937,0.30208 0.35937,0.80729 0,0.23958 -0.0911,0.45573 -0.0885,0.21354 -0.32552,0.50521 -0.0651,0.0755 -0.41406,0.4375 -0.34896,0.35937 -0.98438,1.00781 z"
           id="path2301" />
        <path
           d="m 309.04102,299.90951 q 0.3776,0.0807 0.58854,0.33593 0.21354,0.25521 0.21354,0.63021 0,0.57552 -0.39583,0.89063 -0.39584,0.3151 -1.125,0.3151 -0.2448,0 -0.50521,-0.0495 -0.25782,-0.0469 -0.53386,-0.14323 v -0.50781 q 0.21875,0.1276 0.47917,0.19271 0.26042,0.0651 0.54427,0.0651 0.49479,0 0.7526,-0.19531 0.26042,-0.19531 0.26042,-0.56771 0,-0.34375 -0.24219,-0.53646 -0.23958,-0.19531 -0.66927,-0.19531 h -0.45312 v -0.43229 h 0.47396 q 0.38802,0 0.59375,-0.15365 0.20573,-0.15625 0.20573,-0.44791 0,-0.29948 -0.21355,-0.45834 -0.21093,-0.16146 -0.60677,-0.16146 -0.21614,0 -0.46354,0.0469 -0.24739,0.0469 -0.54427,0.14583 v -0.46875 q 0.29948,-0.0833 0.5599,-0.125 0.26302,-0.0417 0.49479,-0.0417 0.59896,0 0.94791,0.27343 0.34896,0.27084 0.34896,0.73438 0,0.32292 -0.18489,0.54687 -0.1849,0.22136 -0.52604,0.3073 z"
           id="path2303" />
      </g>
      <path
         style="fill:none;stroke:#000000;stroke-width:0.0563517;stroke-linecap:butt;stroke-linejoin:miter;stroke-miterlimit:4;stroke-dasharray:none;stroke-opacity:1"
         d="m 76.001635,84.937979 c 0,1.393738 0,1.393738 0,1.393738 z"
         id="path1469" />
      <path
         style="fill:none;stroke:#000000;stroke-width:0.0563517;stroke-linecap:butt;stroke-linejoin:miter;stroke-miterlimit:4;stroke-dasharray:none;stroke-opacity:1"
         d="m 77.429385,84.943609 c 0,1.393738 0,1.393738 0,1.393738 z"
         id="path1469-3" />
    </g>
  </g>
</svg>
