<?xml version="1.0" encoding="UTF-8"?>
<!DOCTYPE svg PUBLIC "-//W3C//DTD SVG 1.1//EN" "http://www.w3.org/Graphics/SVG/1.1/DTD/svg11.dtd">
<!-- Creator: CorelDRAW X5 -->
<svg xmlns="http://www.w3.org/2000/svg" xml:space="preserve" width="12mm" height="8mm" style="shape-rendering:geometricPrecision; text-rendering:geometricPrecision; image-rendering:optimizeQuality; fill-rule:evenodd; clip-rule:evenodd"
viewBox="0 0 120000 80000"
 xmlns:xlink="http://www.w3.org/1999/xlink">
 <defs>
  <style type="text/css">
   <![CDATA[
    .fil0 {fill:black}
   ]]>
  </style>
 </defs>
 <g id="Слой_x0020_1">
  <metadata id="CorelCorpID_0Corel-Layer"/>
  <g id="_298373024">
   <path class="fil0" d="M59947 39997l-17505 11494c3871,5897 10451,9448 17505,9448 11566,0 20942,-9376 20942,-20942 0,-9457 -6338,-17741 -15466,-20213l-5476 20213z"/>
   <rect class="fil0" x="58351" y="13621" width="3191" height="3191" rx="540" ry="540"/>
   <path class="fil0" d="M59947 9175c17023,0 30822,13799 30822,30822 0,17023 -13799,30822 -30822,30822 -17023,0 -30822,-13799 -30822,-30822 0,-17023 13799,-30822 30822,-30822zm0 3393c15149,0 27429,12280 27429,27429 0,15149 -12280,27429 -27429,27429 -15149,0 -27429,-12280 -27429,-27429 0,-15149 12280,-27429 27429,-27429z"/>
   <rect class="fil0" x="83132" y="38401" width="3191" height="3191" rx="540" ry="540"/>
   <rect class="fil0" x="33571" y="38401" width="3191" height="3191" rx="540" ry="540"/>
   <rect class="fil0" x="58351" y="63182" width="3191" height="3191" rx="540" ry="540"/>
  </g>
 </g>
 <g id="Направляющие">
  <metadata id="CorelCorpID_1Corel-Layer"/>
 </g>
</svg>
