<?xml version="1.0" encoding="UTF-8"?>
<!DOCTYPE svg PUBLIC "-//W3C//DTD SVG 1.1//EN" "http://www.w3.org/Graphics/SVG/1.1/DTD/svg11.dtd">
<!-- Creator: CorelDRAW X5 -->
<svg xmlns="http://www.w3.org/2000/svg" xml:space="preserve" width="12mm" height="8mm" style="shape-rendering:geometricPrecision; text-rendering:geometricPrecision; image-rendering:optimizeQuality; fill-rule:evenodd; clip-rule:evenodd"
viewBox="0 0 120000 80000"
 xmlns:xlink="http://www.w3.org/1999/xlink">
 <defs>
  <style type="text/css">
   <![CDATA[
    .fil0 {fill:black}
    .fil1 {fill:black;fill-rule:nonzero}
   ]]>
  </style>
 </defs>
 <g id="Слой_x0020_1">
  <metadata id="CorelCorpID_0Corel-Layer"/>
  <g id="_297675016">
   <g>
    <path class="fil0" d="M58865 13617l2110 0c296,0 539,242 539,540l0 2109c0,297 -243,540 -539,540l-2110 0c-296,0 -539,-243 -539,-540l0 -2109c0,-298 243,-540 539,-540z"/>
    <path class="fil0" d="M59920 9175c17007,0 30795,13788 30795,30795 0,4257 -865,8311 -2426,11999l-3727 0c1769,-3624 2763,-7695 2763,-11999 0,-15136 -12269,-27405 -27405,-27405 -15136,0 -27405,12269 -27405,27405 0,15136 12269,27405 27405,27405 590,0 1175,-21 1756,-57l0 3396c-582,33 -1166,51 -1756,51 -17007,0 -30795,-13788 -30795,-30795 0,-17007 13788,-30795 30795,-30795z"/>
    <path class="fil0" d="M83624 38376l2109 0c298,0 540,243 540,539l0 2110c0,296 -242,539 -540,539l-2109 0c-297,0 -540,-243 -540,-539l0 -2110c0,-296 243,-539 540,-539z"/>
    <path class="fil0" d="M34107 38376l2109 0c297,0 540,243 540,539l0 2110c0,296 -243,539 -540,539l-2109 0c-298,0 -540,-243 -540,-539l0 -2110c0,-296 242,-539 540,-539z"/>
    <path class="fil0" d="M58865 63134l2110 0c296,0 539,243 539,540l0 2109c0,298 -243,540 -539,540l-2110 0c-296,0 -539,-242 -539,-540l0 -2109c0,-297 243,-540 539,-540z"/>
    <path class="fil0" d="M59920 38863c-612,0 -1107,495 -1107,1107 0,612 495,1107 1107,1107 612,0 1107,-495 1107,-1107 0,-612 -495,-1107 -1107,-1107z"/>
    <path class="fil0" d="M59920 39970l-17254 11329c3816,5813 10301,9313 17254,9313 11400,0 20642,-9242 20642,-20642 0,-9321 -6247,-17486 -15244,-19923l-5398 19923z"/>
   </g>
   <path class="fil1" d="M88572 67697l0 1840 -10306 0c-15,-461 58,-904 221,-1329 262,-704 683,-1394 1260,-2076 581,-679 1416,-1467 2505,-2360 1695,-1390 2842,-2490 3437,-3303 596,-810 893,-1579 893,-2302 0,-758 -272,-1397 -813,-1920 -544,-519 -1252,-781 -2123,-781 -922,0 -1659,276 -2211,832 -556,552 -835,1318 -842,2294l-1968 -200c134,-1470 643,-2588 1521,-3358 879,-769 2062,-1154 3543,-1154 1496,0 2679,418 3550,1245 875,832 1311,1859 1311,3086 0,624 -127,1238 -385,1840 -254,603 -679,1238 -1270,1903 -592,668 -1576,1582 -2952,2744 -1147,966 -1884,1619 -2211,1964 -326,341 -595,686 -809,1035l7649 0z"/>
  </g>
 </g>
 <g id="Направляющие">
  <metadata id="CorelCorpID_1Corel-Layer"/>
 </g>
</svg>
