<?xml version="1.0" encoding="UTF-8"?>
<!DOCTYPE svg PUBLIC "-//W3C//DTD SVG 1.1//EN" "http://www.w3.org/Graphics/SVG/1.1/DTD/svg11.dtd">
<!-- Creator: CorelDRAW X5 -->
<svg xmlns="http://www.w3.org/2000/svg" xml:space="preserve" width="12mm" height="8mm" style="shape-rendering:geometricPrecision; text-rendering:geometricPrecision; image-rendering:optimizeQuality; fill-rule:evenodd; clip-rule:evenodd"
viewBox="0 0 120000 80000"
 xmlns:xlink="http://www.w3.org/1999/xlink">
 <defs>
  <style type="text/css">
   <![CDATA[
    .fil1 {fill:#2B2A29}
    .fil0 {fill:black}
    .fil2 {fill:#2B2A29;fill-rule:nonzero}
   ]]>
  </style>
 </defs>
 <g id="Слой_x0020_1">
  <metadata id="CorelCorpID_0Corel-Layer"/>
  <g id="_297676552">
   <g>
    <path class="fil0" d="M58865 13617l2110 0c296,0 539,242 539,540l0 2109c0,297 -243,540 -539,540l-2110 0c-296,0 -539,-243 -539,-540l0 -2109c0,-298 243,-540 539,-540z"/>
    <path class="fil0" d="M59920 9175c17007,0 30795,13788 30795,30795 0,4257 -865,8311 -2426,11999l-3727 0c1769,-3624 2763,-7695 2763,-11999 0,-15136 -12269,-27405 -27405,-27405 -15136,0 -27405,12269 -27405,27405 0,15136 12269,27405 27405,27405 618,0 1231,-23 1838,-62l0 3395c-608,37 -1220,57 -1838,57 -17007,0 -30795,-13788 -30795,-30795 0,-17007 13788,-30795 30795,-30795z"/>
    <path class="fil0" d="M83624 38376l2109 0c298,0 540,243 540,539l0 2110c0,296 -242,539 -540,539l-2109 0c-297,0 -540,-243 -540,-539l0 -2110c0,-296 243,-539 540,-539z"/>
    <path class="fil0" d="M34107 38376l2109 0c297,0 540,243 540,539l0 2110c0,296 -243,539 -540,539l-2109 0c-298,0 -540,-243 -540,-539l0 -2110c0,-296 242,-539 540,-539z"/>
    <path class="fil0" d="M58865 63134l2110 0c296,0 539,243 539,540l0 2109c0,298 -243,540 -539,540l-2110 0c-296,0 -539,-242 -539,-540l0 -2109c0,-297 243,-540 539,-540z"/>
    <path class="fil1" d="M59920 38863c-612,0 -1107,495 -1107,1107 0,612 495,1107 1107,1107 612,0 1107,-495 1107,-1107 0,-612 -495,-1107 -1107,-1107z"/>
    <polygon class="fil1" points="52627,16387 54444,15900 60828,39727 59012,40213 "/>
    <polygon class="fil1" points="75788,44746 75146,46512 59599,40853 60241,39087 "/>
   </g>
   <path class="fil2" d="M80555 69120l-10848 0 0 -392 5562 -6669 -5562 -6977 0 -385 10521 0 327 3597 -436 0c-105,-980 -377,-1677 -813,-2098 -436,-417 -1064,-624 -1888,-624l-4955 0 4541 5710 -5115 6157 5634 0c944,0 1652,-178 2124,-530 472,-356 864,-1024 1176,-2000l393 83 -661 4128z"/>
  </g>
 </g>
 <g id="Направляющие">
  <metadata id="CorelCorpID_1Corel-Layer"/>
 </g>
</svg>
