<?xml version="1.0" encoding="UTF-8"?>
<!DOCTYPE svg PUBLIC "-//W3C//DTD SVG 1.1//EN" "http://www.w3.org/Graphics/SVG/1.1/DTD/svg11.dtd">
<!-- Creator: CorelDRAW X5 -->
<svg xmlns="http://www.w3.org/2000/svg" xml:space="preserve" width="12mm" height="8mm" style="shape-rendering:geometricPrecision; text-rendering:geometricPrecision; image-rendering:optimizeQuality; fill-rule:evenodd; clip-rule:evenodd"
viewBox="0 0 120000 80000"
 xmlns:xlink="http://www.w3.org/1999/xlink">
 <defs>
  <style type="text/css">
   <![CDATA[
    .fil0 {fill:black}
    .fil1 {fill:black;fill-rule:nonzero}
   ]]>
  </style>
 </defs>
 <g id="Слой_x0020_1">
  <metadata id="CorelCorpID_0Corel-Layer"/>
  <g id="_297675016">
   <g>
    <path class="fil0" d="M58865 13617l2110 0c296,0 539,242 539,540l0 2109c0,297 -243,540 -539,540l-2110 0c-296,0 -539,-243 -539,-540l0 -2109c0,-298 243,-540 539,-540z"/>
    <path class="fil0" d="M59920 9175c17007,0 30795,13788 30795,30795 0,4257 -865,8311 -2426,11999l-3727 0c1769,-3624 2763,-7695 2763,-11999 0,-15136 -12269,-27405 -27405,-27405 -15136,0 -27405,12269 -27405,27405 0,15136 12269,27405 27405,27405 590,0 1175,-21 1756,-57l0 3396c-582,33 -1166,51 -1756,51 -17007,0 -30795,-13788 -30795,-30795 0,-17007 13788,-30795 30795,-30795z"/>
    <path class="fil0" d="M83624 38376l2109 0c298,0 540,243 540,539l0 2110c0,296 -242,539 -540,539l-2109 0c-297,0 -540,-243 -540,-539l0 -2110c0,-296 243,-539 540,-539z"/>
    <path class="fil0" d="M34107 38376l2109 0c297,0 540,243 540,539l0 2110c0,296 -243,539 -540,539l-2109 0c-298,0 -540,-243 -540,-539l0 -2110c0,-296 242,-539 540,-539z"/>
    <path class="fil0" d="M58865 63134l2110 0c296,0 539,243 539,540l0 2109c0,298 -243,540 -539,540l-2110 0c-296,0 -539,-242 -539,-540l0 -2109c0,-297 243,-540 539,-540z"/>
    <path class="fil0" d="M59920 38863c-612,0 -1107,495 -1107,1107 0,612 495,1107 1107,1107 612,0 1107,-495 1107,-1107 0,-612 -495,-1107 -1107,-1107z"/>
    <path class="fil0" d="M59920 39970l-17254 11329c3816,5813 10301,9313 17254,9313 11400,0 20642,-9242 20642,-20642 0,-9321 -6247,-17486 -15244,-19923l-5398 19923z"/>
   </g>
   <path class="fil1" d="M85718 69537l-1913 0 0 -12197c-461,439 -1063,878 -1811,1317 -752,440 -1423,770 -2019,988l0 -1848c1071,-505 2008,-1114 2810,-1830 799,-718 1369,-1412 1703,-2087l1230 0 0 15657z"/>
  </g>
 </g>
 <g id="Направляющие">
  <metadata id="CorelCorpID_1Corel-Layer"/>
 </g>
</svg>
