<?xml version="1.0" encoding="UTF-8"?>
<!DOCTYPE svg PUBLIC "-//W3C//DTD SVG 1.1//EN" "http://www.w3.org/Graphics/SVG/1.1/DTD/svg11.dtd">
<!-- Creator: CorelDRAW X5 -->
<svg xmlns="http://www.w3.org/2000/svg" xml:space="preserve" width="12mm" height="8mm" style="shape-rendering:geometricPrecision; text-rendering:geometricPrecision; image-rendering:optimizeQuality; fill-rule:evenodd; clip-rule:evenodd"
viewBox="0 0 120000 80000"
 xmlns:xlink="http://www.w3.org/1999/xlink">
 <defs>
  <style type="text/css">
   <![CDATA[
    .str0 {stroke:black;stroke-width:762}
    .fil0 {fill:black}
   ]]>
  </style>
 </defs>
 <g id="Слой_x0020_1">
  <metadata id="CorelCorpID_0Corel-Layer"/>
  <g id="_355946360">
   <path class="fil0" d="M89380 62063l0 -57178c0,-1474 1211,-2679 2693,-2679l2307 0c1481,0 2692,1206 2692,2679l0 57178c2808,1405 4738,4296 4738,7637 0,4717 -3844,8543 -8584,8543 -4739,0 -8582,-3826 -8582,-8543 0,-3341 1928,-6232 4736,-7637zm1444 -21838l0 -34371c0,-1326 401,-2091 1539,-2091l1773 0c1136,0 1384,765 1384,2086l0 34373 -4696 3z"/>
   <path class="fil0" d="M52691 52718l-1 0c-2796,-8 -5399,-764 -7334,-2452 -661,-577 -1240,-1259 -1717,-2049 -468,-777 -838,-1659 -1091,-2649 -244,-955 -378,-2030 -386,-3231 -32,-5215 2390,-9032 4761,-12767 510,-804 1018,-1604 1495,-2412l3 1 148 -255c1498,-2575 2899,-5754 4121,-8476l25 0 25 0c1222,2722 2623,5901 4120,8476l149 255 2 -1c478,808 986,1608 1496,2412 2371,3735 4794,7552 4761,12767 -8,1201 -142,2276 -386,3231 -253,990 -623,1872 -1091,2649 -477,790 -1056,1472 -1718,2049 -1934,1688 -4537,2444 -7333,2452l-1 0 -48 0zm0 -3146l1 0 46 0 1 0c2056,-6 3941,-538 5296,-1719 443,-387 834,-849 1161,-1391 333,-553 601,-1193 787,-1924 195,-766 303,-1615 309,-2549 27,-4314 -2102,-7670 -4186,-10953 -498,-784 -994,-1564 -1460,-2354l0 -4 -143 -246c-727,-1249 -1272,-2556 -1788,-3872 -517,1316 -1061,2623 -1788,3872l-143 246 0 4c-466,790 -962,1570 -1460,2354 -2084,3283 -4214,6639 -4186,10953 6,934 114,1783 309,2549 186,731 454,1371 787,1924 326,542 718,1004 1161,1391 1355,1181 3239,1713 5296,1719z"/>
   <path class="fil0 str0" d="M52721 7847c15306,0 27714,12408 27714,27714 0,15306 -12408,27715 -27714,27715 -15307,0 -27715,-12409 -27715,-27715 0,-15306 12408,-27714 27715,-27714zm-2604 -5640l5207 0 1728 5995 -8663 0 1728 -5995zm-30760 35957l0 -5207 5996 -1728 0 8664 -5996 -1729zm66715 -5206l0 5207 -5995 1728 0 -8664 5995 1729zm-30749 35980l-5206 0 -1728 -5996 8663 0 -1729 5996zm27590 -18936l-2603 4509 -6057 -1501 4332 -7503 4328 4495zm-49097 -42050l4509 -2604 4495 4329 -7502 4331 -1502 -6056zm-11272 13182l2603 -4510 6057 1501 -4331 7503 -4329 -4494zm2550 33305l-2603 -4510 4328 -4494 4331 7502 -6056 1502zm46501 8764l-4509 2603 -4494 -4328 7502 -4332 1501 6057zm-4404 -57845l4509 2604 -1501 6056 -7502 -4331 4494 -4329zm13123 11261l2603 4509 -4328 4494 -4332 -7502 6057 -1501zm-27593 -4062c12705,0 23004,10299 23004,23004 0,12705 -10299,23005 -23004,23005 -12705,0 -23005,-10300 -23005,-23005 0,-12705 10300,-23004 23005,-23004zm-14403 53204l-4509 -2604 1501 -6056 7502 4331 -4494 4329z"/>
  </g>
 </g>
 <g id="Направляющие">
  <metadata id="CorelCorpID_1Corel-Layer"/>
 </g>
</svg>
