<?xml version="1.0" encoding="UTF-8"?>
<!DOCTYPE svg PUBLIC "-//W3C//DTD SVG 1.1//EN" "http://www.w3.org/Graphics/SVG/1.1/DTD/svg11.dtd">
<!-- Creator: CorelDRAW X5 -->
<svg xmlns="http://www.w3.org/2000/svg" xml:space="preserve" width="42px" height="28px" style="shape-rendering:geometricPrecision; text-rendering:geometricPrecision; image-rendering:optimizeQuality; fill-rule:evenodd; clip-rule:evenodd"
viewBox="0 0 42000 28000"
 xmlns:xlink="http://www.w3.org/1999/xlink">
 <defs>
  <style type="text/css">
   <![CDATA[
    .str0 {stroke:#2B2A29;stroke-width:266.7}
    .str1 {stroke:black;stroke-width:266.7}
    .str2 {stroke:black;stroke-width:617.4}
    .fil1 {fill:none;fill-rule:nonzero}
    .fil2 {fill:black}
    .fil0 {fill:black;fill-rule:nonzero}
   ]]>
  </style>
 </defs>
 <g id="Слой_x0020_1">
  <metadata id="CorelCorpID_0Corel-Layer"/>
  <g id="_343373640">
   <path class="fil0" d="M38557 20806c0,654 -84,1226 -251,1715 -168,489 -413,894 -734,1215 -321,321 -716,562 -1182,722 -467,160 -1025,239 -1671,239l-1601 0c-90,0 -174,-30 -253,-90 -80,-62 -119,-168 -119,-319l0 -6742c0,-152 40,-257 119,-319 80,-60 164,-90 253,-90l1713 0c654,0 1206,84 1659,253 451,170 830,413 1137,732 305,317 537,702 694,1153 158,453 237,963 237,1532zm-1057 40c0,-409 -52,-790 -152,-1141 -102,-353 -261,-658 -477,-915 -217,-257 -490,-457 -821,-602 -331,-144 -758,-215 -1278,-215l-1023 0 0 5883 1033 0c485,0 891,-60 1223,-182 331,-120 606,-305 830,-554 222,-249 389,-562 498,-937 112,-377 168,-821 168,-1336z"/>
   <path id="1" class="fil1 str0" d="M38557 20806c0,654 -84,1226 -251,1715 -168,489 -413,894 -734,1215 -321,321 -716,562 -1182,722 -467,160 -1025,239 -1671,239l-1601 0c-90,0 -174,-30 -253,-90 -80,-62 -119,-168 -119,-319l0 -6742c0,-152 40,-257 119,-319 80,-60 164,-90 253,-90l1713 0c654,0 1206,84 1659,253 451,170 830,413 1137,732 305,317 537,702 694,1153 158,453 237,963 237,1532zm-1057 40c0,-409 -52,-790 -152,-1141 -102,-353 -261,-658 -477,-915 -217,-257 -490,-457 -821,-602 -331,-144 -758,-215 -1278,-215l-1023 0 0 5883 1033 0c485,0 891,-60 1223,-182 331,-120 606,-305 830,-554 222,-249 389,-562 498,-937 112,-377 168,-821 168,-1336z"/>
   <path class="fil2" d="M20809 19308l0 0c-891,-2 -1720,-244 -2337,-781 -211,-184 -396,-401 -547,-653 -149,-247 -267,-529 -348,-845 -78,-304 -121,-647 -123,-1029 -11,-1662 762,-2878 1517,-4069 163,-256 325,-511 477,-769l1 0 47 -82c477,-820 924,-1833 1313,-2701l8 0 8 0c390,868 836,1881 1313,2701l47 82 1 0c152,257 314,513 477,769 756,1190 1528,2407 1517,4069 -2,383 -45,725 -123,1029 -81,316 -199,597 -348,845 -152,252 -336,469 -547,653 -616,538 -1446,779 -2337,781l0 0 -15 0zm0 -1003l0 0 15 0 0 0c656,-2 1256,-171 1688,-548 141,-123 266,-271 370,-443 106,-176 192,-380 251,-613 62,-244 97,-515 98,-812 9,-1375 -670,-2444 -1334,-3491 -159,-250 -316,-498 -465,-750l0 -1 -46 -78c-232,-398 -405,-814 -570,-1234 -165,419 -338,836 -569,1234l-46 78 0 1c-149,252 -307,500 -465,750 -664,1047 -1343,2116 -1334,3491 2,298 36,568 98,812 60,233 145,437 251,613 104,173 229,320 370,443 432,377 1033,546 1688,548z"/>
   <path class="fil2 str1" d="M20819 5009c4878,0 8832,3954 8832,8832 0,4878 -3954,8832 -8832,8832 -4878,0 -8832,-3954 -8832,-8832 0,-4878 3954,-8832 8832,-8832zm-830 -1798l1659 0 551 1911 -2761 0 551 -1911zm-9803 11459l0 -1659 1911 -551 0 2761 -1911 -551zm21261 -1659l0 1659 -1911 551 0 -2761 1911 551zm-9799 11466l-1659 0 -551 -1911 2761 0 -551 1911zm8793 -6035l-830 1437 -1930 -478 1381 -2391 1379 1432zm-15647 -13401l1437 -830 1433 1379 -2391 1380 -479 -1930zm-3592 4201l830 -1437 1930 478 -1380 2391 -1379 -1432zm813 10614l-830 -1437 1379 -1432 1380 2391 -1930 478zm14819 2793l-1437 830 -1433 -1379 2391 -1380 478 1930zm-1404 -18434l1437 830 -478 1930 -2391 -1380 1432 -1379zm4182 3589l830 1437 -1379 1432 -1381 -2391 1930 -478zm-8794 -1295c4049,0 7331,3282 7331,7331 0,4049 -3282,7331 -7331,7331 -4049,0 -7331,-3282 -7331,-7331 0,-4049 3282,-7331 7331,-7331zm-4590 16955l-1437 -830 478 -1930 2391 1380 -1432 1379z"/>
   <path class="fil1 str2" d="M4181 14672l2222 0 0 827 2222 -1656 -2222 -1656 0 828 -2222 0 0 1656zm1111 0m1111 414m1111 -414m0 -1656m-1111 -414m-1111 414m-1111 828"/>
   <path class="fil1 str2" d="M37261 14649l-2222 0 0 827 -2222 -1656 2222 -1656 0 828 2222 0 0 1656zm-1111 0m-1111 414m-1111 -414m0 -1656m1111 -414m1111 414m1111 828"/>
  </g>
 </g>
</svg>
