<?xml version="1.0" encoding="UTF-8"?>
<!DOCTYPE svg PUBLIC "-//W3C//DTD SVG 1.1//EN" "http://www.w3.org/Graphics/SVG/1.1/DTD/svg11.dtd">
<!-- Creator: CorelDRAW X5 -->
<svg xmlns="http://www.w3.org/2000/svg" xml:space="preserve" width="42px" height="28px" style="shape-rendering:geometricPrecision; text-rendering:geometricPrecision; image-rendering:optimizeQuality; fill-rule:evenodd; clip-rule:evenodd"
viewBox="0 0 42000 28000"
 xmlns:xlink="http://www.w3.org/1999/xlink">
 <defs>
  <style type="text/css">
   <![CDATA[
    .str0 {stroke:black;stroke-width:266.7}
    .fil0 {fill:black}
    .fil1 {fill:black;fill-rule:nonzero}
   ]]>
  </style>
 </defs>
 <g id="Слой_x0020_1">
  <metadata id="CorelCorpID_0Corel-Layer"/>
  <g id="_313336536">
   <path class="fil0 str0" d="M20999 2135c4841,0 8766,3925 8766,8766 0,4842 -3925,8766 -8766,8766 -4842,0 -8766,-3925 -8766,-8766 0,-4841 3925,-8766 8766,-8766zm-824 -1784l1647 0 547 1897 -2740 0 547 -1897zm-9729 11374l0 -1647 1896 -546 0 2740 -1896 -547zm21102 -1647l0 1647 -1896 547 0 -2740 1896 547zm-9726 11380l-1647 0 -547 -1896 2740 0 -547 1896zm8727 -5989l-823 1426 -1916 -475 1370 -2373 1369 1422zm-15529 -13301l1427 -823 1421 1369 -2373 1370 -475 -1916zm-3565 4170l823 -1426 1916 475 -1370 2373 -1369 -1421zm806 10534l-823 -1426 1369 -1422 1370 2373 -1916 475zm14708 2772l-1426 824 -1422 -1369 2373 -1370 475 1916zm-1393 -18296l1426 824 -475 1916 -2373 -1370 1421 -1369zm4151 3562l823 1426 -1369 1421 -1370 -2373 1916 -475zm-8728 -1285c4019,0 7276,3258 7276,7276 0,4019 -3257,7277 -7276,7277 -4019,0 -7277,-3258 -7277,-7277 0,-4018 3258,-7276 7277,-7276zm-4556 16828l-1426 -823 475 -1916 2373 1370 -1421 1369z"/>
   <path class="fil1" d="M13353 27599l0 -3516 536 0 0 499c259,-387 632,-580 1119,-580 212,0 407,39 584,114 179,77 311,176 399,301 89,123 151,270 187,440 21,111 33,304 33,580l0 2162 -597 0 0 -2140c0,-242 -22,-424 -69,-545 -46,-120 -129,-216 -246,-287 -119,-72 -257,-109 -416,-109 -254,0 -473,82 -658,242 -184,162 -276,467 -276,918l0 1920 -596 0z"/>
   <polygon id="1" class="fil1" points="16676,27682 18084,22662 18561,22662 17157,27682 "/>
   <path id="12" class="fil1" d="M19008 27599l0 -3516 532 0 0 493c111,-172 258,-311 441,-415 183,-105 392,-158 626,-158 260,0 474,54 640,163 167,109 285,259 353,453 279,-410 641,-616 1086,-616 349,0 617,97 805,291 188,193 281,491 281,892l0 2414 -592 0 0 -2215c0,-239 -19,-411 -57,-516 -40,-104 -110,-189 -210,-253 -102,-63 -222,-96 -358,-96 -247,0 -452,83 -616,247 -163,164 -245,427 -245,789l0 2044 -595 0 0 -2284c0,-266 -49,-465 -146,-597 -97,-132 -256,-199 -477,-199 -167,0 -322,44 -464,133 -142,88 -246,217 -310,387 -64,170 -96,416 -96,736l0 1824 -596 0z"/>
   <path id="123" class="fil1" d="M24659 23431l0 -686 597 0 0 686 -597 0zm0 4169l0 -3516 597 0 0 3516 -597 0z"/>
   <path id="1234" class="fil1" d="M26164 27599l0 -3516 536 0 0 499c259,-387 632,-580 1119,-580 212,0 407,39 584,114 179,77 311,176 399,301 89,123 151,270 187,440 21,111 33,304 33,580l0 2162 -597 0 0 -2140c0,-242 -22,-424 -69,-545 -46,-120 -129,-216 -246,-287 -119,-72 -257,-109 -416,-109 -254,0 -473,82 -658,242 -184,162 -276,467 -276,918l0 1920 -596 0z"/>
  </g>
 </g>
</svg>
