<?xml version="1.0" encoding="UTF-8"?>
<!DOCTYPE svg PUBLIC "-//W3C//DTD SVG 1.1//EN" "http://www.w3.org/Graphics/SVG/1.1/DTD/svg11.dtd">
<!-- Creator: CorelDRAW X5 -->
<svg xmlns="http://www.w3.org/2000/svg" xml:space="preserve" width="42px" height="28px" style="shape-rendering:geometricPrecision; text-rendering:geometricPrecision; image-rendering:optimizeQuality; fill-rule:evenodd; clip-rule:evenodd"
viewBox="0 0 42000 28000"
 xmlns:xlink="http://www.w3.org/1999/xlink">
 <defs>
  <style type="text/css">
   <![CDATA[
    .str0 {stroke:#2B2A29;stroke-width:266.7}
    .str1 {stroke:black;stroke-width:266.7}
    .str2 {stroke:black;stroke-width:617.4}
    .fil1 {fill:none;fill-rule:nonzero}
    .fil2 {fill:black}
    .fil0 {fill:black;fill-rule:nonzero}
   ]]>
  </style>
 </defs>
 <g id="Слой_x0020_1">
  <metadata id="CorelCorpID_0Corel-Layer"/>
  <g id="_343373640">
   <path class="fil0" d="M37785 24545c0,30 -6,58 -18,82 -10,24 -36,42 -76,58 -38,16 -94,28 -163,36 -70,8 -163,12 -279,12 -102,0 -186,-4 -249,-12 -64,-8 -116,-22 -154,-38 -40,-18 -70,-42 -92,-74 -22,-32 -40,-70 -56,-118l-694 -1781c-82,-203 -168,-389 -255,-558 -88,-169 -191,-315 -313,-439 -120,-122 -261,-217 -425,-285 -164,-68 -361,-102 -590,-102l-672 0 0 3219c0,30 -10,58 -26,82 -18,24 -46,42 -82,56 -38,14 -88,24 -153,34 -64,10 -144,16 -242,16 -98,0 -177,-6 -243,-16 -64,-10 -116,-20 -153,-34 -40,-14 -68,-32 -82,-56 -16,-24 -24,-52 -24,-82l0 -6999c0,-152 40,-257 119,-319 80,-60 164,-90 253,-90l1607 0c191,0 349,4 477,14 126,10 239,22 341,32 293,52 551,132 774,241 225,108 413,247 564,415 152,168 265,359 343,574 76,217 114,455 114,716 0,253 -34,481 -104,680 -68,202 -166,379 -295,533 -127,153 -281,287 -461,401 -180,112 -379,207 -602,285 126,54 237,124 339,207 102,84 196,183 283,301 88,118 172,251 249,403 78,152 156,323 233,515l678 1665c54,140 90,239 106,295 14,56 22,100 22,132zm-1514 -5310c0,-297 -66,-547 -197,-752 -133,-204 -355,-351 -666,-441 -98,-28 -207,-46 -331,-58 -122,-12 -283,-18 -481,-18l-848 0 0 2547 981 0c265,0 495,-32 686,-96 194,-64 353,-154 483,-269 128,-114 223,-249 283,-405 60,-158 90,-325 90,-508z"/>
   <path id="1" class="fil1 str0" d="M37785 24545c0,30 -6,58 -18,82 -10,24 -36,42 -76,58 -38,16 -94,28 -163,36 -70,8 -163,12 -279,12 -102,0 -186,-4 -249,-12 -64,-8 -116,-22 -154,-38 -40,-18 -70,-42 -92,-74 -22,-32 -40,-70 -56,-118l-694 -1781c-82,-203 -168,-389 -255,-558 -88,-169 -191,-315 -313,-439 -120,-122 -261,-217 -425,-285 -164,-68 -361,-102 -590,-102l-672 0 0 3219c0,30 -10,58 -26,82 -18,24 -46,42 -82,56 -38,14 -88,24 -153,34 -64,10 -144,16 -242,16 -98,0 -177,-6 -243,-16 -64,-10 -116,-20 -153,-34 -40,-14 -68,-32 -82,-56 -16,-24 -24,-52 -24,-82l0 -6999c0,-152 40,-257 119,-319 80,-60 164,-90 253,-90l1607 0c191,0 349,4 477,14 126,10 239,22 341,32 293,52 551,132 774,241 225,108 413,247 564,415 152,168 265,359 343,574 76,217 114,455 114,716 0,253 -34,481 -104,680 -68,202 -166,379 -295,533 -127,153 -281,287 -461,401 -180,112 -379,207 -602,285 126,54 237,124 339,207 102,84 196,183 283,301 88,118 172,251 249,403 78,152 156,323 233,515l678 1665c54,140 90,239 106,295 14,56 22,100 22,132zm-1514 -5310c0,-297 -66,-547 -197,-752 -133,-204 -355,-351 -666,-441 -98,-28 -207,-46 -331,-58 -122,-12 -283,-18 -481,-18l-848 0 0 2547 981 0c265,0 495,-32 686,-96 194,-64 353,-154 483,-269 128,-114 223,-249 283,-405 60,-158 90,-325 90,-508z"/>
   <path class="fil2" d="M20809 19308l0 0c-891,-2 -1720,-244 -2337,-781 -211,-184 -396,-401 -547,-653 -149,-247 -267,-529 -348,-845 -78,-304 -121,-647 -123,-1029 -11,-1662 762,-2878 1517,-4069 163,-256 325,-511 477,-769l1 0 47 -82c477,-820 924,-1833 1313,-2701l8 0 8 0c390,868 836,1881 1313,2701l47 82 1 0c152,257 314,513 477,769 756,1190 1528,2407 1517,4069 -2,383 -45,725 -123,1029 -81,316 -199,597 -348,845 -152,252 -336,469 -547,653 -616,538 -1446,779 -2337,781l0 0 -15 0zm0 -1003l0 0 15 0 0 0c656,-2 1256,-171 1688,-548 141,-123 266,-271 370,-443 106,-176 192,-380 251,-613 62,-244 97,-515 98,-812 9,-1375 -670,-2444 -1334,-3491 -159,-250 -316,-498 -465,-750l0 -1 -46 -78c-232,-398 -405,-814 -570,-1234 -165,419 -338,836 -569,1234l-46 78 0 1c-149,252 -307,500 -465,750 -664,1047 -1343,2116 -1334,3491 2,298 36,568 98,812 60,233 145,437 251,613 104,173 229,320 370,443 432,377 1033,546 1688,548z"/>
   <path class="fil2 str1" d="M20819 5009c4878,0 8832,3954 8832,8832 0,4878 -3954,8832 -8832,8832 -4878,0 -8832,-3954 -8832,-8832 0,-4878 3954,-8832 8832,-8832zm-830 -1798l1659 0 551 1911 -2761 0 551 -1911zm-9803 11459l0 -1659 1911 -551 0 2761 -1911 -551zm21261 -1659l0 1659 -1911 551 0 -2761 1911 551zm-9799 11466l-1659 0 -551 -1911 2761 0 -551 1911zm8793 -6035l-830 1437 -1930 -478 1381 -2391 1379 1432zm-15647 -13401l1437 -830 1433 1379 -2391 1380 -479 -1930zm-3592 4201l830 -1437 1930 478 -1380 2391 -1379 -1432zm813 10614l-830 -1437 1379 -1432 1380 2391 -1930 478zm14819 2793l-1437 830 -1433 -1379 2391 -1380 478 1930zm-1404 -18434l1437 830 -478 1930 -2391 -1380 1432 -1379zm4182 3589l830 1437 -1379 1432 -1381 -2391 1930 -478zm-8794 -1295c4049,0 7331,3282 7331,7331 0,4049 -3282,7331 -7331,7331 -4049,0 -7331,-3282 -7331,-7331 0,-4049 3282,-7331 7331,-7331zm-4590 16955l-1437 -830 478 -1930 2391 1380 -1432 1379z"/>
   <path class="fil1 str2" d="M4181 14672l2222 0 0 827 2222 -1656 -2222 -1656 0 828 -2222 0 0 1656zm1111 0m1111 414m1111 -414m0 -1656m-1111 -414m-1111 414m-1111 828"/>
   <path class="fil1 str2" d="M37261 14649l-2222 0 0 827 -2222 -1656 2222 -1656 0 828 2222 0 0 1656zm-1111 0m-1111 414m-1111 -414m0 -1656m1111 -414m1111 414m1111 828"/>
  </g>
 </g>
</svg>
