<?xml version="1.0" encoding="UTF-8"?>
<!DOCTYPE svg PUBLIC "-//W3C//DTD SVG 1.1//EN" "http://www.w3.org/Graphics/SVG/1.1/DTD/svg11.dtd">
<!-- Creator: CorelDRAW X5 -->
<svg xmlns="http://www.w3.org/2000/svg" xml:space="preserve" width="12mm" height="8mm" style="shape-rendering:geometricPrecision; text-rendering:geometricPrecision; image-rendering:optimizeQuality; fill-rule:evenodd; clip-rule:evenodd"
viewBox="0 0 120000 80000"
 xmlns:xlink="http://www.w3.org/1999/xlink">
 <defs>
  <style type="text/css">
   <![CDATA[
    .str0 {stroke:black;stroke-width:762}
    .fil0 {fill:black}
   ]]>
  </style>
 </defs>
 <g id="Слой_x0020_1">
  <metadata id="CorelCorpID_0Corel-Layer"/>
  <g id="_291207408">
   <path class="fil0" d="M59559 43427l1 0 35 0 1 0c1553,-4 2975,-405 3998,-1298 335,-292 630,-641 877,-1049 252,-418 454,-902 595,-1453 147,-578 228,-1219 232,-1925 21,-3257 -1587,-5791 -3160,-8270 -376,-592 -750,-1181 -1102,-1777l0 -3 -109 -186c-548,-943 -960,-1929 -1349,-2923 -391,994 -801,1980 -1350,2923l-108 186 0 3c-352,596 -727,1185 -1102,1777 -1574,2479 -3182,5013 -3161,8270 4,706 86,1347 233,1925 141,551 343,1035 595,1453 246,408 541,757 876,1049 1023,893 2446,1294 3998,1298z"/>
   <path class="fil0 str0" d="M59613 9875c16451,0 29788,13337 29788,29788 0,16451 -13337,29788 -29788,29788 -16451,0 -29788,-13337 -29788,-29788 0,-16451 13337,-29788 29788,-29788zm-2798 -6062l5596 0 1858 6444 -9312 0 1858 -6444zm-33061 38648l0 -5597 6444 -1857 0 9311 -6444 -1857zm71706 -5596l0 5596 -6444 1857 0 -9311 6444 1858zm-33049 38671l-5596 0 -1858 -6444 9312 0 -1858 6444zm29653 -20352l-2798 4846 -6509 -1613 4656 -8064 4651 4831zm-52770 -45196l4847 -2798 4831 4652 -8064 4655 -1614 -6509zm-12115 14168l2798 -4847 6510 1614 -4655 8063 -4653 -4830zm2741 35797l-2798 -4847 4652 -4831 4655 8064 -6509 1614zm49980 9419l-4847 2798 -4830 -4652 8063 -4655 1614 6509zm-4734 -62171l4847 2798 -1614 6509 -8063 -4655 4830 -4652zm14105 12103l2798 4846 -4652 4830 -4656 -8063 6510 -1613zm-29658 -4366c13656,0 24726,11070 24726,24725 0,13656 -11070,24726 -24726,24726 -13655,0 -24725,-11070 -24725,-24726 0,-13655 11070,-24725 24725,-24725zm-15480 57184l-4846 -2798 1613 -6510 8064 4655 -4831 4653z"/>
   <polygon class="fil0" points="44959,46055 39100,46055 39100,51328 44959,51328 "/>
   <polygon class="fil0" points="50818,51328 44959,51328 44959,56601 50818,56601 "/>
   <polygon class="fil0" points="56677,46055 50818,46055 50818,51328 56677,51328 "/>
   <polygon class="fil0" points="62537,51328 56677,51328 56677,56601 62537,56601 "/>
   <polygon class="fil0" points="68396,46055 62537,46055 62537,51328 68396,51328 "/>
   <polygon class="fil0" points="74255,51328 68396,51328 68396,56601 74255,56601 "/>
   <polygon class="fil0" points="80114,46055 74255,46055 74255,51328 80114,51328 "/>
  </g>
 </g>
 <g id="Направляющие">
  <metadata id="CorelCorpID_1Corel-Layer"/>
 </g>
</svg>
