<?xml version="1.0" encoding="UTF-8"?>
<!DOCTYPE svg PUBLIC "-//W3C//DTD SVG 1.1//EN" "http://www.w3.org/Graphics/SVG/1.1/DTD/svg11.dtd">
<!-- Creator: CorelDRAW X5 -->
<svg xmlns="http://www.w3.org/2000/svg" xml:space="preserve" width="12mm" height="8mm" style="shape-rendering:geometricPrecision; text-rendering:geometricPrecision; image-rendering:optimizeQuality; fill-rule:evenodd; clip-rule:evenodd"
viewBox="0 0 120000 80000"
 xmlns:xlink="http://www.w3.org/1999/xlink">
 <defs>
  <style type="text/css">
   <![CDATA[
    .fil1 {fill:black}
    .fil0 {fill:black;fill-rule:nonzero}
   ]]>
  </style>
 </defs>
 <g id="Слой_x0020_1">
  <metadata id="CorelCorpID_0Corel-Layer"/>
  <g id="_258696584">
   <path class="fil0" d="M28625 51153l25250 -3348 190 -25 190 25 25318 3364 0 -6178 4151 0 0 17630 0 785 0 426 0 9865 0 510 -16664 -2 -26164 2 -16421 0 0 -665 0 -9985 0 -507 0 -765 0 -17294 4150 0 0 6162zm50948 1955l-1 9 -25507 -3389 -25440 3373 0 8419 0 9306 50948 0 0 -8991 0 -8727z"/>
   <path class="fil0" d="M57167 34166c-335,105 -1217,66 -1657,194 -1819,528 -2367,1051 -4058,3167 -861,1079 -1434,2697 -1680,3883 -235,1142 -881,3734 -1186,3508l-2773 1c411,-952 815,-2543 985,-3362 293,-1414 1042,-3941 2222,-5419 2167,-2712 3460,-3087 5816,-3771 307,-88 694,-269 1245,-442l1086 2241zm1166 -723c-242,221 -595,527 -919,808 -1339,1164 -2074,1802 -2445,4334 -190,1290 196,2351 614,3502 379,1046 691,1409 809,2830l-3093 1c-146,-1005 -533,-2220 -822,-3015 -436,-1397 -576,-1906 -424,-3631 476,-3244 1428,-4071 3163,-5578 225,-195 467,-405 865,-769l2252 1518zm-209 0c-88,282 -212,329 -338,694 -520,1509 -184,1716 862,4027 534,1178 1737,2465 2716,3292 944,795 3252,3462 2860,3462l-2849 0c-666,-806 -859,-824 -1535,-1396 -1167,-985 -3128,-2898 -3858,-4511 -1343,-2963 -973,-4035 -299,-5990 88,-254 134,-613 279,-1077l2162 1499z"/>
   <path class="fil1" d="M61943 9167l3423 2364 -9278 13432 -3422 -2364 9277 -13432zm35015 19129l0 5055 -35015 -24184c788,-1141 2211,-3527 3352,-2740l31663 21869zm0 13300l0 5055 -23824 -16455 381 -4791 23443 16191zm-45307 -17535l1015 -1462 10896 7526 -356 4808c-4202,-3330 -13800,-7652 -11555,-10872zm21864 1344l-381 4791 -9928 4737 356 -4808 9953 -4720z"/>
  </g>
 </g>
</svg>
