<?xml version="1.0" encoding="UTF-8"?>
<!DOCTYPE svg PUBLIC "-//W3C//DTD SVG 1.1//EN" "http://www.w3.org/Graphics/SVG/1.1/DTD/svg11.dtd">
<!-- Creator: CorelDRAW X5 -->
<svg xmlns="http://www.w3.org/2000/svg" xml:space="preserve" width="12mm" height="8mm" style="shape-rendering:geometricPrecision; text-rendering:geometricPrecision; image-rendering:optimizeQuality; fill-rule:evenodd; clip-rule:evenodd"
viewBox="0 0 120000 80000"
 xmlns:xlink="http://www.w3.org/1999/xlink">
 <defs>
  <style type="text/css">
   <![CDATA[
    .fil0 {fill:black}
   ]]>
  </style>
 </defs>
 <g id="Слой_x0020_1">
  <metadata id="CorelCorpID_0Corel-Layer"/>
  <g id="_319050432">
   <path class="fil0" d="M45481 69603l0 6510 -4749 0 -35521 0 -3352 0 0 -6510 2428 0 0 -58763 0 -2 10 0c1,-1927 782,-3670 2037,-4925l10 0c1254,-1254 2992,-2033 4909,-2035l0 -10 6 0 23427 0 3 0 0 10c1927,1 3669,782 4924,2037l0 10c1254,1254 2033,2992 2035,4909l10 0 0 6 0 18739 2470 0 0 10c161,-2 307,0 430,4 2412,82 4173,985 5384,2414 1146,1354 1698,3107 1775,5018 3,80 5,209 7,383l10 10 0 23327c0,1538 1055,2556 2414,3021 760,259 1603,369 2439,326 825,-42 1631,-232 2330,-570 1292,-624 2209,-1868 2009,-3751 -1352,-12617 -3056,-25233 -3230,-37848 -2212,-5296 -6671,-9726 -12014,-13817l-4 -3714c9184,2840 17315,10328 21683,20157l-4099 4025c50,10033 1815,20427 2903,30640 480,4509 -1780,7517 -4959,9052 -1339,647 -2842,1009 -4351,1086 -1497,78 -3016,-122 -4399,-595 -3378,-1156 -6003,-3835 -6003,-8012l0 -23327 10 0 -6 -187c-31,-776 -199,-1422 -537,-1821 -275,-323 -766,-531 -1528,-557 -96,-3 -178,-4 -243,-4l-21 10 -2470 0 0 34744 3823 0zm-35914 0l26811 0 0 -34626 -26811 0 0 34626zm0 -40141l26811 0 0 -18622 0 -6 10 0c0,-456 -193,-879 -503,-1191l-5 5c-314,-314 -737,-510 -1191,-510l0 10 -3 0 -23427 0 -6 0 0 -10c-456,0 -879,193 -1191,503l5 5c-314,314 -510,737 -510,1192l10 0 0 2 0 18622z"/>
   <path class="fil0" d="M87851 33252l1 1 38 32 1 1c1677,1398 3572,2252 5481,2216 624,-13 1259,-121 1893,-339 650,-223 1305,-561 1955,-1028 680,-490 1348,-1107 1991,-1863 2967,-3491 3524,-7674 4070,-11767 130,-977 260,-1950 420,-2911l3 -4 51 -298c261,-1512 710,-2946 1188,-4369 -1319,718 -2653,1409 -4096,1929l-285 102 -3 4c-918,324 -1855,620 -2794,918 -3937,1248 -7959,2524 -10882,6052 -633,764 -1125,1529 -1489,2285 -347,721 -566,1424 -673,2103 -103,663 -101,1306 -4,1923 296,1886 1466,3605 3134,5013z"/>
   <path class="fil0" d="M100925 53914l1 1 38 31 1 1c1677,1399 3573,2253 5481,2217 624,-13 1259,-121 1893,-339 650,-223 1305,-561 1955,-1028 681,-490 1348,-1107 1991,-1863 2967,-3491 3524,-7674 4070,-11767 130,-978 260,-1951 420,-2911l3 -4 51 -298c261,-1512 710,-2946 1188,-4370 -1319,718 -2653,1410 -4096,1929l-285 103 -3 4c-918,324 -1854,620 -2794,918 -3937,1248 -7959,2524 -10882,6052 -633,764 -1125,1529 -1489,2285 -347,721 -566,1424 -673,2102 -103,664 -101,1307 -4,1924 296,1886 1466,3605 3134,5013z"/>
   <path class="fil0" d="M75935 59654l1 0 37 32 2 1c1676,1398 3572,2252 5481,2216 624,-13 1258,-121 1893,-339 649,-223 1304,-560 1954,-1027 681,-490 1348,-1108 1991,-1864 2968,-3491 3525,-7674 4071,-11767 130,-977 260,-1950 419,-2911l4 -4 51 -298c261,-1512 710,-2946 1187,-4369 -1318,718 -2652,1409 -4096,1929l-284 102 -3 4c-919,324 -1855,620 -2795,918 -3936,1249 -7958,2524 -10881,6052 -633,765 -1125,1529 -1489,2285 -347,721 -566,1425 -673,2103 -104,663 -101,1306 -4,1923 295,1886 1466,3605 3134,5014z"/>
  </g>
 </g>
 <g id="Направляющие">
  <metadata id="CorelCorpID_1Corel-Layer"/>
 </g>
</svg>
