<svg width="70" height="70" viewBox="0 0 70 70" fill="none" xmlns="http://www.w3.org/2000/svg">
<path fill-rule="evenodd" clip-rule="evenodd" d="M6.0405 11.6665H50.4845V22.9538H66.1615L69.3567 31.4745L58.5468 38.1267V41.7051C60.9513 43.0601 62.578 45.6382 62.578 48.5989C62.578 52.9665 59.0374 56.5071 54.6698 56.5071C50.3022 56.5071 46.7616 52.9665 46.7616 48.5989C46.7616 46.6282 47.4835 44.8255 48.6745 43.4418L47.5185 41.9951H40.8097V46.9866C40.8097 52.2448 36.5471 56.5071 31.2891 56.5071C26.5268 56.5071 22.5812 53.0106 21.8794 48.4448L17.6782 48.4449L15.2595 53.2824H1.45843C0.828444 53.2824 0.269677 52.8778 0.0729923 52.2793C-0.123693 51.6808 0.0861744 51.0237 0.593349 50.65L16.2976 39.0784H20.1559V37.1577H12.4133L6.0405 11.6665ZM31.5911 25.0629C32.0247 25.0629 32.4484 24.9406 32.8089 24.712C33.1694 24.4834 33.4506 24.1587 33.6165 23.7786C33.7824 23.3985 33.8258 22.9807 33.7412 22.5772C33.6566 22.1737 33.4477 21.803 33.1411 21.5121C32.8345 21.2211 32.4442 21.023 32.0189 20.9427C31.5936 20.8624 31.1526 20.9032 30.752 21.0606C30.3514 21.2181 30.0092 21.4852 29.7683 21.8273C29.5274 22.1694 29.3988 22.5714 29.3988 22.9828C29.3988 23.5345 29.63 24.0634 30.0411 24.4535C30.4522 24.8436 31.0097 25.0629 31.5911 25.0629ZM34.2657 36.4582H28.9227C28.8571 36.4566 28.7946 36.4303 28.7493 36.3854C28.7039 36.3404 28.6793 36.2801 28.6806 36.2179V34.105C28.6806 34.0425 28.7069 33.9825 28.7535 33.9383C28.8001 33.8941 28.863 33.8691 28.9288 33.8691H29.5653V29.1438H28.9288C28.8963 29.144 28.8642 29.138 28.8341 29.1264C28.804 29.1147 28.7766 29.0979 28.7535 29.0761C28.7304 29.0544 28.7119 29.0282 28.6994 28.9997C28.6869 28.9712 28.6806 28.941 28.6806 28.9101V26.7972C28.6806 26.7347 28.7069 26.6747 28.7535 26.6305C28.8001 26.5863 28.863 26.5613 28.9288 26.5613H33.3825C33.415 26.5613 33.4472 26.5677 33.4772 26.5795C33.5073 26.5914 33.5345 26.6086 33.5574 26.6305C33.5803 26.6524 33.5988 26.6784 33.6111 26.7069C33.6234 26.7355 33.6294 26.7664 33.6292 26.7972V33.8742H34.2657C34.3315 33.8742 34.3948 33.8985 34.4414 33.9426C34.4879 33.9868 34.5139 34.0469 34.5139 34.1094V36.2223C34.5139 36.2848 34.4879 36.3448 34.4414 36.389C34.3948 36.4332 34.3315 36.4582 34.2657 36.4582Z" fill="#333333"/>
</svg>
