<svg width="70" height="70" viewBox="0 0 70 70" fill="none" xmlns="http://www.w3.org/2000/svg">
<path fill-rule="evenodd" clip-rule="evenodd" d="M65.3405 47.7502V29.1942H42.5271C43.6149 26.7206 45.3785 24.604 47.6153 23.0877C49.852 21.5714 52.4712 20.7169 55.1718 20.6223H66.3169L69.608 14.919H53.4943C49.2531 15.1065 45.1674 16.5711 41.7729 19.1208C38.3785 21.6706 35.8336 25.1865 34.4719 29.2076H33.9822V13H12.1283L17.1606 41.5805H27.3327V44.4389H24.3804L1 55.8657L1.50999 57.7747H18.3147L24.4207 53.4871H29.4195C30.6268 55.2155 32.343 56.5245 34.3292 57.2316C36.3155 57.9387 38.4727 58.0088 40.5006 57.4321C42.5286 56.8555 44.3262 55.6607 45.6432 54.0143C46.9601 52.3679 47.7308 50.3518 47.848 48.2467H56.1246L56.7788 48.9177C56.1821 49.8325 55.8607 50.8994 55.8526 51.9915C55.8446 53.0837 56.1502 54.1552 56.7334 55.0786C57.3165 56.0021 58.1525 56.7388 59.142 57.201C60.1316 57.6632 61.2331 57.8316 62.3155 57.6861C63.398 57.5406 64.4159 57.0874 65.2483 56.3803C66.0807 55.6732 66.6925 54.742 67.0111 53.6973C67.3297 52.6526 67.3417 51.5384 67.0455 50.4872C66.7494 49.4359 66.1576 48.4917 65.3405 47.767V47.7502ZM30.4248 35.3773L31.6578 32.7491L30.2764 32.1074L27.049 38.9762L34.6478 38.3158L34.5156 36.8158L30.6271 37.1419C32.8163 35.2877 35.6311 34.3208 38.5088 34.4343C41.3865 34.5478 44.1148 35.7335 46.1483 37.7543L47.2277 36.6851C45.0451 34.5163 42.1518 33.1924 39.0703 32.9526C35.9888 32.7128 32.9223 33.5727 30.4248 35.3773ZM35.491 41.9432C36.2454 41.4437 37.1324 41.1773 38.0396 41.1773C39.2563 41.1773 40.4229 41.6563 41.2832 42.5088C42.1435 43.3612 42.627 44.5173 42.627 45.7229C42.627 46.6219 42.358 47.5006 41.854 48.2481C41.3499 48.9956 40.6333 49.5783 39.795 49.9224C38.9568 50.2664 38.0343 50.3563 37.1444 50.1809C36.2546 50.0055 35.4373 49.5727 34.7957 48.937C34.1542 48.3013 33.7175 47.4914 33.5405 46.6097C33.3635 45.728 33.4541 44.8141 33.8013 43.9835C34.1485 43.1529 34.7366 42.4426 35.491 41.9432Z" fill="#333333"/>
</svg>
