<svg width="70" height="70" viewBox="0 0 70 70" fill="none" xmlns="http://www.w3.org/2000/svg">
<path fill-rule="evenodd" clip-rule="evenodd" d="M6.0405 11.6665L12.4133 37.1579H20.1559V39.0786H16.2976L0.593349 50.6499C0.0861746 51.0236 -0.123693 51.6806 0.0729922 52.2791C0.269677 52.8776 0.828444 53.2822 1.45843 53.2822H15.2595L17.6782 48.4448H21.8794C22.5812 53.0106 26.5268 56.5069 31.2891 56.5069C36.5471 56.5069 40.8097 52.2446 40.8097 46.9865V41.9953H47.5185L48.6745 43.4417C47.4835 44.8254 46.7616 46.6284 46.7616 48.5991C46.7616 52.9667 50.3022 56.5069 54.6698 56.5069C59.0374 56.5069 62.578 52.9667 62.578 48.5991C62.578 45.6383 60.9513 43.0603 58.5468 41.7052V38.1268L69.3567 31.4746L66.1615 22.9539H50.4845V11.6665H6.0405ZM55.6302 36.4971L65.7823 30.2493L65.1227 28.4903L64.8569 28.64L62.0512 30.7663L60.4613 28.6495L56.9386 31.3056L55.3456 29.1921L51.8261 31.8482L50.2362 29.7343L41.975 35.9787L42.5518 38.1605L55.6302 37.4478V36.4971ZM27.2528 32.8565C28.1244 32.2742 29.149 31.9635 30.1971 31.9635C31.6027 31.9635 32.9507 32.522 33.9445 33.5159C34.9384 34.5097 35.4968 35.8577 35.4968 37.2633C35.4968 38.3115 35.1859 39.336 34.6036 40.2075C34.0213 41.079 33.1936 41.7584 32.2252 42.1595C31.2568 42.5606 30.1913 42.6655 29.1632 42.461C28.1352 42.2565 27.1909 41.7519 26.4498 41.0107C25.7086 40.2696 25.2038 39.3253 24.9994 38.2972C24.7949 37.2692 24.8998 36.2037 25.3009 35.2353C25.7021 34.2669 26.3813 33.4388 27.2528 32.8565ZM22.8246 22.1369L21.3999 25.2012C24.2852 23.0972 27.8278 22.0947 31.3879 22.3742C34.9479 22.6538 38.2905 24.1974 40.8121 26.726L39.5651 27.9726C37.2158 25.6165 34.0638 24.2341 30.7393 24.1017C27.4148 23.9694 24.1628 25.0968 21.6337 27.2586L26.1259 26.8784L26.2787 28.6272L17.5 29.3972L21.2284 21.3887L22.8246 22.1369Z" fill="#333333"/>
</svg>
