<svg width="70" height="70" viewBox="0 0 70 70" fill="none" xmlns="http://www.w3.org/2000/svg">
<path d="M31.3251 12.0638C30.0737 13.8784 29.23 15.6576 28.6762 17.3827C27.0619 16.5626 25.2026 15.9098 23.0321 15.5257C21.128 8.57128 23.0439 3.88867 23.0439 3.88867C23.0439 3.88867 27.7194 5.81874 31.3251 12.0638Z" fill="#333333"/>
<path d="M48.0977 59.743C55.5211 55.8263 56.8172 48.0753 54.2532 41.934L53.3459 39.7588C47.7065 43.963 45.9673 47.8774 45.298 51.7139C44.6782 49.9913 44.0537 48.2686 43.4151 46.5577C43.0969 45.7046 42.7882 44.8892 42.4842 44.0903C49.2383 40.0581 50.3766 32.6418 47.8997 26.7125L46.9924 24.5374C41.8032 28.4046 39.9179 32.0291 39.126 35.5711C37.9666 32.7431 36.9956 30.4973 36.2345 28.8029C42.8943 24.7565 44.0066 17.3874 41.5439 11.4888L40.6366 9.3136C32.8458 15.1202 32.4874 20.3777 32.1292 25.6329C28.1396 22.1923 24.147 18.7496 14.5417 20.2083L15.449 22.3834C17.9565 28.3881 24.1521 32.8374 31.9053 30.6764C32.7184 32.4863 33.7883 34.9607 35.0844 38.1445C31.8794 35.9104 27.8755 34.3716 20.8952 35.4297L21.8025 37.6048C24.2958 43.5789 30.4419 48.0093 38.1386 45.9284C38.1768 46.0292 38.2151 46.1302 38.2535 46.2315C38.4969 46.8733 38.744 47.525 38.9964 48.2049C39.42 49.3362 39.8272 50.4762 40.2346 51.6168C40.3848 52.0373 40.535 52.4579 40.6861 52.8781C37.5989 50.9221 33.7011 49.6731 27.2487 50.6511L28.156 52.8263C30.5597 58.5835 36.3499 62.915 43.6555 61.3643C44.1932 62.9489 44.7229 64.5322 45.2438 66.1109H50.2093C49.4917 63.9019 48.7785 61.7469 48.0977 59.743Z" fill="#333333"/>
</svg>
