<svg width="70" height="70" viewBox="0 0 70 70" fill="none" xmlns="http://www.w3.org/2000/svg">
<path fill-rule="evenodd" clip-rule="evenodd" d="M67.7212 61.1415L37.4714 6.1653C37.0759 5.44657 36.3203 5 35.5 5C34.6796 5 33.9244 5.44657 33.5287 6.1653L3.27872 61.1415C2.89515 61.8385 2.90829 62.6863 3.3131 63.3713C3.71792 64.0562 4.45429 64.4763 5.24988 64.4763H65.75C66.5458 64.4763 67.2822 64.0562 67.687 63.3713C68.0918 62.6863 68.1048 61.8385 67.7212 61.1415ZM38.5436 26.7909L32.4681 26.7996C32.344 26.7996 32.2246 26.8494 32.1368 26.9374C32.049 27.0255 32 27.1452 32 27.2697L32 46.0438C31.9996 46.1053 32.0108 46.1668 32.0341 46.2237C32.0573 46.2807 32.0921 46.3324 32.1353 46.3761C32.1786 46.4197 32.2299 46.454 32.2866 46.4776C32.3432 46.5013 32.4039 46.5139 32.4653 46.5139H38.5319C38.6561 46.5139 38.7748 46.4641 38.8626 46.3761C38.9504 46.288 39 46.1683 39 46.0438L39.0001 27.2697C39.0025 27.1457 38.9561 27.0256 38.8706 26.936C38.7851 26.8463 38.6672 26.794 38.5436 26.7909ZM33.2152 50.1994C33.895 49.7439 34.6939 49.5 35.5115 49.5C36.6079 49.5 37.6592 49.9371 38.4344 50.7145C39.2097 51.4919 39.6455 52.546 39.6455 53.6454C39.6455 54.4653 39.4031 55.2664 38.9488 55.9481C38.4946 56.6298 37.8492 57.1622 37.0938 57.476C36.3384 57.7897 35.5068 57.871 34.7048 57.711C33.9029 57.5511 33.1668 57.1561 32.5886 56.5764C32.0105 55.9966 31.6166 55.2577 31.4571 54.4536C31.2976 53.6495 31.3794 52.817 31.6922 52.0595C32.0051 51.302 32.5354 50.6549 33.2152 50.1994Z" fill="#4caf50"/>
</svg>