<svg width="70" height="70" viewBox="0 0 70 70" fill="none" xmlns="http://www.w3.org/2000/svg">
<path d="M15.6863 33.0741H11.9255C12.8447 22.3785 21.3482 13.8557 32.0196 12.9344V16.7037H35.8627V12.9344C46.5341 13.8557 55.0376 22.3785 55.9568 33.0741H52.1961V36.9259H55.9568C55.7528 39.2996 55.1753 41.5663 54.2833 43.6667H58.4063C59.3622 40.9559 59.8824 38.0388 59.8824 35C59.8824 20.6406 48.2681 9 33.9412 9C19.6143 9 8 20.6406 8 35C8 49.3594 19.6143 61 33.9412 61C37.7051 61 41.2818 60.1966 44.5098 58.7515V54.4557C41.9012 55.8821 38.9741 56.797 35.8627 57.0656V53.2963H32.0196V57.0656C21.3482 56.1443 12.8447 47.6215 11.9255 36.9259H15.6863V33.0741Z" fill="#333333"/>
<path d="M47.1765 49.6536V46.1429H50.6797L47.1765 49.6536ZM47.1765 56.1671V52.805L53.8237 46.1429H57.1786L47.1765 56.1671ZM47.1765 61V59.3237L60.3225 46.1429H62V47.8191L48.8539 61H47.1765ZM51.9979 61L62 50.9758V54.3368L55.3528 61H51.9979ZM58.4968 61L62 57.4882V61H58.4968Z" fill="#333333"/>
<path d="M50.2744 34.9999C50.2744 44.041 42.9617 51.3703 33.941 51.3703C28.0959 51.3703 22.9679 48.293 20.0818 43.6666L34.9018 34.9999L40.6665 20.0774C46.3323 22.6465 50.2744 28.3618 50.2744 34.9999Z" fill="#333333"/>
</svg>
