<svg width="70" height="70" viewBox="0 0 70 70" fill="none" xmlns="http://www.w3.org/2000/svg">
<path fill-rule="evenodd" clip-rule="evenodd" d="M63.9434 29.0111V46.9079C64.7307 47.6063 65.301 48.5161 65.5864 49.5291C65.8717 50.5422 65.8602 51.6158 65.5532 52.6225C65.2462 53.6291 64.6567 54.5265 63.8546 55.2078C63.0525 55.8892 62.0716 56.3259 61.0285 56.4661C59.9855 56.6063 58.9241 56.444 57.9705 55.9986C57.017 55.5532 56.2114 54.8434 55.6495 53.9535C55.0876 53.0637 54.7931 52.0312 54.8008 50.9788C54.8086 49.9264 55.1183 48.8983 55.6933 48.0168L55.0629 47.3702H47.0875C46.9746 49.3987 46.2319 51.3414 44.9629 52.9279C43.6939 54.5144 41.9617 55.6657 40.0075 56.2214C38.0534 56.7771 35.9747 56.7095 34.0607 56.0281C32.1468 55.3468 30.493 54.0854 29.3297 52.4199H24.5128L18.629 56.5515H2.43589L1.94446 54.712L24.4739 43.701H27.3188V40.9466H17.5169L12.6678 13.4062H33.7263V29.024H34.1982C35.5103 25.1492 37.9626 21.7613 41.2335 19.3043C44.5045 16.8474 48.4415 15.4361 52.5284 15.2554H68.0556L64.8842 20.7512H54.1448C51.5425 20.8423 49.0186 21.6657 46.8633 23.1268C44.7079 24.5879 43.0085 26.6275 41.9602 29.0111H63.9434ZM39.5472 36.5577C39.1919 36.7971 38.7744 36.9252 38.3471 36.9252C37.7741 36.9252 37.2247 36.6955 36.8196 36.2871C36.4144 35.8786 36.1866 35.3247 36.1866 34.7471C36.1866 34.3163 36.3133 33.8954 36.5507 33.5372C36.7881 33.179 37.1254 32.8992 37.5202 32.7344C37.915 32.5695 38.3496 32.5268 38.7687 32.6109C39.1878 32.6949 39.5725 32.9025 39.8747 33.2071C40.1768 33.5117 40.3827 33.8999 40.466 34.3224C40.5494 34.7449 40.5067 35.1824 40.3432 35.5804C40.1796 35.9783 39.9025 36.3184 39.5472 36.5577ZM40.9829 48.8572H35.7174C35.6528 48.8555 35.5912 48.828 35.5465 48.7809C35.5018 48.7338 35.4776 48.6707 35.4788 48.6056V46.3932C35.4788 46.3277 35.5047 46.2648 35.5506 46.2186C35.5965 46.1723 35.6585 46.1461 35.7234 46.1461H36.3507V41.1983H35.7234C35.6914 41.1985 35.6597 41.1922 35.63 41.18C35.6004 41.1678 35.5734 41.1502 35.5506 41.1274C35.5279 41.1046 35.5096 41.0772 35.4973 41.0474C35.485 41.0175 35.4788 40.9859 35.4788 40.9536V38.7412C35.4788 38.6757 35.5047 38.6129 35.5506 38.5666C35.5965 38.5203 35.6585 38.4942 35.7234 38.4942H40.1125C40.1446 38.4942 40.1763 38.5008 40.2059 38.5132C40.2355 38.5256 40.2623 38.5437 40.2849 38.5666C40.3075 38.5895 40.3257 38.6167 40.3379 38.6466C40.35 38.6766 40.3558 38.7089 40.3556 38.7412V46.1515H40.9829C41.0478 46.1515 41.1102 46.1769 41.1561 46.2232C41.202 46.2694 41.2275 46.3323 41.2275 46.3977V48.6102C41.2275 48.6756 41.202 48.7385 41.1561 48.7847C41.1102 48.831 41.0478 48.8572 40.9829 48.8572Z" fill="#333333"/>
</svg>
