<svg width="71" height="70" viewBox="0 0 71 70" fill="none" xmlns="http://www.w3.org/2000/svg">
<path fill-rule="evenodd" clip-rule="evenodd" d="M21.0965 12.3279V43.2003C19.1378 43.0827 17.1789 43.4289 15.3642 44.2132C10.2302 46.3972 7.26166 51.1657 8.72991 54.854C10.2174 58.5523 15.5721 59.7638 20.703 57.5764C24.6471 55.8938 26.9663 52.6969 27.3149 49.6278L27.2926 19.728L49.8825 15.1547V36.6179C47.7632 36.4139 45.6287 36.757 43.664 37.6174C38.5299 39.8048 35.5647 44.5733 37.0361 48.2615C38.5171 51.9565 43.8719 53.1714 49.006 50.984C52.9501 49.298 55.6915 46.1011 56.0466 43.0354L56.0818 4.97156L21.0965 12.3279Z" fill="#333333"/>
</svg>
