<svg width="70" height="70" viewBox="0 0 70 70" fill="none" xmlns="http://www.w3.org/2000/svg">
<path d="M55.1306 34.0452C55.1306 34.2043 55.1306 34.3635 55.1306 34.5226C55.1483 34.6817 55.1572 34.8409 55.1572 35C55.1572 35.1591 55.1483 35.3183 55.1306 35.4774C55.1306 35.6365 55.1306 35.7957 55.1306 35.9548L62 40.2249L57.7829 50.3831L49.9057 48.5796C49.4813 49.0393 49.0393 49.4813 48.5796 49.9057L50.3831 57.7829L40.2249 62L35.9548 55.1306C35.7957 55.1306 35.6365 55.1395 35.4774 55.1572C35.3183 55.1572 35.1591 55.1572 35 55.1572C34.8409 55.1572 34.6817 55.1572 34.5226 55.1572C34.3635 55.1395 34.2043 55.1306 34.0452 55.1306L29.775 62L19.6169 57.7829L21.4204 49.9057C20.9607 49.4813 20.5187 49.0393 20.0943 48.5796L12.2171 50.3831L8 40.2249L14.8694 35.9548C14.8694 35.7957 14.8605 35.6365 14.8428 35.4774C14.8428 35.3183 14.8428 35.1591 14.8428 35C14.8428 34.8409 14.8428 34.6817 14.8428 34.5226C14.8605 34.3635 14.8694 34.2043 14.8694 34.0452L8 29.775L12.2171 19.6169L20.0943 21.4204C20.5187 20.9607 20.9607 20.5187 21.4204 20.0943L19.6169 12.2171L29.775 8L34.0452 14.8694C34.2043 14.8694 34.3635 14.8694 34.5226 14.8694C34.6817 14.8517 34.8409 14.8428 35 14.8428C35.1591 14.8428 35.3183 14.8517 35.4774 14.8694C35.6365 14.8694 35.7957 14.8694 35.9548 14.8694L40.2249 8L50.3831 12.2171L48.5796 20.0943C49.0393 20.5187 49.4813 20.9607 49.9057 21.4204L57.7829 19.6169L62 29.775L55.1306 34.0452ZM35 42.002C35.9725 42.002 36.8831 41.8251 37.7318 41.4715C38.5805 41.1002 39.3232 40.5963 39.9597 39.9597C40.5963 39.3232 41.0914 38.5805 41.445 37.7318C41.8163 36.8831 42.002 35.9725 42.002 35C42.002 34.0275 41.8163 33.1169 41.445 32.2682C41.0914 31.4194 40.5963 30.6768 39.9597 30.0403C39.3232 29.4037 38.5805 28.9086 37.7318 28.555C36.8831 28.1837 35.9725 27.998 35 27.998C34.0275 27.998 33.1169 28.1837 32.2682 28.555C31.4194 28.9086 30.6768 29.4037 30.0403 30.0403C29.4037 30.6768 28.8998 31.4194 28.5285 32.2682C28.1749 33.1169 27.998 34.0275 27.998 35C27.998 35.9725 28.1749 36.8831 28.5285 37.7318C28.8998 38.5805 29.4037 39.3232 30.0403 39.9597C30.6768 40.5963 31.4194 41.1002 32.2682 41.4715C33.1169 41.8251 34.0275 42.002 35 42.002Z" fill="#333333"/>
</svg>
