<svg width="70" height="70" viewBox="0 0 70 70" fill="none" xmlns="http://www.w3.org/2000/svg">
<path d="M15.632 5.18101L15.4522 1.94446L13.9593 2.09276L14.139 5.32931L11.2871 3.98264L10.6129 5.37084L13.4649 6.71751L10.795 8.60851L11.6138 9.8484L14.2836 7.95741L14.4657 11.1951L15.9587 11.0468L15.779 7.81022L18.6285 9.15578L19.3027 7.76758L16.4531 6.42202L19.1229 4.53103L18.3042 3.29113L15.632 5.18101Z" fill="#333333"/>
<path d="M32.3741 12.7884L21.265 8.40669L20.5327 10.2121L31.6417 14.5938L32.3741 12.7884Z" fill="#333333"/>
<path d="M25.3888 14.6067L16.5152 16.5511L16.943 18.4493L25.8165 16.5049L25.3888 14.6067Z" fill="#333333"/>
<path d="M7.66691 15.1273L9.93018 17.4781L10.7242 14.3314L12.1625 14.7529L11.371 17.8989L14.4258 17.1036L14.8243 18.5918L11.7695 19.3871L14.0328 21.7378L12.9929 22.8045L10.7271 20.4544L9.9356 23.6004L8.49726 23.1789L9.28877 20.0329L6.23147 20.8288L5.83301 19.3407L8.89031 18.5447L6.62704 16.194L7.66691 15.1273Z" fill="#333333"/>
<path fill-rule="evenodd" clip-rule="evenodd" d="M38.4049 21.9805L42.2242 18.2109L38.9434 14.9793H41.7595L47.9268 21.0571L49.4967 26.8469C51.63 28.7193 53.329 31.0232 54.4777 33.6016L59.6945 34.9901L60.8949 30.5748L62.3029 32.9838L60.043 41.2831L55.7449 45.5213C55.1654 48.2806 53.9914 50.8848 52.3023 53.1577L53.7103 58.2984L58.1879 57.1147L56.7799 59.5236L48.3562 61.7486L42.4847 60.197C40.4674 60.8526 38.357 61.1865 36.233 61.1863C35.5073 61.1869 34.7822 61.1475 34.061 61.0683L30.2382 64.824L33.526 68.0556H30.7099L24.5321 61.9777L22.9656 56.1879C20.8331 54.32 19.1322 52.0225 17.9776 49.4506L12.7573 48.0621L11.564 52.4704L10.1559 50.0615L12.4053 41.7587L16.7034 37.5239C17.2836 34.7643 18.4589 32.16 20.1496 29.8876L18.7415 24.7504L14.278 25.934L15.686 23.5286L24.1097 21.3036L29.9812 22.8517C31.9977 22.1978 34.1067 21.8639 36.2294 21.8624C36.9562 21.8618 37.6825 21.9012 38.4049 21.9805ZM35.554 47.4877C38.8369 47.4877 41.4982 44.8566 41.4982 41.6111C41.4982 38.3656 38.8369 35.7346 35.554 35.7346C32.2711 35.7346 29.6098 38.3656 29.6098 41.6111C29.6098 44.8566 32.2711 47.4877 35.554 47.4877Z" fill="#333333"/>
<path d="M52.3704 6.21583H36.8177V12.7884H52.3704V6.21583Z" fill="#333333"/>
</svg>
