<svg width="32" height="32" viewBox="0 0 32 32" fill="none" xmlns="http://www.w3.org/2000/svg">
<path d="M16.3276 30C22.4493 30 26.8276 26.6331 26.8143 21.9753C26.8276 18.5818 24.6717 16.1597 20.666 15.654V15.4411C23.7135 14.8954 25.8162 12.7395 25.8029 9.67871C25.8162 5.38023 22.05 2 16.4075 2C10.8181 2 6.61278 5.27376 6.53293 9.98479H12.0557C12.1223 7.90874 14.0253 6.56464 16.3808 6.56464C18.7097 6.56464 20.2668 7.97529 20.2535 10.0247C20.2668 12.1673 18.4436 13.6179 15.8219 13.6179H13.2801V17.8498H15.8219C18.9094 17.8498 20.839 19.3935 20.8257 21.5894C20.839 23.7586 18.9759 25.2491 16.3409 25.2491C13.7991 25.2491 11.896 23.9183 11.7896 21.9221H5.9873C6.08046 26.6863 10.339 30 16.3276 30Z" fill="#333333"/>
</svg>
