<svg width="32" height="32" viewBox="0 0 32 32" fill="none" xmlns="http://www.w3.org/2000/svg">
<path d="M12.8679 21.4748H17.9164V21.0219C17.943 18.4244 18.8755 17.2122 20.9802 15.9467C23.4711 14.4681 25.0962 12.51 25.0962 9.37964C25.0962 4.71741 21.3398 2 16.0515 2C11.2161 2 7.27321 4.53092 7.15332 9.85918H12.5881C12.6681 7.68792 14.2799 6.52902 16.0249 6.52902C17.8232 6.52902 19.2751 7.72788 19.2751 9.57945C19.2751 11.3245 18.0096 12.4833 16.3712 13.5224C14.1333 14.9343 12.8812 16.3597 12.8679 21.0219V21.4748ZM15.492 30C17.1971 30 18.6757 28.5747 18.689 26.803C18.6757 25.058 17.1971 23.6327 15.492 23.6327C13.7337 23.6327 12.2818 25.058 12.2951 26.803C12.2818 28.5747 13.7337 30 15.492 30Z" fill="#333333"/>
</svg>
