<svg width="32" height="32" viewBox="0 0 32 32" fill="none" xmlns="http://www.w3.org/2000/svg">
<path d="M16 9C16.9688 9 17.875 9.18229 18.7188 9.54688C19.5729 9.91146 20.3177 10.4115 20.9531 11.0469C21.5885 11.6823 22.0885 12.4271 22.4531 13.2812C22.8177 14.125 23 15.0312 23 16C23 16.9688 22.8177 17.8802 22.4531 18.7344C22.0885 19.5781 21.5885 20.3177 20.9531 20.9531C20.3177 21.5885 19.5729 22.0885 18.7188 22.4531C17.875 22.8177 16.9688 23 16 23C15.0312 23 14.1198 22.8177 13.2656 22.4531C12.4219 22.0885 11.6823 21.5885 11.0469 20.9531C10.4115 20.3177 9.91146 19.5781 9.54688 18.7344C9.18229 17.8802 9 16.9688 9 16C9 15.0312 9.18229 14.125 9.54688 13.2812C9.91146 12.4271 10.4115 11.6823 11.0469 11.0469C11.6823 10.4115 12.4219 9.91146 13.2656 9.54688C14.1198 9.18229 15.0312 9 16 9ZM16 21C16.6875 21 17.3333 20.8698 17.9375 20.6094C18.5417 20.349 19.0677 19.9948 19.5156 19.5469C19.974 19.0885 20.3333 18.5573 20.5938 17.9531C20.8646 17.3385 21 16.6875 21 16C21 15.3125 20.8646 14.6667 20.5938 14.0625C20.3333 13.4583 19.974 12.9323 19.5156 12.4844C19.0677 12.026 18.5417 11.6667 17.9375 11.4062C17.3333 11.1354 16.6875 11 16 11C15.3125 11 14.6615 11.1354 14.0469 11.4062C13.4427 11.6667 12.9115 12.026 12.4531 12.4844C12.0052 12.9323 11.651 13.4583 11.3906 14.0625C11.1302 14.6667 11 15.3125 11 16C11 16.6875 11.1302 17.3385 11.3906 17.9531C11.651 18.5573 12.0052 19.0885 12.4531 19.5469C12.9115 19.9948 13.4427 20.349 14.0469 20.6094C14.6615 20.8698 15.3125 21 16 21ZM17 7H15V4H17V7ZM8.92188 10.3438L6.8125 8.21875L8.21875 6.8125L10.3438 8.92188L8.92188 10.3438ZM7 17H4V15H7V17ZM8.92188 21.6562L10.3438 23.0781L8.21875 25.1875L6.8125 23.7812L8.92188 21.6562ZM15 25H17V28H15V25ZM23.0781 21.6562L25.1875 23.7812L23.7812 25.1875L21.6562 23.0781L23.0781 21.6562ZM28 15V17H25V15H28ZM23.0781 10.3438L21.6562 8.92188L23.7812 6.8125L25.1875 8.21875L23.0781 10.3438Z" fill="#333333"/>
</svg>
