<svg width="32" height="32" viewBox="0 0 32 32" fill="none" xmlns="http://www.w3.org/2000/svg">
<path fill-rule="evenodd" clip-rule="evenodd" d="M30 23L23 19.5538V22.8923H2V9.10769H23V12.4462L30 9V23ZM14.1042 15.8542L16.4375 13.5209L18.7708 15.8542H17.0208C17.0208 18.4326 14.9325 20.5209 12.3542 20.5209C11.4383 20.5209 10.5867 20.2526 9.86917 19.7976L10.7208 18.9459C11.205 19.2084 11.765 19.3542 12.3542 19.3542C14.285 19.3542 15.8542 17.7851 15.8542 15.8542H14.1042ZM12.3542 12.3542C10.4233 12.3542 8.85417 13.9234 8.85417 15.8542H10.6042L8.27083 18.1876L5.9375 15.8542H7.6875C7.6875 13.2759 9.77583 11.1876 12.3542 11.1876C13.27 11.1876 14.1217 11.4559 14.8392 11.9109L13.9875 12.7626C13.5033 12.5001 12.9433 12.3542 12.3542 12.3542Z" fill="#333333"/>
</svg>
