<svg width="32" height="32" viewBox="0 0 32 32" fill="none" xmlns="http://www.w3.org/2000/svg">
<path d="M25 10.3333L19.6667 15.6667H23.6667C23.6667 20.08 20.08 23.6667 15.6667 23.6667C14.32 23.6667 13.04 23.3333 11.9333 22.7333L9.98667 24.68C11.6267 25.72 13.5733 26.3333 15.6667 26.3333C21.56 26.3333 26.3333 21.56 26.3333 15.6667H30.3333L25 10.3333ZM7.66667 15.6667C7.66667 11.2533 11.2533 7.66667 15.6667 7.66667C17.0133 7.66667 18.2933 8 19.4 8.6L21.3467 6.65333C19.7067 5.61333 17.76 5 15.6667 5C9.77333 5 5 9.77333 5 15.6667H1L6.33333 21L11.6667 15.6667H7.66667Z" fill="#333333"/>
</svg>
