<svg width="32" height="32" viewBox="0 0 32 32" fill="none" xmlns="http://www.w3.org/2000/svg">
<path d="M14.625 6.92234C19.6153 6.92234 23.6752 10.9823 23.6752 15.9726C23.6752 16.1185 23.6717 16.2663 23.6648 16.4119L24.4857 16.4512C24.4933 16.2926 24.4971 16.1316 24.4971 15.9726C24.4971 10.5291 20.0685 6.10048 14.625 6.10048C14.4414 6.10048 14.2555 6.10563 14.0724 6.11571L14.1177 6.93637C14.2858 6.92705 14.4564 6.92234 14.625 6.92234Z" fill="#333333"/>
<path d="M25.3091 15.5616H28.5967V16.3835H25.3091V15.5616Z" fill="#333333"/>
<path d="M21.8868 8.12837L24.2112 5.80398L24.7923 6.38512L22.468 8.7095L21.8868 8.12837Z" fill="#333333"/>
<path d="M21.8853 23.7315L22.4664 23.1504L24.7908 25.4748L24.2097 26.0559L21.8853 23.7315Z" fill="#333333"/>
<path d="M14.2134 2H15.0353V5.28767H14.2134V2Z" fill="#333333"/>
<path d="M14.2134 26.7123H15.0353V30H14.2134V26.7123Z" fill="#333333"/>
<path fill-rule="evenodd" clip-rule="evenodd" d="M24.2507 17.1799C22.7269 18.5392 21.1999 19.6913 19.0924 19.9358C16.8075 20.2008 14.4872 19.3903 12.8614 17.7644C11.2377 16.1408 10.421 13.8164 10.6901 11.5334C10.9388 9.4235 12.0848 7.9008 13.4459 6.375C11.8531 6.79443 10.3332 7.23948 8.97643 8.22316C7.2047 9.50765 5.92789 11.2611 5.35873 13.375C5.12918 14.1656 5.00073 15.0485 5.00073 16.0109C5.00073 21.2455 9.38241 25.6254 14.6149 25.625C17.1832 25.6248 19.6877 24.5705 21.4855 22.7374C23.0299 21.1626 23.7034 19.2586 24.2507 17.1799ZM11.1537 7.90309C8.69399 8.95412 6.88221 10.752 6.17596 13.375C5.97884 14.1669 5.80117 15.0503 5.80117 16.0109C5.80117 20.0288 8.64015 23.6355 12.5465 24.5787C16.6754 25.5755 21.0576 23.3806 22.7237 19.4715C19.4418 21.5683 15.0428 21.0713 12.2963 18.3296C9.55035 15.5885 9.06048 11.1808 11.1537 7.90309Z" fill="#333333"/>
<path d="M6.17596 13.375C6.88221 10.752 8.69399 8.95412 11.1537 7.90309C9.06048 11.1808 9.55035 15.5885 12.2963 18.3296C15.0428 21.0713 19.4418 21.5683 22.7237 19.4715C21.0576 23.3806 16.6754 25.5755 12.5465 24.5787C8.64015 23.6355 5.80117 20.0288 5.80117 16.0109C5.80117 15.0503 5.97884 14.1669 6.17596 13.375Z" fill="#333333"/>
</svg>
