<svg width="32" height="32" viewBox="0 0 32 32" fill="none" xmlns="http://www.w3.org/2000/svg">
<path fill-rule="evenodd" clip-rule="evenodd" d="M13.9091 19.8182C13.9089 21.2135 14.2911 22.5822 15.014 23.7756C15.7369 24.969 16.773 25.9415 18.0097 26.5876C19.2465 27.2336 20.6365 27.5285 22.029 27.4401C23.4215 27.3517 24.7632 26.8835 25.9084 26.0864L27.3644 28.1736C25.8376 29.2368 24.0488 29.8614 22.1921 29.9795C20.3354 30.0976 18.4819 29.7047 16.8327 28.8435C15.1836 27.9823 13.802 26.6858 12.8378 25.0946C11.8737 23.5035 11.364 21.6786 11.364 19.8182C11.364 17.9577 11.8737 16.1329 12.8378 14.5417C13.802 12.9506 15.1836 11.654 16.8327 10.7929C18.4819 9.93168 20.3354 9.5388 22.1921 9.6569C24.0488 9.77499 25.8376 10.3995 27.3644 11.4627L25.9084 13.55C24.7632 12.7528 23.4215 12.2846 22.029 12.1963C20.6365 12.1079 19.2465 12.4028 18.0097 13.0488C16.773 13.6948 15.7369 14.6674 15.014 15.8608C14.2911 17.0542 13.9089 18.4229 13.9091 19.8182ZM13.9091 6.45455C13.9091 7.33557 13.6478 8.19681 13.1584 8.92936C12.6689 9.6619 11.9732 10.2329 11.1592 10.57C10.3453 10.9072 9.44961 10.9954 8.58551 10.8235C7.72141 10.6516 6.92769 10.2274 6.30471 9.60438C5.68173 8.9814 5.25747 8.18768 5.08559 7.32358C4.91372 6.45949 5.00193 5.56383 5.33908 4.74986C5.67624 3.9359 6.24719 3.2402 6.97973 2.75073C7.71228 2.26125 8.57352 2 9.45455 2C10.636 2 11.769 2.46932 12.6044 3.30471C13.4398 4.1401 13.9091 5.27313 13.9091 6.45455ZM11.3636 6.45455C11.3636 6.07696 11.2517 5.70786 11.0419 5.39391C10.8321 5.07996 10.534 4.83527 10.1851 4.69078C9.83628 4.54628 9.45243 4.50847 9.0821 4.58214C8.71177 4.6558 8.37161 4.83762 8.10462 5.10461C7.83763 5.37161 7.6558 5.71177 7.58214 6.0821C7.50848 6.45243 7.54628 6.83628 7.69078 7.18512C7.83527 7.53396 8.07996 7.83212 8.39391 8.0419C8.70786 8.25167 9.07696 8.36364 9.45455 8.36364C9.96087 8.36364 10.4465 8.1625 10.8045 7.80448C11.1625 7.44645 11.3636 6.96087 11.3636 6.45455Z" fill="#333333"/>
</svg>
