<svg width="32" height="32" viewBox="0 0 32 32" fill="none" xmlns="http://www.w3.org/2000/svg">
<path d="M16 32C24.8366 32 32 24.8366 32 16C32 7.16344 24.8366 0 16 0C7.16344 0 0 7.16344 0 16C0 24.8366 7.16344 32 16 32Z" fill="#EA0E0E" fill-opacity="0.4"/>
<path d="M16 8C14.4178 8 12.871 8.46919 11.5554 9.34824C10.2398 10.2273 9.21447 11.4767 8.60897 12.9385C8.00347 14.4003 7.84504 16.0089 8.15372 17.5607C8.4624 19.1126 9.22433 20.538 10.3431 21.6569C11.462 22.7757 12.8874 23.5376 14.4393 23.8463C15.9911 24.155 17.5997 23.9965 19.0615 23.391C20.5233 22.7855 21.7727 21.7602 22.6518 20.4446C23.5308 19.129 24 17.5823 24 16C23.9937 13.8802 23.1488 11.8491 21.6499 10.3501C20.1509 8.85122 18.1198 8.00633 16 8ZM19.5 18.1L18.1 19.5L16 17.4L13.9 19.5L12.5 18.1L14.6 16L12.5 13.9L13.9 12.5L16 14.6L18.1 12.5L19.5 13.9L17.4 16L19.5 18.1Z" fill="#F60606"/>
</svg>
