<svg width="32" height="32" viewBox="0 0 32 32" fill="none" xmlns="http://www.w3.org/2000/svg">
<path d="M20.375 2C21.2591 2 22.1113 2.11393 22.9316 2.3418C23.752 2.56966 24.5176 2.89323 25.2285 3.3125C25.9395 3.73177 26.5866 4.23763 27.1699 4.83008C27.7624 5.41341 28.2682 6.06055 28.6875 6.77148C29.1068 7.48242 29.4303 8.24805 29.6582 9.06836C29.8861 9.88867 30 10.7409 30 11.625C30 12.5091 29.8861 13.3613 29.6582 14.1816C29.4303 15.002 29.1068 15.7676 28.6875 16.4785C28.2682 17.1895 27.7624 17.8411 27.1699 18.4336C26.5866 19.0169 25.9395 19.5182 25.2285 19.9375C24.5176 20.3568 23.752 20.6803 22.9316 20.9082C22.1113 21.1361 21.2591 21.25 20.375 21.25C19.2357 21.25 18.1419 21.0586 17.0938 20.6758C16.0547 20.293 15.0977 19.7415 14.2227 19.0215L3.49023 29.7402C3.31706 29.9134 3.11198 30 2.875 30C2.63802 30 2.43294 29.9134 2.25977 29.7402C2.08659 29.5671 2 29.362 2 29.125C2 28.888 2.08659 28.6829 2.25977 28.5098L12.9785 17.7773C12.2585 16.9023 11.707 15.9453 11.3242 14.9062C10.9414 13.8581 10.75 12.7643 10.75 11.625C10.75 10.7409 10.8639 9.88867 11.0918 9.06836C11.3197 8.24805 11.6432 7.48242 12.0625 6.77148C12.4818 6.06055 12.9831 5.41341 13.5664 4.83008C14.1589 4.23763 14.8105 3.73177 15.5215 3.3125C16.2324 2.89323 16.998 2.56966 17.8184 2.3418C18.6387 2.11393 19.4909 2 20.375 2ZM20.375 19.5C21.4596 19.5 22.4805 19.2949 23.4375 18.8848C24.3945 18.4655 25.2285 17.9004 25.9395 17.1895C26.6504 16.4785 27.2109 15.6445 27.6211 14.6875C28.0404 13.7305 28.25 12.7096 28.25 11.625C28.25 10.5404 28.0404 9.51953 27.6211 8.5625C27.2109 7.60547 26.6504 6.77148 25.9395 6.06055C25.2285 5.34961 24.3945 4.78906 23.4375 4.37891C22.4805 3.95964 21.4596 3.75 20.375 3.75C19.2904 3.75 18.2695 3.95964 17.3125 4.37891C16.3555 4.78906 15.5215 5.34961 14.8105 6.06055C14.0996 6.77148 13.5345 7.60547 13.1152 8.5625C12.7051 9.51953 12.5 10.5404 12.5 11.625C12.5 12.7096 12.7051 13.7305 13.1152 14.6875C13.5345 15.6445 14.0996 16.4785 14.8105 17.1895C15.5215 17.9004 16.3555 18.4655 17.3125 18.8848C18.2695 19.2949 19.2904 19.5 20.375 19.5Z" fill="#333333"/>
</svg>
