<svg width="32" height="32" viewBox="0 0 32 32" fill="none" xmlns="http://www.w3.org/2000/svg">
<path d="M26.2782 17.612C25.1612 15.9839 24.5914 14.7623 24.4395 12.7295C24.3258 11.2104 24.9621 9.45624 24.9621 9.45624C24.1734 9.98339 24.1647 9.92692 23.644 10.3587C20.9342 12.6063 20.2262 14.8558 20.1433 15.1466C20.1376 15.1672 20.1344 15.1791 20.1344 15.1791L20.1433 15.1466C20.1433 15.1466 22.2613 6.83132 16.3654 2.95919C15.8761 2.63794 14.7475 2 14.7475 2C14.7475 2 17.6748 9.202 12.4337 13.4745C11.4021 9.24922 5.95603 9.19724 5.95603 9.19724C5.95603 9.19724 6.37454 10.6694 6.44178 11.0176C7.32438 15.6095 4.6192 17.0627 4.06973 21.4035C4.13242 20.9053 4.10749 21.1036 4.06936 21.4062C4.06917 21.4072 4.06899 21.4084 4.06899 21.4095C4.06908 21.4089 4.06908 21.4085 4.06917 21.408C4.06899 21.4093 4.0689 21.4105 4.0688 21.4116C3.63996 24.8193 5.25804 27.4586 7.74457 29.2394C7.86064 28.0366 8.35198 26.8435 9.03481 25.8479C9.80757 24.7216 10.2019 23.8765 10.3065 22.4704C10.3847 21.4195 9.94503 20.2058 9.94503 20.2058C10.4898 20.5708 10.4967 20.5318 10.8567 20.8303C12.3797 22.0935 12.9886 23.3576 13.1942 23.8952C13.2011 23.891 13.2081 23.8869 13.2156 23.8828C12.9558 22.7062 12.2236 18.1209 15.8919 15.7116C16.2302 15.4898 17.0111 15.0484 17.0111 15.0484C17.0111 15.0484 14.9337 19.6068 19.5071 23.3095C19.405 21.7941 19.981 20.3949 21.059 19.3168C21.6447 18.7316 22.7001 18.4504 22.7001 18.4504C22.7001 18.4504 22.4102 19.4694 22.3639 19.7101C21.7532 22.8874 24.4112 25.3581 23.8434 28.3677C23.7369 28.9318 23.5843 29.4793 23.3716 30H23.6255C24.9737 29.2775 26.2249 28.3379 27.0817 27.0487C29.0314 24.1154 28.1552 20.3478 26.2782 17.612Z" fill="#333333"/>
</svg>
