<svg width="32" height="32" viewBox="0 0 32 32" fill="none" xmlns="http://www.w3.org/2000/svg">
<path d="M28 7.25H26.2308V27.375C26.2308 27.7396 26.1617 28.0814 26.0234 28.4004C25.8852 28.7194 25.6963 28.9974 25.4567 29.2344C25.2171 29.4714 24.9361 29.6582 24.6136 29.7949C24.2911 29.9316 23.9455 30 23.5769 30H9.42308C9.05449 30 8.70893 29.9316 8.38642 29.7949C8.0639 29.6582 7.78285 29.4714 7.54327 29.2344C7.30369 28.9974 7.11478 28.7194 6.97656 28.4004C6.83834 28.0814 6.76923 27.7396 6.76923 27.375V7.25H5V5.5H12.0769V3.75C12.0769 3.50391 12.123 3.27604 12.2151 3.06641C12.3073 2.85677 12.4317 2.67448 12.5883 2.51953C12.7542 2.35547 12.9431 2.22786 13.155 2.13672C13.367 2.04557 13.5974 2 13.8462 2H19.1538C19.4026 2 19.633 2.04557 19.845 2.13672C20.0569 2.22786 20.2412 2.35547 20.3978 2.51953C20.5637 2.67448 20.6927 2.85677 20.7849 3.06641C20.877 3.27604 20.9231 3.50391 20.9231 3.75V5.5H28V7.25ZM13.8462 5.5H19.1538V3.75H13.8462V5.5ZM24.4615 7.25H8.53846V27.375C8.53846 27.612 8.626 27.8171 8.80108 27.9902C8.97616 28.1634 9.18349 28.25 9.42308 28.25H23.5769C23.8165 28.25 24.0238 28.1634 24.1989 27.9902C24.374 27.8171 24.4615 27.612 24.4615 27.375V7.25ZM13.8462 24.75H12.0769V10.75H13.8462V24.75ZM17.3846 24.75H15.6154V10.75H17.3846V24.75ZM20.9231 24.75H19.1538V10.75H20.9231V24.75Z" fill="#333333"/>
</svg>
