<svg width="32" height="32" viewBox="0 0 32 32" fill="none" xmlns="http://www.w3.org/2000/svg">
<path d="M22.5626 4C23.5926 4 24.5587 4.19596 25.4611 4.58789C26.3634 4.97982 27.1518 5.51302 27.8263 6.1875C28.5008 6.85287 29.0294 7.64128 29.4122 8.55274C29.8042 9.45508 30.0001 10.4167 30.0001 11.4375C30.0001 12.431 29.8087 13.3835 29.4259 14.2949C29.0522 15.2064 28.519 16.0085 27.8263 16.7012L16.0001 28.5137L4.17395 16.7012C3.48124 16.0085 2.94348 15.2064 2.56067 14.2949C2.18697 13.3835 2.00012 12.431 2.00012 11.4375C2.00012 10.4167 2.19153 9.45508 2.57434 8.55274C2.96627 7.64128 3.49947 6.85287 4.17395 6.1875C4.84843 5.51302 5.63684 4.97982 6.53918 4.58789C7.44153 4.19596 8.40767 4 9.43762 4C10.1941 4 10.8686 4.08659 11.4611 4.25977C12.0535 4.43294 12.6004 4.67448 13.1017 4.98438C13.6121 5.28516 14.0952 5.64974 14.5509 6.07813C15.0157 6.50651 15.4988 6.97591 16.0001 7.48633C16.5014 6.97591 16.9799 6.50651 17.4357 6.07813C17.9005 5.64974 18.3836 5.28516 18.8849 4.98438C19.3953 4.67448 19.9467 4.43294 20.5392 4.25977C21.1316 4.08659 21.8061 4 22.5626 4ZM26.5822 15.457C27.1199 14.9193 27.5301 14.304 27.8126 13.6113C28.0952 12.9186 28.2365 12.194 28.2365 11.4375C28.2365 10.6445 28.0906 9.90625 27.799 9.22266C27.5073 8.52995 27.1017 7.93294 26.5822 7.43164C26.0717 6.92123 25.4702 6.52474 24.7775 6.24219C24.0939 5.95052 23.3556 5.80469 22.5626 5.80469C21.797 5.80469 21.118 5.92774 20.5255 6.17383C19.9331 6.41081 19.3862 6.72526 18.8849 7.11719C18.3836 7.50912 17.9005 7.95573 17.4357 8.45703C16.9799 8.94922 16.5014 9.45052 16.0001 9.96094C15.5079 9.46875 15.0294 8.97201 14.5646 8.4707C14.0997 7.9694 13.6121 7.51823 13.1017 7.11719C12.6004 6.71615 12.049 6.38802 11.4474 6.13281C10.8549 5.8776 10.185 5.75 9.43762 5.75C8.65377 5.75 7.91549 5.90039 7.22278 6.20117C6.53007 6.49284 5.92395 6.89844 5.40442 7.41797C4.894 7.92839 4.4884 8.52995 4.18762 9.22266C3.89596 9.91537 3.75012 10.6536 3.75012 11.4375C3.75012 12.194 3.8914 12.9186 4.17395 13.6113C4.46562 14.304 4.88033 14.9193 5.41809 15.457L16.0001 26.0391L26.5822 15.457Z" fill="#333333"/>
</svg>
