<svg width="32" height="32" viewBox="0 0 32 32" fill="none" xmlns="http://www.w3.org/2000/svg">
<path d="M16 3C17.2931 3 18.5326 3.16528 19.7188 3.49583C20.9146 3.82639 22.0326 4.29792 23.0729 4.91042C24.1132 5.51319 25.0563 6.24236 25.9021 7.09792C26.7576 7.94375 27.4868 8.88681 28.0896 9.92708C28.7021 10.9674 29.1736 12.0854 29.5042 13.2812C29.8347 14.4674 30 15.7069 30 17C30 18.2931 29.8347 19.5375 29.5042 20.7333C29.1736 21.9194 28.7021 23.0326 28.0896 24.0729C27.4868 25.1132 26.7576 26.0611 25.9021 26.9167C25.0563 27.7625 24.1132 28.4917 23.0729 29.1042C22.0326 29.7069 20.9146 30.1736 19.7188 30.5042C18.5326 30.8347 17.2931 31 16 31C14.7069 31 13.4625 30.8347 12.2667 30.5042C11.0806 30.1736 9.96736 29.7069 8.92708 29.1042C7.88681 28.4917 6.93889 27.7625 6.08333 26.9167C5.2375 26.0611 4.50833 25.1132 3.89583 24.0729C3.29306 23.0326 2.82639 21.9194 2.49583 20.7333C2.16528 19.5375 2 18.2931 2 17C2 15.7069 2.16528 14.4674 2.49583 13.2812C2.82639 12.0854 3.29306 10.9674 3.89583 9.92708C4.50833 8.88681 5.2375 7.94375 6.08333 7.09792C6.93889 6.24236 7.88681 5.51319 8.92708 4.91042C9.96736 4.29792 11.0806 3.82639 12.2667 3.49583C13.4625 3.16528 14.7069 3 16 3ZM16 29.1333C17.1083 29.1333 18.1778 28.9875 19.2083 28.6958C20.2486 28.4042 21.216 27.9958 22.1104 27.4708C23.0146 26.9458 23.8361 26.3139 24.575 25.575C25.3139 24.8361 25.9458 24.0194 26.4708 23.125C26.9958 22.2208 27.4042 21.2535 27.6958 20.2229C27.9875 19.1924 28.1333 18.1181 28.1333 17C28.1333 15.8917 27.9875 14.8222 27.6958 13.7917C27.4042 12.7514 26.9958 11.784 26.4708 10.8896C25.9458 9.98542 25.3139 9.16389 24.575 8.425C23.8361 7.68611 23.0146 7.05417 22.1104 6.52917C21.216 6.00417 20.2486 5.59583 19.2083 5.30417C18.1778 5.0125 17.1083 4.86667 16 4.86667C14.8819 4.86667 13.8076 5.0125 12.7771 5.30417C11.7465 5.59583 10.7792 6.00417 9.875 6.52917C8.98056 7.05417 8.16389 7.68611 7.425 8.425C6.68611 9.16389 6.05417 9.98542 5.52917 10.8896C5.00417 11.784 4.59583 12.7514 4.30417 13.7917C4.0125 14.8222 3.86667 15.8917 3.86667 17C3.86667 18.1083 4.0125 19.1826 4.30417 20.2229C4.59583 21.2535 5.00417 22.2208 5.52917 23.125C6.05417 24.0194 6.68611 24.8361 7.425 25.575C8.16389 26.3139 8.98056 26.9458 9.875 27.4708C10.7792 27.9958 11.7465 28.4042 12.7771 28.6958C13.8076 28.9875 14.8819 29.1333 16 29.1333ZM14.6333 23.6333H16.5V25.5H14.6333V23.6333Z" fill="#333333"/>
<path d="M15.628 8C12.5247 8 10 10.8967 10 14H12C12 12 13.5586 9.87494 15.6281 9.87494C17.6975 9.87494 19.3811 11.5586 19.3811 13.628C19.3811 15.6974 17.6974 17.3811 15.628 17.3811H14.6905V22.0654C14.6905 22.0654 15.1103 22.0654 15.628 22.0654C16.1458 22.0654 16.5655 22.0654 16.5655 22.0654V19.1779C19.2241 18.7302 21.256 16.4119 21.256 13.628C21.256 10.5248 18.7313 8 15.628 8Z" fill="#333333"/>
</svg>
