<svg width="32" height="32" viewBox="0 0 32 32" fill="none" xmlns="http://www.w3.org/2000/svg">
<path fill-rule="evenodd" clip-rule="evenodd" d="M1.99994 16C1.99994 8.272 8.25794 2 15.9859 2C23.7279 2 29.9999 8.272 29.9999 16C29.9999 23.728 23.7279 30 15.9859 30C8.25794 30 1.99994 23.728 1.99994 16ZM21.5579 10.3997H25.6879C24.3439 8.08969 22.2019 6.29769 19.6259 5.41569C20.4659 6.96969 21.1099 8.64969 21.5579 10.3997ZM15.9999 4.85547C17.1619 6.53547 18.0719 8.39747 18.6739 10.3995H13.3259C13.9279 8.39747 14.8379 6.53547 15.9999 4.85547ZM4.79995 16C4.79995 16.966 4.93995 17.904 5.16395 18.8H9.89595C9.78395 17.876 9.69994 16.952 9.69994 16C9.69994 15.048 9.78395 14.124 9.89595 13.2H5.16395C4.93995 14.096 4.79995 15.034 4.79995 16ZM6.31199 21.6H10.442C10.89 23.35 11.534 25.03 12.374 26.584C9.79799 25.702 7.65599 23.924 6.31199 21.6ZM6.31199 10.3997H10.442C10.89 8.64969 11.534 6.96969 12.374 5.41569C9.79799 6.29769 7.65599 8.07569 6.31199 10.3997ZM15.9999 27.144C14.8379 25.464 13.9279 23.602 13.3259 21.6H18.6739C18.0719 23.602 17.1619 25.464 15.9999 27.144ZM12.7239 18.8H19.2759C19.4019 17.876 19.4999 16.952 19.4999 16C19.4999 15.048 19.4019 14.11 19.2759 13.2H12.7239C12.5979 14.11 12.4999 15.048 12.4999 16C12.4999 16.952 12.5979 17.876 12.7239 18.8ZM19.6259 26.584C20.4659 25.03 21.1099 23.35 21.5579 21.6H25.6879C24.3439 23.91 22.2019 25.702 19.6259 26.584ZM22.3001 16C22.3001 16.952 22.2161 17.876 22.1041 18.8H26.8361C27.0601 17.904 27.2001 16.966 27.2001 16C27.2001 15.034 27.0601 14.096 26.8361 13.2H22.1041C22.2161 14.124 22.3001 15.048 22.3001 16Z" fill="#333333"/>
</svg>
