<svg width="32" height="32" viewBox="0 0 32 32" fill="none" xmlns="http://www.w3.org/2000/svg">
<path d="M17 8.3C18.932 8.3 20.5 9.868 20.5 11.8C20.5 12.836 20.038 13.746 19.338 14.39L24.42 19.472C25.792 16.868 26.8 14.152 26.8 11.8C26.8 6.382 22.418 2 17 2C14.228 2 11.736 3.162 9.94403 5.01L14.41 9.476C15.054 8.748 15.964 8.3 17 8.3ZM4.77803 3.4L3.00003 5.178L7.45203 9.63C7.29803 10.33 7.20003 11.058 7.20003 11.8C7.20003 19.15 17 30 17 30C17 30 19.338 27.41 21.732 23.91L26.422 28.6L28.2 26.822L4.77803 3.4Z" fill="#333333"/>
</svg>
