<svg width="32" height="32" viewBox="0 0 32 32" fill="none" xmlns="http://www.w3.org/2000/svg">
<path fill-rule="evenodd" clip-rule="evenodd" d="M16.5 31C15.1608 31 13.8719 30.8288 12.6333 30.4865C11.4049 30.1441 10.2519 29.6608 9.17448 29.0365C8.09705 28.4021 7.11528 27.6469 6.22917 26.7708C5.35312 25.8847 4.59792 24.903 3.96354 23.8255C3.33924 22.7481 2.8559 21.5951 2.51354 20.3667C2.17118 19.1281 2 17.8392 2 16.5C2 15.1608 2.17118 13.8769 2.51354 12.6484C2.8559 11.4099 3.33924 10.2519 3.96354 9.17448C4.59792 8.09705 5.35312 7.12031 6.22917 6.24427C7.11528 5.35816 8.09705 4.60295 9.17448 3.97865C10.2519 3.34427 11.4049 2.8559 12.6333 2.51354C13.8719 2.17118 15.1608 2 16.5 2C17.8392 2 19.1231 2.17118 20.3516 2.51354C21.5901 2.8559 22.7481 3.34427 23.8255 3.97865C24.903 4.60295 25.8797 5.35816 26.7557 6.24427C27.6418 7.12031 28.397 8.09705 29.0214 9.17448C29.6557 10.2519 30.1441 11.4099 30.4865 12.6484C30.8288 13.8769 31 15.1608 31 16.5C31 17.8392 30.8288 19.1281 30.4865 20.3667C30.1441 21.5951 29.6557 22.7481 29.0214 23.8255C28.397 24.903 27.6418 25.8847 26.7557 26.7708C25.8797 27.6469 24.903 28.4021 23.8255 29.0365C22.7481 29.6608 21.5901 30.1441 20.3516 30.4865C19.1231 30.8288 17.8392 31 16.5 31ZM17.4667 9.73333V11.6667H15.5333V9.73333H17.4667ZM17.4667 23.2667V13.6H15.5333V23.2667H17.4667Z" fill="#333333"/>
</svg>
