<svg width="32" height="32" viewBox="0 0 32 32" fill="none" xmlns="http://www.w3.org/2000/svg">
<path fill-rule="evenodd" clip-rule="evenodd" d="M15.5333 9.73333V11.6667H17.4667V9.73333H15.5333Z" fill="#333333"/>
<path fill-rule="evenodd" clip-rule="evenodd" d="M12.6333 30.4865C13.8719 30.8288 15.1608 31 16.5 31C17.8392 31 19.1231 30.8288 20.3516 30.4865C21.5901 30.1441 22.7481 29.6608 23.8255 29.0365C24.903 28.4021 25.8797 27.6469 26.7557 26.7708C27.6418 25.8847 28.397 24.903 29.0214 23.8255C29.6557 22.7481 30.1441 21.5951 30.4865 20.3667C30.8288 19.1281 31 17.8392 31 16.5C31 15.1608 30.8288 13.8769 30.4865 12.6484C30.1441 11.4099 29.6557 10.2519 29.0214 9.17448C28.397 8.09705 27.6418 7.12031 26.7557 6.24427C25.8797 5.35816 24.903 4.60295 23.8255 3.97865C22.7481 3.34427 21.5901 2.8559 20.3516 2.51354C19.1231 2.17118 17.8392 2 16.5 2C15.1608 2 13.8719 2.17118 12.6333 2.51354C11.4049 2.8559 10.2519 3.34427 9.17448 3.97865C8.09705 4.60295 7.11528 5.35816 6.22917 6.24427C5.35312 7.12031 4.59792 8.09705 3.96354 9.17448C3.33924 10.2519 2.8559 11.4099 2.51354 12.6484C2.17118 13.8769 2 15.1608 2 16.5C2 17.8392 2.17118 19.1281 2.51354 20.3667C2.8559 21.5951 3.33924 22.7481 3.96354 23.8255C4.59792 24.903 5.35312 25.8847 6.22917 26.7708C7.11528 27.6469 8.09705 28.4021 9.17448 29.0365C10.2519 29.6608 11.4049 30.1441 12.6333 30.4865ZM13.1667 28.5571C14.2344 28.8523 15.3455 28.9998 16.5 28.9998C17.6545 28.9998 18.7613 28.8523 19.8203 28.5571C20.8881 28.262 21.8863 27.8453 22.8151 27.3071C23.744 26.7603 24.586 26.1092 25.3412 25.354C26.1051 24.5901 26.7561 23.7438 27.2943 22.8149C27.8412 21.8861 28.2622 20.8922 28.5573 19.8332C28.8525 18.7655 29 17.6544 29 16.4998C29 15.3453 28.8525 14.2386 28.5573 13.1795C28.2622 12.1118 27.8412 11.1136 27.2943 10.1847C26.7561 9.25591 26.1051 8.4139 25.3412 7.65869C24.586 6.8948 23.744 6.24376 22.8151 5.70557C21.8863 5.15869 20.8881 4.73768 19.8203 4.44255C18.7613 4.14741 17.6545 3.99984 16.5 3.99984C15.3455 3.99984 14.2344 4.14741 13.1667 4.44255C12.1077 4.73768 11.1137 5.15869 10.1849 5.70557C9.25611 6.24376 8.40975 6.8948 7.64586 7.65869C6.89066 8.4139 6.23961 9.25591 5.69274 10.1847C5.15454 11.1136 4.73788 12.1118 4.44274 13.1795C4.1476 14.2386 4.00003 15.3453 4.00003 16.4998C4.00003 17.6544 4.1476 18.7655 4.44274 19.8332C4.73788 20.8922 5.15454 21.8861 5.69274 22.8149C6.23961 23.7438 6.89066 24.5901 7.64586 25.354C8.40975 26.1092 9.25611 26.7603 10.1849 27.3071C11.1137 27.8453 12.1077 28.262 13.1667 28.5571Z" fill="#333333"/>
<path d="M15.5333 13.6H17.4667V23.2667H15.5333V13.6Z" fill="#333333"/>
</svg>
