<svg width="32" height="32" viewBox="0 0 32 32" fill="none" xmlns="http://www.w3.org/2000/svg">
<path d="M8.7619 15.2571V11.6667H6V15.2571C6 20.4127 9.8622 24.704 14.8381 25.3827V28.2381H10.4191V31H22.0191V28.2381H17.6V25.3827C22.5759 24.704 26.4381 20.4126 26.4381 15.2571V11.6667H23.6762V15.2571C23.6762 19.3541 20.3194 22.7122 16.2229 22.7143L16.219 22.7143L16.2152 22.7143C12.1187 22.7122 8.7619 19.3541 8.7619 15.2571Z" fill="#333333"/>
<path fill-rule="evenodd" clip-rule="evenodd" d="M15.2739 17.5854C15.5738 17.7133 15.8963 17.7798 16.2224 17.781C17.5747 17.7791 18.7427 16.649 18.7427 15.1881V7.52385C18.7427 6.08323 17.6595 5.00004 16.2189 5.00004H16.2072C15.877 4.99875 15.5497 5.06283 15.2444 5.18862C14.939 5.31441 14.6615 5.49941 14.428 5.73294C14.1945 5.96647 14.0095 6.24391 13.8837 6.54928C13.7579 6.85465 13.6938 7.1819 13.6951 7.51216L13.6951 7.52385L13.6951 15.187C13.6958 15.8679 13.9651 16.5211 14.4446 17.0046L14.4591 17.0193L14.4734 17.0341C14.7006 17.2696 14.9728 17.4571 15.2739 17.5854ZM10.6951 15.1881V7.52385C10.6923 6.79766 10.8333 6.07809 11.1099 5.40664C11.3865 4.73518 11.7932 4.12511 12.3067 3.61162C12.8202 3.09812 13.4303 2.69135 14.1017 2.41475C14.7732 2.13816 15.4928 1.99721 16.219 2.00004C19.3164 2.00004 21.7428 4.42638 21.7428 7.52385V15.1881C21.7428 18.2718 19.2646 20.781 16.219 20.781C15.4898 20.7793 14.7685 20.6311 14.0977 20.3453C13.427 20.0594 12.8205 19.6417 12.3143 19.1169C11.278 18.0718 10.6961 16.6599 10.6951 15.1881Z" fill="#333333"/>
<path fill-rule="evenodd" clip-rule="evenodd" d="M16.219 20.781C15.4898 20.7793 14.7685 20.6311 14.0977 20.3453C13.427 20.0594 12.8205 19.6417 12.3143 19.1169C11.278 18.0718 10.6961 16.6599 10.6951 15.1881V7.52385C10.6923 6.79766 10.8333 6.07809 11.1099 5.40664C11.3865 4.73518 11.7932 4.12511 12.3067 3.61162C12.8202 3.09812 13.4303 2.69135 14.1017 2.41475C14.7732 2.13816 15.4928 1.99721 16.219 2.00004C19.3164 2.00004 21.7428 4.42638 21.7428 7.52385V15.1881C21.7428 18.2718 19.2646 20.781 16.219 20.781ZM15.2739 17.5854C15.5738 17.7133 15.8963 17.7798 16.2224 17.781C17.5747 17.7791 18.7427 16.649 18.7427 15.1881V7.52385C18.7427 6.08323 17.6595 5.00004 16.2189 5.00004H16.2072C15.877 4.99875 15.5497 5.06283 15.2444 5.18862C14.939 5.31441 14.6615 5.49941 14.428 5.73294C14.1945 5.96647 14.0095 6.24391 13.8837 6.54928C13.7579 6.85465 13.6938 7.1819 13.6951 7.51216L13.6951 7.52385L13.6951 15.187C13.6958 15.8679 13.9651 16.5211 14.4446 17.0046L14.4591 17.0193L14.4734 17.0341C14.7006 17.2696 14.9728 17.4571 15.2739 17.5854Z" fill="#333333"/>
</svg>
