<svg width="32" height="32" viewBox="0 0 32 32" fill="none" xmlns="http://www.w3.org/2000/svg">
<path d="M14.0977 20.3453C14.7685 20.6311 15.4898 20.7793 16.219 20.781C19.2646 20.781 21.7428 18.2718 21.7428 15.1881V7.52385C21.7428 4.42638 19.3164 2.00004 16.219 2.00004C15.4928 1.99721 14.7732 2.13816 14.1017 2.41475C13.4303 2.69135 12.8202 3.09812 12.3067 3.61162C11.7932 4.12511 11.3865 4.73518 11.1099 5.40664C10.8333 6.07809 10.6923 6.79766 10.6951 7.52385V15.1881C10.6961 16.6599 11.278 18.0718 12.3143 19.1169C12.8205 19.6417 13.427 20.0594 14.0977 20.3453Z" fill="#333333"/>
<path d="M8.7619 15.2571V11.6667H6V15.2571C6 20.4127 9.8622 24.704 14.8381 25.3827V28.2381H10.4191V31H22.0191V28.2381H17.6V25.3827C22.5759 24.704 26.4381 20.4126 26.4381 15.2571V11.6667H23.6762V15.2571C23.6762 19.3541 20.3194 22.7122 16.2229 22.7143L16.219 22.7143L16.2152 22.7143C12.1187 22.7122 8.7619 19.3541 8.7619 15.2571Z" fill="#333333"/>
</svg>
