<svg width="32" height="32" viewBox="0 0 32 32" fill="none" xmlns="http://www.w3.org/2000/svg">
<path fill-rule="evenodd" clip-rule="evenodd" d="M26.5 14H21.5V19H26.5V14ZM20.5 13V20H27.5V13H20.5Z" fill="#F60606"/>
<path fill-rule="evenodd" clip-rule="evenodd" d="M10.5 14H5.5V19H10.5V14ZM4.5 13V20H11.5V13H4.5Z" fill="#333333"/>
<path fill-rule="evenodd" clip-rule="evenodd" d="M15.5 4.75V3.5H16.5V4.75H15.5ZM15.5 9.75V7.25H16.5V9.75H15.5ZM15.5 14.75V12.25H16.5V14.75H15.5ZM15.5 19.75V17.25H16.5V19.75H15.5ZM15.5 24.75V22.25H16.5V24.75H15.5ZM15.5 28.5V27.25H16.5V28.5H15.5Z" fill="#333333"/>
</svg>
