<svg width="32" height="32" viewBox="0 0 32 32" fill="none" xmlns="http://www.w3.org/2000/svg">
<path d="M27.7545 21.8914C27.7545 22.4754 27.6132 22.9934 27.3307 23.4455C27.0575 23.8882 26.6996 24.2649 26.2569 24.5758C25.8237 24.8772 25.3386 25.1079 24.8017 25.268C24.2649 25.4281 23.7421 25.5082 23.2335 25.5082C22.7249 25.5082 22.2022 25.4281 21.6653 25.268C21.1284 25.1079 20.6387 24.8772 20.196 24.5758C19.7627 24.2649 19.4048 23.8882 19.1222 23.4455C18.8491 22.9934 18.7125 22.4754 18.7125 21.8914C18.7125 21.3169 18.8491 20.8036 19.1222 20.3515C19.4048 19.8994 19.7627 19.5226 20.196 19.2212C20.6387 18.9104 21.1284 18.6749 21.6653 18.5148C22.2022 18.3547 22.7249 18.2746 23.2335 18.2746C23.7139 18.2746 24.1848 18.3358 24.6463 18.4583C25.1078 18.5713 25.5411 18.7503 25.9461 18.9952V5.19201L13.2873 8.3567V25.5082C13.2873 26.0922 13.1461 26.6102 12.8635 27.0623C12.5904 27.505 12.2324 27.8817 11.7898 28.1925C11.3565 28.4939 10.8714 28.7247 10.3346 28.8848C9.7977 29.0449 9.27496 29.125 8.76635 29.125C8.25774 29.125 7.735 29.0449 7.19813 28.8848C6.66127 28.7247 6.17149 28.4939 5.72881 28.1925C5.29555 27.8817 4.93764 27.505 4.65508 27.0623C4.38193 26.6102 4.24536 26.0922 4.24536 25.5082C4.24536 24.9337 4.38193 24.4203 4.65508 23.9682C4.93764 23.5161 5.29555 23.1394 5.72881 22.838C6.17149 22.5272 6.66127 22.2917 7.19813 22.1316C7.735 21.9715 8.25774 21.8914 8.76635 21.8914C9.24671 21.8914 9.71764 21.9526 10.1792 22.0751C10.6407 22.1881 11.0739 22.3671 11.4789 22.6119V6.94389L27.7545 2.875V21.8914ZM8.76635 27.3166C9.02066 27.3166 9.30322 27.2789 9.61404 27.2036C9.92486 27.1282 10.2168 27.0199 10.49 26.8786C10.7725 26.7279 11.008 26.5396 11.1964 26.3135C11.3848 26.0875 11.4789 25.819 11.4789 25.5082C11.4789 25.1974 11.3848 24.929 11.1964 24.7029C11.008 24.4769 10.7725 24.2932 10.49 24.1519C10.2168 24.0012 9.92486 23.8882 9.61404 23.8128C9.30322 23.7375 9.02066 23.6998 8.76635 23.6998C8.51205 23.6998 8.22948 23.7375 7.91867 23.8128C7.60785 23.8882 7.31116 24.0012 7.0286 24.1519C6.75545 24.2932 6.52469 24.4769 6.33632 24.7029C6.14794 24.929 6.05376 25.1974 6.05376 25.5082C6.05376 25.819 6.14794 26.0875 6.33632 26.3135C6.52469 26.5396 6.75545 26.7279 7.0286 26.8786C7.31116 27.0199 7.60785 27.1282 7.91867 27.2036C8.22948 27.2789 8.51205 27.3166 8.76635 27.3166ZM23.2335 23.6998C23.4878 23.6998 23.7704 23.6621 24.0812 23.5868C24.392 23.5114 24.684 23.4031 24.9571 23.2618C25.2397 23.1111 25.4752 22.9228 25.6636 22.6967C25.8519 22.4707 25.9461 22.2022 25.9461 21.8914C25.9461 21.5806 25.8519 21.3122 25.6636 21.0861C25.4752 20.8601 25.2397 20.6764 24.9571 20.5351C24.684 20.3844 24.392 20.2714 24.0812 20.196C23.7704 20.1207 23.4878 20.083 23.2335 20.083C22.9792 20.083 22.6967 20.1207 22.3858 20.196C22.075 20.2714 21.7783 20.3844 21.4958 20.5351C21.2226 20.6764 20.9919 20.8601 20.8035 21.0861C20.6151 21.3122 20.5209 21.5806 20.5209 21.8914C20.5209 22.2022 20.6151 22.4707 20.8035 22.6967C20.9919 22.9228 21.2226 23.1111 21.4958 23.2618C21.7783 23.4031 22.075 23.5114 22.3858 23.5868C22.6967 23.6621 22.9792 23.6998 23.2335 23.6998Z" fill="#333333"/>
</svg>
