<svg width="32" height="32" viewBox="0 0 32 32" fill="none" xmlns="http://www.w3.org/2000/svg">
<path d="M3.97559 2L2 3.97559L22.6111 24.5864L24.8511 26.811L28.0244 30L30 28.0244L26.9548 24.9795C26.9846 24.7432 27 24.502 27 24.2578C27 21.0913 24.4242 18.5156 21.2578 18.5156C21.0134 18.5156 20.7726 18.5308 20.5363 18.5605L19.1554 17.1797C19.822 16.9814 20.5277 16.875 21.2578 16.875C23.5743 16.875 25.6454 17.9473 27 19.6221V7.74219C27 4.57568 24.4242 2 21.2578 2C18.0914 2 15.5156 4.57568 15.5156 7.74219V13.54L13.9098 11.9341L13.875 8.67188H10.6475L3.97559 2Z" fill="#333333"/>
<path d="M13.9847 18.9604L10.5 15.4756V16.875H2.29688V30H16.6219C15.3549 28.9756 14.4329 27.5396 14.0587 25.8984L13.9847 18.9604Z" fill="#333333"/>
<path d="M6.51819 11.4937L2.77759 15.2344H8.85938V13.835L6.51819 11.4937Z" fill="#333333"/>
<path d="M21.6111 26.5864L16.3325 21.3081C15.8141 22.1709 15.5156 23.1802 15.5156 24.2578C15.5156 27.4243 18.0914 30 21.2578 30C22.3391 30 23.3516 29.6992 24.2161 29.1777L23.8511 28.8115L21.6111 26.5864Z" fill="#333333"/>
</svg>
