<svg width="32" height="32" viewBox="0 0 32 32" fill="none" xmlns="http://www.w3.org/2000/svg">
<path fill-rule="evenodd" clip-rule="evenodd" d="M3.97556 2L2 3.90744L22.6111 23.8079L24.8511 25.9556L28.0244 29.0346L30 27.1271L25.647 22.9242V6.99794H9.15198L3.97556 2ZM12.3284 10.0649L13.9167 11.5983H22.4705V10.0649H12.3284ZM15.5049 13.1318L17.0931 14.6653H22.4705V13.1318H15.5049ZM18.6814 16.1988L20.2696 17.7322H22.4705V16.1988H18.6814ZM21.8578 19.2657L22.4705 19.8573V19.2657H21.8578Z" fill="#333333"/>
<path fill-rule="evenodd" clip-rule="evenodd" d="M8.17642 30V11.8019L12.7303 16.1988H11.3529V17.7322H14.3185L15.9067 19.2657H11.3529V20.7992H17.495L20.6714 23.8661H19.2941V30H8.17642ZM16.9117 23.8661H11.3529V22.3326H16.9117V23.8661Z" fill="#333333"/>
<path d="M23.7282 26.8033L22.2643 25.3997H20.8823V29.551L23.7282 26.8033Z" fill="#333333"/>
</svg>
