<svg width="32" height="32" viewBox="0 0 32 32" fill="none" xmlns="http://www.w3.org/2000/svg">
<path d="M17.8964 16.0001C19.2091 16.0001 20.4923 15.6109 21.5838 14.8816C22.6752 14.1523 23.5259 13.1158 24.0282 11.903C24.5306 10.6902 24.662 9.35575 24.4059 8.06829C24.1498 6.78083 23.5177 5.59823 22.5895 4.67002C21.6613 3.74181 20.4787 3.1097 19.1912 2.85361C17.9038 2.59751 16.5693 2.72895 15.3565 3.23129C14.1438 3.73363 13.1072 4.58432 12.3779 5.67577C11.6486 6.76723 11.2594 8.05043 11.2594 9.36311C11.2594 11.1234 11.9586 12.8115 13.2033 14.0562C14.448 15.3009 16.1362 16.0001 17.8964 16.0001ZM17.8964 17.8964C13.7826 17.8964 5.5705 20.4375 5.5705 25.4816V29.2742H30.2223V25.4816C30.2223 20.4375 22.0102 17.8964 17.8964 17.8964Z" fill="#333333"/>
<path d="M3.80811 15.5706H5.24371V15.4418C5.25129 14.7032 5.51644 14.3585 6.11492 13.9986C6.82326 13.5782 7.28538 13.0213 7.28538 12.1312C7.28538 10.8054 6.2172 10.0327 4.71341 10.0327C3.33841 10.0327 2.2172 10.7524 2.18311 12.2676H3.72856C3.75129 11.6501 4.20962 11.3206 4.70583 11.3206C5.2172 11.3206 5.63008 11.6615 5.63008 12.188C5.63008 12.6842 5.27023 13.0138 4.80432 13.3092C4.16795 13.7107 3.81189 14.116 3.80811 15.4418V15.5706ZM4.55432 17.9948C5.03917 17.9948 5.45962 17.5895 5.46341 17.0857C5.45962 16.5895 5.03917 16.1842 4.55432 16.1842C4.05432 16.1842 3.64144 16.5895 3.64523 17.0857C3.64144 17.5895 4.05432 17.9948 4.55432 17.9948Z" fill="#333333"/>
</svg>
