<svg width="32" height="32" viewBox="0 0 32 32" fill="none" xmlns="http://www.w3.org/2000/svg">
<path d="M17.8964 16.0001C19.2091 16.0001 20.4923 15.6109 21.5837 14.8816C22.6752 14.1523 23.5259 13.1158 24.0282 11.903C24.5305 10.6902 24.662 9.35575 24.4059 8.06829C24.1498 6.78083 23.5177 5.59823 22.5895 4.67002C21.6613 3.74181 20.4786 3.1097 19.1912 2.85361C17.9037 2.59751 16.5692 2.72895 15.3565 3.23129C14.1437 3.73363 13.1072 4.58432 12.3779 5.67577C11.6486 6.76723 11.2593 8.05043 11.2593 9.36311C11.2593 11.1234 11.9586 12.8115 13.2033 14.0562C14.448 15.3009 16.1361 16.0001 17.8964 16.0001ZM17.8964 17.8964C13.7826 17.8964 5.57044 20.4375 5.57044 25.4816V29.2742H30.2223V25.4816C30.2223 20.4375 22.0101 17.8964 17.8964 17.8964Z" fill="#333333"/>
<path d="M9.29667 12.8547C9.08076 11.063 7.7247 10.0327 5.92925 10.0327C3.88001 10.0327 2.31561 11.4797 2.31561 14.0176C2.31561 16.5479 3.85349 18.0024 5.92925 18.0024C7.91789 18.0024 9.11864 16.6804 9.29667 15.2524L7.63758 15.2448C7.48228 16.0744 6.83076 16.5516 5.95576 16.5516C4.77773 16.5516 3.97849 15.6766 3.97849 14.0176C3.97849 12.4039 4.76637 11.4835 5.96713 11.4835C6.86485 11.4835 7.51258 12.0024 7.63758 12.8547H9.29667Z" fill="#333333"/>
</svg>
