<svg width="32" height="32" viewBox="0 0 32 32" fill="none" xmlns="http://www.w3.org/2000/svg">
<path d="M17.8963 16.0001C19.209 16.0001 20.4922 15.6109 21.5836 14.8816C22.6751 14.1523 23.5258 13.1158 24.0281 11.903C24.5304 10.6902 24.6619 9.35575 24.4058 8.06829C24.1497 6.78083 23.5176 5.59823 22.5894 4.67002C21.6612 3.74181 20.4786 3.1097 19.1911 2.85361C17.9036 2.59751 16.5692 2.72895 15.3564 3.23129C14.1436 3.73363 13.1071 4.58432 12.3778 5.67577C11.6485 6.76723 11.2592 8.05043 11.2592 9.36311C11.2592 11.1234 11.9585 12.8115 13.2032 14.0562C14.4479 15.3009 16.136 16.0001 17.8963 16.0001ZM17.8963 17.8964C13.7825 17.8964 5.57035 20.4375 5.57035 25.4816V29.2742H30.2222V25.4816C30.2222 20.4375 22.0101 17.8964 17.8963 17.8964Z" fill="#333333"/>
<path d="M5.78149 10.1388H4.23982L2.31937 11.3548V12.8093L4.09588 11.6957H4.14134V17.8964H5.78149V10.1388Z" fill="#333333"/>
</svg>
