<svg width="32" height="32" viewBox="0 0 32 32" fill="none" xmlns="http://www.w3.org/2000/svg">
<path d="M17.8964 16.0001C19.2091 16.0001 20.4923 15.6109 21.5838 14.8816C22.6752 14.1523 23.5259 13.1158 24.0282 11.903C24.5306 10.6902 24.662 9.35575 24.4059 8.06829C24.1498 6.78083 23.5177 5.59823 22.5895 4.67002C21.6613 3.74181 20.4787 3.1097 19.1912 2.85361C17.9038 2.59751 16.5693 2.72895 15.3565 3.23129C14.1438 3.73363 13.1072 4.58432 12.3779 5.67577C11.6486 6.76723 11.2594 8.05043 11.2594 9.36311C11.2594 11.1234 11.9586 12.8115 13.2033 14.0562C14.448 15.3009 16.1362 16.0001 17.8964 16.0001ZM17.8964 17.8964C13.7826 17.8964 5.57049 20.4375 5.57049 25.4816V29.2742H30.2223V25.4816C30.2223 20.4375 22.0102 17.8964 17.8964 17.8964Z" fill="#333333"/>
<path d="M3.78913 17.8964L4.36489 16.1275H7.16413L7.73989 17.8964H9.49747L6.82322 10.1388H4.70959L2.03156 17.8964H3.78913ZM4.78155 14.8472L5.7361 11.9116H5.79671L6.75125 14.8472H4.78155Z" fill="#333333"/>
</svg>
