<svg width="32" height="32" viewBox="0 0 32 32" fill="none" xmlns="http://www.w3.org/2000/svg">
<path d="M17.8964 16.0001C19.2091 16.0001 20.4923 15.6109 21.5837 14.8816C22.6752 14.1523 23.5259 13.1158 24.0282 11.903C24.5306 10.6902 24.662 9.35575 24.4059 8.06829C24.1498 6.78083 23.5177 5.59823 22.5895 4.67002C21.6613 3.74181 20.4787 3.1097 19.1912 2.85361C17.9038 2.59751 16.5693 2.72895 15.3565 3.23129C14.1437 3.73363 13.1072 4.58432 12.3779 5.67577C11.6486 6.76723 11.2594 8.05043 11.2594 9.36311C11.2594 11.1234 11.9586 12.8115 13.2033 14.0562C14.448 15.3009 16.1361 16.0001 17.8964 16.0001ZM17.8964 17.8964C13.7826 17.8964 5.57047 20.4375 5.57047 25.4816V29.2742H30.2223V25.4816C30.2223 20.4375 22.0102 17.8964 17.8964 17.8964Z" fill="#333333"/>
<path d="M2.40652 17.8963H7.93682V16.5554H4.67924V16.5024L5.81182 15.3926C7.40652 13.938 7.83455 13.2107 7.83455 12.3282C7.83455 10.9835 6.73606 10.0327 5.07318 10.0327C3.4444 10.0327 2.32697 11.0062 2.33076 12.5289H3.88758C3.88379 11.7865 4.35349 11.332 5.06182 11.332C5.74364 11.332 6.25121 11.7562 6.25121 12.438C6.25121 13.0554 5.87243 13.4797 5.16788 14.1577L2.40652 16.7145V17.8963Z" fill="#333333"/>
</svg>
