<svg width="32" height="33" viewBox="0 0 32 33" fill="none" xmlns="http://www.w3.org/2000/svg">
<path d="M1 3V9.47049C1.00317 10.1979 1.59202 10.7868 2.31945 10.7899H4.72068V31H5.96666V8.80789C5.96666 8.05691 6.57547 7.4481 7.32645 7.4481H24.6576C24.3947 7.85294 24.2546 8.32519 24.2542 8.80789V31H25.6495L25.5971 10.7957H29.446C30.1734 10.7925 30.7622 10.2037 30.7654 9.47625V3H1ZM29.6131 4.31945V9.47625C29.6131 9.56851 29.5382 9.64334 29.446 9.64334H25.5971V8.80789C25.5971 8.05691 26.2059 7.4481 26.9569 7.4481H27.9749C27.9749 7.4481 27.9749 7.19012 27.9749 6.87192C27.9749 6.55373 27.9749 6.29574 27.9749 6.29574H3.79051C3.79051 6.29574 3.79051 6.55373 3.79051 6.87192C3.79051 7.19012 3.79051 7.4481 3.79051 7.4481H5.24068C4.9752 7.852 4.83303 8.32454 4.83159 8.80789V9.64334H2.31945C2.22719 9.64334 2.15236 9.56851 2.15236 9.47625V4.31945C2.15236 4.22719 2.22719 4.15236 2.31945 4.15236H29.446C29.5382 4.15236 29.6131 4.22719 29.6131 4.31945Z" fill="#333333"/>
<path d="M8.44135 12.3965H15.8827V13.3267H8.44135V12.3965Z" fill="#333333"/>
<path d="M8.44135 16.1172H15.8827V17.0473H8.44135V16.1172Z" fill="#333333"/>
<path d="M8.44135 19.8378H15.8827V20.768H8.44135V19.8378Z" fill="#333333"/>
<path d="M18.6732 12.3965H22.3939V13.3267H18.6732V12.3965Z" fill="#333333"/>
<path d="M18.6732 16.1172H22.3939V17.0473H18.6732V16.1172Z" fill="#333333"/>
<path d="M18.6732 19.8378H22.3939V20.768H18.6732V19.8378Z" fill="#333333"/>
<path d="M19.6034 30.0697L22.5 30.0698V31L19.6034 30.9999V30.0697Z" fill="#333333"/>
<path d="M10.3017 30.0697H19.6034V30.9999H10.3017V30.0697Z" fill="#333333"/>
<path d="M7.51118 30.0697H10.3017V30.9999H7.51118V30.0697Z" fill="#333333"/>
</svg>
