<svg width="32" height="32" viewBox="0 0 32 32" fill="none" xmlns="http://www.w3.org/2000/svg">
<path d="M24.5265 19.053L22.9806 20.5989L25.815 23.4333H22.5247C21.0634 23.4333 19.6858 22.7364 18.8282 21.5663L15.6883 16.0007L18.8099 10.4401C19.6706 9.26594 21.0479 8.56671 22.5058 8.56671H25.8149L22.9805 11.4011L24.5264 12.947L29.9999 7.47351L24.5265 2L22.9806 3.54596L25.815 6.3803H22.5059C20.3247 6.3803 18.2656 7.43998 16.9979 9.21481C16.9749 9.24708 16.9536 9.28049 16.9342 9.31511L14.4316 13.773L11.9156 9.31309C11.8965 9.27923 11.8756 9.24648 11.853 9.21481C10.5853 7.43993 8.52624 6.38036 6.34514 6.38036H2V8.56666H6.34503C7.80327 8.56666 9.18085 9.26622 10.0415 10.4409L13.1795 16.0033L10.0601 21.5599C9.19928 22.7341 7.82203 23.4333 6.36412 23.4333H2V25.6196H6.36423C8.54538 25.6196 10.6044 24.56 11.8722 22.7851C11.8952 22.7529 11.9165 22.7195 11.9359 22.6848L14.4363 18.2309L16.9542 22.6941C16.9733 22.728 16.9942 22.7607 17.0168 22.7924C18.2813 24.5628 20.3404 25.6197 22.5247 25.6197H25.815L22.9806 28.454L24.5265 30L30 24.5265L24.5265 19.053Z" fill="#333333"/>
</svg>
