<svg width="32" height="32" viewBox="0 0 32 32" fill="none" xmlns="http://www.w3.org/2000/svg">
<path d="M19.7324 2.51953C21.2454 2.92969 22.6309 3.57227 23.8887 4.44727C25.1465 5.31315 26.2266 6.3431 27.1289 7.53711C28.0404 8.72201 28.7467 10.0391 29.248 11.4883C29.7493 12.9284 30 14.4323 30 16C30 17.2852 29.8314 18.5247 29.4941 19.7188C29.166 20.9128 28.6966 22.0293 28.0859 23.0684C27.4844 24.1074 26.7552 25.0553 25.8984 25.9121C25.0508 26.7598 24.1074 27.4889 23.0684 28.0996C22.0293 28.7012 20.9128 29.1706 19.7188 29.5078C18.5247 29.8359 17.2852 30 16 30C14.7148 30 13.4753 29.8359 12.2812 29.5078C11.0872 29.1706 9.9707 28.7012 8.93164 28.0996C7.89258 27.4889 6.94466 26.7598 6.08789 25.9121C5.24023 25.0553 4.51107 24.1074 3.90039 23.0684C3.29883 22.0293 2.82943 20.9173 2.49219 19.7324C2.16406 18.5384 2 17.2943 2 16C2 14.724 2.16862 13.4844 2.50586 12.2812C2.8431 11.0781 3.32161 9.94792 3.94141 8.89062C4.57031 7.82422 5.33138 6.85807 6.22461 5.99219C7.11784 5.11719 8.125 4.36979 9.24609 3.75H5.5V2H12.5V9H10.75V4.93945C9.68359 5.44987 8.71745 6.09245 7.85156 6.86719C6.99479 7.63281 6.26107 8.4987 5.65039 9.46484C5.03971 10.4219 4.57031 11.4564 4.24219 12.5684C3.91406 13.6803 3.75 14.8242 3.75 16C3.75 17.1211 3.89583 18.2057 4.1875 19.2539C4.47917 20.293 4.88932 21.2682 5.41797 22.1797C5.95573 23.082 6.59831 23.9069 7.3457 24.6543C8.0931 25.4017 8.91797 26.0443 9.82031 26.582C10.7318 27.1107 11.707 27.5208 12.7461 27.8125C13.7852 28.1042 14.8698 28.25 16 28.25C17.1211 28.25 18.2012 28.1042 19.2402 27.8125C20.2884 27.5208 21.2637 27.1107 22.166 26.582C23.0775 26.0443 23.9069 25.4017 24.6543 24.6543C25.4017 23.9069 26.0397 23.082 26.5684 22.1797C27.1061 21.2682 27.5208 20.293 27.8125 19.2539C28.1042 18.2148 28.25 17.1302 28.25 16C28.25 14.6328 28.0267 13.3158 27.5801 12.0488C27.1426 10.7819 26.5273 9.62891 25.7344 8.58984C24.9414 7.55078 23.9935 6.65299 22.8906 5.89648C21.7969 5.13086 20.5892 4.56576 19.2676 4.20117L19.7324 2.51953Z" fill="#333333"/>
</svg>
