<svg width="32" height="32" viewBox="0 0 32 32" fill="none" xmlns="http://www.w3.org/2000/svg">
<path d="M16 12.5C16.4831 12.5 16.9342 12.5911 17.3535 12.7734C17.7819 12.9557 18.1556 13.2064 18.4746 13.5254C18.7936 13.8444 19.0443 14.2181 19.2266 14.6465C19.4089 15.0658 19.5 15.5169 19.5 16C19.5 16.4831 19.4089 16.9388 19.2266 17.3672C19.0443 17.7865 18.7936 18.1556 18.4746 18.4746C18.1556 18.7936 17.7819 19.0443 17.3535 19.2266C16.9342 19.4089 16.4831 19.5 16 19.5C15.5169 19.5 15.0612 19.4089 14.6328 19.2266C14.2135 19.0443 13.8444 18.7936 13.5254 18.4746C13.2064 18.1556 12.9557 17.7865 12.7734 17.3672C12.5911 16.9388 12.5 16.4831 12.5 16C12.5 15.5169 12.5911 15.0658 12.7734 14.6465C12.9557 14.2181 13.2064 13.8444 13.5254 13.5254C13.8444 13.2064 14.2135 12.9557 14.6328 12.7734C15.0612 12.5911 15.5169 12.5 16 12.5ZM16 17.75C16.2461 17.75 16.474 17.7044 16.6836 17.6133C16.8932 17.5221 17.0755 17.3991 17.2305 17.2441C17.3945 17.0801 17.5221 16.8932 17.6133 16.6836C17.7044 16.474 17.75 16.2461 17.75 16C17.75 15.7539 17.7044 15.526 17.6133 15.3164C17.5221 15.1068 17.3945 14.9245 17.2305 14.7695C17.0755 14.6055 16.8932 14.4779 16.6836 14.3867C16.474 14.2956 16.2461 14.25 16 14.25C15.7539 14.25 15.526 14.2956 15.3164 14.3867C15.1068 14.4779 14.9199 14.6055 14.7559 14.7695C14.6009 14.9245 14.4779 15.1068 14.3867 15.3164C14.2956 15.526 14.25 15.7539 14.25 16C14.25 16.2461 14.2956 16.474 14.3867 16.6836C14.4779 16.8932 14.6009 17.0801 14.7559 17.2441C14.9199 17.3991 15.1068 17.5221 15.3164 17.6133C15.526 17.7044 15.7539 17.75 16 17.75ZM30 16C30 17.276 29.8314 18.5156 29.4941 19.7188C29.1569 20.9219 28.6738 22.0566 28.0449 23.123C27.4251 24.1803 26.6686 25.1465 25.7754 26.0215C24.8822 26.8965 23.875 27.6393 22.7539 28.25H26.5V30H19.5V23H21.25V27.0605C22.3164 26.5592 23.278 25.9212 24.1348 25.1465C25.0007 24.3717 25.7389 23.5059 26.3496 22.5488C26.9603 21.5827 27.4297 20.5436 27.7578 19.4316C28.0859 18.3197 28.25 17.1758 28.25 16C28.25 14.8789 28.1042 13.7988 27.8125 12.7598C27.5208 11.7116 27.1061 10.7363 26.5684 9.83398C26.0397 8.92253 25.4017 8.0931 24.6543 7.3457C23.9069 6.59831 23.0775 5.96029 22.166 5.43164C21.2637 4.89388 20.2884 4.47917 19.2402 4.1875C18.2012 3.89583 17.1211 3.75 16 3.75C14.8789 3.75 13.7943 3.89583 12.7461 4.1875C11.707 4.47917 10.7318 4.89388 9.82031 5.43164C8.91797 5.96029 8.0931 6.59831 7.3457 7.3457C6.59831 8.0931 5.95573 8.92253 5.41797 9.83398C4.88932 10.7363 4.47917 11.7116 4.1875 12.7598C3.89583 13.7988 3.75 14.8789 3.75 16H2C2 14.7148 2.16406 13.4753 2.49219 12.2812C2.82943 11.0872 3.29883 9.9707 3.90039 8.93164C4.51107 7.89258 5.24023 6.94922 6.08789 6.10156C6.94466 5.24479 7.89258 4.51562 8.93164 3.91406C9.9707 3.30339 11.0827 2.83398 12.2676 2.50586C13.4616 2.16862 14.7057 2 16 2C17.2852 2 18.5247 2.16862 19.7188 2.50586C20.9128 2.83398 22.0293 3.30339 23.0684 3.91406C24.1074 4.51562 25.0508 5.24479 25.8984 6.10156C26.7552 6.94922 27.4844 7.89258 28.0859 8.93164C28.6966 9.9707 29.166 11.0872 29.4941 12.2812C29.8314 13.4753 30 14.7148 30 16Z" fill="#333333"/>
</svg>
