<svg width="32" height="32" viewBox="0 0 32 32" fill="none" xmlns="http://www.w3.org/2000/svg">
<path d="M19.8047 7.20928C21.2372 7.20928 22.4093 6.03719 22.4093 4.60461C22.4093 3.17209 21.2372 2 19.8047 2C18.3721 2 17.2 3.17209 17.2 4.60467C17.2 6.03725 18.3721 7.20928 19.8047 7.20928Z" fill="#333333"/>
<path d="M26.9674 16.9767V14.372C24.5581 14.372 22.4744 13.0697 21.3023 11.1813L20.0651 9.09769C19.6093 8.3163 18.7628 7.86046 17.8511 7.86046C17.5256 7.86046 17.2 7.9256 16.8744 8.05581L10.0372 10.8558V16.9768H12.6419V12.614L14.9209 11.7024L12.9023 22.1861L6.52091 20.9488L6 23.4884C6 23.4884 15.1163 25.2465 15.1163 25.3116L16.3535 19.5814L19.1535 22.1861V30H21.7582V20.1674L19.0884 17.4977L19.8698 13.5907C21.5628 15.6744 24.1023 16.9767 26.9674 16.9767Z" fill="#333333"/>
</svg>
