<svg width="19" height="19" viewBox="0 0 19 19" fill="none" xmlns="http://www.w3.org/2000/svg">
<path d="M9.65552 0.104248L14.6954 5.14412L12.8058 7.03284L10.9162 5.14412L9.65552 6.40386L11.7304 8.4779L10.6934 9.51491L11.1024 9.92473C11.5168 9.73135 11.9807 9.67019 12.4312 9.74957C12.8816 9.82894 13.2967 10.045 13.6201 10.3684L10.4698 13.5178C10.1465 13.1943 9.93066 12.7791 9.85144 12.3287C9.77223 11.8783 9.83353 11.4144 10.027 11.0001L9.61721 10.5902L8.58019 11.6281L6.50616 9.55322L5.24641 10.8139L7.13514 12.7026L5.24641 14.5931L0.206543 9.55322L2.09616 7.66361L3.98578 9.55322L5.24641 8.29348L2.72603 5.77488C2.5605 5.60941 2.42919 5.41296 2.3396 5.19673C2.25001 4.9805 2.20389 4.74874 2.20389 4.51469C2.20389 4.28064 2.25001 4.04888 2.3396 3.83265C2.42919 3.61643 2.5605 3.41997 2.72603 3.2545L3.3559 2.62463C3.52137 2.45909 3.71783 2.32778 3.93406 2.23819C4.15028 2.1486 4.38204 2.10249 4.61609 2.10249C4.85015 2.10249 5.08191 2.1486 5.29813 2.23819C5.51436 2.32778 5.71082 2.45909 5.87628 2.62463L8.39577 5.14501L9.65552 3.88437L7.7659 1.99386L9.65552 0.104248ZM15.3386 11.6727C15.3386 12.6178 14.9632 13.5243 14.2949 14.1926C13.6265 14.8609 12.7201 15.2363 11.775 15.2363V13.4545C12.2476 13.4545 12.7008 13.2668 13.0349 12.9326C13.3691 12.5985 13.5568 12.1453 13.5568 11.6727H15.3386ZM18.9023 11.6727C18.9023 13.563 18.1514 15.3758 16.8147 16.7124C15.4781 18.0491 13.6653 18.8 11.775 18.8V17.0181C13.1927 17.0181 14.5523 16.455 15.5548 15.4525C16.5573 14.45 17.1204 13.0904 17.1204 11.6727H18.9023Z" fill="black"/>
</svg>
