<svg width="32" height="32" viewBox="0 0 32 32" fill="none" xmlns="http://www.w3.org/2000/svg">
<path d="M24.7602 12.8405C24.8841 12.2293 24.9474 11.6074 24.9491 10.9838C24.9491 8.60115 24.0063 6.31608 22.328 4.63129C20.6497 2.9465 18.3735 2 16 2C13.6265 2 11.3503 2.9465 9.67202 4.63129C7.99374 6.31608 7.05089 8.60115 7.05089 10.9838C7.05264 11.6074 7.11592 12.2293 7.23981 12.8405C6.11123 13.3565 5.10179 14.1023 4.27555 15.0307C3.44931 15.9591 2.82429 17.0497 2.44015 18.2334C2.05602 19.4171 1.92114 20.6681 2.04409 21.9069C2.16704 23.1457 2.54512 24.3453 3.15436 25.4296C3.76359 26.514 4.59068 27.4594 5.58314 28.2059C6.57561 28.9523 7.71179 29.4836 8.91961 29.7659C10.1274 30.0483 11.3805 30.0755 12.5994 29.8459C13.8182 29.6164 14.9763 29.135 16 28.4323C17.0237 29.135 18.1818 29.6164 19.4006 29.8459C20.6195 30.0755 21.8726 30.0483 23.0804 29.7659C24.2882 29.4836 25.4244 28.9523 26.4169 28.2059C27.4093 27.4594 28.2364 26.514 28.8456 25.4296C29.4549 24.3453 29.833 23.1457 29.9559 21.9069C30.0789 20.6681 29.944 19.4171 29.5598 18.2334C29.1757 17.0497 28.5507 15.9591 27.7244 15.0307C26.8982 14.1023 25.8888 13.3565 24.7602 12.8405ZM9.03958 10.9838C9.03958 9.13063 9.77291 7.35335 11.0782 6.04296C12.3836 4.73257 14.154 3.9964 16 3.9964C17.846 3.9964 19.6164 4.73257 20.9218 6.04296C22.2271 7.35335 22.9604 9.13063 22.9604 10.9838C22.9594 11.3855 22.9228 11.7864 22.851 12.1816C22.2334 12.0487 21.6034 11.9818 20.9717 11.982C19.2009 11.9794 17.4697 12.5077 16 13.4993C14.5303 12.5077 12.7991 11.9794 11.0283 11.982C10.3966 11.9818 9.76662 12.0487 9.14896 12.1816C9.07716 11.7864 9.04055 11.3855 9.03958 10.9838ZM17.9887 20.9658C17.9864 22.7912 17.2726 24.5432 16 25.847C14.7274 24.5432 14.0136 22.7912 14.0113 20.9658C14.0123 20.5641 14.0489 20.1632 14.1207 19.768C15.3594 20.0351 16.6406 20.0351 17.8793 19.768C17.9511 20.1632 17.9877 20.5641 17.9887 20.9658ZM16 17.9712C15.5795 17.9719 15.1599 17.9318 14.7471 17.8514C15.0724 17.2017 15.4949 16.6058 16 16.0846C16.5051 16.6058 16.9276 17.2017 17.2529 17.8514C16.8401 17.9318 16.4205 17.9719 16 17.9712ZM12.8579 17.2126C11.5237 16.5339 10.4429 15.4418 9.7754 14.0982C10.1882 14.0178 10.6078 13.9777 11.0283 13.9784C12.2155 13.9794 13.3827 14.2852 14.419 14.8668C13.778 15.5607 13.2511 16.3525 12.8579 17.2126ZM17.581 14.8668C18.6173 14.2852 19.7845 13.9794 20.9717 13.9784C21.3922 13.9777 21.8118 14.0178 22.2246 14.0982C21.5571 15.4418 20.4763 16.5339 19.1421 17.2126C18.7489 16.3525 18.222 15.5607 17.581 14.8668ZM4.06785 20.9658C4.06898 19.6748 4.42637 18.4094 5.10037 17.3099C5.77437 16.2104 6.73862 15.3198 7.88614 14.737C8.76941 16.6607 10.3014 18.2092 12.2115 19.1091C12.0877 19.7202 12.0244 20.3422 12.0226 20.9658C12.0275 23.2293 12.8834 25.4074 14.419 27.0648C13.3598 27.6579 12.1646 27.9629 10.9519 27.9495C9.73917 27.9362 8.55095 27.6049 7.505 26.9886C6.45904 26.3724 5.59164 25.4924 4.98876 24.436C4.38587 23.3795 4.06842 22.1833 4.06785 20.9658ZM20.9717 27.9532C19.7845 27.9522 18.6173 27.6464 17.581 27.0648C19.1166 25.4074 19.9725 23.2293 19.9774 20.9658C19.9756 20.3422 19.9123 19.7202 19.7885 19.1091C21.6986 18.2092 23.2306 16.6607 24.1139 14.737C25.5071 15.448 26.6215 16.6091 27.2774 18.0333C27.9334 19.4574 28.0928 21.0618 27.7299 22.5879C27.3671 24.1141 26.5031 25.4732 25.2772 26.4465C24.0513 27.4198 22.5347 27.9505 20.9717 27.9532Z" fill="#333333"/>
</svg>
