<svg width="32" height="32" viewBox="0 0 32 32" fill="none" xmlns="http://www.w3.org/2000/svg">
<path d="M8.42852 7.37294H9.50311V11.6713H8.42852V7.37294Z" fill="#333333"/>
<path d="M11.6523 7.37294H12.7269V11.6713H11.6523V7.37294Z" fill="#333333"/>
<path d="M14.876 7.37294H15.9506V11.6713H14.876V7.37294Z" fill="#333333"/>
<path d="M18.0998 7.37294H19.1744V11.6713H18.0998V7.37294Z" fill="#333333"/>
<path d="M9.94369 23.1479L10.2446 22.0518C10.7675 22.3599 11.3514 22.5139 11.9962 22.5139C12.4117 22.5139 12.734 22.4243 12.9633 22.2452C13.1925 22.0661 13.3071 21.8261 13.3071 21.5253C13.3071 21.253 13.2069 21.0274 13.0063 20.8483C12.8128 20.6692 12.4869 20.4937 12.0284 20.3217C10.7174 19.8632 10.0619 19.1647 10.0619 18.2263C10.0619 17.6173 10.2947 17.1195 10.7604 16.7326C11.2332 16.3386 11.8565 16.1416 12.6302 16.1416C13.2964 16.1416 13.8731 16.2598 14.3602 16.4962L14.0486 17.5708C13.6045 17.3415 13.1209 17.2269 12.5979 17.2269C12.2039 17.2269 11.9066 17.3129 11.706 17.4848C11.5054 17.6567 11.4051 17.8609 11.4051 18.0973C11.4051 18.3624 11.5054 18.5773 11.706 18.7421C11.9138 18.9068 12.2755 19.0859 12.7913 19.2794C13.4289 19.5229 13.8982 19.8167 14.1991 20.1605C14.4999 20.4972 14.6504 20.9199 14.6504 21.4285C14.6504 22.0518 14.414 22.5712 13.9412 22.9867C13.4755 23.395 12.7985 23.5992 11.9102 23.5992C11.5377 23.5992 11.1687 23.5562 10.8034 23.4703C10.438 23.3771 10.1514 23.2697 9.94369 23.1479Z" fill="#333333"/>
<path d="M15.8384 23.4703V16.3565C16.4975 16.249 17.1995 16.1953 17.9446 16.1953C19.2413 16.1953 20.2227 16.4747 20.889 17.0335C21.6483 17.6424 22.028 18.5307 22.028 19.6985C22.028 20.9378 21.6519 21.8978 20.8997 22.5784C20.1761 23.2374 19.0836 23.567 17.6222 23.567C16.9631 23.567 16.3685 23.5347 15.8384 23.4703ZM17.1601 17.3021V22.4924C17.2819 22.5139 17.5255 22.5246 17.8909 22.5246C18.7577 22.5318 19.4311 22.299 19.9111 21.8261C20.3911 21.3462 20.631 20.6513 20.631 19.7414C20.6382 18.9462 20.4161 18.3302 19.9648 17.8932C19.5206 17.449 18.8866 17.2269 18.0628 17.2269C17.6903 17.2269 17.3894 17.252 17.1601 17.3021Z" fill="#333333"/>
<path fill-rule="evenodd" clip-rule="evenodd" d="M26.0986 7.74984C26.0986 7.57484 26.0166 7.40969 25.8771 7.30387L19.0426 2.11402C18.9452 2.03992 18.826 2 18.7038 2H5.09863V30H26.0986V7.74984ZM6.21863 28.88H24.9786V8.02766L18.5151 3.12H6.21863V28.88Z" fill="#333333"/>
</svg>
