<svg width="32" height="32" viewBox="0 0 32 32" fill="none" xmlns="http://www.w3.org/2000/svg">
<path fill-rule="evenodd" clip-rule="evenodd" d="M27.2665 15.4654V15.7326C27.2764 15.8217 27.2814 15.9107 27.2814 15.9998C27.2814 16.0888 27.2764 16.1779 27.2665 16.267V16.5342L31.1111 18.924L28.7509 24.6093L24.3423 23.5999C24.1048 23.8572 23.8574 24.1046 23.6001 24.3421L24.6095 28.7507L18.9242 31.1109L16.5344 27.2663C16.4453 27.2663 16.3562 27.2713 16.2672 27.2812H16H15.7328C15.6437 27.2713 15.5547 27.2663 15.4656 27.2663L13.0757 31.1109L7.39052 28.7507L8.39991 24.3421C8.14261 24.1046 7.89522 23.8572 7.65771 23.5999L3.24907 24.6093L0.888885 18.924L4.73346 16.5342C4.73346 16.4451 4.72851 16.356 4.71862 16.267V15.9998V15.7326C4.72851 15.6435 4.73346 15.5545 4.73346 15.4654L0.888885 13.0755L3.24907 7.39031L7.65771 8.3997C7.89522 8.1424 8.14261 7.895 8.39991 7.6575L7.39052 3.24886L13.0757 0.888672L15.4656 4.73325H15.7328C15.8219 4.72335 15.9109 4.7184 16 4.7184C16.0891 4.7184 16.1781 4.72335 16.2672 4.73325H16.5344L18.9242 0.888672L24.6095 3.24886L23.6001 7.6575C23.8574 7.895 24.1048 8.1424 24.3423 8.3997L28.7509 7.39031L31.1111 13.0755L27.2665 15.4654ZM17.5289 19.6217C17.0539 19.8196 16.5443 19.9186 16 19.9186C15.4557 19.9186 14.9461 19.8196 14.4711 19.6217C13.9961 19.4139 13.5804 19.1319 13.2242 18.7756C12.8679 18.4193 12.5859 18.0037 12.3781 17.5287C12.1802 17.0537 12.0812 16.5441 12.0812 15.9998C12.0812 15.4555 12.1802 14.9459 12.3781 14.4709C12.5859 13.9959 12.8679 13.5802 13.2242 13.224C13.5804 12.8677 13.9961 12.5906 14.4711 12.3927C14.9461 12.1849 15.4557 12.081 16 12.081C16.5443 12.081 17.0539 12.1849 17.5289 12.3927C18.0039 12.5906 18.4196 12.8677 18.7758 13.224C19.1321 13.5802 19.4091 13.9959 19.6071 14.4709C19.8149 14.9459 19.9188 15.4555 19.9188 15.9998C19.9188 16.5441 19.8149 17.0537 19.6071 17.5287C19.4091 18.0037 19.1321 18.4193 18.7758 18.7756C18.4196 19.1319 18.0039 19.4139 17.5289 19.6217Z" fill="#333333"/>
</svg>
