<svg width="32" height="32" viewBox="0 0 32 32" fill="none" xmlns="http://www.w3.org/2000/svg">
<path opacity="0.3" d="M30 30V2L2 30H30Z" fill="#333333"/>
<path d="M13.7473 11.8073C13.5012 12.098 13.1533 12.3242 12.7037 12.486C12.254 12.6449 11.7558 12.7243 11.2089 12.7243C10.6347 12.7243 10.1303 12.6014 9.69588 12.3557C9.26446 12.107 8.93026 11.7474 8.69328 11.2769C8.45934 10.8065 8.33933 10.2536 8.33325 9.61834V9.17335C8.33325 8.5201 8.44415 7.95525 8.66594 7.4788C8.89076 6.99935 9.21281 6.63377 9.63208 6.38206C10.0544 6.12735 10.5481 6 11.1132 6C11.9001 6 12.5153 6.18579 12.9589 6.55736C13.4025 6.92594 13.6653 7.46382 13.7473 8.171H12.4166C12.3558 7.79643 12.2206 7.52225 12.011 7.34845C11.8044 7.17465 11.5188 7.08775 11.1542 7.08775C10.6894 7.08775 10.3354 7.26005 10.0924 7.60466C9.84931 7.94926 9.72627 8.46167 9.72323 9.14189V9.55991C9.72323 10.2461 9.85539 10.7645 10.1197 11.1151C10.384 11.4657 10.7714 11.641 11.2818 11.641C11.7953 11.641 12.1614 11.5331 12.3801 11.3174V10.1892H11.136V9.19583H13.7473V11.8073Z" fill="#333333"/>
<path d="M22 30V10L2 30H22Z" fill="#333333"/>
</svg>
