<svg width="32" height="32" viewBox="0 0 32 32" fill="none" xmlns="http://www.w3.org/2000/svg">
<path d="M25.5068 3C26.3857 3.86188 27.167 4.79558 27.8506 5.80111C28.5342 6.80663 29.1055 7.86004 29.5645 8.96133C30.0332 10.0626 30.3896 11.207 30.6338 12.3945C30.8779 13.582 31 14.7838 31 16C31 17.2258 30.8779 18.4324 30.6338 19.6199C30.3896 20.7978 30.0332 21.9374 29.5645 23.0387C29.1055 24.14 28.5342 25.1934 27.8506 26.1989C27.167 27.2044 26.3857 28.1381 25.5068 29L24.1738 27.6928C24.9648 26.9171 25.668 26.0792 26.2832 25.179C26.8984 24.2692 27.416 23.3212 27.8359 22.3348C28.2559 21.3389 28.5732 20.3094 28.7881 19.2464C29.0029 18.1834 29.1104 17.1013 29.1104 16C29.1104 14.8987 29.0029 13.8166 28.7881 12.7536C28.5732 11.6906 28.2559 10.6659 27.8359 9.67956C27.416 8.68361 26.8984 7.73554 26.2832 6.83536C25.668 5.9256 24.9648 5.08287 24.1738 4.30718L25.5068 3ZM25.375 16C25.375 17.7238 25.043 19.3661 24.3789 20.9271C23.7148 22.488 22.7676 23.8814 21.5371 25.1072L20.2041 23.8C21.2686 22.7562 22.084 21.5639 22.6504 20.2232C23.2168 18.8825 23.5 17.4748 23.5 16C23.5 14.5252 23.2168 13.1175 22.6504 11.7768C22.084 10.4361 21.2686 9.24383 20.2041 8.2L21.5371 6.89282C22.7676 8.1186 23.7148 9.51197 24.3789 11.0729C25.043 12.6339 25.375 14.2762 25.375 16ZM17.5527 10.8C18.2656 11.4991 18.8076 12.2939 19.1787 13.1845C19.5596 14.0751 19.75 15.0136 19.75 16C19.75 16.9864 19.5596 17.9249 19.1787 18.8155C18.8076 19.7061 18.2656 20.5009 17.5527 21.2L16.2344 19.9072C16.7617 19.3901 17.167 18.7963 17.4502 18.126C17.7334 17.446 17.875 16.7374 17.875 16C17.875 15.2626 17.7334 14.5587 17.4502 13.8884C17.167 13.2085 16.7617 12.6099 16.2344 12.0928L17.5527 10.8ZM10.917 4.96796H12.25V27.032H10.9316L5.29199 21.516H1V10.484H5.29199L10.917 4.96796ZM10.375 8.11381L6.08301 12.3227H2.875V19.6773H6.08301L10.375 23.8862V8.11381Z" fill="#333333"/>
</svg>
