<svg width="32" height="32" viewBox="0 0 32 32" fill="none" xmlns="http://www.w3.org/2000/svg">
<path d="M30 16C30 23.732 23.732 30 16 30C8.26801 30 2 23.732 2 16C2 8.26801 8.26801 2 16 2C23.732 2 30 8.26801 30 16ZM4.38 16C4.38 22.4175 9.58245 27.62 16 27.62C22.4175 27.62 27.62 22.4175 27.62 16C27.62 9.58245 22.4175 4.38 16 4.38C9.58245 4.38 4.38 9.58245 4.38 16Z" fill="#EA0E0E" fill-opacity="0.4"/>
<path d="M29.523 19.6235C30.484 16.037 29.9809 12.2156 28.1244 9C26.2678 5.78442 23.21 3.43804 19.6235 2.47704L19.0075 4.77594C21.9843 5.57357 24.5223 7.52107 26.0632 10.19C27.6041 12.8589 28.0217 16.0307 27.2241 19.0075L29.523 19.6235Z" fill="#F60606"/>
</svg>
