<svg width="32" height="32" viewBox="0 0 32 32" fill="none" xmlns="http://www.w3.org/2000/svg">
<path d="M29.8136 9.82281L22.1772 2.18645C21.9286 1.93785 21.5259 1.93785 21.2773 2.18645L16 7.46377L15.8136 7.27734C15.565 7.02874 15.1623 7.02874 14.9137 7.27734L3.98617 18.2049C2.70595 19.4857 2 21.1885 2 23C2 26.8598 5.14081 30 8.99998 30C10.7848 30 12.5335 29.276 13.7951 28.0138L24.7227 17.0863C24.9713 16.8377 24.9713 16.435 24.7227 16.1864L24.5362 16L29.8136 10.7227C30.0622 10.4741 30.0622 10.0714 29.8136 9.82281ZM17.7363 19.6809L16.8365 20.5807C16.7122 20.705 16.5494 20.7672 16.3866 20.7672C16.2237 20.7672 16.0609 20.705 15.9366 20.5813L15.5923 20.925C15.2269 21.2904 14.7434 21.4856 14.2475 21.4856C14.0436 21.4856 13.8386 21.4526 13.6385 21.3855L12.0586 20.8589L10.8477 22.0696C10.9545 22.4905 10.8647 22.9524 10.5362 23.281C10.2876 23.5289 9.96198 23.6532 9.63636 23.6532C9.31075 23.6532 8.98507 23.529 8.73653 23.281C8.24058 22.785 8.24058 21.9772 8.73653 21.4812C9.06596 21.1526 9.52719 21.0629 9.9479 21.1698L10.2578 20.8599L9.73086 19.2788C9.50094 18.5884 9.67741 17.8396 10.1932 17.3244L10.6747 16.843C10.5679 16.422 10.6576 15.9602 10.9862 15.6316C11.4833 15.1356 12.2887 15.1356 12.7859 15.6316C13.2818 16.1275 13.2818 16.9354 12.7859 17.4313C12.5373 17.6793 12.2117 17.8036 11.886 17.8036C11.7802 17.8036 11.6778 17.7692 11.5746 17.743L11.0931 18.2249C10.9203 18.397 10.8619 18.6463 10.939 18.8755L11.2648 19.8532L15.0359 16.0825C14.8805 15.9265 14.8156 15.7006 14.8666 15.4856C14.9163 15.2706 15.0754 15.0978 15.2842 15.0276L16.6352 14.5776C16.8651 14.5025 17.1174 14.5621 17.2865 14.7317C17.4568 14.902 17.5164 15.1543 17.4406 15.383L16.9907 16.7328C16.921 16.9416 16.7471 17.1001 16.5333 17.151C16.4848 17.1623 16.4351 17.1678 16.3866 17.1678C16.22 17.1678 16.0572 17.1025 15.9367 16.982L13.0646 19.8532L14.0412 20.1787C14.2699 20.2546 14.5198 20.1974 14.6925 20.0252L15.0359 19.6819C14.9166 19.5626 14.8491 19.4001 14.8491 19.2311C14.8491 19.062 14.9163 18.8998 15.0356 18.7805L15.9367 17.8807C16.1853 17.6333 16.588 17.6327 16.8365 17.8813L17.7363 18.7811C17.9849 19.0296 17.9849 19.4323 17.7363 19.6809ZM23.6364 15.1001L16.8999 8.36367L21.7273 3.53624L28.4638 10.2728L23.6364 15.1001Z" fill="#333333"/>
<path d="M19.3596 7.92308C19.1197 8.17293 19.1234 8.56877 19.3683 8.81361L20.0047 9.44999C20.1289 9.57426 20.2918 9.63642 20.4546 9.63642C20.6174 9.63642 20.7802 9.57426 20.9046 9.44999L22.8136 7.5409C23.0622 7.2923 23.0622 6.8896 22.8136 6.64106L22.1773 6.00468C22.1164 5.94377 22.043 5.89407 21.9635 5.86239C21.516 5.68151 21.516 5.67655 19.3596 7.92308Z" fill="#333333"/>
<path d="M22.5513 11.9967L23.1877 12.633C23.312 12.7573 23.4748 12.8195 23.6376 12.8195C23.8005 12.8195 23.9633 12.7573 24.0876 12.633L25.9967 10.7239C26.2453 10.4753 26.2453 10.0726 25.9967 9.82411L25.3603 9.18773C25.2994 9.12681 25.2261 9.07712 25.1465 9.04544C24.7004 8.86461 24.6991 8.8596 22.5427 11.1062C22.3028 11.356 22.3065 11.7518 22.5513 11.9967Z" fill="#333333"/>
</svg>
