<svg width="32" height="32" viewBox="0 0 32 32" fill="none" xmlns="http://www.w3.org/2000/svg">
<path d="M6.39413 23.4254L7.94548 22.1582H11.3227L11.2521 28.6989H3.89571L2 23.4254C3.83085 23.4254 6.33039 23.4242 6.39413 23.4254Z" fill="#333333"/>
<path d="M8.47045 8.01355C9.838 8.01355 10.9506 6.90098 10.9506 5.53343C10.9506 4.87399 10.6967 4.24609 10.2358 3.76527C9.25786 2.74504 7.68325 2.74478 6.70508 3.76527C6.2442 4.24604 5.99033 4.87399 5.99033 5.53343C5.99033 6.90098 7.1029 8.01355 8.47045 8.01355Z" fill="#333333"/>
<path d="M27.828 19.7435C25.7219 18.6052 22.9094 19.7602 22.8813 19.772C22.478 19.9411 22.0143 19.7511 21.8453 19.3479C21.6764 18.9447 21.8663 18.4809 22.2695 18.312C22.3905 18.2613 24.8284 17.2615 27.2473 17.8447C29.0555 16.1956 30 14.3046 30 12.2879C30 8.35986 26.7806 5.16415 22.8235 5.16415C22.6087 5.16415 22.3998 5.17096 22.1954 5.18309C20.5264 5.36731 19.217 6.27324 18.2975 7.88431C17.4773 9.32135 17.2784 10.8002 17.2765 10.815C17.2248 11.214 16.8842 11.5057 16.4922 11.5057C16.0151 11.5057 15.6466 11.0887 15.706 10.6163C15.8234 9.67823 16.2631 8.26588 16.9092 7.12397C16.3767 6.96434 15.7901 6.85274 15.2249 6.85274C11.9951 6.85274 9.36758 9.48029 9.36758 12.71C9.36758 15.3012 11.2781 17.7256 13.9582 18.4577C14.2354 16.9025 15.5965 15.7178 17.2301 15.7178C17.6672 15.7178 18.0216 16.0722 18.0216 16.5094C18.0216 16.9465 17.6672 17.3009 17.2301 17.3009C16.2699 17.3009 15.4887 18.0821 15.4887 19.0423C15.4887 20.0024 16.2699 20.7836 17.2301 20.7836C17.6672 20.7836 18.0216 21.138 18.0216 21.5751C18.0216 22.0123 17.6672 22.3667 17.2301 22.3667C16.0361 22.3667 14.9875 21.7337 14.4012 20.7859C13.6247 21.2106 12.9558 22.1582 12.9558 22.1582V24.0553C12.9558 28.8388 12.9608 28.4958 12.944 28.6989H24.5121C27.6009 28.6989 30.1049 26.1572 29.9964 23.0718C29.633 21.4441 28.9046 20.3253 27.828 19.7435Z" fill="#333333"/>
</svg>
