<svg width="32" height="32" viewBox="0 0 32 32" fill="none" xmlns="http://www.w3.org/2000/svg">
<path d="M23 16C23 13.2467 21.4133 10.8822 19.1111 9.73111V13.1689L22.9222 16.98C22.9689 16.6689 23 16.3422 23 16ZM26.8889 16C26.8889 17.4622 26.5778 18.8311 26.0489 20.1067L28.3978 22.4556C29.4244 20.5267 30 18.3333 30 16C30 9.34222 25.3489 3.77333 19.1111 2.35778V5.56222C23.6067 6.9 26.8889 11.0689 26.8889 16ZM3.97556 2L2 3.97556L9.35778 11.3333H2V20.6667H8.22222L16 28.4444V17.9756L22.6111 24.5867C21.5689 25.3956 20.4022 26.0333 19.1111 26.4222V29.6267C21.2578 29.1444 23.2022 28.1489 24.8511 26.8111L28.0244 30L30 28.0244L16 14.0244L3.97556 2ZM16 3.55556L12.7489 6.80667L16 10.0578V3.55556Z" fill="#333333"/>
</svg>
