<svg width="34" height="30" viewBox="0 0 34 30" fill="none" xmlns="http://www.w3.org/2000/svg">
<path d="M27.2111 0.7612C28.1551 1.70521 28.9942 2.72789 29.7284 3.82923C30.4627 4.93058 31.0763 6.08437 31.5693 7.29061C32.0727 8.49684 32.4556 9.75028 32.7178 11.0509C32.98 12.3516 33.1111 13.6679 33.1111 15C33.1111 16.3426 32.98 17.6642 32.7178 18.9649C32.4556 20.255 32.0727 21.5032 31.5693 22.7094C31.0763 23.9157 30.4627 25.0695 29.7284 26.1708C28.9942 27.2722 28.1551 28.2948 27.2111 29.2389L25.7793 27.8071C26.6289 26.9575 27.3841 26.0397 28.045 25.0537C28.7058 24.0573 29.2617 23.0189 29.7127 21.9385C30.1637 20.8476 30.5046 19.7201 30.7354 18.5558C30.9661 17.3915 31.0815 16.2063 31.0815 15C31.0815 13.7938 30.9661 12.6085 30.7354 11.4443C30.5046 10.28 30.1637 9.15765 29.7127 8.07728C29.2617 6.98643 28.7058 5.94801 28.045 4.96205C27.3841 3.96559 26.6289 3.04256 25.7793 2.19295L27.2111 0.7612ZM27.0695 15C27.0695 16.888 26.7128 18.6869 25.9996 20.3966C25.2863 22.1063 24.2689 23.6325 22.9473 24.9751L21.5155 23.5433C22.6588 22.4 23.5347 21.0941 24.143 19.6257C24.7514 18.1572 25.0556 16.6153 25.0556 15C25.0556 13.3847 24.7514 11.8428 24.143 10.3744C23.5347 8.90591 22.6588 7.60003 21.5155 6.45673L22.9473 5.02498C24.2689 6.36757 25.2863 7.89372 25.9996 9.60343C26.7128 11.3131 27.0695 13.112 27.0695 15ZM18.6678 9.3045C19.4335 10.0702 20.0156 10.9408 20.4142 11.9163C20.8233 12.8917 21.0278 13.9197 21.0278 15C21.0278 16.0804 20.8233 17.1083 20.4142 18.0838C20.0156 19.0593 19.4335 19.9299 18.6678 20.6956L17.2518 19.2795C17.8182 18.7131 18.2535 18.0628 18.5576 17.3286C18.8618 16.5839 19.0139 15.8077 19.0139 15C19.0139 14.1924 18.8618 13.4214 18.5576 12.6872C18.2535 11.9425 17.8182 11.2869 17.2518 10.7205L18.6678 9.3045ZM11.5405 2.91669H12.9723V27.0834H11.5562L5.49883 21.0417H0.888916V8.95836H5.49883L11.5405 2.91669ZM10.9584 6.36233L6.34844 10.9722H2.90281V19.0278H6.34844L10.9584 23.6377V6.36233Z" fill="white"/>
</svg>
