<svg width="34" height="30" viewBox="0 0 34 30" fill="none" xmlns="http://www.w3.org/2000/svg">
<path d="M27.2108 0.7612C28.1548 1.70521 28.994 2.72789 29.7282 3.82923C30.4624 4.93058 31.076 6.08437 31.569 7.29061C32.0725 8.49684 32.4553 9.75028 32.7176 11.0509C32.9798 12.3516 33.1109 13.6679 33.1109 15C33.1109 16.3426 32.9798 17.6642 32.7176 18.9649C32.4553 20.255 32.0725 21.5032 31.569 22.7094C31.076 23.9157 30.4624 25.0695 29.7282 26.1708C28.994 27.2722 28.1548 28.2948 27.2108 29.2389L25.7791 27.8071C26.6287 26.9575 27.3839 26.0397 28.0447 25.0537C28.7055 24.0573 29.2614 23.0189 29.7125 21.9385C30.1635 20.8476 30.5044 19.7201 30.7351 18.5558C30.9659 17.3915 31.0813 16.2063 31.0813 15C31.0813 13.7938 30.9659 12.6085 30.7351 11.4443C30.5044 10.28 30.1635 9.15765 29.7125 8.07728C29.2614 6.98643 28.7055 5.94801 28.0447 4.96205C27.3839 3.96559 26.6287 3.04256 25.7791 2.19295L27.2108 0.7612ZM27.0692 15C27.0692 16.888 26.7126 18.6869 25.9994 20.3966C25.2861 22.1063 24.2687 23.6325 22.9471 24.9751L21.5153 23.5433C22.6586 22.4 23.5344 21.0941 24.1428 19.6257C24.7512 18.1572 25.0553 16.6153 25.0553 15C25.0553 13.3847 24.7512 11.8428 24.1428 10.3744C23.5344 8.90591 22.6586 7.60003 21.5153 6.45673L22.9471 5.02498C24.2687 6.36757 25.2861 7.89372 25.9994 9.60343C26.7126 11.3131 27.0692 13.112 27.0692 15ZM18.6675 9.3045C19.4332 10.0702 20.0154 10.9408 20.414 11.9163C20.823 12.8917 21.0276 13.9197 21.0276 15C21.0276 16.0804 20.823 17.1083 20.414 18.0838C20.0154 19.0593 19.4332 19.9299 18.6675 20.6956L17.2515 19.2795C17.8179 18.7131 18.2532 18.0628 18.5574 17.3286C18.8616 16.5839 19.0137 15.8077 19.0137 15C19.0137 14.1924 18.8616 13.4214 18.5574 12.6872C18.2532 11.9425 17.8179 11.2869 17.2515 10.7205L18.6675 9.3045ZM11.5403 2.91669H12.972V27.0834H11.556L5.49859 21.0417H0.888672V8.95836H5.49859L11.5403 2.91669ZM10.9581 6.36233L6.3482 10.9722H2.90256V19.0278H6.3482L10.9581 23.6377V6.36233Z" fill="black"/>
</svg>
