<svg width="32" height="32" viewBox="0 0 32 32" fill="none" xmlns="http://www.w3.org/2000/svg">
<path d="M30 25.1893V6L25.5944 6.00017V25.1893H30ZM27.0629 7.46873H28.5315V23.7208H27.0629V7.46873Z" fill="#333333"/>
<path d="M18.2516 25.1893V11.9723H13.8459V25.1893H18.2516ZM15.3145 13.4409H16.783V23.7208H15.3145V13.4409Z" fill="#333333"/>
<path d="M12.3773 25.1893V14.9094H7.97166L7.97165 25.1893H12.3773ZM9.44022 16.378H10.9088V23.7208H9.44022V16.378Z" fill="#333333"/>
<path fill-rule="evenodd" clip-rule="evenodd" d="M24.1258 25.1893V9.03519H19.7202V25.1893H24.1258ZM22.6573 10.5037H21.1887V23.7208H22.6573V10.5037Z" fill="#333333"/>
<path d="M15.3145 13.4409H16.783V23.7208H15.3145V13.4409Z" fill="#333333"/>
<path d="M9.44022 16.378H10.9088V23.7208H9.44022V16.378Z" fill="#333333"/>
<path d="M6.40569 25.1893V18.1611H2.00001L2 25.1893H6.40569ZM3.46857 19.6297H4.93713V23.7208H3.46857V19.6297Z" fill="#333333"/>
<path d="M3.46857 19.6297H4.93713V23.7208H3.46857V19.6297Z" fill="#333333"/>
</svg>
