<svg width="42" height="42" viewBox="0 0 42 42" fill="none" xmlns="http://www.w3.org/2000/svg">
<path fill-rule="evenodd" clip-rule="evenodd" d="M34.8047 26.0827L34.8221 24.0483L41 20.3192L38.5112 14.8671C38.2125 15.5346 38.239 16.0679 37.6992 16.5563C36.5365 17.6154 35.018 18.7814 32.6696 18.7814L23.1526 18.8505C21.8403 18.8505 20.7927 18.5915 20.0099 18.0735L20.4934 16.4675L21.8057 13.4629V11.9088L20.8733 9.6467L20.5 9H5L8.59906 23.2735L13.0009 23.3111L12.9915 24.4031L10.798 24.3843L1.81365 30.8867C1.52349 31.0967 1.40099 31.4692 1.5099 31.8104C1.61881 32.1516 1.93451 32.3841 2.29267 32.3871L10.1388 32.4542L11.5374 29.7158L13.9258 29.7363C14.1566 31.3278 15.0807 32.6973 16.384 33.5253L1 33.1399L1.28542 34.2427L40.3039 34.1246L34.6241 33.9823C36.0604 33.2418 37.0482 31.7496 37.0629 30.0215C37.0773 28.3383 36.1651 26.8647 34.8047 26.0827ZM21.9487 33.6647L30.3126 33.8743C28.9605 33.0891 28.0567 31.6199 28.0711 29.9446C28.0806 28.8243 28.4998 27.8033 29.1836 27.0225L28.5335 26.1942L24.7194 26.1616L24.6951 28.9992C24.678 31.0027 23.5745 32.7427 21.9487 33.6647Z" fill="#333333"/>
<path d="M21.2433 17.3125L21.6663 15.8163C22.341 16.2453 23.0862 16.4598 23.9019 16.4598C24.5666 16.4598 25.06 16.2989 25.3823 15.9772C25.7146 15.6447 25.8808 15.2478 25.8808 14.7866C25.8808 14.2075 25.6643 13.7677 25.2312 13.4674C24.7982 13.1671 24.2745 13.017 23.6602 13.017H22.8143V11.569H23.6451C24.1386 11.569 24.5817 11.4457 24.9744 11.199C25.3772 10.9523 25.5787 10.593 25.5787 10.1211C25.5787 9.73497 25.4427 9.41857 25.1708 9.17189C24.909 8.92521 24.5213 8.80186 24.0077 8.80186C23.2926 8.80186 22.623 9.02173 21.9986 9.46148L21.5756 8.02963C21.8777 7.81512 22.2856 7.62743 22.7992 7.46655C23.3229 7.30567 23.8566 7.22523 24.4004 7.22523C25.3772 7.22523 26.1325 7.47191 26.6663 7.96528C27.2 8.44792 27.4669 9.05391 27.4669 9.78324C27.4669 10.341 27.3108 10.8343 26.9986 11.2633C26.6965 11.6816 26.2483 12.0034 25.6542 12.2286V12.2608C26.2786 12.3895 26.7922 12.6845 27.195 13.1457C27.6079 13.6068 27.8143 14.1807 27.8143 14.8671C27.8143 15.7787 27.4719 16.5349 26.7871 17.1355C26.1023 17.7361 25.1708 18.0364 23.9925 18.0364C22.8445 18.0364 21.9281 17.7951 21.2433 17.3125Z" fill="#333333"/>
<path d="M28.6438 17.8917V7.24132C29.5703 7.08044 30.5572 7 31.6046 7C33.4273 7 34.807 7.41829 35.7436 8.25487C36.811 9.16653 37.3448 10.4965 37.3448 12.2447C37.3448 14.1002 36.8161 15.5374 35.7587 16.5563C34.7415 17.5431 33.2058 18.0365 31.1514 18.0365C30.2249 18.0365 29.3891 17.9882 28.6438 17.8917ZM30.5018 8.65708C30.5018 8.65708 30.3306 16.3955 30.5018 16.4276C30.673 16.4598 31.0154 16.4759 31.529 16.4759C32.7476 16.4866 33.6942 16.1381 34.3689 15.4302C35.0437 14.7116 35.381 13.6712 35.381 12.3091C35.3911 11.1186 35.0789 10.1962 34.4445 9.54192C33.8201 8.87695 32.9288 8.54446 31.7707 8.54446C31.2471 8.54446 30.8241 8.582 30.5018 8.65708Z" fill="#333333"/>
</svg>
