<svg width="42" height="42" viewBox="0 0 42 42" fill="none" xmlns="http://www.w3.org/2000/svg">
<path d="M25.9339 18.0104H33.7083C33.3168 11.0238 28.5666 5.23021 22.2412 3.51649C22.8587 4.35601 23.4228 5.40666 23.9174 6.65468C25.1359 9.72972 25.8437 13.7323 25.9339 18.0104Z" fill="#333333"/>
<path d="M10.7743 19.8787H3C3.39138 26.8653 8.14167 32.6589 14.467 34.3726C13.8496 33.5331 13.2854 32.4825 12.7909 31.2344C11.5723 28.1594 10.8645 24.1568 10.7743 19.8787Z" fill="#333333"/>
<path d="M10.7743 18.0105C10.8644 13.7324 11.5723 9.72978 12.7909 6.65468C13.2854 5.40666 13.8496 4.35601 14.467 3.51649C8.14167 5.23027 3.39138 11.0239 3 18.0105H10.7743Z" fill="#333333"/>
<path fill-rule="evenodd" clip-rule="evenodd" d="M31.2906 22.4444L32.6858 24.7326C33.2587 23.2134 33.6123 21.5814 33.7076 19.8787H25.9333C25.8938 21.753 25.7357 23.5744 25.4681 25.2881L27.2021 22.4444H31.2906Z" fill="#333333"/>
<path fill-rule="evenodd" clip-rule="evenodd" d="M24.1289 19.8787H12.5752C12.6636 23.915 13.3233 27.666 14.4561 30.5245C15.5552 33.2981 16.9752 34.8889 18.3521 34.8889C18.9523 34.8889 19.5607 34.5866 20.1471 34.0157L22.1945 30.658C22.2124 30.6138 22.2303 30.5693 22.248 30.5245C23.3808 27.666 24.0405 23.915 24.1289 19.8787Z" fill="#333333"/>
<path d="M12.5752 18.0102H24.1288C24.0404 13.9739 23.3807 10.2229 22.2479 7.36442C21.1488 4.59077 19.7288 3 18.352 3C16.9752 3 15.5552 4.59077 14.4561 7.36442C13.3233 10.2229 12.6636 13.9739 12.5752 18.0102Z" fill="#333333"/>
<path fill-rule="evenodd" clip-rule="evenodd" d="M21.6844 38L23.5182 35.0079H34.9744L36.8076 38H39L30.4635 24H28.0284L19.4921 38H21.6844ZM29.2414 25.5331L34.0624 33.4647H24.4295L29.2414 25.5331Z" fill="#333333"/>
</svg>
