<svg width="42" height="42" viewBox="0 0 42 42" fill="none" xmlns="http://www.w3.org/2000/svg">
<path fill-rule="evenodd" clip-rule="evenodd" d="M28.9743 8H3.46678L7.12428 22.6514H11.568V23.7554H9.35358L0.340537 30.4063C0.0494575 30.6211 -0.0709902 30.9988 0.041892 31.3428C0.154774 31.6868 0.475464 31.9193 0.837028 31.9193H8.75776L10.1459 29.1389L12.5571 29.1388C12.9599 31.7631 15.2244 33.7727 17.9575 33.7727C18.8926 33.7727 19.7729 33.5375 20.5425 33.1229C19.1375 31.7897 18.2612 29.9034 18.2612 27.8121C18.2612 23.772 21.5315 20.4969 25.5657 20.4969C26.5063 20.4969 27.4072 20.6759 28.2347 21.0013L30.3299 18.9031L31.3124 22.5751C32.701 21.2582 34.5579 20.4969 36.5216 20.4969C36.9632 20.4969 37.3956 20.5361 37.8155 20.6113L39.8055 19.3849L37.9716 14.4875H28.9743V8Z" fill="#333333"/>
<path d="M21.9134 28.1167C21.9134 26.0967 23.5486 24.4591 25.5657 24.4591C26.1753 24.4591 26.75 24.6084 27.2554 24.8731L26.589 25.5405L30.4079 26.5653L29.3846 22.7407L28.587 23.5396C27.7212 22.9654 26.6824 22.6303 25.5657 22.6303C22.5401 22.6303 20.0873 25.0867 20.0873 28.1167C20.0873 31.1468 22.5401 33.6031 25.5657 33.6031C27.5858 33.6031 29.4578 32.5416 30.4971 30.8069L33.1569 26.3675C33.8662 25.1835 35.143 24.4591 36.5216 24.4591C38.5387 24.4591 40.1739 26.0967 40.1739 28.1167C40.1739 30.1367 38.5387 31.7743 36.5216 31.7743C35.3273 31.7743 34.267 31.2012 33.5991 30.3107L32.139 31.4091C33.1369 32.7396 34.7287 33.6031 36.5216 33.6031C39.5473 33.6031 42 31.1468 42 28.1167C42 25.0867 39.5473 22.6303 36.5216 22.6303C34.5015 22.6303 32.6303 23.6918 31.591 25.4265L28.9312 29.866C28.2219 31.0499 26.9443 31.7743 25.5657 31.7743C23.5486 31.7743 21.9134 30.1367 21.9134 28.1167Z" fill="#333333"/>
</svg>
