<svg width="42" height="42" viewBox="0 0 42 42" fill="none" xmlns="http://www.w3.org/2000/svg">
<path d="M23.6601 29.7291C23.6601 27.8847 25.1531 26.3896 26.9948 26.3896C27.5514 26.3896 28.0761 26.5259 28.5376 26.7675L27.9291 27.3769L31.416 28.3126L30.4816 24.8206L29.7533 25.55C28.9628 25.0257 28.0144 24.7198 26.9948 24.7198C24.2323 24.7198 21.9928 26.9625 21.9928 29.7291C21.9928 32.4957 24.2323 34.7384 26.9948 34.7384C28.8392 34.7384 30.5484 33.7693 31.4974 32.1853L33.9259 28.132C34.5735 27.051 35.7393 26.3896 36.998 26.3896C38.8397 26.3896 40.3327 27.8847 40.3327 29.7291C40.3327 31.5735 38.8397 33.0686 36.998 33.0686C35.9076 33.0686 34.9394 32.5454 34.3296 31.7323L32.9965 32.7352C33.9077 33.95 35.361 34.7384 36.998 34.7384C39.7605 34.7384 42 32.4957 42 29.7291C42 26.9625 39.7605 24.7198 36.998 24.7198C35.1536 24.7198 33.4451 25.689 32.4961 27.2729L30.0677 31.3263C29.42 32.4072 28.2535 33.0686 26.9948 33.0686C25.1531 33.0686 23.6601 31.5735 23.6601 29.7291Z" fill="#333333"/>
<path d="M39.2609 17.587L25.4218 17.5673C26.0877 16.1059 27.1674 14.8555 28.5367 13.9597C29.9059 13.0639 31.5093 12.559 33.1626 12.5032H39.9853L42 9.13371H32.1357C29.5393 9.24447 27.0381 10.1098 24.9601 11.6161C22.8821 13.1225 21.3242 15.1996 20.4906 17.5752H20.1908V8H6.81245L9.89308 24.885H16.1202V26.5737H14.3128L0 33.3245L0.312203 34.4523H10.5996L14.3375 31.9192H17.3977C18.1367 32.9404 19.1739 33.5652 19.1739 33.5652C19.1739 33.5652 20.5435 34.4783 21.9131 34.4783C20.5435 33.1087 20.3255 31.3604 20.3255 29.4509C20.3255 25.7622 23.3114 22.7719 26.9948 22.7719C27.8536 22.7719 28.6762 22.9353 29.4317 23.2325L31.3447 21.3167L32.2417 24.6693C33.5097 23.4669 35.2051 22.7719 36.998 22.7719C37.4012 22.7719 38.8043 23.0652 39.2609 23.5217V17.587Z" fill="#333333"/>
</svg>
