<svg width="42" height="42" viewBox="0 0 42 42" fill="none" xmlns="http://www.w3.org/2000/svg">
<path fill-rule="evenodd" clip-rule="evenodd" d="M19.2319 27.868L14.2077 22.8405L16.7046 20.342L21.7287 25.3678H23.0321L28.0579 20.342L30.5547 22.8371L25.6185 27.7716L25.5289 27.8646V29.168L30.5547 34.1921L28.0596 36.6906L23.0338 31.6648H21.7304L16.7063 36.6906L14.2077 34.1955L19.2319 29.1714V27.868ZM23.6239 28.2746C23.575 28.0289 23.4543 27.8033 23.2772 27.6262C23.0395 27.3893 22.7177 27.2563 22.3821 27.2563C22.0465 27.2563 21.7246 27.3893 21.487 27.6262C21.3098 27.8033 21.1892 28.0289 21.1403 28.2746C21.0914 28.5202 21.1164 28.7748 21.2122 29.0062C21.308 29.2376 21.4703 29.4354 21.6786 29.5745C21.8868 29.7137 22.1316 29.788 22.3821 29.788C22.6325 29.788 22.8774 29.7137 23.0856 29.5745C23.2938 29.4354 23.4561 29.2376 23.5519 29.0062C23.6478 28.7748 23.6728 28.5202 23.6239 28.2746ZM28.0832 35.5868L25.0269 32.5287L26.555 32.5219L28.8524 34.8193L28.0832 35.5868ZM15.3201 34.2259L18.3782 31.1678L18.3849 32.696L16.0876 34.9951L15.3201 34.2259ZM16.6742 21.4628L19.7306 24.5209L18.204 24.5259L15.905 22.2302L16.6742 21.4628ZM29.439 22.8152L26.3792 25.8732L26.3725 24.3467L28.6715 22.0494L29.439 22.8152Z" fill="#333333"/>
<path d="M31.3499 32.4345H32.8544V31.2739H31.3499V32.4345Z" fill="#333333"/>
<path d="M34.0579 32.4345H35.5624V31.2739H34.0579V32.4345Z" fill="#333333"/>
<path d="M36.766 32.4345H37.5182V31.2739H36.766V32.4345Z" fill="#333333"/>
<path d="M31.7153 34.7556H32.4675V33.5951H31.7153V34.7556Z" fill="#333333"/>
<path d="M33.6711 34.7556H35.1756V33.5951H33.6711V34.7556Z" fill="#333333"/>
<path d="M36.3791 34.7556H37.8836V33.5951H36.3791V34.7556Z" fill="#333333"/>
<path d="M39.0872 34.7556H39.8394V33.5951H39.0872V34.7556Z" fill="#333333"/>
<path d="M32.8759 37.0768H33.6281V35.9162H32.8759V37.0768Z" fill="#333333"/>
<path d="M34.8317 37.0768H36.3361V35.9162H34.8317V37.0768Z" fill="#333333"/>
<path d="M37.5397 37.0768H39.0442V35.9162H37.5397V37.0768Z" fill="#333333"/>
<path d="M40.2478 37.0768H41V35.9162H40.2478V37.0768Z" fill="#333333"/>
<path d="M7.66493 26.6939H6.18228V38.1517H7.66493V26.6939Z" fill="#333333"/>
<path d="M10.1712 25.7797H8.68854V37.2375H10.1712V25.7797Z" fill="#333333"/>
<path d="M12.6756 24.8906H11.1929V36.3484H12.6756V24.8906Z" fill="#333333"/>
<path d="M1.01335 35.2419H5.02169V24H9.82353L16.8824 16.9412L23.0856 22.8405L26.8029 19.2213L16.1455 4.0016L1 4L1.01335 35.2419Z" fill="#333333"/>
</svg>
