<svg width="42" height="42" viewBox="0 0 42 42" fill="none" xmlns="http://www.w3.org/2000/svg">
<path fill-rule="evenodd" clip-rule="evenodd" d="M37.5 10.1765C37.5 7.96731 35.7091 6.17645 33.5 6.17645H4C1.79086 6.17645 0 7.96731 0 10.1765V28.647C0 30.8562 1.79086 32.647 4 32.647H26.0268L25.0919 30.3905L26.7851 29.3382L25.0919 28.287L27.0134 23.6566L28.9522 24.1003L28.5084 22.1616L33.1399 20.24L34.1912 21.9321L35.2424 20.24L37.5 21.1771V10.1765Z" fill="#333333"/>
<path d="M39.9469 29.0652C39.9469 29.1107 39.9469 29.1562 39.9469 29.2017C39.952 29.2472 39.9545 29.2927 39.9545 29.3382C39.9545 29.3837 39.952 29.4292 39.9469 29.4747C39.9469 29.5202 39.9469 29.5657 39.9469 29.6112L41.9112 30.8323L40.7053 33.737L38.4528 33.2212C38.3315 33.3527 38.2051 33.4791 38.0736 33.6004L38.5894 35.8529L35.6847 37.0588L34.4636 35.0945C34.4181 35.0945 34.3726 35.097 34.3271 35.1021C34.2816 35.1021 34.2361 35.1021 34.1906 35.1021C34.1451 35.1021 34.0996 35.1021 34.0541 35.1021C34.0086 35.097 33.9631 35.0945 33.9176 35.0945L32.6965 37.0588L29.7918 35.8529L30.3075 33.6004C30.1761 33.4791 30.0497 33.3527 29.9283 33.2212L27.6759 33.737L26.47 30.8323L28.4343 29.6112C28.4343 29.5657 28.4318 29.5202 28.4267 29.4747C28.4267 29.4292 28.4267 29.3837 28.4267 29.3382C28.4267 29.2927 28.4267 29.2472 28.4267 29.2017C28.4318 29.1562 28.4343 29.1107 28.4343 29.0652L26.47 27.8441L27.6759 24.9394L29.9283 25.4551C30.0497 25.3237 30.1761 25.1973 30.3075 25.0759L29.7918 22.8235L32.6965 21.6176L33.9176 23.5819C33.9631 23.5819 34.0086 23.5819 34.0541 23.5819C34.0996 23.5768 34.1451 23.5743 34.1906 23.5743C34.2361 23.5743 34.2816 23.5768 34.3271 23.5819C34.3726 23.5819 34.4181 23.5819 34.4636 23.5819L35.6847 21.6176L38.5894 22.8235L38.0736 25.0759C38.2051 25.1973 38.3315 25.3237 38.4528 25.4551L40.7053 24.9394L41.9112 27.8441L39.9469 29.0652ZM34.1906 31.3404C34.4687 31.3404 34.7291 31.2898 34.9718 31.1887C35.2144 31.0825 35.4268 30.9384 35.6088 30.7564C35.7908 30.5744 35.9324 30.362 36.0335 30.1193C36.1397 29.8767 36.1928 29.6163 36.1928 29.3382C36.1928 29.0601 36.1397 28.7997 36.0335 28.557C35.9324 28.3143 35.7908 28.102 35.6088 27.92C35.4268 27.7379 35.2144 27.5964 34.9718 27.4953C34.7291 27.3891 34.4687 27.336 34.1906 27.336C33.9125 27.336 33.6521 27.3891 33.4094 27.4953C33.1667 27.5964 32.9544 27.7379 32.7724 27.92C32.5904 28.102 32.4463 28.3143 32.3401 28.557C32.239 28.7997 32.1884 29.0601 32.1884 29.3382C32.1884 29.6163 32.239 29.8767 32.3401 30.1193C32.4463 30.362 32.5904 30.5744 32.7724 30.7564C32.9544 30.9384 33.1667 31.0825 33.4094 31.1887C33.6521 31.2898 33.9125 31.3404 34.1906 31.3404Z" fill="#333333"/>
</svg>
