<svg width="42" height="42" viewBox="0 0 42 42" fill="none" xmlns="http://www.w3.org/2000/svg">
<path fill-rule="evenodd" clip-rule="evenodd" d="M34.4204 20.3635V20.6817C34.4322 20.7878 34.4381 20.8939 34.4381 21C34.4381 21.1061 34.4322 21.2122 34.4204 21.3183V21.6365L39 24.4833L36.1886 31.2554L35.9847 31.2087L27.3846 22.5971C27.5584 21.9798 27.6434 21.3496 27.6433 20.7229C27.6431 18.9198 26.9386 17.1495 25.6161 15.8269C23.6706 13.8815 20.7572 13.2732 18.1939 14.2774L21.8693 17.9527L21 21L17.9529 21.8689L14.2776 18.1936C13.2736 20.7568 13.8817 23.6702 15.8272 25.6158C17.6094 27.398 20.2038 28.058 22.5973 27.3842L31.2154 36.0138L31.2554 36.1886L24.4833 39L21.6365 34.4204C21.5305 34.4204 21.4244 34.4263 21.3183 34.4381H21H20.6817C20.5756 34.4263 20.4695 34.4204 20.3635 34.4204L17.5167 39L10.7446 36.1886L11.947 30.9371C11.6405 30.6542 11.3458 30.3595 11.0629 30.053L5.81139 31.2554L3 24.4833L7.57957 21.6365C7.57957 21.5305 7.57367 21.4244 7.56189 21.3183V21V20.6817C7.57367 20.5756 7.57957 20.4695 7.57957 20.3635L3 17.5167L5.81139 10.7446L11.0629 11.947C11.3458 11.6405 11.6405 11.3458 11.947 11.0629L10.7446 5.81139L17.5167 3L20.3635 7.57957H20.6817C20.7878 7.56778 20.8939 7.56189 21 7.56189C21.1061 7.56189 21.2122 7.56778 21.3183 7.57957H21.6365L24.4833 3L31.2554 5.81139L30.053 11.0629C30.3595 11.3458 30.6542 11.6405 30.9371 11.947L36.1886 10.7446L39 17.5167L34.4204 20.3635Z" fill="#333333"/>
</svg>
