<svg width="42" height="42" viewBox="0 0 42 42" fill="none" xmlns="http://www.w3.org/2000/svg">
<path d="M39.3806 33.3888C37.6325 34.451 35.6465 35.0589 33.6034 35.1573C31.5603 35.2557 29.525 34.8414 27.683 33.9521C24.546 32.4284 20.9818 32.0251 17.5837 32.8093C16.4593 33.0678 15.3672 33.4511 14.3278 33.9521C12.4856 34.846 10.4484 35.2628 8.40309 35.1644C6.35782 35.066 4.37003 34.4554 2.62215 33.3888L1.16669 36.0814C3.34189 37.3772 5.80487 38.1124 8.33444 38.2211C10.864 38.3297 13.381 37.8084 15.6593 36.704C17.325 35.8936 19.1531 35.4726 21.0054 35.4726C22.8577 35.4726 24.6858 35.8936 26.3515 36.704C28.6284 37.8054 31.1427 38.3257 33.6697 38.2185C36.1968 38.1113 38.6579 37.3798 40.8334 36.0895L39.3806 33.3888Z" fill="#333333"/>
<path d="M40.1651 20.5728V3.76489L1.95122 29.7448H30.993C32.1978 29.7459 33.391 29.5094 34.5043 29.0488C35.6176 28.5883 36.6291 27.9127 37.4811 27.0608C38.333 26.2089 39.0085 25.1973 39.4691 24.084C39.9297 22.9707 40.1662 21.7776 40.1651 20.5728Z" fill="#333333"/>
</svg>
