<svg width="42" height="42" viewBox="0 0 42 42" fill="none" xmlns="http://www.w3.org/2000/svg">
<path fill-rule="evenodd" clip-rule="evenodd" d="M5.75 7.00018H36.25C38.4591 7.00018 40.25 8.79105 40.25 11.0002V31.0002C40.25 33.2093 38.4591 35.0002 36.25 35.0002H5.75C3.54086 35.0002 1.75 33.2093 1.75 31.0002V11.0002C1.75 8.79104 3.54086 7.00018 5.75 7.00018ZM24.9147 20.9072V20.8144L26.2504 19.9841L25.4304 18.0089L23.8987 18.3596C23.8162 18.2702 23.7303 18.1842 23.6409 18.1017L23.9916 16.5701L22.0164 15.7501L21.186 17.0858H21.0932C21.0623 17.0823 21.0313 17.0806 21.0004 17.0806C20.9694 17.0806 20.9385 17.0823 20.9076 17.0858H20.8147L19.9844 15.7501L18.0092 16.5701L18.3599 18.1017C18.2705 18.1842 18.1846 18.2702 18.1021 18.3596L16.5704 18.0089L15.7504 19.9841L17.0861 20.8144C17.0861 20.8453 17.0844 20.8763 17.0809 20.9072V21.0001V21.0929C17.0844 21.1238 17.0861 21.1548 17.0861 21.1857L15.7504 22.016L16.5704 23.9912L18.1021 23.6405C18.1846 23.7299 18.2705 23.8159 18.3599 23.8984L18.0092 25.4301L19.9844 26.2501L20.8147 24.9144C20.8457 24.9144 20.8766 24.9161 20.9076 24.9195H21.0004H21.0932C21.1242 24.9161 21.1551 24.9144 21.186 24.9144L22.0164 26.2501L23.9916 25.4301L23.6409 23.8984C23.7303 23.8159 23.8162 23.7299 23.8987 23.6405L25.4304 23.9912L26.2504 22.016L24.9147 21.1857V21.0929C24.9181 21.0619 24.9198 21.031 24.9198 21.0001C24.9198 20.9691 24.9181 20.9382 24.9147 20.9072ZM21.0004 22.3616C21.1895 22.3616 21.3665 22.3272 21.5316 22.2584C21.6966 22.1862 21.841 22.0882 21.9648 21.9645C22.0886 21.8407 22.1848 21.6963 22.2536 21.5312C22.3258 21.3662 22.3619 21.1892 22.3619 21.0001C22.3619 20.811 22.3258 20.6339 22.2536 20.4689C22.1848 20.3038 22.0886 20.1594 21.9648 20.0357C21.841 19.9119 21.6966 19.8156 21.5316 19.7469C21.3665 19.6747 21.1895 19.6386 21.0004 19.6386C20.8113 19.6386 20.6342 19.6747 20.4692 19.7469C20.3042 19.8156 20.1598 19.9119 20.036 20.0357C19.9122 20.1594 19.8142 20.3038 19.742 20.4689C19.6733 20.6339 19.6389 20.811 19.6389 21.0001C19.6389 21.1892 19.6733 21.3662 19.742 21.5312C19.8142 21.6963 19.9122 21.8407 20.036 21.9645C20.1598 22.0882 20.3042 22.1862 20.4692 22.2584C20.6342 22.3272 20.8113 22.3616 21.0004 22.3616ZM21.0004 13.1251C25.3496 13.1251 28.8754 16.6508 28.8754 21.0001L26.7193 21.0001L29.7504 26.2501L32.7815 21.0001H30.6254C30.6254 15.6843 26.3161 11.3751 21.0004 11.3751V13.1251ZM13.1254 21.0001C13.1254 25.3493 16.6511 28.8751 21.0004 28.8751V30.6251C15.6846 30.6251 11.3754 26.3158 11.3754 21.0001H9.2193L12.2504 15.7501L15.2815 21.0001H13.1254Z" fill="#333333"/>
</svg>
