<svg width="42" height="42" viewBox="0 0 42 42" fill="none" xmlns="http://www.w3.org/2000/svg">
<path d="M32.4573 31.7874C32.2945 31.7724 32.1307 31.7724 31.968 31.7874C31.966 31.5915 31.9209 31.3985 31.836 31.222C31.751 31.0455 31.6283 30.8898 31.4765 30.766C31.2941 30.6261 31.0834 30.5274 30.8591 30.4769C30.6348 30.4263 30.4022 30.4251 30.1774 30.4733C30.142 30.2382 30.0505 30.015 29.9106 29.8228C29.7708 29.6305 29.5867 29.4747 29.3739 29.3686C29.0142 29.1965 28.6073 29.1498 28.218 29.2361C27.9916 28.7562 27.597 28.376 27.109 28.1677C26.9115 28.0752 26.6966 28.0256 26.4786 28.0223C26.2605 28.019 26.0442 28.062 25.844 28.1485C25.7162 27.9027 25.5174 27.7009 25.2735 27.5694C25.0563 27.4427 24.8127 27.3679 24.5617 27.3509C24.3108 27.3338 24.0593 27.375 23.8269 27.4711C23.6649 27.2146 23.4287 27.0134 23.1496 26.8942C22.6517 26.6592 22.1154 26.8558 21.7073 27.0673C21.5792 26.8685 21.4088 26.7005 21.2082 26.5753C21.0076 26.4501 20.7818 26.3707 20.547 26.3429C20.3038 26.3081 20.056 26.3218 19.818 26.383C19.5801 26.4442 19.3565 26.5519 19.1603 26.6998C19.0106 26.5272 18.825 26.3894 18.6164 26.296C18.4079 26.2026 18.1815 26.1559 17.953 26.1592C17.517 26.1446 17.089 26.2788 16.7393 26.5395C16.4387 26.3313 16.0792 26.2249 15.7137 26.2361C15.4703 26.2336 15.2294 26.2845 15.0078 26.3853C14.7863 26.4861 14.5896 26.6343 14.4316 26.8194C13.9844 26.5755 13.4677 26.4904 12.9658 26.578C12.4447 26.6505 11.9639 26.8985 11.6026 27.281C11.2586 27.0844 10.8334 27.0075 10.0812 27.2126C9.84653 27.2631 9.62579 27.3645 9.43454 27.5096C9.2433 27.6547 9.08622 27.8399 8.97438 28.0523C8.58911 27.9277 8.17636 27.9151 7.78421 28.016C7.50309 28.0882 7.23993 28.2177 7.01122 28.3964C6.78252 28.5751 6.5932 28.7992 6.45515 29.0545C6.08763 28.9669 5.5107 28.9669 4.85258 29.5823C4.55974 29.8764 4.34396 30.2382 4.22438 30.6357C4.00743 30.6566 3.79285 30.6973 3.58335 30.7575V25.9797H1.16669V40.5096H34.8804V25.9797H32.4573V31.7874Z" fill="#333333"/>
<path d="M19.1026 15.3792L17.9638 14.7082C17.0535 15.4219 13.5364 18.4305 12.2415 23.2659L13.421 23.4561C14.4362 20.242 16.4208 17.4208 19.1026 15.3792Z" fill="#333333"/>
<path d="M16.4464 23.232L17.6686 23.341C17.8588 20.2897 20.0874 17.3196 20.8737 16.3581L19.8438 15.7769C19.3054 16.4307 16.5511 19.9115 16.4464 23.232Z" fill="#333333"/>
<path d="M21.6793 16.813C21.3075 17.516 19.3502 21.4241 20.4806 23.4369L21.5639 23.0844C20.9742 21.3301 22.1066 18.6186 22.6814 17.4028L21.6793 16.813Z" fill="#333333"/>
<path d="M40.8333 10.6507L40.8226 13.39L40.8183 17.5631L40.8226 20.2832L29.0832 13.6443L24.6709 16.7874L17.8909 12.9434L24.7136 1.49042L40.8333 10.6507Z" fill="#333333"/>
</svg>
